{
  "header": {
    "keySignatures": [],
    "meta": [],
    "name": "",
    "ppq": 384,
    "tempos": [
      {
        "bpm": 145.00003625000906,
        "ticks": 0
      }
    ],
    "timeSignatures": [
      {
        "ticks": 0,
        "timeSignature": [
          4,
          4
        ],
        "measures": 0
      }
    ]
  },
  "tracks": [
    {
      "channel": 0,
      "controlChanges": {},
      "pitchBends": [],
      "instrument": {
        "family": "bass",
        "number": 32,
        "name": "acoustic bass"
      },
      "name": "Bass (Classic)",
      "notes": [
        {
          "duration": 0.4137930000000054,
          "durationTicks": 384,
          "midi": 55,
          "name": "G3",
          "ticks": 49920,
          "time": 53.79309,
          "velocity": 0.3937007874015748
        },
        {
          "duration": 0.4137930000000054,
          "durationTicks": 384,
          "midi": 54,
          "name": "F#3",
          "ticks": 51456,
          "time": 55.448262,
          "velocity": 0.3937007874015748
        },
        {
          "duration": 0.4137930000000054,
          "durationTicks": 384,
          "midi": 58,
          "name": "A#3",
          "ticks": 52992,
          "time": 57.103434,
          "velocity": 0.3937007874015748
        },
        {
          "duration": 0.4137930000000054,
          "durationTicks": 384,
          "midi": 57,
          "name": "A3",
          "ticks": 54528,
          "time": 58.758606,
          "velocity": 0.3937007874015748
        },
        {
          "duration": 0.4137930000000054,
          "durationTicks": 384,
          "midi": 55,
          "name": "G3",
          "ticks": 56064,
          "time": 60.413778,
          "velocity": 0.3937007874015748
        },
        {
          "duration": 0.4137930000000054,
          "durationTicks": 384,
          "midi": 54,
          "name": "F#3",
          "ticks": 57600,
          "time": 62.06895,
          "velocity": 0.3937007874015748
        },
        {
          "duration": 0.4137930000000054,
          "durationTicks": 384,
          "midi": 58,
          "name": "A#3",
          "ticks": 59136,
          "time": 63.724122,
          "velocity": 0.3937007874015748
        }
      ],
      "endOfTrackTicks": 59520
    },
    {
      "channel": 1,
      "controlChanges": {},
      "pitchBends": [],
      "instrument": {
        "family": "piano",
        "number": 0,
        "name": "acoustic grand piano"
      },
      "name": "Grand Piano (Classic)",
      "notes": [
        {
          "duration": 0.827586,
          "durationTicks": 768,
          "midi": 38,
          "name": "D2",
          "ticks": 0,
          "time": 0,
          "velocity": 0.3937007874015748
        },
        {
          "duration": 0.827586,
          "durationTicks": 768,
          "midi": 26,
          "name": "D1",
          "ticks": 0,
          "time": 0,
          "velocity": 0.3937007874015748
        },
        {
          "duration": 0.827586,
          "durationTicks": 768,
          "midi": 26,
          "name": "D1",
          "ticks": 0,
          "time": 0,
          "velocity": 0.3937007874015748
        },
        {
          "duration": 0.827586,
          "durationTicks": 768,
          "midi": 38,
          "name": "D2",
          "ticks": 0,
          "time": 0,
          "velocity": 0.3937007874015748
        },
        {
          "duration": 0.4137930000000001,
          "durationTicks": 384,
          "midi": 26,
          "name": "D1",
          "ticks": 1152,
          "time": 1.241379,
          "velocity": 0.3937007874015748
        },
        {
          "duration": 0.4137930000000001,
          "durationTicks": 384,
          "midi": 26,
          "name": "D1",
          "ticks": 1152,
          "time": 1.241379,
          "velocity": 0.3937007874015748
        },
        {
          "duration": 0.4137930000000001,
          "durationTicks": 384,
          "midi": 38,
          "name": "D2",
          "ticks": 1152,
          "time": 1.241379,
          "velocity": 0.3937007874015748
        },
        {
          "duration": 0.4137930000000001,
          "durationTicks": 384,
          "midi": 38,
          "name": "D2",
          "ticks": 1152,
          "time": 1.241379,
          "velocity": 0.3937007874015748
        },
        {
          "duration": 0.8275859999999999,
          "durationTicks": 768,
          "midi": 25,
          "name": "C#1",
          "ticks": 1536,
          "time": 1.655172,
          "velocity": 0.3937007874015748
        },
        {
          "duration": 0.8275859999999999,
          "durationTicks": 768,
          "midi": 37,
          "name": "C#2",
          "ticks": 1536,
          "time": 1.655172,
          "velocity": 0.3937007874015748
        },
        {
          "duration": 0.8275859999999999,
          "durationTicks": 768,
          "midi": 25,
          "name": "C#1",
          "ticks": 1536,
          "time": 1.655172,
          "velocity": 0.3937007874015748
        },
        {
          "duration": 0.8275859999999999,
          "durationTicks": 768,
          "midi": 37,
          "name": "C#2",
          "ticks": 1536,
          "time": 1.655172,
          "velocity": 0.3937007874015748
        },
        {
          "duration": 0.4137930000000001,
          "durationTicks": 384,
          "midi": 37,
          "name": "C#2",
          "ticks": 2688,
          "time": 2.896551,
          "velocity": 0.3937007874015748
        },
        {
          "duration": 0.4137930000000001,
          "durationTicks": 384,
          "midi": 37,
          "name": "C#2",
          "ticks": 2688,
          "time": 2.896551,
          "velocity": 0.3937007874015748
        },
        {
          "duration": 0.4137930000000001,
          "durationTicks": 384,
          "midi": 25,
          "name": "C#1",
          "ticks": 2688,
          "time": 2.896551,
          "velocity": 0.3937007874015748
        },
        {
          "duration": 0.4137930000000001,
          "durationTicks": 384,
          "midi": 25,
          "name": "C#1",
          "ticks": 2688,
          "time": 2.896551,
          "velocity": 0.3937007874015748
        },
        {
          "duration": 0.8275859999999997,
          "durationTicks": 768,
          "midi": 30,
          "name": "F#1",
          "ticks": 3072,
          "time": 3.310344,
          "velocity": 0.3937007874015748
        },
        {
          "duration": 0.8275859999999997,
          "durationTicks": 768,
          "midi": 42,
          "name": "F#2",
          "ticks": 3072,
          "time": 3.310344,
          "velocity": 0.3937007874015748
        },
        {
          "duration": 0.8275859999999997,
          "durationTicks": 768,
          "midi": 42,
          "name": "F#2",
          "ticks": 3072,
          "time": 3.310344,
          "velocity": 0.3937007874015748
        },
        {
          "duration": 0.8275859999999997,
          "durationTicks": 768,
          "midi": 30,
          "name": "F#1",
          "ticks": 3072,
          "time": 3.310344,
          "velocity": 0.3937007874015748
        },
        {
          "duration": 0.4137930000000001,
          "durationTicks": 384,
          "midi": 42,
          "name": "F#2",
          "ticks": 4224,
          "time": 4.551723,
          "velocity": 0.3937007874015748
        },
        {
          "duration": 0.4137930000000001,
          "durationTicks": 384,
          "midi": 42,
          "name": "F#2",
          "ticks": 4224,
          "time": 4.551723,
          "velocity": 0.3937007874015748
        },
        {
          "duration": 0.4137930000000001,
          "durationTicks": 384,
          "midi": 30,
          "name": "F#1",
          "ticks": 4224,
          "time": 4.551723,
          "velocity": 0.3937007874015748
        },
        {
          "duration": 0.4137930000000001,
          "durationTicks": 384,
          "midi": 30,
          "name": "F#1",
          "ticks": 4224,
          "time": 4.551723,
          "velocity": 0.3937007874015748
        },
        {
          "duration": 0.8275860000000002,
          "durationTicks": 768,
          "midi": 28,
          "name": "E1",
          "ticks": 4608,
          "time": 4.965516,
          "velocity": 0.3937007874015748
        },
        {
          "duration": 0.8275860000000002,
          "durationTicks": 768,
          "midi": 40,
          "name": "E2",
          "ticks": 4608,
          "time": 4.965516,
          "velocity": 0.3937007874015748
        },
        {
          "duration": 0.8275860000000002,
          "durationTicks": 768,
          "midi": 28,
          "name": "E1",
          "ticks": 4608,
          "time": 4.965516,
          "velocity": 0.3937007874015748
        },
        {
          "duration": 0.8275860000000002,
          "durationTicks": 768,
          "midi": 40,
          "name": "E2",
          "ticks": 4608,
          "time": 4.965516,
          "velocity": 0.3937007874015748
        },
        {
          "duration": 0.4137930000000001,
          "durationTicks": 384,
          "midi": 40,
          "name": "E2",
          "ticks": 5760,
          "time": 6.206895,
          "velocity": 0.3937007874015748
        },
        {
          "duration": 0.4137930000000001,
          "durationTicks": 384,
          "midi": 40,
          "name": "E2",
          "ticks": 5760,
          "time": 6.206895,
          "velocity": 0.3937007874015748
        },
        {
          "duration": 0.4137930000000001,
          "durationTicks": 384,
          "midi": 28,
          "name": "E1",
          "ticks": 5760,
          "time": 6.206895,
          "velocity": 0.3937007874015748
        },
        {
          "duration": 0.4137930000000001,
          "durationTicks": 384,
          "midi": 28,
          "name": "E1",
          "ticks": 5760,
          "time": 6.206895,
          "velocity": 0.3937007874015748
        },
        {
          "duration": 0.8275860000000002,
          "durationTicks": 768,
          "midi": 26,
          "name": "D1",
          "ticks": 6144,
          "time": 6.620688,
          "velocity": 0.3937007874015748
        },
        {
          "duration": 0.8275860000000002,
          "durationTicks": 768,
          "midi": 26,
          "name": "D1",
          "ticks": 6144,
          "time": 6.620688,
          "velocity": 0.3937007874015748
        },
        {
          "duration": 0.8275860000000002,
          "durationTicks": 768,
          "midi": 38,
          "name": "D2",
          "ticks": 6144,
          "time": 6.620688,
          "velocity": 0.3937007874015748
        },
        {
          "duration": 0.8275860000000002,
          "durationTicks": 768,
          "midi": 38,
          "name": "D2",
          "ticks": 6144,
          "time": 6.620688,
          "velocity": 0.3937007874015748
        },
        {
          "duration": 0.4137929999999992,
          "durationTicks": 384,
          "midi": 38,
          "name": "D2",
          "ticks": 7296,
          "time": 7.862067000000001,
          "velocity": 0.3937007874015748
        },
        {
          "duration": 0.4137929999999992,
          "durationTicks": 384,
          "midi": 38,
          "name": "D2",
          "ticks": 7296,
          "time": 7.862067000000001,
          "velocity": 0.3937007874015748
        },
        {
          "duration": 0.4137929999999992,
          "durationTicks": 384,
          "midi": 26,
          "name": "D1",
          "ticks": 7296,
          "time": 7.862067000000001,
          "velocity": 0.3937007874015748
        },
        {
          "duration": 0.4137929999999992,
          "durationTicks": 384,
          "midi": 26,
          "name": "D1",
          "ticks": 7296,
          "time": 7.862067000000001,
          "velocity": 0.3937007874015748
        },
        {
          "duration": 0.8275860000000002,
          "durationTicks": 768,
          "midi": 37,
          "name": "C#2",
          "ticks": 7680,
          "time": 8.27586,
          "velocity": 0.3937007874015748
        },
        {
          "duration": 0.8275860000000002,
          "durationTicks": 768,
          "midi": 25,
          "name": "C#1",
          "ticks": 7680,
          "time": 8.27586,
          "velocity": 0.3937007874015748
        },
        {
          "duration": 0.8275860000000002,
          "durationTicks": 768,
          "midi": 25,
          "name": "C#1",
          "ticks": 7680,
          "time": 8.27586,
          "velocity": 0.3937007874015748
        },
        {
          "duration": 0.8275860000000002,
          "durationTicks": 768,
          "midi": 37,
          "name": "C#2",
          "ticks": 7680,
          "time": 8.27586,
          "velocity": 0.3937007874015748
        },
        {
          "duration": 0.4137930000000001,
          "durationTicks": 384,
          "midi": 25,
          "name": "C#1",
          "ticks": 8832,
          "time": 9.517239,
          "velocity": 0.3937007874015748
        },
        {
          "duration": 0.4137930000000001,
          "durationTicks": 384,
          "midi": 37,
          "name": "C#2",
          "ticks": 8832,
          "time": 9.517239,
          "velocity": 0.3937007874015748
        },
        {
          "duration": 0.4137930000000001,
          "durationTicks": 384,
          "midi": 37,
          "name": "C#2",
          "ticks": 8832,
          "time": 9.517239,
          "velocity": 0.3937007874015748
        },
        {
          "duration": 0.4137930000000001,
          "durationTicks": 384,
          "midi": 25,
          "name": "C#1",
          "ticks": 8832,
          "time": 9.517239,
          "velocity": 0.3937007874015748
        },
        {
          "duration": 0.8275860000000002,
          "durationTicks": 768,
          "midi": 30,
          "name": "F#1",
          "ticks": 9216,
          "time": 9.931032,
          "velocity": 0.3937007874015748
        },
        {
          "duration": 0.8275860000000002,
          "durationTicks": 768,
          "midi": 42,
          "name": "F#2",
          "ticks": 9216,
          "time": 9.931032,
          "velocity": 0.3937007874015748
        },
        {
          "duration": 0.8275860000000002,
          "durationTicks": 768,
          "midi": 30,
          "name": "F#1",
          "ticks": 9216,
          "time": 9.931032,
          "velocity": 0.3937007874015748
        },
        {
          "duration": 0.8275860000000002,
          "durationTicks": 768,
          "midi": 42,
          "name": "F#2",
          "ticks": 9216,
          "time": 9.931032,
          "velocity": 0.3937007874015748
        },
        {
          "duration": 0.4137930000000001,
          "durationTicks": 384,
          "midi": 30,
          "name": "F#1",
          "ticks": 10368,
          "time": 11.172411,
          "velocity": 0.3937007874015748
        },
        {
          "duration": 0.4137930000000001,
          "durationTicks": 384,
          "midi": 42,
          "name": "F#2",
          "ticks": 10368,
          "time": 11.172411,
          "velocity": 0.3937007874015748
        },
        {
          "duration": 0.4137930000000001,
          "durationTicks": 384,
          "midi": 30,
          "name": "F#1",
          "ticks": 10368,
          "time": 11.172411,
          "velocity": 0.3937007874015748
        },
        {
          "duration": 0.4137930000000001,
          "durationTicks": 384,
          "midi": 42,
          "name": "F#2",
          "ticks": 10368,
          "time": 11.172411,
          "velocity": 0.3937007874015748
        },
        {
          "duration": 0.8275860000000002,
          "durationTicks": 768,
          "midi": 40,
          "name": "E2",
          "ticks": 10752,
          "time": 11.586204,
          "velocity": 0.3937007874015748
        },
        {
          "duration": 0.8275860000000002,
          "durationTicks": 768,
          "midi": 40,
          "name": "E2",
          "ticks": 10752,
          "time": 11.586204,
          "velocity": 0.3937007874015748
        },
        {
          "duration": 0.8275860000000002,
          "durationTicks": 768,
          "midi": 28,
          "name": "E1",
          "ticks": 10752,
          "time": 11.586204,
          "velocity": 0.3937007874015748
        },
        {
          "duration": 0.8275860000000002,
          "durationTicks": 768,
          "midi": 28,
          "name": "E1",
          "ticks": 10752,
          "time": 11.586204,
          "velocity": 0.3937007874015748
        },
        {
          "duration": 0.4137930000000001,
          "durationTicks": 384,
          "midi": 28,
          "name": "E1",
          "ticks": 11904,
          "time": 12.827583,
          "velocity": 0.3937007874015748
        },
        {
          "duration": 0.4137930000000001,
          "durationTicks": 384,
          "midi": 40,
          "name": "E2",
          "ticks": 11904,
          "time": 12.827583,
          "velocity": 0.3937007874015748
        },
        {
          "duration": 0.4137930000000001,
          "durationTicks": 384,
          "midi": 40,
          "name": "E2",
          "ticks": 11904,
          "time": 12.827583,
          "velocity": 0.3937007874015748
        },
        {
          "duration": 0.4137930000000001,
          "durationTicks": 384,
          "midi": 28,
          "name": "E1",
          "ticks": 11904,
          "time": 12.827583,
          "velocity": 0.3937007874015748
        },
        {
          "duration": 0.20689649999999915,
          "durationTicks": 192,
          "midi": 38,
          "name": "D2",
          "ticks": 49152,
          "time": 52.965504,
          "velocity": 0.3937007874015748
        },
        {
          "duration": 0.20689649999999915,
          "durationTicks": 192,
          "midi": 26,
          "name": "D1",
          "ticks": 49152,
          "time": 52.965504,
          "velocity": 0.3937007874015748
        },
        {
          "duration": 0.20689649999999915,
          "durationTicks": 192,
          "midi": 30,
          "name": "F#1",
          "ticks": 49344,
          "time": 53.1724005,
          "velocity": 0.3937007874015748
        },
        {
          "duration": 0.20689649999999915,
          "durationTicks": 192,
          "midi": 42,
          "name": "F#2",
          "ticks": 49344,
          "time": 53.1724005,
          "velocity": 0.3937007874015748
        },
        {
          "duration": 0.20689649999999915,
          "durationTicks": 192,
          "midi": 31,
          "name": "G1",
          "ticks": 49536,
          "time": 53.379297,
          "velocity": 0.3937007874015748
        },
        {
          "duration": 0.20689649999999915,
          "durationTicks": 192,
          "midi": 43,
          "name": "G2",
          "ticks": 49536,
          "time": 53.379297,
          "velocity": 0.3937007874015748
        },
        {
          "duration": 0.20689649999999915,
          "durationTicks": 192,
          "midi": 38,
          "name": "D2",
          "ticks": 49728,
          "time": 53.5861935,
          "velocity": 0.3937007874015748
        },
        {
          "duration": 0.20689649999999915,
          "durationTicks": 192,
          "midi": 50,
          "name": "D3",
          "ticks": 49728,
          "time": 53.5861935,
          "velocity": 0.3937007874015748
        },
        {
          "duration": 0.8275860000000108,
          "durationTicks": 768,
          "midi": 25,
          "name": "C#1",
          "ticks": 74496,
          "time": 80.275842,
          "velocity": 0.3937007874015748
        },
        {
          "duration": 0.8275860000000108,
          "durationTicks": 768,
          "midi": 37,
          "name": "C#2",
          "ticks": 74496,
          "time": 80.275842,
          "velocity": 0.3937007874015748
        },
        {
          "duration": 0.8275860000000108,
          "durationTicks": 768,
          "midi": 37,
          "name": "C#2",
          "ticks": 74496,
          "time": 80.275842,
          "velocity": 0.3937007874015748
        },
        {
          "duration": 0.8275860000000108,
          "durationTicks": 768,
          "midi": 25,
          "name": "C#1",
          "ticks": 74496,
          "time": 80.275842,
          "velocity": 0.3937007874015748
        },
        {
          "duration": 0.4137929999999983,
          "durationTicks": 384,
          "midi": 37,
          "name": "C#2",
          "ticks": 75648,
          "time": 81.517221,
          "velocity": 0.3937007874015748
        },
        {
          "duration": 0.4137929999999983,
          "durationTicks": 384,
          "midi": 37,
          "name": "C#2",
          "ticks": 75648,
          "time": 81.517221,
          "velocity": 0.3937007874015748
        },
        {
          "duration": 0.4137929999999983,
          "durationTicks": 384,
          "midi": 25,
          "name": "C#1",
          "ticks": 75648,
          "time": 81.517221,
          "velocity": 0.3937007874015748
        },
        {
          "duration": 0.4137929999999983,
          "durationTicks": 384,
          "midi": 25,
          "name": "C#1",
          "ticks": 75648,
          "time": 81.517221,
          "velocity": 0.3937007874015748
        },
        {
          "duration": 0.8275859999999966,
          "durationTicks": 768,
          "midi": 36,
          "name": "C2",
          "ticks": 76032,
          "time": 81.931014,
          "velocity": 0.3937007874015748
        },
        {
          "duration": 0.8275859999999966,
          "durationTicks": 768,
          "midi": 36,
          "name": "C2",
          "ticks": 76032,
          "time": 81.931014,
          "velocity": 0.3937007874015748
        },
        {
          "duration": 0.8275859999999966,
          "durationTicks": 768,
          "midi": 24,
          "name": "C1",
          "ticks": 76032,
          "time": 81.931014,
          "velocity": 0.3937007874015748
        },
        {
          "duration": 0.8275859999999966,
          "durationTicks": 768,
          "midi": 24,
          "name": "C1",
          "ticks": 76032,
          "time": 81.931014,
          "velocity": 0.3937007874015748
        },
        {
          "duration": 0.4137929999999983,
          "durationTicks": 384,
          "midi": 36,
          "name": "C2",
          "ticks": 77184,
          "time": 83.172393,
          "velocity": 0.3937007874015748
        },
        {
          "duration": 0.4137929999999983,
          "durationTicks": 384,
          "midi": 24,
          "name": "C1",
          "ticks": 77184,
          "time": 83.172393,
          "velocity": 0.3937007874015748
        },
        {
          "duration": 0.4137929999999983,
          "durationTicks": 384,
          "midi": 36,
          "name": "C2",
          "ticks": 77184,
          "time": 83.172393,
          "velocity": 0.3937007874015748
        },
        {
          "duration": 0.4137929999999983,
          "durationTicks": 384,
          "midi": 24,
          "name": "C1",
          "ticks": 77184,
          "time": 83.172393,
          "velocity": 0.3937007874015748
        },
        {
          "duration": 0.8275860000000108,
          "durationTicks": 768,
          "midi": 41,
          "name": "F2",
          "ticks": 77568,
          "time": 83.586186,
          "velocity": 0.3937007874015748
        },
        {
          "duration": 0.8275860000000108,
          "durationTicks": 768,
          "midi": 29,
          "name": "F1",
          "ticks": 77568,
          "time": 83.586186,
          "velocity": 0.3937007874015748
        },
        {
          "duration": 0.8275860000000108,
          "durationTicks": 768,
          "midi": 41,
          "name": "F2",
          "ticks": 77568,
          "time": 83.586186,
          "velocity": 0.3937007874015748
        },
        {
          "duration": 0.8275860000000108,
          "durationTicks": 768,
          "midi": 29,
          "name": "F1",
          "ticks": 77568,
          "time": 83.586186,
          "velocity": 0.3937007874015748
        },
        {
          "duration": 0.4137929999999983,
          "durationTicks": 384,
          "midi": 41,
          "name": "F2",
          "ticks": 78720,
          "time": 84.827565,
          "velocity": 0.3937007874015748
        },
        {
          "duration": 0.4137929999999983,
          "durationTicks": 384,
          "midi": 29,
          "name": "F1",
          "ticks": 78720,
          "time": 84.827565,
          "velocity": 0.3937007874015748
        },
        {
          "duration": 0.4137929999999983,
          "durationTicks": 384,
          "midi": 41,
          "name": "F2",
          "ticks": 78720,
          "time": 84.827565,
          "velocity": 0.3937007874015748
        },
        {
          "duration": 0.4137929999999983,
          "durationTicks": 384,
          "midi": 29,
          "name": "F1",
          "ticks": 78720,
          "time": 84.827565,
          "velocity": 0.3937007874015748
        },
        {
          "duration": 0.8275859999999966,
          "durationTicks": 768,
          "midi": 39,
          "name": "D#2",
          "ticks": 79104,
          "time": 85.241358,
          "velocity": 0.3937007874015748
        },
        {
          "duration": 0.8275859999999966,
          "durationTicks": 768,
          "midi": 27,
          "name": "D#1",
          "ticks": 79104,
          "time": 85.241358,
          "velocity": 0.3937007874015748
        },
        {
          "duration": 0.8275859999999966,
          "durationTicks": 768,
          "midi": 39,
          "name": "D#2",
          "ticks": 79104,
          "time": 85.241358,
          "velocity": 0.3937007874015748
        },
        {
          "duration": 0.8275859999999966,
          "durationTicks": 768,
          "midi": 27,
          "name": "D#1",
          "ticks": 79104,
          "time": 85.241358,
          "velocity": 0.3937007874015748
        },
        {
          "duration": 0.4137929999999983,
          "durationTicks": 384,
          "midi": 39,
          "name": "D#2",
          "ticks": 80256,
          "time": 86.482737,
          "velocity": 0.3937007874015748
        },
        {
          "duration": 0.4137929999999983,
          "durationTicks": 384,
          "midi": 39,
          "name": "D#2",
          "ticks": 80256,
          "time": 86.482737,
          "velocity": 0.3937007874015748
        },
        {
          "duration": 0.4137929999999983,
          "durationTicks": 384,
          "midi": 27,
          "name": "D#1",
          "ticks": 80256,
          "time": 86.482737,
          "velocity": 0.3937007874015748
        },
        {
          "duration": 0.4137929999999983,
          "durationTicks": 384,
          "midi": 27,
          "name": "D#1",
          "ticks": 80256,
          "time": 86.482737,
          "velocity": 0.3937007874015748
        },
        {
          "duration": 0.8275860000000108,
          "durationTicks": 768,
          "midi": 25,
          "name": "C#1",
          "ticks": 80640,
          "time": 86.89653,
          "velocity": 0.3937007874015748
        },
        {
          "duration": 0.8275860000000108,
          "durationTicks": 768,
          "midi": 37,
          "name": "C#2",
          "ticks": 80640,
          "time": 86.89653,
          "velocity": 0.3937007874015748
        },
        {
          "duration": 0.8275860000000108,
          "durationTicks": 768,
          "midi": 37,
          "name": "C#2",
          "ticks": 80640,
          "time": 86.89653,
          "velocity": 0.3937007874015748
        },
        {
          "duration": 0.8275860000000108,
          "durationTicks": 768,
          "midi": 25,
          "name": "C#1",
          "ticks": 80640,
          "time": 86.89653,
          "velocity": 0.3937007874015748
        },
        {
          "duration": 0.4137929999999983,
          "durationTicks": 384,
          "midi": 37,
          "name": "C#2",
          "ticks": 81792,
          "time": 88.13790900000001,
          "velocity": 0.3937007874015748
        },
        {
          "duration": 0.4137929999999983,
          "durationTicks": 384,
          "midi": 37,
          "name": "C#2",
          "ticks": 81792,
          "time": 88.13790900000001,
          "velocity": 0.3937007874015748
        },
        {
          "duration": 0.4137929999999983,
          "durationTicks": 384,
          "midi": 25,
          "name": "C#1",
          "ticks": 81792,
          "time": 88.13790900000001,
          "velocity": 0.3937007874015748
        },
        {
          "duration": 0.4137929999999983,
          "durationTicks": 384,
          "midi": 25,
          "name": "C#1",
          "ticks": 81792,
          "time": 88.13790900000001,
          "velocity": 0.3937007874015748
        },
        {
          "duration": 0.8275859999999966,
          "durationTicks": 768,
          "midi": 24,
          "name": "C1",
          "ticks": 82176,
          "time": 88.551702,
          "velocity": 0.3937007874015748
        },
        {
          "duration": 0.8275859999999966,
          "durationTicks": 768,
          "midi": 24,
          "name": "C1",
          "ticks": 82176,
          "time": 88.551702,
          "velocity": 0.3937007874015748
        },
        {
          "duration": 0.8275859999999966,
          "durationTicks": 768,
          "midi": 36,
          "name": "C2",
          "ticks": 82176,
          "time": 88.551702,
          "velocity": 0.3937007874015748
        },
        {
          "duration": 0.8275859999999966,
          "durationTicks": 768,
          "midi": 36,
          "name": "C2",
          "ticks": 82176,
          "time": 88.551702,
          "velocity": 0.3937007874015748
        },
        {
          "duration": 0.4137929999999983,
          "durationTicks": 384,
          "midi": 24,
          "name": "C1",
          "ticks": 83328,
          "time": 89.793081,
          "velocity": 0.3937007874015748
        },
        {
          "duration": 0.4137929999999983,
          "durationTicks": 384,
          "midi": 36,
          "name": "C2",
          "ticks": 83328,
          "time": 89.793081,
          "velocity": 0.3937007874015748
        },
        {
          "duration": 0.4137929999999983,
          "durationTicks": 384,
          "midi": 36,
          "name": "C2",
          "ticks": 83328,
          "time": 89.793081,
          "velocity": 0.3937007874015748
        },
        {
          "duration": 0.4137929999999983,
          "durationTicks": 384,
          "midi": 24,
          "name": "C1",
          "ticks": 83328,
          "time": 89.793081,
          "velocity": 0.3937007874015748
        },
        {
          "duration": 0.8275860000000108,
          "durationTicks": 768,
          "midi": 29,
          "name": "F1",
          "ticks": 83712,
          "time": 90.206874,
          "velocity": 0.3937007874015748
        },
        {
          "duration": 0.8275860000000108,
          "durationTicks": 768,
          "midi": 29,
          "name": "F1",
          "ticks": 83712,
          "time": 90.206874,
          "velocity": 0.3937007874015748
        },
        {
          "duration": 0.8275860000000108,
          "durationTicks": 768,
          "midi": 41,
          "name": "F2",
          "ticks": 83712,
          "time": 90.206874,
          "velocity": 0.3937007874015748
        },
        {
          "duration": 0.8275860000000108,
          "durationTicks": 768,
          "midi": 41,
          "name": "F2",
          "ticks": 83712,
          "time": 90.206874,
          "velocity": 0.3937007874015748
        },
        {
          "duration": 0.4137929999999983,
          "durationTicks": 384,
          "midi": 29,
          "name": "F1",
          "ticks": 84864,
          "time": 91.44825300000001,
          "velocity": 0.3937007874015748
        },
        {
          "duration": 0.4137929999999983,
          "durationTicks": 384,
          "midi": 41,
          "name": "F2",
          "ticks": 84864,
          "time": 91.44825300000001,
          "velocity": 0.3937007874015748
        },
        {
          "duration": 0.4137929999999983,
          "durationTicks": 384,
          "midi": 41,
          "name": "F2",
          "ticks": 84864,
          "time": 91.44825300000001,
          "velocity": 0.3937007874015748
        },
        {
          "duration": 0.4137929999999983,
          "durationTicks": 384,
          "midi": 29,
          "name": "F1",
          "ticks": 84864,
          "time": 91.44825300000001,
          "velocity": 0.3937007874015748
        },
        {
          "duration": 0.8275859999999966,
          "durationTicks": 768,
          "midi": 39,
          "name": "D#2",
          "ticks": 85248,
          "time": 91.862046,
          "velocity": 0.3937007874015748
        },
        {
          "duration": 0.8275859999999966,
          "durationTicks": 768,
          "midi": 27,
          "name": "D#1",
          "ticks": 85248,
          "time": 91.862046,
          "velocity": 0.3937007874015748
        },
        {
          "duration": 0.8275859999999966,
          "durationTicks": 768,
          "midi": 27,
          "name": "D#1",
          "ticks": 85248,
          "time": 91.862046,
          "velocity": 0.3937007874015748
        },
        {
          "duration": 0.8275859999999966,
          "durationTicks": 768,
          "midi": 39,
          "name": "D#2",
          "ticks": 85248,
          "time": 91.862046,
          "velocity": 0.3937007874015748
        },
        {
          "duration": 0.4137929999999983,
          "durationTicks": 384,
          "midi": 39,
          "name": "D#2",
          "ticks": 86400,
          "time": 93.103425,
          "velocity": 0.3937007874015748
        },
        {
          "duration": 0.4137929999999983,
          "durationTicks": 384,
          "midi": 39,
          "name": "D#2",
          "ticks": 86400,
          "time": 93.103425,
          "velocity": 0.3937007874015748
        },
        {
          "duration": 0.4137929999999983,
          "durationTicks": 384,
          "midi": 27,
          "name": "D#1",
          "ticks": 86400,
          "time": 93.103425,
          "velocity": 0.3937007874015748
        },
        {
          "duration": 0.4137929999999983,
          "durationTicks": 384,
          "midi": 27,
          "name": "D#1",
          "ticks": 86400,
          "time": 93.103425,
          "velocity": 0.3937007874015748
        },
        {
          "duration": 0.8275860000000108,
          "durationTicks": 768,
          "midi": 25,
          "name": "C#1",
          "ticks": 86784,
          "time": 93.517218,
          "velocity": 0.3937007874015748
        },
        {
          "duration": 0.8275860000000108,
          "durationTicks": 768,
          "midi": 37,
          "name": "C#2",
          "ticks": 86784,
          "time": 93.517218,
          "velocity": 0.3937007874015748
        },
        {
          "duration": 0.8275860000000108,
          "durationTicks": 768,
          "midi": 37,
          "name": "C#2",
          "ticks": 86784,
          "time": 93.517218,
          "velocity": 0.3937007874015748
        },
        {
          "duration": 0.8275860000000108,
          "durationTicks": 768,
          "midi": 25,
          "name": "C#1",
          "ticks": 86784,
          "time": 93.517218,
          "velocity": 0.3937007874015748
        },
        {
          "duration": 0.4137929999999983,
          "durationTicks": 384,
          "midi": 37,
          "name": "C#2",
          "ticks": 87936,
          "time": 94.75859700000001,
          "velocity": 0.3937007874015748
        },
        {
          "duration": 0.4137929999999983,
          "durationTicks": 384,
          "midi": 25,
          "name": "C#1",
          "ticks": 87936,
          "time": 94.75859700000001,
          "velocity": 0.3937007874015748
        },
        {
          "duration": 0.4137929999999983,
          "durationTicks": 384,
          "midi": 37,
          "name": "C#2",
          "ticks": 87936,
          "time": 94.75859700000001,
          "velocity": 0.3937007874015748
        },
        {
          "duration": 0.4137929999999983,
          "durationTicks": 384,
          "midi": 25,
          "name": "C#1",
          "ticks": 87936,
          "time": 94.75859700000001,
          "velocity": 0.3937007874015748
        },
        {
          "duration": 0.8275859999999966,
          "durationTicks": 768,
          "midi": 36,
          "name": "C2",
          "ticks": 88320,
          "time": 95.17239000000001,
          "velocity": 0.3937007874015748
        },
        {
          "duration": 0.8275859999999966,
          "durationTicks": 768,
          "midi": 24,
          "name": "C1",
          "ticks": 88320,
          "time": 95.17239000000001,
          "velocity": 0.3937007874015748
        },
        {
          "duration": 0.8275859999999966,
          "durationTicks": 768,
          "midi": 36,
          "name": "C2",
          "ticks": 88320,
          "time": 95.17239000000001,
          "velocity": 0.3937007874015748
        },
        {
          "duration": 0.8275859999999966,
          "durationTicks": 768,
          "midi": 24,
          "name": "C1",
          "ticks": 88320,
          "time": 95.17239000000001,
          "velocity": 0.3937007874015748
        },
        {
          "duration": 0.4137929999999983,
          "durationTicks": 384,
          "midi": 24,
          "name": "C1",
          "ticks": 89472,
          "time": 96.413769,
          "velocity": 0.3937007874015748
        },
        {
          "duration": 0.4137929999999983,
          "durationTicks": 384,
          "midi": 36,
          "name": "C2",
          "ticks": 89472,
          "time": 96.413769,
          "velocity": 0.3937007874015748
        },
        {
          "duration": 0.4137929999999983,
          "durationTicks": 384,
          "midi": 36,
          "name": "C2",
          "ticks": 89472,
          "time": 96.413769,
          "velocity": 0.3937007874015748
        },
        {
          "duration": 0.4137929999999983,
          "durationTicks": 384,
          "midi": 24,
          "name": "C1",
          "ticks": 89472,
          "time": 96.413769,
          "velocity": 0.3937007874015748
        },
        {
          "duration": 0.8275860000000108,
          "durationTicks": 768,
          "midi": 41,
          "name": "F2",
          "ticks": 89856,
          "time": 96.827562,
          "velocity": 0.3937007874015748
        },
        {
          "duration": 0.8275860000000108,
          "durationTicks": 768,
          "midi": 29,
          "name": "F1",
          "ticks": 89856,
          "time": 96.827562,
          "velocity": 0.3937007874015748
        },
        {
          "duration": 0.8275860000000108,
          "durationTicks": 768,
          "midi": 29,
          "name": "F1",
          "ticks": 89856,
          "time": 96.827562,
          "velocity": 0.3937007874015748
        },
        {
          "duration": 0.8275860000000108,
          "durationTicks": 768,
          "midi": 41,
          "name": "F2",
          "ticks": 89856,
          "time": 96.827562,
          "velocity": 0.3937007874015748
        },
        {
          "duration": 0.4137929999999983,
          "durationTicks": 384,
          "midi": 29,
          "name": "F1",
          "ticks": 91008,
          "time": 98.06894100000001,
          "velocity": 0.3937007874015748
        },
        {
          "duration": 0.4137929999999983,
          "durationTicks": 384,
          "midi": 29,
          "name": "F1",
          "ticks": 91008,
          "time": 98.06894100000001,
          "velocity": 0.3937007874015748
        },
        {
          "duration": 0.4137929999999983,
          "durationTicks": 384,
          "midi": 41,
          "name": "F2",
          "ticks": 91008,
          "time": 98.06894100000001,
          "velocity": 0.3937007874015748
        },
        {
          "duration": 0.4137929999999983,
          "durationTicks": 384,
          "midi": 41,
          "name": "F2",
          "ticks": 91008,
          "time": 98.06894100000001,
          "velocity": 0.3937007874015748
        },
        {
          "duration": 0.8275859999999966,
          "durationTicks": 768,
          "midi": 39,
          "name": "D#2",
          "ticks": 91392,
          "time": 98.48273400000001,
          "velocity": 0.3937007874015748
        },
        {
          "duration": 0.8275859999999966,
          "durationTicks": 768,
          "midi": 39,
          "name": "D#2",
          "ticks": 91392,
          "time": 98.48273400000001,
          "velocity": 0.3937007874015748
        },
        {
          "duration": 0.8275859999999966,
          "durationTicks": 768,
          "midi": 27,
          "name": "D#1",
          "ticks": 91392,
          "time": 98.48273400000001,
          "velocity": 0.3937007874015748
        },
        {
          "duration": 0.8275859999999966,
          "durationTicks": 768,
          "midi": 27,
          "name": "D#1",
          "ticks": 91392,
          "time": 98.48273400000001,
          "velocity": 0.3937007874015748
        },
        {
          "duration": 0.4137929999999983,
          "durationTicks": 384,
          "midi": 27,
          "name": "D#1",
          "ticks": 92544,
          "time": 99.724113,
          "velocity": 0.3937007874015748
        },
        {
          "duration": 0.4137929999999983,
          "durationTicks": 384,
          "midi": 39,
          "name": "D#2",
          "ticks": 92544,
          "time": 99.724113,
          "velocity": 0.3937007874015748
        },
        {
          "duration": 0.4137929999999983,
          "durationTicks": 384,
          "midi": 27,
          "name": "D#1",
          "ticks": 92544,
          "time": 99.724113,
          "velocity": 0.3937007874015748
        },
        {
          "duration": 0.4137929999999983,
          "durationTicks": 384,
          "midi": 39,
          "name": "D#2",
          "ticks": 92544,
          "time": 99.724113,
          "velocity": 0.3937007874015748
        },
        {
          "duration": 0.8275860000000108,
          "durationTicks": 768,
          "midi": 25,
          "name": "C#1",
          "ticks": 92928,
          "time": 100.137906,
          "velocity": 0.3937007874015748
        },
        {
          "duration": 0.8275860000000108,
          "durationTicks": 768,
          "midi": 37,
          "name": "C#2",
          "ticks": 92928,
          "time": 100.137906,
          "velocity": 0.3937007874015748
        },
        {
          "duration": 0.8275860000000108,
          "durationTicks": 768,
          "midi": 37,
          "name": "C#2",
          "ticks": 92928,
          "time": 100.137906,
          "velocity": 0.3937007874015748
        },
        {
          "duration": 0.8275860000000108,
          "durationTicks": 768,
          "midi": 25,
          "name": "C#1",
          "ticks": 92928,
          "time": 100.137906,
          "velocity": 0.3937007874015748
        },
        {
          "duration": 0.4137929999999983,
          "durationTicks": 384,
          "midi": 37,
          "name": "C#2",
          "ticks": 94080,
          "time": 101.37928500000001,
          "velocity": 0.3937007874015748
        },
        {
          "duration": 0.4137929999999983,
          "durationTicks": 384,
          "midi": 25,
          "name": "C#1",
          "ticks": 94080,
          "time": 101.37928500000001,
          "velocity": 0.3937007874015748
        },
        {
          "duration": 0.4137929999999983,
          "durationTicks": 384,
          "midi": 25,
          "name": "C#1",
          "ticks": 94080,
          "time": 101.37928500000001,
          "velocity": 0.3937007874015748
        },
        {
          "duration": 0.4137929999999983,
          "durationTicks": 384,
          "midi": 37,
          "name": "C#2",
          "ticks": 94080,
          "time": 101.37928500000001,
          "velocity": 0.3937007874015748
        },
        {
          "duration": 0.8275859999999966,
          "durationTicks": 768,
          "midi": 24,
          "name": "C1",
          "ticks": 94464,
          "time": 101.79307800000001,
          "velocity": 0.3937007874015748
        },
        {
          "duration": 0.8275859999999966,
          "durationTicks": 768,
          "midi": 24,
          "name": "C1",
          "ticks": 94464,
          "time": 101.79307800000001,
          "velocity": 0.3937007874015748
        },
        {
          "duration": 0.8275859999999966,
          "durationTicks": 768,
          "midi": 36,
          "name": "C2",
          "ticks": 94464,
          "time": 101.79307800000001,
          "velocity": 0.3937007874015748
        },
        {
          "duration": 0.8275859999999966,
          "durationTicks": 768,
          "midi": 36,
          "name": "C2",
          "ticks": 94464,
          "time": 101.79307800000001,
          "velocity": 0.3937007874015748
        },
        {
          "duration": 0.4137929999999983,
          "durationTicks": 384,
          "midi": 24,
          "name": "C1",
          "ticks": 95616,
          "time": 103.034457,
          "velocity": 0.3937007874015748
        },
        {
          "duration": 0.4137929999999983,
          "durationTicks": 384,
          "midi": 36,
          "name": "C2",
          "ticks": 95616,
          "time": 103.034457,
          "velocity": 0.3937007874015748
        },
        {
          "duration": 0.4137929999999983,
          "durationTicks": 384,
          "midi": 24,
          "name": "C1",
          "ticks": 95616,
          "time": 103.034457,
          "velocity": 0.3937007874015748
        },
        {
          "duration": 0.4137929999999983,
          "durationTicks": 384,
          "midi": 36,
          "name": "C2",
          "ticks": 95616,
          "time": 103.034457,
          "velocity": 0.3937007874015748
        },
        {
          "duration": 0.8275860000000108,
          "durationTicks": 768,
          "midi": 29,
          "name": "F1",
          "ticks": 96000,
          "time": 103.44825,
          "velocity": 0.3937007874015748
        },
        {
          "duration": 0.8275860000000108,
          "durationTicks": 768,
          "midi": 29,
          "name": "F1",
          "ticks": 96000,
          "time": 103.44825,
          "velocity": 0.3937007874015748
        },
        {
          "duration": 0.8275860000000108,
          "durationTicks": 768,
          "midi": 41,
          "name": "F2",
          "ticks": 96000,
          "time": 103.44825,
          "velocity": 0.3937007874015748
        },
        {
          "duration": 0.8275860000000108,
          "durationTicks": 768,
          "midi": 41,
          "name": "F2",
          "ticks": 96000,
          "time": 103.44825,
          "velocity": 0.3937007874015748
        },
        {
          "duration": 0.4137929999999983,
          "durationTicks": 384,
          "midi": 41,
          "name": "F2",
          "ticks": 97152,
          "time": 104.68962900000001,
          "velocity": 0.3937007874015748
        },
        {
          "duration": 0.4137929999999983,
          "durationTicks": 384,
          "midi": 29,
          "name": "F1",
          "ticks": 97152,
          "time": 104.68962900000001,
          "velocity": 0.3937007874015748
        },
        {
          "duration": 0.4137929999999983,
          "durationTicks": 384,
          "midi": 29,
          "name": "F1",
          "ticks": 97152,
          "time": 104.68962900000001,
          "velocity": 0.3937007874015748
        },
        {
          "duration": 0.4137929999999983,
          "durationTicks": 384,
          "midi": 41,
          "name": "F2",
          "ticks": 97152,
          "time": 104.68962900000001,
          "velocity": 0.3937007874015748
        },
        {
          "duration": 0.8275859999999966,
          "durationTicks": 768,
          "midi": 39,
          "name": "D#2",
          "ticks": 97536,
          "time": 105.10342200000001,
          "velocity": 0.3937007874015748
        },
        {
          "duration": 0.8275859999999966,
          "durationTicks": 768,
          "midi": 27,
          "name": "D#1",
          "ticks": 97536,
          "time": 105.10342200000001,
          "velocity": 0.3937007874015748
        },
        {
          "duration": 0.8275859999999966,
          "durationTicks": 768,
          "midi": 27,
          "name": "D#1",
          "ticks": 97536,
          "time": 105.10342200000001,
          "velocity": 0.3937007874015748
        },
        {
          "duration": 0.8275859999999966,
          "durationTicks": 768,
          "midi": 39,
          "name": "D#2",
          "ticks": 97536,
          "time": 105.10342200000001,
          "velocity": 0.3937007874015748
        },
        {
          "duration": 0.4137929999999983,
          "durationTicks": 384,
          "midi": 27,
          "name": "D#1",
          "ticks": 98688,
          "time": 106.344801,
          "velocity": 0.3937007874015748
        },
        {
          "duration": 0.4137929999999983,
          "durationTicks": 384,
          "midi": 27,
          "name": "D#1",
          "ticks": 98688,
          "time": 106.344801,
          "velocity": 0.3937007874015748
        },
        {
          "duration": 0.4137929999999983,
          "durationTicks": 384,
          "midi": 39,
          "name": "D#2",
          "ticks": 98688,
          "time": 106.344801,
          "velocity": 0.3937007874015748
        },
        {
          "duration": 0.4137929999999983,
          "durationTicks": 384,
          "midi": 39,
          "name": "D#2",
          "ticks": 98688,
          "time": 106.344801,
          "velocity": 0.3937007874015748
        },
        {
          "duration": 0.8275859999999966,
          "durationTicks": 768,
          "midi": 25,
          "name": "C#1",
          "ticks": 99072,
          "time": 106.758594,
          "velocity": 0.3937007874015748
        },
        {
          "duration": 0.8275859999999966,
          "durationTicks": 768,
          "midi": 25,
          "name": "C#1",
          "ticks": 99072,
          "time": 106.758594,
          "velocity": 0.3937007874015748
        },
        {
          "duration": 0.8275859999999966,
          "durationTicks": 768,
          "midi": 37,
          "name": "C#2",
          "ticks": 99072,
          "time": 106.758594,
          "velocity": 0.3937007874015748
        },
        {
          "duration": 0.8275859999999966,
          "durationTicks": 768,
          "midi": 37,
          "name": "C#2",
          "ticks": 99072,
          "time": 106.758594,
          "velocity": 0.3937007874015748
        },
        {
          "duration": 0.4137929999999983,
          "durationTicks": 384,
          "midi": 37,
          "name": "C#2",
          "ticks": 100224,
          "time": 107.99997300000001,
          "velocity": 0.3937007874015748
        },
        {
          "duration": 0.4137929999999983,
          "durationTicks": 384,
          "midi": 25,
          "name": "C#1",
          "ticks": 100224,
          "time": 107.99997300000001,
          "velocity": 0.3937007874015748
        },
        {
          "duration": 0.4137929999999983,
          "durationTicks": 384,
          "midi": 37,
          "name": "C#2",
          "ticks": 100224,
          "time": 107.99997300000001,
          "velocity": 0.3937007874015748
        },
        {
          "duration": 0.4137929999999983,
          "durationTicks": 384,
          "midi": 25,
          "name": "C#1",
          "ticks": 100224,
          "time": 107.99997300000001,
          "velocity": 0.3937007874015748
        },
        {
          "duration": 0.8275859999999966,
          "durationTicks": 768,
          "midi": 24,
          "name": "C1",
          "ticks": 100608,
          "time": 108.41376600000001,
          "velocity": 0.3937007874015748
        },
        {
          "duration": 0.8275859999999966,
          "durationTicks": 768,
          "midi": 24,
          "name": "C1",
          "ticks": 100608,
          "time": 108.41376600000001,
          "velocity": 0.3937007874015748
        },
        {
          "duration": 0.8275859999999966,
          "durationTicks": 768,
          "midi": 36,
          "name": "C2",
          "ticks": 100608,
          "time": 108.41376600000001,
          "velocity": 0.3937007874015748
        },
        {
          "duration": 0.8275859999999966,
          "durationTicks": 768,
          "midi": 36,
          "name": "C2",
          "ticks": 100608,
          "time": 108.41376600000001,
          "velocity": 0.3937007874015748
        },
        {
          "duration": 0.4137929999999983,
          "durationTicks": 384,
          "midi": 24,
          "name": "C1",
          "ticks": 101760,
          "time": 109.655145,
          "velocity": 0.3937007874015748
        },
        {
          "duration": 0.4137929999999983,
          "durationTicks": 384,
          "midi": 24,
          "name": "C1",
          "ticks": 101760,
          "time": 109.655145,
          "velocity": 0.3937007874015748
        },
        {
          "duration": 0.4137929999999983,
          "durationTicks": 384,
          "midi": 36,
          "name": "C2",
          "ticks": 101760,
          "time": 109.655145,
          "velocity": 0.3937007874015748
        },
        {
          "duration": 0.4137929999999983,
          "durationTicks": 384,
          "midi": 36,
          "name": "C2",
          "ticks": 101760,
          "time": 109.655145,
          "velocity": 0.3937007874015748
        },
        {
          "duration": 0.8275859999999966,
          "durationTicks": 768,
          "midi": 41,
          "name": "F2",
          "ticks": 102144,
          "time": 110.068938,
          "velocity": 0.3937007874015748
        },
        {
          "duration": 0.8275859999999966,
          "durationTicks": 768,
          "midi": 41,
          "name": "F2",
          "ticks": 102144,
          "time": 110.068938,
          "velocity": 0.3937007874015748
        },
        {
          "duration": 0.8275859999999966,
          "durationTicks": 768,
          "midi": 29,
          "name": "F1",
          "ticks": 102144,
          "time": 110.068938,
          "velocity": 0.3937007874015748
        },
        {
          "duration": 0.8275859999999966,
          "durationTicks": 768,
          "midi": 29,
          "name": "F1",
          "ticks": 102144,
          "time": 110.068938,
          "velocity": 0.3937007874015748
        },
        {
          "duration": 0.4137929999999983,
          "durationTicks": 384,
          "midi": 29,
          "name": "F1",
          "ticks": 103296,
          "time": 111.31031700000001,
          "velocity": 0.3937007874015748
        },
        {
          "duration": 0.4137929999999983,
          "durationTicks": 384,
          "midi": 41,
          "name": "F2",
          "ticks": 103296,
          "time": 111.31031700000001,
          "velocity": 0.3937007874015748
        },
        {
          "duration": 0.4137929999999983,
          "durationTicks": 384,
          "midi": 41,
          "name": "F2",
          "ticks": 103296,
          "time": 111.31031700000001,
          "velocity": 0.3937007874015748
        },
        {
          "duration": 0.4137929999999983,
          "durationTicks": 384,
          "midi": 29,
          "name": "F1",
          "ticks": 103296,
          "time": 111.31031700000001,
          "velocity": 0.3937007874015748
        },
        {
          "duration": 0.8275859999999966,
          "durationTicks": 768,
          "midi": 39,
          "name": "D#2",
          "ticks": 103680,
          "time": 111.72411000000001,
          "velocity": 0.3937007874015748
        },
        {
          "duration": 0.8275859999999966,
          "durationTicks": 768,
          "midi": 39,
          "name": "D#2",
          "ticks": 103680,
          "time": 111.72411000000001,
          "velocity": 0.3937007874015748
        },
        {
          "duration": 0.8275859999999966,
          "durationTicks": 768,
          "midi": 27,
          "name": "D#1",
          "ticks": 103680,
          "time": 111.72411000000001,
          "velocity": 0.3937007874015748
        },
        {
          "duration": 0.8275859999999966,
          "durationTicks": 768,
          "midi": 27,
          "name": "D#1",
          "ticks": 103680,
          "time": 111.72411000000001,
          "velocity": 0.3937007874015748
        },
        {
          "duration": 0.4137929999999983,
          "durationTicks": 384,
          "midi": 39,
          "name": "D#2",
          "ticks": 104832,
          "time": 112.965489,
          "velocity": 0.3937007874015748
        },
        {
          "duration": 0.4137929999999983,
          "durationTicks": 384,
          "midi": 27,
          "name": "D#1",
          "ticks": 104832,
          "time": 112.965489,
          "velocity": 0.3937007874015748
        },
        {
          "duration": 0.4137929999999983,
          "durationTicks": 384,
          "midi": 27,
          "name": "D#1",
          "ticks": 104832,
          "time": 112.965489,
          "velocity": 0.3937007874015748
        },
        {
          "duration": 0.4137929999999983,
          "durationTicks": 384,
          "midi": 39,
          "name": "D#2",
          "ticks": 104832,
          "time": 112.965489,
          "velocity": 0.3937007874015748
        },
        {
          "duration": 0.8275859999999966,
          "durationTicks": 768,
          "midi": 37,
          "name": "C#2",
          "ticks": 105216,
          "time": 113.379282,
          "velocity": 0.3937007874015748
        },
        {
          "duration": 0.8275859999999966,
          "durationTicks": 768,
          "midi": 25,
          "name": "C#1",
          "ticks": 105216,
          "time": 113.379282,
          "velocity": 0.3937007874015748
        },
        {
          "duration": 0.8275859999999966,
          "durationTicks": 768,
          "midi": 25,
          "name": "C#1",
          "ticks": 105216,
          "time": 113.379282,
          "velocity": 0.3937007874015748
        },
        {
          "duration": 0.8275859999999966,
          "durationTicks": 768,
          "midi": 37,
          "name": "C#2",
          "ticks": 105216,
          "time": 113.379282,
          "velocity": 0.3937007874015748
        },
        {
          "duration": 0.4137929999999983,
          "durationTicks": 384,
          "midi": 37,
          "name": "C#2",
          "ticks": 106368,
          "time": 114.62066100000001,
          "velocity": 0.3937007874015748
        },
        {
          "duration": 0.4137929999999983,
          "durationTicks": 384,
          "midi": 25,
          "name": "C#1",
          "ticks": 106368,
          "time": 114.62066100000001,
          "velocity": 0.3937007874015748
        },
        {
          "duration": 0.4137929999999983,
          "durationTicks": 384,
          "midi": 37,
          "name": "C#2",
          "ticks": 106368,
          "time": 114.62066100000001,
          "velocity": 0.3937007874015748
        },
        {
          "duration": 0.4137929999999983,
          "durationTicks": 384,
          "midi": 25,
          "name": "C#1",
          "ticks": 106368,
          "time": 114.62066100000001,
          "velocity": 0.3937007874015748
        },
        {
          "duration": 0.8275859999999966,
          "durationTicks": 768,
          "midi": 24,
          "name": "C1",
          "ticks": 106752,
          "time": 115.03445400000001,
          "velocity": 0.3937007874015748
        },
        {
          "duration": 0.8275859999999966,
          "durationTicks": 768,
          "midi": 36,
          "name": "C2",
          "ticks": 106752,
          "time": 115.03445400000001,
          "velocity": 0.3937007874015748
        },
        {
          "duration": 0.8275859999999966,
          "durationTicks": 768,
          "midi": 24,
          "name": "C1",
          "ticks": 106752,
          "time": 115.03445400000001,
          "velocity": 0.3937007874015748
        },
        {
          "duration": 0.8275859999999966,
          "durationTicks": 768,
          "midi": 36,
          "name": "C2",
          "ticks": 106752,
          "time": 115.03445400000001,
          "velocity": 0.3937007874015748
        },
        {
          "duration": 0.4137929999999983,
          "durationTicks": 384,
          "midi": 24,
          "name": "C1",
          "ticks": 107904,
          "time": 116.275833,
          "velocity": 0.3937007874015748
        },
        {
          "duration": 0.4137929999999983,
          "durationTicks": 384,
          "midi": 36,
          "name": "C2",
          "ticks": 107904,
          "time": 116.275833,
          "velocity": 0.3937007874015748
        },
        {
          "duration": 0.4137929999999983,
          "durationTicks": 384,
          "midi": 24,
          "name": "C1",
          "ticks": 107904,
          "time": 116.275833,
          "velocity": 0.3937007874015748
        },
        {
          "duration": 0.4137929999999983,
          "durationTicks": 384,
          "midi": 36,
          "name": "C2",
          "ticks": 107904,
          "time": 116.275833,
          "velocity": 0.3937007874015748
        },
        {
          "duration": 0.8275859999999966,
          "durationTicks": 768,
          "midi": 41,
          "name": "F2",
          "ticks": 108288,
          "time": 116.689626,
          "velocity": 0.3937007874015748
        },
        {
          "duration": 0.8275859999999966,
          "durationTicks": 768,
          "midi": 41,
          "name": "F2",
          "ticks": 108288,
          "time": 116.689626,
          "velocity": 0.3937007874015748
        },
        {
          "duration": 0.8275859999999966,
          "durationTicks": 768,
          "midi": 29,
          "name": "F1",
          "ticks": 108288,
          "time": 116.689626,
          "velocity": 0.3937007874015748
        },
        {
          "duration": 0.8275859999999966,
          "durationTicks": 768,
          "midi": 29,
          "name": "F1",
          "ticks": 108288,
          "time": 116.689626,
          "velocity": 0.3937007874015748
        },
        {
          "duration": 0.4137929999999983,
          "durationTicks": 384,
          "midi": 41,
          "name": "F2",
          "ticks": 109440,
          "time": 117.93100500000001,
          "velocity": 0.3937007874015748
        },
        {
          "duration": 0.4137929999999983,
          "durationTicks": 384,
          "midi": 29,
          "name": "F1",
          "ticks": 109440,
          "time": 117.93100500000001,
          "velocity": 0.3937007874015748
        },
        {
          "duration": 0.4137929999999983,
          "durationTicks": 384,
          "midi": 29,
          "name": "F1",
          "ticks": 109440,
          "time": 117.93100500000001,
          "velocity": 0.3937007874015748
        },
        {
          "duration": 0.4137929999999983,
          "durationTicks": 384,
          "midi": 41,
          "name": "F2",
          "ticks": 109440,
          "time": 117.93100500000001,
          "velocity": 0.3937007874015748
        },
        {
          "duration": 0.8275859999999966,
          "durationTicks": 768,
          "midi": 39,
          "name": "D#2",
          "ticks": 109824,
          "time": 118.34479800000001,
          "velocity": 0.3937007874015748
        },
        {
          "duration": 0.8275859999999966,
          "durationTicks": 768,
          "midi": 27,
          "name": "D#1",
          "ticks": 109824,
          "time": 118.34479800000001,
          "velocity": 0.3937007874015748
        },
        {
          "duration": 0.8275859999999966,
          "durationTicks": 768,
          "midi": 27,
          "name": "D#1",
          "ticks": 109824,
          "time": 118.34479800000001,
          "velocity": 0.3937007874015748
        },
        {
          "duration": 0.8275859999999966,
          "durationTicks": 768,
          "midi": 39,
          "name": "D#2",
          "ticks": 109824,
          "time": 118.34479800000001,
          "velocity": 0.3937007874015748
        },
        {
          "duration": 0.4137929999999983,
          "durationTicks": 384,
          "midi": 27,
          "name": "D#1",
          "ticks": 110976,
          "time": 119.586177,
          "velocity": 0.3937007874015748
        },
        {
          "duration": 0.4137929999999983,
          "durationTicks": 384,
          "midi": 39,
          "name": "D#2",
          "ticks": 110976,
          "time": 119.586177,
          "velocity": 0.3937007874015748
        },
        {
          "duration": 0.4137929999999983,
          "durationTicks": 384,
          "midi": 27,
          "name": "D#1",
          "ticks": 110976,
          "time": 119.586177,
          "velocity": 0.3937007874015748
        },
        {
          "duration": 0.4137929999999983,
          "durationTicks": 384,
          "midi": 39,
          "name": "D#2",
          "ticks": 110976,
          "time": 119.586177,
          "velocity": 0.3937007874015748
        },
        {
          "duration": 0.8275859999999966,
          "durationTicks": 768,
          "midi": 36,
          "name": "C2",
          "ticks": 111360,
          "time": 119.99997,
          "velocity": 0.3937007874015748
        },
        {
          "duration": 0.8275859999999966,
          "durationTicks": 768,
          "midi": 24,
          "name": "C1",
          "ticks": 111360,
          "time": 119.99997,
          "velocity": 0.3937007874015748
        },
        {
          "duration": 0.8275859999999966,
          "durationTicks": 768,
          "midi": 24,
          "name": "C1",
          "ticks": 111360,
          "time": 119.99997,
          "velocity": 0.3937007874015748
        },
        {
          "duration": 0.4137930000000125,
          "durationTicks": 384,
          "midi": 36,
          "name": "C2",
          "ticks": 112512,
          "time": 121.241349,
          "velocity": 0.3937007874015748
        },
        {
          "duration": 0.4137930000000125,
          "durationTicks": 384,
          "midi": 24,
          "name": "C1",
          "ticks": 112512,
          "time": 121.241349,
          "velocity": 0.3937007874015748
        },
        {
          "duration": 0.4137930000000125,
          "durationTicks": 384,
          "midi": 24,
          "name": "C1",
          "ticks": 112512,
          "time": 121.241349,
          "velocity": 0.3937007874015748
        },
        {
          "duration": 0.4137930000000125,
          "durationTicks": 384,
          "midi": 36,
          "name": "C2",
          "ticks": 112512,
          "time": 121.241349,
          "velocity": 0.3937007874015748
        },
        {
          "duration": 0.8275859999999966,
          "durationTicks": 768,
          "midi": 35,
          "name": "B1",
          "ticks": 112896,
          "time": 121.65514200000001,
          "velocity": 0.3937007874015748
        },
        {
          "duration": 0.8275859999999966,
          "durationTicks": 768,
          "midi": 35,
          "name": "B1",
          "ticks": 112896,
          "time": 121.65514200000001,
          "velocity": 0.3937007874015748
        },
        {
          "duration": 0.8275859999999966,
          "durationTicks": 768,
          "midi": 35,
          "name": "B1",
          "ticks": 112896,
          "time": 121.65514200000001,
          "velocity": 0.3937007874015748
        },
        {
          "duration": 0.8275859999999966,
          "durationTicks": 768,
          "midi": 35,
          "name": "B1",
          "ticks": 112896,
          "time": 121.65514200000001,
          "velocity": 0.3937007874015748
        },
        {
          "duration": 0.4137929999999983,
          "durationTicks": 384,
          "midi": 35,
          "name": "B1",
          "ticks": 114048,
          "time": 122.896521,
          "velocity": 0.3937007874015748
        },
        {
          "duration": 0.4137929999999983,
          "durationTicks": 384,
          "midi": 35,
          "name": "B1",
          "ticks": 114048,
          "time": 122.896521,
          "velocity": 0.3937007874015748
        },
        {
          "duration": 0.4137929999999983,
          "durationTicks": 384,
          "midi": 35,
          "name": "B1",
          "ticks": 114048,
          "time": 122.896521,
          "velocity": 0.3937007874015748
        },
        {
          "duration": 0.4137929999999983,
          "durationTicks": 384,
          "midi": 35,
          "name": "B1",
          "ticks": 114048,
          "time": 122.896521,
          "velocity": 0.3937007874015748
        },
        {
          "duration": 0.8275859999999966,
          "durationTicks": 768,
          "midi": 28,
          "name": "E1",
          "ticks": 114432,
          "time": 123.310314,
          "velocity": 0.3937007874015748
        },
        {
          "duration": 0.8275859999999966,
          "durationTicks": 768,
          "midi": 28,
          "name": "E1",
          "ticks": 114432,
          "time": 123.310314,
          "velocity": 0.3937007874015748
        },
        {
          "duration": 0.8275859999999966,
          "durationTicks": 768,
          "midi": 40,
          "name": "E2",
          "ticks": 114432,
          "time": 123.310314,
          "velocity": 0.3937007874015748
        },
        {
          "duration": 0.8275859999999966,
          "durationTicks": 768,
          "midi": 40,
          "name": "E2",
          "ticks": 114432,
          "time": 123.310314,
          "velocity": 0.3937007874015748
        },
        {
          "duration": 0.4137930000000125,
          "durationTicks": 384,
          "midi": 40,
          "name": "E2",
          "ticks": 115584,
          "time": 124.551693,
          "velocity": 0.3937007874015748
        },
        {
          "duration": 0.4137930000000125,
          "durationTicks": 384,
          "midi": 40,
          "name": "E2",
          "ticks": 115584,
          "time": 124.551693,
          "velocity": 0.3937007874015748
        },
        {
          "duration": 0.4137930000000125,
          "durationTicks": 384,
          "midi": 28,
          "name": "E1",
          "ticks": 115584,
          "time": 124.551693,
          "velocity": 0.3937007874015748
        },
        {
          "duration": 0.4137930000000125,
          "durationTicks": 384,
          "midi": 28,
          "name": "E1",
          "ticks": 115584,
          "time": 124.551693,
          "velocity": 0.3937007874015748
        },
        {
          "duration": 0.8275859999999966,
          "durationTicks": 768,
          "midi": 38,
          "name": "D2",
          "ticks": 115968,
          "time": 124.96548600000001,
          "velocity": 0.3937007874015748
        },
        {
          "duration": 0.8275859999999966,
          "durationTicks": 768,
          "midi": 26,
          "name": "D1",
          "ticks": 115968,
          "time": 124.96548600000001,
          "velocity": 0.3937007874015748
        },
        {
          "duration": 0.8275859999999966,
          "durationTicks": 768,
          "midi": 38,
          "name": "D2",
          "ticks": 115968,
          "time": 124.96548600000001,
          "velocity": 0.3937007874015748
        },
        {
          "duration": 0.8275859999999966,
          "durationTicks": 768,
          "midi": 26,
          "name": "D1",
          "ticks": 115968,
          "time": 124.96548600000001,
          "velocity": 0.3937007874015748
        },
        {
          "duration": 0.4137929999999983,
          "durationTicks": 384,
          "midi": 38,
          "name": "D2",
          "ticks": 117120,
          "time": 126.20686500000001,
          "velocity": 0.3937007874015748
        },
        {
          "duration": 0.4137929999999983,
          "durationTicks": 384,
          "midi": 38,
          "name": "D2",
          "ticks": 117120,
          "time": 126.20686500000001,
          "velocity": 0.3937007874015748
        },
        {
          "duration": 0.4137929999999983,
          "durationTicks": 384,
          "midi": 26,
          "name": "D1",
          "ticks": 117120,
          "time": 126.20686500000001,
          "velocity": 0.3937007874015748
        },
        {
          "duration": 0.4137929999999983,
          "durationTicks": 384,
          "midi": 26,
          "name": "D1",
          "ticks": 117120,
          "time": 126.20686500000001,
          "velocity": 0.3937007874015748
        },
        {
          "duration": 0.8275859999999966,
          "durationTicks": 768,
          "midi": 36,
          "name": "C2",
          "ticks": 117504,
          "time": 126.620658,
          "velocity": 0.3937007874015748
        },
        {
          "duration": 0.8275859999999966,
          "durationTicks": 768,
          "midi": 24,
          "name": "C1",
          "ticks": 117504,
          "time": 126.620658,
          "velocity": 0.3937007874015748
        },
        {
          "duration": 0.8275859999999966,
          "durationTicks": 768,
          "midi": 24,
          "name": "C1",
          "ticks": 117504,
          "time": 126.620658,
          "velocity": 0.3937007874015748
        },
        {
          "duration": 0.8275859999999966,
          "durationTicks": 768,
          "midi": 36,
          "name": "C2",
          "ticks": 117504,
          "time": 126.620658,
          "velocity": 0.3937007874015748
        },
        {
          "duration": 0.4137930000000125,
          "durationTicks": 384,
          "midi": 24,
          "name": "C1",
          "ticks": 118656,
          "time": 127.862037,
          "velocity": 0.3937007874015748
        },
        {
          "duration": 0.4137930000000125,
          "durationTicks": 384,
          "midi": 36,
          "name": "C2",
          "ticks": 118656,
          "time": 127.862037,
          "velocity": 0.3937007874015748
        },
        {
          "duration": 0.4137930000000125,
          "durationTicks": 384,
          "midi": 24,
          "name": "C1",
          "ticks": 118656,
          "time": 127.862037,
          "velocity": 0.3937007874015748
        },
        {
          "duration": 0.4137930000000125,
          "durationTicks": 384,
          "midi": 36,
          "name": "C2",
          "ticks": 118656,
          "time": 127.862037,
          "velocity": 0.3937007874015748
        },
        {
          "duration": 0.8275859999999966,
          "durationTicks": 768,
          "midi": 35,
          "name": "B1",
          "ticks": 119040,
          "time": 128.27583,
          "velocity": 0.3937007874015748
        },
        {
          "duration": 0.8275859999999966,
          "durationTicks": 768,
          "midi": 35,
          "name": "B1",
          "ticks": 119040,
          "time": 128.27583,
          "velocity": 0.3937007874015748
        },
        {
          "duration": 0.8275859999999966,
          "durationTicks": 768,
          "midi": 35,
          "name": "B1",
          "ticks": 119040,
          "time": 128.27583,
          "velocity": 0.3937007874015748
        },
        {
          "duration": 0.8275859999999966,
          "durationTicks": 768,
          "midi": 35,
          "name": "B1",
          "ticks": 119040,
          "time": 128.27583,
          "velocity": 0.3937007874015748
        },
        {
          "duration": 0.4137929999999983,
          "durationTicks": 384,
          "midi": 35,
          "name": "B1",
          "ticks": 120192,
          "time": 129.517209,
          "velocity": 0.3937007874015748
        },
        {
          "duration": 0.4137929999999983,
          "durationTicks": 384,
          "midi": 35,
          "name": "B1",
          "ticks": 120192,
          "time": 129.517209,
          "velocity": 0.3937007874015748
        },
        {
          "duration": 0.4137929999999983,
          "durationTicks": 384,
          "midi": 35,
          "name": "B1",
          "ticks": 120192,
          "time": 129.517209,
          "velocity": 0.3937007874015748
        },
        {
          "duration": 0.4137929999999983,
          "durationTicks": 384,
          "midi": 35,
          "name": "B1",
          "ticks": 120192,
          "time": 129.517209,
          "velocity": 0.3937007874015748
        },
        {
          "duration": 0.8275859999999966,
          "durationTicks": 768,
          "midi": 40,
          "name": "E2",
          "ticks": 120576,
          "time": 129.931002,
          "velocity": 0.3937007874015748
        },
        {
          "duration": 0.8275859999999966,
          "durationTicks": 768,
          "midi": 40,
          "name": "E2",
          "ticks": 120576,
          "time": 129.931002,
          "velocity": 0.3937007874015748
        },
        {
          "duration": 0.8275859999999966,
          "durationTicks": 768,
          "midi": 28,
          "name": "E1",
          "ticks": 120576,
          "time": 129.931002,
          "velocity": 0.3937007874015748
        },
        {
          "duration": 0.8275859999999966,
          "durationTicks": 768,
          "midi": 28,
          "name": "E1",
          "ticks": 120576,
          "time": 129.931002,
          "velocity": 0.3937007874015748
        },
        {
          "duration": 0.4137929999999983,
          "durationTicks": 384,
          "midi": 40,
          "name": "E2",
          "ticks": 121728,
          "time": 131.172381,
          "velocity": 0.3937007874015748
        },
        {
          "duration": 0.4137929999999983,
          "durationTicks": 384,
          "midi": 40,
          "name": "E2",
          "ticks": 121728,
          "time": 131.172381,
          "velocity": 0.3937007874015748
        },
        {
          "duration": 0.4137929999999983,
          "durationTicks": 384,
          "midi": 28,
          "name": "E1",
          "ticks": 121728,
          "time": 131.172381,
          "velocity": 0.3937007874015748
        },
        {
          "duration": 0.4137929999999983,
          "durationTicks": 384,
          "midi": 28,
          "name": "E1",
          "ticks": 121728,
          "time": 131.172381,
          "velocity": 0.3937007874015748
        },
        {
          "duration": 0.8275859999999966,
          "durationTicks": 768,
          "midi": 38,
          "name": "D2",
          "ticks": 122112,
          "time": 131.586174,
          "velocity": 0.3937007874015748
        },
        {
          "duration": 0.8275859999999966,
          "durationTicks": 768,
          "midi": 26,
          "name": "D1",
          "ticks": 122112,
          "time": 131.586174,
          "velocity": 0.3937007874015748
        },
        {
          "duration": 0.8275859999999966,
          "durationTicks": 768,
          "midi": 38,
          "name": "D2",
          "ticks": 122112,
          "time": 131.586174,
          "velocity": 0.3937007874015748
        },
        {
          "duration": 0.8275859999999966,
          "durationTicks": 768,
          "midi": 26,
          "name": "D1",
          "ticks": 122112,
          "time": 131.586174,
          "velocity": 0.3937007874015748
        },
        {
          "duration": 0.4137929999999983,
          "durationTicks": 384,
          "midi": 26,
          "name": "D1",
          "ticks": 123264,
          "time": 132.827553,
          "velocity": 0.3937007874015748
        },
        {
          "duration": 0.4137929999999983,
          "durationTicks": 384,
          "midi": 26,
          "name": "D1",
          "ticks": 123264,
          "time": 132.827553,
          "velocity": 0.3937007874015748
        },
        {
          "duration": 0.4137929999999983,
          "durationTicks": 384,
          "midi": 38,
          "name": "D2",
          "ticks": 123264,
          "time": 132.827553,
          "velocity": 0.3937007874015748
        },
        {
          "duration": 0.4137929999999983,
          "durationTicks": 384,
          "midi": 38,
          "name": "D2",
          "ticks": 123264,
          "time": 132.827553,
          "velocity": 0.3937007874015748
        },
        {
          "duration": 3.310344000000015,
          "durationTicks": 3072,
          "midi": 24,
          "name": "C1",
          "ticks": 123648,
          "time": 133.241346,
          "velocity": 0.3937007874015748
        },
        {
          "duration": 3.310344000000015,
          "durationTicks": 3072,
          "midi": 36,
          "name": "C2",
          "ticks": 123648,
          "time": 133.241346,
          "velocity": 0.3937007874015748
        },
        {
          "duration": 3.3103439999999864,
          "durationTicks": 3072,
          "midi": 35,
          "name": "B1",
          "ticks": 126720,
          "time": 136.55169,
          "velocity": 0.3937007874015748
        },
        {
          "duration": 3.3103439999999864,
          "durationTicks": 3072,
          "midi": 35,
          "name": "B1",
          "ticks": 126720,
          "time": 136.55169,
          "velocity": 0.3937007874015748
        },
        {
          "duration": 3.310344000000015,
          "durationTicks": 3072,
          "midi": 28,
          "name": "E1",
          "ticks": 129792,
          "time": 139.862034,
          "velocity": 0.3937007874015748
        },
        {
          "duration": 3.310344000000015,
          "durationTicks": 3072,
          "midi": 40,
          "name": "E2",
          "ticks": 129792,
          "time": 139.862034,
          "velocity": 0.3937007874015748
        },
        {
          "duration": 3.7241369999999847,
          "durationTicks": 3456,
          "midi": 26,
          "name": "D1",
          "ticks": 132864,
          "time": 143.172378,
          "velocity": 0.3937007874015748
        },
        {
          "duration": 3.7241369999999847,
          "durationTicks": 3456,
          "midi": 38,
          "name": "D2",
          "ticks": 132864,
          "time": 143.172378,
          "velocity": 0.3937007874015748
        }
      ],
      "endOfTrackTicks": 136320
    },
    {
      "channel": 2,
      "controlChanges": {},
      "pitchBends": [],
      "instrument": {
        "family": "brass",
        "number": 60,
        "name": "french horn"
      },
      "name": "French Horn",
      "notes": [
        {
          "duration": 0.4137930000000125,
          "durationTicks": 384,
          "midi": 61,
          "name": "C#4",
          "ticks": 74496,
          "time": 80.275842,
          "velocity": 0.3937007874015748
        },
        {
          "duration": 0.4137929999999983,
          "durationTicks": 384,
          "midi": 65,
          "name": "F4",
          "ticks": 74880,
          "time": 80.68963500000001,
          "velocity": 0.3937007874015748
        },
        {
          "duration": 0.4137929999999983,
          "durationTicks": 384,
          "midi": 72,
          "name": "C5",
          "ticks": 75264,
          "time": 81.10342800000001,
          "velocity": 0.3937007874015748
        },
        {
          "duration": 0.4137929999999983,
          "durationTicks": 384,
          "midi": 65,
          "name": "F4",
          "ticks": 75648,
          "time": 81.517221,
          "velocity": 0.3937007874015748
        },
        {
          "duration": 0.4137929999999983,
          "durationTicks": 384,
          "midi": 60,
          "name": "C4",
          "ticks": 76032,
          "time": 81.931014,
          "velocity": 0.3937007874015748
        },
        {
          "duration": 0.4137929999999983,
          "durationTicks": 384,
          "midi": 64,
          "name": "E4",
          "ticks": 76416,
          "time": 82.344807,
          "velocity": 0.3937007874015748
        },
        {
          "duration": 0.4137929999999983,
          "durationTicks": 384,
          "midi": 70,
          "name": "A#4",
          "ticks": 76800,
          "time": 82.7586,
          "velocity": 0.3937007874015748
        },
        {
          "duration": 0.4137929999999983,
          "durationTicks": 384,
          "midi": 64,
          "name": "E4",
          "ticks": 77184,
          "time": 83.172393,
          "velocity": 0.3937007874015748
        },
        {
          "duration": 0.4137930000000125,
          "durationTicks": 384,
          "midi": 65,
          "name": "F4",
          "ticks": 77568,
          "time": 83.586186,
          "velocity": 0.3937007874015748
        },
        {
          "duration": 0.4137929999999983,
          "durationTicks": 384,
          "midi": 68,
          "name": "G#4",
          "ticks": 77952,
          "time": 83.99997900000001,
          "velocity": 0.3937007874015748
        },
        {
          "duration": 0.4137929999999983,
          "durationTicks": 384,
          "midi": 75,
          "name": "D#5",
          "ticks": 78336,
          "time": 84.41377200000001,
          "velocity": 0.3937007874015748
        },
        {
          "duration": 0.4137929999999983,
          "durationTicks": 384,
          "midi": 68,
          "name": "G#4",
          "ticks": 78720,
          "time": 84.827565,
          "velocity": 0.3937007874015748
        },
        {
          "duration": 0.4137929999999983,
          "durationTicks": 384,
          "midi": 63,
          "name": "D#4",
          "ticks": 79104,
          "time": 85.241358,
          "velocity": 0.3937007874015748
        },
        {
          "duration": 0.4137929999999983,
          "durationTicks": 384,
          "midi": 67,
          "name": "G4",
          "ticks": 79488,
          "time": 85.655151,
          "velocity": 0.3937007874015748
        },
        {
          "duration": 0.4137929999999983,
          "durationTicks": 384,
          "midi": 73,
          "name": "C#5",
          "ticks": 79872,
          "time": 86.068944,
          "velocity": 0.3937007874015748
        },
        {
          "duration": 0.4137929999999983,
          "durationTicks": 384,
          "midi": 67,
          "name": "G4",
          "ticks": 80256,
          "time": 86.482737,
          "velocity": 0.3937007874015748
        },
        {
          "duration": 0.4137930000000125,
          "durationTicks": 384,
          "midi": 61,
          "name": "C#4",
          "ticks": 80640,
          "time": 86.89653,
          "velocity": 0.3937007874015748
        },
        {
          "duration": 0.4137929999999983,
          "durationTicks": 384,
          "midi": 65,
          "name": "F4",
          "ticks": 81024,
          "time": 87.31032300000001,
          "velocity": 0.3937007874015748
        },
        {
          "duration": 0.4137929999999983,
          "durationTicks": 384,
          "midi": 72,
          "name": "C5",
          "ticks": 81408,
          "time": 87.72411600000001,
          "velocity": 0.3937007874015748
        },
        {
          "duration": 0.4137929999999983,
          "durationTicks": 384,
          "midi": 65,
          "name": "F4",
          "ticks": 81792,
          "time": 88.13790900000001,
          "velocity": 0.3937007874015748
        },
        {
          "duration": 0.4137929999999983,
          "durationTicks": 384,
          "midi": 60,
          "name": "C4",
          "ticks": 82176,
          "time": 88.551702,
          "velocity": 0.3937007874015748
        },
        {
          "duration": 0.4137929999999983,
          "durationTicks": 384,
          "midi": 64,
          "name": "E4",
          "ticks": 82560,
          "time": 88.965495,
          "velocity": 0.3937007874015748
        },
        {
          "duration": 0.4137929999999983,
          "durationTicks": 384,
          "midi": 70,
          "name": "A#4",
          "ticks": 82944,
          "time": 89.379288,
          "velocity": 0.3937007874015748
        },
        {
          "duration": 0.4137929999999983,
          "durationTicks": 384,
          "midi": 64,
          "name": "E4",
          "ticks": 83328,
          "time": 89.793081,
          "velocity": 0.3937007874015748
        },
        {
          "duration": 0.4137930000000125,
          "durationTicks": 384,
          "midi": 65,
          "name": "F4",
          "ticks": 83712,
          "time": 90.206874,
          "velocity": 0.3937007874015748
        },
        {
          "duration": 0.4137929999999983,
          "durationTicks": 384,
          "midi": 68,
          "name": "G#4",
          "ticks": 84096,
          "time": 90.62066700000001,
          "velocity": 0.3937007874015748
        },
        {
          "duration": 0.4137929999999983,
          "durationTicks": 384,
          "midi": 75,
          "name": "D#5",
          "ticks": 84480,
          "time": 91.03446000000001,
          "velocity": 0.3937007874015748
        },
        {
          "duration": 0.4137929999999983,
          "durationTicks": 384,
          "midi": 68,
          "name": "G#4",
          "ticks": 84864,
          "time": 91.44825300000001,
          "velocity": 0.3937007874015748
        },
        {
          "duration": 0.4137929999999983,
          "durationTicks": 384,
          "midi": 63,
          "name": "D#4",
          "ticks": 85248,
          "time": 91.862046,
          "velocity": 0.3937007874015748
        },
        {
          "duration": 0.4137929999999983,
          "durationTicks": 384,
          "midi": 67,
          "name": "G4",
          "ticks": 85632,
          "time": 92.275839,
          "velocity": 0.3937007874015748
        },
        {
          "duration": 0.4137929999999983,
          "durationTicks": 384,
          "midi": 73,
          "name": "C#5",
          "ticks": 86016,
          "time": 92.689632,
          "velocity": 0.3937007874015748
        },
        {
          "duration": 0.4137929999999983,
          "durationTicks": 384,
          "midi": 67,
          "name": "G4",
          "ticks": 86400,
          "time": 93.103425,
          "velocity": 0.3937007874015748
        },
        {
          "duration": 0.4137929999999983,
          "durationTicks": 384,
          "midi": 61,
          "name": "C#4",
          "ticks": 99072,
          "time": 106.758594,
          "velocity": 0.3937007874015748
        },
        {
          "duration": 0.4137929999999983,
          "durationTicks": 384,
          "midi": 65,
          "name": "F4",
          "ticks": 99456,
          "time": 107.172387,
          "velocity": 0.3937007874015748
        },
        {
          "duration": 0.4137930000000125,
          "durationTicks": 384,
          "midi": 72,
          "name": "C5",
          "ticks": 99840,
          "time": 107.58618,
          "velocity": 0.3937007874015748
        },
        {
          "duration": 0.4137929999999983,
          "durationTicks": 384,
          "midi": 65,
          "name": "F4",
          "ticks": 100224,
          "time": 107.99997300000001,
          "velocity": 0.3937007874015748
        },
        {
          "duration": 0.4137929999999983,
          "durationTicks": 384,
          "midi": 60,
          "name": "C4",
          "ticks": 100608,
          "time": 108.41376600000001,
          "velocity": 0.3937007874015748
        },
        {
          "duration": 0.4137929999999983,
          "durationTicks": 384,
          "midi": 64,
          "name": "E4",
          "ticks": 100992,
          "time": 108.82755900000001,
          "velocity": 0.3937007874015748
        },
        {
          "duration": 0.4137929999999983,
          "durationTicks": 384,
          "midi": 70,
          "name": "A#4",
          "ticks": 101376,
          "time": 109.241352,
          "velocity": 0.3937007874015748
        },
        {
          "duration": 0.4137929999999983,
          "durationTicks": 384,
          "midi": 64,
          "name": "E4",
          "ticks": 101760,
          "time": 109.655145,
          "velocity": 0.3937007874015748
        },
        {
          "duration": 0.4137929999999983,
          "durationTicks": 384,
          "midi": 65,
          "name": "F4",
          "ticks": 102144,
          "time": 110.068938,
          "velocity": 0.3937007874015748
        },
        {
          "duration": 0.4137929999999983,
          "durationTicks": 384,
          "midi": 68,
          "name": "G#4",
          "ticks": 102528,
          "time": 110.482731,
          "velocity": 0.3937007874015748
        },
        {
          "duration": 0.4137930000000125,
          "durationTicks": 384,
          "midi": 75,
          "name": "D#5",
          "ticks": 102912,
          "time": 110.896524,
          "velocity": 0.3937007874015748
        },
        {
          "duration": 0.4137929999999983,
          "durationTicks": 384,
          "midi": 68,
          "name": "G#4",
          "ticks": 103296,
          "time": 111.31031700000001,
          "velocity": 0.3937007874015748
        },
        {
          "duration": 0.4137929999999983,
          "durationTicks": 384,
          "midi": 63,
          "name": "D#4",
          "ticks": 103680,
          "time": 111.72411000000001,
          "velocity": 0.3937007874015748
        },
        {
          "duration": 0.4137929999999983,
          "durationTicks": 384,
          "midi": 67,
          "name": "G4",
          "ticks": 104064,
          "time": 112.13790300000001,
          "velocity": 0.3937007874015748
        },
        {
          "duration": 0.4137929999999983,
          "durationTicks": 384,
          "midi": 73,
          "name": "C#5",
          "ticks": 104448,
          "time": 112.551696,
          "velocity": 0.3937007874015748
        },
        {
          "duration": 0.4137929999999983,
          "durationTicks": 384,
          "midi": 67,
          "name": "G4",
          "ticks": 104832,
          "time": 112.965489,
          "velocity": 0.3937007874015748
        },
        {
          "duration": 0.4137929999999983,
          "durationTicks": 384,
          "midi": 61,
          "name": "C#4",
          "ticks": 105216,
          "time": 113.379282,
          "velocity": 0.3937007874015748
        },
        {
          "duration": 0.4137929999999983,
          "durationTicks": 384,
          "midi": 65,
          "name": "F4",
          "ticks": 105600,
          "time": 113.793075,
          "velocity": 0.3937007874015748
        },
        {
          "duration": 0.4137930000000125,
          "durationTicks": 384,
          "midi": 72,
          "name": "C5",
          "ticks": 105984,
          "time": 114.206868,
          "velocity": 0.3937007874015748
        },
        {
          "duration": 0.4137929999999983,
          "durationTicks": 384,
          "midi": 65,
          "name": "F4",
          "ticks": 106368,
          "time": 114.62066100000001,
          "velocity": 0.3937007874015748
        },
        {
          "duration": 0.4137929999999983,
          "durationTicks": 384,
          "midi": 60,
          "name": "C4",
          "ticks": 106752,
          "time": 115.03445400000001,
          "velocity": 0.3937007874015748
        },
        {
          "duration": 0.4137929999999983,
          "durationTicks": 384,
          "midi": 64,
          "name": "E4",
          "ticks": 107136,
          "time": 115.44824700000001,
          "velocity": 0.3937007874015748
        },
        {
          "duration": 0.4137929999999983,
          "durationTicks": 384,
          "midi": 70,
          "name": "A#4",
          "ticks": 107520,
          "time": 115.86204000000001,
          "velocity": 0.3937007874015748
        },
        {
          "duration": 0.4137929999999983,
          "durationTicks": 384,
          "midi": 64,
          "name": "E4",
          "ticks": 107904,
          "time": 116.275833,
          "velocity": 0.3937007874015748
        },
        {
          "duration": 0.4137929999999983,
          "durationTicks": 384,
          "midi": 65,
          "name": "F4",
          "ticks": 108288,
          "time": 116.689626,
          "velocity": 0.3937007874015748
        },
        {
          "duration": 0.4137929999999983,
          "durationTicks": 384,
          "midi": 68,
          "name": "G#4",
          "ticks": 108672,
          "time": 117.103419,
          "velocity": 0.3937007874015748
        },
        {
          "duration": 0.4137930000000125,
          "durationTicks": 384,
          "midi": 75,
          "name": "D#5",
          "ticks": 109056,
          "time": 117.517212,
          "velocity": 0.3937007874015748
        },
        {
          "duration": 0.4137929999999983,
          "durationTicks": 384,
          "midi": 68,
          "name": "G#4",
          "ticks": 109440,
          "time": 117.93100500000001,
          "velocity": 0.3937007874015748
        },
        {
          "duration": 0.4137929999999983,
          "durationTicks": 384,
          "midi": 63,
          "name": "D#4",
          "ticks": 109824,
          "time": 118.34479800000001,
          "velocity": 0.3937007874015748
        },
        {
          "duration": 0.4137929999999983,
          "durationTicks": 384,
          "midi": 67,
          "name": "G4",
          "ticks": 110208,
          "time": 118.75859100000001,
          "velocity": 0.3937007874015748
        },
        {
          "duration": 0.4137929999999983,
          "durationTicks": 384,
          "midi": 73,
          "name": "C#5",
          "ticks": 110592,
          "time": 119.17238400000001,
          "velocity": 0.3937007874015748
        },
        {
          "duration": 0.4137929999999983,
          "durationTicks": 384,
          "midi": 67,
          "name": "G4",
          "ticks": 110976,
          "time": 119.586177,
          "velocity": 0.3937007874015748
        },
        {
          "duration": 0.4137929999999983,
          "durationTicks": 384,
          "midi": 60,
          "name": "C4",
          "ticks": 111360,
          "time": 119.99997,
          "velocity": 0.3937007874015748
        },
        {
          "duration": 0.4137929999999983,
          "durationTicks": 384,
          "midi": 64,
          "name": "E4",
          "ticks": 111744,
          "time": 120.413763,
          "velocity": 0.3937007874015748
        },
        {
          "duration": 0.4137929999999983,
          "durationTicks": 384,
          "midi": 71,
          "name": "B4",
          "ticks": 112128,
          "time": 120.827556,
          "velocity": 0.3937007874015748
        },
        {
          "duration": 0.4137930000000125,
          "durationTicks": 384,
          "midi": 64,
          "name": "E4",
          "ticks": 112512,
          "time": 121.241349,
          "velocity": 0.3937007874015748
        },
        {
          "duration": 0.4137929999999983,
          "durationTicks": 384,
          "midi": 59,
          "name": "B3",
          "ticks": 112896,
          "time": 121.65514200000001,
          "velocity": 0.3937007874015748
        },
        {
          "duration": 0.4137929999999983,
          "durationTicks": 384,
          "midi": 63,
          "name": "D#4",
          "ticks": 113280,
          "time": 122.06893500000001,
          "velocity": 0.3937007874015748
        },
        {
          "duration": 0.4137929999999983,
          "durationTicks": 384,
          "midi": 69,
          "name": "A4",
          "ticks": 113664,
          "time": 122.48272800000001,
          "velocity": 0.3937007874015748
        },
        {
          "duration": 0.4137929999999983,
          "durationTicks": 384,
          "midi": 63,
          "name": "D#4",
          "ticks": 114048,
          "time": 122.896521,
          "velocity": 0.3937007874015748
        },
        {
          "duration": 0.4137929999999983,
          "durationTicks": 384,
          "midi": 64,
          "name": "E4",
          "ticks": 114432,
          "time": 123.310314,
          "velocity": 0.3937007874015748
        },
        {
          "duration": 0.4137929999999983,
          "durationTicks": 384,
          "midi": 67,
          "name": "G4",
          "ticks": 114816,
          "time": 123.724107,
          "velocity": 0.3937007874015748
        },
        {
          "duration": 0.4137929999999983,
          "durationTicks": 384,
          "midi": 74,
          "name": "D5",
          "ticks": 115200,
          "time": 124.1379,
          "velocity": 0.3937007874015748
        },
        {
          "duration": 0.4137930000000125,
          "durationTicks": 384,
          "midi": 67,
          "name": "G4",
          "ticks": 115584,
          "time": 124.551693,
          "velocity": 0.3937007874015748
        },
        {
          "duration": 0.4137929999999983,
          "durationTicks": 384,
          "midi": 62,
          "name": "D4",
          "ticks": 115968,
          "time": 124.96548600000001,
          "velocity": 0.3937007874015748
        },
        {
          "duration": 0.4137929999999983,
          "durationTicks": 384,
          "midi": 66,
          "name": "F#4",
          "ticks": 116352,
          "time": 125.37927900000001,
          "velocity": 0.3937007874015748
        },
        {
          "duration": 0.4137929999999983,
          "durationTicks": 384,
          "midi": 72,
          "name": "C5",
          "ticks": 116736,
          "time": 125.79307200000001,
          "velocity": 0.3937007874015748
        },
        {
          "duration": 0.4137929999999983,
          "durationTicks": 384,
          "midi": 66,
          "name": "F#4",
          "ticks": 117120,
          "time": 126.20686500000001,
          "velocity": 0.3937007874015748
        },
        {
          "duration": 0.4137929999999983,
          "durationTicks": 384,
          "midi": 60,
          "name": "C4",
          "ticks": 117504,
          "time": 126.620658,
          "velocity": 0.3937007874015748
        },
        {
          "duration": 0.4137929999999983,
          "durationTicks": 384,
          "midi": 64,
          "name": "E4",
          "ticks": 117888,
          "time": 127.034451,
          "velocity": 0.3937007874015748
        },
        {
          "duration": 0.4137929999999983,
          "durationTicks": 384,
          "midi": 71,
          "name": "B4",
          "ticks": 118272,
          "time": 127.448244,
          "velocity": 0.3937007874015748
        },
        {
          "duration": 0.4137930000000125,
          "durationTicks": 384,
          "midi": 64,
          "name": "E4",
          "ticks": 118656,
          "time": 127.862037,
          "velocity": 0.3937007874015748
        },
        {
          "duration": 0.4137929999999983,
          "durationTicks": 384,
          "midi": 59,
          "name": "B3",
          "ticks": 119040,
          "time": 128.27583,
          "velocity": 0.3937007874015748
        },
        {
          "duration": 0.4137929999999983,
          "durationTicks": 384,
          "midi": 63,
          "name": "D#4",
          "ticks": 119424,
          "time": 128.689623,
          "velocity": 0.3937007874015748
        },
        {
          "duration": 0.4137929999999983,
          "durationTicks": 384,
          "midi": 69,
          "name": "A4",
          "ticks": 119808,
          "time": 129.103416,
          "velocity": 0.3937007874015748
        },
        {
          "duration": 0.4137929999999983,
          "durationTicks": 384,
          "midi": 63,
          "name": "D#4",
          "ticks": 120192,
          "time": 129.517209,
          "velocity": 0.3937007874015748
        },
        {
          "duration": 0.4137929999999983,
          "durationTicks": 384,
          "midi": 64,
          "name": "E4",
          "ticks": 120576,
          "time": 129.931002,
          "velocity": 0.3937007874015748
        },
        {
          "duration": 0.4137929999999983,
          "durationTicks": 384,
          "midi": 67,
          "name": "G4",
          "ticks": 120960,
          "time": 130.344795,
          "velocity": 0.3937007874015748
        },
        {
          "duration": 0.4137929999999983,
          "durationTicks": 384,
          "midi": 74,
          "name": "D5",
          "ticks": 121344,
          "time": 130.758588,
          "velocity": 0.3937007874015748
        },
        {
          "duration": 0.4137929999999983,
          "durationTicks": 384,
          "midi": 67,
          "name": "G4",
          "ticks": 121728,
          "time": 131.172381,
          "velocity": 0.3937007874015748
        },
        {
          "duration": 0.4137929999999983,
          "durationTicks": 384,
          "midi": 62,
          "name": "D4",
          "ticks": 122112,
          "time": 131.586174,
          "velocity": 0.3937007874015748
        },
        {
          "duration": 0.4137929999999983,
          "durationTicks": 384,
          "midi": 66,
          "name": "F#4",
          "ticks": 122496,
          "time": 131.999967,
          "velocity": 0.3937007874015748
        },
        {
          "duration": 0.4137929999999983,
          "durationTicks": 384,
          "midi": 72,
          "name": "C5",
          "ticks": 122880,
          "time": 132.41376,
          "velocity": 0.3937007874015748
        },
        {
          "duration": 0.4137929999999983,
          "durationTicks": 384,
          "midi": 66,
          "name": "F#4",
          "ticks": 123264,
          "time": 132.827553,
          "velocity": 0.3937007874015748
        },
        {
          "duration": 0.20689650000002757,
          "durationTicks": 192,
          "midi": 48,
          "name": "C3",
          "ticks": 123648,
          "time": 133.241346,
          "velocity": 0.3937007874015748
        },
        {
          "duration": 0.20689649999999915,
          "durationTicks": 192,
          "midi": 52,
          "name": "E3",
          "ticks": 123840,
          "time": 133.44824250000002,
          "velocity": 0.3937007874015748
        },
        {
          "duration": 0.20689649999999915,
          "durationTicks": 192,
          "midi": 59,
          "name": "B3",
          "ticks": 124032,
          "time": 133.65513900000002,
          "velocity": 0.3937007874015748
        },
        {
          "duration": 0.20689649999999915,
          "durationTicks": 192,
          "midi": 48,
          "name": "C3",
          "ticks": 124224,
          "time": 133.86203550000002,
          "velocity": 0.3937007874015748
        },
        {
          "duration": 0.20689649999999915,
          "durationTicks": 192,
          "midi": 52,
          "name": "E3",
          "ticks": 124416,
          "time": 134.06893200000002,
          "velocity": 0.3937007874015748
        },
        {
          "duration": 0.20689649999999915,
          "durationTicks": 192,
          "midi": 59,
          "name": "B3",
          "ticks": 124608,
          "time": 134.27582850000002,
          "velocity": 0.3937007874015748
        },
        {
          "duration": 0.20689649999999915,
          "durationTicks": 192,
          "midi": 48,
          "name": "C3",
          "ticks": 124800,
          "time": 134.48272500000002,
          "velocity": 0.3937007874015748
        },
        {
          "duration": 0.20689649999999915,
          "durationTicks": 192,
          "midi": 52,
          "name": "E3",
          "ticks": 124992,
          "time": 134.68962150000002,
          "velocity": 0.3937007874015748
        },
        {
          "duration": 0.20689649999999915,
          "durationTicks": 192,
          "midi": 59,
          "name": "B3",
          "ticks": 125184,
          "time": 134.89651800000001,
          "velocity": 0.3937007874015748
        },
        {
          "duration": 0.20689649999999915,
          "durationTicks": 192,
          "midi": 52,
          "name": "E3",
          "ticks": 125376,
          "time": 135.1034145,
          "velocity": 0.3937007874015748
        },
        {
          "duration": 0.20689649999999915,
          "durationTicks": 192,
          "midi": 48,
          "name": "C3",
          "ticks": 125568,
          "time": 135.310311,
          "velocity": 0.3937007874015748
        },
        {
          "duration": 0.20689649999999915,
          "durationTicks": 192,
          "midi": 52,
          "name": "E3",
          "ticks": 125760,
          "time": 135.5172075,
          "velocity": 0.3937007874015748
        },
        {
          "duration": 0.20689649999999915,
          "durationTicks": 192,
          "midi": 48,
          "name": "C3",
          "ticks": 125952,
          "time": 135.724104,
          "velocity": 0.3937007874015748
        },
        {
          "duration": 0.20689649999999915,
          "durationTicks": 192,
          "midi": 59,
          "name": "B3",
          "ticks": 126144,
          "time": 135.9310005,
          "velocity": 0.3937007874015748
        },
        {
          "duration": 0.20689649999999915,
          "durationTicks": 192,
          "midi": 52,
          "name": "E3",
          "ticks": 126336,
          "time": 136.137897,
          "velocity": 0.3937007874015748
        },
        {
          "duration": 0.20689649999999915,
          "durationTicks": 192,
          "midi": 59,
          "name": "B3",
          "ticks": 126528,
          "time": 136.3447935,
          "velocity": 0.3937007874015748
        },
        {
          "duration": 0.20689649999999915,
          "durationTicks": 192,
          "midi": 47,
          "name": "B2",
          "ticks": 126720,
          "time": 136.55169,
          "velocity": 0.3937007874015748
        },
        {
          "duration": 0.20689649999999915,
          "durationTicks": 192,
          "midi": 51,
          "name": "D#3",
          "ticks": 126912,
          "time": 136.7585865,
          "velocity": 0.3937007874015748
        },
        {
          "duration": 0.20689649999999915,
          "durationTicks": 192,
          "midi": 57,
          "name": "A3",
          "ticks": 127104,
          "time": 136.965483,
          "velocity": 0.3937007874015748
        },
        {
          "duration": 0.20689649999999915,
          "durationTicks": 192,
          "midi": 51,
          "name": "D#3",
          "ticks": 127296,
          "time": 137.1723795,
          "velocity": 0.3937007874015748
        },
        {
          "duration": 0.20689649999999915,
          "durationTicks": 192,
          "midi": 57,
          "name": "A3",
          "ticks": 127488,
          "time": 137.379276,
          "velocity": 0.3937007874015748
        },
        {
          "duration": 0.20689649999999915,
          "durationTicks": 192,
          "midi": 47,
          "name": "B2",
          "ticks": 127680,
          "time": 137.5861725,
          "velocity": 0.3937007874015748
        },
        {
          "duration": 0.20689649999999915,
          "durationTicks": 192,
          "midi": 51,
          "name": "D#3",
          "ticks": 127872,
          "time": 137.793069,
          "velocity": 0.3937007874015748
        },
        {
          "duration": 0.20689649999999915,
          "durationTicks": 192,
          "midi": 47,
          "name": "B2",
          "ticks": 128064,
          "time": 137.9999655,
          "velocity": 0.3937007874015748
        },
        {
          "duration": 0.20689649999999915,
          "durationTicks": 192,
          "midi": 51,
          "name": "D#3",
          "ticks": 128256,
          "time": 138.206862,
          "velocity": 0.3937007874015748
        },
        {
          "duration": 0.20689649999999915,
          "durationTicks": 192,
          "midi": 57,
          "name": "A3",
          "ticks": 128448,
          "time": 138.4137585,
          "velocity": 0.3937007874015748
        },
        {
          "duration": 0.20689649999999915,
          "durationTicks": 192,
          "midi": 51,
          "name": "D#3",
          "ticks": 128640,
          "time": 138.620655,
          "velocity": 0.3937007874015748
        },
        {
          "duration": 0.20689649999999915,
          "durationTicks": 192,
          "midi": 47,
          "name": "B2",
          "ticks": 128832,
          "time": 138.8275515,
          "velocity": 0.3937007874015748
        },
        {
          "duration": 0.20689649999999915,
          "durationTicks": 192,
          "midi": 51,
          "name": "D#3",
          "ticks": 129024,
          "time": 139.034448,
          "velocity": 0.3937007874015748
        },
        {
          "duration": 0.20689649999999915,
          "durationTicks": 192,
          "midi": 47,
          "name": "B2",
          "ticks": 129216,
          "time": 139.2413445,
          "velocity": 0.3937007874015748
        },
        {
          "duration": 0.20689649999999915,
          "durationTicks": 192,
          "midi": 51,
          "name": "D#3",
          "ticks": 129408,
          "time": 139.448241,
          "velocity": 0.3937007874015748
        },
        {
          "duration": 0.20689649999999915,
          "durationTicks": 192,
          "midi": 57,
          "name": "A3",
          "ticks": 129600,
          "time": 139.6551375,
          "velocity": 0.3937007874015748
        },
        {
          "duration": 0.20689649999999915,
          "durationTicks": 192,
          "midi": 52,
          "name": "E3",
          "ticks": 129792,
          "time": 139.862034,
          "velocity": 0.3937007874015748
        },
        {
          "duration": 0.20689650000002757,
          "durationTicks": 192,
          "midi": 55,
          "name": "G3",
          "ticks": 129984,
          "time": 140.0689305,
          "velocity": 0.3937007874015748
        },
        {
          "duration": 0.20689649999999915,
          "durationTicks": 192,
          "midi": 62,
          "name": "D4",
          "ticks": 130176,
          "time": 140.27582700000002,
          "velocity": 0.3937007874015748
        },
        {
          "duration": 0.20689649999999915,
          "durationTicks": 192,
          "midi": 55,
          "name": "G3",
          "ticks": 130368,
          "time": 140.48272350000002,
          "velocity": 0.3937007874015748
        },
        {
          "duration": 0.20689649999999915,
          "durationTicks": 192,
          "midi": 62,
          "name": "D4",
          "ticks": 130560,
          "time": 140.68962000000002,
          "velocity": 0.3937007874015748
        },
        {
          "duration": 0.20689649999999915,
          "durationTicks": 192,
          "midi": 55,
          "name": "G3",
          "ticks": 130752,
          "time": 140.89651650000002,
          "velocity": 0.3937007874015748
        },
        {
          "duration": 0.20689649999999915,
          "durationTicks": 192,
          "midi": 52,
          "name": "E3",
          "ticks": 130944,
          "time": 141.10341300000002,
          "velocity": 0.3937007874015748
        },
        {
          "duration": 0.20689649999999915,
          "durationTicks": 192,
          "midi": 52,
          "name": "E3",
          "ticks": 131136,
          "time": 141.31030950000002,
          "velocity": 0.3937007874015748
        },
        {
          "duration": 0.20689649999999915,
          "durationTicks": 192,
          "midi": 55,
          "name": "G3",
          "ticks": 131328,
          "time": 141.51720600000002,
          "velocity": 0.3937007874015748
        },
        {
          "duration": 0.20689649999999915,
          "durationTicks": 192,
          "midi": 62,
          "name": "D4",
          "ticks": 131520,
          "time": 141.72410250000001,
          "velocity": 0.3937007874015748
        },
        {
          "duration": 0.20689649999999915,
          "durationTicks": 192,
          "midi": 62,
          "name": "D4",
          "ticks": 131712,
          "time": 141.930999,
          "velocity": 0.3937007874015748
        },
        {
          "duration": 0.20689649999999915,
          "durationTicks": 192,
          "midi": 55,
          "name": "G3",
          "ticks": 131904,
          "time": 142.1378955,
          "velocity": 0.3937007874015748
        },
        {
          "duration": 0.8275859999999966,
          "durationTicks": 768,
          "midi": 52,
          "name": "E3",
          "ticks": 132096,
          "time": 142.344792,
          "velocity": 0.3937007874015748
        },
        {
          "duration": 0.8275859999999966,
          "durationTicks": 768,
          "midi": 50,
          "name": "D3",
          "ticks": 132864,
          "time": 143.172378,
          "velocity": 0.3937007874015748
        },
        {
          "duration": 0.20689649999999915,
          "durationTicks": 192,
          "midi": 54,
          "name": "F#3",
          "ticks": 133056,
          "time": 143.3792745,
          "velocity": 0.3937007874015748
        },
        {
          "duration": 0.20689649999999915,
          "durationTicks": 192,
          "midi": 60,
          "name": "C4",
          "ticks": 133248,
          "time": 143.586171,
          "velocity": 0.3937007874015748
        },
        {
          "duration": 0.20689649999999915,
          "durationTicks": 192,
          "midi": 54,
          "name": "F#3",
          "ticks": 133440,
          "time": 143.7930675,
          "velocity": 0.3937007874015748
        },
        {
          "duration": 0.8275859999999966,
          "durationTicks": 768,
          "midi": 54,
          "name": "F#3",
          "ticks": 133632,
          "time": 143.999964,
          "velocity": 0.3937007874015748
        },
        {
          "duration": 0.20689649999999915,
          "durationTicks": 192,
          "midi": 60,
          "name": "C4",
          "ticks": 133632,
          "time": 143.999964,
          "velocity": 0.3937007874015748
        },
        {
          "duration": 0.20689649999999915,
          "durationTicks": 192,
          "midi": 60,
          "name": "C4",
          "ticks": 133824,
          "time": 144.2068605,
          "velocity": 0.3937007874015748
        },
        {
          "duration": 0.20689649999999915,
          "durationTicks": 192,
          "midi": 50,
          "name": "D3",
          "ticks": 134016,
          "time": 144.413757,
          "velocity": 0.3937007874015748
        },
        {
          "duration": 0.20689649999999915,
          "durationTicks": 192,
          "midi": 50,
          "name": "D3",
          "ticks": 134208,
          "time": 144.6206535,
          "velocity": 0.3937007874015748
        },
        {
          "duration": 0.8275859999999966,
          "durationTicks": 768,
          "midi": 60,
          "name": "C4",
          "ticks": 134400,
          "time": 144.82755,
          "velocity": 0.3937007874015748
        },
        {
          "duration": 0.20689649999999915,
          "durationTicks": 192,
          "midi": 54,
          "name": "F#3",
          "ticks": 134592,
          "time": 145.0344465,
          "velocity": 0.3937007874015748
        },
        {
          "duration": 0.20689649999999915,
          "durationTicks": 192,
          "midi": 50,
          "name": "D3",
          "ticks": 134784,
          "time": 145.241343,
          "velocity": 0.3937007874015748
        },
        {
          "duration": 0.20689649999999915,
          "durationTicks": 192,
          "midi": 54,
          "name": "F#3",
          "ticks": 134976,
          "time": 145.4482395,
          "velocity": 0.3937007874015748
        },
        {
          "duration": 0.4137929999999983,
          "durationTicks": 384,
          "midi": 54,
          "name": "F#3",
          "ticks": 135168,
          "time": 145.655136,
          "velocity": 0.3937007874015748
        },
        {
          "duration": 0.8275859999999966,
          "durationTicks": 768,
          "midi": 50,
          "name": "D3",
          "ticks": 135552,
          "time": 146.068929,
          "velocity": 0.3937007874015748
        }
      ],
      "endOfTrackTicks": 136320
    },
    {
      "channel": 3,
      "controlChanges": {},
      "pitchBends": [],
      "instrument": {
        "family": "brass",
        "number": 57,
        "name": "trombone"
      },
      "name": "Trombone",
      "notes": [
        {
          "duration": 0.827586000000025,
          "durationTicks": 768,
          "midi": 48,
          "name": "C3",
          "ticks": 123648,
          "time": 133.241346,
          "velocity": 0.3937007874015748
        },
        {
          "duration": 0.8275859999999966,
          "durationTicks": 768,
          "midi": 52,
          "name": "E3",
          "ticks": 124416,
          "time": 134.06893200000002,
          "velocity": 0.3937007874015748
        },
        {
          "duration": 0.8275859999999966,
          "durationTicks": 768,
          "midi": 48,
          "name": "C3",
          "ticks": 125184,
          "time": 134.89651800000001,
          "velocity": 0.3937007874015748
        },
        {
          "duration": 0.8275859999999966,
          "durationTicks": 768,
          "midi": 52,
          "name": "E3",
          "ticks": 125952,
          "time": 135.724104,
          "velocity": 0.3937007874015748
        },
        {
          "duration": 0.8275859999999966,
          "durationTicks": 768,
          "midi": 47,
          "name": "B2",
          "ticks": 126720,
          "time": 136.55169,
          "velocity": 0.3937007874015748
        },
        {
          "duration": 0.8275859999999966,
          "durationTicks": 768,
          "midi": 51,
          "name": "D#3",
          "ticks": 127488,
          "time": 137.379276,
          "velocity": 0.3937007874015748
        },
        {
          "duration": 0.8275859999999966,
          "durationTicks": 768,
          "midi": 47,
          "name": "B2",
          "ticks": 128256,
          "time": 138.206862,
          "velocity": 0.3937007874015748
        },
        {
          "duration": 0.8275859999999966,
          "durationTicks": 768,
          "midi": 51,
          "name": "D#3",
          "ticks": 129024,
          "time": 139.034448,
          "velocity": 0.3937007874015748
        },
        {
          "duration": 0.827586000000025,
          "durationTicks": 768,
          "midi": 52,
          "name": "E3",
          "ticks": 129792,
          "time": 139.862034,
          "velocity": 0.3937007874015748
        },
        {
          "duration": 0.8275859999999966,
          "durationTicks": 768,
          "midi": 55,
          "name": "G3",
          "ticks": 130560,
          "time": 140.68962000000002,
          "velocity": 0.3937007874015748
        },
        {
          "duration": 0.8275859999999966,
          "durationTicks": 768,
          "midi": 52,
          "name": "E3",
          "ticks": 131328,
          "time": 141.51720600000002,
          "velocity": 0.3937007874015748
        },
        {
          "duration": 0.8275859999999966,
          "durationTicks": 768,
          "midi": 55,
          "name": "G3",
          "ticks": 132096,
          "time": 142.344792,
          "velocity": 0.3937007874015748
        },
        {
          "duration": 0.8275859999999966,
          "durationTicks": 768,
          "midi": 50,
          "name": "D3",
          "ticks": 132864,
          "time": 143.172378,
          "velocity": 0.3937007874015748
        },
        {
          "duration": 0.8275859999999966,
          "durationTicks": 768,
          "midi": 54,
          "name": "F#3",
          "ticks": 133632,
          "time": 143.999964,
          "velocity": 0.3937007874015748
        },
        {
          "duration": 0.8275859999999966,
          "durationTicks": 768,
          "midi": 50,
          "name": "D3",
          "ticks": 134400,
          "time": 144.82755,
          "velocity": 0.3937007874015748
        },
        {
          "duration": 1.241378999999995,
          "durationTicks": 1152,
          "midi": 54,
          "name": "F#3",
          "ticks": 135168,
          "time": 145.655136,
          "velocity": 0.3937007874015748
        }
      ],
      "endOfTrackTicks": 136320
    },
    {
      "channel": 4,
      "controlChanges": {},
      "pitchBends": [],
      "instrument": {
        "family": "strings",
        "number": 40,
        "name": "violin"
      },
      "name": "Violin",
      "notes": [
        {
          "duration": 1.655172,
          "durationTicks": 1536,
          "midi": 50,
          "name": "D3",
          "ticks": 0,
          "time": 0,
          "velocity": 0.3937007874015748
        },
        {
          "duration": 1.655172,
          "durationTicks": 1536,
          "midi": 49,
          "name": "C#3",
          "ticks": 1536,
          "time": 1.655172,
          "velocity": 0.3937007874015748
        },
        {
          "duration": 1.6551719999999999,
          "durationTicks": 1536,
          "midi": 54,
          "name": "F#3",
          "ticks": 3072,
          "time": 3.310344,
          "velocity": 0.3937007874015748
        },
        {
          "duration": 1.6551720000000003,
          "durationTicks": 1536,
          "midi": 52,
          "name": "E3",
          "ticks": 4608,
          "time": 4.965516,
          "velocity": 0.3937007874015748
        },
        {
          "duration": 1.6551719999999994,
          "durationTicks": 1536,
          "midi": 50,
          "name": "D3",
          "ticks": 6144,
          "time": 6.620688,
          "velocity": 0.3937007874015748
        },
        {
          "duration": 1.6551720000000003,
          "durationTicks": 1536,
          "midi": 49,
          "name": "C#3",
          "ticks": 7680,
          "time": 8.27586,
          "velocity": 0.3937007874015748
        },
        {
          "duration": 1.6551720000000003,
          "durationTicks": 1536,
          "midi": 54,
          "name": "F#3",
          "ticks": 9216,
          "time": 9.931032,
          "velocity": 0.3937007874015748
        },
        {
          "duration": 1.6551720000000003,
          "durationTicks": 1536,
          "midi": 52,
          "name": "E3",
          "ticks": 10752,
          "time": 11.586204,
          "velocity": 0.3937007874015748
        },
        {
          "duration": 1.6551720000000003,
          "durationTicks": 1536,
          "midi": 50,
          "name": "D3",
          "ticks": 12288,
          "time": 13.241376,
          "velocity": 0.3937007874015748
        },
        {
          "duration": 1.6551719999999985,
          "durationTicks": 1536,
          "midi": 49,
          "name": "C#3",
          "ticks": 13824,
          "time": 14.896548000000001,
          "velocity": 0.3937007874015748
        },
        {
          "duration": 1.6551720000000003,
          "durationTicks": 1536,
          "midi": 54,
          "name": "F#3",
          "ticks": 15360,
          "time": 16.55172,
          "velocity": 0.3937007874015748
        },
        {
          "duration": 1.6551720000000003,
          "durationTicks": 1536,
          "midi": 52,
          "name": "E3",
          "ticks": 16896,
          "time": 18.206892,
          "velocity": 0.3937007874015748
        },
        {
          "duration": 1.6551720000000003,
          "durationTicks": 1536,
          "midi": 50,
          "name": "D3",
          "ticks": 18432,
          "time": 19.862064,
          "velocity": 0.3937007874015748
        },
        {
          "duration": 1.6551720000000003,
          "durationTicks": 1536,
          "midi": 49,
          "name": "C#3",
          "ticks": 19968,
          "time": 21.517236,
          "velocity": 0.3937007874015748
        },
        {
          "duration": 1.6551720000000003,
          "durationTicks": 1536,
          "midi": 54,
          "name": "F#3",
          "ticks": 21504,
          "time": 23.172408,
          "velocity": 0.3937007874015748
        },
        {
          "duration": 1.6551720000000003,
          "durationTicks": 1536,
          "midi": 52,
          "name": "E3",
          "ticks": 23040,
          "time": 24.82758,
          "velocity": 0.3937007874015748
        },
        {
          "duration": 1.6551720000000003,
          "durationTicks": 1536,
          "midi": 50,
          "name": "D3",
          "ticks": 24576,
          "time": 26.482752,
          "velocity": 0.3937007874015748
        },
        {
          "duration": 1.6551720000000003,
          "durationTicks": 1536,
          "midi": 49,
          "name": "C#3",
          "ticks": 26112,
          "time": 28.137924,
          "velocity": 0.3937007874015748
        },
        {
          "duration": 1.6551720000000003,
          "durationTicks": 1536,
          "midi": 54,
          "name": "F#3",
          "ticks": 27648,
          "time": 29.793096000000002,
          "velocity": 0.3937007874015748
        },
        {
          "duration": 1.6551719999999968,
          "durationTicks": 1536,
          "midi": 52,
          "name": "E3",
          "ticks": 29184,
          "time": 31.448268000000002,
          "velocity": 0.3937007874015748
        },
        {
          "duration": 1.6551720000000003,
          "durationTicks": 1536,
          "midi": 50,
          "name": "D3",
          "ticks": 30720,
          "time": 33.10344,
          "velocity": 0.3937007874015748
        },
        {
          "duration": 1.6551720000000003,
          "durationTicks": 1536,
          "midi": 49,
          "name": "C#3",
          "ticks": 32256,
          "time": 34.758612,
          "velocity": 0.3937007874015748
        },
        {
          "duration": 1.6551720000000003,
          "durationTicks": 1536,
          "midi": 54,
          "name": "F#3",
          "ticks": 33792,
          "time": 36.413784,
          "velocity": 0.3937007874015748
        },
        {
          "duration": 1.6551720000000003,
          "durationTicks": 1536,
          "midi": 52,
          "name": "E3",
          "ticks": 35328,
          "time": 38.068956,
          "velocity": 0.3937007874015748
        },
        {
          "duration": 1.6551720000000003,
          "durationTicks": 1536,
          "midi": 50,
          "name": "D3",
          "ticks": 36864,
          "time": 39.724128,
          "velocity": 0.3937007874015748
        },
        {
          "duration": 1.6551720000000003,
          "durationTicks": 1536,
          "midi": 49,
          "name": "C#3",
          "ticks": 38400,
          "time": 41.3793,
          "velocity": 0.3937007874015748
        },
        {
          "duration": 1.6551720000000003,
          "durationTicks": 1536,
          "midi": 54,
          "name": "F#3",
          "ticks": 39936,
          "time": 43.034472,
          "velocity": 0.3937007874015748
        },
        {
          "duration": 1.6551720000000003,
          "durationTicks": 1536,
          "midi": 52,
          "name": "E3",
          "ticks": 41472,
          "time": 44.689644,
          "velocity": 0.3937007874015748
        },
        {
          "duration": 1.6551720000000003,
          "durationTicks": 1536,
          "midi": 50,
          "name": "D3",
          "ticks": 43008,
          "time": 46.344816,
          "velocity": 0.3937007874015748
        },
        {
          "duration": 1.6551720000000003,
          "durationTicks": 1536,
          "midi": 49,
          "name": "C#3",
          "ticks": 44544,
          "time": 47.999988,
          "velocity": 0.3937007874015748
        },
        {
          "duration": 1.6551720000000003,
          "durationTicks": 1536,
          "midi": 54,
          "name": "F#3",
          "ticks": 46080,
          "time": 49.65516,
          "velocity": 0.3937007874015748
        },
        {
          "duration": 1.6551720000000003,
          "durationTicks": 1536,
          "midi": 52,
          "name": "E3",
          "ticks": 47616,
          "time": 51.310332,
          "velocity": 0.3937007874015748
        },
        {
          "duration": 0.20689649999999915,
          "durationTicks": 192,
          "midi": 50,
          "name": "D3",
          "ticks": 49152,
          "time": 52.965504,
          "velocity": 0.3937007874015748
        },
        {
          "duration": 0.20689649999999915,
          "durationTicks": 192,
          "midi": 54,
          "name": "F#3",
          "ticks": 49344,
          "time": 53.1724005,
          "velocity": 0.3937007874015748
        },
        {
          "duration": 0.20689649999999915,
          "durationTicks": 192,
          "midi": 55,
          "name": "G3",
          "ticks": 49536,
          "time": 53.379297,
          "velocity": 0.3937007874015748
        },
        {
          "duration": 0.20689649999999915,
          "durationTicks": 192,
          "midi": 74,
          "name": "D5",
          "ticks": 49728,
          "time": 53.5861935,
          "velocity": 0.3937007874015748
        },
        {
          "duration": 0.20689649999999915,
          "durationTicks": 192,
          "midi": 62,
          "name": "D4",
          "ticks": 49728,
          "time": 53.5861935,
          "velocity": 0.3937007874015748
        },
        {
          "duration": 1.6551720000000003,
          "durationTicks": 1536,
          "midi": 51,
          "name": "D#3",
          "ticks": 49920,
          "time": 53.79309,
          "velocity": 0.3937007874015748
        },
        {
          "duration": 0.4137930000000054,
          "durationTicks": 384,
          "midi": 55,
          "name": "G3",
          "ticks": 49920,
          "time": 53.79309,
          "velocity": 0.3937007874015748
        },
        {
          "duration": 0.4137929999999983,
          "durationTicks": 384,
          "midi": 62,
          "name": "D4",
          "ticks": 50304,
          "time": 54.206883000000005,
          "velocity": 0.3937007874015748
        },
        {
          "duration": 0.4137929999999983,
          "durationTicks": 384,
          "midi": 55,
          "name": "G3",
          "ticks": 50688,
          "time": 54.620676,
          "velocity": 0.3937007874015748
        },
        {
          "duration": 0.4137929999999983,
          "durationTicks": 384,
          "midi": 62,
          "name": "D4",
          "ticks": 51072,
          "time": 55.034469,
          "velocity": 0.3937007874015748
        },
        {
          "duration": 1.6551720000000003,
          "durationTicks": 1536,
          "midi": 50,
          "name": "D3",
          "ticks": 51456,
          "time": 55.448262,
          "velocity": 0.3937007874015748
        },
        {
          "duration": 0.4137930000000054,
          "durationTicks": 384,
          "midi": 54,
          "name": "F#3",
          "ticks": 51456,
          "time": 55.448262,
          "velocity": 0.3937007874015748
        },
        {
          "duration": 0.4137929999999983,
          "durationTicks": 384,
          "midi": 60,
          "name": "C4",
          "ticks": 51840,
          "time": 55.862055000000005,
          "velocity": 0.3937007874015748
        },
        {
          "duration": 0.4137929999999983,
          "durationTicks": 384,
          "midi": 54,
          "name": "F#3",
          "ticks": 52224,
          "time": 56.275848,
          "velocity": 0.3937007874015748
        },
        {
          "duration": 0.4137929999999983,
          "durationTicks": 384,
          "midi": 60,
          "name": "C4",
          "ticks": 52608,
          "time": 56.689641,
          "velocity": 0.3937007874015748
        },
        {
          "duration": 0.4137930000000054,
          "durationTicks": 384,
          "midi": 58,
          "name": "A#3",
          "ticks": 52992,
          "time": 57.103434,
          "velocity": 0.3937007874015748
        },
        {
          "duration": 1.6551720000000003,
          "durationTicks": 1536,
          "midi": 55,
          "name": "G3",
          "ticks": 52992,
          "time": 57.103434,
          "velocity": 0.3937007874015748
        },
        {
          "duration": 0.4137929999999983,
          "durationTicks": 384,
          "midi": 65,
          "name": "F4",
          "ticks": 53376,
          "time": 57.517227000000005,
          "velocity": 0.3937007874015748
        },
        {
          "duration": 0.4137929999999983,
          "durationTicks": 384,
          "midi": 58,
          "name": "A#3",
          "ticks": 53760,
          "time": 57.931020000000004,
          "velocity": 0.3937007874015748
        },
        {
          "duration": 0.4137929999999983,
          "durationTicks": 384,
          "midi": 65,
          "name": "F4",
          "ticks": 54144,
          "time": 58.344813,
          "velocity": 0.3937007874015748
        },
        {
          "duration": 0.4137930000000054,
          "durationTicks": 384,
          "midi": 57,
          "name": "A3",
          "ticks": 54528,
          "time": 58.758606,
          "velocity": 0.3937007874015748
        },
        {
          "duration": 1.6551720000000003,
          "durationTicks": 1536,
          "midi": 53,
          "name": "F3",
          "ticks": 54528,
          "time": 58.758606,
          "velocity": 0.3937007874015748
        },
        {
          "duration": 0.4137929999999983,
          "durationTicks": 384,
          "midi": 62,
          "name": "D4",
          "ticks": 54912,
          "time": 59.172399000000006,
          "velocity": 0.3937007874015748
        },
        {
          "duration": 0.4137929999999983,
          "durationTicks": 384,
          "midi": 57,
          "name": "A3",
          "ticks": 55296,
          "time": 59.586192000000004,
          "velocity": 0.3937007874015748
        },
        {
          "duration": 0.4137929999999983,
          "durationTicks": 384,
          "midi": 62,
          "name": "D4",
          "ticks": 55680,
          "time": 59.999985,
          "velocity": 0.3937007874015748
        },
        {
          "duration": 1.6551720000000003,
          "durationTicks": 1536,
          "midi": 51,
          "name": "D#3",
          "ticks": 56064,
          "time": 60.413778,
          "velocity": 0.3937007874015748
        },
        {
          "duration": 0.4137930000000054,
          "durationTicks": 384,
          "midi": 55,
          "name": "G3",
          "ticks": 56064,
          "time": 60.413778,
          "velocity": 0.3937007874015748
        },
        {
          "duration": 0.4137929999999983,
          "durationTicks": 384,
          "midi": 62,
          "name": "D4",
          "ticks": 56448,
          "time": 60.827571000000006,
          "velocity": 0.3937007874015748
        },
        {
          "duration": 0.4137929999999983,
          "durationTicks": 384,
          "midi": 55,
          "name": "G3",
          "ticks": 56832,
          "time": 61.241364000000004,
          "velocity": 0.3937007874015748
        },
        {
          "duration": 0.4137929999999983,
          "durationTicks": 384,
          "midi": 62,
          "name": "D4",
          "ticks": 57216,
          "time": 61.655157,
          "velocity": 0.3937007874015748
        },
        {
          "duration": 0.4137930000000054,
          "durationTicks": 384,
          "midi": 54,
          "name": "F#3",
          "ticks": 57600,
          "time": 62.06895,
          "velocity": 0.3937007874015748
        },
        {
          "duration": 1.6551720000000003,
          "durationTicks": 1536,
          "midi": 50,
          "name": "D3",
          "ticks": 57600,
          "time": 62.06895,
          "velocity": 0.3937007874015748
        },
        {
          "duration": 0.4137929999999983,
          "durationTicks": 384,
          "midi": 60,
          "name": "C4",
          "ticks": 57984,
          "time": 62.482743000000006,
          "velocity": 0.3937007874015748
        },
        {
          "duration": 0.4137929999999983,
          "durationTicks": 384,
          "midi": 54,
          "name": "F#3",
          "ticks": 58368,
          "time": 62.896536000000005,
          "velocity": 0.3937007874015748
        },
        {
          "duration": 0.4137929999999983,
          "durationTicks": 384,
          "midi": 60,
          "name": "C4",
          "ticks": 58752,
          "time": 63.310329,
          "velocity": 0.3937007874015748
        },
        {
          "duration": 1.6551720000000003,
          "durationTicks": 1536,
          "midi": 55,
          "name": "G3",
          "ticks": 59136,
          "time": 63.724122,
          "velocity": 0.3937007874015748
        },
        {
          "duration": 0.4137930000000054,
          "durationTicks": 384,
          "midi": 58,
          "name": "A#3",
          "ticks": 59136,
          "time": 63.724122,
          "velocity": 0.3937007874015748
        },
        {
          "duration": 0.4137929999999983,
          "durationTicks": 384,
          "midi": 65,
          "name": "F4",
          "ticks": 59520,
          "time": 64.137915,
          "velocity": 0.3937007874015748
        },
        {
          "duration": 0.4137929999999983,
          "durationTicks": 384,
          "midi": 58,
          "name": "A#3",
          "ticks": 59904,
          "time": 64.551708,
          "velocity": 0.3937007874015748
        },
        {
          "duration": 0.4137929999999983,
          "durationTicks": 384,
          "midi": 65,
          "name": "F4",
          "ticks": 60288,
          "time": 64.965501,
          "velocity": 0.3937007874015748
        },
        {
          "duration": 0.3103447499999987,
          "durationTicks": 288,
          "midi": 58,
          "name": "A#3",
          "ticks": 60672,
          "time": 65.379294,
          "velocity": 0.3937007874015748
        },
        {
          "duration": 0.3103447499999987,
          "durationTicks": 288,
          "midi": 57,
          "name": "A3",
          "ticks": 60960,
          "time": 65.68963875,
          "velocity": 0.3937007874015748
        },
        {
          "duration": 0.3103447499999987,
          "durationTicks": 288,
          "midi": 55,
          "name": "G3",
          "ticks": 61248,
          "time": 65.9999835,
          "velocity": 0.3937007874015748
        },
        {
          "duration": 0.3103447499999987,
          "durationTicks": 288,
          "midi": 53,
          "name": "F3",
          "ticks": 61536,
          "time": 66.31032825,
          "velocity": 0.3937007874015748
        },
        {
          "duration": 0.20689650000001336,
          "durationTicks": 192,
          "midi": 51,
          "name": "D#3",
          "ticks": 61824,
          "time": 66.620673,
          "velocity": 0.3937007874015748
        },
        {
          "duration": 0.20689649999999915,
          "durationTicks": 192,
          "midi": 53,
          "name": "F3",
          "ticks": 62016,
          "time": 66.82756950000001,
          "velocity": 0.3937007874015748
        },
        {
          "duration": 1.6551719999999932,
          "durationTicks": 1536,
          "midi": 51,
          "name": "D#3",
          "ticks": 62208,
          "time": 67.03446600000001,
          "velocity": 0.3937007874015748
        },
        {
          "duration": 0.4137929999999983,
          "durationTicks": 384,
          "midi": 55,
          "name": "G3",
          "ticks": 62208,
          "time": 67.03446600000001,
          "velocity": 0.3937007874015748
        },
        {
          "duration": 0.4137929999999983,
          "durationTicks": 384,
          "midi": 62,
          "name": "D4",
          "ticks": 62592,
          "time": 67.44825900000001,
          "velocity": 0.3937007874015748
        },
        {
          "duration": 0.4137929999999983,
          "durationTicks": 384,
          "midi": 55,
          "name": "G3",
          "ticks": 62976,
          "time": 67.862052,
          "velocity": 0.3937007874015748
        },
        {
          "duration": 0.4137929999999983,
          "durationTicks": 384,
          "midi": 62,
          "name": "D4",
          "ticks": 63360,
          "time": 68.275845,
          "velocity": 0.3937007874015748
        },
        {
          "duration": 1.6551720000000074,
          "durationTicks": 1536,
          "midi": 50,
          "name": "D3",
          "ticks": 63744,
          "time": 68.689638,
          "velocity": 0.3937007874015748
        },
        {
          "duration": 0.4137929999999983,
          "durationTicks": 384,
          "midi": 54,
          "name": "F#3",
          "ticks": 63744,
          "time": 68.689638,
          "velocity": 0.3937007874015748
        },
        {
          "duration": 0.4137929999999983,
          "durationTicks": 384,
          "midi": 60,
          "name": "C4",
          "ticks": 64128,
          "time": 69.103431,
          "velocity": 0.3937007874015748
        },
        {
          "duration": 0.4137929999999983,
          "durationTicks": 384,
          "midi": 54,
          "name": "F#3",
          "ticks": 64512,
          "time": 69.517224,
          "velocity": 0.3937007874015748
        },
        {
          "duration": 0.4137930000000125,
          "durationTicks": 384,
          "midi": 60,
          "name": "C4",
          "ticks": 64896,
          "time": 69.931017,
          "velocity": 0.3937007874015748
        },
        {
          "duration": 1.6551719999999932,
          "durationTicks": 1536,
          "midi": 55,
          "name": "G3",
          "ticks": 65280,
          "time": 70.34481000000001,
          "velocity": 0.3937007874015748
        },
        {
          "duration": 0.4137929999999983,
          "durationTicks": 384,
          "midi": 58,
          "name": "A#3",
          "ticks": 65280,
          "time": 70.34481000000001,
          "velocity": 0.3937007874015748
        },
        {
          "duration": 0.4137929999999983,
          "durationTicks": 384,
          "midi": 65,
          "name": "F4",
          "ticks": 65664,
          "time": 70.75860300000001,
          "velocity": 0.3937007874015748
        },
        {
          "duration": 0.4137929999999983,
          "durationTicks": 384,
          "midi": 58,
          "name": "A#3",
          "ticks": 66048,
          "time": 71.172396,
          "velocity": 0.3937007874015748
        },
        {
          "duration": 0.4137929999999983,
          "durationTicks": 384,
          "midi": 65,
          "name": "F4",
          "ticks": 66432,
          "time": 71.586189,
          "velocity": 0.3937007874015748
        },
        {
          "duration": 0.4137929999999983,
          "durationTicks": 384,
          "midi": 57,
          "name": "A3",
          "ticks": 66816,
          "time": 71.999982,
          "velocity": 0.3937007874015748
        },
        {
          "duration": 1.6551720000000074,
          "durationTicks": 1536,
          "midi": 53,
          "name": "F3",
          "ticks": 66816,
          "time": 71.999982,
          "velocity": 0.3937007874015748
        },
        {
          "duration": 0.4137929999999983,
          "durationTicks": 384,
          "midi": 63,
          "name": "D#4",
          "ticks": 67200,
          "time": 72.413775,
          "velocity": 0.3937007874015748
        },
        {
          "duration": 0.4137929999999983,
          "durationTicks": 384,
          "midi": 57,
          "name": "A3",
          "ticks": 67584,
          "time": 72.827568,
          "velocity": 0.3937007874015748
        },
        {
          "duration": 0.4137930000000125,
          "durationTicks": 384,
          "midi": 63,
          "name": "D#4",
          "ticks": 67968,
          "time": 73.241361,
          "velocity": 0.3937007874015748
        },
        {
          "duration": 1.6551719999999932,
          "durationTicks": 1536,
          "midi": 51,
          "name": "D#3",
          "ticks": 68352,
          "time": 73.65515400000001,
          "velocity": 0.3937007874015748
        },
        {
          "duration": 0.4137929999999983,
          "durationTicks": 384,
          "midi": 55,
          "name": "G3",
          "ticks": 68352,
          "time": 73.65515400000001,
          "velocity": 0.3937007874015748
        },
        {
          "duration": 0.4137929999999983,
          "durationTicks": 384,
          "midi": 62,
          "name": "D4",
          "ticks": 68736,
          "time": 74.06894700000001,
          "velocity": 0.3937007874015748
        },
        {
          "duration": 0.4137929999999983,
          "durationTicks": 384,
          "midi": 55,
          "name": "G3",
          "ticks": 69120,
          "time": 74.48274,
          "velocity": 0.3937007874015748
        },
        {
          "duration": 0.4137929999999983,
          "durationTicks": 384,
          "midi": 62,
          "name": "D4",
          "ticks": 69504,
          "time": 74.896533,
          "velocity": 0.3937007874015748
        },
        {
          "duration": 1.6551720000000074,
          "durationTicks": 1536,
          "midi": 50,
          "name": "D3",
          "ticks": 69888,
          "time": 75.310326,
          "velocity": 0.3937007874015748
        },
        {
          "duration": 0.4137929999999983,
          "durationTicks": 384,
          "midi": 54,
          "name": "F#3",
          "ticks": 69888,
          "time": 75.310326,
          "velocity": 0.3937007874015748
        },
        {
          "duration": 0.4137929999999983,
          "durationTicks": 384,
          "midi": 60,
          "name": "C4",
          "ticks": 70272,
          "time": 75.724119,
          "velocity": 0.3937007874015748
        },
        {
          "duration": 0.4137929999999983,
          "durationTicks": 384,
          "midi": 54,
          "name": "F#3",
          "ticks": 70656,
          "time": 76.137912,
          "velocity": 0.3937007874015748
        },
        {
          "duration": 0.4137930000000125,
          "durationTicks": 384,
          "midi": 60,
          "name": "C4",
          "ticks": 71040,
          "time": 76.551705,
          "velocity": 0.3937007874015748
        },
        {
          "duration": 1.6551719999999932,
          "durationTicks": 1536,
          "midi": 55,
          "name": "G3",
          "ticks": 71424,
          "time": 76.96549800000001,
          "velocity": 0.3937007874015748
        },
        {
          "duration": 0.4137929999999983,
          "durationTicks": 384,
          "midi": 58,
          "name": "A#3",
          "ticks": 71424,
          "time": 76.96549800000001,
          "velocity": 0.3937007874015748
        },
        {
          "duration": 0.4137929999999983,
          "durationTicks": 384,
          "midi": 65,
          "name": "F4",
          "ticks": 71808,
          "time": 77.37929100000001,
          "velocity": 0.3937007874015748
        },
        {
          "duration": 0.4137929999999983,
          "durationTicks": 384,
          "midi": 58,
          "name": "A#3",
          "ticks": 72192,
          "time": 77.79308400000001,
          "velocity": 0.3937007874015748
        },
        {
          "duration": 0.4137929999999983,
          "durationTicks": 384,
          "midi": 65,
          "name": "F4",
          "ticks": 72576,
          "time": 78.206877,
          "velocity": 0.3937007874015748
        },
        {
          "duration": 0.4137929999999983,
          "durationTicks": 384,
          "midi": 57,
          "name": "A3",
          "ticks": 72960,
          "time": 78.62067,
          "velocity": 0.3937007874015748
        },
        {
          "duration": 1.6551719999999932,
          "durationTicks": 1536,
          "midi": 53,
          "name": "F3",
          "ticks": 72960,
          "time": 78.62067,
          "velocity": 0.3937007874015748
        },
        {
          "duration": 0.4137929999999983,
          "durationTicks": 384,
          "midi": 63,
          "name": "D#4",
          "ticks": 73344,
          "time": 79.034463,
          "velocity": 0.3937007874015748
        },
        {
          "duration": 0.4137929999999983,
          "durationTicks": 384,
          "midi": 57,
          "name": "A3",
          "ticks": 73728,
          "time": 79.448256,
          "velocity": 0.3937007874015748
        },
        {
          "duration": 0.4137929999999983,
          "durationTicks": 384,
          "midi": 63,
          "name": "D#4",
          "ticks": 74112,
          "time": 79.862049,
          "velocity": 0.3937007874015748
        },
        {
          "duration": 1.6551720000000074,
          "durationTicks": 1536,
          "midi": 49,
          "name": "C#3",
          "ticks": 74496,
          "time": 80.275842,
          "velocity": 0.3937007874015748
        },
        {
          "duration": 1.6551720000000074,
          "durationTicks": 1536,
          "midi": 49,
          "name": "C#3",
          "ticks": 74496,
          "time": 80.275842,
          "velocity": 0.3937007874015748
        },
        {
          "duration": 1.6551719999999932,
          "durationTicks": 1536,
          "midi": 48,
          "name": "C3",
          "ticks": 76032,
          "time": 81.931014,
          "velocity": 0.3937007874015748
        },
        {
          "duration": 1.6551719999999932,
          "durationTicks": 1536,
          "midi": 48,
          "name": "C3",
          "ticks": 76032,
          "time": 81.931014,
          "velocity": 0.3937007874015748
        },
        {
          "duration": 1.6551720000000074,
          "durationTicks": 1536,
          "midi": 53,
          "name": "F3",
          "ticks": 77568,
          "time": 83.586186,
          "velocity": 0.3937007874015748
        },
        {
          "duration": 1.6551720000000074,
          "durationTicks": 1536,
          "midi": 53,
          "name": "F3",
          "ticks": 77568,
          "time": 83.586186,
          "velocity": 0.3937007874015748
        },
        {
          "duration": 1.6551719999999932,
          "durationTicks": 1536,
          "midi": 51,
          "name": "D#3",
          "ticks": 79104,
          "time": 85.241358,
          "velocity": 0.3937007874015748
        },
        {
          "duration": 1.6551719999999932,
          "durationTicks": 1536,
          "midi": 51,
          "name": "D#3",
          "ticks": 79104,
          "time": 85.241358,
          "velocity": 0.3937007874015748
        },
        {
          "duration": 1.6551720000000074,
          "durationTicks": 1536,
          "midi": 49,
          "name": "C#3",
          "ticks": 80640,
          "time": 86.89653,
          "velocity": 0.3937007874015748
        },
        {
          "duration": 1.6551720000000074,
          "durationTicks": 1536,
          "midi": 49,
          "name": "C#3",
          "ticks": 80640,
          "time": 86.89653,
          "velocity": 0.3937007874015748
        },
        {
          "duration": 1.6551719999999932,
          "durationTicks": 1536,
          "midi": 48,
          "name": "C3",
          "ticks": 82176,
          "time": 88.551702,
          "velocity": 0.3937007874015748
        },
        {
          "duration": 1.6551719999999932,
          "durationTicks": 1536,
          "midi": 48,
          "name": "C3",
          "ticks": 82176,
          "time": 88.551702,
          "velocity": 0.3937007874015748
        },
        {
          "duration": 1.6551720000000074,
          "durationTicks": 1536,
          "midi": 53,
          "name": "F3",
          "ticks": 83712,
          "time": 90.206874,
          "velocity": 0.3937007874015748
        },
        {
          "duration": 1.6551720000000074,
          "durationTicks": 1536,
          "midi": 53,
          "name": "F3",
          "ticks": 83712,
          "time": 90.206874,
          "velocity": 0.3937007874015748
        },
        {
          "duration": 0.3103447499999987,
          "durationTicks": 288,
          "midi": 56,
          "name": "G#3",
          "ticks": 85248,
          "time": 91.862046,
          "velocity": 0.3937007874015748
        },
        {
          "duration": 0.3103447499999987,
          "durationTicks": 288,
          "midi": 56,
          "name": "G#3",
          "ticks": 85248,
          "time": 91.862046,
          "velocity": 0.3937007874015748
        },
        {
          "duration": 0.3103447499999987,
          "durationTicks": 288,
          "midi": 55,
          "name": "G3",
          "ticks": 85536,
          "time": 92.17239075,
          "velocity": 0.3937007874015748
        },
        {
          "duration": 0.3103447499999987,
          "durationTicks": 288,
          "midi": 55,
          "name": "G3",
          "ticks": 85536,
          "time": 92.17239075,
          "velocity": 0.3937007874015748
        },
        {
          "duration": 0.3103447499999987,
          "durationTicks": 288,
          "midi": 53,
          "name": "F3",
          "ticks": 85824,
          "time": 92.4827355,
          "velocity": 0.3937007874015748
        },
        {
          "duration": 0.3103447499999987,
          "durationTicks": 288,
          "midi": 53,
          "name": "F3",
          "ticks": 85824,
          "time": 92.4827355,
          "velocity": 0.3937007874015748
        },
        {
          "duration": 0.3103447499999987,
          "durationTicks": 288,
          "midi": 51,
          "name": "D#3",
          "ticks": 86112,
          "time": 92.79308025,
          "velocity": 0.3937007874015748
        },
        {
          "duration": 0.3103447499999987,
          "durationTicks": 288,
          "midi": 51,
          "name": "D#3",
          "ticks": 86112,
          "time": 92.79308025,
          "velocity": 0.3937007874015748
        },
        {
          "duration": 0.20689649999999915,
          "durationTicks": 192,
          "midi": 49,
          "name": "C#3",
          "ticks": 86400,
          "time": 93.103425,
          "velocity": 0.3937007874015748
        },
        {
          "duration": 0.20689649999999915,
          "durationTicks": 192,
          "midi": 49,
          "name": "C#3",
          "ticks": 86400,
          "time": 93.103425,
          "velocity": 0.3937007874015748
        },
        {
          "duration": 0.20689649999999915,
          "durationTicks": 192,
          "midi": 51,
          "name": "D#3",
          "ticks": 86592,
          "time": 93.3103215,
          "velocity": 0.3937007874015748
        },
        {
          "duration": 0.20689649999999915,
          "durationTicks": 192,
          "midi": 51,
          "name": "D#3",
          "ticks": 86592,
          "time": 93.3103215,
          "velocity": 0.3937007874015748
        },
        {
          "duration": 1.6551720000000074,
          "durationTicks": 1536,
          "midi": 49,
          "name": "C#3",
          "ticks": 86784,
          "time": 93.517218,
          "velocity": 0.3937007874015748
        },
        {
          "duration": 1.6551720000000074,
          "durationTicks": 1536,
          "midi": 49,
          "name": "C#3",
          "ticks": 86784,
          "time": 93.517218,
          "velocity": 0.3937007874015748
        },
        {
          "duration": 1.6551719999999932,
          "durationTicks": 1536,
          "midi": 48,
          "name": "C3",
          "ticks": 88320,
          "time": 95.17239000000001,
          "velocity": 0.3937007874015748
        },
        {
          "duration": 1.6551719999999932,
          "durationTicks": 1536,
          "midi": 48,
          "name": "C3",
          "ticks": 88320,
          "time": 95.17239000000001,
          "velocity": 0.3937007874015748
        },
        {
          "duration": 1.6551720000000074,
          "durationTicks": 1536,
          "midi": 53,
          "name": "F3",
          "ticks": 89856,
          "time": 96.827562,
          "velocity": 0.3937007874015748
        },
        {
          "duration": 1.6551720000000074,
          "durationTicks": 1536,
          "midi": 53,
          "name": "F3",
          "ticks": 89856,
          "time": 96.827562,
          "velocity": 0.3937007874015748
        },
        {
          "duration": 1.6551719999999932,
          "durationTicks": 1536,
          "midi": 51,
          "name": "D#3",
          "ticks": 91392,
          "time": 98.48273400000001,
          "velocity": 0.3937007874015748
        },
        {
          "duration": 1.6551719999999932,
          "durationTicks": 1536,
          "midi": 51,
          "name": "D#3",
          "ticks": 91392,
          "time": 98.48273400000001,
          "velocity": 0.3937007874015748
        },
        {
          "duration": 1.6551720000000074,
          "durationTicks": 1536,
          "midi": 49,
          "name": "C#3",
          "ticks": 92928,
          "time": 100.137906,
          "velocity": 0.3937007874015748
        },
        {
          "duration": 1.6551720000000074,
          "durationTicks": 1536,
          "midi": 49,
          "name": "C#3",
          "ticks": 92928,
          "time": 100.137906,
          "velocity": 0.3937007874015748
        },
        {
          "duration": 1.6551719999999932,
          "durationTicks": 1536,
          "midi": 48,
          "name": "C3",
          "ticks": 94464,
          "time": 101.79307800000001,
          "velocity": 0.3937007874015748
        },
        {
          "duration": 1.6551719999999932,
          "durationTicks": 1536,
          "midi": 48,
          "name": "C3",
          "ticks": 94464,
          "time": 101.79307800000001,
          "velocity": 0.3937007874015748
        },
        {
          "duration": 1.6551720000000074,
          "durationTicks": 1536,
          "midi": 53,
          "name": "F3",
          "ticks": 96000,
          "time": 103.44825,
          "velocity": 0.3937007874015748
        },
        {
          "duration": 1.6551720000000074,
          "durationTicks": 1536,
          "midi": 53,
          "name": "F3",
          "ticks": 96000,
          "time": 103.44825,
          "velocity": 0.3937007874015748
        },
        {
          "duration": 1.6551719999999932,
          "durationTicks": 1536,
          "midi": 51,
          "name": "D#3",
          "ticks": 97536,
          "time": 105.10342200000001,
          "velocity": 0.3937007874015748
        },
        {
          "duration": 1.6551719999999932,
          "durationTicks": 1536,
          "midi": 51,
          "name": "D#3",
          "ticks": 97536,
          "time": 105.10342200000001,
          "velocity": 0.3937007874015748
        }
      ],
      "endOfTrackTicks": 99072
    },
    {
      "channel": 5,
      "controlChanges": {},
      "pitchBends": [],
      "instrument": {
        "family": "strings",
        "number": 42,
        "name": "cello"
      },
      "name": "Cello",
      "notes": [
        {
          "duration": 1.655172,
          "durationTicks": 1536,
          "midi": 62,
          "name": "D4",
          "ticks": 0,
          "time": 0,
          "velocity": 0.3937007874015748
        },
        {
          "duration": 1.655172,
          "durationTicks": 1536,
          "midi": 61,
          "name": "C#4",
          "ticks": 1536,
          "time": 1.655172,
          "velocity": 0.3937007874015748
        },
        {
          "duration": 1.6551719999999999,
          "durationTicks": 1536,
          "midi": 66,
          "name": "F#4",
          "ticks": 3072,
          "time": 3.310344,
          "velocity": 0.3937007874015748
        },
        {
          "duration": 1.6551720000000003,
          "durationTicks": 1536,
          "midi": 64,
          "name": "E4",
          "ticks": 4608,
          "time": 4.965516,
          "velocity": 0.3937007874015748
        },
        {
          "duration": 1.6551719999999994,
          "durationTicks": 1536,
          "midi": 62,
          "name": "D4",
          "ticks": 6144,
          "time": 6.620688,
          "velocity": 0.3937007874015748
        },
        {
          "duration": 1.6551720000000003,
          "durationTicks": 1536,
          "midi": 61,
          "name": "C#4",
          "ticks": 7680,
          "time": 8.27586,
          "velocity": 0.3937007874015748
        },
        {
          "duration": 1.6551720000000003,
          "durationTicks": 1536,
          "midi": 66,
          "name": "F#4",
          "ticks": 9216,
          "time": 9.931032,
          "velocity": 0.3937007874015748
        },
        {
          "duration": 1.6551720000000003,
          "durationTicks": 1536,
          "midi": 64,
          "name": "E4",
          "ticks": 10752,
          "time": 11.586204,
          "velocity": 0.3937007874015748
        },
        {
          "duration": 1.6551720000000003,
          "durationTicks": 1536,
          "midi": 62,
          "name": "D4",
          "ticks": 12288,
          "time": 13.241376,
          "velocity": 0.3937007874015748
        },
        {
          "duration": 1.6551719999999985,
          "durationTicks": 1536,
          "midi": 61,
          "name": "C#4",
          "ticks": 13824,
          "time": 14.896548000000001,
          "velocity": 0.3937007874015748
        },
        {
          "duration": 1.6551720000000003,
          "durationTicks": 1536,
          "midi": 66,
          "name": "F#4",
          "ticks": 15360,
          "time": 16.55172,
          "velocity": 0.3937007874015748
        },
        {
          "duration": 1.6551720000000003,
          "durationTicks": 1536,
          "midi": 64,
          "name": "E4",
          "ticks": 16896,
          "time": 18.206892,
          "velocity": 0.3937007874015748
        },
        {
          "duration": 1.6551720000000003,
          "durationTicks": 1536,
          "midi": 62,
          "name": "D4",
          "ticks": 18432,
          "time": 19.862064,
          "velocity": 0.3937007874015748
        },
        {
          "duration": 1.6551720000000003,
          "durationTicks": 1536,
          "midi": 61,
          "name": "C#4",
          "ticks": 19968,
          "time": 21.517236,
          "velocity": 0.3937007874015748
        },
        {
          "duration": 1.6551720000000003,
          "durationTicks": 1536,
          "midi": 66,
          "name": "F#4",
          "ticks": 21504,
          "time": 23.172408,
          "velocity": 0.3937007874015748
        },
        {
          "duration": 1.6551720000000003,
          "durationTicks": 1536,
          "midi": 64,
          "name": "E4",
          "ticks": 23040,
          "time": 24.82758,
          "velocity": 0.3937007874015748
        },
        {
          "duration": 1.6551720000000003,
          "durationTicks": 1536,
          "midi": 62,
          "name": "D4",
          "ticks": 24576,
          "time": 26.482752,
          "velocity": 0.3937007874015748
        },
        {
          "duration": 1.6551720000000003,
          "durationTicks": 1536,
          "midi": 61,
          "name": "C#4",
          "ticks": 26112,
          "time": 28.137924,
          "velocity": 0.3937007874015748
        },
        {
          "duration": 1.6551720000000003,
          "durationTicks": 1536,
          "midi": 66,
          "name": "F#4",
          "ticks": 27648,
          "time": 29.793096000000002,
          "velocity": 0.3937007874015748
        },
        {
          "duration": 1.6551719999999968,
          "durationTicks": 1536,
          "midi": 64,
          "name": "E4",
          "ticks": 29184,
          "time": 31.448268000000002,
          "velocity": 0.3937007874015748
        },
        {
          "duration": 1.6551720000000003,
          "durationTicks": 1536,
          "midi": 62,
          "name": "D4",
          "ticks": 30720,
          "time": 33.10344,
          "velocity": 0.3937007874015748
        },
        {
          "duration": 1.6551720000000003,
          "durationTicks": 1536,
          "midi": 61,
          "name": "C#4",
          "ticks": 32256,
          "time": 34.758612,
          "velocity": 0.3937007874015748
        },
        {
          "duration": 1.6551720000000003,
          "durationTicks": 1536,
          "midi": 66,
          "name": "F#4",
          "ticks": 33792,
          "time": 36.413784,
          "velocity": 0.3937007874015748
        },
        {
          "duration": 1.6551720000000003,
          "durationTicks": 1536,
          "midi": 64,
          "name": "E4",
          "ticks": 35328,
          "time": 38.068956,
          "velocity": 0.3937007874015748
        },
        {
          "duration": 1.6551720000000003,
          "durationTicks": 1536,
          "midi": 62,
          "name": "D4",
          "ticks": 36864,
          "time": 39.724128,
          "velocity": 0.3937007874015748
        },
        {
          "duration": 1.6551720000000003,
          "durationTicks": 1536,
          "midi": 61,
          "name": "C#4",
          "ticks": 38400,
          "time": 41.3793,
          "velocity": 0.3937007874015748
        },
        {
          "duration": 1.6551720000000003,
          "durationTicks": 1536,
          "midi": 66,
          "name": "F#4",
          "ticks": 39936,
          "time": 43.034472,
          "velocity": 0.3937007874015748
        },
        {
          "duration": 1.6551720000000003,
          "durationTicks": 1536,
          "midi": 64,
          "name": "E4",
          "ticks": 41472,
          "time": 44.689644,
          "velocity": 0.3937007874015748
        },
        {
          "duration": 1.6551720000000003,
          "durationTicks": 1536,
          "midi": 62,
          "name": "D4",
          "ticks": 43008,
          "time": 46.344816,
          "velocity": 0.3937007874015748
        },
        {
          "duration": 1.6551720000000003,
          "durationTicks": 1536,
          "midi": 61,
          "name": "C#4",
          "ticks": 44544,
          "time": 47.999988,
          "velocity": 0.3937007874015748
        },
        {
          "duration": 1.6551720000000003,
          "durationTicks": 1536,
          "midi": 66,
          "name": "F#4",
          "ticks": 46080,
          "time": 49.65516,
          "velocity": 0.3937007874015748
        },
        {
          "duration": 1.6551720000000003,
          "durationTicks": 1536,
          "midi": 64,
          "name": "E4",
          "ticks": 47616,
          "time": 51.310332,
          "velocity": 0.3937007874015748
        },
        {
          "duration": 0.20689649999999915,
          "durationTicks": 192,
          "midi": 62,
          "name": "D4",
          "ticks": 49152,
          "time": 52.965504,
          "velocity": 0.3937007874015748
        },
        {
          "duration": 0.20689649999999915,
          "durationTicks": 192,
          "midi": 66,
          "name": "F#4",
          "ticks": 49344,
          "time": 53.1724005,
          "velocity": 0.3937007874015748
        },
        {
          "duration": 0.20689649999999915,
          "durationTicks": 192,
          "midi": 67,
          "name": "G4",
          "ticks": 49536,
          "time": 53.379297,
          "velocity": 0.3937007874015748
        },
        {
          "duration": 0.20689649999999915,
          "durationTicks": 192,
          "midi": 74,
          "name": "D5",
          "ticks": 49728,
          "time": 53.5861935,
          "velocity": 0.3937007874015748
        },
        {
          "duration": 0.20689649999999915,
          "durationTicks": 192,
          "midi": 86,
          "name": "D6",
          "ticks": 49728,
          "time": 53.5861935,
          "velocity": 0.3937007874015748
        },
        {
          "duration": 1.6551720000000003,
          "durationTicks": 1536,
          "midi": 63,
          "name": "D#4",
          "ticks": 49920,
          "time": 53.79309,
          "velocity": 0.3937007874015748
        },
        {
          "duration": 0.4137930000000054,
          "durationTicks": 384,
          "midi": 67,
          "name": "G4",
          "ticks": 49920,
          "time": 53.79309,
          "velocity": 0.3937007874015748
        },
        {
          "duration": 0.4137929999999983,
          "durationTicks": 384,
          "midi": 74,
          "name": "D5",
          "ticks": 50304,
          "time": 54.206883000000005,
          "velocity": 0.3937007874015748
        },
        {
          "duration": 0.4137929999999983,
          "durationTicks": 384,
          "midi": 67,
          "name": "G4",
          "ticks": 50688,
          "time": 54.620676,
          "velocity": 0.3937007874015748
        },
        {
          "duration": 0.4137929999999983,
          "durationTicks": 384,
          "midi": 74,
          "name": "D5",
          "ticks": 51072,
          "time": 55.034469,
          "velocity": 0.3937007874015748
        },
        {
          "duration": 1.6551720000000003,
          "durationTicks": 1536,
          "midi": 62,
          "name": "D4",
          "ticks": 51456,
          "time": 55.448262,
          "velocity": 0.3937007874015748
        },
        {
          "duration": 0.4137930000000054,
          "durationTicks": 384,
          "midi": 66,
          "name": "F#4",
          "ticks": 51456,
          "time": 55.448262,
          "velocity": 0.3937007874015748
        },
        {
          "duration": 0.4137929999999983,
          "durationTicks": 384,
          "midi": 72,
          "name": "C5",
          "ticks": 51840,
          "time": 55.862055000000005,
          "velocity": 0.3937007874015748
        },
        {
          "duration": 0.4137929999999983,
          "durationTicks": 384,
          "midi": 66,
          "name": "F#4",
          "ticks": 52224,
          "time": 56.275848,
          "velocity": 0.3937007874015748
        },
        {
          "duration": 0.4137929999999983,
          "durationTicks": 384,
          "midi": 72,
          "name": "C5",
          "ticks": 52608,
          "time": 56.689641,
          "velocity": 0.3937007874015748
        },
        {
          "duration": 1.6551720000000003,
          "durationTicks": 1536,
          "midi": 67,
          "name": "G4",
          "ticks": 52992,
          "time": 57.103434,
          "velocity": 0.3937007874015748
        },
        {
          "duration": 0.4137930000000054,
          "durationTicks": 384,
          "midi": 70,
          "name": "A#4",
          "ticks": 52992,
          "time": 57.103434,
          "velocity": 0.3937007874015748
        },
        {
          "duration": 0.4137929999999983,
          "durationTicks": 384,
          "midi": 77,
          "name": "F5",
          "ticks": 53376,
          "time": 57.517227000000005,
          "velocity": 0.3937007874015748
        },
        {
          "duration": 0.4137929999999983,
          "durationTicks": 384,
          "midi": 70,
          "name": "A#4",
          "ticks": 53760,
          "time": 57.931020000000004,
          "velocity": 0.3937007874015748
        },
        {
          "duration": 0.4137929999999983,
          "durationTicks": 384,
          "midi": 77,
          "name": "F5",
          "ticks": 54144,
          "time": 58.344813,
          "velocity": 0.3937007874015748
        },
        {
          "duration": 0.4137930000000054,
          "durationTicks": 384,
          "midi": 69,
          "name": "A4",
          "ticks": 54528,
          "time": 58.758606,
          "velocity": 0.3937007874015748
        },
        {
          "duration": 1.6551720000000003,
          "durationTicks": 1536,
          "midi": 65,
          "name": "F4",
          "ticks": 54528,
          "time": 58.758606,
          "velocity": 0.3937007874015748
        },
        {
          "duration": 0.4137929999999983,
          "durationTicks": 384,
          "midi": 74,
          "name": "D5",
          "ticks": 54912,
          "time": 59.172399000000006,
          "velocity": 0.3937007874015748
        },
        {
          "duration": 0.4137929999999983,
          "durationTicks": 384,
          "midi": 69,
          "name": "A4",
          "ticks": 55296,
          "time": 59.586192000000004,
          "velocity": 0.3937007874015748
        },
        {
          "duration": 0.4137929999999983,
          "durationTicks": 384,
          "midi": 74,
          "name": "D5",
          "ticks": 55680,
          "time": 59.999985,
          "velocity": 0.3937007874015748
        },
        {
          "duration": 1.6551720000000003,
          "durationTicks": 1536,
          "midi": 63,
          "name": "D#4",
          "ticks": 56064,
          "time": 60.413778,
          "velocity": 0.3937007874015748
        },
        {
          "duration": 0.4137930000000054,
          "durationTicks": 384,
          "midi": 67,
          "name": "G4",
          "ticks": 56064,
          "time": 60.413778,
          "velocity": 0.3937007874015748
        },
        {
          "duration": 0.4137929999999983,
          "durationTicks": 384,
          "midi": 74,
          "name": "D5",
          "ticks": 56448,
          "time": 60.827571000000006,
          "velocity": 0.3937007874015748
        },
        {
          "duration": 0.4137929999999983,
          "durationTicks": 384,
          "midi": 67,
          "name": "G4",
          "ticks": 56832,
          "time": 61.241364000000004,
          "velocity": 0.3937007874015748
        },
        {
          "duration": 0.4137929999999983,
          "durationTicks": 384,
          "midi": 74,
          "name": "D5",
          "ticks": 57216,
          "time": 61.655157,
          "velocity": 0.3937007874015748
        },
        {
          "duration": 0.4137930000000054,
          "durationTicks": 384,
          "midi": 66,
          "name": "F#4",
          "ticks": 57600,
          "time": 62.06895,
          "velocity": 0.3937007874015748
        },
        {
          "duration": 1.6551720000000003,
          "durationTicks": 1536,
          "midi": 62,
          "name": "D4",
          "ticks": 57600,
          "time": 62.06895,
          "velocity": 0.3937007874015748
        },
        {
          "duration": 0.4137929999999983,
          "durationTicks": 384,
          "midi": 72,
          "name": "C5",
          "ticks": 57984,
          "time": 62.482743000000006,
          "velocity": 0.3937007874015748
        },
        {
          "duration": 0.4137929999999983,
          "durationTicks": 384,
          "midi": 66,
          "name": "F#4",
          "ticks": 58368,
          "time": 62.896536000000005,
          "velocity": 0.3937007874015748
        },
        {
          "duration": 0.4137929999999983,
          "durationTicks": 384,
          "midi": 72,
          "name": "C5",
          "ticks": 58752,
          "time": 63.310329,
          "velocity": 0.3937007874015748
        },
        {
          "duration": 1.6551720000000003,
          "durationTicks": 1536,
          "midi": 67,
          "name": "G4",
          "ticks": 59136,
          "time": 63.724122,
          "velocity": 0.3937007874015748
        },
        {
          "duration": 0.4137930000000054,
          "durationTicks": 384,
          "midi": 70,
          "name": "A#4",
          "ticks": 59136,
          "time": 63.724122,
          "velocity": 0.3937007874015748
        },
        {
          "duration": 0.4137929999999983,
          "durationTicks": 384,
          "midi": 77,
          "name": "F5",
          "ticks": 59520,
          "time": 64.137915,
          "velocity": 0.3937007874015748
        },
        {
          "duration": 0.4137929999999983,
          "durationTicks": 384,
          "midi": 70,
          "name": "A#4",
          "ticks": 59904,
          "time": 64.551708,
          "velocity": 0.3937007874015748
        },
        {
          "duration": 0.4137929999999983,
          "durationTicks": 384,
          "midi": 77,
          "name": "F5",
          "ticks": 60288,
          "time": 64.965501,
          "velocity": 0.3937007874015748
        },
        {
          "duration": 0.3103447499999987,
          "durationTicks": 288,
          "midi": 70,
          "name": "A#4",
          "ticks": 60672,
          "time": 65.379294,
          "velocity": 0.3937007874015748
        },
        {
          "duration": 0.3103447499999987,
          "durationTicks": 288,
          "midi": 69,
          "name": "A4",
          "ticks": 60960,
          "time": 65.68963875,
          "velocity": 0.3937007874015748
        },
        {
          "duration": 0.3103447499999987,
          "durationTicks": 288,
          "midi": 67,
          "name": "G4",
          "ticks": 61248,
          "time": 65.9999835,
          "velocity": 0.3937007874015748
        },
        {
          "duration": 0.3103447499999987,
          "durationTicks": 288,
          "midi": 65,
          "name": "F4",
          "ticks": 61536,
          "time": 66.31032825,
          "velocity": 0.3937007874015748
        },
        {
          "duration": 0.20689650000001336,
          "durationTicks": 192,
          "midi": 63,
          "name": "D#4",
          "ticks": 61824,
          "time": 66.620673,
          "velocity": 0.3937007874015748
        },
        {
          "duration": 0.20689649999999915,
          "durationTicks": 192,
          "midi": 65,
          "name": "F4",
          "ticks": 62016,
          "time": 66.82756950000001,
          "velocity": 0.3937007874015748
        },
        {
          "duration": 0.4137929999999983,
          "durationTicks": 384,
          "midi": 67,
          "name": "G4",
          "ticks": 62208,
          "time": 67.03446600000001,
          "velocity": 0.3937007874015748
        },
        {
          "duration": 1.6551719999999932,
          "durationTicks": 1536,
          "midi": 63,
          "name": "D#4",
          "ticks": 62208,
          "time": 67.03446600000001,
          "velocity": 0.3937007874015748
        },
        {
          "duration": 0.4137929999999983,
          "durationTicks": 384,
          "midi": 74,
          "name": "D5",
          "ticks": 62592,
          "time": 67.44825900000001,
          "velocity": 0.3937007874015748
        },
        {
          "duration": 0.4137929999999983,
          "durationTicks": 384,
          "midi": 67,
          "name": "G4",
          "ticks": 62976,
          "time": 67.862052,
          "velocity": 0.3937007874015748
        },
        {
          "duration": 0.4137929999999983,
          "durationTicks": 384,
          "midi": 74,
          "name": "D5",
          "ticks": 63360,
          "time": 68.275845,
          "velocity": 0.3937007874015748
        },
        {
          "duration": 0.4137929999999983,
          "durationTicks": 384,
          "midi": 66,
          "name": "F#4",
          "ticks": 63744,
          "time": 68.689638,
          "velocity": 0.3937007874015748
        },
        {
          "duration": 1.6551720000000074,
          "durationTicks": 1536,
          "midi": 62,
          "name": "D4",
          "ticks": 63744,
          "time": 68.689638,
          "velocity": 0.3937007874015748
        },
        {
          "duration": 0.4137929999999983,
          "durationTicks": 384,
          "midi": 72,
          "name": "C5",
          "ticks": 64128,
          "time": 69.103431,
          "velocity": 0.3937007874015748
        },
        {
          "duration": 0.4137929999999983,
          "durationTicks": 384,
          "midi": 66,
          "name": "F#4",
          "ticks": 64512,
          "time": 69.517224,
          "velocity": 0.3937007874015748
        },
        {
          "duration": 0.4137930000000125,
          "durationTicks": 384,
          "midi": 72,
          "name": "C5",
          "ticks": 64896,
          "time": 69.931017,
          "velocity": 0.3937007874015748
        },
        {
          "duration": 1.6551719999999932,
          "durationTicks": 1536,
          "midi": 67,
          "name": "G4",
          "ticks": 65280,
          "time": 70.34481000000001,
          "velocity": 0.3937007874015748
        },
        {
          "duration": 0.4137929999999983,
          "durationTicks": 384,
          "midi": 70,
          "name": "A#4",
          "ticks": 65280,
          "time": 70.34481000000001,
          "velocity": 0.3937007874015748
        },
        {
          "duration": 0.4137929999999983,
          "durationTicks": 384,
          "midi": 77,
          "name": "F5",
          "ticks": 65664,
          "time": 70.75860300000001,
          "velocity": 0.3937007874015748
        },
        {
          "duration": 0.4137929999999983,
          "durationTicks": 384,
          "midi": 70,
          "name": "A#4",
          "ticks": 66048,
          "time": 71.172396,
          "velocity": 0.3937007874015748
        },
        {
          "duration": 0.4137929999999983,
          "durationTicks": 384,
          "midi": 77,
          "name": "F5",
          "ticks": 66432,
          "time": 71.586189,
          "velocity": 0.3937007874015748
        },
        {
          "duration": 0.4137929999999983,
          "durationTicks": 384,
          "midi": 69,
          "name": "A4",
          "ticks": 66816,
          "time": 71.999982,
          "velocity": 0.3937007874015748
        },
        {
          "duration": 1.6551720000000074,
          "durationTicks": 1536,
          "midi": 65,
          "name": "F4",
          "ticks": 66816,
          "time": 71.999982,
          "velocity": 0.3937007874015748
        },
        {
          "duration": 0.4137929999999983,
          "durationTicks": 384,
          "midi": 75,
          "name": "D#5",
          "ticks": 67200,
          "time": 72.413775,
          "velocity": 0.3937007874015748
        },
        {
          "duration": 0.4137929999999983,
          "durationTicks": 384,
          "midi": 69,
          "name": "A4",
          "ticks": 67584,
          "time": 72.827568,
          "velocity": 0.3937007874015748
        },
        {
          "duration": 0.4137930000000125,
          "durationTicks": 384,
          "midi": 75,
          "name": "D#5",
          "ticks": 67968,
          "time": 73.241361,
          "velocity": 0.3937007874015748
        },
        {
          "duration": 1.6551719999999932,
          "durationTicks": 1536,
          "midi": 63,
          "name": "D#4",
          "ticks": 68352,
          "time": 73.65515400000001,
          "velocity": 0.3937007874015748
        },
        {
          "duration": 0.4137929999999983,
          "durationTicks": 384,
          "midi": 67,
          "name": "G4",
          "ticks": 68352,
          "time": 73.65515400000001,
          "velocity": 0.3937007874015748
        },
        {
          "duration": 0.4137929999999983,
          "durationTicks": 384,
          "midi": 74,
          "name": "D5",
          "ticks": 68736,
          "time": 74.06894700000001,
          "velocity": 0.3937007874015748
        },
        {
          "duration": 0.4137929999999983,
          "durationTicks": 384,
          "midi": 67,
          "name": "G4",
          "ticks": 69120,
          "time": 74.48274,
          "velocity": 0.3937007874015748
        },
        {
          "duration": 0.4137929999999983,
          "durationTicks": 384,
          "midi": 74,
          "name": "D5",
          "ticks": 69504,
          "time": 74.896533,
          "velocity": 0.3937007874015748
        },
        {
          "duration": 1.6551720000000074,
          "durationTicks": 1536,
          "midi": 62,
          "name": "D4",
          "ticks": 69888,
          "time": 75.310326,
          "velocity": 0.3937007874015748
        },
        {
          "duration": 0.4137929999999983,
          "durationTicks": 384,
          "midi": 66,
          "name": "F#4",
          "ticks": 69888,
          "time": 75.310326,
          "velocity": 0.3937007874015748
        },
        {
          "duration": 0.4137929999999983,
          "durationTicks": 384,
          "midi": 72,
          "name": "C5",
          "ticks": 70272,
          "time": 75.724119,
          "velocity": 0.3937007874015748
        },
        {
          "duration": 0.4137929999999983,
          "durationTicks": 384,
          "midi": 66,
          "name": "F#4",
          "ticks": 70656,
          "time": 76.137912,
          "velocity": 0.3937007874015748
        },
        {
          "duration": 0.4137930000000125,
          "durationTicks": 384,
          "midi": 72,
          "name": "C5",
          "ticks": 71040,
          "time": 76.551705,
          "velocity": 0.3937007874015748
        },
        {
          "duration": 1.6551719999999932,
          "durationTicks": 1536,
          "midi": 67,
          "name": "G4",
          "ticks": 71424,
          "time": 76.96549800000001,
          "velocity": 0.3937007874015748
        },
        {
          "duration": 0.4137929999999983,
          "durationTicks": 384,
          "midi": 70,
          "name": "A#4",
          "ticks": 71424,
          "time": 76.96549800000001,
          "velocity": 0.3937007874015748
        },
        {
          "duration": 0.4137929999999983,
          "durationTicks": 384,
          "midi": 77,
          "name": "F5",
          "ticks": 71808,
          "time": 77.37929100000001,
          "velocity": 0.3937007874015748
        },
        {
          "duration": 0.4137929999999983,
          "durationTicks": 384,
          "midi": 70,
          "name": "A#4",
          "ticks": 72192,
          "time": 77.79308400000001,
          "velocity": 0.3937007874015748
        },
        {
          "duration": 0.4137929999999983,
          "durationTicks": 384,
          "midi": 77,
          "name": "F5",
          "ticks": 72576,
          "time": 78.206877,
          "velocity": 0.3937007874015748
        },
        {
          "duration": 1.6551719999999932,
          "durationTicks": 1536,
          "midi": 65,
          "name": "F4",
          "ticks": 72960,
          "time": 78.62067,
          "velocity": 0.3937007874015748
        },
        {
          "duration": 0.4137929999999983,
          "durationTicks": 384,
          "midi": 69,
          "name": "A4",
          "ticks": 72960,
          "time": 78.62067,
          "velocity": 0.3937007874015748
        },
        {
          "duration": 0.4137929999999983,
          "durationTicks": 384,
          "midi": 75,
          "name": "D#5",
          "ticks": 73344,
          "time": 79.034463,
          "velocity": 0.3937007874015748
        },
        {
          "duration": 0.4137929999999983,
          "durationTicks": 384,
          "midi": 69,
          "name": "A4",
          "ticks": 73728,
          "time": 79.448256,
          "velocity": 0.3937007874015748
        },
        {
          "duration": 0.4137929999999983,
          "durationTicks": 384,
          "midi": 75,
          "name": "D#5",
          "ticks": 74112,
          "time": 79.862049,
          "velocity": 0.3937007874015748
        },
        {
          "duration": 1.6551720000000074,
          "durationTicks": 1536,
          "midi": 61,
          "name": "C#4",
          "ticks": 74496,
          "time": 80.275842,
          "velocity": 0.3937007874015748
        },
        {
          "duration": 1.6551720000000074,
          "durationTicks": 1536,
          "midi": 61,
          "name": "C#4",
          "ticks": 74496,
          "time": 80.275842,
          "velocity": 0.3937007874015748
        },
        {
          "duration": 1.6551719999999932,
          "durationTicks": 1536,
          "midi": 60,
          "name": "C4",
          "ticks": 76032,
          "time": 81.931014,
          "velocity": 0.3937007874015748
        },
        {
          "duration": 1.6551719999999932,
          "durationTicks": 1536,
          "midi": 60,
          "name": "C4",
          "ticks": 76032,
          "time": 81.931014,
          "velocity": 0.3937007874015748
        },
        {
          "duration": 1.6551720000000074,
          "durationTicks": 1536,
          "midi": 65,
          "name": "F4",
          "ticks": 77568,
          "time": 83.586186,
          "velocity": 0.3937007874015748
        },
        {
          "duration": 1.6551720000000074,
          "durationTicks": 1536,
          "midi": 65,
          "name": "F4",
          "ticks": 77568,
          "time": 83.586186,
          "velocity": 0.3937007874015748
        },
        {
          "duration": 1.6551719999999932,
          "durationTicks": 1536,
          "midi": 63,
          "name": "D#4",
          "ticks": 79104,
          "time": 85.241358,
          "velocity": 0.3937007874015748
        },
        {
          "duration": 1.6551719999999932,
          "durationTicks": 1536,
          "midi": 63,
          "name": "D#4",
          "ticks": 79104,
          "time": 85.241358,
          "velocity": 0.3937007874015748
        },
        {
          "duration": 1.6551720000000074,
          "durationTicks": 1536,
          "midi": 61,
          "name": "C#4",
          "ticks": 80640,
          "time": 86.89653,
          "velocity": 0.3937007874015748
        },
        {
          "duration": 1.6551720000000074,
          "durationTicks": 1536,
          "midi": 61,
          "name": "C#4",
          "ticks": 80640,
          "time": 86.89653,
          "velocity": 0.3937007874015748
        },
        {
          "duration": 1.6551719999999932,
          "durationTicks": 1536,
          "midi": 60,
          "name": "C4",
          "ticks": 82176,
          "time": 88.551702,
          "velocity": 0.3937007874015748
        },
        {
          "duration": 1.6551719999999932,
          "durationTicks": 1536,
          "midi": 60,
          "name": "C4",
          "ticks": 82176,
          "time": 88.551702,
          "velocity": 0.3937007874015748
        },
        {
          "duration": 1.6551720000000074,
          "durationTicks": 1536,
          "midi": 65,
          "name": "F4",
          "ticks": 83712,
          "time": 90.206874,
          "velocity": 0.3937007874015748
        },
        {
          "duration": 1.6551720000000074,
          "durationTicks": 1536,
          "midi": 65,
          "name": "F4",
          "ticks": 83712,
          "time": 90.206874,
          "velocity": 0.3937007874015748
        },
        {
          "duration": 0.3103447499999987,
          "durationTicks": 288,
          "midi": 68,
          "name": "G#4",
          "ticks": 85248,
          "time": 91.862046,
          "velocity": 0.3937007874015748
        },
        {
          "duration": 0.3103447499999987,
          "durationTicks": 288,
          "midi": 68,
          "name": "G#4",
          "ticks": 85248,
          "time": 91.862046,
          "velocity": 0.3937007874015748
        },
        {
          "duration": 0.3103447499999987,
          "durationTicks": 288,
          "midi": 67,
          "name": "G4",
          "ticks": 85536,
          "time": 92.17239075,
          "velocity": 0.3937007874015748
        },
        {
          "duration": 0.3103447499999987,
          "durationTicks": 288,
          "midi": 67,
          "name": "G4",
          "ticks": 85536,
          "time": 92.17239075,
          "velocity": 0.3937007874015748
        },
        {
          "duration": 0.3103447499999987,
          "durationTicks": 288,
          "midi": 65,
          "name": "F4",
          "ticks": 85824,
          "time": 92.4827355,
          "velocity": 0.3937007874015748
        },
        {
          "duration": 0.3103447499999987,
          "durationTicks": 288,
          "midi": 65,
          "name": "F4",
          "ticks": 85824,
          "time": 92.4827355,
          "velocity": 0.3937007874015748
        },
        {
          "duration": 0.3103447499999987,
          "durationTicks": 288,
          "midi": 63,
          "name": "D#4",
          "ticks": 86112,
          "time": 92.79308025,
          "velocity": 0.3937007874015748
        },
        {
          "duration": 0.3103447499999987,
          "durationTicks": 288,
          "midi": 63,
          "name": "D#4",
          "ticks": 86112,
          "time": 92.79308025,
          "velocity": 0.3937007874015748
        },
        {
          "duration": 0.20689649999999915,
          "durationTicks": 192,
          "midi": 61,
          "name": "C#4",
          "ticks": 86400,
          "time": 93.103425,
          "velocity": 0.3937007874015748
        },
        {
          "duration": 0.20689649999999915,
          "durationTicks": 192,
          "midi": 61,
          "name": "C#4",
          "ticks": 86400,
          "time": 93.103425,
          "velocity": 0.3937007874015748
        },
        {
          "duration": 0.20689649999999915,
          "durationTicks": 192,
          "midi": 63,
          "name": "D#4",
          "ticks": 86592,
          "time": 93.3103215,
          "velocity": 0.3937007874015748
        },
        {
          "duration": 0.20689649999999915,
          "durationTicks": 192,
          "midi": 63,
          "name": "D#4",
          "ticks": 86592,
          "time": 93.3103215,
          "velocity": 0.3937007874015748
        },
        {
          "duration": 1.6551720000000074,
          "durationTicks": 1536,
          "midi": 61,
          "name": "C#4",
          "ticks": 86784,
          "time": 93.517218,
          "velocity": 0.3937007874015748
        },
        {
          "duration": 1.6551720000000074,
          "durationTicks": 1536,
          "midi": 61,
          "name": "C#4",
          "ticks": 86784,
          "time": 93.517218,
          "velocity": 0.3937007874015748
        },
        {
          "duration": 1.6551719999999932,
          "durationTicks": 1536,
          "midi": 60,
          "name": "C4",
          "ticks": 88320,
          "time": 95.17239000000001,
          "velocity": 0.3937007874015748
        },
        {
          "duration": 1.6551719999999932,
          "durationTicks": 1536,
          "midi": 60,
          "name": "C4",
          "ticks": 88320,
          "time": 95.17239000000001,
          "velocity": 0.3937007874015748
        },
        {
          "duration": 1.6551720000000074,
          "durationTicks": 1536,
          "midi": 65,
          "name": "F4",
          "ticks": 89856,
          "time": 96.827562,
          "velocity": 0.3937007874015748
        },
        {
          "duration": 1.6551720000000074,
          "durationTicks": 1536,
          "midi": 65,
          "name": "F4",
          "ticks": 89856,
          "time": 96.827562,
          "velocity": 0.3937007874015748
        },
        {
          "duration": 1.6551719999999932,
          "durationTicks": 1536,
          "midi": 63,
          "name": "D#4",
          "ticks": 91392,
          "time": 98.48273400000001,
          "velocity": 0.3937007874015748
        },
        {
          "duration": 1.6551719999999932,
          "durationTicks": 1536,
          "midi": 63,
          "name": "D#4",
          "ticks": 91392,
          "time": 98.48273400000001,
          "velocity": 0.3937007874015748
        },
        {
          "duration": 1.6551720000000074,
          "durationTicks": 1536,
          "midi": 61,
          "name": "C#4",
          "ticks": 92928,
          "time": 100.137906,
          "velocity": 0.3937007874015748
        },
        {
          "duration": 1.6551720000000074,
          "durationTicks": 1536,
          "midi": 61,
          "name": "C#4",
          "ticks": 92928,
          "time": 100.137906,
          "velocity": 0.3937007874015748
        },
        {
          "duration": 1.6551719999999932,
          "durationTicks": 1536,
          "midi": 60,
          "name": "C4",
          "ticks": 94464,
          "time": 101.79307800000001,
          "velocity": 0.3937007874015748
        },
        {
          "duration": 1.6551719999999932,
          "durationTicks": 1536,
          "midi": 60,
          "name": "C4",
          "ticks": 94464,
          "time": 101.79307800000001,
          "velocity": 0.3937007874015748
        },
        {
          "duration": 1.6551720000000074,
          "durationTicks": 1536,
          "midi": 65,
          "name": "F4",
          "ticks": 96000,
          "time": 103.44825,
          "velocity": 0.3937007874015748
        },
        {
          "duration": 1.6551720000000074,
          "durationTicks": 1536,
          "midi": 65,
          "name": "F4",
          "ticks": 96000,
          "time": 103.44825,
          "velocity": 0.3937007874015748
        },
        {
          "duration": 1.6551719999999932,
          "durationTicks": 1536,
          "midi": 63,
          "name": "D#4",
          "ticks": 97536,
          "time": 105.10342200000001,
          "velocity": 0.3937007874015748
        },
        {
          "duration": 1.6551719999999932,
          "durationTicks": 1536,
          "midi": 63,
          "name": "D#4",
          "ticks": 97536,
          "time": 105.10342200000001,
          "velocity": 0.3937007874015748
        },
        {
          "duration": 0.4137929999999983,
          "durationTicks": 384,
          "midi": 40,
          "name": "E2",
          "ticks": 124032,
          "time": 133.65513900000002,
          "velocity": 0.3937007874015748
        },
        {
          "duration": 0.4137929999999983,
          "durationTicks": 384,
          "midi": 40,
          "name": "E2",
          "ticks": 124800,
          "time": 134.48272500000002,
          "velocity": 0.3937007874015748
        },
        {
          "duration": 0.4137929999999983,
          "durationTicks": 384,
          "midi": 40,
          "name": "E2",
          "ticks": 125568,
          "time": 135.310311,
          "velocity": 0.3937007874015748
        },
        {
          "duration": 0.4137929999999983,
          "durationTicks": 384,
          "midi": 40,
          "name": "E2",
          "ticks": 126336,
          "time": 136.137897,
          "velocity": 0.3937007874015748
        },
        {
          "duration": 0.4137929999999983,
          "durationTicks": 384,
          "midi": 39,
          "name": "D#2",
          "ticks": 127104,
          "time": 136.965483,
          "velocity": 0.3937007874015748
        },
        {
          "duration": 0.4137929999999983,
          "durationTicks": 384,
          "midi": 39,
          "name": "D#2",
          "ticks": 127872,
          "time": 137.793069,
          "velocity": 0.3937007874015748
        },
        {
          "duration": 0.4137929999999983,
          "durationTicks": 384,
          "midi": 39,
          "name": "D#2",
          "ticks": 128640,
          "time": 138.620655,
          "velocity": 0.3937007874015748
        },
        {
          "duration": 0.4137929999999983,
          "durationTicks": 384,
          "midi": 39,
          "name": "D#2",
          "ticks": 129408,
          "time": 139.448241,
          "velocity": 0.3937007874015748
        },
        {
          "duration": 0.4137929999999983,
          "durationTicks": 384,
          "midi": 43,
          "name": "G2",
          "ticks": 130176,
          "time": 140.27582700000002,
          "velocity": 0.3937007874015748
        },
        {
          "duration": 0.4137929999999983,
          "durationTicks": 384,
          "midi": 43,
          "name": "G2",
          "ticks": 130944,
          "time": 141.10341300000002,
          "velocity": 0.3937007874015748
        },
        {
          "duration": 0.4137929999999983,
          "durationTicks": 384,
          "midi": 43,
          "name": "G2",
          "ticks": 131712,
          "time": 141.930999,
          "velocity": 0.3937007874015748
        },
        {
          "duration": 0.4137929999999983,
          "durationTicks": 384,
          "midi": 43,
          "name": "G2",
          "ticks": 132480,
          "time": 142.758585,
          "velocity": 0.3937007874015748
        },
        {
          "duration": 0.4137929999999983,
          "durationTicks": 384,
          "midi": 42,
          "name": "F#2",
          "ticks": 133248,
          "time": 143.586171,
          "velocity": 0.3937007874015748
        },
        {
          "duration": 0.4137929999999983,
          "durationTicks": 384,
          "midi": 42,
          "name": "F#2",
          "ticks": 134016,
          "time": 144.413757,
          "velocity": 0.3937007874015748
        },
        {
          "duration": 0.4137929999999983,
          "durationTicks": 384,
          "midi": 42,
          "name": "F#2",
          "ticks": 134784,
          "time": 145.241343,
          "velocity": 0.3937007874015748
        },
        {
          "duration": 0.4137929999999983,
          "durationTicks": 384,
          "midi": 42,
          "name": "F#2",
          "ticks": 135552,
          "time": 146.068929,
          "velocity": 0.3937007874015748
        }
      ],
      "endOfTrackTicks": 135936
    },
    {
      "channel": 6,
      "controlChanges": {},
      "pitchBends": [],
      "instrument": {
        "family": "piano",
        "number": 6,
        "name": "harpsichord"
      },
      "name": "Harpsichord",
      "notes": [
        {
          "duration": 0.20689650000001336,
          "durationTicks": 192,
          "midi": 61,
          "name": "C#4",
          "ticks": 74496,
          "time": 80.275842,
          "velocity": 0.3937007874015748
        },
        {
          "duration": 0.20689649999999915,
          "durationTicks": 192,
          "midi": 61,
          "name": "C#4",
          "ticks": 75072,
          "time": 80.89653150000001,
          "velocity": 0.3937007874015748
        },
        {
          "duration": 0.20689649999999915,
          "durationTicks": 192,
          "midi": 61,
          "name": "C#4",
          "ticks": 75648,
          "time": 81.517221,
          "velocity": 0.3937007874015748
        },
        {
          "duration": 0.20689649999999915,
          "durationTicks": 192,
          "midi": 60,
          "name": "C4",
          "ticks": 76032,
          "time": 81.931014,
          "velocity": 0.3937007874015748
        },
        {
          "duration": 0.20689649999999915,
          "durationTicks": 192,
          "midi": 60,
          "name": "C4",
          "ticks": 76608,
          "time": 82.5517035,
          "velocity": 0.3937007874015748
        },
        {
          "duration": 0.20689649999999915,
          "durationTicks": 192,
          "midi": 73,
          "name": "C#5",
          "ticks": 77184,
          "time": 83.172393,
          "velocity": 0.3937007874015748
        },
        {
          "duration": 0.20689649999999915,
          "durationTicks": 192,
          "midi": 72,
          "name": "C5",
          "ticks": 77376,
          "time": 83.3792895,
          "velocity": 0.3937007874015748
        },
        {
          "duration": 0.20689650000001336,
          "durationTicks": 192,
          "midi": 65,
          "name": "F4",
          "ticks": 77568,
          "time": 83.586186,
          "velocity": 0.3937007874015748
        },
        {
          "duration": 0.20689649999999915,
          "durationTicks": 192,
          "midi": 65,
          "name": "F4",
          "ticks": 78144,
          "time": 84.20687550000001,
          "velocity": 0.3937007874015748
        },
        {
          "duration": 0.20689649999999915,
          "durationTicks": 192,
          "midi": 73,
          "name": "C#5",
          "ticks": 78720,
          "time": 84.827565,
          "velocity": 0.3937007874015748
        },
        {
          "duration": 0.20689649999999915,
          "durationTicks": 192,
          "midi": 72,
          "name": "C5",
          "ticks": 78912,
          "time": 85.0344615,
          "velocity": 0.3937007874015748
        },
        {
          "duration": 0.20689649999999915,
          "durationTicks": 192,
          "midi": 63,
          "name": "D#4",
          "ticks": 79104,
          "time": 85.241358,
          "velocity": 0.3937007874015748
        },
        {
          "duration": 0.20689649999999915,
          "durationTicks": 192,
          "midi": 63,
          "name": "D#4",
          "ticks": 79680,
          "time": 85.8620475,
          "velocity": 0.3937007874015748
        },
        {
          "duration": 0.20689649999999915,
          "durationTicks": 192,
          "midi": 70,
          "name": "A#4",
          "ticks": 80256,
          "time": 86.482737,
          "velocity": 0.3937007874015748
        },
        {
          "duration": 0.20689649999999915,
          "durationTicks": 192,
          "midi": 72,
          "name": "C5",
          "ticks": 80448,
          "time": 86.6896335,
          "velocity": 0.3937007874015748
        },
        {
          "duration": 0.20689649999999915,
          "durationTicks": 192,
          "midi": 61,
          "name": "C#4",
          "ticks": 80640,
          "time": 86.89653,
          "velocity": 0.3937007874015748
        },
        {
          "duration": 0.20689649999999915,
          "durationTicks": 192,
          "midi": 61,
          "name": "C#4",
          "ticks": 81216,
          "time": 87.51721950000001,
          "velocity": 0.3937007874015748
        },
        {
          "duration": 0.20689649999999915,
          "durationTicks": 192,
          "midi": 61,
          "name": "C#4",
          "ticks": 81792,
          "time": 88.13790900000001,
          "velocity": 0.3937007874015748
        },
        {
          "duration": 0.20689649999999915,
          "durationTicks": 192,
          "midi": 60,
          "name": "C4",
          "ticks": 82176,
          "time": 88.551702,
          "velocity": 0.3937007874015748
        },
        {
          "duration": 0.20689649999999915,
          "durationTicks": 192,
          "midi": 60,
          "name": "C4",
          "ticks": 82752,
          "time": 89.1723915,
          "velocity": 0.3937007874015748
        },
        {
          "duration": 0.20689649999999915,
          "durationTicks": 192,
          "midi": 73,
          "name": "C#5",
          "ticks": 83328,
          "time": 89.793081,
          "velocity": 0.3937007874015748
        },
        {
          "duration": 0.20689649999999915,
          "durationTicks": 192,
          "midi": 72,
          "name": "C5",
          "ticks": 83520,
          "time": 89.9999775,
          "velocity": 0.3937007874015748
        },
        {
          "duration": 0.20689649999999915,
          "durationTicks": 192,
          "midi": 65,
          "name": "F4",
          "ticks": 83712,
          "time": 90.206874,
          "velocity": 0.3937007874015748
        },
        {
          "duration": 0.20689649999999915,
          "durationTicks": 192,
          "midi": 65,
          "name": "F4",
          "ticks": 84288,
          "time": 90.82756350000001,
          "velocity": 0.3937007874015748
        },
        {
          "duration": 0.20689649999999915,
          "durationTicks": 192,
          "midi": 73,
          "name": "C#5",
          "ticks": 84864,
          "time": 91.44825300000001,
          "velocity": 0.3937007874015748
        },
        {
          "duration": 0.20689649999999915,
          "durationTicks": 192,
          "midi": 72,
          "name": "C5",
          "ticks": 85056,
          "time": 91.65514950000001,
          "velocity": 0.3937007874015748
        },
        {
          "duration": 0.20689649999999915,
          "durationTicks": 192,
          "midi": 63,
          "name": "D#4",
          "ticks": 85248,
          "time": 91.862046,
          "velocity": 0.3937007874015748
        },
        {
          "duration": 0.20689649999999915,
          "durationTicks": 192,
          "midi": 63,
          "name": "D#4",
          "ticks": 85824,
          "time": 92.4827355,
          "velocity": 0.3937007874015748
        },
        {
          "duration": 0.20689649999999915,
          "durationTicks": 192,
          "midi": 70,
          "name": "A#4",
          "ticks": 86400,
          "time": 93.103425,
          "velocity": 0.3937007874015748
        },
        {
          "duration": 0.20689649999999915,
          "durationTicks": 192,
          "midi": 72,
          "name": "C5",
          "ticks": 86592,
          "time": 93.3103215,
          "velocity": 0.3937007874015748
        },
        {
          "duration": 0.20689649999999915,
          "durationTicks": 192,
          "midi": 61,
          "name": "C#4",
          "ticks": 86784,
          "time": 93.517218,
          "velocity": 0.3937007874015748
        },
        {
          "duration": 0.20689649999999915,
          "durationTicks": 192,
          "midi": 61,
          "name": "C#4",
          "ticks": 87360,
          "time": 94.13790750000001,
          "velocity": 0.3937007874015748
        },
        {
          "duration": 0.20689649999999915,
          "durationTicks": 192,
          "midi": 61,
          "name": "C#4",
          "ticks": 87936,
          "time": 94.75859700000001,
          "velocity": 0.3937007874015748
        },
        {
          "duration": 0.20689649999999915,
          "durationTicks": 192,
          "midi": 60,
          "name": "C4",
          "ticks": 88320,
          "time": 95.17239000000001,
          "velocity": 0.3937007874015748
        },
        {
          "duration": 0.20689649999999915,
          "durationTicks": 192,
          "midi": 60,
          "name": "C4",
          "ticks": 88896,
          "time": 95.7930795,
          "velocity": 0.3937007874015748
        },
        {
          "duration": 0.20689649999999915,
          "durationTicks": 192,
          "midi": 73,
          "name": "C#5",
          "ticks": 89472,
          "time": 96.413769,
          "velocity": 0.3937007874015748
        },
        {
          "duration": 0.20689649999999915,
          "durationTicks": 192,
          "midi": 72,
          "name": "C5",
          "ticks": 89664,
          "time": 96.6206655,
          "velocity": 0.3937007874015748
        },
        {
          "duration": 0.20689649999999915,
          "durationTicks": 192,
          "midi": 65,
          "name": "F4",
          "ticks": 89856,
          "time": 96.827562,
          "velocity": 0.3937007874015748
        },
        {
          "duration": 0.20689649999999915,
          "durationTicks": 192,
          "midi": 65,
          "name": "F4",
          "ticks": 90432,
          "time": 97.44825150000001,
          "velocity": 0.3937007874015748
        },
        {
          "duration": 0.20689649999999915,
          "durationTicks": 192,
          "midi": 73,
          "name": "C#5",
          "ticks": 91008,
          "time": 98.06894100000001,
          "velocity": 0.3937007874015748
        },
        {
          "duration": 0.20689649999999915,
          "durationTicks": 192,
          "midi": 72,
          "name": "C5",
          "ticks": 91200,
          "time": 98.27583750000001,
          "velocity": 0.3937007874015748
        },
        {
          "duration": 0.20689649999999915,
          "durationTicks": 192,
          "midi": 63,
          "name": "D#4",
          "ticks": 91392,
          "time": 98.48273400000001,
          "velocity": 0.3937007874015748
        },
        {
          "duration": 0.20689649999999915,
          "durationTicks": 192,
          "midi": 63,
          "name": "D#4",
          "ticks": 91968,
          "time": 99.1034235,
          "velocity": 0.3937007874015748
        },
        {
          "duration": 0.20689649999999915,
          "durationTicks": 192,
          "midi": 70,
          "name": "A#4",
          "ticks": 92544,
          "time": 99.724113,
          "velocity": 0.3937007874015748
        },
        {
          "duration": 0.20689649999999915,
          "durationTicks": 192,
          "midi": 72,
          "name": "C5",
          "ticks": 92736,
          "time": 99.9310095,
          "velocity": 0.3937007874015748
        },
        {
          "duration": 0.20689649999999915,
          "durationTicks": 192,
          "midi": 61,
          "name": "C#4",
          "ticks": 92928,
          "time": 100.137906,
          "velocity": 0.3937007874015748
        },
        {
          "duration": 0.20689649999999915,
          "durationTicks": 192,
          "midi": 61,
          "name": "C#4",
          "ticks": 92928,
          "time": 100.137906,
          "velocity": 0.3937007874015748
        },
        {
          "duration": 0.20689650000001336,
          "durationTicks": 192,
          "midi": 61,
          "name": "C#4",
          "ticks": 93504,
          "time": 100.7585955,
          "velocity": 0.3937007874015748
        },
        {
          "duration": 0.20689650000001336,
          "durationTicks": 192,
          "midi": 61,
          "name": "C#4",
          "ticks": 93504,
          "time": 100.7585955,
          "velocity": 0.3937007874015748
        },
        {
          "duration": 0.20689649999999915,
          "durationTicks": 192,
          "midi": 61,
          "name": "C#4",
          "ticks": 94080,
          "time": 101.37928500000001,
          "velocity": 0.3937007874015748
        },
        {
          "duration": 0.20689649999999915,
          "durationTicks": 192,
          "midi": 61,
          "name": "C#4",
          "ticks": 94080,
          "time": 101.37928500000001,
          "velocity": 0.3937007874015748
        },
        {
          "duration": 0.20689649999999915,
          "durationTicks": 192,
          "midi": 60,
          "name": "C4",
          "ticks": 94464,
          "time": 101.79307800000001,
          "velocity": 0.3937007874015748
        },
        {
          "duration": 0.20689649999999915,
          "durationTicks": 192,
          "midi": 60,
          "name": "C4",
          "ticks": 94464,
          "time": 101.79307800000001,
          "velocity": 0.3937007874015748
        },
        {
          "duration": 0.20689649999999915,
          "durationTicks": 192,
          "midi": 60,
          "name": "C4",
          "ticks": 95040,
          "time": 102.4137675,
          "velocity": 0.3937007874015748
        },
        {
          "duration": 0.20689649999999915,
          "durationTicks": 192,
          "midi": 60,
          "name": "C4",
          "ticks": 95040,
          "time": 102.4137675,
          "velocity": 0.3937007874015748
        },
        {
          "duration": 0.20689649999999915,
          "durationTicks": 192,
          "midi": 73,
          "name": "C#5",
          "ticks": 95616,
          "time": 103.034457,
          "velocity": 0.3937007874015748
        },
        {
          "duration": 0.20689649999999915,
          "durationTicks": 192,
          "midi": 73,
          "name": "C#5",
          "ticks": 95616,
          "time": 103.034457,
          "velocity": 0.3937007874015748
        },
        {
          "duration": 0.20689649999999915,
          "durationTicks": 192,
          "midi": 72,
          "name": "C5",
          "ticks": 95808,
          "time": 103.2413535,
          "velocity": 0.3937007874015748
        },
        {
          "duration": 0.20689649999999915,
          "durationTicks": 192,
          "midi": 72,
          "name": "C5",
          "ticks": 95808,
          "time": 103.2413535,
          "velocity": 0.3937007874015748
        },
        {
          "duration": 0.20689649999999915,
          "durationTicks": 192,
          "midi": 65,
          "name": "F4",
          "ticks": 96000,
          "time": 103.44825,
          "velocity": 0.3937007874015748
        },
        {
          "duration": 0.20689649999999915,
          "durationTicks": 192,
          "midi": 65,
          "name": "F4",
          "ticks": 96000,
          "time": 103.44825,
          "velocity": 0.3937007874015748
        },
        {
          "duration": 0.20689650000001336,
          "durationTicks": 192,
          "midi": 65,
          "name": "F4",
          "ticks": 96576,
          "time": 104.0689395,
          "velocity": 0.3937007874015748
        },
        {
          "duration": 0.20689650000001336,
          "durationTicks": 192,
          "midi": 65,
          "name": "F4",
          "ticks": 96576,
          "time": 104.0689395,
          "velocity": 0.3937007874015748
        },
        {
          "duration": 0.20689649999999915,
          "durationTicks": 192,
          "midi": 73,
          "name": "C#5",
          "ticks": 97152,
          "time": 104.68962900000001,
          "velocity": 0.3937007874015748
        },
        {
          "duration": 0.20689649999999915,
          "durationTicks": 192,
          "midi": 73,
          "name": "C#5",
          "ticks": 97152,
          "time": 104.68962900000001,
          "velocity": 0.3937007874015748
        },
        {
          "duration": 0.20689649999999915,
          "durationTicks": 192,
          "midi": 72,
          "name": "C5",
          "ticks": 97344,
          "time": 104.89652550000001,
          "velocity": 0.3937007874015748
        },
        {
          "duration": 0.20689649999999915,
          "durationTicks": 192,
          "midi": 72,
          "name": "C5",
          "ticks": 97344,
          "time": 104.89652550000001,
          "velocity": 0.3937007874015748
        },
        {
          "duration": 0.20689649999999915,
          "durationTicks": 192,
          "midi": 63,
          "name": "D#4",
          "ticks": 97536,
          "time": 105.10342200000001,
          "velocity": 0.3937007874015748
        },
        {
          "duration": 0.20689649999999915,
          "durationTicks": 192,
          "midi": 63,
          "name": "D#4",
          "ticks": 97536,
          "time": 105.10342200000001,
          "velocity": 0.3937007874015748
        },
        {
          "duration": 0.20689649999999915,
          "durationTicks": 192,
          "midi": 63,
          "name": "D#4",
          "ticks": 98112,
          "time": 105.7241115,
          "velocity": 0.3937007874015748
        },
        {
          "duration": 0.20689649999999915,
          "durationTicks": 192,
          "midi": 63,
          "name": "D#4",
          "ticks": 98112,
          "time": 105.7241115,
          "velocity": 0.3937007874015748
        },
        {
          "duration": 0.20689649999999915,
          "durationTicks": 192,
          "midi": 70,
          "name": "A#4",
          "ticks": 98688,
          "time": 106.344801,
          "velocity": 0.3937007874015748
        },
        {
          "duration": 0.20689649999999915,
          "durationTicks": 192,
          "midi": 70,
          "name": "A#4",
          "ticks": 98688,
          "time": 106.344801,
          "velocity": 0.3937007874015748
        },
        {
          "duration": 0.20689649999999915,
          "durationTicks": 192,
          "midi": 72,
          "name": "C5",
          "ticks": 98880,
          "time": 106.5516975,
          "velocity": 0.3937007874015748
        },
        {
          "duration": 0.20689649999999915,
          "durationTicks": 192,
          "midi": 72,
          "name": "C5",
          "ticks": 98880,
          "time": 106.5516975,
          "velocity": 0.3937007874015748
        },
        {
          "duration": 0.20689650000002757,
          "durationTicks": 192,
          "midi": 72,
          "name": "C5",
          "ticks": 123648,
          "time": 133.241346,
          "velocity": 0.3937007874015748
        },
        {
          "duration": 0.20689649999999915,
          "durationTicks": 192,
          "midi": 76,
          "name": "E5",
          "ticks": 123840,
          "time": 133.44824250000002,
          "velocity": 0.3937007874015748
        },
        {
          "duration": 0.20689649999999915,
          "durationTicks": 192,
          "midi": 83,
          "name": "B5",
          "ticks": 124032,
          "time": 133.65513900000002,
          "velocity": 0.3937007874015748
        },
        {
          "duration": 0.20689649999999915,
          "durationTicks": 192,
          "midi": 76,
          "name": "E5",
          "ticks": 124224,
          "time": 133.86203550000002,
          "velocity": 0.3937007874015748
        },
        {
          "duration": 0.20689649999999915,
          "durationTicks": 192,
          "midi": 72,
          "name": "C5",
          "ticks": 124416,
          "time": 134.06893200000002,
          "velocity": 0.3937007874015748
        },
        {
          "duration": 0.20689649999999915,
          "durationTicks": 192,
          "midi": 76,
          "name": "E5",
          "ticks": 124608,
          "time": 134.27582850000002,
          "velocity": 0.3937007874015748
        },
        {
          "duration": 0.20689649999999915,
          "durationTicks": 192,
          "midi": 83,
          "name": "B5",
          "ticks": 124800,
          "time": 134.48272500000002,
          "velocity": 0.3937007874015748
        },
        {
          "duration": 0.20689649999999915,
          "durationTicks": 192,
          "midi": 76,
          "name": "E5",
          "ticks": 124992,
          "time": 134.68962150000002,
          "velocity": 0.3937007874015748
        },
        {
          "duration": 0.20689649999999915,
          "durationTicks": 192,
          "midi": 72,
          "name": "C5",
          "ticks": 125184,
          "time": 134.89651800000001,
          "velocity": 0.3937007874015748
        },
        {
          "duration": 0.20689649999999915,
          "durationTicks": 192,
          "midi": 76,
          "name": "E5",
          "ticks": 125376,
          "time": 135.1034145,
          "velocity": 0.3937007874015748
        },
        {
          "duration": 0.20689649999999915,
          "durationTicks": 192,
          "midi": 83,
          "name": "B5",
          "ticks": 125568,
          "time": 135.310311,
          "velocity": 0.3937007874015748
        },
        {
          "duration": 0.20689649999999915,
          "durationTicks": 192,
          "midi": 76,
          "name": "E5",
          "ticks": 125760,
          "time": 135.5172075,
          "velocity": 0.3937007874015748
        },
        {
          "duration": 0.20689649999999915,
          "durationTicks": 192,
          "midi": 72,
          "name": "C5",
          "ticks": 125952,
          "time": 135.724104,
          "velocity": 0.3937007874015748
        },
        {
          "duration": 0.20689649999999915,
          "durationTicks": 192,
          "midi": 76,
          "name": "E5",
          "ticks": 126144,
          "time": 135.9310005,
          "velocity": 0.3937007874015748
        },
        {
          "duration": 0.20689649999999915,
          "durationTicks": 192,
          "midi": 83,
          "name": "B5",
          "ticks": 126336,
          "time": 136.137897,
          "velocity": 0.3937007874015748
        },
        {
          "duration": 0.20689649999999915,
          "durationTicks": 192,
          "midi": 76,
          "name": "E5",
          "ticks": 126528,
          "time": 136.3447935,
          "velocity": 0.3937007874015748
        },
        {
          "duration": 0.20689649999999915,
          "durationTicks": 192,
          "midi": 71,
          "name": "B4",
          "ticks": 126720,
          "time": 136.55169,
          "velocity": 0.3937007874015748
        },
        {
          "duration": 0.20689649999999915,
          "durationTicks": 192,
          "midi": 75,
          "name": "D#5",
          "ticks": 126912,
          "time": 136.7585865,
          "velocity": 0.3937007874015748
        },
        {
          "duration": 0.20689649999999915,
          "durationTicks": 192,
          "midi": 81,
          "name": "A5",
          "ticks": 127104,
          "time": 136.965483,
          "velocity": 0.3937007874015748
        },
        {
          "duration": 0.20689649999999915,
          "durationTicks": 192,
          "midi": 75,
          "name": "D#5",
          "ticks": 127296,
          "time": 137.1723795,
          "velocity": 0.3937007874015748
        },
        {
          "duration": 0.20689649999999915,
          "durationTicks": 192,
          "midi": 71,
          "name": "B4",
          "ticks": 127488,
          "time": 137.379276,
          "velocity": 0.3937007874015748
        },
        {
          "duration": 0.20689649999999915,
          "durationTicks": 192,
          "midi": 75,
          "name": "D#5",
          "ticks": 127680,
          "time": 137.5861725,
          "velocity": 0.3937007874015748
        },
        {
          "duration": 0.20689649999999915,
          "durationTicks": 192,
          "midi": 81,
          "name": "A5",
          "ticks": 127872,
          "time": 137.793069,
          "velocity": 0.3937007874015748
        },
        {
          "duration": 0.20689649999999915,
          "durationTicks": 192,
          "midi": 75,
          "name": "D#5",
          "ticks": 128064,
          "time": 137.9999655,
          "velocity": 0.3937007874015748
        },
        {
          "duration": 0.20689649999999915,
          "durationTicks": 192,
          "midi": 71,
          "name": "B4",
          "ticks": 128256,
          "time": 138.206862,
          "velocity": 0.3937007874015748
        },
        {
          "duration": 0.20689649999999915,
          "durationTicks": 192,
          "midi": 75,
          "name": "D#5",
          "ticks": 128448,
          "time": 138.4137585,
          "velocity": 0.3937007874015748
        },
        {
          "duration": 0.20689649999999915,
          "durationTicks": 192,
          "midi": 81,
          "name": "A5",
          "ticks": 128640,
          "time": 138.620655,
          "velocity": 0.3937007874015748
        },
        {
          "duration": 0.20689649999999915,
          "durationTicks": 192,
          "midi": 75,
          "name": "D#5",
          "ticks": 128832,
          "time": 138.8275515,
          "velocity": 0.3937007874015748
        },
        {
          "duration": 0.20689649999999915,
          "durationTicks": 192,
          "midi": 84,
          "name": "C6",
          "ticks": 129024,
          "time": 139.034448,
          "velocity": 0.3937007874015748
        },
        {
          "duration": 0.20689649999999915,
          "durationTicks": 192,
          "midi": 84,
          "name": "C6",
          "ticks": 129216,
          "time": 139.2413445,
          "velocity": 0.3937007874015748
        },
        {
          "duration": 0.20689649999999915,
          "durationTicks": 192,
          "midi": 83,
          "name": "B5",
          "ticks": 129408,
          "time": 139.448241,
          "velocity": 0.3937007874015748
        },
        {
          "duration": 0.20689649999999915,
          "durationTicks": 192,
          "midi": 83,
          "name": "B5",
          "ticks": 129600,
          "time": 139.6551375,
          "velocity": 0.3937007874015748
        },
        {
          "duration": 0.20689649999999915,
          "durationTicks": 192,
          "midi": 76,
          "name": "E5",
          "ticks": 129792,
          "time": 139.862034,
          "velocity": 0.3937007874015748
        },
        {
          "duration": 0.20689650000002757,
          "durationTicks": 192,
          "midi": 79,
          "name": "G5",
          "ticks": 129984,
          "time": 140.0689305,
          "velocity": 0.3937007874015748
        },
        {
          "duration": 0.20689649999999915,
          "durationTicks": 192,
          "midi": 86,
          "name": "D6",
          "ticks": 130176,
          "time": 140.27582700000002,
          "velocity": 0.3937007874015748
        },
        {
          "duration": 0.20689649999999915,
          "durationTicks": 192,
          "midi": 79,
          "name": "G5",
          "ticks": 130368,
          "time": 140.48272350000002,
          "velocity": 0.3937007874015748
        },
        {
          "duration": 0.20689649999999915,
          "durationTicks": 192,
          "midi": 76,
          "name": "E5",
          "ticks": 130560,
          "time": 140.68962000000002,
          "velocity": 0.3937007874015748
        },
        {
          "duration": 0.20689649999999915,
          "durationTicks": 192,
          "midi": 79,
          "name": "G5",
          "ticks": 130752,
          "time": 140.89651650000002,
          "velocity": 0.3937007874015748
        },
        {
          "duration": 0.20689649999999915,
          "durationTicks": 192,
          "midi": 86,
          "name": "D6",
          "ticks": 130944,
          "time": 141.10341300000002,
          "velocity": 0.3937007874015748
        },
        {
          "duration": 0.20689649999999915,
          "durationTicks": 192,
          "midi": 79,
          "name": "G5",
          "ticks": 131136,
          "time": 141.31030950000002,
          "velocity": 0.3937007874015748
        },
        {
          "duration": 0.20689649999999915,
          "durationTicks": 192,
          "midi": 76,
          "name": "E5",
          "ticks": 131328,
          "time": 141.51720600000002,
          "velocity": 0.3937007874015748
        },
        {
          "duration": 0.20689649999999915,
          "durationTicks": 192,
          "midi": 79,
          "name": "G5",
          "ticks": 131520,
          "time": 141.72410250000001,
          "velocity": 0.3937007874015748
        },
        {
          "duration": 0.20689649999999915,
          "durationTicks": 192,
          "midi": 86,
          "name": "D6",
          "ticks": 131712,
          "time": 141.930999,
          "velocity": 0.3937007874015748
        },
        {
          "duration": 0.20689649999999915,
          "durationTicks": 192,
          "midi": 79,
          "name": "G5",
          "ticks": 131904,
          "time": 142.1378955,
          "velocity": 0.3937007874015748
        },
        {
          "duration": 0.20689649999999915,
          "durationTicks": 192,
          "midi": 84,
          "name": "C6",
          "ticks": 132096,
          "time": 142.344792,
          "velocity": 0.3937007874015748
        },
        {
          "duration": 0.20689649999999915,
          "durationTicks": 192,
          "midi": 84,
          "name": "C6",
          "ticks": 132288,
          "time": 142.5516885,
          "velocity": 0.3937007874015748
        },
        {
          "duration": 0.20689649999999915,
          "durationTicks": 192,
          "midi": 83,
          "name": "B5",
          "ticks": 132480,
          "time": 142.758585,
          "velocity": 0.3937007874015748
        },
        {
          "duration": 0.20689649999999915,
          "durationTicks": 192,
          "midi": 83,
          "name": "B5",
          "ticks": 132672,
          "time": 142.9654815,
          "velocity": 0.3937007874015748
        },
        {
          "duration": 0.20689649999999915,
          "durationTicks": 192,
          "midi": 74,
          "name": "D5",
          "ticks": 132864,
          "time": 143.172378,
          "velocity": 0.3937007874015748
        },
        {
          "duration": 0.20689649999999915,
          "durationTicks": 192,
          "midi": 78,
          "name": "F#5",
          "ticks": 133056,
          "time": 143.3792745,
          "velocity": 0.3937007874015748
        },
        {
          "duration": 0.20689649999999915,
          "durationTicks": 192,
          "midi": 84,
          "name": "C6",
          "ticks": 133248,
          "time": 143.586171,
          "velocity": 0.3937007874015748
        },
        {
          "duration": 0.20689649999999915,
          "durationTicks": 192,
          "midi": 78,
          "name": "F#5",
          "ticks": 133440,
          "time": 143.7930675,
          "velocity": 0.3937007874015748
        },
        {
          "duration": 0.20689649999999915,
          "durationTicks": 192,
          "midi": 74,
          "name": "D5",
          "ticks": 133632,
          "time": 143.999964,
          "velocity": 0.3937007874015748
        },
        {
          "duration": 0.20689649999999915,
          "durationTicks": 192,
          "midi": 78,
          "name": "F#5",
          "ticks": 133824,
          "time": 144.2068605,
          "velocity": 0.3937007874015748
        },
        {
          "duration": 0.20689649999999915,
          "durationTicks": 192,
          "midi": 84,
          "name": "C6",
          "ticks": 134016,
          "time": 144.413757,
          "velocity": 0.3937007874015748
        },
        {
          "duration": 0.20689649999999915,
          "durationTicks": 192,
          "midi": 78,
          "name": "F#5",
          "ticks": 134208,
          "time": 144.6206535,
          "velocity": 0.3937007874015748
        },
        {
          "duration": 0.20689649999999915,
          "durationTicks": 192,
          "midi": 74,
          "name": "D5",
          "ticks": 134400,
          "time": 144.82755,
          "velocity": 0.3937007874015748
        },
        {
          "duration": 0.20689649999999915,
          "durationTicks": 192,
          "midi": 78,
          "name": "F#5",
          "ticks": 134592,
          "time": 145.0344465,
          "velocity": 0.3937007874015748
        },
        {
          "duration": 0.20689649999999915,
          "durationTicks": 192,
          "midi": 83,
          "name": "B5",
          "ticks": 134784,
          "time": 145.241343,
          "velocity": 0.3937007874015748
        },
        {
          "duration": 0.20689649999999915,
          "durationTicks": 192,
          "midi": 83,
          "name": "B5",
          "ticks": 134976,
          "time": 145.4482395,
          "velocity": 0.3937007874015748
        },
        {
          "duration": 0.20689649999999915,
          "durationTicks": 192,
          "midi": 81,
          "name": "A5",
          "ticks": 135168,
          "time": 145.655136,
          "velocity": 0.3937007874015748
        },
        {
          "duration": 0.20689649999999915,
          "durationTicks": 192,
          "midi": 81,
          "name": "A5",
          "ticks": 135360,
          "time": 145.8620325,
          "velocity": 0.3937007874015748
        },
        {
          "duration": 0.8275859999999966,
          "durationTicks": 768,
          "midi": 81,
          "name": "A5",
          "ticks": 135552,
          "time": 146.068929,
          "velocity": 0.3937007874015748
        },
        {
          "duration": 0.8275859999999966,
          "durationTicks": 768,
          "midi": 83,
          "name": "B5",
          "ticks": 135552,
          "time": 146.068929,
          "velocity": 0.3937007874015748
        }
      ],
      "endOfTrackTicks": 136320
    },
    {
      "channel": 7,
      "controlChanges": {},
      "pitchBends": [],
      "instrument": {
        "family": "strings",
        "number": 45,
        "name": "pizzicato strings"
      },
      "name": "Concert Harp",
      "notes": [
        {
          "duration": 0.4137930000000125,
          "durationTicks": 384,
          "midi": 49,
          "name": "C#3",
          "ticks": 74496,
          "time": 80.275842,
          "velocity": 0.3937007874015748
        },
        {
          "duration": 0.4137929999999983,
          "durationTicks": 384,
          "midi": 53,
          "name": "F3",
          "ticks": 74880,
          "time": 80.68963500000001,
          "velocity": 0.3937007874015748
        },
        {
          "duration": 0.4137929999999983,
          "durationTicks": 384,
          "midi": 60,
          "name": "C4",
          "ticks": 75264,
          "time": 81.10342800000001,
          "velocity": 0.3937007874015748
        },
        {
          "duration": 0.4137929999999983,
          "durationTicks": 384,
          "midi": 53,
          "name": "F3",
          "ticks": 75648,
          "time": 81.517221,
          "velocity": 0.3937007874015748
        },
        {
          "duration": 0.4137929999999983,
          "durationTicks": 384,
          "midi": 48,
          "name": "C3",
          "ticks": 76032,
          "time": 81.931014,
          "velocity": 0.3937007874015748
        },
        {
          "duration": 0.4137929999999983,
          "durationTicks": 384,
          "midi": 52,
          "name": "E3",
          "ticks": 76416,
          "time": 82.344807,
          "velocity": 0.3937007874015748
        },
        {
          "duration": 0.4137929999999983,
          "durationTicks": 384,
          "midi": 58,
          "name": "A#3",
          "ticks": 76800,
          "time": 82.7586,
          "velocity": 0.3937007874015748
        },
        {
          "duration": 0.4137929999999983,
          "durationTicks": 384,
          "midi": 52,
          "name": "E3",
          "ticks": 77184,
          "time": 83.172393,
          "velocity": 0.3937007874015748
        },
        {
          "duration": 0.4137930000000125,
          "durationTicks": 384,
          "midi": 53,
          "name": "F3",
          "ticks": 77568,
          "time": 83.586186,
          "velocity": 0.3937007874015748
        },
        {
          "duration": 0.4137929999999983,
          "durationTicks": 384,
          "midi": 56,
          "name": "G#3",
          "ticks": 77952,
          "time": 83.99997900000001,
          "velocity": 0.3937007874015748
        },
        {
          "duration": 0.4137929999999983,
          "durationTicks": 384,
          "midi": 63,
          "name": "D#4",
          "ticks": 78336,
          "time": 84.41377200000001,
          "velocity": 0.3937007874015748
        },
        {
          "duration": 0.4137929999999983,
          "durationTicks": 384,
          "midi": 56,
          "name": "G#3",
          "ticks": 78720,
          "time": 84.827565,
          "velocity": 0.3937007874015748
        },
        {
          "duration": 0.4137929999999983,
          "durationTicks": 384,
          "midi": 51,
          "name": "D#3",
          "ticks": 79104,
          "time": 85.241358,
          "velocity": 0.3937007874015748
        },
        {
          "duration": 0.4137929999999983,
          "durationTicks": 384,
          "midi": 55,
          "name": "G3",
          "ticks": 79488,
          "time": 85.655151,
          "velocity": 0.3937007874015748
        },
        {
          "duration": 0.4137929999999983,
          "durationTicks": 384,
          "midi": 61,
          "name": "C#4",
          "ticks": 79872,
          "time": 86.068944,
          "velocity": 0.3937007874015748
        },
        {
          "duration": 0.4137929999999983,
          "durationTicks": 384,
          "midi": 55,
          "name": "G3",
          "ticks": 80256,
          "time": 86.482737,
          "velocity": 0.3937007874015748
        },
        {
          "duration": 0.4137930000000125,
          "durationTicks": 384,
          "midi": 49,
          "name": "C#3",
          "ticks": 80640,
          "time": 86.89653,
          "velocity": 0.3937007874015748
        },
        {
          "duration": 0.4137929999999983,
          "durationTicks": 384,
          "midi": 53,
          "name": "F3",
          "ticks": 81024,
          "time": 87.31032300000001,
          "velocity": 0.3937007874015748
        },
        {
          "duration": 0.4137929999999983,
          "durationTicks": 384,
          "midi": 60,
          "name": "C4",
          "ticks": 81408,
          "time": 87.72411600000001,
          "velocity": 0.3937007874015748
        },
        {
          "duration": 0.4137929999999983,
          "durationTicks": 384,
          "midi": 53,
          "name": "F3",
          "ticks": 81792,
          "time": 88.13790900000001,
          "velocity": 0.3937007874015748
        },
        {
          "duration": 0.4137929999999983,
          "durationTicks": 384,
          "midi": 48,
          "name": "C3",
          "ticks": 82176,
          "time": 88.551702,
          "velocity": 0.3937007874015748
        },
        {
          "duration": 0.4137929999999983,
          "durationTicks": 384,
          "midi": 52,
          "name": "E3",
          "ticks": 82560,
          "time": 88.965495,
          "velocity": 0.3937007874015748
        },
        {
          "duration": 0.4137929999999983,
          "durationTicks": 384,
          "midi": 58,
          "name": "A#3",
          "ticks": 82944,
          "time": 89.379288,
          "velocity": 0.3937007874015748
        },
        {
          "duration": 0.4137929999999983,
          "durationTicks": 384,
          "midi": 52,
          "name": "E3",
          "ticks": 83328,
          "time": 89.793081,
          "velocity": 0.3937007874015748
        },
        {
          "duration": 0.4137930000000125,
          "durationTicks": 384,
          "midi": 53,
          "name": "F3",
          "ticks": 83712,
          "time": 90.206874,
          "velocity": 0.3937007874015748
        },
        {
          "duration": 0.4137929999999983,
          "durationTicks": 384,
          "midi": 56,
          "name": "G#3",
          "ticks": 84096,
          "time": 90.62066700000001,
          "velocity": 0.3937007874015748
        },
        {
          "duration": 0.4137929999999983,
          "durationTicks": 384,
          "midi": 63,
          "name": "D#4",
          "ticks": 84480,
          "time": 91.03446000000001,
          "velocity": 0.3937007874015748
        },
        {
          "duration": 0.4137929999999983,
          "durationTicks": 384,
          "midi": 56,
          "name": "G#3",
          "ticks": 84864,
          "time": 91.44825300000001,
          "velocity": 0.3937007874015748
        },
        {
          "duration": 0.4137929999999983,
          "durationTicks": 384,
          "midi": 51,
          "name": "D#3",
          "ticks": 85248,
          "time": 91.862046,
          "velocity": 0.3937007874015748
        },
        {
          "duration": 0.4137929999999983,
          "durationTicks": 384,
          "midi": 55,
          "name": "G3",
          "ticks": 85632,
          "time": 92.275839,
          "velocity": 0.3937007874015748
        },
        {
          "duration": 0.4137929999999983,
          "durationTicks": 384,
          "midi": 61,
          "name": "C#4",
          "ticks": 86016,
          "time": 92.689632,
          "velocity": 0.3937007874015748
        },
        {
          "duration": 0.4137929999999983,
          "durationTicks": 384,
          "midi": 55,
          "name": "G3",
          "ticks": 86400,
          "time": 93.103425,
          "velocity": 0.3937007874015748
        },
        {
          "duration": 0.4137929999999983,
          "durationTicks": 384,
          "midi": 49,
          "name": "C#3",
          "ticks": 99072,
          "time": 106.758594,
          "velocity": 0.3937007874015748
        },
        {
          "duration": 0.4137929999999983,
          "durationTicks": 384,
          "midi": 53,
          "name": "F3",
          "ticks": 99456,
          "time": 107.172387,
          "velocity": 0.3937007874015748
        },
        {
          "duration": 0.4137930000000125,
          "durationTicks": 384,
          "midi": 60,
          "name": "C4",
          "ticks": 99840,
          "time": 107.58618,
          "velocity": 0.3937007874015748
        },
        {
          "duration": 0.4137929999999983,
          "durationTicks": 384,
          "midi": 53,
          "name": "F3",
          "ticks": 100224,
          "time": 107.99997300000001,
          "velocity": 0.3937007874015748
        },
        {
          "duration": 0.4137929999999983,
          "durationTicks": 384,
          "midi": 48,
          "name": "C3",
          "ticks": 100608,
          "time": 108.41376600000001,
          "velocity": 0.3937007874015748
        },
        {
          "duration": 0.4137929999999983,
          "durationTicks": 384,
          "midi": 52,
          "name": "E3",
          "ticks": 100992,
          "time": 108.82755900000001,
          "velocity": 0.3937007874015748
        },
        {
          "duration": 0.4137929999999983,
          "durationTicks": 384,
          "midi": 58,
          "name": "A#3",
          "ticks": 101376,
          "time": 109.241352,
          "velocity": 0.3937007874015748
        },
        {
          "duration": 0.4137929999999983,
          "durationTicks": 384,
          "midi": 52,
          "name": "E3",
          "ticks": 101760,
          "time": 109.655145,
          "velocity": 0.3937007874015748
        },
        {
          "duration": 0.4137929999999983,
          "durationTicks": 384,
          "midi": 53,
          "name": "F3",
          "ticks": 102144,
          "time": 110.068938,
          "velocity": 0.3937007874015748
        },
        {
          "duration": 0.4137929999999983,
          "durationTicks": 384,
          "midi": 56,
          "name": "G#3",
          "ticks": 102528,
          "time": 110.482731,
          "velocity": 0.3937007874015748
        },
        {
          "duration": 0.4137930000000125,
          "durationTicks": 384,
          "midi": 63,
          "name": "D#4",
          "ticks": 102912,
          "time": 110.896524,
          "velocity": 0.3937007874015748
        },
        {
          "duration": 0.4137929999999983,
          "durationTicks": 384,
          "midi": 56,
          "name": "G#3",
          "ticks": 103296,
          "time": 111.31031700000001,
          "velocity": 0.3937007874015748
        },
        {
          "duration": 0.4137929999999983,
          "durationTicks": 384,
          "midi": 51,
          "name": "D#3",
          "ticks": 103680,
          "time": 111.72411000000001,
          "velocity": 0.3937007874015748
        },
        {
          "duration": 0.4137929999999983,
          "durationTicks": 384,
          "midi": 55,
          "name": "G3",
          "ticks": 104064,
          "time": 112.13790300000001,
          "velocity": 0.3937007874015748
        },
        {
          "duration": 0.4137929999999983,
          "durationTicks": 384,
          "midi": 61,
          "name": "C#4",
          "ticks": 104448,
          "time": 112.551696,
          "velocity": 0.3937007874015748
        },
        {
          "duration": 0.4137929999999983,
          "durationTicks": 384,
          "midi": 55,
          "name": "G3",
          "ticks": 104832,
          "time": 112.965489,
          "velocity": 0.3937007874015748
        },
        {
          "duration": 0.4137929999999983,
          "durationTicks": 384,
          "midi": 49,
          "name": "C#3",
          "ticks": 105216,
          "time": 113.379282,
          "velocity": 0.3937007874015748
        },
        {
          "duration": 0.4137929999999983,
          "durationTicks": 384,
          "midi": 53,
          "name": "F3",
          "ticks": 105600,
          "time": 113.793075,
          "velocity": 0.3937007874015748
        },
        {
          "duration": 0.4137930000000125,
          "durationTicks": 384,
          "midi": 60,
          "name": "C4",
          "ticks": 105984,
          "time": 114.206868,
          "velocity": 0.3937007874015748
        },
        {
          "duration": 0.4137929999999983,
          "durationTicks": 384,
          "midi": 53,
          "name": "F3",
          "ticks": 106368,
          "time": 114.62066100000001,
          "velocity": 0.3937007874015748
        },
        {
          "duration": 0.4137929999999983,
          "durationTicks": 384,
          "midi": 48,
          "name": "C3",
          "ticks": 106752,
          "time": 115.03445400000001,
          "velocity": 0.3937007874015748
        },
        {
          "duration": 0.4137929999999983,
          "durationTicks": 384,
          "midi": 52,
          "name": "E3",
          "ticks": 107136,
          "time": 115.44824700000001,
          "velocity": 0.3937007874015748
        },
        {
          "duration": 0.4137929999999983,
          "durationTicks": 384,
          "midi": 58,
          "name": "A#3",
          "ticks": 107520,
          "time": 115.86204000000001,
          "velocity": 0.3937007874015748
        },
        {
          "duration": 0.4137929999999983,
          "durationTicks": 384,
          "midi": 52,
          "name": "E3",
          "ticks": 107904,
          "time": 116.275833,
          "velocity": 0.3937007874015748
        },
        {
          "duration": 0.4137929999999983,
          "durationTicks": 384,
          "midi": 53,
          "name": "F3",
          "ticks": 108288,
          "time": 116.689626,
          "velocity": 0.3937007874015748
        },
        {
          "duration": 0.4137929999999983,
          "durationTicks": 384,
          "midi": 56,
          "name": "G#3",
          "ticks": 108672,
          "time": 117.103419,
          "velocity": 0.3937007874015748
        },
        {
          "duration": 0.4137930000000125,
          "durationTicks": 384,
          "midi": 63,
          "name": "D#4",
          "ticks": 109056,
          "time": 117.517212,
          "velocity": 0.3937007874015748
        },
        {
          "duration": 0.4137929999999983,
          "durationTicks": 384,
          "midi": 56,
          "name": "G#3",
          "ticks": 109440,
          "time": 117.93100500000001,
          "velocity": 0.3937007874015748
        },
        {
          "duration": 0.4137929999999983,
          "durationTicks": 384,
          "midi": 51,
          "name": "D#3",
          "ticks": 109824,
          "time": 118.34479800000001,
          "velocity": 0.3937007874015748
        },
        {
          "duration": 0.4137929999999983,
          "durationTicks": 384,
          "midi": 55,
          "name": "G3",
          "ticks": 110208,
          "time": 118.75859100000001,
          "velocity": 0.3937007874015748
        },
        {
          "duration": 0.4137929999999983,
          "durationTicks": 384,
          "midi": 61,
          "name": "C#4",
          "ticks": 110592,
          "time": 119.17238400000001,
          "velocity": 0.3937007874015748
        },
        {
          "duration": 0.4137929999999983,
          "durationTicks": 384,
          "midi": 55,
          "name": "G3",
          "ticks": 110976,
          "time": 119.586177,
          "velocity": 0.3937007874015748
        },
        {
          "duration": 0.4137929999999983,
          "durationTicks": 384,
          "midi": 48,
          "name": "C3",
          "ticks": 111360,
          "time": 119.99997,
          "velocity": 0.3937007874015748
        },
        {
          "duration": 0.4137929999999983,
          "durationTicks": 384,
          "midi": 52,
          "name": "E3",
          "ticks": 111744,
          "time": 120.413763,
          "velocity": 0.3937007874015748
        },
        {
          "duration": 0.4137929999999983,
          "durationTicks": 384,
          "midi": 59,
          "name": "B3",
          "ticks": 112128,
          "time": 120.827556,
          "velocity": 0.3937007874015748
        },
        {
          "duration": 0.4137930000000125,
          "durationTicks": 384,
          "midi": 52,
          "name": "E3",
          "ticks": 112512,
          "time": 121.241349,
          "velocity": 0.3937007874015748
        },
        {
          "duration": 0.4137929999999983,
          "durationTicks": 384,
          "midi": 47,
          "name": "B2",
          "ticks": 112896,
          "time": 121.65514200000001,
          "velocity": 0.3937007874015748
        },
        {
          "duration": 0.4137929999999983,
          "durationTicks": 384,
          "midi": 51,
          "name": "D#3",
          "ticks": 113280,
          "time": 122.06893500000001,
          "velocity": 0.3937007874015748
        },
        {
          "duration": 0.4137929999999983,
          "durationTicks": 384,
          "midi": 57,
          "name": "A3",
          "ticks": 113664,
          "time": 122.48272800000001,
          "velocity": 0.3937007874015748
        },
        {
          "duration": 0.4137929999999983,
          "durationTicks": 384,
          "midi": 51,
          "name": "D#3",
          "ticks": 114048,
          "time": 122.896521,
          "velocity": 0.3937007874015748
        },
        {
          "duration": 0.4137929999999983,
          "durationTicks": 384,
          "midi": 52,
          "name": "E3",
          "ticks": 114432,
          "time": 123.310314,
          "velocity": 0.3937007874015748
        },
        {
          "duration": 0.4137929999999983,
          "durationTicks": 384,
          "midi": 55,
          "name": "G3",
          "ticks": 114816,
          "time": 123.724107,
          "velocity": 0.3937007874015748
        },
        {
          "duration": 0.4137929999999983,
          "durationTicks": 384,
          "midi": 62,
          "name": "D4",
          "ticks": 115200,
          "time": 124.1379,
          "velocity": 0.3937007874015748
        },
        {
          "duration": 0.4137930000000125,
          "durationTicks": 384,
          "midi": 55,
          "name": "G3",
          "ticks": 115584,
          "time": 124.551693,
          "velocity": 0.3937007874015748
        },
        {
          "duration": 0.4137929999999983,
          "durationTicks": 384,
          "midi": 50,
          "name": "D3",
          "ticks": 115968,
          "time": 124.96548600000001,
          "velocity": 0.3937007874015748
        },
        {
          "duration": 0.4137929999999983,
          "durationTicks": 384,
          "midi": 54,
          "name": "F#3",
          "ticks": 116352,
          "time": 125.37927900000001,
          "velocity": 0.3937007874015748
        },
        {
          "duration": 0.4137929999999983,
          "durationTicks": 384,
          "midi": 60,
          "name": "C4",
          "ticks": 116736,
          "time": 125.79307200000001,
          "velocity": 0.3937007874015748
        },
        {
          "duration": 0.4137929999999983,
          "durationTicks": 384,
          "midi": 54,
          "name": "F#3",
          "ticks": 117120,
          "time": 126.20686500000001,
          "velocity": 0.3937007874015748
        },
        {
          "duration": 0.4137929999999983,
          "durationTicks": 384,
          "midi": 48,
          "name": "C3",
          "ticks": 117504,
          "time": 126.620658,
          "velocity": 0.3937007874015748
        },
        {
          "duration": 0.4137929999999983,
          "durationTicks": 384,
          "midi": 52,
          "name": "E3",
          "ticks": 117888,
          "time": 127.034451,
          "velocity": 0.3937007874015748
        },
        {
          "duration": 0.4137929999999983,
          "durationTicks": 384,
          "midi": 59,
          "name": "B3",
          "ticks": 118272,
          "time": 127.448244,
          "velocity": 0.3937007874015748
        },
        {
          "duration": 0.4137930000000125,
          "durationTicks": 384,
          "midi": 52,
          "name": "E3",
          "ticks": 118656,
          "time": 127.862037,
          "velocity": 0.3937007874015748
        },
        {
          "duration": 0.4137929999999983,
          "durationTicks": 384,
          "midi": 47,
          "name": "B2",
          "ticks": 119040,
          "time": 128.27583,
          "velocity": 0.3937007874015748
        },
        {
          "duration": 0.4137929999999983,
          "durationTicks": 384,
          "midi": 51,
          "name": "D#3",
          "ticks": 119424,
          "time": 128.689623,
          "velocity": 0.3937007874015748
        },
        {
          "duration": 0.4137929999999983,
          "durationTicks": 384,
          "midi": 57,
          "name": "A3",
          "ticks": 119808,
          "time": 129.103416,
          "velocity": 0.3937007874015748
        },
        {
          "duration": 0.4137929999999983,
          "durationTicks": 384,
          "midi": 51,
          "name": "D#3",
          "ticks": 120192,
          "time": 129.517209,
          "velocity": 0.3937007874015748
        },
        {
          "duration": 0.4137929999999983,
          "durationTicks": 384,
          "midi": 52,
          "name": "E3",
          "ticks": 120576,
          "time": 129.931002,
          "velocity": 0.3937007874015748
        },
        {
          "duration": 0.4137929999999983,
          "durationTicks": 384,
          "midi": 55,
          "name": "G3",
          "ticks": 120960,
          "time": 130.344795,
          "velocity": 0.3937007874015748
        },
        {
          "duration": 0.4137929999999983,
          "durationTicks": 384,
          "midi": 62,
          "name": "D4",
          "ticks": 121344,
          "time": 130.758588,
          "velocity": 0.3937007874015748
        },
        {
          "duration": 0.4137929999999983,
          "durationTicks": 384,
          "midi": 55,
          "name": "G3",
          "ticks": 121728,
          "time": 131.172381,
          "velocity": 0.3937007874015748
        },
        {
          "duration": 0.4137929999999983,
          "durationTicks": 384,
          "midi": 50,
          "name": "D3",
          "ticks": 122112,
          "time": 131.586174,
          "velocity": 0.3937007874015748
        },
        {
          "duration": 0.4137929999999983,
          "durationTicks": 384,
          "midi": 54,
          "name": "F#3",
          "ticks": 122496,
          "time": 131.999967,
          "velocity": 0.3937007874015748
        },
        {
          "duration": 0.4137929999999983,
          "durationTicks": 384,
          "midi": 60,
          "name": "C4",
          "ticks": 122880,
          "time": 132.41376,
          "velocity": 0.3937007874015748
        },
        {
          "duration": 0.4137929999999983,
          "durationTicks": 384,
          "midi": 54,
          "name": "F#3",
          "ticks": 123264,
          "time": 132.827553,
          "velocity": 0.3937007874015748
        }
      ],
      "endOfTrackTicks": 123648
    },
    {
      "channel": 8,
      "controlChanges": {},
      "pitchBends": [],
      "instrument": {
        "family": "strings",
        "number": 45,
        "name": "pizzicato strings"
      },
      "name": "Pizzicato",
      "notes": [
        {
          "duration": 0.4137930000000125,
          "durationTicks": 384,
          "midi": 37,
          "name": "C#2",
          "ticks": 74496,
          "time": 80.275842,
          "velocity": 0.3937007874015748
        },
        {
          "duration": 0.4137929999999983,
          "durationTicks": 384,
          "midi": 41,
          "name": "F2",
          "ticks": 74880,
          "time": 80.68963500000001,
          "velocity": 0.3937007874015748
        },
        {
          "duration": 0.4137929999999983,
          "durationTicks": 384,
          "midi": 48,
          "name": "C3",
          "ticks": 75264,
          "time": 81.10342800000001,
          "velocity": 0.3937007874015748
        },
        {
          "duration": 0.4137929999999983,
          "durationTicks": 384,
          "midi": 41,
          "name": "F2",
          "ticks": 75648,
          "time": 81.517221,
          "velocity": 0.3937007874015748
        },
        {
          "duration": 0.4137929999999983,
          "durationTicks": 384,
          "midi": 36,
          "name": "C2",
          "ticks": 76032,
          "time": 81.931014,
          "velocity": 0.3937007874015748
        },
        {
          "duration": 0.4137929999999983,
          "durationTicks": 384,
          "midi": 40,
          "name": "E2",
          "ticks": 76416,
          "time": 82.344807,
          "velocity": 0.3937007874015748
        },
        {
          "duration": 0.4137929999999983,
          "durationTicks": 384,
          "midi": 46,
          "name": "A#2",
          "ticks": 76800,
          "time": 82.7586,
          "velocity": 0.3937007874015748
        },
        {
          "duration": 0.4137929999999983,
          "durationTicks": 384,
          "midi": 40,
          "name": "E2",
          "ticks": 77184,
          "time": 83.172393,
          "velocity": 0.3937007874015748
        },
        {
          "duration": 0.4137930000000125,
          "durationTicks": 384,
          "midi": 41,
          "name": "F2",
          "ticks": 77568,
          "time": 83.586186,
          "velocity": 0.3937007874015748
        },
        {
          "duration": 0.4137929999999983,
          "durationTicks": 384,
          "midi": 44,
          "name": "G#2",
          "ticks": 77952,
          "time": 83.99997900000001,
          "velocity": 0.3937007874015748
        },
        {
          "duration": 0.4137929999999983,
          "durationTicks": 384,
          "midi": 51,
          "name": "D#3",
          "ticks": 78336,
          "time": 84.41377200000001,
          "velocity": 0.3937007874015748
        },
        {
          "duration": 0.4137929999999983,
          "durationTicks": 384,
          "midi": 44,
          "name": "G#2",
          "ticks": 78720,
          "time": 84.827565,
          "velocity": 0.3937007874015748
        },
        {
          "duration": 0.4137929999999983,
          "durationTicks": 384,
          "midi": 39,
          "name": "D#2",
          "ticks": 79104,
          "time": 85.241358,
          "velocity": 0.3937007874015748
        },
        {
          "duration": 0.4137929999999983,
          "durationTicks": 384,
          "midi": 43,
          "name": "G2",
          "ticks": 79488,
          "time": 85.655151,
          "velocity": 0.3937007874015748
        },
        {
          "duration": 0.4137929999999983,
          "durationTicks": 384,
          "midi": 49,
          "name": "C#3",
          "ticks": 79872,
          "time": 86.068944,
          "velocity": 0.3937007874015748
        },
        {
          "duration": 0.4137929999999983,
          "durationTicks": 384,
          "midi": 43,
          "name": "G2",
          "ticks": 80256,
          "time": 86.482737,
          "velocity": 0.3937007874015748
        },
        {
          "duration": 0.4137930000000125,
          "durationTicks": 384,
          "midi": 37,
          "name": "C#2",
          "ticks": 80640,
          "time": 86.89653,
          "velocity": 0.3937007874015748
        },
        {
          "duration": 0.4137929999999983,
          "durationTicks": 384,
          "midi": 41,
          "name": "F2",
          "ticks": 81024,
          "time": 87.31032300000001,
          "velocity": 0.3937007874015748
        },
        {
          "duration": 0.4137929999999983,
          "durationTicks": 384,
          "midi": 48,
          "name": "C3",
          "ticks": 81408,
          "time": 87.72411600000001,
          "velocity": 0.3937007874015748
        },
        {
          "duration": 0.4137929999999983,
          "durationTicks": 384,
          "midi": 41,
          "name": "F2",
          "ticks": 81792,
          "time": 88.13790900000001,
          "velocity": 0.3937007874015748
        },
        {
          "duration": 0.4137929999999983,
          "durationTicks": 384,
          "midi": 36,
          "name": "C2",
          "ticks": 82176,
          "time": 88.551702,
          "velocity": 0.3937007874015748
        },
        {
          "duration": 0.4137929999999983,
          "durationTicks": 384,
          "midi": 40,
          "name": "E2",
          "ticks": 82560,
          "time": 88.965495,
          "velocity": 0.3937007874015748
        },
        {
          "duration": 0.4137929999999983,
          "durationTicks": 384,
          "midi": 46,
          "name": "A#2",
          "ticks": 82944,
          "time": 89.379288,
          "velocity": 0.3937007874015748
        },
        {
          "duration": 0.4137929999999983,
          "durationTicks": 384,
          "midi": 40,
          "name": "E2",
          "ticks": 83328,
          "time": 89.793081,
          "velocity": 0.3937007874015748
        },
        {
          "duration": 0.4137930000000125,
          "durationTicks": 384,
          "midi": 41,
          "name": "F2",
          "ticks": 83712,
          "time": 90.206874,
          "velocity": 0.3937007874015748
        },
        {
          "duration": 0.4137929999999983,
          "durationTicks": 384,
          "midi": 44,
          "name": "G#2",
          "ticks": 84096,
          "time": 90.62066700000001,
          "velocity": 0.3937007874015748
        },
        {
          "duration": 0.4137929999999983,
          "durationTicks": 384,
          "midi": 51,
          "name": "D#3",
          "ticks": 84480,
          "time": 91.03446000000001,
          "velocity": 0.3937007874015748
        },
        {
          "duration": 0.4137929999999983,
          "durationTicks": 384,
          "midi": 44,
          "name": "G#2",
          "ticks": 84864,
          "time": 91.44825300000001,
          "velocity": 0.3937007874015748
        },
        {
          "duration": 0.4137929999999983,
          "durationTicks": 384,
          "midi": 39,
          "name": "D#2",
          "ticks": 85248,
          "time": 91.862046,
          "velocity": 0.3937007874015748
        },
        {
          "duration": 0.4137929999999983,
          "durationTicks": 384,
          "midi": 43,
          "name": "G2",
          "ticks": 85632,
          "time": 92.275839,
          "velocity": 0.3937007874015748
        },
        {
          "duration": 0.4137929999999983,
          "durationTicks": 384,
          "midi": 49,
          "name": "C#3",
          "ticks": 86016,
          "time": 92.689632,
          "velocity": 0.3937007874015748
        },
        {
          "duration": 0.4137929999999983,
          "durationTicks": 384,
          "midi": 43,
          "name": "G2",
          "ticks": 86400,
          "time": 93.103425,
          "velocity": 0.3937007874015748
        },
        {
          "duration": 0.4137929999999983,
          "durationTicks": 384,
          "midi": 37,
          "name": "C#2",
          "ticks": 99072,
          "time": 106.758594,
          "velocity": 0.3937007874015748
        },
        {
          "duration": 0.4137929999999983,
          "durationTicks": 384,
          "midi": 41,
          "name": "F2",
          "ticks": 99456,
          "time": 107.172387,
          "velocity": 0.3937007874015748
        },
        {
          "duration": 0.4137930000000125,
          "durationTicks": 384,
          "midi": 48,
          "name": "C3",
          "ticks": 99840,
          "time": 107.58618,
          "velocity": 0.3937007874015748
        },
        {
          "duration": 0.4137929999999983,
          "durationTicks": 384,
          "midi": 41,
          "name": "F2",
          "ticks": 100224,
          "time": 107.99997300000001,
          "velocity": 0.3937007874015748
        },
        {
          "duration": 0.4137929999999983,
          "durationTicks": 384,
          "midi": 36,
          "name": "C2",
          "ticks": 100608,
          "time": 108.41376600000001,
          "velocity": 0.3937007874015748
        },
        {
          "duration": 0.4137929999999983,
          "durationTicks": 384,
          "midi": 40,
          "name": "E2",
          "ticks": 100992,
          "time": 108.82755900000001,
          "velocity": 0.3937007874015748
        },
        {
          "duration": 0.4137929999999983,
          "durationTicks": 384,
          "midi": 46,
          "name": "A#2",
          "ticks": 101376,
          "time": 109.241352,
          "velocity": 0.3937007874015748
        },
        {
          "duration": 0.4137929999999983,
          "durationTicks": 384,
          "midi": 40,
          "name": "E2",
          "ticks": 101760,
          "time": 109.655145,
          "velocity": 0.3937007874015748
        },
        {
          "duration": 0.4137929999999983,
          "durationTicks": 384,
          "midi": 41,
          "name": "F2",
          "ticks": 102144,
          "time": 110.068938,
          "velocity": 0.3937007874015748
        },
        {
          "duration": 0.4137929999999983,
          "durationTicks": 384,
          "midi": 44,
          "name": "G#2",
          "ticks": 102528,
          "time": 110.482731,
          "velocity": 0.3937007874015748
        },
        {
          "duration": 0.4137930000000125,
          "durationTicks": 384,
          "midi": 51,
          "name": "D#3",
          "ticks": 102912,
          "time": 110.896524,
          "velocity": 0.3937007874015748
        },
        {
          "duration": 0.4137929999999983,
          "durationTicks": 384,
          "midi": 44,
          "name": "G#2",
          "ticks": 103296,
          "time": 111.31031700000001,
          "velocity": 0.3937007874015748
        },
        {
          "duration": 0.4137929999999983,
          "durationTicks": 384,
          "midi": 39,
          "name": "D#2",
          "ticks": 103680,
          "time": 111.72411000000001,
          "velocity": 0.3937007874015748
        },
        {
          "duration": 0.4137929999999983,
          "durationTicks": 384,
          "midi": 43,
          "name": "G2",
          "ticks": 104064,
          "time": 112.13790300000001,
          "velocity": 0.3937007874015748
        },
        {
          "duration": 0.4137929999999983,
          "durationTicks": 384,
          "midi": 49,
          "name": "C#3",
          "ticks": 104448,
          "time": 112.551696,
          "velocity": 0.3937007874015748
        },
        {
          "duration": 0.4137929999999983,
          "durationTicks": 384,
          "midi": 43,
          "name": "G2",
          "ticks": 104832,
          "time": 112.965489,
          "velocity": 0.3937007874015748
        },
        {
          "duration": 0.4137929999999983,
          "durationTicks": 384,
          "midi": 37,
          "name": "C#2",
          "ticks": 105216,
          "time": 113.379282,
          "velocity": 0.3937007874015748
        },
        {
          "duration": 0.4137929999999983,
          "durationTicks": 384,
          "midi": 41,
          "name": "F2",
          "ticks": 105600,
          "time": 113.793075,
          "velocity": 0.3937007874015748
        },
        {
          "duration": 0.4137930000000125,
          "durationTicks": 384,
          "midi": 48,
          "name": "C3",
          "ticks": 105984,
          "time": 114.206868,
          "velocity": 0.3937007874015748
        },
        {
          "duration": 0.4137929999999983,
          "durationTicks": 384,
          "midi": 41,
          "name": "F2",
          "ticks": 106368,
          "time": 114.62066100000001,
          "velocity": 0.3937007874015748
        },
        {
          "duration": 0.4137929999999983,
          "durationTicks": 384,
          "midi": 36,
          "name": "C2",
          "ticks": 106752,
          "time": 115.03445400000001,
          "velocity": 0.3937007874015748
        },
        {
          "duration": 0.4137929999999983,
          "durationTicks": 384,
          "midi": 40,
          "name": "E2",
          "ticks": 107136,
          "time": 115.44824700000001,
          "velocity": 0.3937007874015748
        },
        {
          "duration": 0.4137929999999983,
          "durationTicks": 384,
          "midi": 46,
          "name": "A#2",
          "ticks": 107520,
          "time": 115.86204000000001,
          "velocity": 0.3937007874015748
        },
        {
          "duration": 0.4137929999999983,
          "durationTicks": 384,
          "midi": 40,
          "name": "E2",
          "ticks": 107904,
          "time": 116.275833,
          "velocity": 0.3937007874015748
        },
        {
          "duration": 0.4137929999999983,
          "durationTicks": 384,
          "midi": 41,
          "name": "F2",
          "ticks": 108288,
          "time": 116.689626,
          "velocity": 0.3937007874015748
        },
        {
          "duration": 0.4137929999999983,
          "durationTicks": 384,
          "midi": 44,
          "name": "G#2",
          "ticks": 108672,
          "time": 117.103419,
          "velocity": 0.3937007874015748
        },
        {
          "duration": 0.4137930000000125,
          "durationTicks": 384,
          "midi": 51,
          "name": "D#3",
          "ticks": 109056,
          "time": 117.517212,
          "velocity": 0.3937007874015748
        },
        {
          "duration": 0.4137929999999983,
          "durationTicks": 384,
          "midi": 44,
          "name": "G#2",
          "ticks": 109440,
          "time": 117.93100500000001,
          "velocity": 0.3937007874015748
        },
        {
          "duration": 0.4137929999999983,
          "durationTicks": 384,
          "midi": 39,
          "name": "D#2",
          "ticks": 109824,
          "time": 118.34479800000001,
          "velocity": 0.3937007874015748
        },
        {
          "duration": 0.4137929999999983,
          "durationTicks": 384,
          "midi": 43,
          "name": "G2",
          "ticks": 110208,
          "time": 118.75859100000001,
          "velocity": 0.3937007874015748
        },
        {
          "duration": 0.4137929999999983,
          "durationTicks": 384,
          "midi": 49,
          "name": "C#3",
          "ticks": 110592,
          "time": 119.17238400000001,
          "velocity": 0.3937007874015748
        },
        {
          "duration": 0.4137929999999983,
          "durationTicks": 384,
          "midi": 43,
          "name": "G2",
          "ticks": 110976,
          "time": 119.586177,
          "velocity": 0.3937007874015748
        },
        {
          "duration": 0.4137929999999983,
          "durationTicks": 384,
          "midi": 36,
          "name": "C2",
          "ticks": 111360,
          "time": 119.99997,
          "velocity": 0.3937007874015748
        },
        {
          "duration": 0.4137929999999983,
          "durationTicks": 384,
          "midi": 40,
          "name": "E2",
          "ticks": 111744,
          "time": 120.413763,
          "velocity": 0.3937007874015748
        },
        {
          "duration": 0.4137929999999983,
          "durationTicks": 384,
          "midi": 47,
          "name": "B2",
          "ticks": 112128,
          "time": 120.827556,
          "velocity": 0.3937007874015748
        },
        {
          "duration": 0.4137930000000125,
          "durationTicks": 384,
          "midi": 40,
          "name": "E2",
          "ticks": 112512,
          "time": 121.241349,
          "velocity": 0.3937007874015748
        },
        {
          "duration": 0.4137929999999983,
          "durationTicks": 384,
          "midi": 35,
          "name": "B1",
          "ticks": 112896,
          "time": 121.65514200000001,
          "velocity": 0.3937007874015748
        },
        {
          "duration": 0.4137929999999983,
          "durationTicks": 384,
          "midi": 39,
          "name": "D#2",
          "ticks": 113280,
          "time": 122.06893500000001,
          "velocity": 0.3937007874015748
        },
        {
          "duration": 0.4137929999999983,
          "durationTicks": 384,
          "midi": 45,
          "name": "A2",
          "ticks": 113664,
          "time": 122.48272800000001,
          "velocity": 0.3937007874015748
        },
        {
          "duration": 0.4137929999999983,
          "durationTicks": 384,
          "midi": 39,
          "name": "D#2",
          "ticks": 114048,
          "time": 122.896521,
          "velocity": 0.3937007874015748
        },
        {
          "duration": 0.4137929999999983,
          "durationTicks": 384,
          "midi": 40,
          "name": "E2",
          "ticks": 114432,
          "time": 123.310314,
          "velocity": 0.3937007874015748
        },
        {
          "duration": 0.4137929999999983,
          "durationTicks": 384,
          "midi": 43,
          "name": "G2",
          "ticks": 114816,
          "time": 123.724107,
          "velocity": 0.3937007874015748
        },
        {
          "duration": 0.4137929999999983,
          "durationTicks": 384,
          "midi": 50,
          "name": "D3",
          "ticks": 115200,
          "time": 124.1379,
          "velocity": 0.3937007874015748
        },
        {
          "duration": 0.4137930000000125,
          "durationTicks": 384,
          "midi": 43,
          "name": "G2",
          "ticks": 115584,
          "time": 124.551693,
          "velocity": 0.3937007874015748
        },
        {
          "duration": 0.4137929999999983,
          "durationTicks": 384,
          "midi": 38,
          "name": "D2",
          "ticks": 115968,
          "time": 124.96548600000001,
          "velocity": 0.3937007874015748
        },
        {
          "duration": 0.4137929999999983,
          "durationTicks": 384,
          "midi": 42,
          "name": "F#2",
          "ticks": 116352,
          "time": 125.37927900000001,
          "velocity": 0.3937007874015748
        },
        {
          "duration": 0.4137929999999983,
          "durationTicks": 384,
          "midi": 48,
          "name": "C3",
          "ticks": 116736,
          "time": 125.79307200000001,
          "velocity": 0.3937007874015748
        },
        {
          "duration": 0.4137929999999983,
          "durationTicks": 384,
          "midi": 42,
          "name": "F#2",
          "ticks": 117120,
          "time": 126.20686500000001,
          "velocity": 0.3937007874015748
        },
        {
          "duration": 0.4137929999999983,
          "durationTicks": 384,
          "midi": 36,
          "name": "C2",
          "ticks": 117504,
          "time": 126.620658,
          "velocity": 0.3937007874015748
        },
        {
          "duration": 0.4137929999999983,
          "durationTicks": 384,
          "midi": 40,
          "name": "E2",
          "ticks": 117888,
          "time": 127.034451,
          "velocity": 0.3937007874015748
        },
        {
          "duration": 0.4137929999999983,
          "durationTicks": 384,
          "midi": 47,
          "name": "B2",
          "ticks": 118272,
          "time": 127.448244,
          "velocity": 0.3937007874015748
        },
        {
          "duration": 0.4137930000000125,
          "durationTicks": 384,
          "midi": 40,
          "name": "E2",
          "ticks": 118656,
          "time": 127.862037,
          "velocity": 0.3937007874015748
        },
        {
          "duration": 0.4137929999999983,
          "durationTicks": 384,
          "midi": 35,
          "name": "B1",
          "ticks": 119040,
          "time": 128.27583,
          "velocity": 0.3937007874015748
        },
        {
          "duration": 0.4137929999999983,
          "durationTicks": 384,
          "midi": 39,
          "name": "D#2",
          "ticks": 119424,
          "time": 128.689623,
          "velocity": 0.3937007874015748
        },
        {
          "duration": 0.4137929999999983,
          "durationTicks": 384,
          "midi": 45,
          "name": "A2",
          "ticks": 119808,
          "time": 129.103416,
          "velocity": 0.3937007874015748
        },
        {
          "duration": 0.4137929999999983,
          "durationTicks": 384,
          "midi": 39,
          "name": "D#2",
          "ticks": 120192,
          "time": 129.517209,
          "velocity": 0.3937007874015748
        },
        {
          "duration": 0.4137929999999983,
          "durationTicks": 384,
          "midi": 40,
          "name": "E2",
          "ticks": 120576,
          "time": 129.931002,
          "velocity": 0.3937007874015748
        },
        {
          "duration": 0.4137929999999983,
          "durationTicks": 384,
          "midi": 43,
          "name": "G2",
          "ticks": 120960,
          "time": 130.344795,
          "velocity": 0.3937007874015748
        },
        {
          "duration": 0.4137929999999983,
          "durationTicks": 384,
          "midi": 50,
          "name": "D3",
          "ticks": 121344,
          "time": 130.758588,
          "velocity": 0.3937007874015748
        },
        {
          "duration": 0.4137929999999983,
          "durationTicks": 384,
          "midi": 43,
          "name": "G2",
          "ticks": 121728,
          "time": 131.172381,
          "velocity": 0.3937007874015748
        },
        {
          "duration": 0.4137929999999983,
          "durationTicks": 384,
          "midi": 38,
          "name": "D2",
          "ticks": 122112,
          "time": 131.586174,
          "velocity": 0.3937007874015748
        },
        {
          "duration": 0.4137929999999983,
          "durationTicks": 384,
          "midi": 42,
          "name": "F#2",
          "ticks": 122496,
          "time": 131.999967,
          "velocity": 0.3937007874015748
        },
        {
          "duration": 0.4137929999999983,
          "durationTicks": 384,
          "midi": 48,
          "name": "C3",
          "ticks": 122880,
          "time": 132.41376,
          "velocity": 0.3937007874015748
        },
        {
          "duration": 0.4137929999999983,
          "durationTicks": 384,
          "midi": 42,
          "name": "F#2",
          "ticks": 123264,
          "time": 132.827553,
          "velocity": 0.3937007874015748
        },
        {
          "duration": 0.4137930000000267,
          "durationTicks": 384,
          "midi": 36,
          "name": "C2",
          "ticks": 123648,
          "time": 133.241346,
          "velocity": 0.3937007874015748
        },
        {
          "duration": 0.4137929999999983,
          "durationTicks": 384,
          "midi": 36,
          "name": "C2",
          "ticks": 124416,
          "time": 134.06893200000002,
          "velocity": 0.3937007874015748
        },
        {
          "duration": 0.4137929999999983,
          "durationTicks": 384,
          "midi": 36,
          "name": "C2",
          "ticks": 125184,
          "time": 134.89651800000001,
          "velocity": 0.3937007874015748
        },
        {
          "duration": 0.4137929999999983,
          "durationTicks": 384,
          "midi": 36,
          "name": "C2",
          "ticks": 125952,
          "time": 135.724104,
          "velocity": 0.3937007874015748
        },
        {
          "duration": 0.4137929999999983,
          "durationTicks": 384,
          "midi": 35,
          "name": "B1",
          "ticks": 126720,
          "time": 136.55169,
          "velocity": 0.3937007874015748
        },
        {
          "duration": 0.4137929999999983,
          "durationTicks": 384,
          "midi": 35,
          "name": "B1",
          "ticks": 127488,
          "time": 137.379276,
          "velocity": 0.3937007874015748
        },
        {
          "duration": 0.4137929999999983,
          "durationTicks": 384,
          "midi": 35,
          "name": "B1",
          "ticks": 128256,
          "time": 138.206862,
          "velocity": 0.3937007874015748
        },
        {
          "duration": 0.4137929999999983,
          "durationTicks": 384,
          "midi": 35,
          "name": "B1",
          "ticks": 129024,
          "time": 139.034448,
          "velocity": 0.3937007874015748
        },
        {
          "duration": 0.4137930000000267,
          "durationTicks": 384,
          "midi": 40,
          "name": "E2",
          "ticks": 129792,
          "time": 139.862034,
          "velocity": 0.3937007874015748
        },
        {
          "duration": 0.4137929999999983,
          "durationTicks": 384,
          "midi": 40,
          "name": "E2",
          "ticks": 130560,
          "time": 140.68962000000002,
          "velocity": 0.3937007874015748
        },
        {
          "duration": 0.4137929999999983,
          "durationTicks": 384,
          "midi": 40,
          "name": "E2",
          "ticks": 131328,
          "time": 141.51720600000002,
          "velocity": 0.3937007874015748
        },
        {
          "duration": 0.4137929999999983,
          "durationTicks": 384,
          "midi": 40,
          "name": "E2",
          "ticks": 132096,
          "time": 142.344792,
          "velocity": 0.3937007874015748
        },
        {
          "duration": 0.4137929999999983,
          "durationTicks": 384,
          "midi": 38,
          "name": "D2",
          "ticks": 132864,
          "time": 143.172378,
          "velocity": 0.3937007874015748
        },
        {
          "duration": 0.4137929999999983,
          "durationTicks": 384,
          "midi": 38,
          "name": "D2",
          "ticks": 133632,
          "time": 143.999964,
          "velocity": 0.3937007874015748
        },
        {
          "duration": 0.4137929999999983,
          "durationTicks": 384,
          "midi": 38,
          "name": "D2",
          "ticks": 134400,
          "time": 144.82755,
          "velocity": 0.3937007874015748
        },
        {
          "duration": 0.4137929999999983,
          "durationTicks": 384,
          "midi": 38,
          "name": "D2",
          "ticks": 135168,
          "time": 145.655136,
          "velocity": 0.3937007874015748
        },
        {
          "duration": 0.4137929999999983,
          "durationTicks": 384,
          "midi": 38,
          "name": "D2",
          "ticks": 135936,
          "time": 146.482722,
          "velocity": 0.3937007874015748
        }
      ],
      "endOfTrackTicks": 136320
    },
    {
      "channel": 10,
      "controlChanges": {},
      "pitchBends": [],
      "instrument": {
        "family": "pipe",
        "number": 73,
        "name": "flute"
      },
      "name": "Flute",
      "notes": [
        {
          "duration": 0.4137929999999983,
          "durationTicks": 384,
          "midi": 49,
          "name": "C#3",
          "ticks": 99072,
          "time": 106.758594,
          "velocity": 0.3937007874015748
        },
        {
          "duration": 0.4137929999999983,
          "durationTicks": 384,
          "midi": 53,
          "name": "F3",
          "ticks": 99456,
          "time": 107.172387,
          "velocity": 0.3937007874015748
        },
        {
          "duration": 0.4137930000000125,
          "durationTicks": 384,
          "midi": 60,
          "name": "C4",
          "ticks": 99840,
          "time": 107.58618,
          "velocity": 0.3937007874015748
        },
        {
          "duration": 0.4137929999999983,
          "durationTicks": 384,
          "midi": 53,
          "name": "F3",
          "ticks": 100224,
          "time": 107.99997300000001,
          "velocity": 0.3937007874015748
        },
        {
          "duration": 0.4137929999999983,
          "durationTicks": 384,
          "midi": 48,
          "name": "C3",
          "ticks": 100608,
          "time": 108.41376600000001,
          "velocity": 0.3937007874015748
        },
        {
          "duration": 0.4137929999999983,
          "durationTicks": 384,
          "midi": 52,
          "name": "E3",
          "ticks": 100992,
          "time": 108.82755900000001,
          "velocity": 0.3937007874015748
        },
        {
          "duration": 0.4137929999999983,
          "durationTicks": 384,
          "midi": 58,
          "name": "A#3",
          "ticks": 101376,
          "time": 109.241352,
          "velocity": 0.3937007874015748
        },
        {
          "duration": 0.4137929999999983,
          "durationTicks": 384,
          "midi": 52,
          "name": "E3",
          "ticks": 101760,
          "time": 109.655145,
          "velocity": 0.3937007874015748
        },
        {
          "duration": 0.4137929999999983,
          "durationTicks": 384,
          "midi": 53,
          "name": "F3",
          "ticks": 102144,
          "time": 110.068938,
          "velocity": 0.3937007874015748
        },
        {
          "duration": 0.4137929999999983,
          "durationTicks": 384,
          "midi": 56,
          "name": "G#3",
          "ticks": 102528,
          "time": 110.482731,
          "velocity": 0.3937007874015748
        },
        {
          "duration": 0.4137930000000125,
          "durationTicks": 384,
          "midi": 63,
          "name": "D#4",
          "ticks": 102912,
          "time": 110.896524,
          "velocity": 0.3937007874015748
        },
        {
          "duration": 0.4137929999999983,
          "durationTicks": 384,
          "midi": 56,
          "name": "G#3",
          "ticks": 103296,
          "time": 111.31031700000001,
          "velocity": 0.3937007874015748
        },
        {
          "duration": 0.4137929999999983,
          "durationTicks": 384,
          "midi": 51,
          "name": "D#3",
          "ticks": 103680,
          "time": 111.72411000000001,
          "velocity": 0.3937007874015748
        },
        {
          "duration": 0.4137929999999983,
          "durationTicks": 384,
          "midi": 55,
          "name": "G3",
          "ticks": 104064,
          "time": 112.13790300000001,
          "velocity": 0.3937007874015748
        },
        {
          "duration": 0.4137929999999983,
          "durationTicks": 384,
          "midi": 61,
          "name": "C#4",
          "ticks": 104448,
          "time": 112.551696,
          "velocity": 0.3937007874015748
        },
        {
          "duration": 0.4137929999999983,
          "durationTicks": 384,
          "midi": 55,
          "name": "G3",
          "ticks": 104832,
          "time": 112.965489,
          "velocity": 0.3937007874015748
        },
        {
          "duration": 0.4137929999999983,
          "durationTicks": 384,
          "midi": 49,
          "name": "C#3",
          "ticks": 105216,
          "time": 113.379282,
          "velocity": 0.3937007874015748
        },
        {
          "duration": 0.4137929999999983,
          "durationTicks": 384,
          "midi": 53,
          "name": "F3",
          "ticks": 105600,
          "time": 113.793075,
          "velocity": 0.3937007874015748
        },
        {
          "duration": 0.4137930000000125,
          "durationTicks": 384,
          "midi": 60,
          "name": "C4",
          "ticks": 105984,
          "time": 114.206868,
          "velocity": 0.3937007874015748
        },
        {
          "duration": 0.4137929999999983,
          "durationTicks": 384,
          "midi": 53,
          "name": "F3",
          "ticks": 106368,
          "time": 114.62066100000001,
          "velocity": 0.3937007874015748
        },
        {
          "duration": 0.4137929999999983,
          "durationTicks": 384,
          "midi": 48,
          "name": "C3",
          "ticks": 106752,
          "time": 115.03445400000001,
          "velocity": 0.3937007874015748
        },
        {
          "duration": 0.4137929999999983,
          "durationTicks": 384,
          "midi": 52,
          "name": "E3",
          "ticks": 107136,
          "time": 115.44824700000001,
          "velocity": 0.3937007874015748
        },
        {
          "duration": 0.4137929999999983,
          "durationTicks": 384,
          "midi": 58,
          "name": "A#3",
          "ticks": 107520,
          "time": 115.86204000000001,
          "velocity": 0.3937007874015748
        },
        {
          "duration": 0.4137929999999983,
          "durationTicks": 384,
          "midi": 52,
          "name": "E3",
          "ticks": 107904,
          "time": 116.275833,
          "velocity": 0.3937007874015748
        },
        {
          "duration": 0.4137929999999983,
          "durationTicks": 384,
          "midi": 53,
          "name": "F3",
          "ticks": 108288,
          "time": 116.689626,
          "velocity": 0.3937007874015748
        },
        {
          "duration": 0.4137929999999983,
          "durationTicks": 384,
          "midi": 56,
          "name": "G#3",
          "ticks": 108672,
          "time": 117.103419,
          "velocity": 0.3937007874015748
        },
        {
          "duration": 0.4137930000000125,
          "durationTicks": 384,
          "midi": 63,
          "name": "D#4",
          "ticks": 109056,
          "time": 117.517212,
          "velocity": 0.3937007874015748
        },
        {
          "duration": 0.4137929999999983,
          "durationTicks": 384,
          "midi": 56,
          "name": "G#3",
          "ticks": 109440,
          "time": 117.93100500000001,
          "velocity": 0.3937007874015748
        },
        {
          "duration": 0.4137929999999983,
          "durationTicks": 384,
          "midi": 51,
          "name": "D#3",
          "ticks": 109824,
          "time": 118.34479800000001,
          "velocity": 0.3937007874015748
        },
        {
          "duration": 0.4137929999999983,
          "durationTicks": 384,
          "midi": 55,
          "name": "G3",
          "ticks": 110208,
          "time": 118.75859100000001,
          "velocity": 0.3937007874015748
        },
        {
          "duration": 0.4137929999999983,
          "durationTicks": 384,
          "midi": 61,
          "name": "C#4",
          "ticks": 110592,
          "time": 119.17238400000001,
          "velocity": 0.3937007874015748
        },
        {
          "duration": 0.4137929999999983,
          "durationTicks": 384,
          "midi": 55,
          "name": "G3",
          "ticks": 110976,
          "time": 119.586177,
          "velocity": 0.3937007874015748
        },
        {
          "duration": 0.4137929999999983,
          "durationTicks": 384,
          "midi": 48,
          "name": "C3",
          "ticks": 111360,
          "time": 119.99997,
          "velocity": 0.3937007874015748
        },
        {
          "duration": 0.4137929999999983,
          "durationTicks": 384,
          "midi": 52,
          "name": "E3",
          "ticks": 111744,
          "time": 120.413763,
          "velocity": 0.3937007874015748
        },
        {
          "duration": 0.4137929999999983,
          "durationTicks": 384,
          "midi": 59,
          "name": "B3",
          "ticks": 112128,
          "time": 120.827556,
          "velocity": 0.3937007874015748
        },
        {
          "duration": 0.4137930000000125,
          "durationTicks": 384,
          "midi": 52,
          "name": "E3",
          "ticks": 112512,
          "time": 121.241349,
          "velocity": 0.3937007874015748
        },
        {
          "duration": 0.4137929999999983,
          "durationTicks": 384,
          "midi": 47,
          "name": "B2",
          "ticks": 112896,
          "time": 121.65514200000001,
          "velocity": 0.3937007874015748
        },
        {
          "duration": 0.4137929999999983,
          "durationTicks": 384,
          "midi": 51,
          "name": "D#3",
          "ticks": 113280,
          "time": 122.06893500000001,
          "velocity": 0.3937007874015748
        },
        {
          "duration": 0.4137929999999983,
          "durationTicks": 384,
          "midi": 57,
          "name": "A3",
          "ticks": 113664,
          "time": 122.48272800000001,
          "velocity": 0.3937007874015748
        },
        {
          "duration": 0.4137929999999983,
          "durationTicks": 384,
          "midi": 51,
          "name": "D#3",
          "ticks": 114048,
          "time": 122.896521,
          "velocity": 0.3937007874015748
        },
        {
          "duration": 0.4137929999999983,
          "durationTicks": 384,
          "midi": 52,
          "name": "E3",
          "ticks": 114432,
          "time": 123.310314,
          "velocity": 0.3937007874015748
        },
        {
          "duration": 0.4137929999999983,
          "durationTicks": 384,
          "midi": 55,
          "name": "G3",
          "ticks": 114816,
          "time": 123.724107,
          "velocity": 0.3937007874015748
        },
        {
          "duration": 0.4137929999999983,
          "durationTicks": 384,
          "midi": 62,
          "name": "D4",
          "ticks": 115200,
          "time": 124.1379,
          "velocity": 0.3937007874015748
        },
        {
          "duration": 0.4137930000000125,
          "durationTicks": 384,
          "midi": 55,
          "name": "G3",
          "ticks": 115584,
          "time": 124.551693,
          "velocity": 0.3937007874015748
        },
        {
          "duration": 0.4137929999999983,
          "durationTicks": 384,
          "midi": 50,
          "name": "D3",
          "ticks": 115968,
          "time": 124.96548600000001,
          "velocity": 0.3937007874015748
        },
        {
          "duration": 0.4137929999999983,
          "durationTicks": 384,
          "midi": 54,
          "name": "F#3",
          "ticks": 116352,
          "time": 125.37927900000001,
          "velocity": 0.3937007874015748
        },
        {
          "duration": 0.4137929999999983,
          "durationTicks": 384,
          "midi": 60,
          "name": "C4",
          "ticks": 116736,
          "time": 125.79307200000001,
          "velocity": 0.3937007874015748
        },
        {
          "duration": 0.4137929999999983,
          "durationTicks": 384,
          "midi": 54,
          "name": "F#3",
          "ticks": 117120,
          "time": 126.20686500000001,
          "velocity": 0.3937007874015748
        },
        {
          "duration": 0.4137929999999983,
          "durationTicks": 384,
          "midi": 48,
          "name": "C3",
          "ticks": 117504,
          "time": 126.620658,
          "velocity": 0.3937007874015748
        },
        {
          "duration": 0.4137929999999983,
          "durationTicks": 384,
          "midi": 52,
          "name": "E3",
          "ticks": 117888,
          "time": 127.034451,
          "velocity": 0.3937007874015748
        },
        {
          "duration": 0.4137929999999983,
          "durationTicks": 384,
          "midi": 59,
          "name": "B3",
          "ticks": 118272,
          "time": 127.448244,
          "velocity": 0.3937007874015748
        },
        {
          "duration": 0.4137930000000125,
          "durationTicks": 384,
          "midi": 52,
          "name": "E3",
          "ticks": 118656,
          "time": 127.862037,
          "velocity": 0.3937007874015748
        },
        {
          "duration": 0.4137929999999983,
          "durationTicks": 384,
          "midi": 47,
          "name": "B2",
          "ticks": 119040,
          "time": 128.27583,
          "velocity": 0.3937007874015748
        },
        {
          "duration": 0.4137929999999983,
          "durationTicks": 384,
          "midi": 51,
          "name": "D#3",
          "ticks": 119424,
          "time": 128.689623,
          "velocity": 0.3937007874015748
        },
        {
          "duration": 0.4137929999999983,
          "durationTicks": 384,
          "midi": 57,
          "name": "A3",
          "ticks": 119808,
          "time": 129.103416,
          "velocity": 0.3937007874015748
        },
        {
          "duration": 0.4137929999999983,
          "durationTicks": 384,
          "midi": 51,
          "name": "D#3",
          "ticks": 120192,
          "time": 129.517209,
          "velocity": 0.3937007874015748
        },
        {
          "duration": 0.4137929999999983,
          "durationTicks": 384,
          "midi": 52,
          "name": "E3",
          "ticks": 120576,
          "time": 129.931002,
          "velocity": 0.3937007874015748
        },
        {
          "duration": 0.4137929999999983,
          "durationTicks": 384,
          "midi": 55,
          "name": "G3",
          "ticks": 120960,
          "time": 130.344795,
          "velocity": 0.3937007874015748
        },
        {
          "duration": 0.4137929999999983,
          "durationTicks": 384,
          "midi": 62,
          "name": "D4",
          "ticks": 121344,
          "time": 130.758588,
          "velocity": 0.3937007874015748
        },
        {
          "duration": 0.4137929999999983,
          "durationTicks": 384,
          "midi": 55,
          "name": "G3",
          "ticks": 121728,
          "time": 131.172381,
          "velocity": 0.3937007874015748
        },
        {
          "duration": 0.4137929999999983,
          "durationTicks": 384,
          "midi": 50,
          "name": "D3",
          "ticks": 122112,
          "time": 131.586174,
          "velocity": 0.3937007874015748
        },
        {
          "duration": 0.4137929999999983,
          "durationTicks": 384,
          "midi": 54,
          "name": "F#3",
          "ticks": 122496,
          "time": 131.999967,
          "velocity": 0.3937007874015748
        },
        {
          "duration": 0.4137929999999983,
          "durationTicks": 384,
          "midi": 60,
          "name": "C4",
          "ticks": 122880,
          "time": 132.41376,
          "velocity": 0.3937007874015748
        },
        {
          "duration": 0.4137929999999983,
          "durationTicks": 384,
          "midi": 54,
          "name": "F#3",
          "ticks": 123264,
          "time": 132.827553,
          "velocity": 0.3937007874015748
        }
      ],
      "endOfTrackTicks": 123648
    },
    {
      "channel": 11,
      "controlChanges": {},
      "pitchBends": [],
      "instrument": {
        "family": "piano",
        "number": 3,
        "name": "honky-tonk piano"
      },
      "name": "Ragtime Piano",
      "notes": [
        {
          "duration": 0.20689650000001336,
          "durationTicks": 192,
          "midi": 49,
          "name": "C#3",
          "ticks": 74496,
          "time": 80.275842,
          "velocity": 0.3937007874015748
        },
        {
          "duration": 0.20689649999999915,
          "durationTicks": 192,
          "midi": 49,
          "name": "C#3",
          "ticks": 74880,
          "time": 80.68963500000001,
          "velocity": 0.3937007874015748
        },
        {
          "duration": 0.20689649999999915,
          "durationTicks": 192,
          "midi": 49,
          "name": "C#3",
          "ticks": 75264,
          "time": 81.10342800000001,
          "velocity": 0.3937007874015748
        },
        {
          "duration": 0.20689649999999915,
          "durationTicks": 192,
          "midi": 49,
          "name": "C#3",
          "ticks": 75648,
          "time": 81.517221,
          "velocity": 0.3937007874015748
        },
        {
          "duration": 0.20689649999999915,
          "durationTicks": 192,
          "midi": 48,
          "name": "C3",
          "ticks": 76032,
          "time": 81.931014,
          "velocity": 0.3937007874015748
        },
        {
          "duration": 0.20689649999999915,
          "durationTicks": 192,
          "midi": 48,
          "name": "C3",
          "ticks": 76416,
          "time": 82.344807,
          "velocity": 0.3937007874015748
        },
        {
          "duration": 0.20689649999999915,
          "durationTicks": 192,
          "midi": 48,
          "name": "C3",
          "ticks": 76800,
          "time": 82.7586,
          "velocity": 0.3937007874015748
        },
        {
          "duration": 0.20689649999999915,
          "durationTicks": 192,
          "midi": 48,
          "name": "C3",
          "ticks": 77184,
          "time": 83.172393,
          "velocity": 0.3937007874015748
        },
        {
          "duration": 0.20689650000001336,
          "durationTicks": 192,
          "midi": 53,
          "name": "F3",
          "ticks": 77568,
          "time": 83.586186,
          "velocity": 0.3937007874015748
        },
        {
          "duration": 0.20689649999999915,
          "durationTicks": 192,
          "midi": 53,
          "name": "F3",
          "ticks": 77952,
          "time": 83.99997900000001,
          "velocity": 0.3937007874015748
        },
        {
          "duration": 0.20689649999999915,
          "durationTicks": 192,
          "midi": 53,
          "name": "F3",
          "ticks": 78336,
          "time": 84.41377200000001,
          "velocity": 0.3937007874015748
        },
        {
          "duration": 0.20689649999999915,
          "durationTicks": 192,
          "midi": 53,
          "name": "F3",
          "ticks": 78720,
          "time": 84.827565,
          "velocity": 0.3937007874015748
        },
        {
          "duration": 0.20689649999999915,
          "durationTicks": 192,
          "midi": 51,
          "name": "D#3",
          "ticks": 79104,
          "time": 85.241358,
          "velocity": 0.3937007874015748
        },
        {
          "duration": 0.20689649999999915,
          "durationTicks": 192,
          "midi": 51,
          "name": "D#3",
          "ticks": 79488,
          "time": 85.655151,
          "velocity": 0.3937007874015748
        },
        {
          "duration": 0.20689649999999915,
          "durationTicks": 192,
          "midi": 51,
          "name": "D#3",
          "ticks": 79872,
          "time": 86.068944,
          "velocity": 0.3937007874015748
        },
        {
          "duration": 0.20689649999999915,
          "durationTicks": 192,
          "midi": 51,
          "name": "D#3",
          "ticks": 80256,
          "time": 86.482737,
          "velocity": 0.3937007874015748
        },
        {
          "duration": 0.20689649999999915,
          "durationTicks": 192,
          "midi": 49,
          "name": "C#3",
          "ticks": 80640,
          "time": 86.89653,
          "velocity": 0.3937007874015748
        },
        {
          "duration": 0.20689649999999915,
          "durationTicks": 192,
          "midi": 49,
          "name": "C#3",
          "ticks": 81024,
          "time": 87.31032300000001,
          "velocity": 0.3937007874015748
        },
        {
          "duration": 0.20689649999999915,
          "durationTicks": 192,
          "midi": 49,
          "name": "C#3",
          "ticks": 81408,
          "time": 87.72411600000001,
          "velocity": 0.3937007874015748
        },
        {
          "duration": 0.20689649999999915,
          "durationTicks": 192,
          "midi": 49,
          "name": "C#3",
          "ticks": 81792,
          "time": 88.13790900000001,
          "velocity": 0.3937007874015748
        },
        {
          "duration": 0.20689649999999915,
          "durationTicks": 192,
          "midi": 48,
          "name": "C3",
          "ticks": 82176,
          "time": 88.551702,
          "velocity": 0.3937007874015748
        },
        {
          "duration": 0.20689649999999915,
          "durationTicks": 192,
          "midi": 48,
          "name": "C3",
          "ticks": 82560,
          "time": 88.965495,
          "velocity": 0.3937007874015748
        },
        {
          "duration": 0.20689649999999915,
          "durationTicks": 192,
          "midi": 48,
          "name": "C3",
          "ticks": 82944,
          "time": 89.379288,
          "velocity": 0.3937007874015748
        },
        {
          "duration": 0.20689649999999915,
          "durationTicks": 192,
          "midi": 48,
          "name": "C3",
          "ticks": 83328,
          "time": 89.793081,
          "velocity": 0.3937007874015748
        },
        {
          "duration": 0.20689649999999915,
          "durationTicks": 192,
          "midi": 53,
          "name": "F3",
          "ticks": 83712,
          "time": 90.206874,
          "velocity": 0.3937007874015748
        },
        {
          "duration": 0.20689649999999915,
          "durationTicks": 192,
          "midi": 53,
          "name": "F3",
          "ticks": 84096,
          "time": 90.62066700000001,
          "velocity": 0.3937007874015748
        },
        {
          "duration": 0.20689649999999915,
          "durationTicks": 192,
          "midi": 53,
          "name": "F3",
          "ticks": 84480,
          "time": 91.03446000000001,
          "velocity": 0.3937007874015748
        },
        {
          "duration": 0.20689649999999915,
          "durationTicks": 192,
          "midi": 53,
          "name": "F3",
          "ticks": 84864,
          "time": 91.44825300000001,
          "velocity": 0.3937007874015748
        },
        {
          "duration": 0.20689649999999915,
          "durationTicks": 192,
          "midi": 51,
          "name": "D#3",
          "ticks": 85248,
          "time": 91.862046,
          "velocity": 0.3937007874015748
        },
        {
          "duration": 0.20689649999999915,
          "durationTicks": 192,
          "midi": 51,
          "name": "D#3",
          "ticks": 85632,
          "time": 92.275839,
          "velocity": 0.3937007874015748
        },
        {
          "duration": 0.20689649999999915,
          "durationTicks": 192,
          "midi": 51,
          "name": "D#3",
          "ticks": 86016,
          "time": 92.689632,
          "velocity": 0.3937007874015748
        },
        {
          "duration": 0.20689649999999915,
          "durationTicks": 192,
          "midi": 51,
          "name": "D#3",
          "ticks": 86400,
          "time": 93.103425,
          "velocity": 0.3937007874015748
        },
        {
          "duration": 0.20689649999999915,
          "durationTicks": 192,
          "midi": 49,
          "name": "C#3",
          "ticks": 86784,
          "time": 93.517218,
          "velocity": 0.3937007874015748
        },
        {
          "duration": 0.20689650000001336,
          "durationTicks": 192,
          "midi": 49,
          "name": "C#3",
          "ticks": 87168,
          "time": 93.931011,
          "velocity": 0.3937007874015748
        },
        {
          "duration": 0.20689649999999915,
          "durationTicks": 192,
          "midi": 49,
          "name": "C#3",
          "ticks": 87552,
          "time": 94.34480400000001,
          "velocity": 0.3937007874015748
        },
        {
          "duration": 0.20689649999999915,
          "durationTicks": 192,
          "midi": 49,
          "name": "C#3",
          "ticks": 87936,
          "time": 94.75859700000001,
          "velocity": 0.3937007874015748
        },
        {
          "duration": 0.20689649999999915,
          "durationTicks": 192,
          "midi": 48,
          "name": "C3",
          "ticks": 88320,
          "time": 95.17239000000001,
          "velocity": 0.3937007874015748
        },
        {
          "duration": 0.20689649999999915,
          "durationTicks": 192,
          "midi": 48,
          "name": "C3",
          "ticks": 88704,
          "time": 95.586183,
          "velocity": 0.3937007874015748
        },
        {
          "duration": 0.20689649999999915,
          "durationTicks": 192,
          "midi": 48,
          "name": "C3",
          "ticks": 89088,
          "time": 95.999976,
          "velocity": 0.3937007874015748
        },
        {
          "duration": 0.20689649999999915,
          "durationTicks": 192,
          "midi": 48,
          "name": "C3",
          "ticks": 89472,
          "time": 96.413769,
          "velocity": 0.3937007874015748
        },
        {
          "duration": 0.20689649999999915,
          "durationTicks": 192,
          "midi": 53,
          "name": "F3",
          "ticks": 89856,
          "time": 96.827562,
          "velocity": 0.3937007874015748
        },
        {
          "duration": 0.20689650000001336,
          "durationTicks": 192,
          "midi": 53,
          "name": "F3",
          "ticks": 90240,
          "time": 97.241355,
          "velocity": 0.3937007874015748
        },
        {
          "duration": 0.20689649999999915,
          "durationTicks": 192,
          "midi": 53,
          "name": "F3",
          "ticks": 90624,
          "time": 97.65514800000001,
          "velocity": 0.3937007874015748
        },
        {
          "duration": 0.20689649999999915,
          "durationTicks": 192,
          "midi": 53,
          "name": "F3",
          "ticks": 91008,
          "time": 98.06894100000001,
          "velocity": 0.3937007874015748
        },
        {
          "duration": 0.20689649999999915,
          "durationTicks": 192,
          "midi": 51,
          "name": "D#3",
          "ticks": 91392,
          "time": 98.48273400000001,
          "velocity": 0.3937007874015748
        },
        {
          "duration": 0.20689649999999915,
          "durationTicks": 192,
          "midi": 51,
          "name": "D#3",
          "ticks": 91776,
          "time": 98.896527,
          "velocity": 0.3937007874015748
        },
        {
          "duration": 0.20689649999999915,
          "durationTicks": 192,
          "midi": 51,
          "name": "D#3",
          "ticks": 92160,
          "time": 99.31032,
          "velocity": 0.3937007874015748
        },
        {
          "duration": 0.20689649999999915,
          "durationTicks": 192,
          "midi": 51,
          "name": "D#3",
          "ticks": 92544,
          "time": 99.724113,
          "velocity": 0.3937007874015748
        },
        {
          "duration": 0.20689649999999915,
          "durationTicks": 192,
          "midi": 49,
          "name": "C#3",
          "ticks": 92928,
          "time": 100.137906,
          "velocity": 0.3937007874015748
        },
        {
          "duration": 0.20689649999999915,
          "durationTicks": 192,
          "midi": 49,
          "name": "C#3",
          "ticks": 93312,
          "time": 100.551699,
          "velocity": 0.3937007874015748
        },
        {
          "duration": 0.20689649999999915,
          "durationTicks": 192,
          "midi": 49,
          "name": "C#3",
          "ticks": 93312,
          "time": 100.551699,
          "velocity": 0.3937007874015748
        },
        {
          "duration": 0.20689649999999915,
          "durationTicks": 192,
          "midi": 49,
          "name": "C#3",
          "ticks": 93696,
          "time": 100.96549200000001,
          "velocity": 0.3937007874015748
        },
        {
          "duration": 0.20689649999999915,
          "durationTicks": 192,
          "midi": 49,
          "name": "C#3",
          "ticks": 93696,
          "time": 100.96549200000001,
          "velocity": 0.3937007874015748
        },
        {
          "duration": 0.20689649999999915,
          "durationTicks": 192,
          "midi": 49,
          "name": "C#3",
          "ticks": 94080,
          "time": 101.37928500000001,
          "velocity": 0.3937007874015748
        },
        {
          "duration": 0.20689649999999915,
          "durationTicks": 192,
          "midi": 49,
          "name": "C#3",
          "ticks": 94080,
          "time": 101.37928500000001,
          "velocity": 0.3937007874015748
        },
        {
          "duration": 0.20689649999999915,
          "durationTicks": 192,
          "midi": 48,
          "name": "C3",
          "ticks": 94464,
          "time": 101.79307800000001,
          "velocity": 0.3937007874015748
        },
        {
          "duration": 0.20689649999999915,
          "durationTicks": 192,
          "midi": 48,
          "name": "C3",
          "ticks": 94464,
          "time": 101.79307800000001,
          "velocity": 0.3937007874015748
        },
        {
          "duration": 0.20689649999999915,
          "durationTicks": 192,
          "midi": 48,
          "name": "C3",
          "ticks": 94848,
          "time": 102.206871,
          "velocity": 0.3937007874015748
        },
        {
          "duration": 0.20689649999999915,
          "durationTicks": 192,
          "midi": 48,
          "name": "C3",
          "ticks": 94848,
          "time": 102.206871,
          "velocity": 0.3937007874015748
        },
        {
          "duration": 0.20689649999999915,
          "durationTicks": 192,
          "midi": 48,
          "name": "C3",
          "ticks": 95232,
          "time": 102.620664,
          "velocity": 0.3937007874015748
        },
        {
          "duration": 0.20689649999999915,
          "durationTicks": 192,
          "midi": 48,
          "name": "C3",
          "ticks": 95232,
          "time": 102.620664,
          "velocity": 0.3937007874015748
        },
        {
          "duration": 0.20689649999999915,
          "durationTicks": 192,
          "midi": 48,
          "name": "C3",
          "ticks": 95616,
          "time": 103.034457,
          "velocity": 0.3937007874015748
        },
        {
          "duration": 0.20689649999999915,
          "durationTicks": 192,
          "midi": 48,
          "name": "C3",
          "ticks": 95616,
          "time": 103.034457,
          "velocity": 0.3937007874015748
        },
        {
          "duration": 0.20689649999999915,
          "durationTicks": 192,
          "midi": 53,
          "name": "F3",
          "ticks": 96000,
          "time": 103.44825,
          "velocity": 0.3937007874015748
        },
        {
          "duration": 0.20689649999999915,
          "durationTicks": 192,
          "midi": 53,
          "name": "F3",
          "ticks": 96000,
          "time": 103.44825,
          "velocity": 0.3937007874015748
        },
        {
          "duration": 0.20689649999999915,
          "durationTicks": 192,
          "midi": 53,
          "name": "F3",
          "ticks": 96384,
          "time": 103.862043,
          "velocity": 0.3937007874015748
        },
        {
          "duration": 0.20689649999999915,
          "durationTicks": 192,
          "midi": 53,
          "name": "F3",
          "ticks": 96384,
          "time": 103.862043,
          "velocity": 0.3937007874015748
        },
        {
          "duration": 0.20689649999999915,
          "durationTicks": 192,
          "midi": 53,
          "name": "F3",
          "ticks": 96768,
          "time": 104.27583600000001,
          "velocity": 0.3937007874015748
        },
        {
          "duration": 0.20689649999999915,
          "durationTicks": 192,
          "midi": 53,
          "name": "F3",
          "ticks": 96768,
          "time": 104.27583600000001,
          "velocity": 0.3937007874015748
        },
        {
          "duration": 0.20689649999999915,
          "durationTicks": 192,
          "midi": 53,
          "name": "F3",
          "ticks": 97152,
          "time": 104.68962900000001,
          "velocity": 0.3937007874015748
        },
        {
          "duration": 0.20689649999999915,
          "durationTicks": 192,
          "midi": 53,
          "name": "F3",
          "ticks": 97152,
          "time": 104.68962900000001,
          "velocity": 0.3937007874015748
        },
        {
          "duration": 0.20689649999999915,
          "durationTicks": 192,
          "midi": 51,
          "name": "D#3",
          "ticks": 97536,
          "time": 105.10342200000001,
          "velocity": 0.3937007874015748
        },
        {
          "duration": 0.20689649999999915,
          "durationTicks": 192,
          "midi": 51,
          "name": "D#3",
          "ticks": 97536,
          "time": 105.10342200000001,
          "velocity": 0.3937007874015748
        },
        {
          "duration": 0.20689649999999915,
          "durationTicks": 192,
          "midi": 51,
          "name": "D#3",
          "ticks": 97920,
          "time": 105.51721500000001,
          "velocity": 0.3937007874015748
        },
        {
          "duration": 0.20689649999999915,
          "durationTicks": 192,
          "midi": 51,
          "name": "D#3",
          "ticks": 97920,
          "time": 105.51721500000001,
          "velocity": 0.3937007874015748
        },
        {
          "duration": 0.20689649999999915,
          "durationTicks": 192,
          "midi": 51,
          "name": "D#3",
          "ticks": 98304,
          "time": 105.931008,
          "velocity": 0.3937007874015748
        },
        {
          "duration": 0.20689649999999915,
          "durationTicks": 192,
          "midi": 51,
          "name": "D#3",
          "ticks": 98304,
          "time": 105.931008,
          "velocity": 0.3937007874015748
        },
        {
          "duration": 0.20689649999999915,
          "durationTicks": 192,
          "midi": 51,
          "name": "D#3",
          "ticks": 98688,
          "time": 106.344801,
          "velocity": 0.3937007874015748
        },
        {
          "duration": 0.20689649999999915,
          "durationTicks": 192,
          "midi": 51,
          "name": "D#3",
          "ticks": 98688,
          "time": 106.344801,
          "velocity": 0.3937007874015748
        },
        {
          "duration": 1.6551720000000216,
          "durationTicks": 1536,
          "midi": 48,
          "name": "C3",
          "ticks": 123648,
          "time": 133.241346,
          "velocity": 0.3937007874015748
        },
        {
          "duration": 1.6551719999999932,
          "durationTicks": 1536,
          "midi": 52,
          "name": "E3",
          "ticks": 125184,
          "time": 134.89651800000001,
          "velocity": 0.3937007874015748
        },
        {
          "duration": 1.6551719999999932,
          "durationTicks": 1536,
          "midi": 47,
          "name": "B2",
          "ticks": 126720,
          "time": 136.55169,
          "velocity": 0.3937007874015748
        },
        {
          "duration": 1.6551719999999932,
          "durationTicks": 1536,
          "midi": 51,
          "name": "D#3",
          "ticks": 128256,
          "time": 138.206862,
          "velocity": 0.3937007874015748
        },
        {
          "duration": 1.6551720000000216,
          "durationTicks": 1536,
          "midi": 52,
          "name": "E3",
          "ticks": 129792,
          "time": 139.862034,
          "velocity": 0.3937007874015748
        },
        {
          "duration": 1.6551719999999932,
          "durationTicks": 1536,
          "midi": 55,
          "name": "G3",
          "ticks": 131328,
          "time": 141.51720600000002,
          "velocity": 0.3937007874015748
        },
        {
          "duration": 1.6551719999999932,
          "durationTicks": 1536,
          "midi": 50,
          "name": "D3",
          "ticks": 132864,
          "time": 143.172378,
          "velocity": 0.3937007874015748
        },
        {
          "duration": 2.0689649999999915,
          "durationTicks": 1920,
          "midi": 54,
          "name": "F#3",
          "ticks": 134400,
          "time": 144.82755,
          "velocity": 0.3937007874015748
        }
      ],
      "endOfTrackTicks": 136320
    },
    {
      "channel": 12,
      "controlChanges": {},
      "pitchBends": [],
      "instrument": {
        "family": "chromatic percussion",
        "number": 10,
        "name": "music box"
      },
      "name": "Music Box",
      "notes": [
        {
          "duration": 0.20689649999999915,
          "durationTicks": 192,
          "midi": 53,
          "name": "F3",
          "ticks": 74688,
          "time": 80.48273850000001,
          "velocity": 0.3937007874015748
        },
        {
          "duration": 0.20689649999999915,
          "durationTicks": 192,
          "midi": 60,
          "name": "C4",
          "ticks": 74880,
          "time": 80.68963500000001,
          "velocity": 0.3937007874015748
        },
        {
          "duration": 0.20689649999999915,
          "durationTicks": 192,
          "midi": 53,
          "name": "F3",
          "ticks": 75264,
          "time": 81.10342800000001,
          "velocity": 0.3937007874015748
        },
        {
          "duration": 0.20689649999999915,
          "durationTicks": 192,
          "midi": 60,
          "name": "C4",
          "ticks": 75456,
          "time": 81.31032450000001,
          "velocity": 0.3937007874015748
        },
        {
          "duration": 0.20689649999999915,
          "durationTicks": 192,
          "midi": 53,
          "name": "F3",
          "ticks": 75840,
          "time": 81.7241175,
          "velocity": 0.3937007874015748
        },
        {
          "duration": 0.20689649999999915,
          "durationTicks": 192,
          "midi": 52,
          "name": "E3",
          "ticks": 76224,
          "time": 82.1379105,
          "velocity": 0.3937007874015748
        },
        {
          "duration": 0.20689649999999915,
          "durationTicks": 192,
          "midi": 58,
          "name": "A#3",
          "ticks": 76416,
          "time": 82.344807,
          "velocity": 0.3937007874015748
        },
        {
          "duration": 0.20689649999999915,
          "durationTicks": 192,
          "midi": 52,
          "name": "E3",
          "ticks": 76608,
          "time": 82.5517035,
          "velocity": 0.3937007874015748
        },
        {
          "duration": 0.20689649999999915,
          "durationTicks": 192,
          "midi": 58,
          "name": "A#3",
          "ticks": 76800,
          "time": 82.7586,
          "velocity": 0.3937007874015748
        },
        {
          "duration": 0.20689649999999915,
          "durationTicks": 192,
          "midi": 52,
          "name": "E3",
          "ticks": 76992,
          "time": 82.9654965,
          "velocity": 0.3937007874015748
        },
        {
          "duration": 0.20689649999999915,
          "durationTicks": 192,
          "midi": 58,
          "name": "A#3",
          "ticks": 77184,
          "time": 83.172393,
          "velocity": 0.3937007874015748
        },
        {
          "duration": 0.20689649999999915,
          "durationTicks": 192,
          "midi": 56,
          "name": "G#3",
          "ticks": 77760,
          "time": 83.79308250000001,
          "velocity": 0.3937007874015748
        },
        {
          "duration": 0.20689649999999915,
          "durationTicks": 192,
          "midi": 63,
          "name": "D#4",
          "ticks": 77952,
          "time": 83.99997900000001,
          "velocity": 0.3937007874015748
        },
        {
          "duration": 0.20689649999999915,
          "durationTicks": 192,
          "midi": 56,
          "name": "G#3",
          "ticks": 78144,
          "time": 84.20687550000001,
          "velocity": 0.3937007874015748
        },
        {
          "duration": 0.20689649999999915,
          "durationTicks": 192,
          "midi": 63,
          "name": "D#4",
          "ticks": 78336,
          "time": 84.41377200000001,
          "velocity": 0.3937007874015748
        },
        {
          "duration": 0.20689649999999915,
          "durationTicks": 192,
          "midi": 56,
          "name": "G#3",
          "ticks": 78528,
          "time": 84.62066850000001,
          "velocity": 0.3937007874015748
        },
        {
          "duration": 0.20689649999999915,
          "durationTicks": 192,
          "midi": 63,
          "name": "D#4",
          "ticks": 78720,
          "time": 84.827565,
          "velocity": 0.3937007874015748
        },
        {
          "duration": 0.20689649999999915,
          "durationTicks": 192,
          "midi": 55,
          "name": "G3",
          "ticks": 79296,
          "time": 85.4482545,
          "velocity": 0.3937007874015748
        },
        {
          "duration": 0.20689649999999915,
          "durationTicks": 192,
          "midi": 61,
          "name": "C#4",
          "ticks": 79488,
          "time": 85.655151,
          "velocity": 0.3937007874015748
        },
        {
          "duration": 0.20689649999999915,
          "durationTicks": 192,
          "midi": 55,
          "name": "G3",
          "ticks": 79680,
          "time": 85.8620475,
          "velocity": 0.3937007874015748
        },
        {
          "duration": 0.20689649999999915,
          "durationTicks": 192,
          "midi": 61,
          "name": "C#4",
          "ticks": 79872,
          "time": 86.068944,
          "velocity": 0.3937007874015748
        },
        {
          "duration": 0.20689649999999915,
          "durationTicks": 192,
          "midi": 55,
          "name": "G3",
          "ticks": 80064,
          "time": 86.2758405,
          "velocity": 0.3937007874015748
        },
        {
          "duration": 0.20689649999999915,
          "durationTicks": 192,
          "midi": 61,
          "name": "C#4",
          "ticks": 80256,
          "time": 86.482737,
          "velocity": 0.3937007874015748
        },
        {
          "duration": 0.20689650000001336,
          "durationTicks": 192,
          "midi": 53,
          "name": "F3",
          "ticks": 80832,
          "time": 87.1034265,
          "velocity": 0.3937007874015748
        },
        {
          "duration": 0.20689649999999915,
          "durationTicks": 192,
          "midi": 60,
          "name": "C4",
          "ticks": 81024,
          "time": 87.31032300000001,
          "velocity": 0.3937007874015748
        },
        {
          "duration": 0.20689649999999915,
          "durationTicks": 192,
          "midi": 53,
          "name": "F3",
          "ticks": 81408,
          "time": 87.72411600000001,
          "velocity": 0.3937007874015748
        },
        {
          "duration": 0.20689649999999915,
          "durationTicks": 192,
          "midi": 60,
          "name": "C4",
          "ticks": 81600,
          "time": 87.93101250000001,
          "velocity": 0.3937007874015748
        },
        {
          "duration": 0.20689649999999915,
          "durationTicks": 192,
          "midi": 53,
          "name": "F3",
          "ticks": 81984,
          "time": 88.3448055,
          "velocity": 0.3937007874015748
        },
        {
          "duration": 0.20689649999999915,
          "durationTicks": 192,
          "midi": 52,
          "name": "E3",
          "ticks": 82368,
          "time": 88.7585985,
          "velocity": 0.3937007874015748
        },
        {
          "duration": 0.20689649999999915,
          "durationTicks": 192,
          "midi": 58,
          "name": "A#3",
          "ticks": 82560,
          "time": 88.965495,
          "velocity": 0.3937007874015748
        },
        {
          "duration": 0.20689649999999915,
          "durationTicks": 192,
          "midi": 52,
          "name": "E3",
          "ticks": 82752,
          "time": 89.1723915,
          "velocity": 0.3937007874015748
        },
        {
          "duration": 0.20689649999999915,
          "durationTicks": 192,
          "midi": 58,
          "name": "A#3",
          "ticks": 82944,
          "time": 89.379288,
          "velocity": 0.3937007874015748
        },
        {
          "duration": 0.20689649999999915,
          "durationTicks": 192,
          "midi": 52,
          "name": "E3",
          "ticks": 83136,
          "time": 89.5861845,
          "velocity": 0.3937007874015748
        },
        {
          "duration": 0.20689649999999915,
          "durationTicks": 192,
          "midi": 58,
          "name": "A#3",
          "ticks": 83328,
          "time": 89.793081,
          "velocity": 0.3937007874015748
        },
        {
          "duration": 0.20689650000001336,
          "durationTicks": 192,
          "midi": 56,
          "name": "G#3",
          "ticks": 83904,
          "time": 90.4137705,
          "velocity": 0.3937007874015748
        },
        {
          "duration": 0.20689649999999915,
          "durationTicks": 192,
          "midi": 63,
          "name": "D#4",
          "ticks": 84096,
          "time": 90.62066700000001,
          "velocity": 0.3937007874015748
        },
        {
          "duration": 0.20689649999999915,
          "durationTicks": 192,
          "midi": 56,
          "name": "G#3",
          "ticks": 84288,
          "time": 90.82756350000001,
          "velocity": 0.3937007874015748
        },
        {
          "duration": 0.20689649999999915,
          "durationTicks": 192,
          "midi": 63,
          "name": "D#4",
          "ticks": 84480,
          "time": 91.03446000000001,
          "velocity": 0.3937007874015748
        },
        {
          "duration": 0.20689649999999915,
          "durationTicks": 192,
          "midi": 56,
          "name": "G#3",
          "ticks": 84672,
          "time": 91.24135650000001,
          "velocity": 0.3937007874015748
        },
        {
          "duration": 0.20689649999999915,
          "durationTicks": 192,
          "midi": 63,
          "name": "D#4",
          "ticks": 84864,
          "time": 91.44825300000001,
          "velocity": 0.3937007874015748
        },
        {
          "duration": 0.20689649999999915,
          "durationTicks": 192,
          "midi": 55,
          "name": "G3",
          "ticks": 85440,
          "time": 92.0689425,
          "velocity": 0.3937007874015748
        },
        {
          "duration": 0.20689649999999915,
          "durationTicks": 192,
          "midi": 61,
          "name": "C#4",
          "ticks": 85632,
          "time": 92.275839,
          "velocity": 0.3937007874015748
        },
        {
          "duration": 0.20689649999999915,
          "durationTicks": 192,
          "midi": 55,
          "name": "G3",
          "ticks": 85824,
          "time": 92.4827355,
          "velocity": 0.3937007874015748
        },
        {
          "duration": 0.20689649999999915,
          "durationTicks": 192,
          "midi": 61,
          "name": "C#4",
          "ticks": 86016,
          "time": 92.689632,
          "velocity": 0.3937007874015748
        },
        {
          "duration": 0.20689649999999915,
          "durationTicks": 192,
          "midi": 55,
          "name": "G3",
          "ticks": 86208,
          "time": 92.8965285,
          "velocity": 0.3937007874015748
        },
        {
          "duration": 0.20689649999999915,
          "durationTicks": 192,
          "midi": 61,
          "name": "C#4",
          "ticks": 86400,
          "time": 93.103425,
          "velocity": 0.3937007874015748
        },
        {
          "duration": 0.20689649999999915,
          "durationTicks": 192,
          "midi": 53,
          "name": "F3",
          "ticks": 86784,
          "time": 93.517218,
          "velocity": 0.3937007874015748
        },
        {
          "duration": 0.20689649999999915,
          "durationTicks": 192,
          "midi": 60,
          "name": "C4",
          "ticks": 86976,
          "time": 93.7241145,
          "velocity": 0.3937007874015748
        },
        {
          "duration": 0.20689649999999915,
          "durationTicks": 192,
          "midi": 53,
          "name": "F3",
          "ticks": 87360,
          "time": 94.13790750000001,
          "velocity": 0.3937007874015748
        },
        {
          "duration": 0.20689649999999915,
          "durationTicks": 192,
          "midi": 60,
          "name": "C4",
          "ticks": 87552,
          "time": 94.34480400000001,
          "velocity": 0.3937007874015748
        },
        {
          "duration": 0.20689649999999915,
          "durationTicks": 192,
          "midi": 53,
          "name": "F3",
          "ticks": 87936,
          "time": 94.75859700000001,
          "velocity": 0.3937007874015748
        },
        {
          "duration": 0.20689649999999915,
          "durationTicks": 192,
          "midi": 52,
          "name": "E3",
          "ticks": 88320,
          "time": 95.17239000000001,
          "velocity": 0.3937007874015748
        },
        {
          "duration": 0.20689649999999915,
          "durationTicks": 192,
          "midi": 58,
          "name": "A#3",
          "ticks": 88512,
          "time": 95.3792865,
          "velocity": 0.3937007874015748
        },
        {
          "duration": 0.20689649999999915,
          "durationTicks": 192,
          "midi": 52,
          "name": "E3",
          "ticks": 88704,
          "time": 95.586183,
          "velocity": 0.3937007874015748
        },
        {
          "duration": 0.20689649999999915,
          "durationTicks": 192,
          "midi": 58,
          "name": "A#3",
          "ticks": 88896,
          "time": 95.7930795,
          "velocity": 0.3937007874015748
        },
        {
          "duration": 0.20689649999999915,
          "durationTicks": 192,
          "midi": 52,
          "name": "E3",
          "ticks": 89088,
          "time": 95.999976,
          "velocity": 0.3937007874015748
        },
        {
          "duration": 0.20689649999999915,
          "durationTicks": 192,
          "midi": 58,
          "name": "A#3",
          "ticks": 89280,
          "time": 96.2068725,
          "velocity": 0.3937007874015748
        },
        {
          "duration": 0.20689649999999915,
          "durationTicks": 192,
          "midi": 56,
          "name": "G#3",
          "ticks": 89856,
          "time": 96.827562,
          "velocity": 0.3937007874015748
        },
        {
          "duration": 0.20689649999999915,
          "durationTicks": 192,
          "midi": 63,
          "name": "D#4",
          "ticks": 90048,
          "time": 97.0344585,
          "velocity": 0.3937007874015748
        },
        {
          "duration": 0.20689650000001336,
          "durationTicks": 192,
          "midi": 56,
          "name": "G#3",
          "ticks": 90240,
          "time": 97.241355,
          "velocity": 0.3937007874015748
        },
        {
          "duration": 0.20689649999999915,
          "durationTicks": 192,
          "midi": 63,
          "name": "D#4",
          "ticks": 90432,
          "time": 97.44825150000001,
          "velocity": 0.3937007874015748
        },
        {
          "duration": 0.20689649999999915,
          "durationTicks": 192,
          "midi": 56,
          "name": "G#3",
          "ticks": 90624,
          "time": 97.65514800000001,
          "velocity": 0.3937007874015748
        },
        {
          "duration": 0.20689649999999915,
          "durationTicks": 192,
          "midi": 63,
          "name": "D#4",
          "ticks": 90816,
          "time": 97.86204450000001,
          "velocity": 0.3937007874015748
        },
        {
          "duration": 0.20689649999999915,
          "durationTicks": 192,
          "midi": 55,
          "name": "G3",
          "ticks": 91392,
          "time": 98.48273400000001,
          "velocity": 0.3937007874015748
        },
        {
          "duration": 0.20689649999999915,
          "durationTicks": 192,
          "midi": 61,
          "name": "C#4",
          "ticks": 91584,
          "time": 98.6896305,
          "velocity": 0.3937007874015748
        },
        {
          "duration": 0.20689649999999915,
          "durationTicks": 192,
          "midi": 55,
          "name": "G3",
          "ticks": 91776,
          "time": 98.896527,
          "velocity": 0.3937007874015748
        },
        {
          "duration": 0.20689649999999915,
          "durationTicks": 192,
          "midi": 61,
          "name": "C#4",
          "ticks": 91968,
          "time": 99.1034235,
          "velocity": 0.3937007874015748
        },
        {
          "duration": 0.20689649999999915,
          "durationTicks": 192,
          "midi": 55,
          "name": "G3",
          "ticks": 92160,
          "time": 99.31032,
          "velocity": 0.3937007874015748
        },
        {
          "duration": 0.20689649999999915,
          "durationTicks": 192,
          "midi": 61,
          "name": "C#4",
          "ticks": 92352,
          "time": 99.5172165,
          "velocity": 0.3937007874015748
        },
        {
          "duration": 0.20689649999999915,
          "durationTicks": 192,
          "midi": 53,
          "name": "F3",
          "ticks": 92928,
          "time": 100.137906,
          "velocity": 0.3937007874015748
        },
        {
          "duration": 0.20689649999999915,
          "durationTicks": 192,
          "midi": 60,
          "name": "C4",
          "ticks": 93120,
          "time": 100.3448025,
          "velocity": 0.3937007874015748
        },
        {
          "duration": 0.20689650000001336,
          "durationTicks": 192,
          "midi": 53,
          "name": "F3",
          "ticks": 93504,
          "time": 100.7585955,
          "velocity": 0.3937007874015748
        },
        {
          "duration": 0.20689649999999915,
          "durationTicks": 192,
          "midi": 60,
          "name": "C4",
          "ticks": 93696,
          "time": 100.96549200000001,
          "velocity": 0.3937007874015748
        },
        {
          "duration": 0.20689649999999915,
          "durationTicks": 192,
          "midi": 53,
          "name": "F3",
          "ticks": 94080,
          "time": 101.37928500000001,
          "velocity": 0.3937007874015748
        },
        {
          "duration": 0.20689649999999915,
          "durationTicks": 192,
          "midi": 52,
          "name": "E3",
          "ticks": 94464,
          "time": 101.79307800000001,
          "velocity": 0.3937007874015748
        },
        {
          "duration": 0.20689649999999915,
          "durationTicks": 192,
          "midi": 58,
          "name": "A#3",
          "ticks": 94656,
          "time": 101.99997450000001,
          "velocity": 0.3937007874015748
        },
        {
          "duration": 0.20689649999999915,
          "durationTicks": 192,
          "midi": 52,
          "name": "E3",
          "ticks": 94848,
          "time": 102.206871,
          "velocity": 0.3937007874015748
        },
        {
          "duration": 0.20689649999999915,
          "durationTicks": 192,
          "midi": 58,
          "name": "A#3",
          "ticks": 95040,
          "time": 102.4137675,
          "velocity": 0.3937007874015748
        },
        {
          "duration": 0.20689649999999915,
          "durationTicks": 192,
          "midi": 52,
          "name": "E3",
          "ticks": 95232,
          "time": 102.620664,
          "velocity": 0.3937007874015748
        },
        {
          "duration": 0.20689649999999915,
          "durationTicks": 192,
          "midi": 58,
          "name": "A#3",
          "ticks": 95424,
          "time": 102.8275605,
          "velocity": 0.3937007874015748
        },
        {
          "duration": 0.20689649999999915,
          "durationTicks": 192,
          "midi": 56,
          "name": "G#3",
          "ticks": 96000,
          "time": 103.44825,
          "velocity": 0.3937007874015748
        },
        {
          "duration": 0.20689649999999915,
          "durationTicks": 192,
          "midi": 63,
          "name": "D#4",
          "ticks": 96192,
          "time": 103.6551465,
          "velocity": 0.3937007874015748
        },
        {
          "duration": 0.20689649999999915,
          "durationTicks": 192,
          "midi": 56,
          "name": "G#3",
          "ticks": 96384,
          "time": 103.862043,
          "velocity": 0.3937007874015748
        },
        {
          "duration": 0.20689650000001336,
          "durationTicks": 192,
          "midi": 63,
          "name": "D#4",
          "ticks": 96576,
          "time": 104.0689395,
          "velocity": 0.3937007874015748
        },
        {
          "duration": 0.20689649999999915,
          "durationTicks": 192,
          "midi": 56,
          "name": "G#3",
          "ticks": 96768,
          "time": 104.27583600000001,
          "velocity": 0.3937007874015748
        },
        {
          "duration": 0.20689649999999915,
          "durationTicks": 192,
          "midi": 63,
          "name": "D#4",
          "ticks": 96960,
          "time": 104.48273250000001,
          "velocity": 0.3937007874015748
        },
        {
          "duration": 0.20689649999999915,
          "durationTicks": 192,
          "midi": 55,
          "name": "G3",
          "ticks": 97536,
          "time": 105.10342200000001,
          "velocity": 0.3937007874015748
        },
        {
          "duration": 0.20689649999999915,
          "durationTicks": 192,
          "midi": 61,
          "name": "C#4",
          "ticks": 97728,
          "time": 105.31031850000001,
          "velocity": 0.3937007874015748
        },
        {
          "duration": 0.20689649999999915,
          "durationTicks": 192,
          "midi": 55,
          "name": "G3",
          "ticks": 97920,
          "time": 105.51721500000001,
          "velocity": 0.3937007874015748
        },
        {
          "duration": 0.20689649999999915,
          "durationTicks": 192,
          "midi": 61,
          "name": "C#4",
          "ticks": 98112,
          "time": 105.7241115,
          "velocity": 0.3937007874015748
        },
        {
          "duration": 0.20689649999999915,
          "durationTicks": 192,
          "midi": 55,
          "name": "G3",
          "ticks": 98304,
          "time": 105.931008,
          "velocity": 0.3937007874015748
        },
        {
          "duration": 0.20689649999999915,
          "durationTicks": 192,
          "midi": 61,
          "name": "C#4",
          "ticks": 98496,
          "time": 106.1379045,
          "velocity": 0.3937007874015748
        },
        {
          "duration": 0.20689650000002757,
          "durationTicks": 192,
          "midi": 72,
          "name": "C5",
          "ticks": 123648,
          "time": 133.241346,
          "velocity": 0.3937007874015748
        },
        {
          "duration": 0.20689649999999915,
          "durationTicks": 192,
          "midi": 76,
          "name": "E5",
          "ticks": 123840,
          "time": 133.44824250000002,
          "velocity": 0.3937007874015748
        },
        {
          "duration": 0.20689649999999915,
          "durationTicks": 192,
          "midi": 83,
          "name": "B5",
          "ticks": 124032,
          "time": 133.65513900000002,
          "velocity": 0.3937007874015748
        },
        {
          "duration": 0.20689649999999915,
          "durationTicks": 192,
          "midi": 72,
          "name": "C5",
          "ticks": 124224,
          "time": 133.86203550000002,
          "velocity": 0.3937007874015748
        },
        {
          "duration": 0.20689649999999915,
          "durationTicks": 192,
          "midi": 76,
          "name": "E5",
          "ticks": 124416,
          "time": 134.06893200000002,
          "velocity": 0.3937007874015748
        },
        {
          "duration": 0.20689649999999915,
          "durationTicks": 192,
          "midi": 83,
          "name": "B5",
          "ticks": 124608,
          "time": 134.27582850000002,
          "velocity": 0.3937007874015748
        },
        {
          "duration": 0.20689649999999915,
          "durationTicks": 192,
          "midi": 72,
          "name": "C5",
          "ticks": 124800,
          "time": 134.48272500000002,
          "velocity": 0.3937007874015748
        },
        {
          "duration": 0.20689649999999915,
          "durationTicks": 192,
          "midi": 76,
          "name": "E5",
          "ticks": 124992,
          "time": 134.68962150000002,
          "velocity": 0.3937007874015748
        },
        {
          "duration": 0.20689649999999915,
          "durationTicks": 192,
          "midi": 83,
          "name": "B5",
          "ticks": 125184,
          "time": 134.89651800000001,
          "velocity": 0.3937007874015748
        },
        {
          "duration": 0.20689649999999915,
          "durationTicks": 192,
          "midi": 76,
          "name": "E5",
          "ticks": 125376,
          "time": 135.1034145,
          "velocity": 0.3937007874015748
        },
        {
          "duration": 0.20689649999999915,
          "durationTicks": 192,
          "midi": 72,
          "name": "C5",
          "ticks": 125568,
          "time": 135.310311,
          "velocity": 0.3937007874015748
        },
        {
          "duration": 0.20689649999999915,
          "durationTicks": 192,
          "midi": 76,
          "name": "E5",
          "ticks": 125760,
          "time": 135.5172075,
          "velocity": 0.3937007874015748
        },
        {
          "duration": 0.20689649999999915,
          "durationTicks": 192,
          "midi": 72,
          "name": "C5",
          "ticks": 125952,
          "time": 135.724104,
          "velocity": 0.3937007874015748
        },
        {
          "duration": 0.20689649999999915,
          "durationTicks": 192,
          "midi": 83,
          "name": "B5",
          "ticks": 126144,
          "time": 135.9310005,
          "velocity": 0.3937007874015748
        },
        {
          "duration": 0.20689649999999915,
          "durationTicks": 192,
          "midi": 76,
          "name": "E5",
          "ticks": 126336,
          "time": 136.137897,
          "velocity": 0.3937007874015748
        },
        {
          "duration": 0.20689649999999915,
          "durationTicks": 192,
          "midi": 83,
          "name": "B5",
          "ticks": 126528,
          "time": 136.3447935,
          "velocity": 0.3937007874015748
        },
        {
          "duration": 0.20689649999999915,
          "durationTicks": 192,
          "midi": 71,
          "name": "B4",
          "ticks": 126720,
          "time": 136.55169,
          "velocity": 0.3937007874015748
        },
        {
          "duration": 0.20689649999999915,
          "durationTicks": 192,
          "midi": 75,
          "name": "D#5",
          "ticks": 126912,
          "time": 136.7585865,
          "velocity": 0.3937007874015748
        },
        {
          "duration": 0.20689649999999915,
          "durationTicks": 192,
          "midi": 81,
          "name": "A5",
          "ticks": 127104,
          "time": 136.965483,
          "velocity": 0.3937007874015748
        },
        {
          "duration": 0.20689649999999915,
          "durationTicks": 192,
          "midi": 75,
          "name": "D#5",
          "ticks": 127296,
          "time": 137.1723795,
          "velocity": 0.3937007874015748
        },
        {
          "duration": 0.20689649999999915,
          "durationTicks": 192,
          "midi": 81,
          "name": "A5",
          "ticks": 127488,
          "time": 137.379276,
          "velocity": 0.3937007874015748
        },
        {
          "duration": 0.20689649999999915,
          "durationTicks": 192,
          "midi": 71,
          "name": "B4",
          "ticks": 127680,
          "time": 137.5861725,
          "velocity": 0.3937007874015748
        },
        {
          "duration": 0.20689649999999915,
          "durationTicks": 192,
          "midi": 75,
          "name": "D#5",
          "ticks": 127872,
          "time": 137.793069,
          "velocity": 0.3937007874015748
        },
        {
          "duration": 0.20689649999999915,
          "durationTicks": 192,
          "midi": 71,
          "name": "B4",
          "ticks": 128064,
          "time": 137.9999655,
          "velocity": 0.3937007874015748
        },
        {
          "duration": 0.20689649999999915,
          "durationTicks": 192,
          "midi": 75,
          "name": "D#5",
          "ticks": 128256,
          "time": 138.206862,
          "velocity": 0.3937007874015748
        },
        {
          "duration": 0.20689649999999915,
          "durationTicks": 192,
          "midi": 81,
          "name": "A5",
          "ticks": 128448,
          "time": 138.4137585,
          "velocity": 0.3937007874015748
        },
        {
          "duration": 0.20689649999999915,
          "durationTicks": 192,
          "midi": 75,
          "name": "D#5",
          "ticks": 128640,
          "time": 138.620655,
          "velocity": 0.3937007874015748
        },
        {
          "duration": 0.20689649999999915,
          "durationTicks": 192,
          "midi": 71,
          "name": "B4",
          "ticks": 128832,
          "time": 138.8275515,
          "velocity": 0.3937007874015748
        },
        {
          "duration": 0.20689649999999915,
          "durationTicks": 192,
          "midi": 75,
          "name": "D#5",
          "ticks": 129024,
          "time": 139.034448,
          "velocity": 0.3937007874015748
        },
        {
          "duration": 0.20689649999999915,
          "durationTicks": 192,
          "midi": 71,
          "name": "B4",
          "ticks": 129216,
          "time": 139.2413445,
          "velocity": 0.3937007874015748
        },
        {
          "duration": 0.20689649999999915,
          "durationTicks": 192,
          "midi": 75,
          "name": "D#5",
          "ticks": 129408,
          "time": 139.448241,
          "velocity": 0.3937007874015748
        },
        {
          "duration": 0.20689649999999915,
          "durationTicks": 192,
          "midi": 81,
          "name": "A5",
          "ticks": 129600,
          "time": 139.6551375,
          "velocity": 0.3937007874015748
        },
        {
          "duration": 0.20689649999999915,
          "durationTicks": 192,
          "midi": 76,
          "name": "E5",
          "ticks": 129792,
          "time": 139.862034,
          "velocity": 0.3937007874015748
        },
        {
          "duration": 0.20689650000002757,
          "durationTicks": 192,
          "midi": 79,
          "name": "G5",
          "ticks": 129984,
          "time": 140.0689305,
          "velocity": 0.3937007874015748
        },
        {
          "duration": 0.20689649999999915,
          "durationTicks": 192,
          "midi": 86,
          "name": "D6",
          "ticks": 130176,
          "time": 140.27582700000002,
          "velocity": 0.3937007874015748
        },
        {
          "duration": 0.20689649999999915,
          "durationTicks": 192,
          "midi": 79,
          "name": "G5",
          "ticks": 130368,
          "time": 140.48272350000002,
          "velocity": 0.3937007874015748
        },
        {
          "duration": 0.20689649999999915,
          "durationTicks": 192,
          "midi": 86,
          "name": "D6",
          "ticks": 130560,
          "time": 140.68962000000002,
          "velocity": 0.3937007874015748
        },
        {
          "duration": 0.20689649999999915,
          "durationTicks": 192,
          "midi": 79,
          "name": "G5",
          "ticks": 130752,
          "time": 140.89651650000002,
          "velocity": 0.3937007874015748
        },
        {
          "duration": 0.20689649999999915,
          "durationTicks": 192,
          "midi": 76,
          "name": "E5",
          "ticks": 130944,
          "time": 141.10341300000002,
          "velocity": 0.3937007874015748
        },
        {
          "duration": 0.20689649999999915,
          "durationTicks": 192,
          "midi": 76,
          "name": "E5",
          "ticks": 131136,
          "time": 141.31030950000002,
          "velocity": 0.3937007874015748
        },
        {
          "duration": 0.20689649999999915,
          "durationTicks": 192,
          "midi": 79,
          "name": "G5",
          "ticks": 131328,
          "time": 141.51720600000002,
          "velocity": 0.3937007874015748
        },
        {
          "duration": 0.20689649999999915,
          "durationTicks": 192,
          "midi": 86,
          "name": "D6",
          "ticks": 131520,
          "time": 141.72410250000001,
          "velocity": 0.3937007874015748
        },
        {
          "duration": 0.20689649999999915,
          "durationTicks": 192,
          "midi": 86,
          "name": "D6",
          "ticks": 131712,
          "time": 141.930999,
          "velocity": 0.3937007874015748
        },
        {
          "duration": 0.20689649999999915,
          "durationTicks": 192,
          "midi": 79,
          "name": "G5",
          "ticks": 131904,
          "time": 142.1378955,
          "velocity": 0.3937007874015748
        },
        {
          "duration": 0.8275859999999966,
          "durationTicks": 768,
          "midi": 76,
          "name": "E5",
          "ticks": 132096,
          "time": 142.344792,
          "velocity": 0.3937007874015748
        },
        {
          "duration": 0.8275859999999966,
          "durationTicks": 768,
          "midi": 74,
          "name": "D5",
          "ticks": 132864,
          "time": 143.172378,
          "velocity": 0.3937007874015748
        },
        {
          "duration": 0.20689649999999915,
          "durationTicks": 192,
          "midi": 78,
          "name": "F#5",
          "ticks": 133056,
          "time": 143.3792745,
          "velocity": 0.3937007874015748
        },
        {
          "duration": 0.20689649999999915,
          "durationTicks": 192,
          "midi": 84,
          "name": "C6",
          "ticks": 133248,
          "time": 143.586171,
          "velocity": 0.3937007874015748
        },
        {
          "duration": 0.20689649999999915,
          "durationTicks": 192,
          "midi": 78,
          "name": "F#5",
          "ticks": 133440,
          "time": 143.7930675,
          "velocity": 0.3937007874015748
        },
        {
          "duration": 0.8275859999999966,
          "durationTicks": 768,
          "midi": 78,
          "name": "F#5",
          "ticks": 133632,
          "time": 143.999964,
          "velocity": 0.3937007874015748
        },
        {
          "duration": 0.20689649999999915,
          "durationTicks": 192,
          "midi": 84,
          "name": "C6",
          "ticks": 133632,
          "time": 143.999964,
          "velocity": 0.3937007874015748
        },
        {
          "duration": 0.20689649999999915,
          "durationTicks": 192,
          "midi": 84,
          "name": "C6",
          "ticks": 133824,
          "time": 144.2068605,
          "velocity": 0.3937007874015748
        },
        {
          "duration": 0.20689649999999915,
          "durationTicks": 192,
          "midi": 74,
          "name": "D5",
          "ticks": 134016,
          "time": 144.413757,
          "velocity": 0.3937007874015748
        },
        {
          "duration": 0.20689649999999915,
          "durationTicks": 192,
          "midi": 74,
          "name": "D5",
          "ticks": 134208,
          "time": 144.6206535,
          "velocity": 0.3937007874015748
        },
        {
          "duration": 0.8275859999999966,
          "durationTicks": 768,
          "midi": 84,
          "name": "C6",
          "ticks": 134400,
          "time": 144.82755,
          "velocity": 0.3937007874015748
        },
        {
          "duration": 0.20689649999999915,
          "durationTicks": 192,
          "midi": 78,
          "name": "F#5",
          "ticks": 134592,
          "time": 145.0344465,
          "velocity": 0.3937007874015748
        },
        {
          "duration": 0.20689649999999915,
          "durationTicks": 192,
          "midi": 74,
          "name": "D5",
          "ticks": 134784,
          "time": 145.241343,
          "velocity": 0.3937007874015748
        },
        {
          "duration": 0.20689649999999915,
          "durationTicks": 192,
          "midi": 78,
          "name": "F#5",
          "ticks": 134976,
          "time": 145.4482395,
          "velocity": 0.3937007874015748
        },
        {
          "duration": 0.4137929999999983,
          "durationTicks": 384,
          "midi": 78,
          "name": "F#5",
          "ticks": 135168,
          "time": 145.655136,
          "velocity": 0.3937007874015748
        },
        {
          "duration": 0.8275859999999966,
          "durationTicks": 768,
          "midi": 74,
          "name": "D5",
          "ticks": 135552,
          "time": 146.068929,
          "velocity": 0.3937007874015748
        }
      ],
      "endOfTrackTicks": 136320
    },
    {
      "channel": 13,
      "controlChanges": {},
      "pitchBends": [],
      "instrument": {
        "family": "organ",
        "number": 19,
        "name": "church organ"
      },
      "name": "Church Organ",
      "notes": [
        {
          "duration": 0.4137929999999983,
          "durationTicks": 384,
          "midi": 49,
          "name": "C#3",
          "ticks": 99072,
          "time": 106.758594,
          "velocity": 0.3937007874015748
        },
        {
          "duration": 0.4137929999999983,
          "durationTicks": 384,
          "midi": 49,
          "name": "C#3",
          "ticks": 99072,
          "time": 106.758594,
          "velocity": 0.3937007874015748
        },
        {
          "duration": 0.4137929999999983,
          "durationTicks": 384,
          "midi": 53,
          "name": "F3",
          "ticks": 99456,
          "time": 107.172387,
          "velocity": 0.3937007874015748
        },
        {
          "duration": 0.10344824999999958,
          "durationTicks": 96,
          "midi": 49,
          "name": "C#3",
          "ticks": 99456,
          "time": 107.172387,
          "velocity": 0.3937007874015748
        },
        {
          "duration": 0.10344824999999958,
          "durationTicks": 96,
          "midi": 61,
          "name": "C#4",
          "ticks": 99552,
          "time": 107.27583525,
          "velocity": 0.3937007874015748
        },
        {
          "duration": 0.10344824999999958,
          "durationTicks": 96,
          "midi": 49,
          "name": "C#3",
          "ticks": 99648,
          "time": 107.3792835,
          "velocity": 0.3937007874015748
        },
        {
          "duration": 0.10344824999999958,
          "durationTicks": 96,
          "midi": 58,
          "name": "A#3",
          "ticks": 99744,
          "time": 107.48273175,
          "velocity": 0.3937007874015748
        },
        {
          "duration": 0.4137930000000125,
          "durationTicks": 384,
          "midi": 48,
          "name": "C3",
          "ticks": 99840,
          "time": 107.58618,
          "velocity": 0.3937007874015748
        },
        {
          "duration": 0.4137930000000125,
          "durationTicks": 384,
          "midi": 60,
          "name": "C4",
          "ticks": 99840,
          "time": 107.58618,
          "velocity": 0.3937007874015748
        },
        {
          "duration": 0.4137930000000125,
          "durationTicks": 384,
          "midi": 48,
          "name": "C3",
          "ticks": 99840,
          "time": 107.58618,
          "velocity": 0.3937007874015748
        },
        {
          "duration": 0.10344825000001379,
          "durationTicks": 96,
          "midi": 61,
          "name": "C#4",
          "ticks": 99840,
          "time": 107.58618,
          "velocity": 0.3937007874015748
        },
        {
          "duration": 0.10344824999999958,
          "durationTicks": 96,
          "midi": 58,
          "name": "A#3",
          "ticks": 99936,
          "time": 107.68962825000001,
          "velocity": 0.3937007874015748
        },
        {
          "duration": 0.10344824999999958,
          "durationTicks": 96,
          "midi": 56,
          "name": "G#3",
          "ticks": 100032,
          "time": 107.79307650000001,
          "velocity": 0.3937007874015748
        },
        {
          "duration": 0.4137929999999983,
          "durationTicks": 384,
          "midi": 53,
          "name": "F3",
          "ticks": 100224,
          "time": 107.99997300000001,
          "velocity": 0.3937007874015748
        },
        {
          "duration": 0.10344824999999958,
          "durationTicks": 96,
          "midi": 56,
          "name": "G#3",
          "ticks": 100224,
          "time": 107.99997300000001,
          "velocity": 0.3937007874015748
        },
        {
          "duration": 0.10344824999999958,
          "durationTicks": 96,
          "midi": 58,
          "name": "A#3",
          "ticks": 100320,
          "time": 108.10342125000001,
          "velocity": 0.3937007874015748
        },
        {
          "duration": 0.10344824999999958,
          "durationTicks": 96,
          "midi": 60,
          "name": "C4",
          "ticks": 100416,
          "time": 108.20686950000001,
          "velocity": 0.3937007874015748
        },
        {
          "duration": 0.10344824999999958,
          "durationTicks": 96,
          "midi": 48,
          "name": "C3",
          "ticks": 100608,
          "time": 108.41376600000001,
          "velocity": 0.3937007874015748
        },
        {
          "duration": 0.10344824999999958,
          "durationTicks": 96,
          "midi": 48,
          "name": "C3",
          "ticks": 100800,
          "time": 108.62066250000001,
          "velocity": 0.3937007874015748
        },
        {
          "duration": 0.20689649999999915,
          "durationTicks": 192,
          "midi": 48,
          "name": "C3",
          "ticks": 100800,
          "time": 108.62066250000001,
          "velocity": 0.3937007874015748
        },
        {
          "duration": 0.10344824999999958,
          "durationTicks": 96,
          "midi": 60,
          "name": "C4",
          "ticks": 100896,
          "time": 108.72411075000001,
          "velocity": 0.3937007874015748
        },
        {
          "duration": 0.4137929999999983,
          "durationTicks": 384,
          "midi": 52,
          "name": "E3",
          "ticks": 100992,
          "time": 108.82755900000001,
          "velocity": 0.3937007874015748
        },
        {
          "duration": 0.10344824999999958,
          "durationTicks": 96,
          "midi": 60,
          "name": "C4",
          "ticks": 101088,
          "time": 108.93100725000001,
          "velocity": 0.3937007874015748
        },
        {
          "duration": 0.4137929999999983,
          "durationTicks": 384,
          "midi": 48,
          "name": "C3",
          "ticks": 101184,
          "time": 109.0344555,
          "velocity": 0.3937007874015748
        },
        {
          "duration": 0.20689649999999915,
          "durationTicks": 192,
          "midi": 58,
          "name": "A#3",
          "ticks": 101568,
          "time": 109.4482485,
          "velocity": 0.3937007874015748
        },
        {
          "duration": 0.20689649999999915,
          "durationTicks": 192,
          "midi": 58,
          "name": "A#3",
          "ticks": 101568,
          "time": 109.4482485,
          "velocity": 0.3937007874015748
        },
        {
          "duration": 0.20689649999999915,
          "durationTicks": 192,
          "midi": 59,
          "name": "B3",
          "ticks": 101760,
          "time": 109.655145,
          "velocity": 0.3937007874015748
        },
        {
          "duration": 0.4137929999999983,
          "durationTicks": 384,
          "midi": 52,
          "name": "E3",
          "ticks": 101760,
          "time": 109.655145,
          "velocity": 0.3937007874015748
        },
        {
          "duration": 0.20689649999999915,
          "durationTicks": 192,
          "midi": 60,
          "name": "C4",
          "ticks": 101952,
          "time": 109.8620415,
          "velocity": 0.3937007874015748
        },
        {
          "duration": 0.3103447499999987,
          "durationTicks": 288,
          "midi": 53,
          "name": "F3",
          "ticks": 102144,
          "time": 110.068938,
          "velocity": 0.3937007874015748
        },
        {
          "duration": 0.10344824999999958,
          "durationTicks": 96,
          "midi": 53,
          "name": "F3",
          "ticks": 102432,
          "time": 110.37928275,
          "velocity": 0.3937007874015748
        },
        {
          "duration": 0.10344824999999958,
          "durationTicks": 96,
          "midi": 53,
          "name": "F3",
          "ticks": 102432,
          "time": 110.37928275,
          "velocity": 0.3937007874015748
        },
        {
          "duration": 0.10344824999999958,
          "durationTicks": 96,
          "midi": 65,
          "name": "F4",
          "ticks": 102528,
          "time": 110.482731,
          "velocity": 0.3937007874015748
        },
        {
          "duration": 0.4137929999999983,
          "durationTicks": 384,
          "midi": 56,
          "name": "G#3",
          "ticks": 102528,
          "time": 110.482731,
          "velocity": 0.3937007874015748
        },
        {
          "duration": 0.10344824999999958,
          "durationTicks": 96,
          "midi": 53,
          "name": "F3",
          "ticks": 102624,
          "time": 110.58617925,
          "velocity": 0.3937007874015748
        },
        {
          "duration": 0.10344824999999958,
          "durationTicks": 96,
          "midi": 53,
          "name": "F3",
          "ticks": 102816,
          "time": 110.79307575,
          "velocity": 0.3937007874015748
        },
        {
          "duration": 0.20689650000001336,
          "durationTicks": 192,
          "midi": 68,
          "name": "G#4",
          "ticks": 102912,
          "time": 110.896524,
          "velocity": 0.3937007874015748
        },
        {
          "duration": 0.4137930000000125,
          "durationTicks": 384,
          "midi": 51,
          "name": "D#3",
          "ticks": 102912,
          "time": 110.896524,
          "velocity": 0.3937007874015748
        },
        {
          "duration": 0.4137930000000125,
          "durationTicks": 384,
          "midi": 63,
          "name": "D#4",
          "ticks": 102912,
          "time": 110.896524,
          "velocity": 0.3937007874015748
        },
        {
          "duration": 0.4137930000000125,
          "durationTicks": 384,
          "midi": 51,
          "name": "D#3",
          "ticks": 102912,
          "time": 110.896524,
          "velocity": 0.3937007874015748
        },
        {
          "duration": 0.20689649999999915,
          "durationTicks": 192,
          "midi": 67,
          "name": "G4",
          "ticks": 103104,
          "time": 111.10342050000001,
          "velocity": 0.3937007874015748
        },
        {
          "duration": 0.10344824999999958,
          "durationTicks": 96,
          "midi": 65,
          "name": "F4",
          "ticks": 103296,
          "time": 111.31031700000001,
          "velocity": 0.3937007874015748
        },
        {
          "duration": 0.4137929999999983,
          "durationTicks": 384,
          "midi": 56,
          "name": "G#3",
          "ticks": 103296,
          "time": 111.31031700000001,
          "velocity": 0.3937007874015748
        },
        {
          "duration": 0.10344824999999958,
          "durationTicks": 96,
          "midi": 67,
          "name": "G4",
          "ticks": 103392,
          "time": 111.41376525000001,
          "velocity": 0.3937007874015748
        },
        {
          "duration": 0.10344824999999958,
          "durationTicks": 96,
          "midi": 68,
          "name": "G#4",
          "ticks": 103440,
          "time": 111.465489375,
          "velocity": 0.3937007874015748
        },
        {
          "duration": 0.20689649999999915,
          "durationTicks": 192,
          "midi": 63,
          "name": "D#4",
          "ticks": 103488,
          "time": 111.51721350000001,
          "velocity": 0.3937007874015748
        },
        {
          "duration": 0.3103447499999987,
          "durationTicks": 288,
          "midi": 51,
          "name": "D#3",
          "ticks": 103680,
          "time": 111.72411000000001,
          "velocity": 0.3937007874015748
        },
        {
          "duration": 0.10344824999999958,
          "durationTicks": 96,
          "midi": 51,
          "name": "D#3",
          "ticks": 103968,
          "time": 112.03445475000001,
          "velocity": 0.3937007874015748
        },
        {
          "duration": 0.10344824999999958,
          "durationTicks": 96,
          "midi": 51,
          "name": "D#3",
          "ticks": 103968,
          "time": 112.03445475000001,
          "velocity": 0.3937007874015748
        },
        {
          "duration": 0.20689649999999915,
          "durationTicks": 192,
          "midi": 63,
          "name": "D#4",
          "ticks": 104064,
          "time": 112.13790300000001,
          "velocity": 0.3937007874015748
        },
        {
          "duration": 0.4137929999999983,
          "durationTicks": 384,
          "midi": 55,
          "name": "G3",
          "ticks": 104064,
          "time": 112.13790300000001,
          "velocity": 0.3937007874015748
        },
        {
          "duration": 0.20689649999999915,
          "durationTicks": 192,
          "midi": 51,
          "name": "D#3",
          "ticks": 104256,
          "time": 112.34479950000001,
          "velocity": 0.3937007874015748
        },
        {
          "duration": 0.4137929999999983,
          "durationTicks": 384,
          "midi": 49,
          "name": "C#3",
          "ticks": 104448,
          "time": 112.551696,
          "velocity": 0.3937007874015748
        },
        {
          "duration": 0.20689649999999915,
          "durationTicks": 192,
          "midi": 63,
          "name": "D#4",
          "ticks": 104448,
          "time": 112.551696,
          "velocity": 0.3937007874015748
        },
        {
          "duration": 0.4137929999999983,
          "durationTicks": 384,
          "midi": 49,
          "name": "C#3",
          "ticks": 104448,
          "time": 112.551696,
          "velocity": 0.3937007874015748
        },
        {
          "duration": 0.20689649999999915,
          "durationTicks": 192,
          "midi": 61,
          "name": "C#4",
          "ticks": 104640,
          "time": 112.7585925,
          "velocity": 0.3937007874015748
        },
        {
          "duration": 0.20689649999999915,
          "durationTicks": 192,
          "midi": 61,
          "name": "C#4",
          "ticks": 104640,
          "time": 112.7585925,
          "velocity": 0.3937007874015748
        },
        {
          "duration": 0.20689649999999915,
          "durationTicks": 192,
          "midi": 60,
          "name": "C4",
          "ticks": 104832,
          "time": 112.965489,
          "velocity": 0.3937007874015748
        },
        {
          "duration": 0.4137929999999983,
          "durationTicks": 384,
          "midi": 55,
          "name": "G3",
          "ticks": 104832,
          "time": 112.965489,
          "velocity": 0.3937007874015748
        },
        {
          "duration": 0.20689649999999915,
          "durationTicks": 192,
          "midi": 61,
          "name": "C#4",
          "ticks": 105024,
          "time": 113.1723855,
          "velocity": 0.3937007874015748
        },
        {
          "duration": 0.4137929999999983,
          "durationTicks": 384,
          "midi": 49,
          "name": "C#3",
          "ticks": 105216,
          "time": 113.379282,
          "velocity": 0.3937007874015748
        },
        {
          "duration": 0.4137929999999983,
          "durationTicks": 384,
          "midi": 49,
          "name": "C#3",
          "ticks": 105216,
          "time": 113.379282,
          "velocity": 0.3937007874015748
        },
        {
          "duration": 0.4137929999999983,
          "durationTicks": 384,
          "midi": 53,
          "name": "F3",
          "ticks": 105600,
          "time": 113.793075,
          "velocity": 0.3937007874015748
        },
        {
          "duration": 0.10344824999999958,
          "durationTicks": 96,
          "midi": 49,
          "name": "C#3",
          "ticks": 105600,
          "time": 113.793075,
          "velocity": 0.3937007874015748
        },
        {
          "duration": 0.10344824999999958,
          "durationTicks": 96,
          "midi": 61,
          "name": "C#4",
          "ticks": 105696,
          "time": 113.89652325,
          "velocity": 0.3937007874015748
        },
        {
          "duration": 0.10344824999999958,
          "durationTicks": 96,
          "midi": 49,
          "name": "C#3",
          "ticks": 105792,
          "time": 113.9999715,
          "velocity": 0.3937007874015748
        },
        {
          "duration": 0.10344824999999958,
          "durationTicks": 96,
          "midi": 58,
          "name": "A#3",
          "ticks": 105888,
          "time": 114.10341975,
          "velocity": 0.3937007874015748
        },
        {
          "duration": 0.10344824999999958,
          "durationTicks": 96,
          "midi": 61,
          "name": "C#4",
          "ticks": 105984,
          "time": 114.206868,
          "velocity": 0.3937007874015748
        },
        {
          "duration": 0.4137930000000125,
          "durationTicks": 384,
          "midi": 48,
          "name": "C3",
          "ticks": 105984,
          "time": 114.206868,
          "velocity": 0.3937007874015748
        },
        {
          "duration": 0.4137930000000125,
          "durationTicks": 384,
          "midi": 60,
          "name": "C4",
          "ticks": 105984,
          "time": 114.206868,
          "velocity": 0.3937007874015748
        },
        {
          "duration": 0.4137930000000125,
          "durationTicks": 384,
          "midi": 48,
          "name": "C3",
          "ticks": 105984,
          "time": 114.206868,
          "velocity": 0.3937007874015748
        },
        {
          "duration": 0.10344824999999958,
          "durationTicks": 96,
          "midi": 58,
          "name": "A#3",
          "ticks": 106080,
          "time": 114.31031625,
          "velocity": 0.3937007874015748
        },
        {
          "duration": 0.10344825000001379,
          "durationTicks": 96,
          "midi": 56,
          "name": "G#3",
          "ticks": 106176,
          "time": 114.4137645,
          "velocity": 0.3937007874015748
        },
        {
          "duration": 0.4137929999999983,
          "durationTicks": 384,
          "midi": 53,
          "name": "F3",
          "ticks": 106368,
          "time": 114.62066100000001,
          "velocity": 0.3937007874015748
        },
        {
          "duration": 0.10344824999999958,
          "durationTicks": 96,
          "midi": 56,
          "name": "G#3",
          "ticks": 106368,
          "time": 114.62066100000001,
          "velocity": 0.3937007874015748
        },
        {
          "duration": 0.10344824999999958,
          "durationTicks": 96,
          "midi": 58,
          "name": "A#3",
          "ticks": 106464,
          "time": 114.72410925000001,
          "velocity": 0.3937007874015748
        },
        {
          "duration": 0.10344824999999958,
          "durationTicks": 96,
          "midi": 60,
          "name": "C4",
          "ticks": 106560,
          "time": 114.82755750000001,
          "velocity": 0.3937007874015748
        },
        {
          "duration": 0.10344824999999958,
          "durationTicks": 96,
          "midi": 48,
          "name": "C3",
          "ticks": 106752,
          "time": 115.03445400000001,
          "velocity": 0.3937007874015748
        },
        {
          "duration": 0.10344824999999958,
          "durationTicks": 96,
          "midi": 48,
          "name": "C3",
          "ticks": 106944,
          "time": 115.24135050000001,
          "velocity": 0.3937007874015748
        },
        {
          "duration": 0.20689649999999915,
          "durationTicks": 192,
          "midi": 48,
          "name": "C3",
          "ticks": 106944,
          "time": 115.24135050000001,
          "velocity": 0.3937007874015748
        },
        {
          "duration": 0.10344824999999958,
          "durationTicks": 96,
          "midi": 60,
          "name": "C4",
          "ticks": 107040,
          "time": 115.34479875000001,
          "velocity": 0.3937007874015748
        },
        {
          "duration": 0.4137929999999983,
          "durationTicks": 384,
          "midi": 52,
          "name": "E3",
          "ticks": 107136,
          "time": 115.44824700000001,
          "velocity": 0.3937007874015748
        },
        {
          "duration": 0.10344824999999958,
          "durationTicks": 96,
          "midi": 60,
          "name": "C4",
          "ticks": 107232,
          "time": 115.55169525000001,
          "velocity": 0.3937007874015748
        },
        {
          "duration": 0.4137929999999983,
          "durationTicks": 384,
          "midi": 48,
          "name": "C3",
          "ticks": 107328,
          "time": 115.65514350000001,
          "velocity": 0.3937007874015748
        },
        {
          "duration": 0.20689649999999915,
          "durationTicks": 192,
          "midi": 58,
          "name": "A#3",
          "ticks": 107712,
          "time": 116.0689365,
          "velocity": 0.3937007874015748
        },
        {
          "duration": 0.20689649999999915,
          "durationTicks": 192,
          "midi": 58,
          "name": "A#3",
          "ticks": 107712,
          "time": 116.0689365,
          "velocity": 0.3937007874015748
        },
        {
          "duration": 0.20689649999999915,
          "durationTicks": 192,
          "midi": 59,
          "name": "B3",
          "ticks": 107904,
          "time": 116.275833,
          "velocity": 0.3937007874015748
        },
        {
          "duration": 0.4137929999999983,
          "durationTicks": 384,
          "midi": 52,
          "name": "E3",
          "ticks": 107904,
          "time": 116.275833,
          "velocity": 0.3937007874015748
        },
        {
          "duration": 0.20689649999999915,
          "durationTicks": 192,
          "midi": 60,
          "name": "C4",
          "ticks": 108096,
          "time": 116.4827295,
          "velocity": 0.3937007874015748
        },
        {
          "duration": 0.3103447499999987,
          "durationTicks": 288,
          "midi": 53,
          "name": "F3",
          "ticks": 108288,
          "time": 116.689626,
          "velocity": 0.3937007874015748
        },
        {
          "duration": 0.10344824999999958,
          "durationTicks": 96,
          "midi": 53,
          "name": "F3",
          "ticks": 108576,
          "time": 116.99997075,
          "velocity": 0.3937007874015748
        },
        {
          "duration": 0.10344824999999958,
          "durationTicks": 96,
          "midi": 53,
          "name": "F3",
          "ticks": 108576,
          "time": 116.99997075,
          "velocity": 0.3937007874015748
        },
        {
          "duration": 0.10344824999999958,
          "durationTicks": 96,
          "midi": 65,
          "name": "F4",
          "ticks": 108672,
          "time": 117.103419,
          "velocity": 0.3937007874015748
        },
        {
          "duration": 0.4137929999999983,
          "durationTicks": 384,
          "midi": 56,
          "name": "G#3",
          "ticks": 108672,
          "time": 117.103419,
          "velocity": 0.3937007874015748
        },
        {
          "duration": 0.10344824999999958,
          "durationTicks": 96,
          "midi": 53,
          "name": "F3",
          "ticks": 108768,
          "time": 117.20686725,
          "velocity": 0.3937007874015748
        },
        {
          "duration": 0.10344824999999958,
          "durationTicks": 96,
          "midi": 53,
          "name": "F3",
          "ticks": 108960,
          "time": 117.41376375,
          "velocity": 0.3937007874015748
        },
        {
          "duration": 0.4137930000000125,
          "durationTicks": 384,
          "midi": 63,
          "name": "D#4",
          "ticks": 109056,
          "time": 117.517212,
          "velocity": 0.3937007874015748
        },
        {
          "duration": 0.4137930000000125,
          "durationTicks": 384,
          "midi": 51,
          "name": "D#3",
          "ticks": 109056,
          "time": 117.517212,
          "velocity": 0.3937007874015748
        },
        {
          "duration": 0.20689649999999915,
          "durationTicks": 192,
          "midi": 68,
          "name": "G#4",
          "ticks": 109056,
          "time": 117.517212,
          "velocity": 0.3937007874015748
        },
        {
          "duration": 0.4137930000000125,
          "durationTicks": 384,
          "midi": 51,
          "name": "D#3",
          "ticks": 109056,
          "time": 117.517212,
          "velocity": 0.3937007874015748
        },
        {
          "duration": 0.20689650000001336,
          "durationTicks": 192,
          "midi": 67,
          "name": "G4",
          "ticks": 109248,
          "time": 117.7241085,
          "velocity": 0.3937007874015748
        },
        {
          "duration": 0.10344824999999958,
          "durationTicks": 96,
          "midi": 65,
          "name": "F4",
          "ticks": 109440,
          "time": 117.93100500000001,
          "velocity": 0.3937007874015748
        },
        {
          "duration": 0.4137929999999983,
          "durationTicks": 384,
          "midi": 56,
          "name": "G#3",
          "ticks": 109440,
          "time": 117.93100500000001,
          "velocity": 0.3937007874015748
        },
        {
          "duration": 0.10344824999999958,
          "durationTicks": 96,
          "midi": 67,
          "name": "G4",
          "ticks": 109536,
          "time": 118.03445325000001,
          "velocity": 0.3937007874015748
        },
        {
          "duration": 0.10344824999999958,
          "durationTicks": 96,
          "midi": 68,
          "name": "G#4",
          "ticks": 109584,
          "time": 118.086177375,
          "velocity": 0.3937007874015748
        },
        {
          "duration": 0.20689649999999915,
          "durationTicks": 192,
          "midi": 63,
          "name": "D#4",
          "ticks": 109632,
          "time": 118.13790150000001,
          "velocity": 0.3937007874015748
        },
        {
          "duration": 0.3103447499999987,
          "durationTicks": 288,
          "midi": 51,
          "name": "D#3",
          "ticks": 109824,
          "time": 118.34479800000001,
          "velocity": 0.3937007874015748
        },
        {
          "duration": 0.10344824999999958,
          "durationTicks": 96,
          "midi": 51,
          "name": "D#3",
          "ticks": 110112,
          "time": 118.65514275000001,
          "velocity": 0.3937007874015748
        },
        {
          "duration": 0.10344824999999958,
          "durationTicks": 96,
          "midi": 51,
          "name": "D#3",
          "ticks": 110112,
          "time": 118.65514275000001,
          "velocity": 0.3937007874015748
        },
        {
          "duration": 0.20689649999999915,
          "durationTicks": 192,
          "midi": 63,
          "name": "D#4",
          "ticks": 110208,
          "time": 118.75859100000001,
          "velocity": 0.3937007874015748
        },
        {
          "duration": 0.4137929999999983,
          "durationTicks": 384,
          "midi": 55,
          "name": "G3",
          "ticks": 110208,
          "time": 118.75859100000001,
          "velocity": 0.3937007874015748
        },
        {
          "duration": 0.20689649999999915,
          "durationTicks": 192,
          "midi": 51,
          "name": "D#3",
          "ticks": 110400,
          "time": 118.96548750000001,
          "velocity": 0.3937007874015748
        },
        {
          "duration": 0.4137929999999983,
          "durationTicks": 384,
          "midi": 49,
          "name": "C#3",
          "ticks": 110592,
          "time": 119.17238400000001,
          "velocity": 0.3937007874015748
        },
        {
          "duration": 0.4137929999999983,
          "durationTicks": 384,
          "midi": 49,
          "name": "C#3",
          "ticks": 110592,
          "time": 119.17238400000001,
          "velocity": 0.3937007874015748
        },
        {
          "duration": 0.20689649999999915,
          "durationTicks": 192,
          "midi": 63,
          "name": "D#4",
          "ticks": 110592,
          "time": 119.17238400000001,
          "velocity": 0.3937007874015748
        },
        {
          "duration": 0.20689649999999915,
          "durationTicks": 192,
          "midi": 61,
          "name": "C#4",
          "ticks": 110784,
          "time": 119.37928050000001,
          "velocity": 0.3937007874015748
        },
        {
          "duration": 0.20689649999999915,
          "durationTicks": 192,
          "midi": 61,
          "name": "C#4",
          "ticks": 110784,
          "time": 119.37928050000001,
          "velocity": 0.3937007874015748
        },
        {
          "duration": 0.20689649999999915,
          "durationTicks": 192,
          "midi": 60,
          "name": "C4",
          "ticks": 110976,
          "time": 119.586177,
          "velocity": 0.3937007874015748
        },
        {
          "duration": 0.4137929999999983,
          "durationTicks": 384,
          "midi": 55,
          "name": "G3",
          "ticks": 110976,
          "time": 119.586177,
          "velocity": 0.3937007874015748
        },
        {
          "duration": 0.20689649999999915,
          "durationTicks": 192,
          "midi": 61,
          "name": "C#4",
          "ticks": 111168,
          "time": 119.7930735,
          "velocity": 0.3937007874015748
        },
        {
          "duration": 0.4137929999999983,
          "durationTicks": 384,
          "midi": 48,
          "name": "C3",
          "ticks": 111360,
          "time": 119.99997,
          "velocity": 0.3937007874015748
        },
        {
          "duration": 0.4137929999999983,
          "durationTicks": 384,
          "midi": 48,
          "name": "C3",
          "ticks": 111360,
          "time": 119.99997,
          "velocity": 0.3937007874015748
        },
        {
          "duration": 0.10344824999999958,
          "durationTicks": 96,
          "midi": 48,
          "name": "C3",
          "ticks": 111744,
          "time": 120.413763,
          "velocity": 0.3937007874015748
        },
        {
          "duration": 0.4137929999999983,
          "durationTicks": 384,
          "midi": 52,
          "name": "E3",
          "ticks": 111744,
          "time": 120.413763,
          "velocity": 0.3937007874015748
        },
        {
          "duration": 0.10344824999999958,
          "durationTicks": 96,
          "midi": 60,
          "name": "C4",
          "ticks": 111840,
          "time": 120.51721125,
          "velocity": 0.3937007874015748
        },
        {
          "duration": 0.10344824999999958,
          "durationTicks": 96,
          "midi": 48,
          "name": "C3",
          "ticks": 111936,
          "time": 120.6206595,
          "velocity": 0.3937007874015748
        },
        {
          "duration": 0.10344824999999958,
          "durationTicks": 96,
          "midi": 57,
          "name": "A3",
          "ticks": 112032,
          "time": 120.72410775,
          "velocity": 0.3937007874015748
        },
        {
          "duration": 0.4137929999999983,
          "durationTicks": 384,
          "midi": 59,
          "name": "B3",
          "ticks": 112128,
          "time": 120.827556,
          "velocity": 0.3937007874015748
        },
        {
          "duration": 0.10344824999999958,
          "durationTicks": 96,
          "midi": 60,
          "name": "C4",
          "ticks": 112128,
          "time": 120.827556,
          "velocity": 0.3937007874015748
        },
        {
          "duration": 0.10344824999999958,
          "durationTicks": 96,
          "midi": 57,
          "name": "A3",
          "ticks": 112224,
          "time": 120.93100425,
          "velocity": 0.3937007874015748
        },
        {
          "duration": 0.10344824999999958,
          "durationTicks": 96,
          "midi": 55,
          "name": "G3",
          "ticks": 112320,
          "time": 121.0344525,
          "velocity": 0.3937007874015748
        },
        {
          "duration": 0.4137930000000125,
          "durationTicks": 384,
          "midi": 52,
          "name": "E3",
          "ticks": 112512,
          "time": 121.241349,
          "velocity": 0.3937007874015748
        },
        {
          "duration": 0.10344825000001379,
          "durationTicks": 96,
          "midi": 55,
          "name": "G3",
          "ticks": 112512,
          "time": 121.241349,
          "velocity": 0.3937007874015748
        },
        {
          "duration": 0.10344824999999958,
          "durationTicks": 96,
          "midi": 57,
          "name": "A3",
          "ticks": 112608,
          "time": 121.34479725000001,
          "velocity": 0.3937007874015748
        },
        {
          "duration": 0.10344824999999958,
          "durationTicks": 96,
          "midi": 59,
          "name": "B3",
          "ticks": 112704,
          "time": 121.44824550000001,
          "velocity": 0.3937007874015748
        },
        {
          "duration": 0.10344824999999958,
          "durationTicks": 96,
          "midi": 59,
          "name": "B3",
          "ticks": 113184,
          "time": 121.96548675000001,
          "velocity": 0.3937007874015748
        },
        {
          "duration": 0.4137929999999983,
          "durationTicks": 384,
          "midi": 51,
          "name": "D#3",
          "ticks": 113280,
          "time": 122.06893500000001,
          "velocity": 0.3937007874015748
        },
        {
          "duration": 0.10344824999999958,
          "durationTicks": 96,
          "midi": 59,
          "name": "B3",
          "ticks": 113376,
          "time": 122.17238325000001,
          "velocity": 0.3937007874015748
        },
        {
          "duration": 0.20689649999999915,
          "durationTicks": 192,
          "midi": 57,
          "name": "A3",
          "ticks": 113856,
          "time": 122.68962450000001,
          "velocity": 0.3937007874015748
        },
        {
          "duration": 0.20689649999999915,
          "durationTicks": 192,
          "midi": 57,
          "name": "A3",
          "ticks": 113856,
          "time": 122.68962450000001,
          "velocity": 0.3937007874015748
        },
        {
          "duration": 0.4137929999999983,
          "durationTicks": 384,
          "midi": 51,
          "name": "D#3",
          "ticks": 114048,
          "time": 122.896521,
          "velocity": 0.3937007874015748
        },
        {
          "duration": 0.20689649999999915,
          "durationTicks": 192,
          "midi": 58,
          "name": "A#3",
          "ticks": 114048,
          "time": 122.896521,
          "velocity": 0.3937007874015748
        },
        {
          "duration": 0.20689649999999915,
          "durationTicks": 192,
          "midi": 59,
          "name": "B3",
          "ticks": 114240,
          "time": 123.1034175,
          "velocity": 0.3937007874015748
        },
        {
          "duration": 0.3103447499999987,
          "durationTicks": 288,
          "midi": 52,
          "name": "E3",
          "ticks": 114432,
          "time": 123.310314,
          "velocity": 0.3937007874015748
        },
        {
          "duration": 0.10344824999999958,
          "durationTicks": 96,
          "midi": 52,
          "name": "E3",
          "ticks": 114720,
          "time": 123.62065875,
          "velocity": 0.3937007874015748
        },
        {
          "duration": 0.10344824999999958,
          "durationTicks": 96,
          "midi": 52,
          "name": "E3",
          "ticks": 114720,
          "time": 123.62065875,
          "velocity": 0.3937007874015748
        },
        {
          "duration": 0.10344824999999958,
          "durationTicks": 96,
          "midi": 64,
          "name": "E4",
          "ticks": 114816,
          "time": 123.724107,
          "velocity": 0.3937007874015748
        },
        {
          "duration": 0.4137929999999983,
          "durationTicks": 384,
          "midi": 55,
          "name": "G3",
          "ticks": 114816,
          "time": 123.724107,
          "velocity": 0.3937007874015748
        },
        {
          "duration": 0.10344824999999958,
          "durationTicks": 96,
          "midi": 52,
          "name": "E3",
          "ticks": 114912,
          "time": 123.82755525,
          "velocity": 0.3937007874015748
        },
        {
          "duration": 0.10344824999999958,
          "durationTicks": 96,
          "midi": 52,
          "name": "E3",
          "ticks": 115104,
          "time": 124.03445175,
          "velocity": 0.3937007874015748
        },
        {
          "duration": 0.4137929999999983,
          "durationTicks": 384,
          "midi": 50,
          "name": "D3",
          "ticks": 115200,
          "time": 124.1379,
          "velocity": 0.3937007874015748
        },
        {
          "duration": 0.4137929999999983,
          "durationTicks": 384,
          "midi": 62,
          "name": "D4",
          "ticks": 115200,
          "time": 124.1379,
          "velocity": 0.3937007874015748
        },
        {
          "duration": 0.20689649999999915,
          "durationTicks": 192,
          "midi": 67,
          "name": "G4",
          "ticks": 115200,
          "time": 124.1379,
          "velocity": 0.3937007874015748
        },
        {
          "duration": 0.4137929999999983,
          "durationTicks": 384,
          "midi": 50,
          "name": "D3",
          "ticks": 115200,
          "time": 124.1379,
          "velocity": 0.3937007874015748
        },
        {
          "duration": 0.20689649999999915,
          "durationTicks": 192,
          "midi": 66,
          "name": "F#4",
          "ticks": 115392,
          "time": 124.3447965,
          "velocity": 0.3937007874015748
        },
        {
          "duration": 0.4137930000000125,
          "durationTicks": 384,
          "midi": 55,
          "name": "G3",
          "ticks": 115584,
          "time": 124.551693,
          "velocity": 0.3937007874015748
        },
        {
          "duration": 0.10344824999999958,
          "durationTicks": 96,
          "midi": 64,
          "name": "E4",
          "ticks": 115584,
          "time": 124.551693,
          "velocity": 0.3937007874015748
        },
        {
          "duration": 0.10344825000001379,
          "durationTicks": 96,
          "midi": 66,
          "name": "F#4",
          "ticks": 115680,
          "time": 124.65514125,
          "velocity": 0.3937007874015748
        },
        {
          "duration": 0.10344824999999958,
          "durationTicks": 96,
          "midi": 67,
          "name": "G4",
          "ticks": 115728,
          "time": 124.706865375,
          "velocity": 0.3937007874015748
        },
        {
          "duration": 0.20689649999999915,
          "durationTicks": 192,
          "midi": 62,
          "name": "D4",
          "ticks": 115776,
          "time": 124.75858950000001,
          "velocity": 0.3937007874015748
        },
        {
          "duration": 0.3103447499999987,
          "durationTicks": 288,
          "midi": 50,
          "name": "D3",
          "ticks": 115968,
          "time": 124.96548600000001,
          "velocity": 0.3937007874015748
        },
        {
          "duration": 0.10344824999999958,
          "durationTicks": 96,
          "midi": 50,
          "name": "D3",
          "ticks": 116256,
          "time": 125.27583075000001,
          "velocity": 0.3937007874015748
        },
        {
          "duration": 0.10344824999999958,
          "durationTicks": 96,
          "midi": 50,
          "name": "D3",
          "ticks": 116256,
          "time": 125.27583075000001,
          "velocity": 0.3937007874015748
        },
        {
          "duration": 0.20689649999999915,
          "durationTicks": 192,
          "midi": 62,
          "name": "D4",
          "ticks": 116352,
          "time": 125.37927900000001,
          "velocity": 0.3937007874015748
        },
        {
          "duration": 0.4137929999999983,
          "durationTicks": 384,
          "midi": 54,
          "name": "F#3",
          "ticks": 116352,
          "time": 125.37927900000001,
          "velocity": 0.3937007874015748
        },
        {
          "duration": 0.20689649999999915,
          "durationTicks": 192,
          "midi": 50,
          "name": "D3",
          "ticks": 116544,
          "time": 125.58617550000001,
          "velocity": 0.3937007874015748
        },
        {
          "duration": 0.4137929999999983,
          "durationTicks": 384,
          "midi": 48,
          "name": "C3",
          "ticks": 116736,
          "time": 125.79307200000001,
          "velocity": 0.3937007874015748
        },
        {
          "duration": 0.20689649999999915,
          "durationTicks": 192,
          "midi": 62,
          "name": "D4",
          "ticks": 116736,
          "time": 125.79307200000001,
          "velocity": 0.3937007874015748
        },
        {
          "duration": 0.4137929999999983,
          "durationTicks": 384,
          "midi": 48,
          "name": "C3",
          "ticks": 116736,
          "time": 125.79307200000001,
          "velocity": 0.3937007874015748
        },
        {
          "duration": 0.20689649999999915,
          "durationTicks": 192,
          "midi": 60,
          "name": "C4",
          "ticks": 116928,
          "time": 125.99996850000001,
          "velocity": 0.3937007874015748
        },
        {
          "duration": 0.20689649999999915,
          "durationTicks": 192,
          "midi": 60,
          "name": "C4",
          "ticks": 116928,
          "time": 125.99996850000001,
          "velocity": 0.3937007874015748
        },
        {
          "duration": 0.4137929999999983,
          "durationTicks": 384,
          "midi": 54,
          "name": "F#3",
          "ticks": 117120,
          "time": 126.20686500000001,
          "velocity": 0.3937007874015748
        },
        {
          "duration": 0.20689649999999915,
          "durationTicks": 192,
          "midi": 59,
          "name": "B3",
          "ticks": 117120,
          "time": 126.20686500000001,
          "velocity": 0.3937007874015748
        },
        {
          "duration": 0.20689649999999915,
          "durationTicks": 192,
          "midi": 60,
          "name": "C4",
          "ticks": 117312,
          "time": 126.4137615,
          "velocity": 0.3937007874015748
        },
        {
          "duration": 0.4137929999999983,
          "durationTicks": 384,
          "midi": 48,
          "name": "C3",
          "ticks": 117504,
          "time": 126.620658,
          "velocity": 0.3937007874015748
        },
        {
          "duration": 0.4137929999999983,
          "durationTicks": 384,
          "midi": 48,
          "name": "C3",
          "ticks": 117504,
          "time": 126.620658,
          "velocity": 0.3937007874015748
        },
        {
          "duration": 0.4137929999999983,
          "durationTicks": 384,
          "midi": 52,
          "name": "E3",
          "ticks": 117888,
          "time": 127.034451,
          "velocity": 0.3937007874015748
        },
        {
          "duration": 0.10344824999999958,
          "durationTicks": 96,
          "midi": 48,
          "name": "C3",
          "ticks": 117888,
          "time": 127.034451,
          "velocity": 0.3937007874015748
        },
        {
          "duration": 0.10344824999999958,
          "durationTicks": 96,
          "midi": 60,
          "name": "C4",
          "ticks": 117984,
          "time": 127.13789925,
          "velocity": 0.3937007874015748
        },
        {
          "duration": 0.10344824999999958,
          "durationTicks": 96,
          "midi": 48,
          "name": "C3",
          "ticks": 118080,
          "time": 127.2413475,
          "velocity": 0.3937007874015748
        },
        {
          "duration": 0.10344824999999958,
          "durationTicks": 96,
          "midi": 57,
          "name": "A3",
          "ticks": 118176,
          "time": 127.34479575,
          "velocity": 0.3937007874015748
        },
        {
          "duration": 0.10344824999999958,
          "durationTicks": 96,
          "midi": 60,
          "name": "C4",
          "ticks": 118272,
          "time": 127.448244,
          "velocity": 0.3937007874015748
        },
        {
          "duration": 0.4137929999999983,
          "durationTicks": 384,
          "midi": 59,
          "name": "B3",
          "ticks": 118272,
          "time": 127.448244,
          "velocity": 0.3937007874015748
        },
        {
          "duration": 0.10344824999999958,
          "durationTicks": 96,
          "midi": 57,
          "name": "A3",
          "ticks": 118368,
          "time": 127.55169225,
          "velocity": 0.3937007874015748
        },
        {
          "duration": 0.10344824999999958,
          "durationTicks": 96,
          "midi": 55,
          "name": "G3",
          "ticks": 118464,
          "time": 127.6551405,
          "velocity": 0.3937007874015748
        },
        {
          "duration": 0.4137930000000125,
          "durationTicks": 384,
          "midi": 52,
          "name": "E3",
          "ticks": 118656,
          "time": 127.862037,
          "velocity": 0.3937007874015748
        },
        {
          "duration": 0.10344824999999958,
          "durationTicks": 96,
          "midi": 55,
          "name": "G3",
          "ticks": 118656,
          "time": 127.862037,
          "velocity": 0.3937007874015748
        },
        {
          "duration": 0.10344825000001379,
          "durationTicks": 96,
          "midi": 57,
          "name": "A3",
          "ticks": 118752,
          "time": 127.96548525,
          "velocity": 0.3937007874015748
        },
        {
          "duration": 0.10344824999998536,
          "durationTicks": 96,
          "midi": 59,
          "name": "B3",
          "ticks": 118848,
          "time": 128.0689335,
          "velocity": 0.3937007874015748
        },
        {
          "duration": 0.10344825000001379,
          "durationTicks": 96,
          "midi": 59,
          "name": "B3",
          "ticks": 119328,
          "time": 128.58617475,
          "velocity": 0.3937007874015748
        },
        {
          "duration": 0.4137929999999983,
          "durationTicks": 384,
          "midi": 51,
          "name": "D#3",
          "ticks": 119424,
          "time": 128.689623,
          "velocity": 0.3937007874015748
        },
        {
          "duration": 0.10344825000001379,
          "durationTicks": 96,
          "midi": 59,
          "name": "B3",
          "ticks": 119520,
          "time": 128.79307125,
          "velocity": 0.3937007874015748
        },
        {
          "duration": 0.20689649999999915,
          "durationTicks": 192,
          "midi": 57,
          "name": "A3",
          "ticks": 120000,
          "time": 129.3103125,
          "velocity": 0.3937007874015748
        },
        {
          "duration": 0.20689649999999915,
          "durationTicks": 192,
          "midi": 57,
          "name": "A3",
          "ticks": 120000,
          "time": 129.3103125,
          "velocity": 0.3937007874015748
        },
        {
          "duration": 0.20689649999999915,
          "durationTicks": 192,
          "midi": 58,
          "name": "A#3",
          "ticks": 120192,
          "time": 129.517209,
          "velocity": 0.3937007874015748
        },
        {
          "duration": 0.4137929999999983,
          "durationTicks": 384,
          "midi": 51,
          "name": "D#3",
          "ticks": 120192,
          "time": 129.517209,
          "velocity": 0.3937007874015748
        },
        {
          "duration": 0.20689649999999915,
          "durationTicks": 192,
          "midi": 59,
          "name": "B3",
          "ticks": 120384,
          "time": 129.7241055,
          "velocity": 0.3937007874015748
        },
        {
          "duration": 0.31034475000001294,
          "durationTicks": 288,
          "midi": 52,
          "name": "E3",
          "ticks": 120576,
          "time": 129.931002,
          "velocity": 0.3937007874015748
        },
        {
          "duration": 0.10344824999998536,
          "durationTicks": 96,
          "midi": 52,
          "name": "E3",
          "ticks": 120864,
          "time": 130.24134675000002,
          "velocity": 0.3937007874015748
        },
        {
          "duration": 0.10344824999998536,
          "durationTicks": 96,
          "midi": 52,
          "name": "E3",
          "ticks": 120864,
          "time": 130.24134675000002,
          "velocity": 0.3937007874015748
        },
        {
          "duration": 0.10344825000001379,
          "durationTicks": 96,
          "midi": 64,
          "name": "E4",
          "ticks": 120960,
          "time": 130.344795,
          "velocity": 0.3937007874015748
        },
        {
          "duration": 0.4137929999999983,
          "durationTicks": 384,
          "midi": 55,
          "name": "G3",
          "ticks": 120960,
          "time": 130.344795,
          "velocity": 0.3937007874015748
        },
        {
          "duration": 0.10344824999998536,
          "durationTicks": 96,
          "midi": 52,
          "name": "E3",
          "ticks": 121056,
          "time": 130.44824325000002,
          "velocity": 0.3937007874015748
        },
        {
          "duration": 0.10344824999998536,
          "durationTicks": 96,
          "midi": 52,
          "name": "E3",
          "ticks": 121248,
          "time": 130.65513975000002,
          "velocity": 0.3937007874015748
        },
        {
          "duration": 0.4137929999999983,
          "durationTicks": 384,
          "midi": 50,
          "name": "D3",
          "ticks": 121344,
          "time": 130.758588,
          "velocity": 0.3937007874015748
        },
        {
          "duration": 0.4137929999999983,
          "durationTicks": 384,
          "midi": 50,
          "name": "D3",
          "ticks": 121344,
          "time": 130.758588,
          "velocity": 0.3937007874015748
        },
        {
          "duration": 0.4137929999999983,
          "durationTicks": 384,
          "midi": 62,
          "name": "D4",
          "ticks": 121344,
          "time": 130.758588,
          "velocity": 0.3937007874015748
        },
        {
          "duration": 0.20689649999999915,
          "durationTicks": 192,
          "midi": 67,
          "name": "G4",
          "ticks": 121344,
          "time": 130.758588,
          "velocity": 0.3937007874015748
        },
        {
          "duration": 0.20689649999999915,
          "durationTicks": 192,
          "midi": 66,
          "name": "F#4",
          "ticks": 121536,
          "time": 130.9654845,
          "velocity": 0.3937007874015748
        },
        {
          "duration": 0.10344825000001379,
          "durationTicks": 96,
          "midi": 64,
          "name": "E4",
          "ticks": 121728,
          "time": 131.172381,
          "velocity": 0.3937007874015748
        },
        {
          "duration": 0.4137929999999983,
          "durationTicks": 384,
          "midi": 55,
          "name": "G3",
          "ticks": 121728,
          "time": 131.172381,
          "velocity": 0.3937007874015748
        },
        {
          "duration": 0.10344824999998536,
          "durationTicks": 96,
          "midi": 66,
          "name": "F#4",
          "ticks": 121824,
          "time": 131.27582925000002,
          "velocity": 0.3937007874015748
        },
        {
          "duration": 0.10344824999998536,
          "durationTicks": 96,
          "midi": 67,
          "name": "G4",
          "ticks": 121872,
          "time": 131.327553375,
          "velocity": 0.3937007874015748
        },
        {
          "duration": 0.20689649999999915,
          "durationTicks": 192,
          "midi": 62,
          "name": "D4",
          "ticks": 121920,
          "time": 131.3792775,
          "velocity": 0.3937007874015748
        },
        {
          "duration": 0.31034475000001294,
          "durationTicks": 288,
          "midi": 50,
          "name": "D3",
          "ticks": 122112,
          "time": 131.586174,
          "velocity": 0.3937007874015748
        },
        {
          "duration": 0.10344824999998536,
          "durationTicks": 96,
          "midi": 50,
          "name": "D3",
          "ticks": 122400,
          "time": 131.89651875,
          "velocity": 0.3937007874015748
        },
        {
          "duration": 0.10344824999998536,
          "durationTicks": 96,
          "midi": 50,
          "name": "D3",
          "ticks": 122400,
          "time": 131.89651875,
          "velocity": 0.3937007874015748
        },
        {
          "duration": 0.4137929999999983,
          "durationTicks": 384,
          "midi": 54,
          "name": "F#3",
          "ticks": 122496,
          "time": 131.999967,
          "velocity": 0.3937007874015748
        },
        {
          "duration": 0.20689649999999915,
          "durationTicks": 192,
          "midi": 62,
          "name": "D4",
          "ticks": 122496,
          "time": 131.999967,
          "velocity": 0.3937007874015748
        },
        {
          "duration": 0.20689649999999915,
          "durationTicks": 192,
          "midi": 50,
          "name": "D3",
          "ticks": 122688,
          "time": 132.2068635,
          "velocity": 0.3937007874015748
        },
        {
          "duration": 0.20689649999999915,
          "durationTicks": 192,
          "midi": 62,
          "name": "D4",
          "ticks": 122880,
          "time": 132.41376,
          "velocity": 0.3937007874015748
        },
        {
          "duration": 0.4137929999999983,
          "durationTicks": 384,
          "midi": 48,
          "name": "C3",
          "ticks": 122880,
          "time": 132.41376,
          "velocity": 0.3937007874015748
        },
        {
          "duration": 0.4137929999999983,
          "durationTicks": 384,
          "midi": 48,
          "name": "C3",
          "ticks": 122880,
          "time": 132.41376,
          "velocity": 0.3937007874015748
        },
        {
          "duration": 0.20689649999999915,
          "durationTicks": 192,
          "midi": 60,
          "name": "C4",
          "ticks": 123072,
          "time": 132.6206565,
          "velocity": 0.3937007874015748
        },
        {
          "duration": 0.20689649999999915,
          "durationTicks": 192,
          "midi": 60,
          "name": "C4",
          "ticks": 123072,
          "time": 132.6206565,
          "velocity": 0.3937007874015748
        },
        {
          "duration": 0.20689649999999915,
          "durationTicks": 192,
          "midi": 59,
          "name": "B3",
          "ticks": 123264,
          "time": 132.827553,
          "velocity": 0.3937007874015748
        },
        {
          "duration": 0.4137929999999983,
          "durationTicks": 384,
          "midi": 54,
          "name": "F#3",
          "ticks": 123264,
          "time": 132.827553,
          "velocity": 0.3937007874015748
        },
        {
          "duration": 0.20689649999999915,
          "durationTicks": 192,
          "midi": 60,
          "name": "C4",
          "ticks": 123456,
          "time": 133.0344495,
          "velocity": 0.3937007874015748
        }
      ],
      "endOfTrackTicks": 123648
    },
    {
      "channel": 14,
      "controlChanges": {},
      "pitchBends": [],
      "instrument": {
        "family": "piano",
        "number": 0,
        "name": "acoustic grand piano"
      },
      "name": "Grand Piano",
      "notes": [
        {
          "duration": 0.6206894999999992,
          "durationTicks": 576,
          "midi": 38,
          "name": "D2",
          "ticks": 12288,
          "time": 13.241376,
          "velocity": 0.3937007874015748
        },
        {
          "duration": 0.6206894999999992,
          "durationTicks": 576,
          "midi": 26,
          "name": "D1",
          "ticks": 12288,
          "time": 13.241376,
          "velocity": 0.3937007874015748
        },
        {
          "duration": 0.620689500000001,
          "durationTicks": 576,
          "midi": 26,
          "name": "D1",
          "ticks": 12864,
          "time": 13.8620655,
          "velocity": 0.3937007874015748
        },
        {
          "duration": 0.620689500000001,
          "durationTicks": 576,
          "midi": 38,
          "name": "D2",
          "ticks": 12864,
          "time": 13.8620655,
          "velocity": 0.3937007874015748
        },
        {
          "duration": 0.10344824999999958,
          "durationTicks": 96,
          "midi": 38,
          "name": "D2",
          "ticks": 13440,
          "time": 14.482755000000001,
          "velocity": 0.3937007874015748
        },
        {
          "duration": 0.10344824999999958,
          "durationTicks": 96,
          "midi": 26,
          "name": "D1",
          "ticks": 13440,
          "time": 14.482755000000001,
          "velocity": 0.3937007874015748
        },
        {
          "duration": 0.3103447500000005,
          "durationTicks": 288,
          "midi": 26,
          "name": "D1",
          "ticks": 13536,
          "time": 14.58620325,
          "velocity": 0.3937007874015748
        },
        {
          "duration": 0.3103447500000005,
          "durationTicks": 288,
          "midi": 38,
          "name": "D2",
          "ticks": 13536,
          "time": 14.58620325,
          "velocity": 0.3937007874015748
        },
        {
          "duration": 0.6206894999999992,
          "durationTicks": 576,
          "midi": 25,
          "name": "C#1",
          "ticks": 13824,
          "time": 14.896548000000001,
          "velocity": 0.3937007874015748
        },
        {
          "duration": 0.6206894999999992,
          "durationTicks": 576,
          "midi": 37,
          "name": "C#2",
          "ticks": 13824,
          "time": 14.896548000000001,
          "velocity": 0.3937007874015748
        },
        {
          "duration": 0.620689500000001,
          "durationTicks": 576,
          "midi": 25,
          "name": "C#1",
          "ticks": 14400,
          "time": 15.5172375,
          "velocity": 0.3937007874015748
        },
        {
          "duration": 0.620689500000001,
          "durationTicks": 576,
          "midi": 37,
          "name": "C#2",
          "ticks": 14400,
          "time": 15.5172375,
          "velocity": 0.3937007874015748
        },
        {
          "duration": 0.20689649999999915,
          "durationTicks": 192,
          "midi": 38,
          "name": "D2",
          "ticks": 14976,
          "time": 16.137927,
          "velocity": 0.3937007874015748
        },
        {
          "duration": 0.20689649999999915,
          "durationTicks": 192,
          "midi": 26,
          "name": "D1",
          "ticks": 14976,
          "time": 16.137927,
          "velocity": 0.3937007874015748
        },
        {
          "duration": 0.20689649999999915,
          "durationTicks": 192,
          "midi": 25,
          "name": "C#1",
          "ticks": 15168,
          "time": 16.3448235,
          "velocity": 0.3937007874015748
        },
        {
          "duration": 0.20689649999999915,
          "durationTicks": 192,
          "midi": 37,
          "name": "C#2",
          "ticks": 15168,
          "time": 16.3448235,
          "velocity": 0.3937007874015748
        },
        {
          "duration": 0.620689500000001,
          "durationTicks": 576,
          "midi": 30,
          "name": "F#1",
          "ticks": 15360,
          "time": 16.55172,
          "velocity": 0.3937007874015748
        },
        {
          "duration": 0.620689500000001,
          "durationTicks": 576,
          "midi": 30,
          "name": "F#1",
          "ticks": 15360,
          "time": 16.55172,
          "velocity": 0.3937007874015748
        },
        {
          "duration": 0.620689500000001,
          "durationTicks": 576,
          "midi": 30,
          "name": "F#1",
          "ticks": 15936,
          "time": 17.1724095,
          "velocity": 0.3937007874015748
        },
        {
          "duration": 0.620689500000001,
          "durationTicks": 576,
          "midi": 30,
          "name": "F#1",
          "ticks": 15936,
          "time": 17.1724095,
          "velocity": 0.3937007874015748
        },
        {
          "duration": 0.10344824999999958,
          "durationTicks": 96,
          "midi": 30,
          "name": "F#1",
          "ticks": 16512,
          "time": 17.793099,
          "velocity": 0.3937007874015748
        },
        {
          "duration": 0.10344824999999958,
          "durationTicks": 96,
          "midi": 30,
          "name": "F#1",
          "ticks": 16512,
          "time": 17.793099,
          "velocity": 0.3937007874015748
        },
        {
          "duration": 0.3103447499999987,
          "durationTicks": 288,
          "midi": 30,
          "name": "F#1",
          "ticks": 16608,
          "time": 17.89654725,
          "velocity": 0.3937007874015748
        },
        {
          "duration": 0.3103447499999987,
          "durationTicks": 288,
          "midi": 30,
          "name": "F#1",
          "ticks": 16608,
          "time": 17.89654725,
          "velocity": 0.3937007874015748
        },
        {
          "duration": 0.620689500000001,
          "durationTicks": 576,
          "midi": 33,
          "name": "A1",
          "ticks": 16896,
          "time": 18.206892,
          "velocity": 0.3937007874015748
        },
        {
          "duration": 0.620689500000001,
          "durationTicks": 576,
          "midi": 33,
          "name": "A1",
          "ticks": 16896,
          "time": 18.206892,
          "velocity": 0.3937007874015748
        },
        {
          "duration": 0.620689500000001,
          "durationTicks": 576,
          "midi": 33,
          "name": "A1",
          "ticks": 17472,
          "time": 18.8275815,
          "velocity": 0.3937007874015748
        },
        {
          "duration": 0.620689500000001,
          "durationTicks": 576,
          "midi": 33,
          "name": "A1",
          "ticks": 17472,
          "time": 18.8275815,
          "velocity": 0.3937007874015748
        },
        {
          "duration": 0.20689649999999915,
          "durationTicks": 192,
          "midi": 35,
          "name": "B1",
          "ticks": 18048,
          "time": 19.448271000000002,
          "velocity": 0.3937007874015748
        },
        {
          "duration": 0.20689649999999915,
          "durationTicks": 192,
          "midi": 35,
          "name": "B1",
          "ticks": 18048,
          "time": 19.448271000000002,
          "velocity": 0.3937007874015748
        },
        {
          "duration": 0.20689649999999915,
          "durationTicks": 192,
          "midi": 25,
          "name": "C#1",
          "ticks": 18240,
          "time": 19.6551675,
          "velocity": 0.3937007874015748
        },
        {
          "duration": 0.20689649999999915,
          "durationTicks": 192,
          "midi": 37,
          "name": "C#2",
          "ticks": 18240,
          "time": 19.6551675,
          "velocity": 0.3937007874015748
        },
        {
          "duration": 0.620689500000001,
          "durationTicks": 576,
          "midi": 38,
          "name": "D2",
          "ticks": 18432,
          "time": 19.862064,
          "velocity": 0.3937007874015748
        },
        {
          "duration": 0.620689500000001,
          "durationTicks": 576,
          "midi": 26,
          "name": "D1",
          "ticks": 18432,
          "time": 19.862064,
          "velocity": 0.3937007874015748
        },
        {
          "duration": 0.620689500000001,
          "durationTicks": 576,
          "midi": 38,
          "name": "D2",
          "ticks": 19008,
          "time": 20.4827535,
          "velocity": 0.3937007874015748
        },
        {
          "duration": 0.620689500000001,
          "durationTicks": 576,
          "midi": 26,
          "name": "D1",
          "ticks": 19008,
          "time": 20.4827535,
          "velocity": 0.3937007874015748
        },
        {
          "duration": 0.10344824999999958,
          "durationTicks": 96,
          "midi": 38,
          "name": "D2",
          "ticks": 19584,
          "time": 21.103443000000002,
          "velocity": 0.3937007874015748
        },
        {
          "duration": 0.10344824999999958,
          "durationTicks": 96,
          "midi": 26,
          "name": "D1",
          "ticks": 19584,
          "time": 21.103443000000002,
          "velocity": 0.3937007874015748
        },
        {
          "duration": 0.3103447499999987,
          "durationTicks": 288,
          "midi": 38,
          "name": "D2",
          "ticks": 19680,
          "time": 21.20689125,
          "velocity": 0.3937007874015748
        },
        {
          "duration": 0.3103447499999987,
          "durationTicks": 288,
          "midi": 26,
          "name": "D1",
          "ticks": 19680,
          "time": 21.20689125,
          "velocity": 0.3937007874015748
        },
        {
          "duration": 0.620689500000001,
          "durationTicks": 576,
          "midi": 40,
          "name": "E2",
          "ticks": 19968,
          "time": 21.517236,
          "velocity": 0.3937007874015748
        },
        {
          "duration": 0.620689500000001,
          "durationTicks": 576,
          "midi": 28,
          "name": "E1",
          "ticks": 19968,
          "time": 21.517236,
          "velocity": 0.3937007874015748
        },
        {
          "duration": 0.620689500000001,
          "durationTicks": 576,
          "midi": 28,
          "name": "E1",
          "ticks": 20544,
          "time": 22.1379255,
          "velocity": 0.3937007874015748
        },
        {
          "duration": 0.620689500000001,
          "durationTicks": 576,
          "midi": 40,
          "name": "E2",
          "ticks": 20544,
          "time": 22.1379255,
          "velocity": 0.3937007874015748
        },
        {
          "duration": 0.10344824999999958,
          "durationTicks": 96,
          "midi": 28,
          "name": "E1",
          "ticks": 21120,
          "time": 22.758615000000002,
          "velocity": 0.3937007874015748
        },
        {
          "duration": 0.10344824999999958,
          "durationTicks": 96,
          "midi": 40,
          "name": "E2",
          "ticks": 21120,
          "time": 22.758615000000002,
          "velocity": 0.3937007874015748
        },
        {
          "duration": 0.3103447499999987,
          "durationTicks": 288,
          "midi": 40,
          "name": "E2",
          "ticks": 21216,
          "time": 22.862063250000002,
          "velocity": 0.3937007874015748
        },
        {
          "duration": 0.3103447499999987,
          "durationTicks": 288,
          "midi": 28,
          "name": "E1",
          "ticks": 21216,
          "time": 22.862063250000002,
          "velocity": 0.3937007874015748
        },
        {
          "duration": 0.620689500000001,
          "durationTicks": 576,
          "midi": 30,
          "name": "F#1",
          "ticks": 21504,
          "time": 23.172408,
          "velocity": 0.3937007874015748
        },
        {
          "duration": 0.620689500000001,
          "durationTicks": 576,
          "midi": 42,
          "name": "F#2",
          "ticks": 21504,
          "time": 23.172408,
          "velocity": 0.3937007874015748
        },
        {
          "duration": 0.620689500000001,
          "durationTicks": 576,
          "midi": 30,
          "name": "F#1",
          "ticks": 22080,
          "time": 23.793097500000002,
          "velocity": 0.3937007874015748
        },
        {
          "duration": 0.620689500000001,
          "durationTicks": 576,
          "midi": 42,
          "name": "F#2",
          "ticks": 22080,
          "time": 23.793097500000002,
          "velocity": 0.3937007874015748
        },
        {
          "duration": 0.10344824999999958,
          "durationTicks": 96,
          "midi": 42,
          "name": "F#2",
          "ticks": 22656,
          "time": 24.413787000000003,
          "velocity": 0.3937007874015748
        },
        {
          "duration": 0.10344824999999958,
          "durationTicks": 96,
          "midi": 30,
          "name": "F#1",
          "ticks": 22656,
          "time": 24.413787000000003,
          "velocity": 0.3937007874015748
        },
        {
          "duration": 0.3103447499999987,
          "durationTicks": 288,
          "midi": 42,
          "name": "F#2",
          "ticks": 22752,
          "time": 24.517235250000002,
          "velocity": 0.3937007874015748
        },
        {
          "duration": 0.3103447499999987,
          "durationTicks": 288,
          "midi": 30,
          "name": "F#1",
          "ticks": 22752,
          "time": 24.517235250000002,
          "velocity": 0.3937007874015748
        },
        {
          "duration": 0.3103447499999987,
          "durationTicks": 288,
          "midi": 33,
          "name": "A1",
          "ticks": 23040,
          "time": 24.82758,
          "velocity": 0.3937007874015748
        },
        {
          "duration": 0.3103447499999987,
          "durationTicks": 288,
          "midi": 45,
          "name": "A2",
          "ticks": 23040,
          "time": 24.82758,
          "velocity": 0.3937007874015748
        },
        {
          "duration": 0.3103447500000023,
          "durationTicks": 288,
          "midi": 32,
          "name": "G#1",
          "ticks": 23328,
          "time": 25.13792475,
          "velocity": 0.3937007874015748
        },
        {
          "duration": 0.3103447500000023,
          "durationTicks": 288,
          "midi": 44,
          "name": "G#2",
          "ticks": 23328,
          "time": 25.13792475,
          "velocity": 0.3937007874015748
        },
        {
          "duration": 0.3103447499999987,
          "durationTicks": 288,
          "midi": 42,
          "name": "F#2",
          "ticks": 23616,
          "time": 25.448269500000002,
          "velocity": 0.3937007874015748
        },
        {
          "duration": 0.3103447499999987,
          "durationTicks": 288,
          "midi": 30,
          "name": "F#1",
          "ticks": 23616,
          "time": 25.448269500000002,
          "velocity": 0.3937007874015748
        },
        {
          "duration": 0.3103447500000023,
          "durationTicks": 288,
          "midi": 28,
          "name": "E1",
          "ticks": 23904,
          "time": 25.75861425,
          "velocity": 0.3937007874015748
        },
        {
          "duration": 0.3103447500000023,
          "durationTicks": 288,
          "midi": 40,
          "name": "E2",
          "ticks": 23904,
          "time": 25.75861425,
          "velocity": 0.3937007874015748
        },
        {
          "duration": 0.20689649999999915,
          "durationTicks": 192,
          "midi": 38,
          "name": "D2",
          "ticks": 24192,
          "time": 26.068959000000003,
          "velocity": 0.3937007874015748
        },
        {
          "duration": 0.20689649999999915,
          "durationTicks": 192,
          "midi": 26,
          "name": "D1",
          "ticks": 24192,
          "time": 26.068959000000003,
          "velocity": 0.3937007874015748
        },
        {
          "duration": 0.20689649999999915,
          "durationTicks": 192,
          "midi": 40,
          "name": "E2",
          "ticks": 24384,
          "time": 26.275855500000002,
          "velocity": 0.3937007874015748
        },
        {
          "duration": 0.20689649999999915,
          "durationTicks": 192,
          "midi": 28,
          "name": "E1",
          "ticks": 24384,
          "time": 26.275855500000002,
          "velocity": 0.3937007874015748
        },
        {
          "duration": 0.4137929999999983,
          "durationTicks": 384,
          "midi": 38,
          "name": "D2",
          "ticks": 24576,
          "time": 26.482752,
          "velocity": 0.3937007874015748
        },
        {
          "duration": 0.4137929999999983,
          "durationTicks": 384,
          "midi": 26,
          "name": "D1",
          "ticks": 24576,
          "time": 26.482752,
          "velocity": 0.3937007874015748
        },
        {
          "duration": 0.10344825000000313,
          "durationTicks": 96,
          "midi": 26,
          "name": "D1",
          "ticks": 24960,
          "time": 26.896545,
          "velocity": 0.3937007874015748
        },
        {
          "duration": 0.10344825000000313,
          "durationTicks": 96,
          "midi": 38,
          "name": "D2",
          "ticks": 24960,
          "time": 26.896545,
          "velocity": 0.3937007874015748
        },
        {
          "duration": 0.10344824999999958,
          "durationTicks": 96,
          "midi": 38,
          "name": "D2",
          "ticks": 25056,
          "time": 26.999993250000003,
          "velocity": 0.3937007874015748
        },
        {
          "duration": 0.10344824999999958,
          "durationTicks": 96,
          "midi": 50,
          "name": "D3",
          "ticks": 25056,
          "time": 26.999993250000003,
          "velocity": 0.3937007874015748
        },
        {
          "duration": 0.10344824999999958,
          "durationTicks": 96,
          "midi": 26,
          "name": "D1",
          "ticks": 25152,
          "time": 27.103441500000002,
          "velocity": 0.3937007874015748
        },
        {
          "duration": 0.10344824999999958,
          "durationTicks": 96,
          "midi": 38,
          "name": "D2",
          "ticks": 25152,
          "time": 27.103441500000002,
          "velocity": 0.3937007874015748
        },
        {
          "duration": 0.10344824999999958,
          "durationTicks": 96,
          "midi": 35,
          "name": "B1",
          "ticks": 25248,
          "time": 27.206889750000002,
          "velocity": 0.3937007874015748
        },
        {
          "duration": 0.10344824999999958,
          "durationTicks": 96,
          "midi": 47,
          "name": "B2",
          "ticks": 25248,
          "time": 27.206889750000002,
          "velocity": 0.3937007874015748
        },
        {
          "duration": 0.10344824999999958,
          "durationTicks": 96,
          "midi": 50,
          "name": "D3",
          "ticks": 25344,
          "time": 27.310338,
          "velocity": 0.3937007874015748
        },
        {
          "duration": 0.10344824999999958,
          "durationTicks": 96,
          "midi": 38,
          "name": "D2",
          "ticks": 25344,
          "time": 27.310338,
          "velocity": 0.3937007874015748
        },
        {
          "duration": 0.10344824999999958,
          "durationTicks": 96,
          "midi": 35,
          "name": "B1",
          "ticks": 25440,
          "time": 27.41378625,
          "velocity": 0.3937007874015748
        },
        {
          "duration": 0.10344824999999958,
          "durationTicks": 96,
          "midi": 47,
          "name": "B2",
          "ticks": 25440,
          "time": 27.41378625,
          "velocity": 0.3937007874015748
        },
        {
          "duration": 0.10344824999999958,
          "durationTicks": 96,
          "midi": 45,
          "name": "A2",
          "ticks": 25536,
          "time": 27.5172345,
          "velocity": 0.3937007874015748
        },
        {
          "duration": 0.10344824999999958,
          "durationTicks": 96,
          "midi": 33,
          "name": "A1",
          "ticks": 25536,
          "time": 27.5172345,
          "velocity": 0.3937007874015748
        },
        {
          "duration": 0.10344825000000313,
          "durationTicks": 96,
          "midi": 33,
          "name": "A1",
          "ticks": 25728,
          "time": 27.724131,
          "velocity": 0.3937007874015748
        },
        {
          "duration": 0.10344825000000313,
          "durationTicks": 96,
          "midi": 45,
          "name": "A2",
          "ticks": 25728,
          "time": 27.724131,
          "velocity": 0.3937007874015748
        },
        {
          "duration": 0.10344824999999958,
          "durationTicks": 96,
          "midi": 35,
          "name": "B1",
          "ticks": 25824,
          "time": 27.827579250000003,
          "velocity": 0.3937007874015748
        },
        {
          "duration": 0.10344824999999958,
          "durationTicks": 96,
          "midi": 47,
          "name": "B2",
          "ticks": 25824,
          "time": 27.827579250000003,
          "velocity": 0.3937007874015748
        },
        {
          "duration": 0.10344824999999958,
          "durationTicks": 96,
          "midi": 37,
          "name": "C#2",
          "ticks": 25920,
          "time": 27.931027500000003,
          "velocity": 0.3937007874015748
        },
        {
          "duration": 0.10344824999999958,
          "durationTicks": 96,
          "midi": 49,
          "name": "C#3",
          "ticks": 25920,
          "time": 27.931027500000003,
          "velocity": 0.3937007874015748
        },
        {
          "duration": 0.10344824999999958,
          "durationTicks": 96,
          "midi": 25,
          "name": "C#1",
          "ticks": 26112,
          "time": 28.137924,
          "velocity": 0.3937007874015748
        },
        {
          "duration": 0.10344824999999958,
          "durationTicks": 96,
          "midi": 37,
          "name": "C#2",
          "ticks": 26112,
          "time": 28.137924,
          "velocity": 0.3937007874015748
        },
        {
          "duration": 0.10344824999999958,
          "durationTicks": 96,
          "midi": 25,
          "name": "C#1",
          "ticks": 26304,
          "time": 28.3448205,
          "velocity": 0.3937007874015748
        },
        {
          "duration": 0.10344824999999958,
          "durationTicks": 96,
          "midi": 37,
          "name": "C#2",
          "ticks": 26304,
          "time": 28.3448205,
          "velocity": 0.3937007874015748
        },
        {
          "duration": 0.10344824999999958,
          "durationTicks": 96,
          "midi": 49,
          "name": "C#3",
          "ticks": 26400,
          "time": 28.44826875,
          "velocity": 0.3937007874015748
        },
        {
          "duration": 0.10344824999999958,
          "durationTicks": 96,
          "midi": 37,
          "name": "C#2",
          "ticks": 26400,
          "time": 28.44826875,
          "velocity": 0.3937007874015748
        },
        {
          "duration": 0.10344824999999958,
          "durationTicks": 96,
          "midi": 49,
          "name": "C#3",
          "ticks": 26592,
          "time": 28.655165250000003,
          "velocity": 0.3937007874015748
        },
        {
          "duration": 0.10344824999999958,
          "durationTicks": 96,
          "midi": 37,
          "name": "C#2",
          "ticks": 26592,
          "time": 28.655165250000003,
          "velocity": 0.3937007874015748
        },
        {
          "duration": 0.4137929999999983,
          "durationTicks": 384,
          "midi": 37,
          "name": "C#2",
          "ticks": 26688,
          "time": 28.758613500000003,
          "velocity": 0.3937007874015748
        },
        {
          "duration": 0.4137929999999983,
          "durationTicks": 384,
          "midi": 25,
          "name": "C#1",
          "ticks": 26688,
          "time": 28.758613500000003,
          "velocity": 0.3937007874015748
        },
        {
          "duration": 0.20689649999999915,
          "durationTicks": 192,
          "midi": 47,
          "name": "B2",
          "ticks": 27072,
          "time": 29.1724065,
          "velocity": 0.3937007874015748
        },
        {
          "duration": 0.20689649999999915,
          "durationTicks": 192,
          "midi": 35,
          "name": "B1",
          "ticks": 27072,
          "time": 29.1724065,
          "velocity": 0.3937007874015748
        },
        {
          "duration": 0.2068965000000027,
          "durationTicks": 192,
          "midi": 36,
          "name": "C2",
          "ticks": 27264,
          "time": 29.379303,
          "velocity": 0.3937007874015748
        },
        {
          "duration": 0.2068965000000027,
          "durationTicks": 192,
          "midi": 48,
          "name": "C3",
          "ticks": 27264,
          "time": 29.379303,
          "velocity": 0.3937007874015748
        },
        {
          "duration": 0.20689649999999915,
          "durationTicks": 192,
          "midi": 49,
          "name": "C#3",
          "ticks": 27456,
          "time": 29.586199500000003,
          "velocity": 0.3937007874015748
        },
        {
          "duration": 0.20689649999999915,
          "durationTicks": 192,
          "midi": 37,
          "name": "C#2",
          "ticks": 27456,
          "time": 29.586199500000003,
          "velocity": 0.3937007874015748
        },
        {
          "duration": 0.3103447499999987,
          "durationTicks": 288,
          "midi": 42,
          "name": "F#2",
          "ticks": 27648,
          "time": 29.793096000000002,
          "velocity": 0.3937007874015748
        },
        {
          "duration": 0.3103447499999987,
          "durationTicks": 288,
          "midi": 30,
          "name": "F#1",
          "ticks": 27648,
          "time": 29.793096000000002,
          "velocity": 0.3937007874015748
        },
        {
          "duration": 0.10344824999999958,
          "durationTicks": 96,
          "midi": 42,
          "name": "F#2",
          "ticks": 27936,
          "time": 30.10344075,
          "velocity": 0.3937007874015748
        },
        {
          "duration": 0.10344824999999958,
          "durationTicks": 96,
          "midi": 30,
          "name": "F#1",
          "ticks": 27936,
          "time": 30.10344075,
          "velocity": 0.3937007874015748
        },
        {
          "duration": 0.10344824999999958,
          "durationTicks": 96,
          "midi": 42,
          "name": "F#2",
          "ticks": 28032,
          "time": 30.206889,
          "velocity": 0.3937007874015748
        },
        {
          "duration": 0.10344824999999958,
          "durationTicks": 96,
          "midi": 54,
          "name": "F#3",
          "ticks": 28032,
          "time": 30.206889,
          "velocity": 0.3937007874015748
        },
        {
          "duration": 0.10344825000000313,
          "durationTicks": 96,
          "midi": 42,
          "name": "F#2",
          "ticks": 28128,
          "time": 30.31033725,
          "velocity": 0.3937007874015748
        },
        {
          "duration": 0.10344825000000313,
          "durationTicks": 96,
          "midi": 30,
          "name": "F#1",
          "ticks": 28128,
          "time": 30.31033725,
          "velocity": 0.3937007874015748
        },
        {
          "duration": 0.10344824999999958,
          "durationTicks": 96,
          "midi": 42,
          "name": "F#2",
          "ticks": 28320,
          "time": 30.517233750000003,
          "velocity": 0.3937007874015748
        },
        {
          "duration": 0.10344824999999958,
          "durationTicks": 96,
          "midi": 30,
          "name": "F#1",
          "ticks": 28320,
          "time": 30.517233750000003,
          "velocity": 0.3937007874015748
        },
        {
          "duration": 0.20689649999999915,
          "durationTicks": 192,
          "midi": 57,
          "name": "A3",
          "ticks": 28416,
          "time": 30.620682000000002,
          "velocity": 0.3937007874015748
        },
        {
          "duration": 0.20689649999999915,
          "durationTicks": 192,
          "midi": 45,
          "name": "A2",
          "ticks": 28416,
          "time": 30.620682000000002,
          "velocity": 0.3937007874015748
        },
        {
          "duration": 0.20689649999999915,
          "durationTicks": 192,
          "midi": 56,
          "name": "G#3",
          "ticks": 28608,
          "time": 30.8275785,
          "velocity": 0.3937007874015748
        },
        {
          "duration": 0.20689649999999915,
          "durationTicks": 192,
          "midi": 44,
          "name": "G#2",
          "ticks": 28608,
          "time": 30.8275785,
          "velocity": 0.3937007874015748
        },
        {
          "duration": 0.10344824999999958,
          "durationTicks": 96,
          "midi": 54,
          "name": "F#3",
          "ticks": 28800,
          "time": 31.034475,
          "velocity": 0.3937007874015748
        },
        {
          "duration": 0.10344824999999958,
          "durationTicks": 96,
          "midi": 42,
          "name": "F#2",
          "ticks": 28800,
          "time": 31.034475,
          "velocity": 0.3937007874015748
        },
        {
          "duration": 0.10344825000000313,
          "durationTicks": 96,
          "midi": 44,
          "name": "G#2",
          "ticks": 28896,
          "time": 31.13792325,
          "velocity": 0.3937007874015748
        },
        {
          "duration": 0.10344825000000313,
          "durationTicks": 96,
          "midi": 56,
          "name": "G#3",
          "ticks": 28896,
          "time": 31.13792325,
          "velocity": 0.3937007874015748
        },
        {
          "duration": 0.10344824999999958,
          "durationTicks": 96,
          "midi": 57,
          "name": "A3",
          "ticks": 28944,
          "time": 31.189647375000003,
          "velocity": 0.3937007874015748
        },
        {
          "duration": 0.10344824999999958,
          "durationTicks": 96,
          "midi": 45,
          "name": "A2",
          "ticks": 28944,
          "time": 31.189647375000003,
          "velocity": 0.3937007874015748
        },
        {
          "duration": 0.20689649999999915,
          "durationTicks": 192,
          "midi": 40,
          "name": "E2",
          "ticks": 28992,
          "time": 31.241371500000003,
          "velocity": 0.3937007874015748
        },
        {
          "duration": 0.20689649999999915,
          "durationTicks": 192,
          "midi": 52,
          "name": "E3",
          "ticks": 28992,
          "time": 31.241371500000003,
          "velocity": 0.3937007874015748
        },
        {
          "duration": 0.3103447499999987,
          "durationTicks": 288,
          "midi": 28,
          "name": "E1",
          "ticks": 29184,
          "time": 31.448268000000002,
          "velocity": 0.3937007874015748
        },
        {
          "duration": 0.3103447499999987,
          "durationTicks": 288,
          "midi": 40,
          "name": "E2",
          "ticks": 29184,
          "time": 31.448268000000002,
          "velocity": 0.3937007874015748
        },
        {
          "duration": 0.10344824999999958,
          "durationTicks": 96,
          "midi": 40,
          "name": "E2",
          "ticks": 29472,
          "time": 31.75861275,
          "velocity": 0.3937007874015748
        },
        {
          "duration": 0.10344824999999958,
          "durationTicks": 96,
          "midi": 28,
          "name": "E1",
          "ticks": 29472,
          "time": 31.75861275,
          "velocity": 0.3937007874015748
        },
        {
          "duration": 0.2068965000000027,
          "durationTicks": 192,
          "midi": 40,
          "name": "E2",
          "ticks": 29568,
          "time": 31.862061,
          "velocity": 0.3937007874015748
        },
        {
          "duration": 0.2068965000000027,
          "durationTicks": 192,
          "midi": 52,
          "name": "E3",
          "ticks": 29568,
          "time": 31.862061,
          "velocity": 0.3937007874015748
        },
        {
          "duration": 0.20689649999999915,
          "durationTicks": 192,
          "midi": 28,
          "name": "E1",
          "ticks": 29760,
          "time": 32.0689575,
          "velocity": 0.3937007874015748
        },
        {
          "duration": 0.20689649999999915,
          "durationTicks": 192,
          "midi": 40,
          "name": "E2",
          "ticks": 29760,
          "time": 32.0689575,
          "velocity": 0.3937007874015748
        },
        {
          "duration": 0.20689649999999915,
          "durationTicks": 192,
          "midi": 52,
          "name": "E3",
          "ticks": 29952,
          "time": 32.275854,
          "velocity": 0.3937007874015748
        },
        {
          "duration": 0.20689649999999915,
          "durationTicks": 192,
          "midi": 40,
          "name": "E2",
          "ticks": 29952,
          "time": 32.275854,
          "velocity": 0.3937007874015748
        },
        {
          "duration": 0.20689649999999915,
          "durationTicks": 192,
          "midi": 38,
          "name": "D2",
          "ticks": 30144,
          "time": 32.4827505,
          "velocity": 0.3937007874015748
        },
        {
          "duration": 0.20689649999999915,
          "durationTicks": 192,
          "midi": 50,
          "name": "D3",
          "ticks": 30144,
          "time": 32.4827505,
          "velocity": 0.3937007874015748
        },
        {
          "duration": 0.20689649999999915,
          "durationTicks": 192,
          "midi": 49,
          "name": "C#3",
          "ticks": 30336,
          "time": 32.689647,
          "velocity": 0.3937007874015748
        },
        {
          "duration": 0.20689649999999915,
          "durationTicks": 192,
          "midi": 37,
          "name": "C#2",
          "ticks": 30336,
          "time": 32.689647,
          "velocity": 0.3937007874015748
        },
        {
          "duration": 0.20689649999999915,
          "durationTicks": 192,
          "midi": 50,
          "name": "D3",
          "ticks": 30528,
          "time": 32.8965435,
          "velocity": 0.3937007874015748
        },
        {
          "duration": 0.20689649999999915,
          "durationTicks": 192,
          "midi": 38,
          "name": "D2",
          "ticks": 30528,
          "time": 32.8965435,
          "velocity": 0.3937007874015748
        },
        {
          "duration": 0.4137930000000054,
          "durationTicks": 384,
          "midi": 38,
          "name": "D2",
          "ticks": 30720,
          "time": 33.10344,
          "velocity": 0.3937007874015748
        },
        {
          "duration": 0.4137930000000054,
          "durationTicks": 384,
          "midi": 26,
          "name": "D1",
          "ticks": 30720,
          "time": 33.10344,
          "velocity": 0.3937007874015748
        },
        {
          "duration": 0.10344824999999958,
          "durationTicks": 96,
          "midi": 26,
          "name": "D1",
          "ticks": 31104,
          "time": 33.517233000000004,
          "velocity": 0.3937007874015748
        },
        {
          "duration": 0.10344824999999958,
          "durationTicks": 96,
          "midi": 38,
          "name": "D2",
          "ticks": 31104,
          "time": 33.517233000000004,
          "velocity": 0.3937007874015748
        },
        {
          "duration": 0.10344824999999958,
          "durationTicks": 96,
          "midi": 38,
          "name": "D2",
          "ticks": 31200,
          "time": 33.620681250000004,
          "velocity": 0.3937007874015748
        },
        {
          "duration": 0.10344824999999958,
          "durationTicks": 96,
          "midi": 50,
          "name": "D3",
          "ticks": 31200,
          "time": 33.620681250000004,
          "velocity": 0.3937007874015748
        },
        {
          "duration": 0.10344824999999958,
          "durationTicks": 96,
          "midi": 26,
          "name": "D1",
          "ticks": 31296,
          "time": 33.724129500000004,
          "velocity": 0.3937007874015748
        },
        {
          "duration": 0.10344824999999958,
          "durationTicks": 96,
          "midi": 38,
          "name": "D2",
          "ticks": 31296,
          "time": 33.724129500000004,
          "velocity": 0.3937007874015748
        },
        {
          "duration": 0.10344824999999958,
          "durationTicks": 96,
          "midi": 35,
          "name": "B1",
          "ticks": 31392,
          "time": 33.82757775,
          "velocity": 0.3937007874015748
        },
        {
          "duration": 0.10344824999999958,
          "durationTicks": 96,
          "midi": 47,
          "name": "B2",
          "ticks": 31392,
          "time": 33.82757775,
          "velocity": 0.3937007874015748
        },
        {
          "duration": 0.10344824999999958,
          "durationTicks": 96,
          "midi": 50,
          "name": "D3",
          "ticks": 31488,
          "time": 33.931026,
          "velocity": 0.3937007874015748
        },
        {
          "duration": 0.10344824999999958,
          "durationTicks": 96,
          "midi": 38,
          "name": "D2",
          "ticks": 31488,
          "time": 33.931026,
          "velocity": 0.3937007874015748
        },
        {
          "duration": 0.10344824999999958,
          "durationTicks": 96,
          "midi": 35,
          "name": "B1",
          "ticks": 31584,
          "time": 34.03447425,
          "velocity": 0.3937007874015748
        },
        {
          "duration": 0.10344824999999958,
          "durationTicks": 96,
          "midi": 47,
          "name": "B2",
          "ticks": 31584,
          "time": 34.03447425,
          "velocity": 0.3937007874015748
        },
        {
          "duration": 0.10344824999999958,
          "durationTicks": 96,
          "midi": 45,
          "name": "A2",
          "ticks": 31680,
          "time": 34.1379225,
          "velocity": 0.3937007874015748
        },
        {
          "duration": 0.10344824999999958,
          "durationTicks": 96,
          "midi": 33,
          "name": "A1",
          "ticks": 31680,
          "time": 34.1379225,
          "velocity": 0.3937007874015748
        },
        {
          "duration": 0.10344824999999958,
          "durationTicks": 96,
          "midi": 33,
          "name": "A1",
          "ticks": 31872,
          "time": 34.344819,
          "velocity": 0.3937007874015748
        },
        {
          "duration": 0.10344824999999958,
          "durationTicks": 96,
          "midi": 45,
          "name": "A2",
          "ticks": 31872,
          "time": 34.344819,
          "velocity": 0.3937007874015748
        },
        {
          "duration": 0.10344824999999958,
          "durationTicks": 96,
          "midi": 47,
          "name": "B2",
          "ticks": 31968,
          "time": 34.44826725,
          "velocity": 0.3937007874015748
        },
        {
          "duration": 0.10344824999999958,
          "durationTicks": 96,
          "midi": 35,
          "name": "B1",
          "ticks": 31968,
          "time": 34.44826725,
          "velocity": 0.3937007874015748
        },
        {
          "duration": 0.10344824999999958,
          "durationTicks": 96,
          "midi": 37,
          "name": "C#2",
          "ticks": 32064,
          "time": 34.5517155,
          "velocity": 0.3937007874015748
        },
        {
          "duration": 0.10344824999999958,
          "durationTicks": 96,
          "midi": 49,
          "name": "C#3",
          "ticks": 32064,
          "time": 34.5517155,
          "velocity": 0.3937007874015748
        },
        {
          "duration": 0.10344824999999958,
          "durationTicks": 96,
          "midi": 37,
          "name": "C#2",
          "ticks": 32256,
          "time": 34.758612,
          "velocity": 0.3937007874015748
        },
        {
          "duration": 0.10344824999999958,
          "durationTicks": 96,
          "midi": 25,
          "name": "C#1",
          "ticks": 32256,
          "time": 34.758612,
          "velocity": 0.3937007874015748
        },
        {
          "duration": 0.10344825000000668,
          "durationTicks": 96,
          "midi": 25,
          "name": "C#1",
          "ticks": 32448,
          "time": 34.9655085,
          "velocity": 0.3937007874015748
        },
        {
          "duration": 0.10344825000000668,
          "durationTicks": 96,
          "midi": 37,
          "name": "C#2",
          "ticks": 32448,
          "time": 34.9655085,
          "velocity": 0.3937007874015748
        },
        {
          "duration": 0.10344824999999958,
          "durationTicks": 96,
          "midi": 49,
          "name": "C#3",
          "ticks": 32544,
          "time": 35.068956750000005,
          "velocity": 0.3937007874015748
        },
        {
          "duration": 0.10344824999999958,
          "durationTicks": 96,
          "midi": 37,
          "name": "C#2",
          "ticks": 32544,
          "time": 35.068956750000005,
          "velocity": 0.3937007874015748
        },
        {
          "duration": 0.10344824999999958,
          "durationTicks": 96,
          "midi": 37,
          "name": "C#2",
          "ticks": 32736,
          "time": 35.275853250000004,
          "velocity": 0.3937007874015748
        },
        {
          "duration": 0.10344824999999958,
          "durationTicks": 96,
          "midi": 49,
          "name": "C#3",
          "ticks": 32736,
          "time": 35.275853250000004,
          "velocity": 0.3937007874015748
        },
        {
          "duration": 0.4137929999999983,
          "durationTicks": 384,
          "midi": 37,
          "name": "C#2",
          "ticks": 32832,
          "time": 35.379301500000004,
          "velocity": 0.3937007874015748
        },
        {
          "duration": 0.4137929999999983,
          "durationTicks": 384,
          "midi": 25,
          "name": "C#1",
          "ticks": 32832,
          "time": 35.379301500000004,
          "velocity": 0.3937007874015748
        },
        {
          "duration": 0.20689649999999915,
          "durationTicks": 192,
          "midi": 47,
          "name": "B2",
          "ticks": 33216,
          "time": 35.7930945,
          "velocity": 0.3937007874015748
        },
        {
          "duration": 0.20689649999999915,
          "durationTicks": 192,
          "midi": 35,
          "name": "B1",
          "ticks": 33216,
          "time": 35.7930945,
          "velocity": 0.3937007874015748
        },
        {
          "duration": 0.20689649999999915,
          "durationTicks": 192,
          "midi": 48,
          "name": "C3",
          "ticks": 33408,
          "time": 35.999991,
          "velocity": 0.3937007874015748
        },
        {
          "duration": 0.20689649999999915,
          "durationTicks": 192,
          "midi": 36,
          "name": "C2",
          "ticks": 33408,
          "time": 35.999991,
          "velocity": 0.3937007874015748
        },
        {
          "duration": 0.20689649999999915,
          "durationTicks": 192,
          "midi": 37,
          "name": "C#2",
          "ticks": 33600,
          "time": 36.2068875,
          "velocity": 0.3937007874015748
        },
        {
          "duration": 0.20689649999999915,
          "durationTicks": 192,
          "midi": 49,
          "name": "C#3",
          "ticks": 33600,
          "time": 36.2068875,
          "velocity": 0.3937007874015748
        },
        {
          "duration": 0.3103447499999987,
          "durationTicks": 288,
          "midi": 30,
          "name": "F#1",
          "ticks": 33792,
          "time": 36.413784,
          "velocity": 0.3937007874015748
        },
        {
          "duration": 0.3103447499999987,
          "durationTicks": 288,
          "midi": 42,
          "name": "F#2",
          "ticks": 33792,
          "time": 36.413784,
          "velocity": 0.3937007874015748
        },
        {
          "duration": 0.10344825000000668,
          "durationTicks": 96,
          "midi": 30,
          "name": "F#1",
          "ticks": 34080,
          "time": 36.72412875,
          "velocity": 0.3937007874015748
        },
        {
          "duration": 0.10344825000000668,
          "durationTicks": 96,
          "midi": 42,
          "name": "F#2",
          "ticks": 34080,
          "time": 36.72412875,
          "velocity": 0.3937007874015748
        },
        {
          "duration": 0.10344824999999958,
          "durationTicks": 96,
          "midi": 42,
          "name": "F#2",
          "ticks": 34176,
          "time": 36.827577000000005,
          "velocity": 0.3937007874015748
        },
        {
          "duration": 0.10344824999999958,
          "durationTicks": 96,
          "midi": 54,
          "name": "F#3",
          "ticks": 34176,
          "time": 36.827577000000005,
          "velocity": 0.3937007874015748
        },
        {
          "duration": 0.10344824999999958,
          "durationTicks": 96,
          "midi": 30,
          "name": "F#1",
          "ticks": 34272,
          "time": 36.931025250000005,
          "velocity": 0.3937007874015748
        },
        {
          "duration": 0.10344824999999958,
          "durationTicks": 96,
          "midi": 42,
          "name": "F#2",
          "ticks": 34272,
          "time": 36.931025250000005,
          "velocity": 0.3937007874015748
        },
        {
          "duration": 0.10344824999999958,
          "durationTicks": 96,
          "midi": 30,
          "name": "F#1",
          "ticks": 34464,
          "time": 37.137921750000004,
          "velocity": 0.3937007874015748
        },
        {
          "duration": 0.10344824999999958,
          "durationTicks": 96,
          "midi": 42,
          "name": "F#2",
          "ticks": 34464,
          "time": 37.137921750000004,
          "velocity": 0.3937007874015748
        },
        {
          "duration": 0.20689649999999915,
          "durationTicks": 192,
          "midi": 45,
          "name": "A2",
          "ticks": 34560,
          "time": 37.24137,
          "velocity": 0.3937007874015748
        },
        {
          "duration": 0.20689649999999915,
          "durationTicks": 192,
          "midi": 57,
          "name": "A3",
          "ticks": 34560,
          "time": 37.24137,
          "velocity": 0.3937007874015748
        },
        {
          "duration": 0.20689649999999915,
          "durationTicks": 192,
          "midi": 44,
          "name": "G#2",
          "ticks": 34752,
          "time": 37.4482665,
          "velocity": 0.3937007874015748
        },
        {
          "duration": 0.20689649999999915,
          "durationTicks": 192,
          "midi": 56,
          "name": "G#3",
          "ticks": 34752,
          "time": 37.4482665,
          "velocity": 0.3937007874015748
        },
        {
          "duration": 0.10344824999999958,
          "durationTicks": 96,
          "midi": 42,
          "name": "F#2",
          "ticks": 34944,
          "time": 37.655163,
          "velocity": 0.3937007874015748
        },
        {
          "duration": 0.10344824999999958,
          "durationTicks": 96,
          "midi": 54,
          "name": "F#3",
          "ticks": 34944,
          "time": 37.655163,
          "velocity": 0.3937007874015748
        },
        {
          "duration": 0.10344824999999958,
          "durationTicks": 96,
          "midi": 56,
          "name": "G#3",
          "ticks": 35040,
          "time": 37.75861125,
          "velocity": 0.3937007874015748
        },
        {
          "duration": 0.10344824999999958,
          "durationTicks": 96,
          "midi": 44,
          "name": "G#2",
          "ticks": 35040,
          "time": 37.75861125,
          "velocity": 0.3937007874015748
        },
        {
          "duration": 0.10344824999999958,
          "durationTicks": 96,
          "midi": 57,
          "name": "A3",
          "ticks": 35088,
          "time": 37.810335375,
          "velocity": 0.3937007874015748
        },
        {
          "duration": 0.10344824999999958,
          "durationTicks": 96,
          "midi": 45,
          "name": "A2",
          "ticks": 35088,
          "time": 37.810335375,
          "velocity": 0.3937007874015748
        },
        {
          "duration": 0.20689649999999915,
          "durationTicks": 192,
          "midi": 52,
          "name": "E3",
          "ticks": 35136,
          "time": 37.8620595,
          "velocity": 0.3937007874015748
        },
        {
          "duration": 0.20689649999999915,
          "durationTicks": 192,
          "midi": 40,
          "name": "E2",
          "ticks": 35136,
          "time": 37.8620595,
          "velocity": 0.3937007874015748
        },
        {
          "duration": 0.3103447499999987,
          "durationTicks": 288,
          "midi": 28,
          "name": "E1",
          "ticks": 35328,
          "time": 38.068956,
          "velocity": 0.3937007874015748
        },
        {
          "duration": 0.3103447499999987,
          "durationTicks": 288,
          "midi": 40,
          "name": "E2",
          "ticks": 35328,
          "time": 38.068956,
          "velocity": 0.3937007874015748
        },
        {
          "duration": 0.10344825000000668,
          "durationTicks": 96,
          "midi": 40,
          "name": "E2",
          "ticks": 35616,
          "time": 38.37930075,
          "velocity": 0.3937007874015748
        },
        {
          "duration": 0.10344825000000668,
          "durationTicks": 96,
          "midi": 28,
          "name": "E1",
          "ticks": 35616,
          "time": 38.37930075,
          "velocity": 0.3937007874015748
        },
        {
          "duration": 0.20689649999999915,
          "durationTicks": 192,
          "midi": 40,
          "name": "E2",
          "ticks": 35712,
          "time": 38.482749000000005,
          "velocity": 0.3937007874015748
        },
        {
          "duration": 0.20689649999999915,
          "durationTicks": 192,
          "midi": 52,
          "name": "E3",
          "ticks": 35712,
          "time": 38.482749000000005,
          "velocity": 0.3937007874015748
        },
        {
          "duration": 0.20689649999999915,
          "durationTicks": 192,
          "midi": 28,
          "name": "E1",
          "ticks": 35904,
          "time": 38.689645500000005,
          "velocity": 0.3937007874015748
        },
        {
          "duration": 0.20689649999999915,
          "durationTicks": 192,
          "midi": 40,
          "name": "E2",
          "ticks": 35904,
          "time": 38.689645500000005,
          "velocity": 0.3937007874015748
        },
        {
          "duration": 0.20689649999999915,
          "durationTicks": 192,
          "midi": 52,
          "name": "E3",
          "ticks": 36096,
          "time": 38.896542000000004,
          "velocity": 0.3937007874015748
        },
        {
          "duration": 0.20689649999999915,
          "durationTicks": 192,
          "midi": 40,
          "name": "E2",
          "ticks": 36096,
          "time": 38.896542000000004,
          "velocity": 0.3937007874015748
        },
        {
          "duration": 0.20689649999999915,
          "durationTicks": 192,
          "midi": 38,
          "name": "D2",
          "ticks": 36288,
          "time": 39.1034385,
          "velocity": 0.3937007874015748
        },
        {
          "duration": 0.20689649999999915,
          "durationTicks": 192,
          "midi": 50,
          "name": "D3",
          "ticks": 36288,
          "time": 39.1034385,
          "velocity": 0.3937007874015748
        },
        {
          "duration": 0.20689649999999915,
          "durationTicks": 192,
          "midi": 37,
          "name": "C#2",
          "ticks": 36480,
          "time": 39.310335,
          "velocity": 0.3937007874015748
        },
        {
          "duration": 0.20689649999999915,
          "durationTicks": 192,
          "midi": 49,
          "name": "C#3",
          "ticks": 36480,
          "time": 39.310335,
          "velocity": 0.3937007874015748
        },
        {
          "duration": 0.20689649999999915,
          "durationTicks": 192,
          "midi": 50,
          "name": "D3",
          "ticks": 36672,
          "time": 39.5172315,
          "velocity": 0.3937007874015748
        },
        {
          "duration": 0.20689649999999915,
          "durationTicks": 192,
          "midi": 38,
          "name": "D2",
          "ticks": 36672,
          "time": 39.5172315,
          "velocity": 0.3937007874015748
        },
        {
          "duration": 0.4137929999999983,
          "durationTicks": 384,
          "midi": 26,
          "name": "D1",
          "ticks": 36864,
          "time": 39.724128,
          "velocity": 0.3937007874015748
        },
        {
          "duration": 0.4137929999999983,
          "durationTicks": 384,
          "midi": 38,
          "name": "D2",
          "ticks": 36864,
          "time": 39.724128,
          "velocity": 0.3937007874015748
        },
        {
          "duration": 0.10344825000000668,
          "durationTicks": 96,
          "midi": 38,
          "name": "D2",
          "ticks": 37248,
          "time": 40.137921,
          "velocity": 0.3937007874015748
        },
        {
          "duration": 0.10344825000000668,
          "durationTicks": 96,
          "midi": 26,
          "name": "D1",
          "ticks": 37248,
          "time": 40.137921,
          "velocity": 0.3937007874015748
        },
        {
          "duration": 0.10344824999999958,
          "durationTicks": 96,
          "midi": 38,
          "name": "D2",
          "ticks": 37344,
          "time": 40.241369250000005,
          "velocity": 0.3937007874015748
        },
        {
          "duration": 0.10344824999999958,
          "durationTicks": 96,
          "midi": 50,
          "name": "D3",
          "ticks": 37344,
          "time": 40.241369250000005,
          "velocity": 0.3937007874015748
        },
        {
          "duration": 0.10344824999999958,
          "durationTicks": 96,
          "midi": 26,
          "name": "D1",
          "ticks": 37440,
          "time": 40.344817500000005,
          "velocity": 0.3937007874015748
        },
        {
          "duration": 0.10344824999999958,
          "durationTicks": 96,
          "midi": 38,
          "name": "D2",
          "ticks": 37440,
          "time": 40.344817500000005,
          "velocity": 0.3937007874015748
        },
        {
          "duration": 0.10344824999999958,
          "durationTicks": 96,
          "midi": 35,
          "name": "B1",
          "ticks": 37536,
          "time": 40.448265750000004,
          "velocity": 0.3937007874015748
        },
        {
          "duration": 0.10344824999999958,
          "durationTicks": 96,
          "midi": 47,
          "name": "B2",
          "ticks": 37536,
          "time": 40.448265750000004,
          "velocity": 0.3937007874015748
        },
        {
          "duration": 0.10344824999999958,
          "durationTicks": 96,
          "midi": 38,
          "name": "D2",
          "ticks": 37632,
          "time": 40.551714000000004,
          "velocity": 0.3937007874015748
        },
        {
          "duration": 0.10344824999999958,
          "durationTicks": 96,
          "midi": 50,
          "name": "D3",
          "ticks": 37632,
          "time": 40.551714000000004,
          "velocity": 0.3937007874015748
        },
        {
          "duration": 0.10344824999999958,
          "durationTicks": 96,
          "midi": 35,
          "name": "B1",
          "ticks": 37728,
          "time": 40.655162250000004,
          "velocity": 0.3937007874015748
        },
        {
          "duration": 0.10344824999999958,
          "durationTicks": 96,
          "midi": 47,
          "name": "B2",
          "ticks": 37728,
          "time": 40.655162250000004,
          "velocity": 0.3937007874015748
        },
        {
          "duration": 0.10344824999999958,
          "durationTicks": 96,
          "midi": 45,
          "name": "A2",
          "ticks": 37824,
          "time": 40.7586105,
          "velocity": 0.3937007874015748
        },
        {
          "duration": 0.10344824999999958,
          "durationTicks": 96,
          "midi": 33,
          "name": "A1",
          "ticks": 37824,
          "time": 40.7586105,
          "velocity": 0.3937007874015748
        },
        {
          "duration": 0.10344824999999958,
          "durationTicks": 96,
          "midi": 33,
          "name": "A1",
          "ticks": 38016,
          "time": 40.965507,
          "velocity": 0.3937007874015748
        },
        {
          "duration": 0.10344824999999958,
          "durationTicks": 96,
          "midi": 45,
          "name": "A2",
          "ticks": 38016,
          "time": 40.965507,
          "velocity": 0.3937007874015748
        },
        {
          "duration": 0.10344824999999958,
          "durationTicks": 96,
          "midi": 47,
          "name": "B2",
          "ticks": 38112,
          "time": 41.06895525,
          "velocity": 0.3937007874015748
        },
        {
          "duration": 0.10344824999999958,
          "durationTicks": 96,
          "midi": 35,
          "name": "B1",
          "ticks": 38112,
          "time": 41.06895525,
          "velocity": 0.3937007874015748
        },
        {
          "duration": 0.10344824999999958,
          "durationTicks": 96,
          "midi": 49,
          "name": "C#3",
          "ticks": 38208,
          "time": 41.1724035,
          "velocity": 0.3937007874015748
        },
        {
          "duration": 0.10344824999999958,
          "durationTicks": 96,
          "midi": 37,
          "name": "C#2",
          "ticks": 38208,
          "time": 41.1724035,
          "velocity": 0.3937007874015748
        },
        {
          "duration": 0.10344824999999958,
          "durationTicks": 96,
          "midi": 37,
          "name": "C#2",
          "ticks": 38400,
          "time": 41.3793,
          "velocity": 0.3937007874015748
        },
        {
          "duration": 0.10344824999999958,
          "durationTicks": 96,
          "midi": 25,
          "name": "C#1",
          "ticks": 38400,
          "time": 41.3793,
          "velocity": 0.3937007874015748
        },
        {
          "duration": 0.10344824999999958,
          "durationTicks": 96,
          "midi": 37,
          "name": "C#2",
          "ticks": 38592,
          "time": 41.5861965,
          "velocity": 0.3937007874015748
        },
        {
          "duration": 0.10344824999999958,
          "durationTicks": 96,
          "midi": 25,
          "name": "C#1",
          "ticks": 38592,
          "time": 41.5861965,
          "velocity": 0.3937007874015748
        },
        {
          "duration": 0.10344824999999958,
          "durationTicks": 96,
          "midi": 37,
          "name": "C#2",
          "ticks": 38688,
          "time": 41.68964475,
          "velocity": 0.3937007874015748
        },
        {
          "duration": 0.10344824999999958,
          "durationTicks": 96,
          "midi": 49,
          "name": "C#3",
          "ticks": 38688,
          "time": 41.68964475,
          "velocity": 0.3937007874015748
        },
        {
          "duration": 0.10344824999999958,
          "durationTicks": 96,
          "midi": 37,
          "name": "C#2",
          "ticks": 38880,
          "time": 41.896541250000006,
          "velocity": 0.3937007874015748
        },
        {
          "duration": 0.10344824999999958,
          "durationTicks": 96,
          "midi": 49,
          "name": "C#3",
          "ticks": 38880,
          "time": 41.896541250000006,
          "velocity": 0.3937007874015748
        },
        {
          "duration": 0.4137929999999983,
          "durationTicks": 384,
          "midi": 37,
          "name": "C#2",
          "ticks": 38976,
          "time": 41.999989500000005,
          "velocity": 0.3937007874015748
        },
        {
          "duration": 0.4137929999999983,
          "durationTicks": 384,
          "midi": 25,
          "name": "C#1",
          "ticks": 38976,
          "time": 41.999989500000005,
          "velocity": 0.3937007874015748
        },
        {
          "duration": 0.20689649999999915,
          "durationTicks": 192,
          "midi": 35,
          "name": "B1",
          "ticks": 39360,
          "time": 42.4137825,
          "velocity": 0.3937007874015748
        },
        {
          "duration": 0.20689649999999915,
          "durationTicks": 192,
          "midi": 47,
          "name": "B2",
          "ticks": 39360,
          "time": 42.4137825,
          "velocity": 0.3937007874015748
        },
        {
          "duration": 0.20689649999999915,
          "durationTicks": 192,
          "midi": 36,
          "name": "C2",
          "ticks": 39552,
          "time": 42.620679,
          "velocity": 0.3937007874015748
        },
        {
          "duration": 0.20689649999999915,
          "durationTicks": 192,
          "midi": 48,
          "name": "C3",
          "ticks": 39552,
          "time": 42.620679,
          "velocity": 0.3937007874015748
        },
        {
          "duration": 0.20689649999999915,
          "durationTicks": 192,
          "midi": 37,
          "name": "C#2",
          "ticks": 39744,
          "time": 42.8275755,
          "velocity": 0.3937007874015748
        },
        {
          "duration": 0.20689649999999915,
          "durationTicks": 192,
          "midi": 49,
          "name": "C#3",
          "ticks": 39744,
          "time": 42.8275755,
          "velocity": 0.3937007874015748
        },
        {
          "duration": 0.3103447499999987,
          "durationTicks": 288,
          "midi": 42,
          "name": "F#2",
          "ticks": 39936,
          "time": 43.034472,
          "velocity": 0.3937007874015748
        },
        {
          "duration": 0.3103447499999987,
          "durationTicks": 288,
          "midi": 30,
          "name": "F#1",
          "ticks": 39936,
          "time": 43.034472,
          "velocity": 0.3937007874015748
        },
        {
          "duration": 0.10344824999999958,
          "durationTicks": 96,
          "midi": 30,
          "name": "F#1",
          "ticks": 40224,
          "time": 43.34481675,
          "velocity": 0.3937007874015748
        },
        {
          "duration": 0.10344824999999958,
          "durationTicks": 96,
          "midi": 42,
          "name": "F#2",
          "ticks": 40224,
          "time": 43.34481675,
          "velocity": 0.3937007874015748
        },
        {
          "duration": 0.10344824999999958,
          "durationTicks": 96,
          "midi": 42,
          "name": "F#2",
          "ticks": 40320,
          "time": 43.448265,
          "velocity": 0.3937007874015748
        },
        {
          "duration": 0.10344824999999958,
          "durationTicks": 96,
          "midi": 54,
          "name": "F#3",
          "ticks": 40320,
          "time": 43.448265,
          "velocity": 0.3937007874015748
        },
        {
          "duration": 0.10344825000000668,
          "durationTicks": 96,
          "midi": 30,
          "name": "F#1",
          "ticks": 40416,
          "time": 43.55171325,
          "velocity": 0.3937007874015748
        },
        {
          "duration": 0.10344825000000668,
          "durationTicks": 96,
          "midi": 42,
          "name": "F#2",
          "ticks": 40416,
          "time": 43.55171325,
          "velocity": 0.3937007874015748
        },
        {
          "duration": 0.10344824999999958,
          "durationTicks": 96,
          "midi": 42,
          "name": "F#2",
          "ticks": 40608,
          "time": 43.758609750000005,
          "velocity": 0.3937007874015748
        },
        {
          "duration": 0.10344824999999958,
          "durationTicks": 96,
          "midi": 30,
          "name": "F#1",
          "ticks": 40608,
          "time": 43.758609750000005,
          "velocity": 0.3937007874015748
        },
        {
          "duration": 0.20689649999999915,
          "durationTicks": 192,
          "midi": 45,
          "name": "A2",
          "ticks": 40704,
          "time": 43.862058000000005,
          "velocity": 0.3937007874015748
        },
        {
          "duration": 0.20689649999999915,
          "durationTicks": 192,
          "midi": 57,
          "name": "A3",
          "ticks": 40704,
          "time": 43.862058000000005,
          "velocity": 0.3937007874015748
        },
        {
          "duration": 0.20689649999999915,
          "durationTicks": 192,
          "midi": 44,
          "name": "G#2",
          "ticks": 40896,
          "time": 44.068954500000004,
          "velocity": 0.3937007874015748
        },
        {
          "duration": 0.20689649999999915,
          "durationTicks": 192,
          "midi": 56,
          "name": "G#3",
          "ticks": 40896,
          "time": 44.068954500000004,
          "velocity": 0.3937007874015748
        },
        {
          "duration": 0.10344824999999958,
          "durationTicks": 96,
          "midi": 42,
          "name": "F#2",
          "ticks": 41088,
          "time": 44.275851,
          "velocity": 0.3937007874015748
        },
        {
          "duration": 0.10344824999999958,
          "durationTicks": 96,
          "midi": 54,
          "name": "F#3",
          "ticks": 41088,
          "time": 44.275851,
          "velocity": 0.3937007874015748
        },
        {
          "duration": 0.10344824999999958,
          "durationTicks": 96,
          "midi": 56,
          "name": "G#3",
          "ticks": 41184,
          "time": 44.37929925,
          "velocity": 0.3937007874015748
        },
        {
          "duration": 0.10344824999999958,
          "durationTicks": 96,
          "midi": 44,
          "name": "G#2",
          "ticks": 41184,
          "time": 44.37929925,
          "velocity": 0.3937007874015748
        },
        {
          "duration": 0.10344824999999958,
          "durationTicks": 96,
          "midi": 57,
          "name": "A3",
          "ticks": 41232,
          "time": 44.431023375,
          "velocity": 0.3937007874015748
        },
        {
          "duration": 0.10344824999999958,
          "durationTicks": 96,
          "midi": 45,
          "name": "A2",
          "ticks": 41232,
          "time": 44.431023375,
          "velocity": 0.3937007874015748
        },
        {
          "duration": 0.20689649999999915,
          "durationTicks": 192,
          "midi": 40,
          "name": "E2",
          "ticks": 41280,
          "time": 44.4827475,
          "velocity": 0.3937007874015748
        },
        {
          "duration": 0.20689649999999915,
          "durationTicks": 192,
          "midi": 52,
          "name": "E3",
          "ticks": 41280,
          "time": 44.4827475,
          "velocity": 0.3937007874015748
        },
        {
          "duration": 0.3103447499999987,
          "durationTicks": 288,
          "midi": 28,
          "name": "E1",
          "ticks": 41472,
          "time": 44.689644,
          "velocity": 0.3937007874015748
        },
        {
          "duration": 0.3103447499999987,
          "durationTicks": 288,
          "midi": 40,
          "name": "E2",
          "ticks": 41472,
          "time": 44.689644,
          "velocity": 0.3937007874015748
        },
        {
          "duration": 0.10344824999999958,
          "durationTicks": 96,
          "midi": 28,
          "name": "E1",
          "ticks": 41760,
          "time": 44.99998875,
          "velocity": 0.3937007874015748
        },
        {
          "duration": 0.10344824999999958,
          "durationTicks": 96,
          "midi": 40,
          "name": "E2",
          "ticks": 41760,
          "time": 44.99998875,
          "velocity": 0.3937007874015748
        },
        {
          "duration": 0.20689650000000626,
          "durationTicks": 192,
          "midi": 40,
          "name": "E2",
          "ticks": 41856,
          "time": 45.103437,
          "velocity": 0.3937007874015748
        },
        {
          "duration": 0.20689650000000626,
          "durationTicks": 192,
          "midi": 52,
          "name": "E3",
          "ticks": 41856,
          "time": 45.103437,
          "velocity": 0.3937007874015748
        },
        {
          "duration": 0.20689649999999915,
          "durationTicks": 192,
          "midi": 40,
          "name": "E2",
          "ticks": 42048,
          "time": 45.310333500000006,
          "velocity": 0.3937007874015748
        },
        {
          "duration": 0.20689649999999915,
          "durationTicks": 192,
          "midi": 28,
          "name": "E1",
          "ticks": 42048,
          "time": 45.310333500000006,
          "velocity": 0.3937007874015748
        },
        {
          "duration": 0.20689649999999915,
          "durationTicks": 192,
          "midi": 40,
          "name": "E2",
          "ticks": 42240,
          "time": 45.517230000000005,
          "velocity": 0.3937007874015748
        },
        {
          "duration": 0.20689649999999915,
          "durationTicks": 192,
          "midi": 52,
          "name": "E3",
          "ticks": 42240,
          "time": 45.517230000000005,
          "velocity": 0.3937007874015748
        },
        {
          "duration": 0.20689649999999915,
          "durationTicks": 192,
          "midi": 38,
          "name": "D2",
          "ticks": 42432,
          "time": 45.724126500000004,
          "velocity": 0.3937007874015748
        },
        {
          "duration": 0.20689649999999915,
          "durationTicks": 192,
          "midi": 50,
          "name": "D3",
          "ticks": 42432,
          "time": 45.724126500000004,
          "velocity": 0.3937007874015748
        },
        {
          "duration": 0.20689649999999915,
          "durationTicks": 192,
          "midi": 49,
          "name": "C#3",
          "ticks": 42624,
          "time": 45.931023,
          "velocity": 0.3937007874015748
        },
        {
          "duration": 0.20689649999999915,
          "durationTicks": 192,
          "midi": 37,
          "name": "C#2",
          "ticks": 42624,
          "time": 45.931023,
          "velocity": 0.3937007874015748
        },
        {
          "duration": 0.20689649999999915,
          "durationTicks": 192,
          "midi": 38,
          "name": "D2",
          "ticks": 42816,
          "time": 46.1379195,
          "velocity": 0.3937007874015748
        },
        {
          "duration": 0.20689649999999915,
          "durationTicks": 192,
          "midi": 50,
          "name": "D3",
          "ticks": 42816,
          "time": 46.1379195,
          "velocity": 0.3937007874015748
        },
        {
          "duration": 0.4137929999999983,
          "durationTicks": 384,
          "midi": 26,
          "name": "D1",
          "ticks": 43008,
          "time": 46.344816,
          "velocity": 0.3937007874015748
        },
        {
          "duration": 0.4137929999999983,
          "durationTicks": 384,
          "midi": 38,
          "name": "D2",
          "ticks": 43008,
          "time": 46.344816,
          "velocity": 0.3937007874015748
        },
        {
          "duration": 0.10344824999999958,
          "durationTicks": 96,
          "midi": 26,
          "name": "D1",
          "ticks": 43392,
          "time": 46.758609,
          "velocity": 0.3937007874015748
        },
        {
          "duration": 0.10344824999999958,
          "durationTicks": 96,
          "midi": 38,
          "name": "D2",
          "ticks": 43392,
          "time": 46.758609,
          "velocity": 0.3937007874015748
        },
        {
          "duration": 0.10344824999999958,
          "durationTicks": 96,
          "midi": 38,
          "name": "D2",
          "ticks": 43488,
          "time": 46.86205725,
          "velocity": 0.3937007874015748
        },
        {
          "duration": 0.10344824999999958,
          "durationTicks": 96,
          "midi": 50,
          "name": "D3",
          "ticks": 43488,
          "time": 46.86205725,
          "velocity": 0.3937007874015748
        },
        {
          "duration": 0.10344825000000668,
          "durationTicks": 96,
          "midi": 38,
          "name": "D2",
          "ticks": 43584,
          "time": 46.9655055,
          "velocity": 0.3937007874015748
        },
        {
          "duration": 0.10344825000000668,
          "durationTicks": 96,
          "midi": 26,
          "name": "D1",
          "ticks": 43584,
          "time": 46.9655055,
          "velocity": 0.3937007874015748
        },
        {
          "duration": 0.10344824999999958,
          "durationTicks": 96,
          "midi": 35,
          "name": "B1",
          "ticks": 43680,
          "time": 47.068953750000006,
          "velocity": 0.3937007874015748
        },
        {
          "duration": 0.10344824999999958,
          "durationTicks": 96,
          "midi": 47,
          "name": "B2",
          "ticks": 43680,
          "time": 47.068953750000006,
          "velocity": 0.3937007874015748
        },
        {
          "duration": 0.10344824999999958,
          "durationTicks": 96,
          "midi": 50,
          "name": "D3",
          "ticks": 43776,
          "time": 47.172402000000005,
          "velocity": 0.3937007874015748
        },
        {
          "duration": 0.10344824999999958,
          "durationTicks": 96,
          "midi": 38,
          "name": "D2",
          "ticks": 43776,
          "time": 47.172402000000005,
          "velocity": 0.3937007874015748
        },
        {
          "duration": 0.10344824999999958,
          "durationTicks": 96,
          "midi": 47,
          "name": "B2",
          "ticks": 43872,
          "time": 47.275850250000005,
          "velocity": 0.3937007874015748
        },
        {
          "duration": 0.10344824999999958,
          "durationTicks": 96,
          "midi": 35,
          "name": "B1",
          "ticks": 43872,
          "time": 47.275850250000005,
          "velocity": 0.3937007874015748
        },
        {
          "duration": 0.10344824999999958,
          "durationTicks": 96,
          "midi": 33,
          "name": "A1",
          "ticks": 43968,
          "time": 47.379298500000004,
          "velocity": 0.3937007874015748
        },
        {
          "duration": 0.10344824999999958,
          "durationTicks": 96,
          "midi": 45,
          "name": "A2",
          "ticks": 43968,
          "time": 47.379298500000004,
          "velocity": 0.3937007874015748
        },
        {
          "duration": 0.10344824999999958,
          "durationTicks": 96,
          "midi": 45,
          "name": "A2",
          "ticks": 44160,
          "time": 47.586195000000004,
          "velocity": 0.3937007874015748
        },
        {
          "duration": 0.10344824999999958,
          "durationTicks": 96,
          "midi": 33,
          "name": "A1",
          "ticks": 44160,
          "time": 47.586195000000004,
          "velocity": 0.3937007874015748
        },
        {
          "duration": 0.10344824999999958,
          "durationTicks": 96,
          "midi": 35,
          "name": "B1",
          "ticks": 44256,
          "time": 47.68964325,
          "velocity": 0.3937007874015748
        },
        {
          "duration": 0.10344824999999958,
          "durationTicks": 96,
          "midi": 47,
          "name": "B2",
          "ticks": 44256,
          "time": 47.68964325,
          "velocity": 0.3937007874015748
        },
        {
          "duration": 0.10344824999999958,
          "durationTicks": 96,
          "midi": 37,
          "name": "C#2",
          "ticks": 44352,
          "time": 47.7930915,
          "velocity": 0.3937007874015748
        },
        {
          "duration": 0.10344824999999958,
          "durationTicks": 96,
          "midi": 49,
          "name": "C#3",
          "ticks": 44352,
          "time": 47.7930915,
          "velocity": 0.3937007874015748
        },
        {
          "duration": 0.10344824999999958,
          "durationTicks": 96,
          "midi": 37,
          "name": "C#2",
          "ticks": 44544,
          "time": 47.999988,
          "velocity": 0.3937007874015748
        },
        {
          "duration": 0.10344824999999958,
          "durationTicks": 96,
          "midi": 25,
          "name": "C#1",
          "ticks": 44544,
          "time": 47.999988,
          "velocity": 0.3937007874015748
        },
        {
          "duration": 0.10344824999999958,
          "durationTicks": 96,
          "midi": 37,
          "name": "C#2",
          "ticks": 44736,
          "time": 48.2068845,
          "velocity": 0.3937007874015748
        },
        {
          "duration": 0.10344824999999958,
          "durationTicks": 96,
          "midi": 25,
          "name": "C#1",
          "ticks": 44736,
          "time": 48.2068845,
          "velocity": 0.3937007874015748
        },
        {
          "duration": 0.10344824999999958,
          "durationTicks": 96,
          "midi": 49,
          "name": "C#3",
          "ticks": 44832,
          "time": 48.31033275,
          "velocity": 0.3937007874015748
        },
        {
          "duration": 0.10344824999999958,
          "durationTicks": 96,
          "midi": 37,
          "name": "C#2",
          "ticks": 44832,
          "time": 48.31033275,
          "velocity": 0.3937007874015748
        },
        {
          "duration": 0.10344824999999958,
          "durationTicks": 96,
          "midi": 37,
          "name": "C#2",
          "ticks": 45024,
          "time": 48.51722925,
          "velocity": 0.3937007874015748
        },
        {
          "duration": 0.10344824999999958,
          "durationTicks": 96,
          "midi": 49,
          "name": "C#3",
          "ticks": 45024,
          "time": 48.51722925,
          "velocity": 0.3937007874015748
        },
        {
          "duration": 0.4137930000000054,
          "durationTicks": 384,
          "midi": 37,
          "name": "C#2",
          "ticks": 45120,
          "time": 48.6206775,
          "velocity": 0.3937007874015748
        },
        {
          "duration": 0.4137930000000054,
          "durationTicks": 384,
          "midi": 25,
          "name": "C#1",
          "ticks": 45120,
          "time": 48.6206775,
          "velocity": 0.3937007874015748
        },
        {
          "duration": 0.20689649999999915,
          "durationTicks": 192,
          "midi": 35,
          "name": "B1",
          "ticks": 45504,
          "time": 49.034470500000005,
          "velocity": 0.3937007874015748
        },
        {
          "duration": 0.20689649999999915,
          "durationTicks": 192,
          "midi": 47,
          "name": "B2",
          "ticks": 45504,
          "time": 49.034470500000005,
          "velocity": 0.3937007874015748
        },
        {
          "duration": 0.20689649999999915,
          "durationTicks": 192,
          "midi": 36,
          "name": "C2",
          "ticks": 45696,
          "time": 49.241367000000004,
          "velocity": 0.3937007874015748
        },
        {
          "duration": 0.20689649999999915,
          "durationTicks": 192,
          "midi": 48,
          "name": "C3",
          "ticks": 45696,
          "time": 49.241367000000004,
          "velocity": 0.3937007874015748
        },
        {
          "duration": 0.20689649999999915,
          "durationTicks": 192,
          "midi": 37,
          "name": "C#2",
          "ticks": 45888,
          "time": 49.4482635,
          "velocity": 0.3937007874015748
        },
        {
          "duration": 0.20689649999999915,
          "durationTicks": 192,
          "midi": 49,
          "name": "C#3",
          "ticks": 45888,
          "time": 49.4482635,
          "velocity": 0.3937007874015748
        },
        {
          "duration": 0.3103447499999987,
          "durationTicks": 288,
          "midi": 42,
          "name": "F#2",
          "ticks": 46080,
          "time": 49.65516,
          "velocity": 0.3937007874015748
        },
        {
          "duration": 0.3103447499999987,
          "durationTicks": 288,
          "midi": 30,
          "name": "F#1",
          "ticks": 46080,
          "time": 49.65516,
          "velocity": 0.3937007874015748
        },
        {
          "duration": 0.10344824999999958,
          "durationTicks": 96,
          "midi": 42,
          "name": "F#2",
          "ticks": 46368,
          "time": 49.96550475,
          "velocity": 0.3937007874015748
        },
        {
          "duration": 0.10344824999999958,
          "durationTicks": 96,
          "midi": 30,
          "name": "F#1",
          "ticks": 46368,
          "time": 49.96550475,
          "velocity": 0.3937007874015748
        },
        {
          "duration": 0.10344824999999958,
          "durationTicks": 96,
          "midi": 54,
          "name": "F#3",
          "ticks": 46464,
          "time": 50.068953,
          "velocity": 0.3937007874015748
        },
        {
          "duration": 0.10344824999999958,
          "durationTicks": 96,
          "midi": 42,
          "name": "F#2",
          "ticks": 46464,
          "time": 50.068953,
          "velocity": 0.3937007874015748
        },
        {
          "duration": 0.10344824999999958,
          "durationTicks": 96,
          "midi": 30,
          "name": "F#1",
          "ticks": 46560,
          "time": 50.17240125,
          "velocity": 0.3937007874015748
        },
        {
          "duration": 0.10344824999999958,
          "durationTicks": 96,
          "midi": 42,
          "name": "F#2",
          "ticks": 46560,
          "time": 50.17240125,
          "velocity": 0.3937007874015748
        },
        {
          "duration": 0.10344825000000668,
          "durationTicks": 96,
          "midi": 42,
          "name": "F#2",
          "ticks": 46752,
          "time": 50.37929775,
          "velocity": 0.3937007874015748
        },
        {
          "duration": 0.10344825000000668,
          "durationTicks": 96,
          "midi": 30,
          "name": "F#1",
          "ticks": 46752,
          "time": 50.37929775,
          "velocity": 0.3937007874015748
        },
        {
          "duration": 0.20689649999999915,
          "durationTicks": 192,
          "midi": 45,
          "name": "A2",
          "ticks": 46848,
          "time": 50.482746000000006,
          "velocity": 0.3937007874015748
        },
        {
          "duration": 0.20689649999999915,
          "durationTicks": 192,
          "midi": 57,
          "name": "A3",
          "ticks": 46848,
          "time": 50.482746000000006,
          "velocity": 0.3937007874015748
        },
        {
          "duration": 0.20689649999999915,
          "durationTicks": 192,
          "midi": 56,
          "name": "G#3",
          "ticks": 47040,
          "time": 50.689642500000005,
          "velocity": 0.3937007874015748
        },
        {
          "duration": 0.20689649999999915,
          "durationTicks": 192,
          "midi": 44,
          "name": "G#2",
          "ticks": 47040,
          "time": 50.689642500000005,
          "velocity": 0.3937007874015748
        },
        {
          "duration": 0.10344824999999958,
          "durationTicks": 96,
          "midi": 42,
          "name": "F#2",
          "ticks": 47232,
          "time": 50.896539000000004,
          "velocity": 0.3937007874015748
        },
        {
          "duration": 0.10344824999999958,
          "durationTicks": 96,
          "midi": 54,
          "name": "F#3",
          "ticks": 47232,
          "time": 50.896539000000004,
          "velocity": 0.3937007874015748
        },
        {
          "duration": 0.10344824999999958,
          "durationTicks": 96,
          "midi": 44,
          "name": "G#2",
          "ticks": 47328,
          "time": 50.999987250000004,
          "velocity": 0.3937007874015748
        },
        {
          "duration": 0.10344824999999958,
          "durationTicks": 96,
          "midi": 56,
          "name": "G#3",
          "ticks": 47328,
          "time": 50.999987250000004,
          "velocity": 0.3937007874015748
        },
        {
          "duration": 0.10344824999999958,
          "durationTicks": 96,
          "midi": 45,
          "name": "A2",
          "ticks": 47376,
          "time": 51.051711375000004,
          "velocity": 0.3937007874015748
        },
        {
          "duration": 0.10344824999999958,
          "durationTicks": 96,
          "midi": 57,
          "name": "A3",
          "ticks": 47376,
          "time": 51.051711375000004,
          "velocity": 0.3937007874015748
        },
        {
          "duration": 0.20689649999999915,
          "durationTicks": 192,
          "midi": 40,
          "name": "E2",
          "ticks": 47424,
          "time": 51.1034355,
          "velocity": 0.3937007874015748
        },
        {
          "duration": 0.20689649999999915,
          "durationTicks": 192,
          "midi": 52,
          "name": "E3",
          "ticks": 47424,
          "time": 51.1034355,
          "velocity": 0.3937007874015748
        },
        {
          "duration": 0.3103447499999987,
          "durationTicks": 288,
          "midi": 28,
          "name": "E1",
          "ticks": 47616,
          "time": 51.310332,
          "velocity": 0.3937007874015748
        },
        {
          "duration": 0.3103447499999987,
          "durationTicks": 288,
          "midi": 40,
          "name": "E2",
          "ticks": 47616,
          "time": 51.310332,
          "velocity": 0.3937007874015748
        },
        {
          "duration": 0.10344824999999958,
          "durationTicks": 96,
          "midi": 40,
          "name": "E2",
          "ticks": 47904,
          "time": 51.62067675,
          "velocity": 0.3937007874015748
        },
        {
          "duration": 0.10344824999999958,
          "durationTicks": 96,
          "midi": 28,
          "name": "E1",
          "ticks": 47904,
          "time": 51.62067675,
          "velocity": 0.3937007874015748
        },
        {
          "duration": 0.20689649999999915,
          "durationTicks": 192,
          "midi": 40,
          "name": "E2",
          "ticks": 48000,
          "time": 51.724125,
          "velocity": 0.3937007874015748
        },
        {
          "duration": 0.20689649999999915,
          "durationTicks": 192,
          "midi": 52,
          "name": "E3",
          "ticks": 48000,
          "time": 51.724125,
          "velocity": 0.3937007874015748
        },
        {
          "duration": 0.20689650000000626,
          "durationTicks": 192,
          "midi": 28,
          "name": "E1",
          "ticks": 48192,
          "time": 51.9310215,
          "velocity": 0.3937007874015748
        },
        {
          "duration": 0.20689650000000626,
          "durationTicks": 192,
          "midi": 40,
          "name": "E2",
          "ticks": 48192,
          "time": 51.9310215,
          "velocity": 0.3937007874015748
        },
        {
          "duration": 0.20689649999999915,
          "durationTicks": 192,
          "midi": 40,
          "name": "E2",
          "ticks": 48384,
          "time": 52.137918000000006,
          "velocity": 0.3937007874015748
        },
        {
          "duration": 0.20689649999999915,
          "durationTicks": 192,
          "midi": 52,
          "name": "E3",
          "ticks": 48384,
          "time": 52.137918000000006,
          "velocity": 0.3937007874015748
        },
        {
          "duration": 0.20689649999999915,
          "durationTicks": 192,
          "midi": 50,
          "name": "D3",
          "ticks": 48576,
          "time": 52.344814500000005,
          "velocity": 0.3937007874015748
        },
        {
          "duration": 0.20689649999999915,
          "durationTicks": 192,
          "midi": 38,
          "name": "D2",
          "ticks": 48576,
          "time": 52.344814500000005,
          "velocity": 0.3937007874015748
        },
        {
          "duration": 0.20689649999999915,
          "durationTicks": 192,
          "midi": 37,
          "name": "C#2",
          "ticks": 48768,
          "time": 52.551711000000005,
          "velocity": 0.3937007874015748
        },
        {
          "duration": 0.20689649999999915,
          "durationTicks": 192,
          "midi": 49,
          "name": "C#3",
          "ticks": 48768,
          "time": 52.551711000000005,
          "velocity": 0.3937007874015748
        },
        {
          "duration": 0.20689649999999915,
          "durationTicks": 192,
          "midi": 50,
          "name": "D3",
          "ticks": 48960,
          "time": 52.758607500000004,
          "velocity": 0.3937007874015748
        },
        {
          "duration": 0.20689649999999915,
          "durationTicks": 192,
          "midi": 38,
          "name": "D2",
          "ticks": 48960,
          "time": 52.758607500000004,
          "velocity": 0.3937007874015748
        },
        {
          "duration": 0.6206895000000046,
          "durationTicks": 576,
          "midi": 39,
          "name": "D#2",
          "ticks": 49920,
          "time": 53.79309,
          "velocity": 0.3937007874015748
        },
        {
          "duration": 0.6206895000000046,
          "durationTicks": 576,
          "midi": 27,
          "name": "D#1",
          "ticks": 49920,
          "time": 53.79309,
          "velocity": 0.3937007874015748
        },
        {
          "duration": 0.6206894999999975,
          "durationTicks": 576,
          "midi": 27,
          "name": "D#1",
          "ticks": 50496,
          "time": 54.413779500000004,
          "velocity": 0.3937007874015748
        },
        {
          "duration": 0.6206894999999975,
          "durationTicks": 576,
          "midi": 39,
          "name": "D#2",
          "ticks": 50496,
          "time": 54.413779500000004,
          "velocity": 0.3937007874015748
        },
        {
          "duration": 0.10344824999999958,
          "durationTicks": 96,
          "midi": 27,
          "name": "D#1",
          "ticks": 51072,
          "time": 55.034469,
          "velocity": 0.3937007874015748
        },
        {
          "duration": 0.10344824999999958,
          "durationTicks": 96,
          "midi": 39,
          "name": "D#2",
          "ticks": 51072,
          "time": 55.034469,
          "velocity": 0.3937007874015748
        },
        {
          "duration": 0.3103447499999987,
          "durationTicks": 288,
          "midi": 39,
          "name": "D#2",
          "ticks": 51168,
          "time": 55.13791725,
          "velocity": 0.3937007874015748
        },
        {
          "duration": 0.3103447499999987,
          "durationTicks": 288,
          "midi": 27,
          "name": "D#1",
          "ticks": 51168,
          "time": 55.13791725,
          "velocity": 0.3937007874015748
        },
        {
          "duration": 0.6206895000000046,
          "durationTicks": 576,
          "midi": 26,
          "name": "D1",
          "ticks": 51456,
          "time": 55.448262,
          "velocity": 0.3937007874015748
        },
        {
          "duration": 0.6206895000000046,
          "durationTicks": 576,
          "midi": 38,
          "name": "D2",
          "ticks": 51456,
          "time": 55.448262,
          "velocity": 0.3937007874015748
        },
        {
          "duration": 0.6206894999999975,
          "durationTicks": 576,
          "midi": 26,
          "name": "D1",
          "ticks": 52032,
          "time": 56.068951500000004,
          "velocity": 0.3937007874015748
        },
        {
          "duration": 0.6206894999999975,
          "durationTicks": 576,
          "midi": 38,
          "name": "D2",
          "ticks": 52032,
          "time": 56.068951500000004,
          "velocity": 0.3937007874015748
        },
        {
          "duration": 0.20689649999999915,
          "durationTicks": 192,
          "midi": 27,
          "name": "D#1",
          "ticks": 52608,
          "time": 56.689641,
          "velocity": 0.3937007874015748
        },
        {
          "duration": 0.20689649999999915,
          "durationTicks": 192,
          "midi": 39,
          "name": "D#2",
          "ticks": 52608,
          "time": 56.689641,
          "velocity": 0.3937007874015748
        },
        {
          "duration": 0.20689649999999915,
          "durationTicks": 192,
          "midi": 26,
          "name": "D1",
          "ticks": 52800,
          "time": 56.8965375,
          "velocity": 0.3937007874015748
        },
        {
          "duration": 0.20689649999999915,
          "durationTicks": 192,
          "midi": 38,
          "name": "D2",
          "ticks": 52800,
          "time": 56.8965375,
          "velocity": 0.3937007874015748
        },
        {
          "duration": 0.6206895000000046,
          "durationTicks": 576,
          "midi": 31,
          "name": "G1",
          "ticks": 52992,
          "time": 57.103434,
          "velocity": 0.3937007874015748
        },
        {
          "duration": 0.6206895000000046,
          "durationTicks": 576,
          "midi": 31,
          "name": "G1",
          "ticks": 52992,
          "time": 57.103434,
          "velocity": 0.3937007874015748
        },
        {
          "duration": 0.6206894999999975,
          "durationTicks": 576,
          "midi": 31,
          "name": "G1",
          "ticks": 53568,
          "time": 57.724123500000005,
          "velocity": 0.3937007874015748
        },
        {
          "duration": 0.6206894999999975,
          "durationTicks": 576,
          "midi": 31,
          "name": "G1",
          "ticks": 53568,
          "time": 57.724123500000005,
          "velocity": 0.3937007874015748
        },
        {
          "duration": 0.10344824999999958,
          "durationTicks": 96,
          "midi": 31,
          "name": "G1",
          "ticks": 54144,
          "time": 58.344813,
          "velocity": 0.3937007874015748
        },
        {
          "duration": 0.10344824999999958,
          "durationTicks": 96,
          "midi": 31,
          "name": "G1",
          "ticks": 54144,
          "time": 58.344813,
          "velocity": 0.3937007874015748
        },
        {
          "duration": 0.3103447499999987,
          "durationTicks": 288,
          "midi": 31,
          "name": "G1",
          "ticks": 54240,
          "time": 58.44826125,
          "velocity": 0.3937007874015748
        },
        {
          "duration": 0.3103447499999987,
          "durationTicks": 288,
          "midi": 31,
          "name": "G1",
          "ticks": 54240,
          "time": 58.44826125,
          "velocity": 0.3937007874015748
        },
        {
          "duration": 0.6206895000000046,
          "durationTicks": 576,
          "midi": 34,
          "name": "A#1",
          "ticks": 54528,
          "time": 58.758606,
          "velocity": 0.3937007874015748
        },
        {
          "duration": 0.6206895000000046,
          "durationTicks": 576,
          "midi": 34,
          "name": "A#1",
          "ticks": 54528,
          "time": 58.758606,
          "velocity": 0.3937007874015748
        },
        {
          "duration": 0.6206894999999975,
          "durationTicks": 576,
          "midi": 34,
          "name": "A#1",
          "ticks": 55104,
          "time": 59.379295500000005,
          "velocity": 0.3937007874015748
        },
        {
          "duration": 0.6206894999999975,
          "durationTicks": 576,
          "midi": 34,
          "name": "A#1",
          "ticks": 55104,
          "time": 59.379295500000005,
          "velocity": 0.3937007874015748
        },
        {
          "duration": 0.20689649999999915,
          "durationTicks": 192,
          "midi": 36,
          "name": "C2",
          "ticks": 55680,
          "time": 59.999985,
          "velocity": 0.3937007874015748
        },
        {
          "duration": 0.20689649999999915,
          "durationTicks": 192,
          "midi": 24,
          "name": "C1",
          "ticks": 55680,
          "time": 59.999985,
          "velocity": 0.3937007874015748
        },
        {
          "duration": 0.20689649999999915,
          "durationTicks": 192,
          "midi": 38,
          "name": "D2",
          "ticks": 55872,
          "time": 60.2068815,
          "velocity": 0.3937007874015748
        },
        {
          "duration": 0.20689649999999915,
          "durationTicks": 192,
          "midi": 26,
          "name": "D1",
          "ticks": 55872,
          "time": 60.2068815,
          "velocity": 0.3937007874015748
        },
        {
          "duration": 0.6206895000000046,
          "durationTicks": 576,
          "midi": 39,
          "name": "D#2",
          "ticks": 56064,
          "time": 60.413778,
          "velocity": 0.3937007874015748
        },
        {
          "duration": 0.6206895000000046,
          "durationTicks": 576,
          "midi": 27,
          "name": "D#1",
          "ticks": 56064,
          "time": 60.413778,
          "velocity": 0.3937007874015748
        },
        {
          "duration": 0.6206894999999975,
          "durationTicks": 576,
          "midi": 39,
          "name": "D#2",
          "ticks": 56640,
          "time": 61.034467500000005,
          "velocity": 0.3937007874015748
        },
        {
          "duration": 0.6206894999999975,
          "durationTicks": 576,
          "midi": 27,
          "name": "D#1",
          "ticks": 56640,
          "time": 61.034467500000005,
          "velocity": 0.3937007874015748
        },
        {
          "duration": 0.10344824999999958,
          "durationTicks": 96,
          "midi": 39,
          "name": "D#2",
          "ticks": 57216,
          "time": 61.655157,
          "velocity": 0.3937007874015748
        },
        {
          "duration": 0.10344824999999958,
          "durationTicks": 96,
          "midi": 27,
          "name": "D#1",
          "ticks": 57216,
          "time": 61.655157,
          "velocity": 0.3937007874015748
        },
        {
          "duration": 0.3103447499999987,
          "durationTicks": 288,
          "midi": 39,
          "name": "D#2",
          "ticks": 57312,
          "time": 61.75860525,
          "velocity": 0.3937007874015748
        },
        {
          "duration": 0.3103447499999987,
          "durationTicks": 288,
          "midi": 27,
          "name": "D#1",
          "ticks": 57312,
          "time": 61.75860525,
          "velocity": 0.3937007874015748
        },
        {
          "duration": 0.6206895000000046,
          "durationTicks": 576,
          "midi": 29,
          "name": "F1",
          "ticks": 57600,
          "time": 62.06895,
          "velocity": 0.3937007874015748
        },
        {
          "duration": 0.6206895000000046,
          "durationTicks": 576,
          "midi": 41,
          "name": "F2",
          "ticks": 57600,
          "time": 62.06895,
          "velocity": 0.3937007874015748
        },
        {
          "duration": 0.6206894999999975,
          "durationTicks": 576,
          "midi": 29,
          "name": "F1",
          "ticks": 58176,
          "time": 62.689639500000006,
          "velocity": 0.3937007874015748
        },
        {
          "duration": 0.6206894999999975,
          "durationTicks": 576,
          "midi": 41,
          "name": "F2",
          "ticks": 58176,
          "time": 62.689639500000006,
          "velocity": 0.3937007874015748
        },
        {
          "duration": 0.10344824999999958,
          "durationTicks": 96,
          "midi": 29,
          "name": "F1",
          "ticks": 58752,
          "time": 63.310329,
          "velocity": 0.3937007874015748
        },
        {
          "duration": 0.10344824999999958,
          "durationTicks": 96,
          "midi": 41,
          "name": "F2",
          "ticks": 58752,
          "time": 63.310329,
          "velocity": 0.3937007874015748
        },
        {
          "duration": 0.3103447499999987,
          "durationTicks": 288,
          "midi": 29,
          "name": "F1",
          "ticks": 58848,
          "time": 63.41377725,
          "velocity": 0.3937007874015748
        },
        {
          "duration": 0.3103447499999987,
          "durationTicks": 288,
          "midi": 41,
          "name": "F2",
          "ticks": 58848,
          "time": 63.41377725,
          "velocity": 0.3937007874015748
        },
        {
          "duration": 0.6206895000000046,
          "durationTicks": 576,
          "midi": 31,
          "name": "G1",
          "ticks": 59136,
          "time": 63.724122,
          "velocity": 0.3937007874015748
        },
        {
          "duration": 0.6206895000000046,
          "durationTicks": 576,
          "midi": 43,
          "name": "G2",
          "ticks": 59136,
          "time": 63.724122,
          "velocity": 0.3937007874015748
        },
        {
          "duration": 0.6206894999999975,
          "durationTicks": 576,
          "midi": 43,
          "name": "G2",
          "ticks": 59712,
          "time": 64.3448115,
          "velocity": 0.3937007874015748
        },
        {
          "duration": 0.6206894999999975,
          "durationTicks": 576,
          "midi": 31,
          "name": "G1",
          "ticks": 59712,
          "time": 64.3448115,
          "velocity": 0.3937007874015748
        },
        {
          "duration": 0.10344824999999958,
          "durationTicks": 96,
          "midi": 31,
          "name": "G1",
          "ticks": 60288,
          "time": 64.965501,
          "velocity": 0.3937007874015748
        },
        {
          "duration": 0.10344824999999958,
          "durationTicks": 96,
          "midi": 43,
          "name": "G2",
          "ticks": 60288,
          "time": 64.965501,
          "velocity": 0.3937007874015748
        },
        {
          "duration": 0.3103447499999987,
          "durationTicks": 288,
          "midi": 43,
          "name": "G2",
          "ticks": 60384,
          "time": 65.06894925,
          "velocity": 0.3937007874015748
        },
        {
          "duration": 0.3103447499999987,
          "durationTicks": 288,
          "midi": 31,
          "name": "G1",
          "ticks": 60384,
          "time": 65.06894925,
          "velocity": 0.3937007874015748
        },
        {
          "duration": 0.3103447499999987,
          "durationTicks": 288,
          "midi": 46,
          "name": "A#2",
          "ticks": 60672,
          "time": 65.379294,
          "velocity": 0.3937007874015748
        },
        {
          "duration": 0.3103447499999987,
          "durationTicks": 288,
          "midi": 34,
          "name": "A#1",
          "ticks": 60672,
          "time": 65.379294,
          "velocity": 0.3937007874015748
        },
        {
          "duration": 0.3103447499999987,
          "durationTicks": 288,
          "midi": 33,
          "name": "A1",
          "ticks": 60960,
          "time": 65.68963875,
          "velocity": 0.3937007874015748
        },
        {
          "duration": 0.3103447499999987,
          "durationTicks": 288,
          "midi": 45,
          "name": "A2",
          "ticks": 60960,
          "time": 65.68963875,
          "velocity": 0.3937007874015748
        },
        {
          "duration": 0.3103447499999987,
          "durationTicks": 288,
          "midi": 31,
          "name": "G1",
          "ticks": 61248,
          "time": 65.9999835,
          "velocity": 0.3937007874015748
        },
        {
          "duration": 0.3103447499999987,
          "durationTicks": 288,
          "midi": 43,
          "name": "G2",
          "ticks": 61248,
          "time": 65.9999835,
          "velocity": 0.3937007874015748
        },
        {
          "duration": 0.3103447499999987,
          "durationTicks": 288,
          "midi": 29,
          "name": "F1",
          "ticks": 61536,
          "time": 66.31032825,
          "velocity": 0.3937007874015748
        },
        {
          "duration": 0.3103447499999987,
          "durationTicks": 288,
          "midi": 41,
          "name": "F2",
          "ticks": 61536,
          "time": 66.31032825,
          "velocity": 0.3937007874015748
        },
        {
          "duration": 0.20689650000001336,
          "durationTicks": 192,
          "midi": 27,
          "name": "D#1",
          "ticks": 61824,
          "time": 66.620673,
          "velocity": 0.3937007874015748
        },
        {
          "duration": 0.20689650000001336,
          "durationTicks": 192,
          "midi": 39,
          "name": "D#2",
          "ticks": 61824,
          "time": 66.620673,
          "velocity": 0.3937007874015748
        },
        {
          "duration": 0.20689649999999915,
          "durationTicks": 192,
          "midi": 29,
          "name": "F1",
          "ticks": 62016,
          "time": 66.82756950000001,
          "velocity": 0.3937007874015748
        },
        {
          "duration": 0.20689649999999915,
          "durationTicks": 192,
          "midi": 41,
          "name": "F2",
          "ticks": 62016,
          "time": 66.82756950000001,
          "velocity": 0.3937007874015748
        },
        {
          "duration": 0.4137929999999983,
          "durationTicks": 384,
          "midi": 39,
          "name": "D#2",
          "ticks": 62208,
          "time": 67.03446600000001,
          "velocity": 0.3937007874015748
        },
        {
          "duration": 0.4137929999999983,
          "durationTicks": 384,
          "midi": 27,
          "name": "D#1",
          "ticks": 62208,
          "time": 67.03446600000001,
          "velocity": 0.3937007874015748
        },
        {
          "duration": 0.10344824999999958,
          "durationTicks": 96,
          "midi": 39,
          "name": "D#2",
          "ticks": 62592,
          "time": 67.44825900000001,
          "velocity": 0.3937007874015748
        },
        {
          "duration": 0.10344824999999958,
          "durationTicks": 96,
          "midi": 27,
          "name": "D#1",
          "ticks": 62592,
          "time": 67.44825900000001,
          "velocity": 0.3937007874015748
        },
        {
          "duration": 0.10344824999999958,
          "durationTicks": 96,
          "midi": 39,
          "name": "D#2",
          "ticks": 62688,
          "time": 67.55170725,
          "velocity": 0.3937007874015748
        },
        {
          "duration": 0.10344824999999958,
          "durationTicks": 96,
          "midi": 51,
          "name": "D#3",
          "ticks": 62688,
          "time": 67.55170725,
          "velocity": 0.3937007874015748
        },
        {
          "duration": 0.10344824999999958,
          "durationTicks": 96,
          "midi": 39,
          "name": "D#2",
          "ticks": 62784,
          "time": 67.6551555,
          "velocity": 0.3937007874015748
        },
        {
          "duration": 0.10344824999999958,
          "durationTicks": 96,
          "midi": 27,
          "name": "D#1",
          "ticks": 62784,
          "time": 67.6551555,
          "velocity": 0.3937007874015748
        },
        {
          "duration": 0.10344824999999958,
          "durationTicks": 96,
          "midi": 36,
          "name": "C2",
          "ticks": 62880,
          "time": 67.75860375,
          "velocity": 0.3937007874015748
        },
        {
          "duration": 0.10344824999999958,
          "durationTicks": 96,
          "midi": 48,
          "name": "C3",
          "ticks": 62880,
          "time": 67.75860375,
          "velocity": 0.3937007874015748
        },
        {
          "duration": 0.10344824999999958,
          "durationTicks": 96,
          "midi": 39,
          "name": "D#2",
          "ticks": 62976,
          "time": 67.862052,
          "velocity": 0.3937007874015748
        },
        {
          "duration": 0.10344824999999958,
          "durationTicks": 96,
          "midi": 51,
          "name": "D#3",
          "ticks": 62976,
          "time": 67.862052,
          "velocity": 0.3937007874015748
        },
        {
          "duration": 0.10344824999999958,
          "durationTicks": 96,
          "midi": 48,
          "name": "C3",
          "ticks": 63072,
          "time": 67.96550025,
          "velocity": 0.3937007874015748
        },
        {
          "duration": 0.10344824999999958,
          "durationTicks": 96,
          "midi": 36,
          "name": "C2",
          "ticks": 63072,
          "time": 67.96550025,
          "velocity": 0.3937007874015748
        },
        {
          "duration": 0.10344824999999958,
          "durationTicks": 96,
          "midi": 34,
          "name": "A#1",
          "ticks": 63168,
          "time": 68.0689485,
          "velocity": 0.3937007874015748
        },
        {
          "duration": 0.10344824999999958,
          "durationTicks": 96,
          "midi": 46,
          "name": "A#2",
          "ticks": 63168,
          "time": 68.0689485,
          "velocity": 0.3937007874015748
        },
        {
          "duration": 0.10344824999999958,
          "durationTicks": 96,
          "midi": 34,
          "name": "A#1",
          "ticks": 63360,
          "time": 68.275845,
          "velocity": 0.3937007874015748
        },
        {
          "duration": 0.10344824999999958,
          "durationTicks": 96,
          "midi": 46,
          "name": "A#2",
          "ticks": 63360,
          "time": 68.275845,
          "velocity": 0.3937007874015748
        },
        {
          "duration": 0.10344824999999958,
          "durationTicks": 96,
          "midi": 36,
          "name": "C2",
          "ticks": 63456,
          "time": 68.37929325,
          "velocity": 0.3937007874015748
        },
        {
          "duration": 0.10344824999999958,
          "durationTicks": 96,
          "midi": 48,
          "name": "C3",
          "ticks": 63456,
          "time": 68.37929325,
          "velocity": 0.3937007874015748
        },
        {
          "duration": 0.10344824999999958,
          "durationTicks": 96,
          "midi": 38,
          "name": "D2",
          "ticks": 63552,
          "time": 68.4827415,
          "velocity": 0.3937007874015748
        },
        {
          "duration": 0.10344824999999958,
          "durationTicks": 96,
          "midi": 50,
          "name": "D3",
          "ticks": 63552,
          "time": 68.4827415,
          "velocity": 0.3937007874015748
        },
        {
          "duration": 0.10344824999999958,
          "durationTicks": 96,
          "midi": 26,
          "name": "D1",
          "ticks": 63744,
          "time": 68.689638,
          "velocity": 0.3937007874015748
        },
        {
          "duration": 0.10344824999999958,
          "durationTicks": 96,
          "midi": 38,
          "name": "D2",
          "ticks": 63744,
          "time": 68.689638,
          "velocity": 0.3937007874015748
        },
        {
          "duration": 0.10344824999999958,
          "durationTicks": 96,
          "midi": 26,
          "name": "D1",
          "ticks": 63936,
          "time": 68.8965345,
          "velocity": 0.3937007874015748
        },
        {
          "duration": 0.10344824999999958,
          "durationTicks": 96,
          "midi": 38,
          "name": "D2",
          "ticks": 63936,
          "time": 68.8965345,
          "velocity": 0.3937007874015748
        },
        {
          "duration": 0.10344824999999958,
          "durationTicks": 96,
          "midi": 38,
          "name": "D2",
          "ticks": 64032,
          "time": 68.99998275,
          "velocity": 0.3937007874015748
        },
        {
          "duration": 0.10344824999999958,
          "durationTicks": 96,
          "midi": 50,
          "name": "D3",
          "ticks": 64032,
          "time": 68.99998275,
          "velocity": 0.3937007874015748
        },
        {
          "duration": 0.10344824999999958,
          "durationTicks": 96,
          "midi": 38,
          "name": "D2",
          "ticks": 64224,
          "time": 69.20687925,
          "velocity": 0.3937007874015748
        },
        {
          "duration": 0.10344824999999958,
          "durationTicks": 96,
          "midi": 50,
          "name": "D3",
          "ticks": 64224,
          "time": 69.20687925,
          "velocity": 0.3937007874015748
        },
        {
          "duration": 0.4137929999999983,
          "durationTicks": 384,
          "midi": 26,
          "name": "D1",
          "ticks": 64320,
          "time": 69.3103275,
          "velocity": 0.3937007874015748
        },
        {
          "duration": 0.4137929999999983,
          "durationTicks": 384,
          "midi": 38,
          "name": "D2",
          "ticks": 64320,
          "time": 69.3103275,
          "velocity": 0.3937007874015748
        },
        {
          "duration": 0.20689649999999915,
          "durationTicks": 192,
          "midi": 48,
          "name": "C3",
          "ticks": 64704,
          "time": 69.7241205,
          "velocity": 0.3937007874015748
        },
        {
          "duration": 0.20689649999999915,
          "durationTicks": 192,
          "midi": 36,
          "name": "C2",
          "ticks": 64704,
          "time": 69.7241205,
          "velocity": 0.3937007874015748
        },
        {
          "duration": 0.20689650000001336,
          "durationTicks": 192,
          "midi": 49,
          "name": "C#3",
          "ticks": 64896,
          "time": 69.931017,
          "velocity": 0.3937007874015748
        },
        {
          "duration": 0.20689650000001336,
          "durationTicks": 192,
          "midi": 37,
          "name": "C#2",
          "ticks": 64896,
          "time": 69.931017,
          "velocity": 0.3937007874015748
        },
        {
          "duration": 0.20689649999999915,
          "durationTicks": 192,
          "midi": 38,
          "name": "D2",
          "ticks": 65088,
          "time": 70.13791350000001,
          "velocity": 0.3937007874015748
        },
        {
          "duration": 0.20689649999999915,
          "durationTicks": 192,
          "midi": 50,
          "name": "D3",
          "ticks": 65088,
          "time": 70.13791350000001,
          "velocity": 0.3937007874015748
        },
        {
          "duration": 0.3103447499999987,
          "durationTicks": 288,
          "midi": 43,
          "name": "G2",
          "ticks": 65280,
          "time": 70.34481000000001,
          "velocity": 0.3937007874015748
        },
        {
          "duration": 0.3103447499999987,
          "durationTicks": 288,
          "midi": 31,
          "name": "G1",
          "ticks": 65280,
          "time": 70.34481000000001,
          "velocity": 0.3937007874015748
        },
        {
          "duration": 0.10344824999999958,
          "durationTicks": 96,
          "midi": 31,
          "name": "G1",
          "ticks": 65568,
          "time": 70.65515475000001,
          "velocity": 0.3937007874015748
        },
        {
          "duration": 0.10344824999999958,
          "durationTicks": 96,
          "midi": 43,
          "name": "G2",
          "ticks": 65568,
          "time": 70.65515475000001,
          "velocity": 0.3937007874015748
        },
        {
          "duration": 0.10344824999999958,
          "durationTicks": 96,
          "midi": 55,
          "name": "G3",
          "ticks": 65664,
          "time": 70.75860300000001,
          "velocity": 0.3937007874015748
        },
        {
          "duration": 0.10344824999999958,
          "durationTicks": 96,
          "midi": 43,
          "name": "G2",
          "ticks": 65664,
          "time": 70.75860300000001,
          "velocity": 0.3937007874015748
        },
        {
          "duration": 0.10344824999999958,
          "durationTicks": 96,
          "midi": 43,
          "name": "G2",
          "ticks": 65760,
          "time": 70.86205125000001,
          "velocity": 0.3937007874015748
        },
        {
          "duration": 0.10344824999999958,
          "durationTicks": 96,
          "midi": 31,
          "name": "G1",
          "ticks": 65760,
          "time": 70.86205125000001,
          "velocity": 0.3937007874015748
        },
        {
          "duration": 0.10344824999999958,
          "durationTicks": 96,
          "midi": 43,
          "name": "G2",
          "ticks": 65952,
          "time": 71.06894775,
          "velocity": 0.3937007874015748
        },
        {
          "duration": 0.10344824999999958,
          "durationTicks": 96,
          "midi": 31,
          "name": "G1",
          "ticks": 65952,
          "time": 71.06894775,
          "velocity": 0.3937007874015748
        },
        {
          "duration": 0.20689649999999915,
          "durationTicks": 192,
          "midi": 46,
          "name": "A#2",
          "ticks": 66048,
          "time": 71.172396,
          "velocity": 0.3937007874015748
        },
        {
          "duration": 0.20689649999999915,
          "durationTicks": 192,
          "midi": 58,
          "name": "A#3",
          "ticks": 66048,
          "time": 71.172396,
          "velocity": 0.3937007874015748
        },
        {
          "duration": 0.20689649999999915,
          "durationTicks": 192,
          "midi": 57,
          "name": "A3",
          "ticks": 66240,
          "time": 71.3792925,
          "velocity": 0.3937007874015748
        },
        {
          "duration": 0.20689649999999915,
          "durationTicks": 192,
          "midi": 45,
          "name": "A2",
          "ticks": 66240,
          "time": 71.3792925,
          "velocity": 0.3937007874015748
        },
        {
          "duration": 0.10344824999999958,
          "durationTicks": 96,
          "midi": 55,
          "name": "G3",
          "ticks": 66432,
          "time": 71.586189,
          "velocity": 0.3937007874015748
        },
        {
          "duration": 0.10344824999999958,
          "durationTicks": 96,
          "midi": 43,
          "name": "G2",
          "ticks": 66432,
          "time": 71.586189,
          "velocity": 0.3937007874015748
        },
        {
          "duration": 0.10344824999999958,
          "durationTicks": 96,
          "midi": 57,
          "name": "A3",
          "ticks": 66528,
          "time": 71.68963725,
          "velocity": 0.3937007874015748
        },
        {
          "duration": 0.10344824999999958,
          "durationTicks": 96,
          "midi": 45,
          "name": "A2",
          "ticks": 66528,
          "time": 71.68963725,
          "velocity": 0.3937007874015748
        },
        {
          "duration": 0.10344825000001379,
          "durationTicks": 96,
          "midi": 46,
          "name": "A#2",
          "ticks": 66576,
          "time": 71.741361375,
          "velocity": 0.3937007874015748
        },
        {
          "duration": 0.10344825000001379,
          "durationTicks": 96,
          "midi": 58,
          "name": "A#3",
          "ticks": 66576,
          "time": 71.741361375,
          "velocity": 0.3937007874015748
        },
        {
          "duration": 0.20689649999999915,
          "durationTicks": 192,
          "midi": 53,
          "name": "F3",
          "ticks": 66624,
          "time": 71.7930855,
          "velocity": 0.3937007874015748
        },
        {
          "duration": 0.20689649999999915,
          "durationTicks": 192,
          "midi": 41,
          "name": "F2",
          "ticks": 66624,
          "time": 71.7930855,
          "velocity": 0.3937007874015748
        },
        {
          "duration": 0.3103447499999987,
          "durationTicks": 288,
          "midi": 41,
          "name": "F2",
          "ticks": 66816,
          "time": 71.999982,
          "velocity": 0.3937007874015748
        },
        {
          "duration": 0.3103447499999987,
          "durationTicks": 288,
          "midi": 29,
          "name": "F1",
          "ticks": 66816,
          "time": 71.999982,
          "velocity": 0.3937007874015748
        },
        {
          "duration": 0.10344824999999958,
          "durationTicks": 96,
          "midi": 41,
          "name": "F2",
          "ticks": 67104,
          "time": 72.31032675,
          "velocity": 0.3937007874015748
        },
        {
          "duration": 0.10344824999999958,
          "durationTicks": 96,
          "midi": 29,
          "name": "F1",
          "ticks": 67104,
          "time": 72.31032675,
          "velocity": 0.3937007874015748
        },
        {
          "duration": 0.20689649999999915,
          "durationTicks": 192,
          "midi": 41,
          "name": "F2",
          "ticks": 67200,
          "time": 72.413775,
          "velocity": 0.3937007874015748
        },
        {
          "duration": 0.20689649999999915,
          "durationTicks": 192,
          "midi": 53,
          "name": "F3",
          "ticks": 67200,
          "time": 72.413775,
          "velocity": 0.3937007874015748
        },
        {
          "duration": 0.20689649999999915,
          "durationTicks": 192,
          "midi": 29,
          "name": "F1",
          "ticks": 67392,
          "time": 72.6206715,
          "velocity": 0.3937007874015748
        },
        {
          "duration": 0.20689649999999915,
          "durationTicks": 192,
          "midi": 41,
          "name": "F2",
          "ticks": 67392,
          "time": 72.6206715,
          "velocity": 0.3937007874015748
        },
        {
          "duration": 0.20689649999999915,
          "durationTicks": 192,
          "midi": 53,
          "name": "F3",
          "ticks": 67584,
          "time": 72.827568,
          "velocity": 0.3937007874015748
        },
        {
          "duration": 0.20689649999999915,
          "durationTicks": 192,
          "midi": 41,
          "name": "F2",
          "ticks": 67584,
          "time": 72.827568,
          "velocity": 0.3937007874015748
        },
        {
          "duration": 0.20689649999999915,
          "durationTicks": 192,
          "midi": 51,
          "name": "D#3",
          "ticks": 67776,
          "time": 73.0344645,
          "velocity": 0.3937007874015748
        },
        {
          "duration": 0.20689649999999915,
          "durationTicks": 192,
          "midi": 39,
          "name": "D#2",
          "ticks": 67776,
          "time": 73.0344645,
          "velocity": 0.3937007874015748
        },
        {
          "duration": 0.20689649999999915,
          "durationTicks": 192,
          "midi": 50,
          "name": "D3",
          "ticks": 67968,
          "time": 73.241361,
          "velocity": 0.3937007874015748
        },
        {
          "duration": 0.20689649999999915,
          "durationTicks": 192,
          "midi": 38,
          "name": "D2",
          "ticks": 67968,
          "time": 73.241361,
          "velocity": 0.3937007874015748
        },
        {
          "duration": 0.20689650000001336,
          "durationTicks": 192,
          "midi": 39,
          "name": "D#2",
          "ticks": 68160,
          "time": 73.4482575,
          "velocity": 0.3937007874015748
        },
        {
          "duration": 0.20689650000001336,
          "durationTicks": 192,
          "midi": 51,
          "name": "D#3",
          "ticks": 68160,
          "time": 73.4482575,
          "velocity": 0.3937007874015748
        },
        {
          "duration": 0.4137929999999983,
          "durationTicks": 384,
          "midi": 27,
          "name": "D#1",
          "ticks": 68352,
          "time": 73.65515400000001,
          "velocity": 0.3937007874015748
        },
        {
          "duration": 0.4137929999999983,
          "durationTicks": 384,
          "midi": 39,
          "name": "D#2",
          "ticks": 68352,
          "time": 73.65515400000001,
          "velocity": 0.3937007874015748
        },
        {
          "duration": 0.10344824999999958,
          "durationTicks": 96,
          "midi": 27,
          "name": "D#1",
          "ticks": 68736,
          "time": 74.06894700000001,
          "velocity": 0.3937007874015748
        },
        {
          "duration": 0.10344824999999958,
          "durationTicks": 96,
          "midi": 39,
          "name": "D#2",
          "ticks": 68736,
          "time": 74.06894700000001,
          "velocity": 0.3937007874015748
        },
        {
          "duration": 0.10344824999999958,
          "durationTicks": 96,
          "midi": 51,
          "name": "D#3",
          "ticks": 68832,
          "time": 74.17239525000001,
          "velocity": 0.3937007874015748
        },
        {
          "duration": 0.10344824999999958,
          "durationTicks": 96,
          "midi": 39,
          "name": "D#2",
          "ticks": 68832,
          "time": 74.17239525000001,
          "velocity": 0.3937007874015748
        },
        {
          "duration": 0.10344824999999958,
          "durationTicks": 96,
          "midi": 39,
          "name": "D#2",
          "ticks": 68928,
          "time": 74.27584350000001,
          "velocity": 0.3937007874015748
        },
        {
          "duration": 0.10344824999999958,
          "durationTicks": 96,
          "midi": 27,
          "name": "D#1",
          "ticks": 68928,
          "time": 74.27584350000001,
          "velocity": 0.3937007874015748
        },
        {
          "duration": 0.10344824999999958,
          "durationTicks": 96,
          "midi": 48,
          "name": "C3",
          "ticks": 69024,
          "time": 74.37929175000001,
          "velocity": 0.3937007874015748
        },
        {
          "duration": 0.10344824999999958,
          "durationTicks": 96,
          "midi": 36,
          "name": "C2",
          "ticks": 69024,
          "time": 74.37929175000001,
          "velocity": 0.3937007874015748
        },
        {
          "duration": 0.10344824999999958,
          "durationTicks": 96,
          "midi": 51,
          "name": "D#3",
          "ticks": 69120,
          "time": 74.48274,
          "velocity": 0.3937007874015748
        },
        {
          "duration": 0.10344824999999958,
          "durationTicks": 96,
          "midi": 39,
          "name": "D#2",
          "ticks": 69120,
          "time": 74.48274,
          "velocity": 0.3937007874015748
        },
        {
          "duration": 0.10344824999999958,
          "durationTicks": 96,
          "midi": 48,
          "name": "C3",
          "ticks": 69216,
          "time": 74.58618825,
          "velocity": 0.3937007874015748
        },
        {
          "duration": 0.10344824999999958,
          "durationTicks": 96,
          "midi": 36,
          "name": "C2",
          "ticks": 69216,
          "time": 74.58618825,
          "velocity": 0.3937007874015748
        },
        {
          "duration": 0.10344824999999958,
          "durationTicks": 96,
          "midi": 46,
          "name": "A#2",
          "ticks": 69312,
          "time": 74.6896365,
          "velocity": 0.3937007874015748
        },
        {
          "duration": 0.10344824999999958,
          "durationTicks": 96,
          "midi": 34,
          "name": "A#1",
          "ticks": 69312,
          "time": 74.6896365,
          "velocity": 0.3937007874015748
        },
        {
          "duration": 0.10344824999999958,
          "durationTicks": 96,
          "midi": 34,
          "name": "A#1",
          "ticks": 69504,
          "time": 74.896533,
          "velocity": 0.3937007874015748
        },
        {
          "duration": 0.10344824999999958,
          "durationTicks": 96,
          "midi": 46,
          "name": "A#2",
          "ticks": 69504,
          "time": 74.896533,
          "velocity": 0.3937007874015748
        },
        {
          "duration": 0.10344824999999958,
          "durationTicks": 96,
          "midi": 36,
          "name": "C2",
          "ticks": 69600,
          "time": 74.99998125,
          "velocity": 0.3937007874015748
        },
        {
          "duration": 0.10344824999999958,
          "durationTicks": 96,
          "midi": 48,
          "name": "C3",
          "ticks": 69600,
          "time": 74.99998125,
          "velocity": 0.3937007874015748
        },
        {
          "duration": 0.10344824999999958,
          "durationTicks": 96,
          "midi": 50,
          "name": "D3",
          "ticks": 69696,
          "time": 75.1034295,
          "velocity": 0.3937007874015748
        },
        {
          "duration": 0.10344824999999958,
          "durationTicks": 96,
          "midi": 38,
          "name": "D2",
          "ticks": 69696,
          "time": 75.1034295,
          "velocity": 0.3937007874015748
        },
        {
          "duration": 0.10344824999999958,
          "durationTicks": 96,
          "midi": 38,
          "name": "D2",
          "ticks": 69888,
          "time": 75.310326,
          "velocity": 0.3937007874015748
        },
        {
          "duration": 0.10344824999999958,
          "durationTicks": 96,
          "midi": 26,
          "name": "D1",
          "ticks": 69888,
          "time": 75.310326,
          "velocity": 0.3937007874015748
        },
        {
          "duration": 0.10344824999999958,
          "durationTicks": 96,
          "midi": 26,
          "name": "D1",
          "ticks": 70080,
          "time": 75.5172225,
          "velocity": 0.3937007874015748
        },
        {
          "duration": 0.10344824999999958,
          "durationTicks": 96,
          "midi": 38,
          "name": "D2",
          "ticks": 70080,
          "time": 75.5172225,
          "velocity": 0.3937007874015748
        },
        {
          "duration": 0.10344824999999958,
          "durationTicks": 96,
          "midi": 50,
          "name": "D3",
          "ticks": 70176,
          "time": 75.62067075,
          "velocity": 0.3937007874015748
        },
        {
          "duration": 0.10344824999999958,
          "durationTicks": 96,
          "midi": 38,
          "name": "D2",
          "ticks": 70176,
          "time": 75.62067075,
          "velocity": 0.3937007874015748
        },
        {
          "duration": 0.10344824999999958,
          "durationTicks": 96,
          "midi": 50,
          "name": "D3",
          "ticks": 70368,
          "time": 75.82756725,
          "velocity": 0.3937007874015748
        },
        {
          "duration": 0.10344824999999958,
          "durationTicks": 96,
          "midi": 38,
          "name": "D2",
          "ticks": 70368,
          "time": 75.82756725,
          "velocity": 0.3937007874015748
        },
        {
          "duration": 0.4137929999999983,
          "durationTicks": 384,
          "midi": 38,
          "name": "D2",
          "ticks": 70464,
          "time": 75.9310155,
          "velocity": 0.3937007874015748
        },
        {
          "duration": 0.4137929999999983,
          "durationTicks": 384,
          "midi": 26,
          "name": "D1",
          "ticks": 70464,
          "time": 75.9310155,
          "velocity": 0.3937007874015748
        },
        {
          "duration": 0.20689649999999915,
          "durationTicks": 192,
          "midi": 48,
          "name": "C3",
          "ticks": 70848,
          "time": 76.3448085,
          "velocity": 0.3937007874015748
        },
        {
          "duration": 0.20689649999999915,
          "durationTicks": 192,
          "midi": 36,
          "name": "C2",
          "ticks": 70848,
          "time": 76.3448085,
          "velocity": 0.3937007874015748
        },
        {
          "duration": 0.20689649999999915,
          "durationTicks": 192,
          "midi": 49,
          "name": "C#3",
          "ticks": 71040,
          "time": 76.551705,
          "velocity": 0.3937007874015748
        },
        {
          "duration": 0.20689649999999915,
          "durationTicks": 192,
          "midi": 37,
          "name": "C#2",
          "ticks": 71040,
          "time": 76.551705,
          "velocity": 0.3937007874015748
        },
        {
          "duration": 0.20689650000001336,
          "durationTicks": 192,
          "midi": 50,
          "name": "D3",
          "ticks": 71232,
          "time": 76.7586015,
          "velocity": 0.3937007874015748
        },
        {
          "duration": 0.20689650000001336,
          "durationTicks": 192,
          "midi": 38,
          "name": "D2",
          "ticks": 71232,
          "time": 76.7586015,
          "velocity": 0.3937007874015748
        },
        {
          "duration": 0.3103447499999987,
          "durationTicks": 288,
          "midi": 43,
          "name": "G2",
          "ticks": 71424,
          "time": 76.96549800000001,
          "velocity": 0.3937007874015748
        },
        {
          "duration": 0.3103447499999987,
          "durationTicks": 288,
          "midi": 31,
          "name": "G1",
          "ticks": 71424,
          "time": 76.96549800000001,
          "velocity": 0.3937007874015748
        },
        {
          "duration": 0.10344824999999958,
          "durationTicks": 96,
          "midi": 31,
          "name": "G1",
          "ticks": 71712,
          "time": 77.27584275000001,
          "velocity": 0.3937007874015748
        },
        {
          "duration": 0.10344824999999958,
          "durationTicks": 96,
          "midi": 43,
          "name": "G2",
          "ticks": 71712,
          "time": 77.27584275000001,
          "velocity": 0.3937007874015748
        },
        {
          "duration": 0.10344824999999958,
          "durationTicks": 96,
          "midi": 43,
          "name": "G2",
          "ticks": 71808,
          "time": 77.37929100000001,
          "velocity": 0.3937007874015748
        },
        {
          "duration": 0.10344824999999958,
          "durationTicks": 96,
          "midi": 55,
          "name": "G3",
          "ticks": 71808,
          "time": 77.37929100000001,
          "velocity": 0.3937007874015748
        },
        {
          "duration": 0.10344824999999958,
          "durationTicks": 96,
          "midi": 31,
          "name": "G1",
          "ticks": 71904,
          "time": 77.48273925000001,
          "velocity": 0.3937007874015748
        },
        {
          "duration": 0.10344824999999958,
          "durationTicks": 96,
          "midi": 43,
          "name": "G2",
          "ticks": 71904,
          "time": 77.48273925000001,
          "velocity": 0.3937007874015748
        },
        {
          "duration": 0.10344824999999958,
          "durationTicks": 96,
          "midi": 43,
          "name": "G2",
          "ticks": 72096,
          "time": 77.68963575000001,
          "velocity": 0.3937007874015748
        },
        {
          "duration": 0.10344824999999958,
          "durationTicks": 96,
          "midi": 31,
          "name": "G1",
          "ticks": 72096,
          "time": 77.68963575000001,
          "velocity": 0.3937007874015748
        },
        {
          "duration": 0.20689649999999915,
          "durationTicks": 192,
          "midi": 58,
          "name": "A#3",
          "ticks": 72192,
          "time": 77.79308400000001,
          "velocity": 0.3937007874015748
        },
        {
          "duration": 0.20689649999999915,
          "durationTicks": 192,
          "midi": 46,
          "name": "A#2",
          "ticks": 72192,
          "time": 77.79308400000001,
          "velocity": 0.3937007874015748
        },
        {
          "duration": 0.20689649999999915,
          "durationTicks": 192,
          "midi": 45,
          "name": "A2",
          "ticks": 72384,
          "time": 77.9999805,
          "velocity": 0.3937007874015748
        },
        {
          "duration": 0.20689649999999915,
          "durationTicks": 192,
          "midi": 57,
          "name": "A3",
          "ticks": 72384,
          "time": 77.9999805,
          "velocity": 0.3937007874015748
        },
        {
          "duration": 0.10344824999999958,
          "durationTicks": 96,
          "midi": 55,
          "name": "G3",
          "ticks": 72576,
          "time": 78.206877,
          "velocity": 0.3937007874015748
        },
        {
          "duration": 0.10344824999999958,
          "durationTicks": 96,
          "midi": 43,
          "name": "G2",
          "ticks": 72576,
          "time": 78.206877,
          "velocity": 0.3937007874015748
        },
        {
          "duration": 0.10344824999999958,
          "durationTicks": 96,
          "midi": 45,
          "name": "A2",
          "ticks": 72672,
          "time": 78.31032525,
          "velocity": 0.3937007874015748
        },
        {
          "duration": 0.10344824999999958,
          "durationTicks": 96,
          "midi": 57,
          "name": "A3",
          "ticks": 72672,
          "time": 78.31032525,
          "velocity": 0.3937007874015748
        },
        {
          "duration": 0.10344824999999958,
          "durationTicks": 96,
          "midi": 46,
          "name": "A#2",
          "ticks": 72720,
          "time": 78.362049375,
          "velocity": 0.3937007874015748
        },
        {
          "duration": 0.10344824999999958,
          "durationTicks": 96,
          "midi": 58,
          "name": "A#3",
          "ticks": 72720,
          "time": 78.362049375,
          "velocity": 0.3937007874015748
        },
        {
          "duration": 0.20689649999999915,
          "durationTicks": 192,
          "midi": 53,
          "name": "F3",
          "ticks": 72768,
          "time": 78.4137735,
          "velocity": 0.3937007874015748
        },
        {
          "duration": 0.20689649999999915,
          "durationTicks": 192,
          "midi": 41,
          "name": "F2",
          "ticks": 72768,
          "time": 78.4137735,
          "velocity": 0.3937007874015748
        },
        {
          "duration": 0.3103447499999987,
          "durationTicks": 288,
          "midi": 29,
          "name": "F1",
          "ticks": 72960,
          "time": 78.62067,
          "velocity": 0.3937007874015748
        },
        {
          "duration": 0.3103447499999987,
          "durationTicks": 288,
          "midi": 41,
          "name": "F2",
          "ticks": 72960,
          "time": 78.62067,
          "velocity": 0.3937007874015748
        },
        {
          "duration": 0.10344824999999958,
          "durationTicks": 96,
          "midi": 41,
          "name": "F2",
          "ticks": 73248,
          "time": 78.93101475,
          "velocity": 0.3937007874015748
        },
        {
          "duration": 0.10344824999999958,
          "durationTicks": 96,
          "midi": 29,
          "name": "F1",
          "ticks": 73248,
          "time": 78.93101475,
          "velocity": 0.3937007874015748
        },
        {
          "duration": 0.20689649999999915,
          "durationTicks": 192,
          "midi": 53,
          "name": "F3",
          "ticks": 73344,
          "time": 79.034463,
          "velocity": 0.3937007874015748
        },
        {
          "duration": 0.20689649999999915,
          "durationTicks": 192,
          "midi": 41,
          "name": "F2",
          "ticks": 73344,
          "time": 79.034463,
          "velocity": 0.3937007874015748
        },
        {
          "duration": 0.20689649999999915,
          "durationTicks": 192,
          "midi": 29,
          "name": "F1",
          "ticks": 73536,
          "time": 79.2413595,
          "velocity": 0.3937007874015748
        },
        {
          "duration": 0.20689649999999915,
          "durationTicks": 192,
          "midi": 41,
          "name": "F2",
          "ticks": 73536,
          "time": 79.2413595,
          "velocity": 0.3937007874015748
        },
        {
          "duration": 0.20689649999999915,
          "durationTicks": 192,
          "midi": 53,
          "name": "F3",
          "ticks": 73728,
          "time": 79.448256,
          "velocity": 0.3937007874015748
        },
        {
          "duration": 0.20689649999999915,
          "durationTicks": 192,
          "midi": 41,
          "name": "F2",
          "ticks": 73728,
          "time": 79.448256,
          "velocity": 0.3937007874015748
        },
        {
          "duration": 0.20689649999999915,
          "durationTicks": 192,
          "midi": 39,
          "name": "D#2",
          "ticks": 73920,
          "time": 79.6551525,
          "velocity": 0.3937007874015748
        },
        {
          "duration": 0.20689649999999915,
          "durationTicks": 192,
          "midi": 51,
          "name": "D#3",
          "ticks": 73920,
          "time": 79.6551525,
          "velocity": 0.3937007874015748
        },
        {
          "duration": 0.20689649999999915,
          "durationTicks": 192,
          "midi": 50,
          "name": "D3",
          "ticks": 74112,
          "time": 79.862049,
          "velocity": 0.3937007874015748
        },
        {
          "duration": 0.20689649999999915,
          "durationTicks": 192,
          "midi": 38,
          "name": "D2",
          "ticks": 74112,
          "time": 79.862049,
          "velocity": 0.3937007874015748
        },
        {
          "duration": 0.20689649999999915,
          "durationTicks": 192,
          "midi": 51,
          "name": "D#3",
          "ticks": 74304,
          "time": 80.0689455,
          "velocity": 0.3937007874015748
        },
        {
          "duration": 0.20689649999999915,
          "durationTicks": 192,
          "midi": 39,
          "name": "D#2",
          "ticks": 74304,
          "time": 80.0689455,
          "velocity": 0.3937007874015748
        }
      ],
      "endOfTrackTicks": 74496
    },
    {
      "channel": 15,
      "controlChanges": {},
      "pitchBends": [],
      "instrument": {
        "family": "piano",
        "number": 0,
        "name": "acoustic grand piano"
      },
      "name": "Electric Piano",
      "notes": [
        {
          "duration": 0.2068965,
          "durationTicks": 192,
          "midi": 62,
          "name": "D4",
          "ticks": 0,
          "time": 0,
          "velocity": 0.3937007874015748
        },
        {
          "duration": 0.2068965,
          "durationTicks": 192,
          "midi": 66,
          "name": "F#4",
          "ticks": 192,
          "time": 0.2068965,
          "velocity": 0.3937007874015748
        },
        {
          "duration": 0.20689649999999998,
          "durationTicks": 192,
          "midi": 73,
          "name": "C#5",
          "ticks": 384,
          "time": 0.413793,
          "velocity": 0.3937007874015748
        },
        {
          "duration": 0.20689650000000004,
          "durationTicks": 192,
          "midi": 62,
          "name": "D4",
          "ticks": 576,
          "time": 0.6206895,
          "velocity": 0.3937007874015748
        },
        {
          "duration": 0.20689649999999993,
          "durationTicks": 192,
          "midi": 66,
          "name": "F#4",
          "ticks": 768,
          "time": 0.827586,
          "velocity": 0.3937007874015748
        },
        {
          "duration": 0.20689650000000004,
          "durationTicks": 192,
          "midi": 73,
          "name": "C#5",
          "ticks": 960,
          "time": 1.0344825,
          "velocity": 0.3937007874015748
        },
        {
          "duration": 0.20689650000000004,
          "durationTicks": 192,
          "midi": 62,
          "name": "D4",
          "ticks": 1152,
          "time": 1.241379,
          "velocity": 0.3937007874015748
        },
        {
          "duration": 0.20689650000000004,
          "durationTicks": 192,
          "midi": 66,
          "name": "F#4",
          "ticks": 1344,
          "time": 1.4482755,
          "velocity": 0.3937007874015748
        },
        {
          "duration": 0.20689650000000004,
          "durationTicks": 192,
          "midi": 61,
          "name": "C#4",
          "ticks": 1536,
          "time": 1.655172,
          "velocity": 0.3937007874015748
        },
        {
          "duration": 0.20689649999999982,
          "durationTicks": 192,
          "midi": 65,
          "name": "F4",
          "ticks": 1728,
          "time": 1.8620685000000001,
          "velocity": 0.3937007874015748
        },
        {
          "duration": 0.20689650000000004,
          "durationTicks": 192,
          "midi": 71,
          "name": "B4",
          "ticks": 1920,
          "time": 2.068965,
          "velocity": 0.3937007874015748
        },
        {
          "duration": 0.20689650000000004,
          "durationTicks": 192,
          "midi": 61,
          "name": "C#4",
          "ticks": 2112,
          "time": 2.2758615,
          "velocity": 0.3937007874015748
        },
        {
          "duration": 0.20689650000000004,
          "durationTicks": 192,
          "midi": 65,
          "name": "F4",
          "ticks": 2304,
          "time": 2.482758,
          "velocity": 0.3937007874015748
        },
        {
          "duration": 0.20689650000000004,
          "durationTicks": 192,
          "midi": 71,
          "name": "B4",
          "ticks": 2496,
          "time": 2.6896545,
          "velocity": 0.3937007874015748
        },
        {
          "duration": 0.20689650000000004,
          "durationTicks": 192,
          "midi": 74,
          "name": "D5",
          "ticks": 2688,
          "time": 2.896551,
          "velocity": 0.3937007874015748
        },
        {
          "duration": 0.20689650000000004,
          "durationTicks": 192,
          "midi": 73,
          "name": "C#5",
          "ticks": 2880,
          "time": 3.1034475,
          "velocity": 0.3937007874015748
        },
        {
          "duration": 0.20689650000000004,
          "durationTicks": 192,
          "midi": 66,
          "name": "F#4",
          "ticks": 3072,
          "time": 3.310344,
          "velocity": 0.3937007874015748
        },
        {
          "duration": 0.20689650000000004,
          "durationTicks": 192,
          "midi": 69,
          "name": "A4",
          "ticks": 3264,
          "time": 3.5172405,
          "velocity": 0.3937007874015748
        },
        {
          "duration": 0.20689650000000004,
          "durationTicks": 192,
          "midi": 76,
          "name": "E5",
          "ticks": 3456,
          "time": 3.7241370000000003,
          "velocity": 0.3937007874015748
        },
        {
          "duration": 0.2068964999999996,
          "durationTicks": 192,
          "midi": 66,
          "name": "F#4",
          "ticks": 3648,
          "time": 3.9310335000000003,
          "velocity": 0.3937007874015748
        },
        {
          "duration": 0.20689650000000004,
          "durationTicks": 192,
          "midi": 69,
          "name": "A4",
          "ticks": 3840,
          "time": 4.13793,
          "velocity": 0.3937007874015748
        },
        {
          "duration": 0.20689650000000004,
          "durationTicks": 192,
          "midi": 76,
          "name": "E5",
          "ticks": 4032,
          "time": 4.3448265,
          "velocity": 0.3937007874015748
        },
        {
          "duration": 0.20689650000000004,
          "durationTicks": 192,
          "midi": 74,
          "name": "D5",
          "ticks": 4224,
          "time": 4.551723,
          "velocity": 0.3937007874015748
        },
        {
          "duration": 0.20689650000000004,
          "durationTicks": 192,
          "midi": 73,
          "name": "C#5",
          "ticks": 4416,
          "time": 4.7586195,
          "velocity": 0.3937007874015748
        },
        {
          "duration": 0.20689650000000004,
          "durationTicks": 192,
          "midi": 64,
          "name": "E4",
          "ticks": 4608,
          "time": 4.965516,
          "velocity": 0.3937007874015748
        },
        {
          "duration": 0.20689650000000004,
          "durationTicks": 192,
          "midi": 68,
          "name": "G#4",
          "ticks": 4800,
          "time": 5.1724125,
          "velocity": 0.3937007874015748
        },
        {
          "duration": 0.20689650000000004,
          "durationTicks": 192,
          "midi": 74,
          "name": "D5",
          "ticks": 4992,
          "time": 5.379309,
          "velocity": 0.3937007874015748
        },
        {
          "duration": 0.20689650000000004,
          "durationTicks": 192,
          "midi": 64,
          "name": "E4",
          "ticks": 5184,
          "time": 5.5862055,
          "velocity": 0.3937007874015748
        },
        {
          "duration": 0.20689650000000004,
          "durationTicks": 192,
          "midi": 74,
          "name": "D5",
          "ticks": 5376,
          "time": 5.793102,
          "velocity": 0.3937007874015748
        },
        {
          "duration": 0.20689650000000004,
          "durationTicks": 192,
          "midi": 73,
          "name": "C#5",
          "ticks": 5568,
          "time": 5.9999985,
          "velocity": 0.3937007874015748
        },
        {
          "duration": 0.20689650000000004,
          "durationTicks": 192,
          "midi": 71,
          "name": "B4",
          "ticks": 5760,
          "time": 6.206895,
          "velocity": 0.3937007874015748
        },
        {
          "duration": 0.20689650000000004,
          "durationTicks": 192,
          "midi": 73,
          "name": "C#5",
          "ticks": 5952,
          "time": 6.4137915,
          "velocity": 0.3937007874015748
        },
        {
          "duration": 0.20689650000000004,
          "durationTicks": 192,
          "midi": 62,
          "name": "D4",
          "ticks": 6144,
          "time": 6.620688,
          "velocity": 0.3937007874015748
        },
        {
          "duration": 0.20689650000000004,
          "durationTicks": 192,
          "midi": 66,
          "name": "F#4",
          "ticks": 6336,
          "time": 6.8275845,
          "velocity": 0.3937007874015748
        },
        {
          "duration": 0.20689650000000004,
          "durationTicks": 192,
          "midi": 73,
          "name": "C#5",
          "ticks": 6528,
          "time": 7.034481,
          "velocity": 0.3937007874015748
        },
        {
          "duration": 0.20689650000000004,
          "durationTicks": 192,
          "midi": 62,
          "name": "D4",
          "ticks": 6720,
          "time": 7.2413775000000005,
          "velocity": 0.3937007874015748
        },
        {
          "duration": 0.20689650000000004,
          "durationTicks": 192,
          "midi": 66,
          "name": "F#4",
          "ticks": 6912,
          "time": 7.4482740000000005,
          "velocity": 0.3937007874015748
        },
        {
          "duration": 0.20689650000000004,
          "durationTicks": 192,
          "midi": 73,
          "name": "C#5",
          "ticks": 7104,
          "time": 7.6551705000000005,
          "velocity": 0.3937007874015748
        },
        {
          "duration": 0.20689650000000004,
          "durationTicks": 192,
          "midi": 62,
          "name": "D4",
          "ticks": 7296,
          "time": 7.862067000000001,
          "velocity": 0.3937007874015748
        },
        {
          "duration": 0.20689649999999915,
          "durationTicks": 192,
          "midi": 66,
          "name": "F#4",
          "ticks": 7488,
          "time": 8.0689635,
          "velocity": 0.3937007874015748
        },
        {
          "duration": 0.20689650000000093,
          "durationTicks": 192,
          "midi": 61,
          "name": "C#4",
          "ticks": 7680,
          "time": 8.27586,
          "velocity": 0.3937007874015748
        },
        {
          "duration": 0.20689649999999915,
          "durationTicks": 192,
          "midi": 65,
          "name": "F4",
          "ticks": 7872,
          "time": 8.4827565,
          "velocity": 0.3937007874015748
        },
        {
          "duration": 0.20689650000000093,
          "durationTicks": 192,
          "midi": 71,
          "name": "B4",
          "ticks": 8064,
          "time": 8.689653,
          "velocity": 0.3937007874015748
        },
        {
          "duration": 0.20689649999999915,
          "durationTicks": 192,
          "midi": 61,
          "name": "C#4",
          "ticks": 8256,
          "time": 8.8965495,
          "velocity": 0.3937007874015748
        },
        {
          "duration": 0.20689650000000093,
          "durationTicks": 192,
          "midi": 65,
          "name": "F4",
          "ticks": 8448,
          "time": 9.103446,
          "velocity": 0.3937007874015748
        },
        {
          "duration": 0.20689649999999915,
          "durationTicks": 192,
          "midi": 71,
          "name": "B4",
          "ticks": 8640,
          "time": 9.3103425,
          "velocity": 0.3937007874015748
        },
        {
          "duration": 0.20689650000000093,
          "durationTicks": 192,
          "midi": 74,
          "name": "D5",
          "ticks": 8832,
          "time": 9.517239,
          "velocity": 0.3937007874015748
        },
        {
          "duration": 0.20689649999999915,
          "durationTicks": 192,
          "midi": 73,
          "name": "C#5",
          "ticks": 9024,
          "time": 9.724135500000001,
          "velocity": 0.3937007874015748
        },
        {
          "duration": 0.20689650000000093,
          "durationTicks": 192,
          "midi": 66,
          "name": "F#4",
          "ticks": 9216,
          "time": 9.931032,
          "velocity": 0.3937007874015748
        },
        {
          "duration": 0.20689649999999915,
          "durationTicks": 192,
          "midi": 69,
          "name": "A4",
          "ticks": 9408,
          "time": 10.137928500000001,
          "velocity": 0.3937007874015748
        },
        {
          "duration": 0.20689650000000093,
          "durationTicks": 192,
          "midi": 76,
          "name": "E5",
          "ticks": 9600,
          "time": 10.344825,
          "velocity": 0.3937007874015748
        },
        {
          "duration": 0.20689649999999915,
          "durationTicks": 192,
          "midi": 66,
          "name": "F#4",
          "ticks": 9792,
          "time": 10.551721500000001,
          "velocity": 0.3937007874015748
        },
        {
          "duration": 0.20689650000000093,
          "durationTicks": 192,
          "midi": 69,
          "name": "A4",
          "ticks": 9984,
          "time": 10.758618,
          "velocity": 0.3937007874015748
        },
        {
          "duration": 0.20689649999999915,
          "durationTicks": 192,
          "midi": 76,
          "name": "E5",
          "ticks": 10176,
          "time": 10.965514500000001,
          "velocity": 0.3937007874015748
        },
        {
          "duration": 0.20689650000000093,
          "durationTicks": 192,
          "midi": 74,
          "name": "D5",
          "ticks": 10368,
          "time": 11.172411,
          "velocity": 0.3937007874015748
        },
        {
          "duration": 0.20689649999999915,
          "durationTicks": 192,
          "midi": 73,
          "name": "C#5",
          "ticks": 10560,
          "time": 11.379307500000001,
          "velocity": 0.3937007874015748
        },
        {
          "duration": 0.20689650000000093,
          "durationTicks": 192,
          "midi": 64,
          "name": "E4",
          "ticks": 10752,
          "time": 11.586204,
          "velocity": 0.3937007874015748
        },
        {
          "duration": 0.20689649999999915,
          "durationTicks": 192,
          "midi": 68,
          "name": "G#4",
          "ticks": 10944,
          "time": 11.793100500000001,
          "velocity": 0.3937007874015748
        },
        {
          "duration": 0.20689650000000093,
          "durationTicks": 192,
          "midi": 74,
          "name": "D5",
          "ticks": 11136,
          "time": 11.999997,
          "velocity": 0.3937007874015748
        },
        {
          "duration": 0.20689649999999915,
          "durationTicks": 192,
          "midi": 64,
          "name": "E4",
          "ticks": 11328,
          "time": 12.206893500000001,
          "velocity": 0.3937007874015748
        },
        {
          "duration": 0.20689650000000093,
          "durationTicks": 192,
          "midi": 74,
          "name": "D5",
          "ticks": 11520,
          "time": 12.41379,
          "velocity": 0.3937007874015748
        },
        {
          "duration": 0.20689649999999915,
          "durationTicks": 192,
          "midi": 73,
          "name": "C#5",
          "ticks": 11712,
          "time": 12.620686500000001,
          "velocity": 0.3937007874015748
        },
        {
          "duration": 0.20689650000000093,
          "durationTicks": 192,
          "midi": 71,
          "name": "B4",
          "ticks": 11904,
          "time": 12.827583,
          "velocity": 0.3937007874015748
        },
        {
          "duration": 0.20689649999999915,
          "durationTicks": 192,
          "midi": 73,
          "name": "C#5",
          "ticks": 12096,
          "time": 13.034479500000002,
          "velocity": 0.3937007874015748
        },
        {
          "duration": 0.20689649999999915,
          "durationTicks": 192,
          "midi": 62,
          "name": "D4",
          "ticks": 12288,
          "time": 13.241376,
          "velocity": 0.3937007874015748
        },
        {
          "duration": 0.20689650000000093,
          "durationTicks": 192,
          "midi": 66,
          "name": "F#4",
          "ticks": 12480,
          "time": 13.4482725,
          "velocity": 0.3937007874015748
        },
        {
          "duration": 0.20689649999999915,
          "durationTicks": 192,
          "midi": 73,
          "name": "C#5",
          "ticks": 12672,
          "time": 13.655169,
          "velocity": 0.3937007874015748
        },
        {
          "duration": 0.20689650000000093,
          "durationTicks": 192,
          "midi": 62,
          "name": "D4",
          "ticks": 12864,
          "time": 13.8620655,
          "velocity": 0.3937007874015748
        },
        {
          "duration": 0.20689649999999915,
          "durationTicks": 192,
          "midi": 66,
          "name": "F#4",
          "ticks": 13056,
          "time": 14.068962,
          "velocity": 0.3937007874015748
        },
        {
          "duration": 0.20689650000000093,
          "durationTicks": 192,
          "midi": 73,
          "name": "C#5",
          "ticks": 13248,
          "time": 14.2758585,
          "velocity": 0.3937007874015748
        },
        {
          "duration": 0.20689649999999915,
          "durationTicks": 192,
          "midi": 62,
          "name": "D4",
          "ticks": 13440,
          "time": 14.482755000000001,
          "velocity": 0.3937007874015748
        },
        {
          "duration": 0.20689650000000093,
          "durationTicks": 192,
          "midi": 66,
          "name": "F#4",
          "ticks": 13632,
          "time": 14.6896515,
          "velocity": 0.3937007874015748
        },
        {
          "duration": 0.20689649999999915,
          "durationTicks": 192,
          "midi": 61,
          "name": "C#4",
          "ticks": 13824,
          "time": 14.896548000000001,
          "velocity": 0.3937007874015748
        },
        {
          "duration": 0.20689650000000093,
          "durationTicks": 192,
          "midi": 65,
          "name": "F4",
          "ticks": 14016,
          "time": 15.1034445,
          "velocity": 0.3937007874015748
        },
        {
          "duration": 0.20689649999999915,
          "durationTicks": 192,
          "midi": 71,
          "name": "B4",
          "ticks": 14208,
          "time": 15.310341000000001,
          "velocity": 0.3937007874015748
        },
        {
          "duration": 0.20689650000000093,
          "durationTicks": 192,
          "midi": 61,
          "name": "C#4",
          "ticks": 14400,
          "time": 15.5172375,
          "velocity": 0.3937007874015748
        },
        {
          "duration": 0.20689649999999915,
          "durationTicks": 192,
          "midi": 65,
          "name": "F4",
          "ticks": 14592,
          "time": 15.724134000000001,
          "velocity": 0.3937007874015748
        },
        {
          "duration": 0.20689650000000093,
          "durationTicks": 192,
          "midi": 71,
          "name": "B4",
          "ticks": 14784,
          "time": 15.9310305,
          "velocity": 0.3937007874015748
        },
        {
          "duration": 0.20689649999999915,
          "durationTicks": 192,
          "midi": 74,
          "name": "D5",
          "ticks": 14976,
          "time": 16.137927,
          "velocity": 0.3937007874015748
        },
        {
          "duration": 0.20689649999999915,
          "durationTicks": 192,
          "midi": 73,
          "name": "C#5",
          "ticks": 15168,
          "time": 16.3448235,
          "velocity": 0.3937007874015748
        },
        {
          "duration": 0.2068965000000027,
          "durationTicks": 192,
          "midi": 66,
          "name": "F#4",
          "ticks": 15360,
          "time": 16.55172,
          "velocity": 0.3937007874015748
        },
        {
          "duration": 0.20689649999999915,
          "durationTicks": 192,
          "midi": 69,
          "name": "A4",
          "ticks": 15552,
          "time": 16.758616500000002,
          "velocity": 0.3937007874015748
        },
        {
          "duration": 0.20689649999999915,
          "durationTicks": 192,
          "midi": 76,
          "name": "E5",
          "ticks": 15744,
          "time": 16.965513,
          "velocity": 0.3937007874015748
        },
        {
          "duration": 0.20689649999999915,
          "durationTicks": 192,
          "midi": 66,
          "name": "F#4",
          "ticks": 15936,
          "time": 17.1724095,
          "velocity": 0.3937007874015748
        },
        {
          "duration": 0.2068965000000027,
          "durationTicks": 192,
          "midi": 69,
          "name": "A4",
          "ticks": 16128,
          "time": 17.379306,
          "velocity": 0.3937007874015748
        },
        {
          "duration": 0.20689649999999915,
          "durationTicks": 192,
          "midi": 76,
          "name": "E5",
          "ticks": 16320,
          "time": 17.586202500000002,
          "velocity": 0.3937007874015748
        },
        {
          "duration": 0.20689649999999915,
          "durationTicks": 192,
          "midi": 74,
          "name": "D5",
          "ticks": 16512,
          "time": 17.793099,
          "velocity": 0.3937007874015748
        },
        {
          "duration": 0.20689649999999915,
          "durationTicks": 192,
          "midi": 73,
          "name": "C#5",
          "ticks": 16704,
          "time": 17.9999955,
          "velocity": 0.3937007874015748
        },
        {
          "duration": 0.2068965000000027,
          "durationTicks": 192,
          "midi": 64,
          "name": "E4",
          "ticks": 16896,
          "time": 18.206892,
          "velocity": 0.3937007874015748
        },
        {
          "duration": 0.20689649999999915,
          "durationTicks": 192,
          "midi": 68,
          "name": "G#4",
          "ticks": 17088,
          "time": 18.413788500000003,
          "velocity": 0.3937007874015748
        },
        {
          "duration": 0.20689649999999915,
          "durationTicks": 192,
          "midi": 74,
          "name": "D5",
          "ticks": 17280,
          "time": 18.620685,
          "velocity": 0.3937007874015748
        },
        {
          "duration": 0.20689649999999915,
          "durationTicks": 192,
          "midi": 64,
          "name": "E4",
          "ticks": 17472,
          "time": 18.8275815,
          "velocity": 0.3937007874015748
        },
        {
          "duration": 0.2068965000000027,
          "durationTicks": 192,
          "midi": 74,
          "name": "D5",
          "ticks": 17664,
          "time": 19.034478,
          "velocity": 0.3937007874015748
        },
        {
          "duration": 0.20689649999999915,
          "durationTicks": 192,
          "midi": 73,
          "name": "C#5",
          "ticks": 17856,
          "time": 19.241374500000003,
          "velocity": 0.3937007874015748
        },
        {
          "duration": 0.20689649999999915,
          "durationTicks": 192,
          "midi": 71,
          "name": "B4",
          "ticks": 18048,
          "time": 19.448271000000002,
          "velocity": 0.3937007874015748
        },
        {
          "duration": 0.20689649999999915,
          "durationTicks": 192,
          "midi": 73,
          "name": "C#5",
          "ticks": 18240,
          "time": 19.6551675,
          "velocity": 0.3937007874015748
        },
        {
          "duration": 0.20689649999999915,
          "durationTicks": 192,
          "midi": 62,
          "name": "D4",
          "ticks": 18432,
          "time": 19.862064,
          "velocity": 0.3937007874015748
        },
        {
          "duration": 0.2068965000000027,
          "durationTicks": 192,
          "midi": 66,
          "name": "F#4",
          "ticks": 18624,
          "time": 20.0689605,
          "velocity": 0.3937007874015748
        },
        {
          "duration": 0.20689649999999915,
          "durationTicks": 192,
          "midi": 73,
          "name": "C#5",
          "ticks": 18816,
          "time": 20.275857000000002,
          "velocity": 0.3937007874015748
        },
        {
          "duration": 0.20689649999999915,
          "durationTicks": 192,
          "midi": 62,
          "name": "D4",
          "ticks": 19008,
          "time": 20.4827535,
          "velocity": 0.3937007874015748
        },
        {
          "duration": 0.20689649999999915,
          "durationTicks": 192,
          "midi": 66,
          "name": "F#4",
          "ticks": 19200,
          "time": 20.68965,
          "velocity": 0.3937007874015748
        },
        {
          "duration": 0.2068965000000027,
          "durationTicks": 192,
          "midi": 73,
          "name": "C#5",
          "ticks": 19392,
          "time": 20.8965465,
          "velocity": 0.3937007874015748
        },
        {
          "duration": 0.20689649999999915,
          "durationTicks": 192,
          "midi": 62,
          "name": "D4",
          "ticks": 19584,
          "time": 21.103443000000002,
          "velocity": 0.3937007874015748
        },
        {
          "duration": 0.20689649999999915,
          "durationTicks": 192,
          "midi": 66,
          "name": "F#4",
          "ticks": 19776,
          "time": 21.3103395,
          "velocity": 0.3937007874015748
        },
        {
          "duration": 0.20689649999999915,
          "durationTicks": 192,
          "midi": 61,
          "name": "C#4",
          "ticks": 19968,
          "time": 21.517236,
          "velocity": 0.3937007874015748
        },
        {
          "duration": 0.2068965000000027,
          "durationTicks": 192,
          "midi": 65,
          "name": "F4",
          "ticks": 20160,
          "time": 21.7241325,
          "velocity": 0.3937007874015748
        },
        {
          "duration": 0.20689649999999915,
          "durationTicks": 192,
          "midi": 71,
          "name": "B4",
          "ticks": 20352,
          "time": 21.931029000000002,
          "velocity": 0.3937007874015748
        },
        {
          "duration": 0.20689649999999915,
          "durationTicks": 192,
          "midi": 61,
          "name": "C#4",
          "ticks": 20544,
          "time": 22.1379255,
          "velocity": 0.3937007874015748
        },
        {
          "duration": 0.20689649999999915,
          "durationTicks": 192,
          "midi": 65,
          "name": "F4",
          "ticks": 20736,
          "time": 22.344822,
          "velocity": 0.3937007874015748
        },
        {
          "duration": 0.2068965000000027,
          "durationTicks": 192,
          "midi": 71,
          "name": "B4",
          "ticks": 20928,
          "time": 22.5517185,
          "velocity": 0.3937007874015748
        },
        {
          "duration": 0.20689649999999915,
          "durationTicks": 192,
          "midi": 74,
          "name": "D5",
          "ticks": 21120,
          "time": 22.758615000000002,
          "velocity": 0.3937007874015748
        },
        {
          "duration": 0.20689649999999915,
          "durationTicks": 192,
          "midi": 73,
          "name": "C#5",
          "ticks": 21312,
          "time": 22.9655115,
          "velocity": 0.3937007874015748
        },
        {
          "duration": 0.20689649999999915,
          "durationTicks": 192,
          "midi": 66,
          "name": "F#4",
          "ticks": 21504,
          "time": 23.172408,
          "velocity": 0.3937007874015748
        },
        {
          "duration": 0.2068965000000027,
          "durationTicks": 192,
          "midi": 69,
          "name": "A4",
          "ticks": 21696,
          "time": 23.3793045,
          "velocity": 0.3937007874015748
        },
        {
          "duration": 0.20689649999999915,
          "durationTicks": 192,
          "midi": 76,
          "name": "E5",
          "ticks": 21888,
          "time": 23.586201000000003,
          "velocity": 0.3937007874015748
        },
        {
          "duration": 0.20689649999999915,
          "durationTicks": 192,
          "midi": 66,
          "name": "F#4",
          "ticks": 22080,
          "time": 23.793097500000002,
          "velocity": 0.3937007874015748
        },
        {
          "duration": 0.20689649999999915,
          "durationTicks": 192,
          "midi": 69,
          "name": "A4",
          "ticks": 22272,
          "time": 23.999994,
          "velocity": 0.3937007874015748
        },
        {
          "duration": 0.2068965000000027,
          "durationTicks": 192,
          "midi": 76,
          "name": "E5",
          "ticks": 22464,
          "time": 24.2068905,
          "velocity": 0.3937007874015748
        },
        {
          "duration": 0.20689649999999915,
          "durationTicks": 192,
          "midi": 74,
          "name": "D5",
          "ticks": 22656,
          "time": 24.413787000000003,
          "velocity": 0.3937007874015748
        },
        {
          "duration": 0.20689649999999915,
          "durationTicks": 192,
          "midi": 73,
          "name": "C#5",
          "ticks": 22848,
          "time": 24.620683500000002,
          "velocity": 0.3937007874015748
        },
        {
          "duration": 0.20689649999999915,
          "durationTicks": 192,
          "midi": 64,
          "name": "E4",
          "ticks": 23040,
          "time": 24.82758,
          "velocity": 0.3937007874015748
        },
        {
          "duration": 0.2068965000000027,
          "durationTicks": 192,
          "midi": 68,
          "name": "G#4",
          "ticks": 23232,
          "time": 25.0344765,
          "velocity": 0.3937007874015748
        },
        {
          "duration": 0.20689649999999915,
          "durationTicks": 192,
          "midi": 74,
          "name": "D5",
          "ticks": 23424,
          "time": 25.241373000000003,
          "velocity": 0.3937007874015748
        },
        {
          "duration": 0.20689649999999915,
          "durationTicks": 192,
          "midi": 64,
          "name": "E4",
          "ticks": 23616,
          "time": 25.448269500000002,
          "velocity": 0.3937007874015748
        },
        {
          "duration": 0.20689649999999915,
          "durationTicks": 192,
          "midi": 74,
          "name": "D5",
          "ticks": 23808,
          "time": 25.655166,
          "velocity": 0.3937007874015748
        },
        {
          "duration": 0.2068965000000027,
          "durationTicks": 192,
          "midi": 73,
          "name": "C#5",
          "ticks": 24000,
          "time": 25.8620625,
          "velocity": 0.3937007874015748
        },
        {
          "duration": 0.20689649999999915,
          "durationTicks": 192,
          "midi": 71,
          "name": "B4",
          "ticks": 24192,
          "time": 26.068959000000003,
          "velocity": 0.3937007874015748
        },
        {
          "duration": 0.20689649999999915,
          "durationTicks": 192,
          "midi": 73,
          "name": "C#5",
          "ticks": 24384,
          "time": 26.275855500000002,
          "velocity": 0.3937007874015748
        },
        {
          "duration": 0.20689649999999915,
          "durationTicks": 192,
          "midi": 62,
          "name": "D4",
          "ticks": 24576,
          "time": 26.482752,
          "velocity": 0.3937007874015748
        },
        {
          "duration": 0.20689649999999915,
          "durationTicks": 192,
          "midi": 66,
          "name": "F#4",
          "ticks": 24768,
          "time": 26.6896485,
          "velocity": 0.3937007874015748
        },
        {
          "duration": 0.2068965000000027,
          "durationTicks": 192,
          "midi": 73,
          "name": "C#5",
          "ticks": 24960,
          "time": 26.896545,
          "velocity": 0.3937007874015748
        },
        {
          "duration": 0.20689649999999915,
          "durationTicks": 192,
          "midi": 62,
          "name": "D4",
          "ticks": 25152,
          "time": 27.103441500000002,
          "velocity": 0.3937007874015748
        },
        {
          "duration": 0.20689649999999915,
          "durationTicks": 192,
          "midi": 66,
          "name": "F#4",
          "ticks": 25344,
          "time": 27.310338,
          "velocity": 0.3937007874015748
        },
        {
          "duration": 0.20689649999999915,
          "durationTicks": 192,
          "midi": 73,
          "name": "C#5",
          "ticks": 25536,
          "time": 27.5172345,
          "velocity": 0.3937007874015748
        },
        {
          "duration": 0.2068965000000027,
          "durationTicks": 192,
          "midi": 62,
          "name": "D4",
          "ticks": 25728,
          "time": 27.724131,
          "velocity": 0.3937007874015748
        },
        {
          "duration": 0.20689649999999915,
          "durationTicks": 192,
          "midi": 66,
          "name": "F#4",
          "ticks": 25920,
          "time": 27.931027500000003,
          "velocity": 0.3937007874015748
        },
        {
          "duration": 0.20689649999999915,
          "durationTicks": 192,
          "midi": 61,
          "name": "C#4",
          "ticks": 26112,
          "time": 28.137924,
          "velocity": 0.3937007874015748
        },
        {
          "duration": 0.20689649999999915,
          "durationTicks": 192,
          "midi": 65,
          "name": "F4",
          "ticks": 26304,
          "time": 28.3448205,
          "velocity": 0.3937007874015748
        },
        {
          "duration": 0.2068965000000027,
          "durationTicks": 192,
          "midi": 71,
          "name": "B4",
          "ticks": 26496,
          "time": 28.551717,
          "velocity": 0.3937007874015748
        },
        {
          "duration": 0.20689649999999915,
          "durationTicks": 192,
          "midi": 61,
          "name": "C#4",
          "ticks": 26688,
          "time": 28.758613500000003,
          "velocity": 0.3937007874015748
        },
        {
          "duration": 0.20689649999999915,
          "durationTicks": 192,
          "midi": 65,
          "name": "F4",
          "ticks": 26880,
          "time": 28.965510000000002,
          "velocity": 0.3937007874015748
        },
        {
          "duration": 0.20689649999999915,
          "durationTicks": 192,
          "midi": 71,
          "name": "B4",
          "ticks": 27072,
          "time": 29.1724065,
          "velocity": 0.3937007874015748
        },
        {
          "duration": 0.2068965000000027,
          "durationTicks": 192,
          "midi": 74,
          "name": "D5",
          "ticks": 27264,
          "time": 29.379303,
          "velocity": 0.3937007874015748
        },
        {
          "duration": 0.20689649999999915,
          "durationTicks": 192,
          "midi": 73,
          "name": "C#5",
          "ticks": 27456,
          "time": 29.586199500000003,
          "velocity": 0.3937007874015748
        },
        {
          "duration": 0.20689649999999915,
          "durationTicks": 192,
          "midi": 66,
          "name": "F#4",
          "ticks": 27648,
          "time": 29.793096000000002,
          "velocity": 0.3937007874015748
        },
        {
          "duration": 0.20689649999999915,
          "durationTicks": 192,
          "midi": 69,
          "name": "A4",
          "ticks": 27840,
          "time": 29.9999925,
          "velocity": 0.3937007874015748
        },
        {
          "duration": 0.2068965000000027,
          "durationTicks": 192,
          "midi": 76,
          "name": "E5",
          "ticks": 28032,
          "time": 30.206889,
          "velocity": 0.3937007874015748
        },
        {
          "duration": 0.20689649999999915,
          "durationTicks": 192,
          "midi": 66,
          "name": "F#4",
          "ticks": 28224,
          "time": 30.413785500000003,
          "velocity": 0.3937007874015748
        },
        {
          "duration": 0.20689649999999915,
          "durationTicks": 192,
          "midi": 69,
          "name": "A4",
          "ticks": 28416,
          "time": 30.620682000000002,
          "velocity": 0.3937007874015748
        },
        {
          "duration": 0.20689649999999915,
          "durationTicks": 192,
          "midi": 76,
          "name": "E5",
          "ticks": 28608,
          "time": 30.8275785,
          "velocity": 0.3937007874015748
        },
        {
          "duration": 0.2068965000000027,
          "durationTicks": 192,
          "midi": 74,
          "name": "D5",
          "ticks": 28800,
          "time": 31.034475,
          "velocity": 0.3937007874015748
        },
        {
          "duration": 0.20689649999999915,
          "durationTicks": 192,
          "midi": 73,
          "name": "C#5",
          "ticks": 28992,
          "time": 31.241371500000003,
          "velocity": 0.3937007874015748
        },
        {
          "duration": 0.20689649999999915,
          "durationTicks": 192,
          "midi": 64,
          "name": "E4",
          "ticks": 29184,
          "time": 31.448268000000002,
          "velocity": 0.3937007874015748
        },
        {
          "duration": 0.20689649999999915,
          "durationTicks": 192,
          "midi": 68,
          "name": "G#4",
          "ticks": 29376,
          "time": 31.6551645,
          "velocity": 0.3937007874015748
        },
        {
          "duration": 0.2068965000000027,
          "durationTicks": 192,
          "midi": 74,
          "name": "D5",
          "ticks": 29568,
          "time": 31.862061,
          "velocity": 0.3937007874015748
        },
        {
          "duration": 0.20689649999999915,
          "durationTicks": 192,
          "midi": 64,
          "name": "E4",
          "ticks": 29760,
          "time": 32.0689575,
          "velocity": 0.3937007874015748
        },
        {
          "duration": 0.20689649999999915,
          "durationTicks": 192,
          "midi": 74,
          "name": "D5",
          "ticks": 29952,
          "time": 32.275854,
          "velocity": 0.3937007874015748
        },
        {
          "duration": 0.20689649999999915,
          "durationTicks": 192,
          "midi": 73,
          "name": "C#5",
          "ticks": 30144,
          "time": 32.4827505,
          "velocity": 0.3937007874015748
        },
        {
          "duration": 0.20689649999999915,
          "durationTicks": 192,
          "midi": 71,
          "name": "B4",
          "ticks": 30336,
          "time": 32.689647,
          "velocity": 0.3937007874015748
        },
        {
          "duration": 0.20689649999999915,
          "durationTicks": 192,
          "midi": 73,
          "name": "C#5",
          "ticks": 30528,
          "time": 32.8965435,
          "velocity": 0.3937007874015748
        },
        {
          "duration": 0.20689649999999915,
          "durationTicks": 192,
          "midi": 62,
          "name": "D4",
          "ticks": 30720,
          "time": 33.10344,
          "velocity": 0.3937007874015748
        },
        {
          "duration": 0.20689650000000626,
          "durationTicks": 192,
          "midi": 66,
          "name": "F#4",
          "ticks": 30912,
          "time": 33.3103365,
          "velocity": 0.3937007874015748
        },
        {
          "duration": 0.20689649999999915,
          "durationTicks": 192,
          "midi": 73,
          "name": "C#5",
          "ticks": 31104,
          "time": 33.517233000000004,
          "velocity": 0.3937007874015748
        },
        {
          "duration": 0.20689649999999915,
          "durationTicks": 192,
          "midi": 62,
          "name": "D4",
          "ticks": 31296,
          "time": 33.724129500000004,
          "velocity": 0.3937007874015748
        },
        {
          "duration": 0.20689649999999915,
          "durationTicks": 192,
          "midi": 66,
          "name": "F#4",
          "ticks": 31488,
          "time": 33.931026,
          "velocity": 0.3937007874015748
        },
        {
          "duration": 0.20689649999999915,
          "durationTicks": 192,
          "midi": 73,
          "name": "C#5",
          "ticks": 31680,
          "time": 34.1379225,
          "velocity": 0.3937007874015748
        },
        {
          "duration": 0.20689649999999915,
          "durationTicks": 192,
          "midi": 62,
          "name": "D4",
          "ticks": 31872,
          "time": 34.344819,
          "velocity": 0.3937007874015748
        },
        {
          "duration": 0.20689649999999915,
          "durationTicks": 192,
          "midi": 66,
          "name": "F#4",
          "ticks": 32064,
          "time": 34.5517155,
          "velocity": 0.3937007874015748
        },
        {
          "duration": 0.20689649999999915,
          "durationTicks": 192,
          "midi": 61,
          "name": "C#4",
          "ticks": 32256,
          "time": 34.758612,
          "velocity": 0.3937007874015748
        },
        {
          "duration": 0.20689650000000626,
          "durationTicks": 192,
          "midi": 65,
          "name": "F4",
          "ticks": 32448,
          "time": 34.9655085,
          "velocity": 0.3937007874015748
        },
        {
          "duration": 0.20689649999999915,
          "durationTicks": 192,
          "midi": 71,
          "name": "B4",
          "ticks": 32640,
          "time": 35.172405000000005,
          "velocity": 0.3937007874015748
        },
        {
          "duration": 0.20689649999999915,
          "durationTicks": 192,
          "midi": 61,
          "name": "C#4",
          "ticks": 32832,
          "time": 35.379301500000004,
          "velocity": 0.3937007874015748
        },
        {
          "duration": 0.20689649999999915,
          "durationTicks": 192,
          "midi": 65,
          "name": "F4",
          "ticks": 33024,
          "time": 35.586198,
          "velocity": 0.3937007874015748
        },
        {
          "duration": 0.20689649999999915,
          "durationTicks": 192,
          "midi": 71,
          "name": "B4",
          "ticks": 33216,
          "time": 35.7930945,
          "velocity": 0.3937007874015748
        },
        {
          "duration": 0.20689649999999915,
          "durationTicks": 192,
          "midi": 74,
          "name": "D5",
          "ticks": 33408,
          "time": 35.999991,
          "velocity": 0.3937007874015748
        },
        {
          "duration": 0.20689649999999915,
          "durationTicks": 192,
          "midi": 73,
          "name": "C#5",
          "ticks": 33600,
          "time": 36.2068875,
          "velocity": 0.3937007874015748
        },
        {
          "duration": 0.20689649999999915,
          "durationTicks": 192,
          "midi": 66,
          "name": "F#4",
          "ticks": 33792,
          "time": 36.413784,
          "velocity": 0.3937007874015748
        },
        {
          "duration": 0.20689650000000626,
          "durationTicks": 192,
          "midi": 69,
          "name": "A4",
          "ticks": 33984,
          "time": 36.6206805,
          "velocity": 0.3937007874015748
        },
        {
          "duration": 0.20689649999999915,
          "durationTicks": 192,
          "midi": 76,
          "name": "E5",
          "ticks": 34176,
          "time": 36.827577000000005,
          "velocity": 0.3937007874015748
        },
        {
          "duration": 0.20689649999999915,
          "durationTicks": 192,
          "midi": 66,
          "name": "F#4",
          "ticks": 34368,
          "time": 37.034473500000004,
          "velocity": 0.3937007874015748
        },
        {
          "duration": 0.20689649999999915,
          "durationTicks": 192,
          "midi": 69,
          "name": "A4",
          "ticks": 34560,
          "time": 37.24137,
          "velocity": 0.3937007874015748
        },
        {
          "duration": 0.20689649999999915,
          "durationTicks": 192,
          "midi": 76,
          "name": "E5",
          "ticks": 34752,
          "time": 37.4482665,
          "velocity": 0.3937007874015748
        },
        {
          "duration": 0.20689649999999915,
          "durationTicks": 192,
          "midi": 74,
          "name": "D5",
          "ticks": 34944,
          "time": 37.655163,
          "velocity": 0.3937007874015748
        },
        {
          "duration": 0.20689649999999915,
          "durationTicks": 192,
          "midi": 73,
          "name": "C#5",
          "ticks": 35136,
          "time": 37.8620595,
          "velocity": 0.3937007874015748
        },
        {
          "duration": 0.20689649999999915,
          "durationTicks": 192,
          "midi": 64,
          "name": "E4",
          "ticks": 35328,
          "time": 38.068956,
          "velocity": 0.3937007874015748
        },
        {
          "duration": 0.20689650000000626,
          "durationTicks": 192,
          "midi": 68,
          "name": "G#4",
          "ticks": 35520,
          "time": 38.2758525,
          "velocity": 0.3937007874015748
        },
        {
          "duration": 0.20689649999999915,
          "durationTicks": 192,
          "midi": 74,
          "name": "D5",
          "ticks": 35712,
          "time": 38.482749000000005,
          "velocity": 0.3937007874015748
        },
        {
          "duration": 0.20689649999999915,
          "durationTicks": 192,
          "midi": 64,
          "name": "E4",
          "ticks": 35904,
          "time": 38.689645500000005,
          "velocity": 0.3937007874015748
        },
        {
          "duration": 0.20689649999999915,
          "durationTicks": 192,
          "midi": 74,
          "name": "D5",
          "ticks": 36096,
          "time": 38.896542000000004,
          "velocity": 0.3937007874015748
        },
        {
          "duration": 0.20689649999999915,
          "durationTicks": 192,
          "midi": 73,
          "name": "C#5",
          "ticks": 36288,
          "time": 39.1034385,
          "velocity": 0.3937007874015748
        },
        {
          "duration": 0.20689649999999915,
          "durationTicks": 192,
          "midi": 71,
          "name": "B4",
          "ticks": 36480,
          "time": 39.310335,
          "velocity": 0.3937007874015748
        },
        {
          "duration": 0.20689649999999915,
          "durationTicks": 192,
          "midi": 73,
          "name": "C#5",
          "ticks": 36672,
          "time": 39.5172315,
          "velocity": 0.3937007874015748
        },
        {
          "duration": 0.20689649999999915,
          "durationTicks": 192,
          "midi": 62,
          "name": "D4",
          "ticks": 36864,
          "time": 39.724128,
          "velocity": 0.3937007874015748
        },
        {
          "duration": 0.20689649999999915,
          "durationTicks": 192,
          "midi": 66,
          "name": "F#4",
          "ticks": 37056,
          "time": 39.9310245,
          "velocity": 0.3937007874015748
        },
        {
          "duration": 0.20689650000000626,
          "durationTicks": 192,
          "midi": 73,
          "name": "C#5",
          "ticks": 37248,
          "time": 40.137921,
          "velocity": 0.3937007874015748
        },
        {
          "duration": 0.20689649999999915,
          "durationTicks": 192,
          "midi": 62,
          "name": "D4",
          "ticks": 37440,
          "time": 40.344817500000005,
          "velocity": 0.3937007874015748
        },
        {
          "duration": 0.20689649999999915,
          "durationTicks": 192,
          "midi": 66,
          "name": "F#4",
          "ticks": 37632,
          "time": 40.551714000000004,
          "velocity": 0.3937007874015748
        },
        {
          "duration": 0.20689649999999915,
          "durationTicks": 192,
          "midi": 73,
          "name": "C#5",
          "ticks": 37824,
          "time": 40.7586105,
          "velocity": 0.3937007874015748
        },
        {
          "duration": 0.20689649999999915,
          "durationTicks": 192,
          "midi": 62,
          "name": "D4",
          "ticks": 38016,
          "time": 40.965507,
          "velocity": 0.3937007874015748
        },
        {
          "duration": 0.20689649999999915,
          "durationTicks": 192,
          "midi": 66,
          "name": "F#4",
          "ticks": 38208,
          "time": 41.1724035,
          "velocity": 0.3937007874015748
        },
        {
          "duration": 0.20689649999999915,
          "durationTicks": 192,
          "midi": 61,
          "name": "C#4",
          "ticks": 38400,
          "time": 41.3793,
          "velocity": 0.3937007874015748
        },
        {
          "duration": 0.20689649999999915,
          "durationTicks": 192,
          "midi": 65,
          "name": "F4",
          "ticks": 38592,
          "time": 41.5861965,
          "velocity": 0.3937007874015748
        },
        {
          "duration": 0.20689650000000626,
          "durationTicks": 192,
          "midi": 71,
          "name": "B4",
          "ticks": 38784,
          "time": 41.793093,
          "velocity": 0.3937007874015748
        },
        {
          "duration": 0.20689649999999915,
          "durationTicks": 192,
          "midi": 61,
          "name": "C#4",
          "ticks": 38976,
          "time": 41.999989500000005,
          "velocity": 0.3937007874015748
        },
        {
          "duration": 0.20689649999999915,
          "durationTicks": 192,
          "midi": 65,
          "name": "F4",
          "ticks": 39168,
          "time": 42.206886000000004,
          "velocity": 0.3937007874015748
        },
        {
          "duration": 0.20689649999999915,
          "durationTicks": 192,
          "midi": 71,
          "name": "B4",
          "ticks": 39360,
          "time": 42.4137825,
          "velocity": 0.3937007874015748
        },
        {
          "duration": 0.20689649999999915,
          "durationTicks": 192,
          "midi": 74,
          "name": "D5",
          "ticks": 39552,
          "time": 42.620679,
          "velocity": 0.3937007874015748
        },
        {
          "duration": 0.20689649999999915,
          "durationTicks": 192,
          "midi": 73,
          "name": "C#5",
          "ticks": 39744,
          "time": 42.8275755,
          "velocity": 0.3937007874015748
        },
        {
          "duration": 0.20689649999999915,
          "durationTicks": 192,
          "midi": 66,
          "name": "F#4",
          "ticks": 39936,
          "time": 43.034472,
          "velocity": 0.3937007874015748
        },
        {
          "duration": 0.20689649999999915,
          "durationTicks": 192,
          "midi": 69,
          "name": "A4",
          "ticks": 40128,
          "time": 43.2413685,
          "velocity": 0.3937007874015748
        },
        {
          "duration": 0.20689650000000626,
          "durationTicks": 192,
          "midi": 76,
          "name": "E5",
          "ticks": 40320,
          "time": 43.448265,
          "velocity": 0.3937007874015748
        },
        {
          "duration": 0.20689649999999915,
          "durationTicks": 192,
          "midi": 66,
          "name": "F#4",
          "ticks": 40512,
          "time": 43.655161500000006,
          "velocity": 0.3937007874015748
        },
        {
          "duration": 0.20689649999999915,
          "durationTicks": 192,
          "midi": 69,
          "name": "A4",
          "ticks": 40704,
          "time": 43.862058000000005,
          "velocity": 0.3937007874015748
        },
        {
          "duration": 0.20689649999999915,
          "durationTicks": 192,
          "midi": 76,
          "name": "E5",
          "ticks": 40896,
          "time": 44.068954500000004,
          "velocity": 0.3937007874015748
        },
        {
          "duration": 0.20689649999999915,
          "durationTicks": 192,
          "midi": 74,
          "name": "D5",
          "ticks": 41088,
          "time": 44.275851,
          "velocity": 0.3937007874015748
        },
        {
          "duration": 0.20689649999999915,
          "durationTicks": 192,
          "midi": 73,
          "name": "C#5",
          "ticks": 41280,
          "time": 44.4827475,
          "velocity": 0.3937007874015748
        },
        {
          "duration": 0.20689649999999915,
          "durationTicks": 192,
          "midi": 64,
          "name": "E4",
          "ticks": 41472,
          "time": 44.689644,
          "velocity": 0.3937007874015748
        },
        {
          "duration": 0.20689649999999915,
          "durationTicks": 192,
          "midi": 68,
          "name": "G#4",
          "ticks": 41664,
          "time": 44.8965405,
          "velocity": 0.3937007874015748
        },
        {
          "duration": 0.20689650000000626,
          "durationTicks": 192,
          "midi": 74,
          "name": "D5",
          "ticks": 41856,
          "time": 45.103437,
          "velocity": 0.3937007874015748
        },
        {
          "duration": 0.20689649999999915,
          "durationTicks": 192,
          "midi": 64,
          "name": "E4",
          "ticks": 42048,
          "time": 45.310333500000006,
          "velocity": 0.3937007874015748
        },
        {
          "duration": 0.20689649999999915,
          "durationTicks": 192,
          "midi": 74,
          "name": "D5",
          "ticks": 42240,
          "time": 45.517230000000005,
          "velocity": 0.3937007874015748
        },
        {
          "duration": 0.20689649999999915,
          "durationTicks": 192,
          "midi": 73,
          "name": "C#5",
          "ticks": 42432,
          "time": 45.724126500000004,
          "velocity": 0.3937007874015748
        },
        {
          "duration": 0.20689649999999915,
          "durationTicks": 192,
          "midi": 71,
          "name": "B4",
          "ticks": 42624,
          "time": 45.931023,
          "velocity": 0.3937007874015748
        },
        {
          "duration": 0.20689649999999915,
          "durationTicks": 192,
          "midi": 73,
          "name": "C#5",
          "ticks": 42816,
          "time": 46.1379195,
          "velocity": 0.3937007874015748
        },
        {
          "duration": 0.20689649999999915,
          "durationTicks": 192,
          "midi": 62,
          "name": "D4",
          "ticks": 43008,
          "time": 46.344816,
          "velocity": 0.3937007874015748
        },
        {
          "duration": 0.20689649999999915,
          "durationTicks": 192,
          "midi": 66,
          "name": "F#4",
          "ticks": 43200,
          "time": 46.5517125,
          "velocity": 0.3937007874015748
        },
        {
          "duration": 0.20689649999999915,
          "durationTicks": 192,
          "midi": 73,
          "name": "C#5",
          "ticks": 43392,
          "time": 46.758609,
          "velocity": 0.3937007874015748
        },
        {
          "duration": 0.20689650000000626,
          "durationTicks": 192,
          "midi": 62,
          "name": "D4",
          "ticks": 43584,
          "time": 46.9655055,
          "velocity": 0.3937007874015748
        },
        {
          "duration": 0.20689649999999915,
          "durationTicks": 192,
          "midi": 66,
          "name": "F#4",
          "ticks": 43776,
          "time": 47.172402000000005,
          "velocity": 0.3937007874015748
        },
        {
          "duration": 0.20689649999999915,
          "durationTicks": 192,
          "midi": 73,
          "name": "C#5",
          "ticks": 43968,
          "time": 47.379298500000004,
          "velocity": 0.3937007874015748
        },
        {
          "duration": 0.20689649999999915,
          "durationTicks": 192,
          "midi": 62,
          "name": "D4",
          "ticks": 44160,
          "time": 47.586195000000004,
          "velocity": 0.3937007874015748
        },
        {
          "duration": 0.20689649999999915,
          "durationTicks": 192,
          "midi": 66,
          "name": "F#4",
          "ticks": 44352,
          "time": 47.7930915,
          "velocity": 0.3937007874015748
        },
        {
          "duration": 0.20689649999999915,
          "durationTicks": 192,
          "midi": 61,
          "name": "C#4",
          "ticks": 44544,
          "time": 47.999988,
          "velocity": 0.3937007874015748
        },
        {
          "duration": 0.20689649999999915,
          "durationTicks": 192,
          "midi": 65,
          "name": "F4",
          "ticks": 44736,
          "time": 48.2068845,
          "velocity": 0.3937007874015748
        },
        {
          "duration": 0.20689649999999915,
          "durationTicks": 192,
          "midi": 71,
          "name": "B4",
          "ticks": 44928,
          "time": 48.413781,
          "velocity": 0.3937007874015748
        },
        {
          "duration": 0.20689650000000626,
          "durationTicks": 192,
          "midi": 61,
          "name": "C#4",
          "ticks": 45120,
          "time": 48.6206775,
          "velocity": 0.3937007874015748
        },
        {
          "duration": 0.20689649999999915,
          "durationTicks": 192,
          "midi": 65,
          "name": "F4",
          "ticks": 45312,
          "time": 48.827574000000006,
          "velocity": 0.3937007874015748
        },
        {
          "duration": 0.20689649999999915,
          "durationTicks": 192,
          "midi": 71,
          "name": "B4",
          "ticks": 45504,
          "time": 49.034470500000005,
          "velocity": 0.3937007874015748
        },
        {
          "duration": 0.20689649999999915,
          "durationTicks": 192,
          "midi": 74,
          "name": "D5",
          "ticks": 45696,
          "time": 49.241367000000004,
          "velocity": 0.3937007874015748
        },
        {
          "duration": 0.20689649999999915,
          "durationTicks": 192,
          "midi": 73,
          "name": "C#5",
          "ticks": 45888,
          "time": 49.4482635,
          "velocity": 0.3937007874015748
        },
        {
          "duration": 0.20689649999999915,
          "durationTicks": 192,
          "midi": 66,
          "name": "F#4",
          "ticks": 46080,
          "time": 49.65516,
          "velocity": 0.3937007874015748
        },
        {
          "duration": 0.20689649999999915,
          "durationTicks": 192,
          "midi": 69,
          "name": "A4",
          "ticks": 46272,
          "time": 49.8620565,
          "velocity": 0.3937007874015748
        },
        {
          "duration": 0.20689649999999915,
          "durationTicks": 192,
          "midi": 76,
          "name": "E5",
          "ticks": 46464,
          "time": 50.068953,
          "velocity": 0.3937007874015748
        },
        {
          "duration": 0.20689650000000626,
          "durationTicks": 192,
          "midi": 66,
          "name": "F#4",
          "ticks": 46656,
          "time": 50.2758495,
          "velocity": 0.3937007874015748
        },
        {
          "duration": 0.20689649999999915,
          "durationTicks": 192,
          "midi": 69,
          "name": "A4",
          "ticks": 46848,
          "time": 50.482746000000006,
          "velocity": 0.3937007874015748
        },
        {
          "duration": 0.20689649999999915,
          "durationTicks": 192,
          "midi": 76,
          "name": "E5",
          "ticks": 47040,
          "time": 50.689642500000005,
          "velocity": 0.3937007874015748
        },
        {
          "duration": 0.20689649999999915,
          "durationTicks": 192,
          "midi": 74,
          "name": "D5",
          "ticks": 47232,
          "time": 50.896539000000004,
          "velocity": 0.3937007874015748
        },
        {
          "duration": 0.20689649999999915,
          "durationTicks": 192,
          "midi": 73,
          "name": "C#5",
          "ticks": 47424,
          "time": 51.1034355,
          "velocity": 0.3937007874015748
        },
        {
          "duration": 0.20689649999999915,
          "durationTicks": 192,
          "midi": 64,
          "name": "E4",
          "ticks": 47616,
          "time": 51.310332,
          "velocity": 0.3937007874015748
        },
        {
          "duration": 0.20689649999999915,
          "durationTicks": 192,
          "midi": 68,
          "name": "G#4",
          "ticks": 47808,
          "time": 51.5172285,
          "velocity": 0.3937007874015748
        },
        {
          "duration": 0.20689649999999915,
          "durationTicks": 192,
          "midi": 74,
          "name": "D5",
          "ticks": 48000,
          "time": 51.724125,
          "velocity": 0.3937007874015748
        },
        {
          "duration": 0.20689650000000626,
          "durationTicks": 192,
          "midi": 64,
          "name": "E4",
          "ticks": 48192,
          "time": 51.9310215,
          "velocity": 0.3937007874015748
        },
        {
          "duration": 0.20689649999999915,
          "durationTicks": 192,
          "midi": 74,
          "name": "D5",
          "ticks": 48384,
          "time": 52.137918000000006,
          "velocity": 0.3937007874015748
        },
        {
          "duration": 0.20689649999999915,
          "durationTicks": 192,
          "midi": 73,
          "name": "C#5",
          "ticks": 48576,
          "time": 52.344814500000005,
          "velocity": 0.3937007874015748
        },
        {
          "duration": 0.20689649999999915,
          "durationTicks": 192,
          "midi": 71,
          "name": "B4",
          "ticks": 48768,
          "time": 52.551711000000005,
          "velocity": 0.3937007874015748
        },
        {
          "duration": 0.20689649999999915,
          "durationTicks": 192,
          "midi": 73,
          "name": "C#5",
          "ticks": 48960,
          "time": 52.758607500000004,
          "velocity": 0.3937007874015748
        },
        {
          "duration": 0.20689649999999915,
          "durationTicks": 192,
          "midi": 62,
          "name": "D4",
          "ticks": 49152,
          "time": 52.965504,
          "velocity": 0.3937007874015748
        },
        {
          "duration": 0.20689649999999915,
          "durationTicks": 192,
          "midi": 66,
          "name": "F#4",
          "ticks": 49344,
          "time": 53.1724005,
          "velocity": 0.3937007874015748
        },
        {
          "duration": 0.20689649999999915,
          "durationTicks": 192,
          "midi": 67,
          "name": "G4",
          "ticks": 49536,
          "time": 53.379297,
          "velocity": 0.3937007874015748
        },
        {
          "duration": 0.20689650000000626,
          "durationTicks": 192,
          "midi": 63,
          "name": "D#4",
          "ticks": 49920,
          "time": 53.79309,
          "velocity": 0.3937007874015748
        },
        {
          "duration": 0.20689649999999915,
          "durationTicks": 192,
          "midi": 67,
          "name": "G4",
          "ticks": 50112,
          "time": 53.999986500000006,
          "velocity": 0.3937007874015748
        },
        {
          "duration": 0.20689649999999915,
          "durationTicks": 192,
          "midi": 74,
          "name": "D5",
          "ticks": 50304,
          "time": 54.206883000000005,
          "velocity": 0.3937007874015748
        },
        {
          "duration": 0.20689649999999915,
          "durationTicks": 192,
          "midi": 63,
          "name": "D#4",
          "ticks": 50496,
          "time": 54.413779500000004,
          "velocity": 0.3937007874015748
        },
        {
          "duration": 0.20689649999999915,
          "durationTicks": 192,
          "midi": 67,
          "name": "G4",
          "ticks": 50688,
          "time": 54.620676,
          "velocity": 0.3937007874015748
        },
        {
          "duration": 0.20689649999999915,
          "durationTicks": 192,
          "midi": 74,
          "name": "D5",
          "ticks": 50880,
          "time": 54.8275725,
          "velocity": 0.3937007874015748
        },
        {
          "duration": 0.20689649999999915,
          "durationTicks": 192,
          "midi": 63,
          "name": "D#4",
          "ticks": 51072,
          "time": 55.034469,
          "velocity": 0.3937007874015748
        },
        {
          "duration": 0.20689649999999915,
          "durationTicks": 192,
          "midi": 67,
          "name": "G4",
          "ticks": 51264,
          "time": 55.2413655,
          "velocity": 0.3937007874015748
        },
        {
          "duration": 0.20689650000000626,
          "durationTicks": 192,
          "midi": 62,
          "name": "D4",
          "ticks": 51456,
          "time": 55.448262,
          "velocity": 0.3937007874015748
        },
        {
          "duration": 0.20689649999999915,
          "durationTicks": 192,
          "midi": 66,
          "name": "F#4",
          "ticks": 51648,
          "time": 55.655158500000006,
          "velocity": 0.3937007874015748
        },
        {
          "duration": 0.20689649999999915,
          "durationTicks": 192,
          "midi": 72,
          "name": "C5",
          "ticks": 51840,
          "time": 55.862055000000005,
          "velocity": 0.3937007874015748
        },
        {
          "duration": 0.20689649999999915,
          "durationTicks": 192,
          "midi": 62,
          "name": "D4",
          "ticks": 52032,
          "time": 56.068951500000004,
          "velocity": 0.3937007874015748
        },
        {
          "duration": 0.20689649999999915,
          "durationTicks": 192,
          "midi": 66,
          "name": "F#4",
          "ticks": 52224,
          "time": 56.275848,
          "velocity": 0.3937007874015748
        },
        {
          "duration": 0.20689649999999915,
          "durationTicks": 192,
          "midi": 72,
          "name": "C5",
          "ticks": 52416,
          "time": 56.4827445,
          "velocity": 0.3937007874015748
        },
        {
          "duration": 0.20689649999999915,
          "durationTicks": 192,
          "midi": 75,
          "name": "D#5",
          "ticks": 52608,
          "time": 56.689641,
          "velocity": 0.3937007874015748
        },
        {
          "duration": 0.20689649999999915,
          "durationTicks": 192,
          "midi": 74,
          "name": "D5",
          "ticks": 52800,
          "time": 56.8965375,
          "velocity": 0.3937007874015748
        },
        {
          "duration": 0.20689650000000626,
          "durationTicks": 192,
          "midi": 67,
          "name": "G4",
          "ticks": 52992,
          "time": 57.103434,
          "velocity": 0.3937007874015748
        },
        {
          "duration": 0.20689649999999915,
          "durationTicks": 192,
          "midi": 70,
          "name": "A#4",
          "ticks": 53184,
          "time": 57.310330500000006,
          "velocity": 0.3937007874015748
        },
        {
          "duration": 0.20689649999999915,
          "durationTicks": 192,
          "midi": 77,
          "name": "F5",
          "ticks": 53376,
          "time": 57.517227000000005,
          "velocity": 0.3937007874015748
        },
        {
          "duration": 0.20689649999999915,
          "durationTicks": 192,
          "midi": 67,
          "name": "G4",
          "ticks": 53568,
          "time": 57.724123500000005,
          "velocity": 0.3937007874015748
        },
        {
          "duration": 0.20689649999999915,
          "durationTicks": 192,
          "midi": 70,
          "name": "A#4",
          "ticks": 53760,
          "time": 57.931020000000004,
          "velocity": 0.3937007874015748
        },
        {
          "duration": 0.20689649999999915,
          "durationTicks": 192,
          "midi": 77,
          "name": "F5",
          "ticks": 53952,
          "time": 58.1379165,
          "velocity": 0.3937007874015748
        },
        {
          "duration": 0.20689649999999915,
          "durationTicks": 192,
          "midi": 75,
          "name": "D#5",
          "ticks": 54144,
          "time": 58.344813,
          "velocity": 0.3937007874015748
        },
        {
          "duration": 0.20689649999999915,
          "durationTicks": 192,
          "midi": 74,
          "name": "D5",
          "ticks": 54336,
          "time": 58.5517095,
          "velocity": 0.3937007874015748
        },
        {
          "duration": 0.20689650000000626,
          "durationTicks": 192,
          "midi": 65,
          "name": "F4",
          "ticks": 54528,
          "time": 58.758606,
          "velocity": 0.3937007874015748
        },
        {
          "duration": 0.20689649999999915,
          "durationTicks": 192,
          "midi": 69,
          "name": "A4",
          "ticks": 54720,
          "time": 58.96550250000001,
          "velocity": 0.3937007874015748
        },
        {
          "duration": 0.20689649999999915,
          "durationTicks": 192,
          "midi": 75,
          "name": "D#5",
          "ticks": 54912,
          "time": 59.172399000000006,
          "velocity": 0.3937007874015748
        },
        {
          "duration": 0.20689649999999915,
          "durationTicks": 192,
          "midi": 65,
          "name": "F4",
          "ticks": 55104,
          "time": 59.379295500000005,
          "velocity": 0.3937007874015748
        },
        {
          "duration": 0.20689649999999915,
          "durationTicks": 192,
          "midi": 75,
          "name": "D#5",
          "ticks": 55296,
          "time": 59.586192000000004,
          "velocity": 0.3937007874015748
        },
        {
          "duration": 0.20689649999999915,
          "durationTicks": 192,
          "midi": 74,
          "name": "D5",
          "ticks": 55488,
          "time": 59.7930885,
          "velocity": 0.3937007874015748
        },
        {
          "duration": 0.20689649999999915,
          "durationTicks": 192,
          "midi": 72,
          "name": "C5",
          "ticks": 55680,
          "time": 59.999985,
          "velocity": 0.3937007874015748
        },
        {
          "duration": 0.20689649999999915,
          "durationTicks": 192,
          "midi": 74,
          "name": "D5",
          "ticks": 55872,
          "time": 60.2068815,
          "velocity": 0.3937007874015748
        },
        {
          "duration": 0.20689649999999915,
          "durationTicks": 192,
          "midi": 63,
          "name": "D#4",
          "ticks": 56064,
          "time": 60.413778,
          "velocity": 0.3937007874015748
        },
        {
          "duration": 0.20689650000000626,
          "durationTicks": 192,
          "midi": 67,
          "name": "G4",
          "ticks": 56256,
          "time": 60.6206745,
          "velocity": 0.3937007874015748
        },
        {
          "duration": 0.20689649999999915,
          "durationTicks": 192,
          "midi": 74,
          "name": "D5",
          "ticks": 56448,
          "time": 60.827571000000006,
          "velocity": 0.3937007874015748
        },
        {
          "duration": 0.20689649999999915,
          "durationTicks": 192,
          "midi": 63,
          "name": "D#4",
          "ticks": 56640,
          "time": 61.034467500000005,
          "velocity": 0.3937007874015748
        },
        {
          "duration": 0.20689649999999915,
          "durationTicks": 192,
          "midi": 67,
          "name": "G4",
          "ticks": 56832,
          "time": 61.241364000000004,
          "velocity": 0.3937007874015748
        },
        {
          "duration": 0.20689649999999915,
          "durationTicks": 192,
          "midi": 74,
          "name": "D5",
          "ticks": 57024,
          "time": 61.4482605,
          "velocity": 0.3937007874015748
        },
        {
          "duration": 0.20689649999999915,
          "durationTicks": 192,
          "midi": 63,
          "name": "D#4",
          "ticks": 57216,
          "time": 61.655157,
          "velocity": 0.3937007874015748
        },
        {
          "duration": 0.20689649999999915,
          "durationTicks": 192,
          "midi": 67,
          "name": "G4",
          "ticks": 57408,
          "time": 61.8620535,
          "velocity": 0.3937007874015748
        },
        {
          "duration": 0.20689649999999915,
          "durationTicks": 192,
          "midi": 62,
          "name": "D4",
          "ticks": 57600,
          "time": 62.06895,
          "velocity": 0.3937007874015748
        },
        {
          "duration": 0.20689650000000626,
          "durationTicks": 192,
          "midi": 66,
          "name": "F#4",
          "ticks": 57792,
          "time": 62.2758465,
          "velocity": 0.3937007874015748
        },
        {
          "duration": 0.20689649999999915,
          "durationTicks": 192,
          "midi": 72,
          "name": "C5",
          "ticks": 57984,
          "time": 62.482743000000006,
          "velocity": 0.3937007874015748
        },
        {
          "duration": 0.20689649999999915,
          "durationTicks": 192,
          "midi": 62,
          "name": "D4",
          "ticks": 58176,
          "time": 62.689639500000006,
          "velocity": 0.3937007874015748
        },
        {
          "duration": 0.20689649999999915,
          "durationTicks": 192,
          "midi": 66,
          "name": "F#4",
          "ticks": 58368,
          "time": 62.896536000000005,
          "velocity": 0.3937007874015748
        },
        {
          "duration": 0.20689649999999915,
          "durationTicks": 192,
          "midi": 72,
          "name": "C5",
          "ticks": 58560,
          "time": 63.103432500000004,
          "velocity": 0.3937007874015748
        },
        {
          "duration": 0.20689649999999915,
          "durationTicks": 192,
          "midi": 75,
          "name": "D#5",
          "ticks": 58752,
          "time": 63.310329,
          "velocity": 0.3937007874015748
        },
        {
          "duration": 0.20689649999999915,
          "durationTicks": 192,
          "midi": 74,
          "name": "D5",
          "ticks": 58944,
          "time": 63.5172255,
          "velocity": 0.3937007874015748
        },
        {
          "duration": 0.20689649999999915,
          "durationTicks": 192,
          "midi": 67,
          "name": "G4",
          "ticks": 59136,
          "time": 63.724122,
          "velocity": 0.3937007874015748
        },
        {
          "duration": 0.20689650000000626,
          "durationTicks": 192,
          "midi": 70,
          "name": "A#4",
          "ticks": 59328,
          "time": 63.9310185,
          "velocity": 0.3937007874015748
        },
        {
          "duration": 0.20689649999999915,
          "durationTicks": 192,
          "midi": 77,
          "name": "F5",
          "ticks": 59520,
          "time": 64.137915,
          "velocity": 0.3937007874015748
        },
        {
          "duration": 0.20689649999999915,
          "durationTicks": 192,
          "midi": 67,
          "name": "G4",
          "ticks": 59712,
          "time": 64.3448115,
          "velocity": 0.3937007874015748
        },
        {
          "duration": 0.20689649999999915,
          "durationTicks": 192,
          "midi": 70,
          "name": "A#4",
          "ticks": 59904,
          "time": 64.551708,
          "velocity": 0.3937007874015748
        },
        {
          "duration": 0.20689649999999915,
          "durationTicks": 192,
          "midi": 77,
          "name": "F5",
          "ticks": 60096,
          "time": 64.7586045,
          "velocity": 0.3937007874015748
        },
        {
          "duration": 0.20689649999999915,
          "durationTicks": 192,
          "midi": 75,
          "name": "D#5",
          "ticks": 60288,
          "time": 64.965501,
          "velocity": 0.3937007874015748
        },
        {
          "duration": 0.20689649999999915,
          "durationTicks": 192,
          "midi": 74,
          "name": "D5",
          "ticks": 60480,
          "time": 65.1723975,
          "velocity": 0.3937007874015748
        },
        {
          "duration": 0.20689649999999915,
          "durationTicks": 192,
          "midi": 65,
          "name": "F4",
          "ticks": 60672,
          "time": 65.379294,
          "velocity": 0.3937007874015748
        },
        {
          "duration": 0.20689649999999915,
          "durationTicks": 192,
          "midi": 69,
          "name": "A4",
          "ticks": 60864,
          "time": 65.5861905,
          "velocity": 0.3937007874015748
        },
        {
          "duration": 0.20689649999999915,
          "durationTicks": 192,
          "midi": 75,
          "name": "D#5",
          "ticks": 61056,
          "time": 65.793087,
          "velocity": 0.3937007874015748
        },
        {
          "duration": 0.20689649999999915,
          "durationTicks": 192,
          "midi": 65,
          "name": "F4",
          "ticks": 61248,
          "time": 65.9999835,
          "velocity": 0.3937007874015748
        },
        {
          "duration": 0.20689649999999915,
          "durationTicks": 192,
          "midi": 75,
          "name": "D#5",
          "ticks": 61440,
          "time": 66.20688,
          "velocity": 0.3937007874015748
        },
        {
          "duration": 0.20689649999999915,
          "durationTicks": 192,
          "midi": 74,
          "name": "D5",
          "ticks": 61632,
          "time": 66.4137765,
          "velocity": 0.3937007874015748
        },
        {
          "duration": 0.20689650000001336,
          "durationTicks": 192,
          "midi": 72,
          "name": "C5",
          "ticks": 61824,
          "time": 66.620673,
          "velocity": 0.3937007874015748
        },
        {
          "duration": 0.20689649999999915,
          "durationTicks": 192,
          "midi": 74,
          "name": "D5",
          "ticks": 62016,
          "time": 66.82756950000001,
          "velocity": 0.3937007874015748
        },
        {
          "duration": 0.20689649999999915,
          "durationTicks": 192,
          "midi": 63,
          "name": "D#4",
          "ticks": 62208,
          "time": 67.03446600000001,
          "velocity": 0.3937007874015748
        },
        {
          "duration": 0.20689649999999915,
          "durationTicks": 192,
          "midi": 67,
          "name": "G4",
          "ticks": 62400,
          "time": 67.24136250000001,
          "velocity": 0.3937007874015748
        },
        {
          "duration": 0.20689649999999915,
          "durationTicks": 192,
          "midi": 74,
          "name": "D5",
          "ticks": 62592,
          "time": 67.44825900000001,
          "velocity": 0.3937007874015748
        },
        {
          "duration": 0.20689649999999915,
          "durationTicks": 192,
          "midi": 63,
          "name": "D#4",
          "ticks": 62784,
          "time": 67.6551555,
          "velocity": 0.3937007874015748
        },
        {
          "duration": 0.20689649999999915,
          "durationTicks": 192,
          "midi": 67,
          "name": "G4",
          "ticks": 62976,
          "time": 67.862052,
          "velocity": 0.3937007874015748
        },
        {
          "duration": 0.20689649999999915,
          "durationTicks": 192,
          "midi": 74,
          "name": "D5",
          "ticks": 63168,
          "time": 68.0689485,
          "velocity": 0.3937007874015748
        },
        {
          "duration": 0.20689649999999915,
          "durationTicks": 192,
          "midi": 63,
          "name": "D#4",
          "ticks": 63360,
          "time": 68.275845,
          "velocity": 0.3937007874015748
        },
        {
          "duration": 0.20689649999999915,
          "durationTicks": 192,
          "midi": 67,
          "name": "G4",
          "ticks": 63552,
          "time": 68.4827415,
          "velocity": 0.3937007874015748
        },
        {
          "duration": 0.20689649999999915,
          "durationTicks": 192,
          "midi": 62,
          "name": "D4",
          "ticks": 63744,
          "time": 68.689638,
          "velocity": 0.3937007874015748
        },
        {
          "duration": 0.20689649999999915,
          "durationTicks": 192,
          "midi": 66,
          "name": "F#4",
          "ticks": 63936,
          "time": 68.8965345,
          "velocity": 0.3937007874015748
        },
        {
          "duration": 0.20689649999999915,
          "durationTicks": 192,
          "midi": 72,
          "name": "C5",
          "ticks": 64128,
          "time": 69.103431,
          "velocity": 0.3937007874015748
        },
        {
          "duration": 0.20689649999999915,
          "durationTicks": 192,
          "midi": 62,
          "name": "D4",
          "ticks": 64320,
          "time": 69.3103275,
          "velocity": 0.3937007874015748
        },
        {
          "duration": 0.20689649999999915,
          "durationTicks": 192,
          "midi": 66,
          "name": "F#4",
          "ticks": 64512,
          "time": 69.517224,
          "velocity": 0.3937007874015748
        },
        {
          "duration": 0.20689649999999915,
          "durationTicks": 192,
          "midi": 72,
          "name": "C5",
          "ticks": 64704,
          "time": 69.7241205,
          "velocity": 0.3937007874015748
        },
        {
          "duration": 0.20689650000001336,
          "durationTicks": 192,
          "midi": 75,
          "name": "D#5",
          "ticks": 64896,
          "time": 69.931017,
          "velocity": 0.3937007874015748
        },
        {
          "duration": 0.20689649999999915,
          "durationTicks": 192,
          "midi": 74,
          "name": "D5",
          "ticks": 65088,
          "time": 70.13791350000001,
          "velocity": 0.3937007874015748
        },
        {
          "duration": 0.20689649999999915,
          "durationTicks": 192,
          "midi": 67,
          "name": "G4",
          "ticks": 65280,
          "time": 70.34481000000001,
          "velocity": 0.3937007874015748
        },
        {
          "duration": 0.20689649999999915,
          "durationTicks": 192,
          "midi": 70,
          "name": "A#4",
          "ticks": 65472,
          "time": 70.55170650000001,
          "velocity": 0.3937007874015748
        },
        {
          "duration": 0.20689649999999915,
          "durationTicks": 192,
          "midi": 77,
          "name": "F5",
          "ticks": 65664,
          "time": 70.75860300000001,
          "velocity": 0.3937007874015748
        },
        {
          "duration": 0.20689649999999915,
          "durationTicks": 192,
          "midi": 67,
          "name": "G4",
          "ticks": 65856,
          "time": 70.9654995,
          "velocity": 0.3937007874015748
        },
        {
          "duration": 0.20689649999999915,
          "durationTicks": 192,
          "midi": 70,
          "name": "A#4",
          "ticks": 66048,
          "time": 71.172396,
          "velocity": 0.3937007874015748
        },
        {
          "duration": 0.20689649999999915,
          "durationTicks": 192,
          "midi": 77,
          "name": "F5",
          "ticks": 66240,
          "time": 71.3792925,
          "velocity": 0.3937007874015748
        },
        {
          "duration": 0.20689649999999915,
          "durationTicks": 192,
          "midi": 75,
          "name": "D#5",
          "ticks": 66432,
          "time": 71.586189,
          "velocity": 0.3937007874015748
        },
        {
          "duration": 0.20689649999999915,
          "durationTicks": 192,
          "midi": 74,
          "name": "D5",
          "ticks": 66624,
          "time": 71.7930855,
          "velocity": 0.3937007874015748
        },
        {
          "duration": 0.20689649999999915,
          "durationTicks": 192,
          "midi": 65,
          "name": "F4",
          "ticks": 66816,
          "time": 71.999982,
          "velocity": 0.3937007874015748
        },
        {
          "duration": 0.20689649999999915,
          "durationTicks": 192,
          "midi": 69,
          "name": "A4",
          "ticks": 67008,
          "time": 72.2068785,
          "velocity": 0.3937007874015748
        },
        {
          "duration": 0.20689649999999915,
          "durationTicks": 192,
          "midi": 75,
          "name": "D#5",
          "ticks": 67200,
          "time": 72.413775,
          "velocity": 0.3937007874015748
        },
        {
          "duration": 0.20689649999999915,
          "durationTicks": 192,
          "midi": 65,
          "name": "F4",
          "ticks": 67392,
          "time": 72.6206715,
          "velocity": 0.3937007874015748
        },
        {
          "duration": 0.20689649999999915,
          "durationTicks": 192,
          "midi": 75,
          "name": "D#5",
          "ticks": 67584,
          "time": 72.827568,
          "velocity": 0.3937007874015748
        },
        {
          "duration": 0.20689649999999915,
          "durationTicks": 192,
          "midi": 74,
          "name": "D5",
          "ticks": 67776,
          "time": 73.0344645,
          "velocity": 0.3937007874015748
        },
        {
          "duration": 0.20689649999999915,
          "durationTicks": 192,
          "midi": 72,
          "name": "C5",
          "ticks": 67968,
          "time": 73.241361,
          "velocity": 0.3937007874015748
        },
        {
          "duration": 0.20689650000001336,
          "durationTicks": 192,
          "midi": 74,
          "name": "D5",
          "ticks": 68160,
          "time": 73.4482575,
          "velocity": 0.3937007874015748
        },
        {
          "duration": 0.20689649999999915,
          "durationTicks": 192,
          "midi": 63,
          "name": "D#4",
          "ticks": 68352,
          "time": 73.65515400000001,
          "velocity": 0.3937007874015748
        },
        {
          "duration": 0.20689649999999915,
          "durationTicks": 192,
          "midi": 67,
          "name": "G4",
          "ticks": 68544,
          "time": 73.86205050000001,
          "velocity": 0.3937007874015748
        },
        {
          "duration": 0.20689649999999915,
          "durationTicks": 192,
          "midi": 74,
          "name": "D5",
          "ticks": 68736,
          "time": 74.06894700000001,
          "velocity": 0.3937007874015748
        },
        {
          "duration": 0.20689649999999915,
          "durationTicks": 192,
          "midi": 63,
          "name": "D#4",
          "ticks": 68928,
          "time": 74.27584350000001,
          "velocity": 0.3937007874015748
        },
        {
          "duration": 0.20689649999999915,
          "durationTicks": 192,
          "midi": 67,
          "name": "G4",
          "ticks": 69120,
          "time": 74.48274,
          "velocity": 0.3937007874015748
        },
        {
          "duration": 0.20689649999999915,
          "durationTicks": 192,
          "midi": 74,
          "name": "D5",
          "ticks": 69312,
          "time": 74.6896365,
          "velocity": 0.3937007874015748
        },
        {
          "duration": 0.20689649999999915,
          "durationTicks": 192,
          "midi": 63,
          "name": "D#4",
          "ticks": 69504,
          "time": 74.896533,
          "velocity": 0.3937007874015748
        },
        {
          "duration": 0.20689649999999915,
          "durationTicks": 192,
          "midi": 67,
          "name": "G4",
          "ticks": 69696,
          "time": 75.1034295,
          "velocity": 0.3937007874015748
        },
        {
          "duration": 0.20689649999999915,
          "durationTicks": 192,
          "midi": 62,
          "name": "D4",
          "ticks": 69888,
          "time": 75.310326,
          "velocity": 0.3937007874015748
        },
        {
          "duration": 0.20689649999999915,
          "durationTicks": 192,
          "midi": 66,
          "name": "F#4",
          "ticks": 70080,
          "time": 75.5172225,
          "velocity": 0.3937007874015748
        },
        {
          "duration": 0.20689649999999915,
          "durationTicks": 192,
          "midi": 72,
          "name": "C5",
          "ticks": 70272,
          "time": 75.724119,
          "velocity": 0.3937007874015748
        },
        {
          "duration": 0.20689649999999915,
          "durationTicks": 192,
          "midi": 62,
          "name": "D4",
          "ticks": 70464,
          "time": 75.9310155,
          "velocity": 0.3937007874015748
        },
        {
          "duration": 0.20689649999999915,
          "durationTicks": 192,
          "midi": 66,
          "name": "F#4",
          "ticks": 70656,
          "time": 76.137912,
          "velocity": 0.3937007874015748
        },
        {
          "duration": 0.20689649999999915,
          "durationTicks": 192,
          "midi": 72,
          "name": "C5",
          "ticks": 70848,
          "time": 76.3448085,
          "velocity": 0.3937007874015748
        },
        {
          "duration": 0.20689649999999915,
          "durationTicks": 192,
          "midi": 75,
          "name": "D#5",
          "ticks": 71040,
          "time": 76.551705,
          "velocity": 0.3937007874015748
        },
        {
          "duration": 0.20689650000001336,
          "durationTicks": 192,
          "midi": 74,
          "name": "D5",
          "ticks": 71232,
          "time": 76.7586015,
          "velocity": 0.3937007874015748
        },
        {
          "duration": 0.20689649999999915,
          "durationTicks": 192,
          "midi": 67,
          "name": "G4",
          "ticks": 71424,
          "time": 76.96549800000001,
          "velocity": 0.3937007874015748
        },
        {
          "duration": 0.20689649999999915,
          "durationTicks": 192,
          "midi": 70,
          "name": "A#4",
          "ticks": 71616,
          "time": 77.17239450000001,
          "velocity": 0.3937007874015748
        },
        {
          "duration": 0.20689649999999915,
          "durationTicks": 192,
          "midi": 77,
          "name": "F5",
          "ticks": 71808,
          "time": 77.37929100000001,
          "velocity": 0.3937007874015748
        },
        {
          "duration": 0.20689649999999915,
          "durationTicks": 192,
          "midi": 67,
          "name": "G4",
          "ticks": 72000,
          "time": 77.58618750000001,
          "velocity": 0.3937007874015748
        },
        {
          "duration": 0.20689649999999915,
          "durationTicks": 192,
          "midi": 70,
          "name": "A#4",
          "ticks": 72192,
          "time": 77.79308400000001,
          "velocity": 0.3937007874015748
        },
        {
          "duration": 0.20689649999999915,
          "durationTicks": 192,
          "midi": 77,
          "name": "F5",
          "ticks": 72384,
          "time": 77.9999805,
          "velocity": 0.3937007874015748
        },
        {
          "duration": 0.20689649999999915,
          "durationTicks": 192,
          "midi": 75,
          "name": "D#5",
          "ticks": 72576,
          "time": 78.206877,
          "velocity": 0.3937007874015748
        },
        {
          "duration": 0.20689649999999915,
          "durationTicks": 192,
          "midi": 74,
          "name": "D5",
          "ticks": 72768,
          "time": 78.4137735,
          "velocity": 0.3937007874015748
        },
        {
          "duration": 0.20689649999999915,
          "durationTicks": 192,
          "midi": 65,
          "name": "F4",
          "ticks": 72960,
          "time": 78.62067,
          "velocity": 0.3937007874015748
        },
        {
          "duration": 0.20689649999999915,
          "durationTicks": 192,
          "midi": 69,
          "name": "A4",
          "ticks": 73152,
          "time": 78.8275665,
          "velocity": 0.3937007874015748
        },
        {
          "duration": 0.20689649999999915,
          "durationTicks": 192,
          "midi": 75,
          "name": "D#5",
          "ticks": 73344,
          "time": 79.034463,
          "velocity": 0.3937007874015748
        },
        {
          "duration": 0.20689649999999915,
          "durationTicks": 192,
          "midi": 65,
          "name": "F4",
          "ticks": 73536,
          "time": 79.2413595,
          "velocity": 0.3937007874015748
        },
        {
          "duration": 0.20689649999999915,
          "durationTicks": 192,
          "midi": 75,
          "name": "D#5",
          "ticks": 73728,
          "time": 79.448256,
          "velocity": 0.3937007874015748
        },
        {
          "duration": 0.20689649999999915,
          "durationTicks": 192,
          "midi": 74,
          "name": "D5",
          "ticks": 73920,
          "time": 79.6551525,
          "velocity": 0.3937007874015748
        },
        {
          "duration": 0.20689649999999915,
          "durationTicks": 192,
          "midi": 72,
          "name": "C5",
          "ticks": 74112,
          "time": 79.862049,
          "velocity": 0.3937007874015748
        },
        {
          "duration": 0.20689649999999915,
          "durationTicks": 192,
          "midi": 74,
          "name": "D5",
          "ticks": 74304,
          "time": 80.0689455,
          "velocity": 0.3937007874015748
        },
        {
          "duration": 0.20689650000001336,
          "durationTicks": 192,
          "midi": 61,
          "name": "C#4",
          "ticks": 74496,
          "time": 80.275842,
          "velocity": 0.3937007874015748
        },
        {
          "duration": 0.20689649999999915,
          "durationTicks": 192,
          "midi": 65,
          "name": "F4",
          "ticks": 74688,
          "time": 80.48273850000001,
          "velocity": 0.3937007874015748
        },
        {
          "duration": 0.20689649999999915,
          "durationTicks": 192,
          "midi": 72,
          "name": "C5",
          "ticks": 74880,
          "time": 80.68963500000001,
          "velocity": 0.3937007874015748
        },
        {
          "duration": 0.20689649999999915,
          "durationTicks": 192,
          "midi": 61,
          "name": "C#4",
          "ticks": 75072,
          "time": 80.89653150000001,
          "velocity": 0.3937007874015748
        },
        {
          "duration": 0.20689649999999915,
          "durationTicks": 192,
          "midi": 65,
          "name": "F4",
          "ticks": 75264,
          "time": 81.10342800000001,
          "velocity": 0.3937007874015748
        },
        {
          "duration": 0.20689649999999915,
          "durationTicks": 192,
          "midi": 72,
          "name": "C5",
          "ticks": 75456,
          "time": 81.31032450000001,
          "velocity": 0.3937007874015748
        },
        {
          "duration": 0.20689649999999915,
          "durationTicks": 192,
          "midi": 61,
          "name": "C#4",
          "ticks": 75648,
          "time": 81.517221,
          "velocity": 0.3937007874015748
        },
        {
          "duration": 0.20689649999999915,
          "durationTicks": 192,
          "midi": 65,
          "name": "F4",
          "ticks": 75840,
          "time": 81.7241175,
          "velocity": 0.3937007874015748
        },
        {
          "duration": 0.20689649999999915,
          "durationTicks": 192,
          "midi": 60,
          "name": "C4",
          "ticks": 76032,
          "time": 81.931014,
          "velocity": 0.3937007874015748
        },
        {
          "duration": 0.20689649999999915,
          "durationTicks": 192,
          "midi": 64,
          "name": "E4",
          "ticks": 76224,
          "time": 82.1379105,
          "velocity": 0.3937007874015748
        },
        {
          "duration": 0.20689649999999915,
          "durationTicks": 192,
          "midi": 70,
          "name": "A#4",
          "ticks": 76416,
          "time": 82.344807,
          "velocity": 0.3937007874015748
        },
        {
          "duration": 0.20689649999999915,
          "durationTicks": 192,
          "midi": 60,
          "name": "C4",
          "ticks": 76608,
          "time": 82.5517035,
          "velocity": 0.3937007874015748
        },
        {
          "duration": 0.20689649999999915,
          "durationTicks": 192,
          "midi": 64,
          "name": "E4",
          "ticks": 76800,
          "time": 82.7586,
          "velocity": 0.3937007874015748
        },
        {
          "duration": 0.20689649999999915,
          "durationTicks": 192,
          "midi": 70,
          "name": "A#4",
          "ticks": 76992,
          "time": 82.9654965,
          "velocity": 0.3937007874015748
        },
        {
          "duration": 0.20689649999999915,
          "durationTicks": 192,
          "midi": 73,
          "name": "C#5",
          "ticks": 77184,
          "time": 83.172393,
          "velocity": 0.3937007874015748
        },
        {
          "duration": 0.20689649999999915,
          "durationTicks": 192,
          "midi": 72,
          "name": "C5",
          "ticks": 77376,
          "time": 83.3792895,
          "velocity": 0.3937007874015748
        },
        {
          "duration": 0.20689650000001336,
          "durationTicks": 192,
          "midi": 65,
          "name": "F4",
          "ticks": 77568,
          "time": 83.586186,
          "velocity": 0.3937007874015748
        },
        {
          "duration": 0.20689649999999915,
          "durationTicks": 192,
          "midi": 68,
          "name": "G#4",
          "ticks": 77760,
          "time": 83.79308250000001,
          "velocity": 0.3937007874015748
        },
        {
          "duration": 0.20689649999999915,
          "durationTicks": 192,
          "midi": 75,
          "name": "D#5",
          "ticks": 77952,
          "time": 83.99997900000001,
          "velocity": 0.3937007874015748
        },
        {
          "duration": 0.20689649999999915,
          "durationTicks": 192,
          "midi": 65,
          "name": "F4",
          "ticks": 78144,
          "time": 84.20687550000001,
          "velocity": 0.3937007874015748
        },
        {
          "duration": 0.20689649999999915,
          "durationTicks": 192,
          "midi": 68,
          "name": "G#4",
          "ticks": 78336,
          "time": 84.41377200000001,
          "velocity": 0.3937007874015748
        },
        {
          "duration": 0.20689649999999915,
          "durationTicks": 192,
          "midi": 75,
          "name": "D#5",
          "ticks": 78528,
          "time": 84.62066850000001,
          "velocity": 0.3937007874015748
        },
        {
          "duration": 0.20689649999999915,
          "durationTicks": 192,
          "midi": 73,
          "name": "C#5",
          "ticks": 78720,
          "time": 84.827565,
          "velocity": 0.3937007874015748
        },
        {
          "duration": 0.20689649999999915,
          "durationTicks": 192,
          "midi": 72,
          "name": "C5",
          "ticks": 78912,
          "time": 85.0344615,
          "velocity": 0.3937007874015748
        },
        {
          "duration": 0.20689649999999915,
          "durationTicks": 192,
          "midi": 63,
          "name": "D#4",
          "ticks": 79104,
          "time": 85.241358,
          "velocity": 0.3937007874015748
        },
        {
          "duration": 0.20689649999999915,
          "durationTicks": 192,
          "midi": 67,
          "name": "G4",
          "ticks": 79296,
          "time": 85.4482545,
          "velocity": 0.3937007874015748
        },
        {
          "duration": 0.20689649999999915,
          "durationTicks": 192,
          "midi": 73,
          "name": "C#5",
          "ticks": 79488,
          "time": 85.655151,
          "velocity": 0.3937007874015748
        },
        {
          "duration": 0.20689649999999915,
          "durationTicks": 192,
          "midi": 63,
          "name": "D#4",
          "ticks": 79680,
          "time": 85.8620475,
          "velocity": 0.3937007874015748
        },
        {
          "duration": 0.20689649999999915,
          "durationTicks": 192,
          "midi": 73,
          "name": "C#5",
          "ticks": 79872,
          "time": 86.068944,
          "velocity": 0.3937007874015748
        },
        {
          "duration": 0.20689649999999915,
          "durationTicks": 192,
          "midi": 72,
          "name": "C5",
          "ticks": 80064,
          "time": 86.2758405,
          "velocity": 0.3937007874015748
        },
        {
          "duration": 0.20689649999999915,
          "durationTicks": 192,
          "midi": 70,
          "name": "A#4",
          "ticks": 80256,
          "time": 86.482737,
          "velocity": 0.3937007874015748
        },
        {
          "duration": 0.20689649999999915,
          "durationTicks": 192,
          "midi": 72,
          "name": "C5",
          "ticks": 80448,
          "time": 86.6896335,
          "velocity": 0.3937007874015748
        },
        {
          "duration": 0.20689649999999915,
          "durationTicks": 192,
          "midi": 61,
          "name": "C#4",
          "ticks": 80640,
          "time": 86.89653,
          "velocity": 0.3937007874015748
        },
        {
          "duration": 0.20689650000001336,
          "durationTicks": 192,
          "midi": 65,
          "name": "F4",
          "ticks": 80832,
          "time": 87.1034265,
          "velocity": 0.3937007874015748
        },
        {
          "duration": 0.20689649999999915,
          "durationTicks": 192,
          "midi": 72,
          "name": "C5",
          "ticks": 81024,
          "time": 87.31032300000001,
          "velocity": 0.3937007874015748
        },
        {
          "duration": 0.20689649999999915,
          "durationTicks": 192,
          "midi": 61,
          "name": "C#4",
          "ticks": 81216,
          "time": 87.51721950000001,
          "velocity": 0.3937007874015748
        },
        {
          "duration": 0.20689649999999915,
          "durationTicks": 192,
          "midi": 65,
          "name": "F4",
          "ticks": 81408,
          "time": 87.72411600000001,
          "velocity": 0.3937007874015748
        },
        {
          "duration": 0.20689649999999915,
          "durationTicks": 192,
          "midi": 72,
          "name": "C5",
          "ticks": 81600,
          "time": 87.93101250000001,
          "velocity": 0.3937007874015748
        },
        {
          "duration": 0.20689649999999915,
          "durationTicks": 192,
          "midi": 61,
          "name": "C#4",
          "ticks": 81792,
          "time": 88.13790900000001,
          "velocity": 0.3937007874015748
        },
        {
          "duration": 0.20689649999999915,
          "durationTicks": 192,
          "midi": 65,
          "name": "F4",
          "ticks": 81984,
          "time": 88.3448055,
          "velocity": 0.3937007874015748
        },
        {
          "duration": 0.20689649999999915,
          "durationTicks": 192,
          "midi": 60,
          "name": "C4",
          "ticks": 82176,
          "time": 88.551702,
          "velocity": 0.3937007874015748
        },
        {
          "duration": 0.20689649999999915,
          "durationTicks": 192,
          "midi": 64,
          "name": "E4",
          "ticks": 82368,
          "time": 88.7585985,
          "velocity": 0.3937007874015748
        },
        {
          "duration": 0.20689649999999915,
          "durationTicks": 192,
          "midi": 70,
          "name": "A#4",
          "ticks": 82560,
          "time": 88.965495,
          "velocity": 0.3937007874015748
        },
        {
          "duration": 0.20689649999999915,
          "durationTicks": 192,
          "midi": 60,
          "name": "C4",
          "ticks": 82752,
          "time": 89.1723915,
          "velocity": 0.3937007874015748
        },
        {
          "duration": 0.20689649999999915,
          "durationTicks": 192,
          "midi": 64,
          "name": "E4",
          "ticks": 82944,
          "time": 89.379288,
          "velocity": 0.3937007874015748
        },
        {
          "duration": 0.20689649999999915,
          "durationTicks": 192,
          "midi": 70,
          "name": "A#4",
          "ticks": 83136,
          "time": 89.5861845,
          "velocity": 0.3937007874015748
        },
        {
          "duration": 0.20689649999999915,
          "durationTicks": 192,
          "midi": 73,
          "name": "C#5",
          "ticks": 83328,
          "time": 89.793081,
          "velocity": 0.3937007874015748
        },
        {
          "duration": 0.20689649999999915,
          "durationTicks": 192,
          "midi": 72,
          "name": "C5",
          "ticks": 83520,
          "time": 89.9999775,
          "velocity": 0.3937007874015748
        },
        {
          "duration": 0.20689649999999915,
          "durationTicks": 192,
          "midi": 65,
          "name": "F4",
          "ticks": 83712,
          "time": 90.206874,
          "velocity": 0.3937007874015748
        },
        {
          "duration": 0.20689650000001336,
          "durationTicks": 192,
          "midi": 68,
          "name": "G#4",
          "ticks": 83904,
          "time": 90.4137705,
          "velocity": 0.3937007874015748
        },
        {
          "duration": 0.20689649999999915,
          "durationTicks": 192,
          "midi": 75,
          "name": "D#5",
          "ticks": 84096,
          "time": 90.62066700000001,
          "velocity": 0.3937007874015748
        },
        {
          "duration": 0.20689649999999915,
          "durationTicks": 192,
          "midi": 65,
          "name": "F4",
          "ticks": 84288,
          "time": 90.82756350000001,
          "velocity": 0.3937007874015748
        },
        {
          "duration": 0.20689649999999915,
          "durationTicks": 192,
          "midi": 68,
          "name": "G#4",
          "ticks": 84480,
          "time": 91.03446000000001,
          "velocity": 0.3937007874015748
        },
        {
          "duration": 0.20689649999999915,
          "durationTicks": 192,
          "midi": 75,
          "name": "D#5",
          "ticks": 84672,
          "time": 91.24135650000001,
          "velocity": 0.3937007874015748
        },
        {
          "duration": 0.20689649999999915,
          "durationTicks": 192,
          "midi": 73,
          "name": "C#5",
          "ticks": 84864,
          "time": 91.44825300000001,
          "velocity": 0.3937007874015748
        },
        {
          "duration": 0.20689649999999915,
          "durationTicks": 192,
          "midi": 72,
          "name": "C5",
          "ticks": 85056,
          "time": 91.65514950000001,
          "velocity": 0.3937007874015748
        },
        {
          "duration": 0.20689649999999915,
          "durationTicks": 192,
          "midi": 63,
          "name": "D#4",
          "ticks": 85248,
          "time": 91.862046,
          "velocity": 0.3937007874015748
        },
        {
          "duration": 0.20689649999999915,
          "durationTicks": 192,
          "midi": 67,
          "name": "G4",
          "ticks": 85440,
          "time": 92.0689425,
          "velocity": 0.3937007874015748
        },
        {
          "duration": 0.20689649999999915,
          "durationTicks": 192,
          "midi": 73,
          "name": "C#5",
          "ticks": 85632,
          "time": 92.275839,
          "velocity": 0.3937007874015748
        },
        {
          "duration": 0.20689649999999915,
          "durationTicks": 192,
          "midi": 63,
          "name": "D#4",
          "ticks": 85824,
          "time": 92.4827355,
          "velocity": 0.3937007874015748
        },
        {
          "duration": 0.20689649999999915,
          "durationTicks": 192,
          "midi": 73,
          "name": "C#5",
          "ticks": 86016,
          "time": 92.689632,
          "velocity": 0.3937007874015748
        },
        {
          "duration": 0.20689649999999915,
          "durationTicks": 192,
          "midi": 72,
          "name": "C5",
          "ticks": 86208,
          "time": 92.8965285,
          "velocity": 0.3937007874015748
        },
        {
          "duration": 0.20689649999999915,
          "durationTicks": 192,
          "midi": 70,
          "name": "A#4",
          "ticks": 86400,
          "time": 93.103425,
          "velocity": 0.3937007874015748
        },
        {
          "duration": 0.20689649999999915,
          "durationTicks": 192,
          "midi": 72,
          "name": "C5",
          "ticks": 86592,
          "time": 93.3103215,
          "velocity": 0.3937007874015748
        },
        {
          "duration": 0.20689649999999915,
          "durationTicks": 192,
          "midi": 61,
          "name": "C#4",
          "ticks": 86784,
          "time": 93.517218,
          "velocity": 0.3937007874015748
        },
        {
          "duration": 0.20689649999999915,
          "durationTicks": 192,
          "midi": 65,
          "name": "F4",
          "ticks": 86976,
          "time": 93.7241145,
          "velocity": 0.3937007874015748
        },
        {
          "duration": 0.20689650000001336,
          "durationTicks": 192,
          "midi": 72,
          "name": "C5",
          "ticks": 87168,
          "time": 93.931011,
          "velocity": 0.3937007874015748
        },
        {
          "duration": 0.20689649999999915,
          "durationTicks": 192,
          "midi": 61,
          "name": "C#4",
          "ticks": 87360,
          "time": 94.13790750000001,
          "velocity": 0.3937007874015748
        },
        {
          "duration": 0.20689649999999915,
          "durationTicks": 192,
          "midi": 65,
          "name": "F4",
          "ticks": 87552,
          "time": 94.34480400000001,
          "velocity": 0.3937007874015748
        },
        {
          "duration": 0.20689649999999915,
          "durationTicks": 192,
          "midi": 72,
          "name": "C5",
          "ticks": 87744,
          "time": 94.55170050000001,
          "velocity": 0.3937007874015748
        },
        {
          "duration": 0.20689649999999915,
          "durationTicks": 192,
          "midi": 61,
          "name": "C#4",
          "ticks": 87936,
          "time": 94.75859700000001,
          "velocity": 0.3937007874015748
        },
        {
          "duration": 0.20689649999999915,
          "durationTicks": 192,
          "midi": 65,
          "name": "F4",
          "ticks": 88128,
          "time": 94.96549350000001,
          "velocity": 0.3937007874015748
        },
        {
          "duration": 0.20689649999999915,
          "durationTicks": 192,
          "midi": 60,
          "name": "C4",
          "ticks": 88320,
          "time": 95.17239000000001,
          "velocity": 0.3937007874015748
        },
        {
          "duration": 0.20689649999999915,
          "durationTicks": 192,
          "midi": 64,
          "name": "E4",
          "ticks": 88512,
          "time": 95.3792865,
          "velocity": 0.3937007874015748
        },
        {
          "duration": 0.20689649999999915,
          "durationTicks": 192,
          "midi": 70,
          "name": "A#4",
          "ticks": 88704,
          "time": 95.586183,
          "velocity": 0.3937007874015748
        },
        {
          "duration": 0.20689649999999915,
          "durationTicks": 192,
          "midi": 60,
          "name": "C4",
          "ticks": 88896,
          "time": 95.7930795,
          "velocity": 0.3937007874015748
        },
        {
          "duration": 0.20689649999999915,
          "durationTicks": 192,
          "midi": 64,
          "name": "E4",
          "ticks": 89088,
          "time": 95.999976,
          "velocity": 0.3937007874015748
        },
        {
          "duration": 0.20689649999999915,
          "durationTicks": 192,
          "midi": 70,
          "name": "A#4",
          "ticks": 89280,
          "time": 96.2068725,
          "velocity": 0.3937007874015748
        },
        {
          "duration": 0.20689649999999915,
          "durationTicks": 192,
          "midi": 73,
          "name": "C#5",
          "ticks": 89472,
          "time": 96.413769,
          "velocity": 0.3937007874015748
        },
        {
          "duration": 0.20689649999999915,
          "durationTicks": 192,
          "midi": 72,
          "name": "C5",
          "ticks": 89664,
          "time": 96.6206655,
          "velocity": 0.3937007874015748
        },
        {
          "duration": 0.20689649999999915,
          "durationTicks": 192,
          "midi": 65,
          "name": "F4",
          "ticks": 89856,
          "time": 96.827562,
          "velocity": 0.3937007874015748
        },
        {
          "duration": 0.20689649999999915,
          "durationTicks": 192,
          "midi": 68,
          "name": "G#4",
          "ticks": 90048,
          "time": 97.0344585,
          "velocity": 0.3937007874015748
        },
        {
          "duration": 0.20689650000001336,
          "durationTicks": 192,
          "midi": 75,
          "name": "D#5",
          "ticks": 90240,
          "time": 97.241355,
          "velocity": 0.3937007874015748
        },
        {
          "duration": 0.20689649999999915,
          "durationTicks": 192,
          "midi": 65,
          "name": "F4",
          "ticks": 90432,
          "time": 97.44825150000001,
          "velocity": 0.3937007874015748
        },
        {
          "duration": 0.20689649999999915,
          "durationTicks": 192,
          "midi": 68,
          "name": "G#4",
          "ticks": 90624,
          "time": 97.65514800000001,
          "velocity": 0.3937007874015748
        },
        {
          "duration": 0.20689649999999915,
          "durationTicks": 192,
          "midi": 75,
          "name": "D#5",
          "ticks": 90816,
          "time": 97.86204450000001,
          "velocity": 0.3937007874015748
        },
        {
          "duration": 0.20689649999999915,
          "durationTicks": 192,
          "midi": 73,
          "name": "C#5",
          "ticks": 91008,
          "time": 98.06894100000001,
          "velocity": 0.3937007874015748
        },
        {
          "duration": 0.20689649999999915,
          "durationTicks": 192,
          "midi": 72,
          "name": "C5",
          "ticks": 91200,
          "time": 98.27583750000001,
          "velocity": 0.3937007874015748
        },
        {
          "duration": 0.20689649999999915,
          "durationTicks": 192,
          "midi": 63,
          "name": "D#4",
          "ticks": 91392,
          "time": 98.48273400000001,
          "velocity": 0.3937007874015748
        },
        {
          "duration": 0.20689649999999915,
          "durationTicks": 192,
          "midi": 67,
          "name": "G4",
          "ticks": 91584,
          "time": 98.6896305,
          "velocity": 0.3937007874015748
        },
        {
          "duration": 0.20689649999999915,
          "durationTicks": 192,
          "midi": 73,
          "name": "C#5",
          "ticks": 91776,
          "time": 98.896527,
          "velocity": 0.3937007874015748
        },
        {
          "duration": 0.20689649999999915,
          "durationTicks": 192,
          "midi": 63,
          "name": "D#4",
          "ticks": 91968,
          "time": 99.1034235,
          "velocity": 0.3937007874015748
        },
        {
          "duration": 0.20689649999999915,
          "durationTicks": 192,
          "midi": 73,
          "name": "C#5",
          "ticks": 92160,
          "time": 99.31032,
          "velocity": 0.3937007874015748
        },
        {
          "duration": 0.20689649999999915,
          "durationTicks": 192,
          "midi": 72,
          "name": "C5",
          "ticks": 92352,
          "time": 99.5172165,
          "velocity": 0.3937007874015748
        },
        {
          "duration": 0.20689649999999915,
          "durationTicks": 192,
          "midi": 70,
          "name": "A#4",
          "ticks": 92544,
          "time": 99.724113,
          "velocity": 0.3937007874015748
        },
        {
          "duration": 0.20689649999999915,
          "durationTicks": 192,
          "midi": 72,
          "name": "C5",
          "ticks": 92736,
          "time": 99.9310095,
          "velocity": 0.3937007874015748
        },
        {
          "duration": 0.20689649999999915,
          "durationTicks": 192,
          "midi": 61,
          "name": "C#4",
          "ticks": 92928,
          "time": 100.137906,
          "velocity": 0.3937007874015748
        },
        {
          "duration": 0.20689649999999915,
          "durationTicks": 192,
          "midi": 65,
          "name": "F4",
          "ticks": 93120,
          "time": 100.3448025,
          "velocity": 0.3937007874015748
        },
        {
          "duration": 0.20689649999999915,
          "durationTicks": 192,
          "midi": 72,
          "name": "C5",
          "ticks": 93312,
          "time": 100.551699,
          "velocity": 0.3937007874015748
        },
        {
          "duration": 0.20689650000001336,
          "durationTicks": 192,
          "midi": 61,
          "name": "C#4",
          "ticks": 93504,
          "time": 100.7585955,
          "velocity": 0.3937007874015748
        },
        {
          "duration": 0.20689649999999915,
          "durationTicks": 192,
          "midi": 65,
          "name": "F4",
          "ticks": 93696,
          "time": 100.96549200000001,
          "velocity": 0.3937007874015748
        },
        {
          "duration": 0.20689649999999915,
          "durationTicks": 192,
          "midi": 72,
          "name": "C5",
          "ticks": 93888,
          "time": 101.17238850000001,
          "velocity": 0.3937007874015748
        },
        {
          "duration": 0.20689649999999915,
          "durationTicks": 192,
          "midi": 61,
          "name": "C#4",
          "ticks": 94080,
          "time": 101.37928500000001,
          "velocity": 0.3937007874015748
        },
        {
          "duration": 0.20689649999999915,
          "durationTicks": 192,
          "midi": 65,
          "name": "F4",
          "ticks": 94272,
          "time": 101.58618150000001,
          "velocity": 0.3937007874015748
        },
        {
          "duration": 0.20689649999999915,
          "durationTicks": 192,
          "midi": 60,
          "name": "C4",
          "ticks": 94464,
          "time": 101.79307800000001,
          "velocity": 0.3937007874015748
        },
        {
          "duration": 0.20689649999999915,
          "durationTicks": 192,
          "midi": 64,
          "name": "E4",
          "ticks": 94656,
          "time": 101.99997450000001,
          "velocity": 0.3937007874015748
        },
        {
          "duration": 0.20689649999999915,
          "durationTicks": 192,
          "midi": 70,
          "name": "A#4",
          "ticks": 94848,
          "time": 102.206871,
          "velocity": 0.3937007874015748
        },
        {
          "duration": 0.20689649999999915,
          "durationTicks": 192,
          "midi": 60,
          "name": "C4",
          "ticks": 95040,
          "time": 102.4137675,
          "velocity": 0.3937007874015748
        },
        {
          "duration": 0.20689649999999915,
          "durationTicks": 192,
          "midi": 64,
          "name": "E4",
          "ticks": 95232,
          "time": 102.620664,
          "velocity": 0.3937007874015748
        },
        {
          "duration": 0.20689649999999915,
          "durationTicks": 192,
          "midi": 70,
          "name": "A#4",
          "ticks": 95424,
          "time": 102.8275605,
          "velocity": 0.3937007874015748
        },
        {
          "duration": 0.20689649999999915,
          "durationTicks": 192,
          "midi": 73,
          "name": "C#5",
          "ticks": 95616,
          "time": 103.034457,
          "velocity": 0.3937007874015748
        },
        {
          "duration": 0.20689649999999915,
          "durationTicks": 192,
          "midi": 72,
          "name": "C5",
          "ticks": 95808,
          "time": 103.2413535,
          "velocity": 0.3937007874015748
        },
        {
          "duration": 0.20689649999999915,
          "durationTicks": 192,
          "midi": 65,
          "name": "F4",
          "ticks": 96000,
          "time": 103.44825,
          "velocity": 0.3937007874015748
        },
        {
          "duration": 0.20689649999999915,
          "durationTicks": 192,
          "midi": 68,
          "name": "G#4",
          "ticks": 96192,
          "time": 103.6551465,
          "velocity": 0.3937007874015748
        },
        {
          "duration": 0.20689649999999915,
          "durationTicks": 192,
          "midi": 75,
          "name": "D#5",
          "ticks": 96384,
          "time": 103.862043,
          "velocity": 0.3937007874015748
        },
        {
          "duration": 0.20689650000001336,
          "durationTicks": 192,
          "midi": 65,
          "name": "F4",
          "ticks": 96576,
          "time": 104.0689395,
          "velocity": 0.3937007874015748
        },
        {
          "duration": 0.20689649999999915,
          "durationTicks": 192,
          "midi": 68,
          "name": "G#4",
          "ticks": 96768,
          "time": 104.27583600000001,
          "velocity": 0.3937007874015748
        },
        {
          "duration": 0.20689649999999915,
          "durationTicks": 192,
          "midi": 75,
          "name": "D#5",
          "ticks": 96960,
          "time": 104.48273250000001,
          "velocity": 0.3937007874015748
        },
        {
          "duration": 0.20689649999999915,
          "durationTicks": 192,
          "midi": 73,
          "name": "C#5",
          "ticks": 97152,
          "time": 104.68962900000001,
          "velocity": 0.3937007874015748
        },
        {
          "duration": 0.20689649999999915,
          "durationTicks": 192,
          "midi": 72,
          "name": "C5",
          "ticks": 97344,
          "time": 104.89652550000001,
          "velocity": 0.3937007874015748
        },
        {
          "duration": 0.20689649999999915,
          "durationTicks": 192,
          "midi": 63,
          "name": "D#4",
          "ticks": 97536,
          "time": 105.10342200000001,
          "velocity": 0.3937007874015748
        },
        {
          "duration": 0.20689649999999915,
          "durationTicks": 192,
          "midi": 67,
          "name": "G4",
          "ticks": 97728,
          "time": 105.31031850000001,
          "velocity": 0.3937007874015748
        },
        {
          "duration": 0.20689649999999915,
          "durationTicks": 192,
          "midi": 73,
          "name": "C#5",
          "ticks": 97920,
          "time": 105.51721500000001,
          "velocity": 0.3937007874015748
        },
        {
          "duration": 0.20689649999999915,
          "durationTicks": 192,
          "midi": 63,
          "name": "D#4",
          "ticks": 98112,
          "time": 105.7241115,
          "velocity": 0.3937007874015748
        },
        {
          "duration": 0.20689649999999915,
          "durationTicks": 192,
          "midi": 73,
          "name": "C#5",
          "ticks": 98304,
          "time": 105.931008,
          "velocity": 0.3937007874015748
        },
        {
          "duration": 0.20689649999999915,
          "durationTicks": 192,
          "midi": 72,
          "name": "C5",
          "ticks": 98496,
          "time": 106.1379045,
          "velocity": 0.3937007874015748
        },
        {
          "duration": 0.20689649999999915,
          "durationTicks": 192,
          "midi": 70,
          "name": "A#4",
          "ticks": 98688,
          "time": 106.344801,
          "velocity": 0.3937007874015748
        },
        {
          "duration": 0.20689649999999915,
          "durationTicks": 192,
          "midi": 72,
          "name": "C5",
          "ticks": 98880,
          "time": 106.5516975,
          "velocity": 0.3937007874015748
        },
        {
          "duration": 0.4137929999999983,
          "durationTicks": 384,
          "midi": 61,
          "name": "C#4",
          "ticks": 99072,
          "time": 106.758594,
          "velocity": 0.3937007874015748
        },
        {
          "duration": 0.10344824999999958,
          "durationTicks": 96,
          "midi": 61,
          "name": "C#4",
          "ticks": 99456,
          "time": 107.172387,
          "velocity": 0.3937007874015748
        },
        {
          "duration": 0.10344824999999958,
          "durationTicks": 96,
          "midi": 73,
          "name": "C#5",
          "ticks": 99552,
          "time": 107.27583525,
          "velocity": 0.3937007874015748
        },
        {
          "duration": 0.10344824999999958,
          "durationTicks": 96,
          "midi": 61,
          "name": "C#4",
          "ticks": 99648,
          "time": 107.3792835,
          "velocity": 0.3937007874015748
        },
        {
          "duration": 0.10344824999999958,
          "durationTicks": 96,
          "midi": 70,
          "name": "A#4",
          "ticks": 99744,
          "time": 107.48273175,
          "velocity": 0.3937007874015748
        },
        {
          "duration": 0.10344825000001379,
          "durationTicks": 96,
          "midi": 73,
          "name": "C#5",
          "ticks": 99840,
          "time": 107.58618,
          "velocity": 0.3937007874015748
        },
        {
          "duration": 0.10344824999999958,
          "durationTicks": 96,
          "midi": 70,
          "name": "A#4",
          "ticks": 99936,
          "time": 107.68962825000001,
          "velocity": 0.3937007874015748
        },
        {
          "duration": 0.10344824999999958,
          "durationTicks": 96,
          "midi": 68,
          "name": "G#4",
          "ticks": 100032,
          "time": 107.79307650000001,
          "velocity": 0.3937007874015748
        },
        {
          "duration": 0.10344824999999958,
          "durationTicks": 96,
          "midi": 68,
          "name": "G#4",
          "ticks": 100224,
          "time": 107.99997300000001,
          "velocity": 0.3937007874015748
        },
        {
          "duration": 0.10344824999999958,
          "durationTicks": 96,
          "midi": 70,
          "name": "A#4",
          "ticks": 100320,
          "time": 108.10342125000001,
          "velocity": 0.3937007874015748
        },
        {
          "duration": 0.10344824999999958,
          "durationTicks": 96,
          "midi": 72,
          "name": "C5",
          "ticks": 100416,
          "time": 108.20686950000001,
          "velocity": 0.3937007874015748
        },
        {
          "duration": 0.10344824999999958,
          "durationTicks": 96,
          "midi": 60,
          "name": "C4",
          "ticks": 100608,
          "time": 108.41376600000001,
          "velocity": 0.3937007874015748
        },
        {
          "duration": 0.10344824999999958,
          "durationTicks": 96,
          "midi": 60,
          "name": "C4",
          "ticks": 100800,
          "time": 108.62066250000001,
          "velocity": 0.3937007874015748
        },
        {
          "duration": 0.10344824999999958,
          "durationTicks": 96,
          "midi": 72,
          "name": "C5",
          "ticks": 100896,
          "time": 108.72411075000001,
          "velocity": 0.3937007874015748
        },
        {
          "duration": 0.10344824999999958,
          "durationTicks": 96,
          "midi": 72,
          "name": "C5",
          "ticks": 101088,
          "time": 108.93100725000001,
          "velocity": 0.3937007874015748
        },
        {
          "duration": 0.4137929999999983,
          "durationTicks": 384,
          "midi": 60,
          "name": "C4",
          "ticks": 101184,
          "time": 109.0344555,
          "velocity": 0.3937007874015748
        },
        {
          "duration": 0.20689649999999915,
          "durationTicks": 192,
          "midi": 70,
          "name": "A#4",
          "ticks": 101568,
          "time": 109.4482485,
          "velocity": 0.3937007874015748
        },
        {
          "duration": 0.20689649999999915,
          "durationTicks": 192,
          "midi": 71,
          "name": "B4",
          "ticks": 101760,
          "time": 109.655145,
          "velocity": 0.3937007874015748
        },
        {
          "duration": 0.20689649999999915,
          "durationTicks": 192,
          "midi": 72,
          "name": "C5",
          "ticks": 101952,
          "time": 109.8620415,
          "velocity": 0.3937007874015748
        },
        {
          "duration": 0.3103447499999987,
          "durationTicks": 288,
          "midi": 65,
          "name": "F4",
          "ticks": 102144,
          "time": 110.068938,
          "velocity": 0.3937007874015748
        },
        {
          "duration": 0.10344824999999958,
          "durationTicks": 96,
          "midi": 65,
          "name": "F4",
          "ticks": 102432,
          "time": 110.37928275,
          "velocity": 0.3937007874015748
        },
        {
          "duration": 0.10344824999999958,
          "durationTicks": 96,
          "midi": 77,
          "name": "F5",
          "ticks": 102528,
          "time": 110.482731,
          "velocity": 0.3937007874015748
        },
        {
          "duration": 0.10344824999999958,
          "durationTicks": 96,
          "midi": 65,
          "name": "F4",
          "ticks": 102624,
          "time": 110.58617925,
          "velocity": 0.3937007874015748
        },
        {
          "duration": 0.10344824999999958,
          "durationTicks": 96,
          "midi": 65,
          "name": "F4",
          "ticks": 102816,
          "time": 110.79307575,
          "velocity": 0.3937007874015748
        },
        {
          "duration": 0.20689650000001336,
          "durationTicks": 192,
          "midi": 80,
          "name": "G#5",
          "ticks": 102912,
          "time": 110.896524,
          "velocity": 0.3937007874015748
        },
        {
          "duration": 0.20689649999999915,
          "durationTicks": 192,
          "midi": 79,
          "name": "G5",
          "ticks": 103104,
          "time": 111.10342050000001,
          "velocity": 0.3937007874015748
        },
        {
          "duration": 0.10344824999999958,
          "durationTicks": 96,
          "midi": 77,
          "name": "F5",
          "ticks": 103296,
          "time": 111.31031700000001,
          "velocity": 0.3937007874015748
        },
        {
          "duration": 0.10344824999999958,
          "durationTicks": 96,
          "midi": 79,
          "name": "G5",
          "ticks": 103392,
          "time": 111.41376525000001,
          "velocity": 0.3937007874015748
        },
        {
          "duration": 0.10344824999999958,
          "durationTicks": 96,
          "midi": 80,
          "name": "G#5",
          "ticks": 103440,
          "time": 111.465489375,
          "velocity": 0.3937007874015748
        },
        {
          "duration": 0.20689649999999915,
          "durationTicks": 192,
          "midi": 75,
          "name": "D#5",
          "ticks": 103488,
          "time": 111.51721350000001,
          "velocity": 0.3937007874015748
        },
        {
          "duration": 0.3103447499999987,
          "durationTicks": 288,
          "midi": 63,
          "name": "D#4",
          "ticks": 103680,
          "time": 111.72411000000001,
          "velocity": 0.3937007874015748
        },
        {
          "duration": 0.10344824999999958,
          "durationTicks": 96,
          "midi": 63,
          "name": "D#4",
          "ticks": 103968,
          "time": 112.03445475000001,
          "velocity": 0.3937007874015748
        },
        {
          "duration": 0.20689649999999915,
          "durationTicks": 192,
          "midi": 75,
          "name": "D#5",
          "ticks": 104064,
          "time": 112.13790300000001,
          "velocity": 0.3937007874015748
        },
        {
          "duration": 0.20689649999999915,
          "durationTicks": 192,
          "midi": 63,
          "name": "D#4",
          "ticks": 104256,
          "time": 112.34479950000001,
          "velocity": 0.3937007874015748
        },
        {
          "duration": 0.20689649999999915,
          "durationTicks": 192,
          "midi": 75,
          "name": "D#5",
          "ticks": 104448,
          "time": 112.551696,
          "velocity": 0.3937007874015748
        },
        {
          "duration": 0.20689649999999915,
          "durationTicks": 192,
          "midi": 73,
          "name": "C#5",
          "ticks": 104640,
          "time": 112.7585925,
          "velocity": 0.3937007874015748
        },
        {
          "duration": 0.20689649999999915,
          "durationTicks": 192,
          "midi": 72,
          "name": "C5",
          "ticks": 104832,
          "time": 112.965489,
          "velocity": 0.3937007874015748
        },
        {
          "duration": 0.20689649999999915,
          "durationTicks": 192,
          "midi": 73,
          "name": "C#5",
          "ticks": 105024,
          "time": 113.1723855,
          "velocity": 0.3937007874015748
        },
        {
          "duration": 0.4137929999999983,
          "durationTicks": 384,
          "midi": 61,
          "name": "C#4",
          "ticks": 105216,
          "time": 113.379282,
          "velocity": 0.3937007874015748
        },
        {
          "duration": 0.10344824999999958,
          "durationTicks": 96,
          "midi": 61,
          "name": "C#4",
          "ticks": 105600,
          "time": 113.793075,
          "velocity": 0.3937007874015748
        },
        {
          "duration": 0.10344824999999958,
          "durationTicks": 96,
          "midi": 73,
          "name": "C#5",
          "ticks": 105696,
          "time": 113.89652325,
          "velocity": 0.3937007874015748
        },
        {
          "duration": 0.10344824999999958,
          "durationTicks": 96,
          "midi": 61,
          "name": "C#4",
          "ticks": 105792,
          "time": 113.9999715,
          "velocity": 0.3937007874015748
        },
        {
          "duration": 0.10344824999999958,
          "durationTicks": 96,
          "midi": 70,
          "name": "A#4",
          "ticks": 105888,
          "time": 114.10341975,
          "velocity": 0.3937007874015748
        },
        {
          "duration": 0.10344824999999958,
          "durationTicks": 96,
          "midi": 73,
          "name": "C#5",
          "ticks": 105984,
          "time": 114.206868,
          "velocity": 0.3937007874015748
        },
        {
          "duration": 0.10344824999999958,
          "durationTicks": 96,
          "midi": 70,
          "name": "A#4",
          "ticks": 106080,
          "time": 114.31031625,
          "velocity": 0.3937007874015748
        },
        {
          "duration": 0.10344825000001379,
          "durationTicks": 96,
          "midi": 68,
          "name": "G#4",
          "ticks": 106176,
          "time": 114.4137645,
          "velocity": 0.3937007874015748
        },
        {
          "duration": 0.10344824999999958,
          "durationTicks": 96,
          "midi": 68,
          "name": "G#4",
          "ticks": 106368,
          "time": 114.62066100000001,
          "velocity": 0.3937007874015748
        },
        {
          "duration": 0.10344824999999958,
          "durationTicks": 96,
          "midi": 70,
          "name": "A#4",
          "ticks": 106464,
          "time": 114.72410925000001,
          "velocity": 0.3937007874015748
        },
        {
          "duration": 0.10344824999999958,
          "durationTicks": 96,
          "midi": 72,
          "name": "C5",
          "ticks": 106560,
          "time": 114.82755750000001,
          "velocity": 0.3937007874015748
        },
        {
          "duration": 0.10344824999999958,
          "durationTicks": 96,
          "midi": 60,
          "name": "C4",
          "ticks": 106752,
          "time": 115.03445400000001,
          "velocity": 0.3937007874015748
        },
        {
          "duration": 0.10344824999999958,
          "durationTicks": 96,
          "midi": 60,
          "name": "C4",
          "ticks": 106944,
          "time": 115.24135050000001,
          "velocity": 0.3937007874015748
        },
        {
          "duration": 0.10344824999999958,
          "durationTicks": 96,
          "midi": 72,
          "name": "C5",
          "ticks": 107040,
          "time": 115.34479875000001,
          "velocity": 0.3937007874015748
        },
        {
          "duration": 0.10344824999999958,
          "durationTicks": 96,
          "midi": 72,
          "name": "C5",
          "ticks": 107232,
          "time": 115.55169525000001,
          "velocity": 0.3937007874015748
        },
        {
          "duration": 0.4137929999999983,
          "durationTicks": 384,
          "midi": 60,
          "name": "C4",
          "ticks": 107328,
          "time": 115.65514350000001,
          "velocity": 0.3937007874015748
        },
        {
          "duration": 0.20689649999999915,
          "durationTicks": 192,
          "midi": 70,
          "name": "A#4",
          "ticks": 107712,
          "time": 116.0689365,
          "velocity": 0.3937007874015748
        },
        {
          "duration": 0.20689649999999915,
          "durationTicks": 192,
          "midi": 71,
          "name": "B4",
          "ticks": 107904,
          "time": 116.275833,
          "velocity": 0.3937007874015748
        },
        {
          "duration": 0.20689649999999915,
          "durationTicks": 192,
          "midi": 72,
          "name": "C5",
          "ticks": 108096,
          "time": 116.4827295,
          "velocity": 0.3937007874015748
        },
        {
          "duration": 0.3103447499999987,
          "durationTicks": 288,
          "midi": 65,
          "name": "F4",
          "ticks": 108288,
          "time": 116.689626,
          "velocity": 0.3937007874015748
        },
        {
          "duration": 0.10344824999999958,
          "durationTicks": 96,
          "midi": 65,
          "name": "F4",
          "ticks": 108576,
          "time": 116.99997075,
          "velocity": 0.3937007874015748
        },
        {
          "duration": 0.10344824999999958,
          "durationTicks": 96,
          "midi": 77,
          "name": "F5",
          "ticks": 108672,
          "time": 117.103419,
          "velocity": 0.3937007874015748
        },
        {
          "duration": 0.10344824999999958,
          "durationTicks": 96,
          "midi": 65,
          "name": "F4",
          "ticks": 108768,
          "time": 117.20686725,
          "velocity": 0.3937007874015748
        },
        {
          "duration": 0.10344824999999958,
          "durationTicks": 96,
          "midi": 65,
          "name": "F4",
          "ticks": 108960,
          "time": 117.41376375,
          "velocity": 0.3937007874015748
        },
        {
          "duration": 0.20689649999999915,
          "durationTicks": 192,
          "midi": 80,
          "name": "G#5",
          "ticks": 109056,
          "time": 117.517212,
          "velocity": 0.3937007874015748
        },
        {
          "duration": 0.20689650000001336,
          "durationTicks": 192,
          "midi": 79,
          "name": "G5",
          "ticks": 109248,
          "time": 117.7241085,
          "velocity": 0.3937007874015748
        },
        {
          "duration": 0.10344824999999958,
          "durationTicks": 96,
          "midi": 77,
          "name": "F5",
          "ticks": 109440,
          "time": 117.93100500000001,
          "velocity": 0.3937007874015748
        },
        {
          "duration": 0.10344824999999958,
          "durationTicks": 96,
          "midi": 79,
          "name": "G5",
          "ticks": 109536,
          "time": 118.03445325000001,
          "velocity": 0.3937007874015748
        },
        {
          "duration": 0.10344824999999958,
          "durationTicks": 96,
          "midi": 80,
          "name": "G#5",
          "ticks": 109584,
          "time": 118.086177375,
          "velocity": 0.3937007874015748
        },
        {
          "duration": 0.20689649999999915,
          "durationTicks": 192,
          "midi": 75,
          "name": "D#5",
          "ticks": 109632,
          "time": 118.13790150000001,
          "velocity": 0.3937007874015748
        },
        {
          "duration": 0.3103447499999987,
          "durationTicks": 288,
          "midi": 63,
          "name": "D#4",
          "ticks": 109824,
          "time": 118.34479800000001,
          "velocity": 0.3937007874015748
        },
        {
          "duration": 0.10344824999999958,
          "durationTicks": 96,
          "midi": 63,
          "name": "D#4",
          "ticks": 110112,
          "time": 118.65514275000001,
          "velocity": 0.3937007874015748
        },
        {
          "duration": 0.20689649999999915,
          "durationTicks": 192,
          "midi": 75,
          "name": "D#5",
          "ticks": 110208,
          "time": 118.75859100000001,
          "velocity": 0.3937007874015748
        },
        {
          "duration": 0.20689649999999915,
          "durationTicks": 192,
          "midi": 63,
          "name": "D#4",
          "ticks": 110400,
          "time": 118.96548750000001,
          "velocity": 0.3937007874015748
        },
        {
          "duration": 0.20689649999999915,
          "durationTicks": 192,
          "midi": 75,
          "name": "D#5",
          "ticks": 110592,
          "time": 119.17238400000001,
          "velocity": 0.3937007874015748
        },
        {
          "duration": 0.20689649999999915,
          "durationTicks": 192,
          "midi": 73,
          "name": "C#5",
          "ticks": 110784,
          "time": 119.37928050000001,
          "velocity": 0.3937007874015748
        },
        {
          "duration": 0.20689649999999915,
          "durationTicks": 192,
          "midi": 72,
          "name": "C5",
          "ticks": 110976,
          "time": 119.586177,
          "velocity": 0.3937007874015748
        },
        {
          "duration": 0.20689649999999915,
          "durationTicks": 192,
          "midi": 73,
          "name": "C#5",
          "ticks": 111168,
          "time": 119.7930735,
          "velocity": 0.3937007874015748
        },
        {
          "duration": 0.4137929999999983,
          "durationTicks": 384,
          "midi": 60,
          "name": "C4",
          "ticks": 111360,
          "time": 119.99997,
          "velocity": 0.3937007874015748
        },
        {
          "duration": 0.10344824999999958,
          "durationTicks": 96,
          "midi": 60,
          "name": "C4",
          "ticks": 111744,
          "time": 120.413763,
          "velocity": 0.3937007874015748
        },
        {
          "duration": 0.10344824999999958,
          "durationTicks": 96,
          "midi": 72,
          "name": "C5",
          "ticks": 111840,
          "time": 120.51721125,
          "velocity": 0.3937007874015748
        },
        {
          "duration": 0.10344824999999958,
          "durationTicks": 96,
          "midi": 60,
          "name": "C4",
          "ticks": 111936,
          "time": 120.6206595,
          "velocity": 0.3937007874015748
        },
        {
          "duration": 0.10344824999999958,
          "durationTicks": 96,
          "midi": 69,
          "name": "A4",
          "ticks": 112032,
          "time": 120.72410775,
          "velocity": 0.3937007874015748
        },
        {
          "duration": 0.10344824999999958,
          "durationTicks": 96,
          "midi": 72,
          "name": "C5",
          "ticks": 112128,
          "time": 120.827556,
          "velocity": 0.3937007874015748
        },
        {
          "duration": 0.10344824999999958,
          "durationTicks": 96,
          "midi": 69,
          "name": "A4",
          "ticks": 112224,
          "time": 120.93100425,
          "velocity": 0.3937007874015748
        },
        {
          "duration": 0.10344824999999958,
          "durationTicks": 96,
          "midi": 67,
          "name": "G4",
          "ticks": 112320,
          "time": 121.0344525,
          "velocity": 0.3937007874015748
        },
        {
          "duration": 0.10344825000001379,
          "durationTicks": 96,
          "midi": 67,
          "name": "G4",
          "ticks": 112512,
          "time": 121.241349,
          "velocity": 0.3937007874015748
        },
        {
          "duration": 0.10344824999999958,
          "durationTicks": 96,
          "midi": 69,
          "name": "A4",
          "ticks": 112608,
          "time": 121.34479725000001,
          "velocity": 0.3937007874015748
        },
        {
          "duration": 0.10344824999999958,
          "durationTicks": 96,
          "midi": 71,
          "name": "B4",
          "ticks": 112704,
          "time": 121.44824550000001,
          "velocity": 0.3937007874015748
        },
        {
          "duration": 0.10344824999999958,
          "durationTicks": 96,
          "midi": 59,
          "name": "B3",
          "ticks": 112896,
          "time": 121.65514200000001,
          "velocity": 0.3937007874015748
        },
        {
          "duration": 0.10344824999999958,
          "durationTicks": 96,
          "midi": 59,
          "name": "B3",
          "ticks": 113088,
          "time": 121.86203850000001,
          "velocity": 0.3937007874015748
        },
        {
          "duration": 0.10344824999999958,
          "durationTicks": 96,
          "midi": 71,
          "name": "B4",
          "ticks": 113184,
          "time": 121.96548675000001,
          "velocity": 0.3937007874015748
        },
        {
          "duration": 0.10344824999999958,
          "durationTicks": 96,
          "midi": 71,
          "name": "B4",
          "ticks": 113376,
          "time": 122.17238325000001,
          "velocity": 0.3937007874015748
        },
        {
          "duration": 0.4137929999999983,
          "durationTicks": 384,
          "midi": 59,
          "name": "B3",
          "ticks": 113472,
          "time": 122.27583150000001,
          "velocity": 0.3937007874015748
        },
        {
          "duration": 0.20689649999999915,
          "durationTicks": 192,
          "midi": 69,
          "name": "A4",
          "ticks": 113856,
          "time": 122.68962450000001,
          "velocity": 0.3937007874015748
        },
        {
          "duration": 0.20689649999999915,
          "durationTicks": 192,
          "midi": 70,
          "name": "A#4",
          "ticks": 114048,
          "time": 122.896521,
          "velocity": 0.3937007874015748
        },
        {
          "duration": 0.20689649999999915,
          "durationTicks": 192,
          "midi": 71,
          "name": "B4",
          "ticks": 114240,
          "time": 123.1034175,
          "velocity": 0.3937007874015748
        },
        {
          "duration": 0.3103447499999987,
          "durationTicks": 288,
          "midi": 64,
          "name": "E4",
          "ticks": 114432,
          "time": 123.310314,
          "velocity": 0.3937007874015748
        },
        {
          "duration": 0.10344824999999958,
          "durationTicks": 96,
          "midi": 64,
          "name": "E4",
          "ticks": 114720,
          "time": 123.62065875,
          "velocity": 0.3937007874015748
        },
        {
          "duration": 0.10344824999999958,
          "durationTicks": 96,
          "midi": 76,
          "name": "E5",
          "ticks": 114816,
          "time": 123.724107,
          "velocity": 0.3937007874015748
        },
        {
          "duration": 0.10344824999999958,
          "durationTicks": 96,
          "midi": 64,
          "name": "E4",
          "ticks": 114912,
          "time": 123.82755525,
          "velocity": 0.3937007874015748
        },
        {
          "duration": 0.10344824999999958,
          "durationTicks": 96,
          "midi": 64,
          "name": "E4",
          "ticks": 115104,
          "time": 124.03445175,
          "velocity": 0.3937007874015748
        },
        {
          "duration": 0.20689649999999915,
          "durationTicks": 192,
          "midi": 79,
          "name": "G5",
          "ticks": 115200,
          "time": 124.1379,
          "velocity": 0.3937007874015748
        },
        {
          "duration": 0.20689649999999915,
          "durationTicks": 192,
          "midi": 78,
          "name": "F#5",
          "ticks": 115392,
          "time": 124.3447965,
          "velocity": 0.3937007874015748
        },
        {
          "duration": 0.10344824999999958,
          "durationTicks": 96,
          "midi": 76,
          "name": "E5",
          "ticks": 115584,
          "time": 124.551693,
          "velocity": 0.3937007874015748
        },
        {
          "duration": 0.10344825000001379,
          "durationTicks": 96,
          "midi": 78,
          "name": "F#5",
          "ticks": 115680,
          "time": 124.65514125,
          "velocity": 0.3937007874015748
        },
        {
          "duration": 0.10344824999999958,
          "durationTicks": 96,
          "midi": 79,
          "name": "G5",
          "ticks": 115728,
          "time": 124.706865375,
          "velocity": 0.3937007874015748
        },
        {
          "duration": 0.20689649999999915,
          "durationTicks": 192,
          "midi": 74,
          "name": "D5",
          "ticks": 115776,
          "time": 124.75858950000001,
          "velocity": 0.3937007874015748
        },
        {
          "duration": 0.3103447499999987,
          "durationTicks": 288,
          "midi": 62,
          "name": "D4",
          "ticks": 115968,
          "time": 124.96548600000001,
          "velocity": 0.3937007874015748
        },
        {
          "duration": 0.10344824999999958,
          "durationTicks": 96,
          "midi": 62,
          "name": "D4",
          "ticks": 116256,
          "time": 125.27583075000001,
          "velocity": 0.3937007874015748
        },
        {
          "duration": 0.20689649999999915,
          "durationTicks": 192,
          "midi": 74,
          "name": "D5",
          "ticks": 116352,
          "time": 125.37927900000001,
          "velocity": 0.3937007874015748
        },
        {
          "duration": 0.20689649999999915,
          "durationTicks": 192,
          "midi": 62,
          "name": "D4",
          "ticks": 116544,
          "time": 125.58617550000001,
          "velocity": 0.3937007874015748
        },
        {
          "duration": 0.20689649999999915,
          "durationTicks": 192,
          "midi": 74,
          "name": "D5",
          "ticks": 116736,
          "time": 125.79307200000001,
          "velocity": 0.3937007874015748
        },
        {
          "duration": 0.20689649999999915,
          "durationTicks": 192,
          "midi": 72,
          "name": "C5",
          "ticks": 116928,
          "time": 125.99996850000001,
          "velocity": 0.3937007874015748
        },
        {
          "duration": 0.20689649999999915,
          "durationTicks": 192,
          "midi": 71,
          "name": "B4",
          "ticks": 117120,
          "time": 126.20686500000001,
          "velocity": 0.3937007874015748
        },
        {
          "duration": 0.20689649999999915,
          "durationTicks": 192,
          "midi": 72,
          "name": "C5",
          "ticks": 117312,
          "time": 126.4137615,
          "velocity": 0.3937007874015748
        },
        {
          "duration": 0.4137929999999983,
          "durationTicks": 384,
          "midi": 60,
          "name": "C4",
          "ticks": 117504,
          "time": 126.620658,
          "velocity": 0.3937007874015748
        },
        {
          "duration": 0.10344824999999958,
          "durationTicks": 96,
          "midi": 60,
          "name": "C4",
          "ticks": 117888,
          "time": 127.034451,
          "velocity": 0.3937007874015748
        },
        {
          "duration": 0.10344824999999958,
          "durationTicks": 96,
          "midi": 72,
          "name": "C5",
          "ticks": 117984,
          "time": 127.13789925,
          "velocity": 0.3937007874015748
        },
        {
          "duration": 0.10344824999999958,
          "durationTicks": 96,
          "midi": 60,
          "name": "C4",
          "ticks": 118080,
          "time": 127.2413475,
          "velocity": 0.3937007874015748
        },
        {
          "duration": 0.10344824999999958,
          "durationTicks": 96,
          "midi": 69,
          "name": "A4",
          "ticks": 118176,
          "time": 127.34479575,
          "velocity": 0.3937007874015748
        },
        {
          "duration": 0.10344824999999958,
          "durationTicks": 96,
          "midi": 72,
          "name": "C5",
          "ticks": 118272,
          "time": 127.448244,
          "velocity": 0.3937007874015748
        },
        {
          "duration": 0.10344824999999958,
          "durationTicks": 96,
          "midi": 69,
          "name": "A4",
          "ticks": 118368,
          "time": 127.55169225,
          "velocity": 0.3937007874015748
        },
        {
          "duration": 0.10344824999999958,
          "durationTicks": 96,
          "midi": 67,
          "name": "G4",
          "ticks": 118464,
          "time": 127.6551405,
          "velocity": 0.3937007874015748
        },
        {
          "duration": 0.10344824999999958,
          "durationTicks": 96,
          "midi": 67,
          "name": "G4",
          "ticks": 118656,
          "time": 127.862037,
          "velocity": 0.3937007874015748
        },
        {
          "duration": 0.10344825000001379,
          "durationTicks": 96,
          "midi": 69,
          "name": "A4",
          "ticks": 118752,
          "time": 127.96548525,
          "velocity": 0.3937007874015748
        },
        {
          "duration": 0.10344824999998536,
          "durationTicks": 96,
          "midi": 71,
          "name": "B4",
          "ticks": 118848,
          "time": 128.0689335,
          "velocity": 0.3937007874015748
        },
        {
          "duration": 0.10344824999998536,
          "durationTicks": 96,
          "midi": 59,
          "name": "B3",
          "ticks": 119040,
          "time": 128.27583,
          "velocity": 0.3937007874015748
        },
        {
          "duration": 0.10344824999998536,
          "durationTicks": 96,
          "midi": 59,
          "name": "B3",
          "ticks": 119232,
          "time": 128.4827265,
          "velocity": 0.3937007874015748
        },
        {
          "duration": 0.10344825000001379,
          "durationTicks": 96,
          "midi": 71,
          "name": "B4",
          "ticks": 119328,
          "time": 128.58617475,
          "velocity": 0.3937007874015748
        },
        {
          "duration": 0.10344825000001379,
          "durationTicks": 96,
          "midi": 71,
          "name": "B4",
          "ticks": 119520,
          "time": 128.79307125,
          "velocity": 0.3937007874015748
        },
        {
          "duration": 0.4137929999999983,
          "durationTicks": 384,
          "midi": 59,
          "name": "B3",
          "ticks": 119616,
          "time": 128.8965195,
          "velocity": 0.3937007874015748
        },
        {
          "duration": 0.20689649999999915,
          "durationTicks": 192,
          "midi": 69,
          "name": "A4",
          "ticks": 120000,
          "time": 129.3103125,
          "velocity": 0.3937007874015748
        },
        {
          "duration": 0.20689649999999915,
          "durationTicks": 192,
          "midi": 70,
          "name": "A#4",
          "ticks": 120192,
          "time": 129.517209,
          "velocity": 0.3937007874015748
        },
        {
          "duration": 0.20689649999999915,
          "durationTicks": 192,
          "midi": 71,
          "name": "B4",
          "ticks": 120384,
          "time": 129.7241055,
          "velocity": 0.3937007874015748
        },
        {
          "duration": 0.31034475000001294,
          "durationTicks": 288,
          "midi": 64,
          "name": "E4",
          "ticks": 120576,
          "time": 129.931002,
          "velocity": 0.3937007874015748
        },
        {
          "duration": 0.10344824999998536,
          "durationTicks": 96,
          "midi": 64,
          "name": "E4",
          "ticks": 120864,
          "time": 130.24134675000002,
          "velocity": 0.3937007874015748
        },
        {
          "duration": 0.10344825000001379,
          "durationTicks": 96,
          "midi": 76,
          "name": "E5",
          "ticks": 120960,
          "time": 130.344795,
          "velocity": 0.3937007874015748
        },
        {
          "duration": 0.10344824999998536,
          "durationTicks": 96,
          "midi": 64,
          "name": "E4",
          "ticks": 121056,
          "time": 130.44824325000002,
          "velocity": 0.3937007874015748
        },
        {
          "duration": 0.10344824999998536,
          "durationTicks": 96,
          "midi": 64,
          "name": "E4",
          "ticks": 121248,
          "time": 130.65513975000002,
          "velocity": 0.3937007874015748
        },
        {
          "duration": 0.20689649999999915,
          "durationTicks": 192,
          "midi": 79,
          "name": "G5",
          "ticks": 121344,
          "time": 130.758588,
          "velocity": 0.3937007874015748
        },
        {
          "duration": 0.20689649999999915,
          "durationTicks": 192,
          "midi": 78,
          "name": "F#5",
          "ticks": 121536,
          "time": 130.9654845,
          "velocity": 0.3937007874015748
        },
        {
          "duration": 0.10344825000001379,
          "durationTicks": 96,
          "midi": 76,
          "name": "E5",
          "ticks": 121728,
          "time": 131.172381,
          "velocity": 0.3937007874015748
        },
        {
          "duration": 0.10344824999998536,
          "durationTicks": 96,
          "midi": 78,
          "name": "F#5",
          "ticks": 121824,
          "time": 131.27582925000002,
          "velocity": 0.3937007874015748
        },
        {
          "duration": 0.10344824999998536,
          "durationTicks": 96,
          "midi": 79,
          "name": "G5",
          "ticks": 121872,
          "time": 131.327553375,
          "velocity": 0.3937007874015748
        },
        {
          "duration": 0.20689649999999915,
          "durationTicks": 192,
          "midi": 74,
          "name": "D5",
          "ticks": 121920,
          "time": 131.3792775,
          "velocity": 0.3937007874015748
        },
        {
          "duration": 0.31034475000001294,
          "durationTicks": 288,
          "midi": 62,
          "name": "D4",
          "ticks": 122112,
          "time": 131.586174,
          "velocity": 0.3937007874015748
        },
        {
          "duration": 0.10344824999998536,
          "durationTicks": 96,
          "midi": 62,
          "name": "D4",
          "ticks": 122400,
          "time": 131.89651875,
          "velocity": 0.3937007874015748
        },
        {
          "duration": 0.20689649999999915,
          "durationTicks": 192,
          "midi": 74,
          "name": "D5",
          "ticks": 122496,
          "time": 131.999967,
          "velocity": 0.3937007874015748
        },
        {
          "duration": 0.20689649999999915,
          "durationTicks": 192,
          "midi": 62,
          "name": "D4",
          "ticks": 122688,
          "time": 132.2068635,
          "velocity": 0.3937007874015748
        },
        {
          "duration": 0.20689649999999915,
          "durationTicks": 192,
          "midi": 74,
          "name": "D5",
          "ticks": 122880,
          "time": 132.41376,
          "velocity": 0.3937007874015748
        },
        {
          "duration": 0.20689649999999915,
          "durationTicks": 192,
          "midi": 72,
          "name": "C5",
          "ticks": 123072,
          "time": 132.6206565,
          "velocity": 0.3937007874015748
        },
        {
          "duration": 0.20689649999999915,
          "durationTicks": 192,
          "midi": 71,
          "name": "B4",
          "ticks": 123264,
          "time": 132.827553,
          "velocity": 0.3937007874015748
        },
        {
          "duration": 0.20689649999999915,
          "durationTicks": 192,
          "midi": 72,
          "name": "C5",
          "ticks": 123456,
          "time": 133.0344495,
          "velocity": 0.3937007874015748
        },
        {
          "duration": 0.4137930000000267,
          "durationTicks": 384,
          "midi": 60,
          "name": "C4",
          "ticks": 123648,
          "time": 133.241346,
          "velocity": 0.3937007874015748
        },
        {
          "duration": 0.4137929999999983,
          "durationTicks": 384,
          "midi": 64,
          "name": "E4",
          "ticks": 124032,
          "time": 133.65513900000002,
          "velocity": 0.3937007874015748
        },
        {
          "duration": 0.4137929999999983,
          "durationTicks": 384,
          "midi": 71,
          "name": "B4",
          "ticks": 124416,
          "time": 134.06893200000002,
          "velocity": 0.3937007874015748
        },
        {
          "duration": 0.4137929999999983,
          "durationTicks": 384,
          "midi": 60,
          "name": "C4",
          "ticks": 124800,
          "time": 134.48272500000002,
          "velocity": 0.3937007874015748
        },
        {
          "duration": 0.4137929999999983,
          "durationTicks": 384,
          "midi": 64,
          "name": "E4",
          "ticks": 125184,
          "time": 134.89651800000001,
          "velocity": 0.3937007874015748
        },
        {
          "duration": 0.4137929999999983,
          "durationTicks": 384,
          "midi": 71,
          "name": "B4",
          "ticks": 125568,
          "time": 135.310311,
          "velocity": 0.3937007874015748
        },
        {
          "duration": 0.4137929999999983,
          "durationTicks": 384,
          "midi": 60,
          "name": "C4",
          "ticks": 125952,
          "time": 135.724104,
          "velocity": 0.3937007874015748
        },
        {
          "duration": 0.4137929999999983,
          "durationTicks": 384,
          "midi": 64,
          "name": "E4",
          "ticks": 126336,
          "time": 136.137897,
          "velocity": 0.3937007874015748
        },
        {
          "duration": 0.4137929999999983,
          "durationTicks": 384,
          "midi": 59,
          "name": "B3",
          "ticks": 126720,
          "time": 136.55169,
          "velocity": 0.3937007874015748
        },
        {
          "duration": 0.4137929999999983,
          "durationTicks": 384,
          "midi": 63,
          "name": "D#4",
          "ticks": 127104,
          "time": 136.965483,
          "velocity": 0.3937007874015748
        },
        {
          "duration": 0.4137929999999983,
          "durationTicks": 384,
          "midi": 69,
          "name": "A4",
          "ticks": 127488,
          "time": 137.379276,
          "velocity": 0.3937007874015748
        },
        {
          "duration": 0.4137929999999983,
          "durationTicks": 384,
          "midi": 59,
          "name": "B3",
          "ticks": 127872,
          "time": 137.793069,
          "velocity": 0.3937007874015748
        },
        {
          "duration": 0.4137929999999983,
          "durationTicks": 384,
          "midi": 63,
          "name": "D#4",
          "ticks": 128256,
          "time": 138.206862,
          "velocity": 0.3937007874015748
        },
        {
          "duration": 0.4137929999999983,
          "durationTicks": 384,
          "midi": 69,
          "name": "A4",
          "ticks": 128640,
          "time": 138.620655,
          "velocity": 0.3937007874015748
        },
        {
          "duration": 0.4137929999999983,
          "durationTicks": 384,
          "midi": 72,
          "name": "C5",
          "ticks": 129024,
          "time": 139.034448,
          "velocity": 0.3937007874015748
        },
        {
          "duration": 0.4137929999999983,
          "durationTicks": 384,
          "midi": 71,
          "name": "B4",
          "ticks": 129408,
          "time": 139.448241,
          "velocity": 0.3937007874015748
        },
        {
          "duration": 0.4137930000000267,
          "durationTicks": 384,
          "midi": 64,
          "name": "E4",
          "ticks": 129792,
          "time": 139.862034,
          "velocity": 0.3937007874015748
        },
        {
          "duration": 0.4137929999999983,
          "durationTicks": 384,
          "midi": 67,
          "name": "G4",
          "ticks": 130176,
          "time": 140.27582700000002,
          "velocity": 0.3937007874015748
        },
        {
          "duration": 0.4137929999999983,
          "durationTicks": 384,
          "midi": 74,
          "name": "D5",
          "ticks": 130560,
          "time": 140.68962000000002,
          "velocity": 0.3937007874015748
        },
        {
          "duration": 0.4137929999999983,
          "durationTicks": 384,
          "midi": 64,
          "name": "E4",
          "ticks": 130944,
          "time": 141.10341300000002,
          "velocity": 0.3937007874015748
        },
        {
          "duration": 0.4137929999999983,
          "durationTicks": 384,
          "midi": 67,
          "name": "G4",
          "ticks": 131328,
          "time": 141.51720600000002,
          "velocity": 0.3937007874015748
        },
        {
          "duration": 0.4137929999999983,
          "durationTicks": 384,
          "midi": 74,
          "name": "D5",
          "ticks": 131712,
          "time": 141.930999,
          "velocity": 0.3937007874015748
        },
        {
          "duration": 0.4137929999999983,
          "durationTicks": 384,
          "midi": 72,
          "name": "C5",
          "ticks": 132096,
          "time": 142.344792,
          "velocity": 0.3937007874015748
        },
        {
          "duration": 0.4137929999999983,
          "durationTicks": 384,
          "midi": 71,
          "name": "B4",
          "ticks": 132480,
          "time": 142.758585,
          "velocity": 0.3937007874015748
        },
        {
          "duration": 0.4137929999999983,
          "durationTicks": 384,
          "midi": 62,
          "name": "D4",
          "ticks": 132864,
          "time": 143.172378,
          "velocity": 0.3937007874015748
        },
        {
          "duration": 0.4137929999999983,
          "durationTicks": 384,
          "midi": 66,
          "name": "F#4",
          "ticks": 133248,
          "time": 143.586171,
          "velocity": 0.3937007874015748
        },
        {
          "duration": 0.4137929999999983,
          "durationTicks": 384,
          "midi": 72,
          "name": "C5",
          "ticks": 133632,
          "time": 143.999964,
          "velocity": 0.3937007874015748
        },
        {
          "duration": 0.4137929999999983,
          "durationTicks": 384,
          "midi": 62,
          "name": "D4",
          "ticks": 134016,
          "time": 144.413757,
          "velocity": 0.3937007874015748
        },
        {
          "duration": 0.4137929999999983,
          "durationTicks": 384,
          "midi": 72,
          "name": "C5",
          "ticks": 134400,
          "time": 144.82755,
          "velocity": 0.3937007874015748
        },
        {
          "duration": 0.4137929999999983,
          "durationTicks": 384,
          "midi": 71,
          "name": "B4",
          "ticks": 134784,
          "time": 145.241343,
          "velocity": 0.3937007874015748
        },
        {
          "duration": 0.4137929999999983,
          "durationTicks": 384,
          "midi": 69,
          "name": "A4",
          "ticks": 135168,
          "time": 145.655136,
          "velocity": 0.3937007874015748
        },
        {
          "duration": 0.8275859999999966,
          "durationTicks": 768,
          "midi": 71,
          "name": "B4",
          "ticks": 135552,
          "time": 146.068929,
          "velocity": 0.3937007874015748
        }
      ],
      "endOfTrackTicks": 136320
    }
  ]
}
