{
  "header": {
    "keySignatures": [],
    "meta": [],
    "name": "",
    "ppq": 384,
    "tempos": [
      {
        "bpm": 180.00018000018,
        "ticks": 0
      }
    ],
    "timeSignatures": [
      {
        "ticks": 0,
        "timeSignature": [
          1,
          4
        ],
        "measures": 0
      }
    ]
  },
  "tracks": [
    {
      "channel": 0,
      "controlChanges": {},
      "pitchBends": [],
      "instrument": {
        "family": "synth lead",
        "number": 80,
        "name": "lead 1 (square)"
      },
      "name": "Smooth Synth",
      "notes": [
        {
          "duration": 0.16666649999999983,
          "durationTicks": 192,
          "midi": 65,
          "name": "F4",
          "ticks": 12288,
          "time": 10.666656,
          "velocity": 0.12598425196850394
        },
        {
          "duration": 0.16666649999999983,
          "durationTicks": 192,
          "midi": 68,
          "name": "G#4",
          "ticks": 12288,
          "time": 10.666656,
          "velocity": 0.12598425196850394
        },
        {
          "duration": 0.16666649999999983,
          "durationTicks": 192,
          "midi": 60,
          "name": "C4",
          "ticks": 12288,
          "time": 10.666656,
          "velocity": 0.12598425196850394
        },
        {
          "duration": 0.16666649999999983,
          "durationTicks": 192,
          "midi": 68,
          "name": "G#4",
          "ticks": 12480,
          "time": 10.8333225,
          "velocity": 0.12598425196850394
        },
        {
          "duration": 0.16666649999999983,
          "durationTicks": 192,
          "midi": 65,
          "name": "F4",
          "ticks": 12480,
          "time": 10.8333225,
          "velocity": 0.12598425196850394
        },
        {
          "duration": 0.16666649999999983,
          "durationTicks": 192,
          "midi": 60,
          "name": "C4",
          "ticks": 12480,
          "time": 10.8333225,
          "velocity": 0.12598425196850394
        },
        {
          "duration": 0.16666649999999983,
          "durationTicks": 192,
          "midi": 60,
          "name": "C4",
          "ticks": 12672,
          "time": 10.999989,
          "velocity": 0.12598425196850394
        },
        {
          "duration": 0.16666649999999983,
          "durationTicks": 192,
          "midi": 68,
          "name": "G#4",
          "ticks": 12672,
          "time": 10.999989,
          "velocity": 0.12598425196850394
        },
        {
          "duration": 0.16666649999999983,
          "durationTicks": 192,
          "midi": 65,
          "name": "F4",
          "ticks": 12672,
          "time": 10.999989,
          "velocity": 0.12598425196850394
        },
        {
          "duration": 0.16666649999999983,
          "durationTicks": 192,
          "midi": 65,
          "name": "F4",
          "ticks": 12864,
          "time": 11.1666555,
          "velocity": 0.12598425196850394
        },
        {
          "duration": 0.16666649999999983,
          "durationTicks": 192,
          "midi": 60,
          "name": "C4",
          "ticks": 12864,
          "time": 11.1666555,
          "velocity": 0.12598425196850394
        },
        {
          "duration": 0.16666649999999983,
          "durationTicks": 192,
          "midi": 68,
          "name": "G#4",
          "ticks": 12864,
          "time": 11.1666555,
          "velocity": 0.12598425196850394
        },
        {
          "duration": 0.16666649999999983,
          "durationTicks": 192,
          "midi": 65,
          "name": "F4",
          "ticks": 13056,
          "time": 11.333321999999999,
          "velocity": 0.12598425196850394
        },
        {
          "duration": 0.16666649999999983,
          "durationTicks": 192,
          "midi": 60,
          "name": "C4",
          "ticks": 13056,
          "time": 11.333321999999999,
          "velocity": 0.12598425196850394
        },
        {
          "duration": 0.16666649999999983,
          "durationTicks": 192,
          "midi": 68,
          "name": "G#4",
          "ticks": 13056,
          "time": 11.333321999999999,
          "velocity": 0.12598425196850394
        },
        {
          "duration": 0.1666665000000016,
          "durationTicks": 192,
          "midi": 60,
          "name": "C4",
          "ticks": 13248,
          "time": 11.499988499999999,
          "velocity": 0.12598425196850394
        },
        {
          "duration": 0.1666665000000016,
          "durationTicks": 192,
          "midi": 65,
          "name": "F4",
          "ticks": 13248,
          "time": 11.499988499999999,
          "velocity": 0.12598425196850394
        },
        {
          "duration": 0.1666665000000016,
          "durationTicks": 192,
          "midi": 68,
          "name": "G#4",
          "ticks": 13248,
          "time": 11.499988499999999,
          "velocity": 0.12598425196850394
        },
        {
          "duration": 0.16666649999999983,
          "durationTicks": 192,
          "midi": 68,
          "name": "G#4",
          "ticks": 13440,
          "time": 11.666655,
          "velocity": 0.12598425196850394
        },
        {
          "duration": 0.16666649999999983,
          "durationTicks": 192,
          "midi": 60,
          "name": "C4",
          "ticks": 13440,
          "time": 11.666655,
          "velocity": 0.12598425196850394
        },
        {
          "duration": 0.16666649999999983,
          "durationTicks": 192,
          "midi": 65,
          "name": "F4",
          "ticks": 13440,
          "time": 11.666655,
          "velocity": 0.12598425196850394
        },
        {
          "duration": 0.16666649999999983,
          "durationTicks": 192,
          "midi": 60,
          "name": "C4",
          "ticks": 13632,
          "time": 11.8333215,
          "velocity": 0.12598425196850394
        },
        {
          "duration": 0.16666649999999983,
          "durationTicks": 192,
          "midi": 68,
          "name": "G#4",
          "ticks": 13632,
          "time": 11.8333215,
          "velocity": 0.12598425196850394
        },
        {
          "duration": 0.16666649999999983,
          "durationTicks": 192,
          "midi": 65,
          "name": "F4",
          "ticks": 13632,
          "time": 11.8333215,
          "velocity": 0.12598425196850394
        },
        {
          "duration": 0.16666649999999983,
          "durationTicks": 192,
          "midi": 60,
          "name": "C4",
          "ticks": 13824,
          "time": 11.999988,
          "velocity": 0.12598425196850394
        },
        {
          "duration": 0.16666649999999983,
          "durationTicks": 192,
          "midi": 68,
          "name": "G#4",
          "ticks": 13824,
          "time": 11.999988,
          "velocity": 0.12598425196850394
        },
        {
          "duration": 0.16666649999999983,
          "durationTicks": 192,
          "midi": 65,
          "name": "F4",
          "ticks": 13824,
          "time": 11.999988,
          "velocity": 0.12598425196850394
        },
        {
          "duration": 0.16666649999999983,
          "durationTicks": 192,
          "midi": 65,
          "name": "F4",
          "ticks": 14016,
          "time": 12.1666545,
          "velocity": 0.12598425196850394
        },
        {
          "duration": 0.16666649999999983,
          "durationTicks": 192,
          "midi": 60,
          "name": "C4",
          "ticks": 14016,
          "time": 12.1666545,
          "velocity": 0.12598425196850394
        },
        {
          "duration": 0.16666649999999983,
          "durationTicks": 192,
          "midi": 68,
          "name": "G#4",
          "ticks": 14016,
          "time": 12.1666545,
          "velocity": 0.12598425196850394
        },
        {
          "duration": 0.16666649999999983,
          "durationTicks": 192,
          "midi": 68,
          "name": "G#4",
          "ticks": 14208,
          "time": 12.333321,
          "velocity": 0.12598425196850394
        },
        {
          "duration": 0.16666649999999983,
          "durationTicks": 192,
          "midi": 60,
          "name": "C4",
          "ticks": 14208,
          "time": 12.333321,
          "velocity": 0.12598425196850394
        },
        {
          "duration": 0.16666649999999983,
          "durationTicks": 192,
          "midi": 65,
          "name": "F4",
          "ticks": 14208,
          "time": 12.333321,
          "velocity": 0.12598425196850394
        },
        {
          "duration": 0.16666649999999983,
          "durationTicks": 192,
          "midi": 60,
          "name": "C4",
          "ticks": 14400,
          "time": 12.4999875,
          "velocity": 0.12598425196850394
        },
        {
          "duration": 0.16666649999999983,
          "durationTicks": 192,
          "midi": 68,
          "name": "G#4",
          "ticks": 14400,
          "time": 12.4999875,
          "velocity": 0.12598425196850394
        },
        {
          "duration": 0.16666649999999983,
          "durationTicks": 192,
          "midi": 65,
          "name": "F4",
          "ticks": 14400,
          "time": 12.4999875,
          "velocity": 0.12598425196850394
        },
        {
          "duration": 0.16666649999999983,
          "durationTicks": 192,
          "midi": 65,
          "name": "F4",
          "ticks": 14592,
          "time": 12.666654,
          "velocity": 0.12598425196850394
        },
        {
          "duration": 0.16666649999999983,
          "durationTicks": 192,
          "midi": 60,
          "name": "C4",
          "ticks": 14592,
          "time": 12.666654,
          "velocity": 0.12598425196850394
        },
        {
          "duration": 0.16666649999999983,
          "durationTicks": 192,
          "midi": 68,
          "name": "G#4",
          "ticks": 14592,
          "time": 12.666654,
          "velocity": 0.12598425196850394
        },
        {
          "duration": 0.16666649999999983,
          "durationTicks": 192,
          "midi": 60,
          "name": "C4",
          "ticks": 14784,
          "time": 12.8333205,
          "velocity": 0.12598425196850394
        },
        {
          "duration": 0.16666649999999983,
          "durationTicks": 192,
          "midi": 68,
          "name": "G#4",
          "ticks": 14784,
          "time": 12.8333205,
          "velocity": 0.12598425196850394
        },
        {
          "duration": 0.16666649999999983,
          "durationTicks": 192,
          "midi": 65,
          "name": "F4",
          "ticks": 14784,
          "time": 12.8333205,
          "velocity": 0.12598425196850394
        },
        {
          "duration": 0.16666649999999983,
          "durationTicks": 192,
          "midi": 60,
          "name": "C4",
          "ticks": 14976,
          "time": 12.999986999999999,
          "velocity": 0.12598425196850394
        },
        {
          "duration": 0.16666649999999983,
          "durationTicks": 192,
          "midi": 65,
          "name": "F4",
          "ticks": 14976,
          "time": 12.999986999999999,
          "velocity": 0.12598425196850394
        },
        {
          "duration": 0.16666649999999983,
          "durationTicks": 192,
          "midi": 68,
          "name": "G#4",
          "ticks": 14976,
          "time": 12.999986999999999,
          "velocity": 0.12598425196850394
        },
        {
          "duration": 0.1666665000000016,
          "durationTicks": 192,
          "midi": 68,
          "name": "G#4",
          "ticks": 15168,
          "time": 13.166653499999999,
          "velocity": 0.12598425196850394
        },
        {
          "duration": 0.1666665000000016,
          "durationTicks": 192,
          "midi": 65,
          "name": "F4",
          "ticks": 15168,
          "time": 13.166653499999999,
          "velocity": 0.12598425196850394
        },
        {
          "duration": 0.1666665000000016,
          "durationTicks": 192,
          "midi": 60,
          "name": "C4",
          "ticks": 15168,
          "time": 13.166653499999999,
          "velocity": 0.12598425196850394
        },
        {
          "duration": 0.16666649999999983,
          "durationTicks": 192,
          "midi": 63,
          "name": "D#4",
          "ticks": 15360,
          "time": 13.33332,
          "velocity": 0.12598425196850394
        },
        {
          "duration": 0.16666649999999983,
          "durationTicks": 192,
          "midi": 60,
          "name": "C4",
          "ticks": 15360,
          "time": 13.33332,
          "velocity": 0.12598425196850394
        },
        {
          "duration": 0.16666649999999983,
          "durationTicks": 192,
          "midi": 68,
          "name": "G#4",
          "ticks": 15360,
          "time": 13.33332,
          "velocity": 0.12598425196850394
        },
        {
          "duration": 0.16666649999999983,
          "durationTicks": 192,
          "midi": 63,
          "name": "D#4",
          "ticks": 15552,
          "time": 13.4999865,
          "velocity": 0.12598425196850394
        },
        {
          "duration": 0.16666649999999983,
          "durationTicks": 192,
          "midi": 60,
          "name": "C4",
          "ticks": 15552,
          "time": 13.4999865,
          "velocity": 0.12598425196850394
        },
        {
          "duration": 0.16666649999999983,
          "durationTicks": 192,
          "midi": 68,
          "name": "G#4",
          "ticks": 15552,
          "time": 13.4999865,
          "velocity": 0.12598425196850394
        },
        {
          "duration": 0.16666649999999983,
          "durationTicks": 192,
          "midi": 60,
          "name": "C4",
          "ticks": 15744,
          "time": 13.666653,
          "velocity": 0.12598425196850394
        },
        {
          "duration": 0.16666649999999983,
          "durationTicks": 192,
          "midi": 68,
          "name": "G#4",
          "ticks": 15744,
          "time": 13.666653,
          "velocity": 0.12598425196850394
        },
        {
          "duration": 0.16666649999999983,
          "durationTicks": 192,
          "midi": 63,
          "name": "D#4",
          "ticks": 15744,
          "time": 13.666653,
          "velocity": 0.12598425196850394
        },
        {
          "duration": 0.16666649999999983,
          "durationTicks": 192,
          "midi": 60,
          "name": "C4",
          "ticks": 15936,
          "time": 13.8333195,
          "velocity": 0.12598425196850394
        },
        {
          "duration": 0.16666649999999983,
          "durationTicks": 192,
          "midi": 63,
          "name": "D#4",
          "ticks": 15936,
          "time": 13.8333195,
          "velocity": 0.12598425196850394
        },
        {
          "duration": 0.16666649999999983,
          "durationTicks": 192,
          "midi": 68,
          "name": "G#4",
          "ticks": 15936,
          "time": 13.8333195,
          "velocity": 0.12598425196850394
        },
        {
          "duration": 0.16666649999999983,
          "durationTicks": 192,
          "midi": 60,
          "name": "C4",
          "ticks": 16128,
          "time": 13.999986,
          "velocity": 0.12598425196850394
        },
        {
          "duration": 0.16666649999999983,
          "durationTicks": 192,
          "midi": 68,
          "name": "G#4",
          "ticks": 16128,
          "time": 13.999986,
          "velocity": 0.12598425196850394
        },
        {
          "duration": 0.16666649999999983,
          "durationTicks": 192,
          "midi": 63,
          "name": "D#4",
          "ticks": 16128,
          "time": 13.999986,
          "velocity": 0.12598425196850394
        },
        {
          "duration": 0.16666649999999983,
          "durationTicks": 192,
          "midi": 60,
          "name": "C4",
          "ticks": 16320,
          "time": 14.1666525,
          "velocity": 0.12598425196850394
        },
        {
          "duration": 0.16666649999999983,
          "durationTicks": 192,
          "midi": 63,
          "name": "D#4",
          "ticks": 16320,
          "time": 14.1666525,
          "velocity": 0.12598425196850394
        },
        {
          "duration": 0.16666649999999983,
          "durationTicks": 192,
          "midi": 68,
          "name": "G#4",
          "ticks": 16320,
          "time": 14.1666525,
          "velocity": 0.12598425196850394
        },
        {
          "duration": 0.16666649999999983,
          "durationTicks": 192,
          "midi": 60,
          "name": "C4",
          "ticks": 16512,
          "time": 14.333319,
          "velocity": 0.12598425196850394
        },
        {
          "duration": 0.16666649999999983,
          "durationTicks": 192,
          "midi": 68,
          "name": "G#4",
          "ticks": 16512,
          "time": 14.333319,
          "velocity": 0.12598425196850394
        },
        {
          "duration": 0.16666649999999983,
          "durationTicks": 192,
          "midi": 63,
          "name": "D#4",
          "ticks": 16512,
          "time": 14.333319,
          "velocity": 0.12598425196850394
        },
        {
          "duration": 0.16666649999999983,
          "durationTicks": 192,
          "midi": 63,
          "name": "D#4",
          "ticks": 16704,
          "time": 14.4999855,
          "velocity": 0.12598425196850394
        },
        {
          "duration": 0.16666649999999983,
          "durationTicks": 192,
          "midi": 60,
          "name": "C4",
          "ticks": 16704,
          "time": 14.4999855,
          "velocity": 0.12598425196850394
        },
        {
          "duration": 0.16666649999999983,
          "durationTicks": 192,
          "midi": 68,
          "name": "G#4",
          "ticks": 16704,
          "time": 14.4999855,
          "velocity": 0.12598425196850394
        },
        {
          "duration": 0.16666649999999983,
          "durationTicks": 192,
          "midi": 63,
          "name": "D#4",
          "ticks": 16896,
          "time": 14.666652,
          "velocity": 0.12598425196850394
        },
        {
          "duration": 0.16666649999999983,
          "durationTicks": 192,
          "midi": 65,
          "name": "F4",
          "ticks": 16896,
          "time": 14.666652,
          "velocity": 0.12598425196850394
        },
        {
          "duration": 0.16666649999999983,
          "durationTicks": 192,
          "midi": 60,
          "name": "C4",
          "ticks": 16896,
          "time": 14.666652,
          "velocity": 0.12598425196850394
        },
        {
          "duration": 0.16666649999999983,
          "durationTicks": 192,
          "midi": 63,
          "name": "D#4",
          "ticks": 17088,
          "time": 14.833318499999999,
          "velocity": 0.12598425196850394
        },
        {
          "duration": 0.16666649999999983,
          "durationTicks": 192,
          "midi": 65,
          "name": "F4",
          "ticks": 17088,
          "time": 14.833318499999999,
          "velocity": 0.12598425196850394
        },
        {
          "duration": 0.16666649999999983,
          "durationTicks": 192,
          "midi": 60,
          "name": "C4",
          "ticks": 17088,
          "time": 14.833318499999999,
          "velocity": 0.12598425196850394
        },
        {
          "duration": 0.1666665000000016,
          "durationTicks": 192,
          "midi": 65,
          "name": "F4",
          "ticks": 17280,
          "time": 14.999984999999999,
          "velocity": 0.12598425196850394
        },
        {
          "duration": 0.1666665000000016,
          "durationTicks": 192,
          "midi": 63,
          "name": "D#4",
          "ticks": 17280,
          "time": 14.999984999999999,
          "velocity": 0.12598425196850394
        },
        {
          "duration": 0.1666665000000016,
          "durationTicks": 192,
          "midi": 60,
          "name": "C4",
          "ticks": 17280,
          "time": 14.999984999999999,
          "velocity": 0.12598425196850394
        },
        {
          "duration": 0.16666649999999983,
          "durationTicks": 192,
          "midi": 60,
          "name": "C4",
          "ticks": 17472,
          "time": 15.1666515,
          "velocity": 0.12598425196850394
        },
        {
          "duration": 0.16666649999999983,
          "durationTicks": 192,
          "midi": 63,
          "name": "D#4",
          "ticks": 17472,
          "time": 15.1666515,
          "velocity": 0.12598425196850394
        },
        {
          "duration": 0.16666649999999983,
          "durationTicks": 192,
          "midi": 65,
          "name": "F4",
          "ticks": 17472,
          "time": 15.1666515,
          "velocity": 0.12598425196850394
        },
        {
          "duration": 0.16666649999999983,
          "durationTicks": 192,
          "midi": 63,
          "name": "D#4",
          "ticks": 17664,
          "time": 15.333318,
          "velocity": 0.12598425196850394
        },
        {
          "duration": 0.16666649999999983,
          "durationTicks": 192,
          "midi": 65,
          "name": "F4",
          "ticks": 17664,
          "time": 15.333318,
          "velocity": 0.12598425196850394
        },
        {
          "duration": 0.16666649999999983,
          "durationTicks": 192,
          "midi": 60,
          "name": "C4",
          "ticks": 17664,
          "time": 15.333318,
          "velocity": 0.12598425196850394
        },
        {
          "duration": 0.16666649999999983,
          "durationTicks": 192,
          "midi": 65,
          "name": "F4",
          "ticks": 17856,
          "time": 15.4999845,
          "velocity": 0.12598425196850394
        },
        {
          "duration": 0.16666649999999983,
          "durationTicks": 192,
          "midi": 60,
          "name": "C4",
          "ticks": 17856,
          "time": 15.4999845,
          "velocity": 0.12598425196850394
        },
        {
          "duration": 0.16666649999999983,
          "durationTicks": 192,
          "midi": 63,
          "name": "D#4",
          "ticks": 17856,
          "time": 15.4999845,
          "velocity": 0.12598425196850394
        },
        {
          "duration": 0.16666649999999983,
          "durationTicks": 192,
          "midi": 65,
          "name": "F4",
          "ticks": 18048,
          "time": 15.666651,
          "velocity": 0.12598425196850394
        },
        {
          "duration": 0.16666649999999983,
          "durationTicks": 192,
          "midi": 63,
          "name": "D#4",
          "ticks": 18048,
          "time": 15.666651,
          "velocity": 0.12598425196850394
        },
        {
          "duration": 0.16666649999999983,
          "durationTicks": 192,
          "midi": 60,
          "name": "C4",
          "ticks": 18048,
          "time": 15.666651,
          "velocity": 0.12598425196850394
        },
        {
          "duration": 0.16666649999999983,
          "durationTicks": 192,
          "midi": 63,
          "name": "D#4",
          "ticks": 18240,
          "time": 15.8333175,
          "velocity": 0.12598425196850394
        },
        {
          "duration": 0.16666649999999983,
          "durationTicks": 192,
          "midi": 60,
          "name": "C4",
          "ticks": 18240,
          "time": 15.8333175,
          "velocity": 0.12598425196850394
        },
        {
          "duration": 0.16666649999999983,
          "durationTicks": 192,
          "midi": 65,
          "name": "F4",
          "ticks": 18240,
          "time": 15.8333175,
          "velocity": 0.12598425196850394
        },
        {
          "duration": 0.16666649999999983,
          "durationTicks": 192,
          "midi": 65,
          "name": "F4",
          "ticks": 18432,
          "time": 15.999984,
          "velocity": 0.12598425196850394
        },
        {
          "duration": 0.16666649999999983,
          "durationTicks": 192,
          "midi": 61,
          "name": "C#4",
          "ticks": 18432,
          "time": 15.999984,
          "velocity": 0.12598425196850394
        },
        {
          "duration": 0.16666649999999983,
          "durationTicks": 192,
          "midi": 68,
          "name": "G#4",
          "ticks": 18432,
          "time": 15.999984,
          "velocity": 0.12598425196850394
        },
        {
          "duration": 0.1666665000000016,
          "durationTicks": 192,
          "midi": 61,
          "name": "C#4",
          "ticks": 18624,
          "time": 16.1666505,
          "velocity": 0.12598425196850394
        },
        {
          "duration": 0.1666665000000016,
          "durationTicks": 192,
          "midi": 65,
          "name": "F4",
          "ticks": 18624,
          "time": 16.1666505,
          "velocity": 0.12598425196850394
        },
        {
          "duration": 0.1666665000000016,
          "durationTicks": 192,
          "midi": 68,
          "name": "G#4",
          "ticks": 18624,
          "time": 16.1666505,
          "velocity": 0.12598425196850394
        },
        {
          "duration": 0.16666649999999805,
          "durationTicks": 192,
          "midi": 61,
          "name": "C#4",
          "ticks": 18816,
          "time": 16.333317,
          "velocity": 0.12598425196850394
        },
        {
          "duration": 0.16666649999999805,
          "durationTicks": 192,
          "midi": 65,
          "name": "F4",
          "ticks": 18816,
          "time": 16.333317,
          "velocity": 0.12598425196850394
        },
        {
          "duration": 0.16666649999999805,
          "durationTicks": 192,
          "midi": 68,
          "name": "G#4",
          "ticks": 18816,
          "time": 16.333317,
          "velocity": 0.12598425196850394
        },
        {
          "duration": 0.1666665000000016,
          "durationTicks": 192,
          "midi": 61,
          "name": "C#4",
          "ticks": 19008,
          "time": 16.4999835,
          "velocity": 0.12598425196850394
        },
        {
          "duration": 0.1666665000000016,
          "durationTicks": 192,
          "midi": 65,
          "name": "F4",
          "ticks": 19008,
          "time": 16.4999835,
          "velocity": 0.12598425196850394
        },
        {
          "duration": 0.1666665000000016,
          "durationTicks": 192,
          "midi": 68,
          "name": "G#4",
          "ticks": 19008,
          "time": 16.4999835,
          "velocity": 0.12598425196850394
        },
        {
          "duration": 0.16666649999999805,
          "durationTicks": 192,
          "midi": 65,
          "name": "F4",
          "ticks": 19200,
          "time": 16.66665,
          "velocity": 0.12598425196850394
        },
        {
          "duration": 0.16666649999999805,
          "durationTicks": 192,
          "midi": 61,
          "name": "C#4",
          "ticks": 19200,
          "time": 16.66665,
          "velocity": 0.12598425196850394
        },
        {
          "duration": 0.16666649999999805,
          "durationTicks": 192,
          "midi": 68,
          "name": "G#4",
          "ticks": 19200,
          "time": 16.66665,
          "velocity": 0.12598425196850394
        },
        {
          "duration": 0.1666665000000016,
          "durationTicks": 192,
          "midi": 61,
          "name": "C#4",
          "ticks": 19392,
          "time": 16.8333165,
          "velocity": 0.12598425196850394
        },
        {
          "duration": 0.1666665000000016,
          "durationTicks": 192,
          "midi": 65,
          "name": "F4",
          "ticks": 19392,
          "time": 16.8333165,
          "velocity": 0.12598425196850394
        },
        {
          "duration": 0.1666665000000016,
          "durationTicks": 192,
          "midi": 68,
          "name": "G#4",
          "ticks": 19392,
          "time": 16.8333165,
          "velocity": 0.12598425196850394
        },
        {
          "duration": 0.16666649999999805,
          "durationTicks": 192,
          "midi": 61,
          "name": "C#4",
          "ticks": 19584,
          "time": 16.999983,
          "velocity": 0.12598425196850394
        },
        {
          "duration": 0.16666649999999805,
          "durationTicks": 192,
          "midi": 65,
          "name": "F4",
          "ticks": 19584,
          "time": 16.999983,
          "velocity": 0.12598425196850394
        },
        {
          "duration": 0.16666649999999805,
          "durationTicks": 192,
          "midi": 68,
          "name": "G#4",
          "ticks": 19584,
          "time": 16.999983,
          "velocity": 0.12598425196850394
        },
        {
          "duration": 0.1666665000000016,
          "durationTicks": 192,
          "midi": 61,
          "name": "C#4",
          "ticks": 19776,
          "time": 17.1666495,
          "velocity": 0.12598425196850394
        },
        {
          "duration": 0.1666665000000016,
          "durationTicks": 192,
          "midi": 65,
          "name": "F4",
          "ticks": 19776,
          "time": 17.1666495,
          "velocity": 0.12598425196850394
        },
        {
          "duration": 0.1666665000000016,
          "durationTicks": 192,
          "midi": 68,
          "name": "G#4",
          "ticks": 19776,
          "time": 17.1666495,
          "velocity": 0.12598425196850394
        },
        {
          "duration": 0.16666649999999805,
          "durationTicks": 192,
          "midi": 65,
          "name": "F4",
          "ticks": 19968,
          "time": 17.333316,
          "velocity": 0.12598425196850394
        },
        {
          "duration": 0.16666649999999805,
          "durationTicks": 192,
          "midi": 61,
          "name": "C#4",
          "ticks": 19968,
          "time": 17.333316,
          "velocity": 0.12598425196850394
        },
        {
          "duration": 0.16666649999999805,
          "durationTicks": 192,
          "midi": 68,
          "name": "G#4",
          "ticks": 19968,
          "time": 17.333316,
          "velocity": 0.12598425196850394
        },
        {
          "duration": 0.1666665000000016,
          "durationTicks": 192,
          "midi": 61,
          "name": "C#4",
          "ticks": 20160,
          "time": 17.499982499999998,
          "velocity": 0.12598425196850394
        },
        {
          "duration": 0.1666665000000016,
          "durationTicks": 192,
          "midi": 65,
          "name": "F4",
          "ticks": 20160,
          "time": 17.499982499999998,
          "velocity": 0.12598425196850394
        },
        {
          "duration": 0.1666665000000016,
          "durationTicks": 192,
          "midi": 68,
          "name": "G#4",
          "ticks": 20160,
          "time": 17.499982499999998,
          "velocity": 0.12598425196850394
        },
        {
          "duration": 0.1666665000000016,
          "durationTicks": 192,
          "midi": 65,
          "name": "F4",
          "ticks": 20352,
          "time": 17.666649,
          "velocity": 0.12598425196850394
        },
        {
          "duration": 0.1666665000000016,
          "durationTicks": 192,
          "midi": 68,
          "name": "G#4",
          "ticks": 20352,
          "time": 17.666649,
          "velocity": 0.12598425196850394
        },
        {
          "duration": 0.1666665000000016,
          "durationTicks": 192,
          "midi": 61,
          "name": "C#4",
          "ticks": 20352,
          "time": 17.666649,
          "velocity": 0.12598425196850394
        },
        {
          "duration": 0.16666649999999805,
          "durationTicks": 192,
          "midi": 61,
          "name": "C#4",
          "ticks": 20544,
          "time": 17.8333155,
          "velocity": 0.12598425196850394
        },
        {
          "duration": 0.16666649999999805,
          "durationTicks": 192,
          "midi": 68,
          "name": "G#4",
          "ticks": 20544,
          "time": 17.8333155,
          "velocity": 0.12598425196850394
        },
        {
          "duration": 0.16666649999999805,
          "durationTicks": 192,
          "midi": 65,
          "name": "F4",
          "ticks": 20544,
          "time": 17.8333155,
          "velocity": 0.12598425196850394
        },
        {
          "duration": 0.1666665000000016,
          "durationTicks": 192,
          "midi": 65,
          "name": "F4",
          "ticks": 20736,
          "time": 17.999982,
          "velocity": 0.12598425196850394
        },
        {
          "duration": 0.1666665000000016,
          "durationTicks": 192,
          "midi": 61,
          "name": "C#4",
          "ticks": 20736,
          "time": 17.999982,
          "velocity": 0.12598425196850394
        },
        {
          "duration": 0.1666665000000016,
          "durationTicks": 192,
          "midi": 68,
          "name": "G#4",
          "ticks": 20736,
          "time": 17.999982,
          "velocity": 0.12598425196850394
        },
        {
          "duration": 0.16666649999999805,
          "durationTicks": 192,
          "midi": 61,
          "name": "C#4",
          "ticks": 20928,
          "time": 18.1666485,
          "velocity": 0.12598425196850394
        },
        {
          "duration": 0.16666649999999805,
          "durationTicks": 192,
          "midi": 65,
          "name": "F4",
          "ticks": 20928,
          "time": 18.1666485,
          "velocity": 0.12598425196850394
        },
        {
          "duration": 0.16666649999999805,
          "durationTicks": 192,
          "midi": 68,
          "name": "G#4",
          "ticks": 20928,
          "time": 18.1666485,
          "velocity": 0.12598425196850394
        },
        {
          "duration": 0.1666665000000016,
          "durationTicks": 192,
          "midi": 61,
          "name": "C#4",
          "ticks": 21120,
          "time": 18.333315,
          "velocity": 0.12598425196850394
        },
        {
          "duration": 0.1666665000000016,
          "durationTicks": 192,
          "midi": 68,
          "name": "G#4",
          "ticks": 21120,
          "time": 18.333315,
          "velocity": 0.12598425196850394
        },
        {
          "duration": 0.1666665000000016,
          "durationTicks": 192,
          "midi": 65,
          "name": "F4",
          "ticks": 21120,
          "time": 18.333315,
          "velocity": 0.12598425196850394
        },
        {
          "duration": 0.16666649999999805,
          "durationTicks": 192,
          "midi": 68,
          "name": "G#4",
          "ticks": 21312,
          "time": 18.4999815,
          "velocity": 0.12598425196850394
        },
        {
          "duration": 0.16666649999999805,
          "durationTicks": 192,
          "midi": 61,
          "name": "C#4",
          "ticks": 21312,
          "time": 18.4999815,
          "velocity": 0.12598425196850394
        },
        {
          "duration": 0.16666649999999805,
          "durationTicks": 192,
          "midi": 65,
          "name": "F4",
          "ticks": 21312,
          "time": 18.4999815,
          "velocity": 0.12598425196850394
        },
        {
          "duration": 0.1666665000000016,
          "durationTicks": 192,
          "midi": 65,
          "name": "F4",
          "ticks": 21504,
          "time": 18.666648,
          "velocity": 0.12598425196850394
        },
        {
          "duration": 0.1666665000000016,
          "durationTicks": 192,
          "midi": 67,
          "name": "G4",
          "ticks": 21504,
          "time": 18.666648,
          "velocity": 0.12598425196850394
        },
        {
          "duration": 0.1666665000000016,
          "durationTicks": 192,
          "midi": 62,
          "name": "D4",
          "ticks": 21504,
          "time": 18.666648,
          "velocity": 0.12598425196850394
        },
        {
          "duration": 0.1666665000000016,
          "durationTicks": 192,
          "midi": 69,
          "name": "A4",
          "ticks": 21504,
          "time": 18.666648,
          "velocity": 0.12598425196850394
        },
        {
          "duration": 0.16666649999999805,
          "durationTicks": 192,
          "midi": 62,
          "name": "D4",
          "ticks": 21696,
          "time": 18.8333145,
          "velocity": 0.12598425196850394
        },
        {
          "duration": 0.16666649999999805,
          "durationTicks": 192,
          "midi": 69,
          "name": "A4",
          "ticks": 21696,
          "time": 18.8333145,
          "velocity": 0.12598425196850394
        },
        {
          "duration": 0.16666649999999805,
          "durationTicks": 192,
          "midi": 67,
          "name": "G4",
          "ticks": 21696,
          "time": 18.8333145,
          "velocity": 0.12598425196850394
        },
        {
          "duration": 0.16666649999999805,
          "durationTicks": 192,
          "midi": 65,
          "name": "F4",
          "ticks": 21696,
          "time": 18.8333145,
          "velocity": 0.12598425196850394
        },
        {
          "duration": 0.1666665000000016,
          "durationTicks": 192,
          "midi": 62,
          "name": "D4",
          "ticks": 21888,
          "time": 18.999981,
          "velocity": 0.12598425196850394
        },
        {
          "duration": 0.1666665000000016,
          "durationTicks": 192,
          "midi": 69,
          "name": "A4",
          "ticks": 21888,
          "time": 18.999981,
          "velocity": 0.12598425196850394
        },
        {
          "duration": 0.1666665000000016,
          "durationTicks": 192,
          "midi": 67,
          "name": "G4",
          "ticks": 21888,
          "time": 18.999981,
          "velocity": 0.12598425196850394
        },
        {
          "duration": 0.1666665000000016,
          "durationTicks": 192,
          "midi": 65,
          "name": "F4",
          "ticks": 21888,
          "time": 18.999981,
          "velocity": 0.12598425196850394
        },
        {
          "duration": 0.16666649999999805,
          "durationTicks": 192,
          "midi": 62,
          "name": "D4",
          "ticks": 22080,
          "time": 19.1666475,
          "velocity": 0.12598425196850394
        },
        {
          "duration": 0.16666649999999805,
          "durationTicks": 192,
          "midi": 67,
          "name": "G4",
          "ticks": 22080,
          "time": 19.1666475,
          "velocity": 0.12598425196850394
        },
        {
          "duration": 0.16666649999999805,
          "durationTicks": 192,
          "midi": 69,
          "name": "A4",
          "ticks": 22080,
          "time": 19.1666475,
          "velocity": 0.12598425196850394
        },
        {
          "duration": 0.16666649999999805,
          "durationTicks": 192,
          "midi": 65,
          "name": "F4",
          "ticks": 22080,
          "time": 19.1666475,
          "velocity": 0.12598425196850394
        },
        {
          "duration": 0.1666665000000016,
          "durationTicks": 192,
          "midi": 62,
          "name": "D4",
          "ticks": 22272,
          "time": 19.333313999999998,
          "velocity": 0.12598425196850394
        },
        {
          "duration": 0.1666665000000016,
          "durationTicks": 192,
          "midi": 65,
          "name": "F4",
          "ticks": 22272,
          "time": 19.333313999999998,
          "velocity": 0.12598425196850394
        },
        {
          "duration": 0.1666665000000016,
          "durationTicks": 192,
          "midi": 69,
          "name": "A4",
          "ticks": 22272,
          "time": 19.333313999999998,
          "velocity": 0.12598425196850394
        },
        {
          "duration": 0.1666665000000016,
          "durationTicks": 192,
          "midi": 67,
          "name": "G4",
          "ticks": 22272,
          "time": 19.333313999999998,
          "velocity": 0.12598425196850394
        },
        {
          "duration": 0.1666665000000016,
          "durationTicks": 192,
          "midi": 65,
          "name": "F4",
          "ticks": 22464,
          "time": 19.4999805,
          "velocity": 0.12598425196850394
        },
        {
          "duration": 0.1666665000000016,
          "durationTicks": 192,
          "midi": 67,
          "name": "G4",
          "ticks": 22464,
          "time": 19.4999805,
          "velocity": 0.12598425196850394
        },
        {
          "duration": 0.1666665000000016,
          "durationTicks": 192,
          "midi": 62,
          "name": "D4",
          "ticks": 22464,
          "time": 19.4999805,
          "velocity": 0.12598425196850394
        },
        {
          "duration": 0.1666665000000016,
          "durationTicks": 192,
          "midi": 69,
          "name": "A4",
          "ticks": 22464,
          "time": 19.4999805,
          "velocity": 0.12598425196850394
        },
        {
          "duration": 0.16666649999999805,
          "durationTicks": 192,
          "midi": 67,
          "name": "G4",
          "ticks": 22656,
          "time": 19.666647,
          "velocity": 0.12598425196850394
        },
        {
          "duration": 0.16666649999999805,
          "durationTicks": 192,
          "midi": 69,
          "name": "A4",
          "ticks": 22656,
          "time": 19.666647,
          "velocity": 0.12598425196850394
        },
        {
          "duration": 0.16666649999999805,
          "durationTicks": 192,
          "midi": 62,
          "name": "D4",
          "ticks": 22656,
          "time": 19.666647,
          "velocity": 0.12598425196850394
        },
        {
          "duration": 0.16666649999999805,
          "durationTicks": 192,
          "midi": 65,
          "name": "F4",
          "ticks": 22656,
          "time": 19.666647,
          "velocity": 0.12598425196850394
        },
        {
          "duration": 0.1666665000000016,
          "durationTicks": 192,
          "midi": 67,
          "name": "G4",
          "ticks": 22848,
          "time": 19.8333135,
          "velocity": 0.12598425196850394
        },
        {
          "duration": 0.1666665000000016,
          "durationTicks": 192,
          "midi": 69,
          "name": "A4",
          "ticks": 22848,
          "time": 19.8333135,
          "velocity": 0.12598425196850394
        },
        {
          "duration": 0.1666665000000016,
          "durationTicks": 192,
          "midi": 65,
          "name": "F4",
          "ticks": 22848,
          "time": 19.8333135,
          "velocity": 0.12598425196850394
        },
        {
          "duration": 0.1666665000000016,
          "durationTicks": 192,
          "midi": 62,
          "name": "D4",
          "ticks": 22848,
          "time": 19.8333135,
          "velocity": 0.12598425196850394
        },
        {
          "duration": 0.16666649999999805,
          "durationTicks": 192,
          "midi": 65,
          "name": "F4",
          "ticks": 23040,
          "time": 19.99998,
          "velocity": 0.12598425196850394
        },
        {
          "duration": 0.16666649999999805,
          "durationTicks": 192,
          "midi": 62,
          "name": "D4",
          "ticks": 23040,
          "time": 19.99998,
          "velocity": 0.12598425196850394
        },
        {
          "duration": 0.16666649999999805,
          "durationTicks": 192,
          "midi": 69,
          "name": "A4",
          "ticks": 23040,
          "time": 19.99998,
          "velocity": 0.12598425196850394
        },
        {
          "duration": 0.16666649999999805,
          "durationTicks": 192,
          "midi": 67,
          "name": "G4",
          "ticks": 23040,
          "time": 19.99998,
          "velocity": 0.12598425196850394
        },
        {
          "duration": 0.1666665000000016,
          "durationTicks": 192,
          "midi": 67,
          "name": "G4",
          "ticks": 23232,
          "time": 20.1666465,
          "velocity": 0.12598425196850394
        },
        {
          "duration": 0.1666665000000016,
          "durationTicks": 192,
          "midi": 65,
          "name": "F4",
          "ticks": 23232,
          "time": 20.1666465,
          "velocity": 0.12598425196850394
        },
        {
          "duration": 0.1666665000000016,
          "durationTicks": 192,
          "midi": 62,
          "name": "D4",
          "ticks": 23232,
          "time": 20.1666465,
          "velocity": 0.12598425196850394
        },
        {
          "duration": 0.1666665000000016,
          "durationTicks": 192,
          "midi": 69,
          "name": "A4",
          "ticks": 23232,
          "time": 20.1666465,
          "velocity": 0.12598425196850394
        },
        {
          "duration": 0.16666649999999805,
          "durationTicks": 192,
          "midi": 62,
          "name": "D4",
          "ticks": 23424,
          "time": 20.333313,
          "velocity": 0.12598425196850394
        },
        {
          "duration": 0.16666649999999805,
          "durationTicks": 192,
          "midi": 69,
          "name": "A4",
          "ticks": 23424,
          "time": 20.333313,
          "velocity": 0.12598425196850394
        },
        {
          "duration": 0.16666649999999805,
          "durationTicks": 192,
          "midi": 65,
          "name": "F4",
          "ticks": 23424,
          "time": 20.333313,
          "velocity": 0.12598425196850394
        },
        {
          "duration": 0.16666649999999805,
          "durationTicks": 192,
          "midi": 67,
          "name": "G4",
          "ticks": 23424,
          "time": 20.333313,
          "velocity": 0.12598425196850394
        },
        {
          "duration": 0.1666665000000016,
          "durationTicks": 192,
          "midi": 62,
          "name": "D4",
          "ticks": 23616,
          "time": 20.4999795,
          "velocity": 0.12598425196850394
        },
        {
          "duration": 0.1666665000000016,
          "durationTicks": 192,
          "midi": 67,
          "name": "G4",
          "ticks": 23616,
          "time": 20.4999795,
          "velocity": 0.12598425196850394
        },
        {
          "duration": 0.1666665000000016,
          "durationTicks": 192,
          "midi": 69,
          "name": "A4",
          "ticks": 23616,
          "time": 20.4999795,
          "velocity": 0.12598425196850394
        },
        {
          "duration": 0.1666665000000016,
          "durationTicks": 192,
          "midi": 65,
          "name": "F4",
          "ticks": 23616,
          "time": 20.4999795,
          "velocity": 0.12598425196850394
        },
        {
          "duration": 0.16666649999999805,
          "durationTicks": 192,
          "midi": 67,
          "name": "G4",
          "ticks": 23808,
          "time": 20.666646,
          "velocity": 0.12598425196850394
        },
        {
          "duration": 0.16666649999999805,
          "durationTicks": 192,
          "midi": 65,
          "name": "F4",
          "ticks": 23808,
          "time": 20.666646,
          "velocity": 0.12598425196850394
        },
        {
          "duration": 0.16666649999999805,
          "durationTicks": 192,
          "midi": 62,
          "name": "D4",
          "ticks": 23808,
          "time": 20.666646,
          "velocity": 0.12598425196850394
        },
        {
          "duration": 0.16666649999999805,
          "durationTicks": 192,
          "midi": 69,
          "name": "A4",
          "ticks": 23808,
          "time": 20.666646,
          "velocity": 0.12598425196850394
        },
        {
          "duration": 0.1666665000000016,
          "durationTicks": 192,
          "midi": 62,
          "name": "D4",
          "ticks": 24000,
          "time": 20.833312499999998,
          "velocity": 0.12598425196850394
        },
        {
          "duration": 0.1666665000000016,
          "durationTicks": 192,
          "midi": 67,
          "name": "G4",
          "ticks": 24000,
          "time": 20.833312499999998,
          "velocity": 0.12598425196850394
        },
        {
          "duration": 0.1666665000000016,
          "durationTicks": 192,
          "midi": 69,
          "name": "A4",
          "ticks": 24000,
          "time": 20.833312499999998,
          "velocity": 0.12598425196850394
        },
        {
          "duration": 0.1666665000000016,
          "durationTicks": 192,
          "midi": 65,
          "name": "F4",
          "ticks": 24000,
          "time": 20.833312499999998,
          "velocity": 0.12598425196850394
        },
        {
          "duration": 0.16666649999999805,
          "durationTicks": 192,
          "midi": 67,
          "name": "G4",
          "ticks": 24192,
          "time": 20.999979,
          "velocity": 0.12598425196850394
        },
        {
          "duration": 0.16666649999999805,
          "durationTicks": 192,
          "midi": 69,
          "name": "A4",
          "ticks": 24192,
          "time": 20.999979,
          "velocity": 0.12598425196850394
        },
        {
          "duration": 0.16666649999999805,
          "durationTicks": 192,
          "midi": 65,
          "name": "F4",
          "ticks": 24192,
          "time": 20.999979,
          "velocity": 0.12598425196850394
        },
        {
          "duration": 0.16666649999999805,
          "durationTicks": 192,
          "midi": 62,
          "name": "D4",
          "ticks": 24192,
          "time": 20.999979,
          "velocity": 0.12598425196850394
        },
        {
          "duration": 0.1666665000000016,
          "durationTicks": 192,
          "midi": 62,
          "name": "D4",
          "ticks": 24384,
          "time": 21.166645499999998,
          "velocity": 0.12598425196850394
        },
        {
          "duration": 0.1666665000000016,
          "durationTicks": 192,
          "midi": 67,
          "name": "G4",
          "ticks": 24384,
          "time": 21.166645499999998,
          "velocity": 0.12598425196850394
        },
        {
          "duration": 0.1666665000000016,
          "durationTicks": 192,
          "midi": 69,
          "name": "A4",
          "ticks": 24384,
          "time": 21.166645499999998,
          "velocity": 0.12598425196850394
        },
        {
          "duration": 0.1666665000000016,
          "durationTicks": 192,
          "midi": 65,
          "name": "F4",
          "ticks": 24384,
          "time": 21.166645499999998,
          "velocity": 0.12598425196850394
        }
      ],
      "endOfTrackTicks": 24576
    },
    {
      "channel": 1,
      "controlChanges": {},
      "pitchBends": [],
      "instrument": {
        "family": "synth lead",
        "number": 87,
        "name": "lead 8 (bass + lead)"
      },
      "name": "Synth Pluck",
      "notes": [
        {
          "duration": 0.08333324999999903,
          "durationTicks": 96,
          "midi": 56,
          "name": "G#3",
          "ticks": 24576,
          "time": 21.333312,
          "velocity": 0.4881889763779528
        },
        {
          "duration": 0.08333324999999903,
          "durationTicks": 96,
          "midi": 56,
          "name": "G#3",
          "ticks": 24960,
          "time": 21.666645,
          "velocity": 0.4881889763779528
        },
        {
          "duration": 0.08333324999999903,
          "durationTicks": 96,
          "midi": 58,
          "name": "A#3",
          "ticks": 25152,
          "time": 21.8333115,
          "velocity": 0.4881889763779528
        },
        {
          "duration": 0.08333324999999903,
          "durationTicks": 96,
          "midi": 60,
          "name": "C4",
          "ticks": 25344,
          "time": 21.999978,
          "velocity": 0.4881889763779528
        },
        {
          "duration": 0.08333325000000258,
          "durationTicks": 96,
          "midi": 56,
          "name": "G#3",
          "ticks": 25728,
          "time": 22.333311,
          "velocity": 0.4881889763779528
        },
        {
          "duration": 0.08333325000000258,
          "durationTicks": 96,
          "midi": 58,
          "name": "A#3",
          "ticks": 26112,
          "time": 22.666643999999998,
          "velocity": 0.4881889763779528
        },
        {
          "duration": 0.08333325000000258,
          "durationTicks": 96,
          "midi": 58,
          "name": "A#3",
          "ticks": 26496,
          "time": 22.999976999999998,
          "velocity": 0.4881889763779528
        },
        {
          "duration": 0.08333324999999903,
          "durationTicks": 96,
          "midi": 60,
          "name": "C4",
          "ticks": 26688,
          "time": 23.1666435,
          "velocity": 0.4881889763779528
        },
        {
          "duration": 0.08333324999999903,
          "durationTicks": 96,
          "midi": 55,
          "name": "G3",
          "ticks": 26880,
          "time": 23.33331,
          "velocity": 0.4881889763779528
        },
        {
          "duration": 0.08333324999999903,
          "durationTicks": 96,
          "midi": 51,
          "name": "D#3",
          "ticks": 27264,
          "time": 23.666643,
          "velocity": 0.4881889763779528
        },
        {
          "duration": 0.08333324999999903,
          "durationTicks": 96,
          "midi": 56,
          "name": "G#3",
          "ticks": 27648,
          "time": 23.999976,
          "velocity": 0.4881889763779528
        },
        {
          "duration": 0.08333324999999903,
          "durationTicks": 96,
          "midi": 56,
          "name": "G#3",
          "ticks": 28032,
          "time": 24.333309,
          "velocity": 0.4881889763779528
        },
        {
          "duration": 0.08333325000000258,
          "durationTicks": 96,
          "midi": 58,
          "name": "A#3",
          "ticks": 28224,
          "time": 24.499975499999998,
          "velocity": 0.4881889763779528
        },
        {
          "duration": 0.08333324999999903,
          "durationTicks": 96,
          "midi": 60,
          "name": "C4",
          "ticks": 28416,
          "time": 24.666642,
          "velocity": 0.4881889763779528
        },
        {
          "duration": 0.08333324999999903,
          "durationTicks": 96,
          "midi": 68,
          "name": "G#4",
          "ticks": 28800,
          "time": 24.999975,
          "velocity": 0.4881889763779528
        },
        {
          "duration": 0.08333324999999903,
          "durationTicks": 96,
          "midi": 67,
          "name": "G4",
          "ticks": 29184,
          "time": 25.333308,
          "velocity": 0.4881889763779528
        },
        {
          "duration": 0.08333324999999903,
          "durationTicks": 96,
          "midi": 63,
          "name": "D#4",
          "ticks": 29568,
          "time": 25.666641,
          "velocity": 0.4881889763779528
        },
        {
          "duration": 0.08333325000000258,
          "durationTicks": 96,
          "midi": 58,
          "name": "A#3",
          "ticks": 29952,
          "time": 25.999973999999998,
          "velocity": 0.4881889763779528
        },
        {
          "duration": 0.08333325000000258,
          "durationTicks": 96,
          "midi": 55,
          "name": "G3",
          "ticks": 30336,
          "time": 26.333306999999998,
          "velocity": 0.4881889763779528
        },
        {
          "duration": 0.08333324999999903,
          "durationTicks": 96,
          "midi": 56,
          "name": "G#3",
          "ticks": 30720,
          "time": 26.66664,
          "velocity": 0.4881889763779528
        },
        {
          "duration": 0.08333324999999903,
          "durationTicks": 96,
          "midi": 56,
          "name": "G#3",
          "ticks": 31104,
          "time": 26.999973,
          "velocity": 0.4881889763779528
        },
        {
          "duration": 0.08333324999999903,
          "durationTicks": 96,
          "midi": 58,
          "name": "A#3",
          "ticks": 31296,
          "time": 27.1666395,
          "velocity": 0.4881889763779528
        },
        {
          "duration": 0.08333324999999903,
          "durationTicks": 96,
          "midi": 60,
          "name": "C4",
          "ticks": 31488,
          "time": 27.333306,
          "velocity": 0.4881889763779528
        },
        {
          "duration": 0.08333324999999903,
          "durationTicks": 96,
          "midi": 56,
          "name": "G#3",
          "ticks": 31872,
          "time": 27.666639,
          "velocity": 0.4881889763779528
        },
        {
          "duration": 0.08333324999999903,
          "durationTicks": 96,
          "midi": 58,
          "name": "A#3",
          "ticks": 32256,
          "time": 27.999972,
          "velocity": 0.4881889763779528
        },
        {
          "duration": 0.08333324999999903,
          "durationTicks": 96,
          "midi": 58,
          "name": "A#3",
          "ticks": 32640,
          "time": 28.333305,
          "velocity": 0.4881889763779528
        },
        {
          "duration": 0.08333324999999903,
          "durationTicks": 96,
          "midi": 60,
          "name": "C4",
          "ticks": 32832,
          "time": 28.4999715,
          "velocity": 0.4881889763779528
        },
        {
          "duration": 0.08333324999999903,
          "durationTicks": 96,
          "midi": 55,
          "name": "G3",
          "ticks": 33024,
          "time": 28.666638,
          "velocity": 0.4881889763779528
        },
        {
          "duration": 0.08333324999999903,
          "durationTicks": 96,
          "midi": 51,
          "name": "D#3",
          "ticks": 33408,
          "time": 28.999971,
          "velocity": 0.4881889763779528
        },
        {
          "duration": 0.08333325000000258,
          "durationTicks": 96,
          "midi": 57,
          "name": "A3",
          "ticks": 33792,
          "time": 29.333304,
          "velocity": 0.4881889763779528
        },
        {
          "duration": 0.08333325000000258,
          "durationTicks": 96,
          "midi": 57,
          "name": "A3",
          "ticks": 34176,
          "time": 29.666636999999998,
          "velocity": 0.4881889763779528
        },
        {
          "duration": 0.08333324999999903,
          "durationTicks": 96,
          "midi": 58,
          "name": "A#3",
          "ticks": 34368,
          "time": 29.8333035,
          "velocity": 0.4881889763779528
        },
        {
          "duration": 0.08333325000000258,
          "durationTicks": 96,
          "midi": 60,
          "name": "C4",
          "ticks": 34560,
          "time": 29.999969999999998,
          "velocity": 0.4881889763779528
        },
        {
          "duration": 0.08333324999999903,
          "durationTicks": 96,
          "midi": 65,
          "name": "F4",
          "ticks": 34944,
          "time": 30.333303,
          "velocity": 0.4881889763779528
        },
        {
          "duration": 0.08333324999999903,
          "durationTicks": 96,
          "midi": 64,
          "name": "E4",
          "ticks": 35328,
          "time": 30.666636,
          "velocity": 0.4881889763779528
        },
        {
          "duration": 0.08333324999999903,
          "durationTicks": 96,
          "midi": 67,
          "name": "G4",
          "ticks": 35712,
          "time": 30.999969,
          "velocity": 0.4881889763779528
        },
        {
          "duration": 0.08333324999999903,
          "durationTicks": 96,
          "midi": 65,
          "name": "F4",
          "ticks": 36096,
          "time": 31.333302,
          "velocity": 0.4881889763779528
        },
        {
          "duration": 0.08333324999999903,
          "durationTicks": 96,
          "midi": 56,
          "name": "G#3",
          "ticks": 36864,
          "time": 31.999968,
          "velocity": 0.4881889763779528
        },
        {
          "duration": 0.08333324999999903,
          "durationTicks": 96,
          "midi": 53,
          "name": "F3",
          "ticks": 36864,
          "time": 31.999968,
          "velocity": 0.4881889763779528
        },
        {
          "duration": 0.08333325000000258,
          "durationTicks": 96,
          "midi": 56,
          "name": "G#3",
          "ticks": 37248,
          "time": 32.333301,
          "velocity": 0.4881889763779528
        },
        {
          "duration": 0.08333325000000258,
          "durationTicks": 96,
          "midi": 53,
          "name": "F3",
          "ticks": 37248,
          "time": 32.333301,
          "velocity": 0.4881889763779528
        },
        {
          "duration": 0.08333325000000258,
          "durationTicks": 96,
          "midi": 58,
          "name": "A#3",
          "ticks": 37440,
          "time": 32.4999675,
          "velocity": 0.4881889763779528
        },
        {
          "duration": 0.08333325000000258,
          "durationTicks": 96,
          "midi": 55,
          "name": "G3",
          "ticks": 37440,
          "time": 32.4999675,
          "velocity": 0.4881889763779528
        },
        {
          "duration": 0.08333324999999547,
          "durationTicks": 96,
          "midi": 60,
          "name": "C4",
          "ticks": 37632,
          "time": 32.666634,
          "velocity": 0.4881889763779528
        },
        {
          "duration": 0.08333324999999547,
          "durationTicks": 96,
          "midi": 56,
          "name": "G#3",
          "ticks": 37632,
          "time": 32.666634,
          "velocity": 0.4881889763779528
        },
        {
          "duration": 0.08333325000000258,
          "durationTicks": 96,
          "midi": 56,
          "name": "G#3",
          "ticks": 38016,
          "time": 32.999967,
          "velocity": 0.4881889763779528
        },
        {
          "duration": 0.08333325000000258,
          "durationTicks": 96,
          "midi": 53,
          "name": "F3",
          "ticks": 38016,
          "time": 32.999967,
          "velocity": 0.4881889763779528
        },
        {
          "duration": 0.08333324999999547,
          "durationTicks": 96,
          "midi": 55,
          "name": "G3",
          "ticks": 38400,
          "time": 33.3333,
          "velocity": 0.4881889763779528
        },
        {
          "duration": 0.08333324999999547,
          "durationTicks": 96,
          "midi": 58,
          "name": "A#3",
          "ticks": 38400,
          "time": 33.3333,
          "velocity": 0.4881889763779528
        },
        {
          "duration": 0.08333325000000258,
          "durationTicks": 96,
          "midi": 55,
          "name": "G3",
          "ticks": 38784,
          "time": 33.666633,
          "velocity": 0.4881889763779528
        },
        {
          "duration": 0.08333325000000258,
          "durationTicks": 96,
          "midi": 58,
          "name": "A#3",
          "ticks": 38784,
          "time": 33.666633,
          "velocity": 0.4881889763779528
        },
        {
          "duration": 0.08333324999999547,
          "durationTicks": 96,
          "midi": 60,
          "name": "C4",
          "ticks": 38976,
          "time": 33.8332995,
          "velocity": 0.4881889763779528
        },
        {
          "duration": 0.08333324999999547,
          "durationTicks": 96,
          "midi": 56,
          "name": "G#3",
          "ticks": 38976,
          "time": 33.8332995,
          "velocity": 0.4881889763779528
        },
        {
          "duration": 0.08333324999999547,
          "durationTicks": 96,
          "midi": 55,
          "name": "G3",
          "ticks": 39168,
          "time": 33.999966,
          "velocity": 0.4881889763779528
        },
        {
          "duration": 0.08333324999999547,
          "durationTicks": 96,
          "midi": 51,
          "name": "D#3",
          "ticks": 39168,
          "time": 33.999966,
          "velocity": 0.4881889763779528
        },
        {
          "duration": 0.08333325000000258,
          "durationTicks": 96,
          "midi": 48,
          "name": "C3",
          "ticks": 39552,
          "time": 34.333299,
          "velocity": 0.4881889763779528
        },
        {
          "duration": 0.08333325000000258,
          "durationTicks": 96,
          "midi": 51,
          "name": "D#3",
          "ticks": 39552,
          "time": 34.333299,
          "velocity": 0.4881889763779528
        },
        {
          "duration": 0.08333325000000258,
          "durationTicks": 96,
          "midi": 56,
          "name": "G#3",
          "ticks": 39936,
          "time": 34.666632,
          "velocity": 0.4881889763779528
        },
        {
          "duration": 0.08333325000000258,
          "durationTicks": 96,
          "midi": 53,
          "name": "F3",
          "ticks": 39936,
          "time": 34.666632,
          "velocity": 0.4881889763779528
        },
        {
          "duration": 0.08333325000000258,
          "durationTicks": 96,
          "midi": 53,
          "name": "F3",
          "ticks": 40320,
          "time": 34.999964999999996,
          "velocity": 0.4881889763779528
        },
        {
          "duration": 0.08333325000000258,
          "durationTicks": 96,
          "midi": 56,
          "name": "G#3",
          "ticks": 40320,
          "time": 34.999964999999996,
          "velocity": 0.4881889763779528
        },
        {
          "duration": 0.08333324999999547,
          "durationTicks": 96,
          "midi": 58,
          "name": "A#3",
          "ticks": 40512,
          "time": 35.1666315,
          "velocity": 0.4881889763779528
        },
        {
          "duration": 0.08333324999999547,
          "durationTicks": 96,
          "midi": 55,
          "name": "G3",
          "ticks": 40512,
          "time": 35.1666315,
          "velocity": 0.4881889763779528
        },
        {
          "duration": 0.08333325000000258,
          "durationTicks": 96,
          "midi": 56,
          "name": "G#3",
          "ticks": 40704,
          "time": 35.333298,
          "velocity": 0.4881889763779528
        },
        {
          "duration": 0.08333325000000258,
          "durationTicks": 96,
          "midi": 60,
          "name": "C4",
          "ticks": 40704,
          "time": 35.333298,
          "velocity": 0.4881889763779528
        },
        {
          "duration": 0.08333324999999547,
          "durationTicks": 96,
          "midi": 68,
          "name": "G#4",
          "ticks": 41088,
          "time": 35.666631,
          "velocity": 0.4881889763779528
        },
        {
          "duration": 0.08333324999999547,
          "durationTicks": 96,
          "midi": 65,
          "name": "F4",
          "ticks": 41088,
          "time": 35.666631,
          "velocity": 0.4881889763779528
        },
        {
          "duration": 0.08333325000000258,
          "durationTicks": 96,
          "midi": 63,
          "name": "D#4",
          "ticks": 41472,
          "time": 35.999964,
          "velocity": 0.4881889763779528
        },
        {
          "duration": 0.08333325000000258,
          "durationTicks": 96,
          "midi": 67,
          "name": "G4",
          "ticks": 41472,
          "time": 35.999964,
          "velocity": 0.4881889763779528
        },
        {
          "duration": 0.08333324999999547,
          "durationTicks": 96,
          "midi": 60,
          "name": "C4",
          "ticks": 41856,
          "time": 36.333297,
          "velocity": 0.4881889763779528
        },
        {
          "duration": 0.08333324999999547,
          "durationTicks": 96,
          "midi": 63,
          "name": "D#4",
          "ticks": 41856,
          "time": 36.333297,
          "velocity": 0.4881889763779528
        },
        {
          "duration": 0.08333325000000258,
          "durationTicks": 96,
          "midi": 55,
          "name": "G3",
          "ticks": 42240,
          "time": 36.66663,
          "velocity": 0.4881889763779528
        },
        {
          "duration": 0.08333325000000258,
          "durationTicks": 96,
          "midi": 58,
          "name": "A#3",
          "ticks": 42240,
          "time": 36.66663,
          "velocity": 0.4881889763779528
        },
        {
          "duration": 0.08333324999999547,
          "durationTicks": 96,
          "midi": 55,
          "name": "G3",
          "ticks": 42624,
          "time": 36.999963,
          "velocity": 0.4881889763779528
        },
        {
          "duration": 0.08333324999999547,
          "durationTicks": 96,
          "midi": 51,
          "name": "D#3",
          "ticks": 42624,
          "time": 36.999963,
          "velocity": 0.4881889763779528
        },
        {
          "duration": 0.08333325000000258,
          "durationTicks": 96,
          "midi": 56,
          "name": "G#3",
          "ticks": 43008,
          "time": 37.333296,
          "velocity": 0.4881889763779528
        },
        {
          "duration": 0.08333325000000258,
          "durationTicks": 96,
          "midi": 53,
          "name": "F3",
          "ticks": 43008,
          "time": 37.333296,
          "velocity": 0.4881889763779528
        },
        {
          "duration": 0.08333324999999547,
          "durationTicks": 96,
          "midi": 56,
          "name": "G#3",
          "ticks": 43392,
          "time": 37.666629,
          "velocity": 0.4881889763779528
        },
        {
          "duration": 0.08333324999999547,
          "durationTicks": 96,
          "midi": 53,
          "name": "F3",
          "ticks": 43392,
          "time": 37.666629,
          "velocity": 0.4881889763779528
        },
        {
          "duration": 0.08333325000000258,
          "durationTicks": 96,
          "midi": 58,
          "name": "A#3",
          "ticks": 43584,
          "time": 37.8332955,
          "velocity": 0.4881889763779528
        },
        {
          "duration": 0.08333325000000258,
          "durationTicks": 96,
          "midi": 55,
          "name": "G3",
          "ticks": 43584,
          "time": 37.8332955,
          "velocity": 0.4881889763779528
        },
        {
          "duration": 0.08333325000000258,
          "durationTicks": 96,
          "midi": 56,
          "name": "G#3",
          "ticks": 43776,
          "time": 37.999962,
          "velocity": 0.4881889763779528
        },
        {
          "duration": 0.08333325000000258,
          "durationTicks": 96,
          "midi": 60,
          "name": "C4",
          "ticks": 43776,
          "time": 37.999962,
          "velocity": 0.4881889763779528
        },
        {
          "duration": 0.08333325000000258,
          "durationTicks": 96,
          "midi": 53,
          "name": "F3",
          "ticks": 44160,
          "time": 38.333295,
          "velocity": 0.4881889763779528
        },
        {
          "duration": 0.08333325000000258,
          "durationTicks": 96,
          "midi": 56,
          "name": "G#3",
          "ticks": 44160,
          "time": 38.333295,
          "velocity": 0.4881889763779528
        },
        {
          "duration": 0.08333325000000258,
          "durationTicks": 96,
          "midi": 55,
          "name": "G3",
          "ticks": 44544,
          "time": 38.666627999999996,
          "velocity": 0.4881889763779528
        },
        {
          "duration": 0.08333325000000258,
          "durationTicks": 96,
          "midi": 58,
          "name": "A#3",
          "ticks": 44544,
          "time": 38.666627999999996,
          "velocity": 0.4881889763779528
        },
        {
          "duration": 0.08333325000000258,
          "durationTicks": 96,
          "midi": 55,
          "name": "G3",
          "ticks": 44928,
          "time": 38.999961,
          "velocity": 0.4881889763779528
        },
        {
          "duration": 0.08333325000000258,
          "durationTicks": 96,
          "midi": 58,
          "name": "A#3",
          "ticks": 44928,
          "time": 38.999961,
          "velocity": 0.4881889763779528
        },
        {
          "duration": 0.08333325000000258,
          "durationTicks": 96,
          "midi": 56,
          "name": "G#3",
          "ticks": 45120,
          "time": 39.1666275,
          "velocity": 0.4881889763779528
        },
        {
          "duration": 0.08333325000000258,
          "durationTicks": 96,
          "midi": 60,
          "name": "C4",
          "ticks": 45120,
          "time": 39.1666275,
          "velocity": 0.4881889763779528
        },
        {
          "duration": 0.08333324999999547,
          "durationTicks": 96,
          "midi": 51,
          "name": "D#3",
          "ticks": 45312,
          "time": 39.333294,
          "velocity": 0.4881889763779528
        },
        {
          "duration": 0.08333324999999547,
          "durationTicks": 96,
          "midi": 55,
          "name": "G3",
          "ticks": 45312,
          "time": 39.333294,
          "velocity": 0.4881889763779528
        },
        {
          "duration": 0.08333325000000258,
          "durationTicks": 96,
          "midi": 51,
          "name": "D#3",
          "ticks": 45696,
          "time": 39.666627,
          "velocity": 0.4881889763779528
        },
        {
          "duration": 0.08333325000000258,
          "durationTicks": 96,
          "midi": 48,
          "name": "C3",
          "ticks": 45696,
          "time": 39.666627,
          "velocity": 0.4881889763779528
        },
        {
          "duration": 0.08333324999999547,
          "durationTicks": 96,
          "midi": 53,
          "name": "F3",
          "ticks": 46080,
          "time": 39.99996,
          "velocity": 0.4881889763779528
        },
        {
          "duration": 0.08333324999999547,
          "durationTicks": 96,
          "midi": 57,
          "name": "A3",
          "ticks": 46080,
          "time": 39.99996,
          "velocity": 0.4881889763779528
        },
        {
          "duration": 0.08333325000000258,
          "durationTicks": 96,
          "midi": 57,
          "name": "A3",
          "ticks": 46464,
          "time": 40.333293,
          "velocity": 0.4881889763779528
        },
        {
          "duration": 0.08333325000000258,
          "durationTicks": 96,
          "midi": 53,
          "name": "F3",
          "ticks": 46464,
          "time": 40.333293,
          "velocity": 0.4881889763779528
        },
        {
          "duration": 0.08333325000000258,
          "durationTicks": 96,
          "midi": 55,
          "name": "G3",
          "ticks": 46656,
          "time": 40.499959499999996,
          "velocity": 0.4881889763779528
        },
        {
          "duration": 0.08333325000000258,
          "durationTicks": 96,
          "midi": 58,
          "name": "A#3",
          "ticks": 46656,
          "time": 40.499959499999996,
          "velocity": 0.4881889763779528
        },
        {
          "duration": 0.08333324999999547,
          "durationTicks": 96,
          "midi": 60,
          "name": "C4",
          "ticks": 46848,
          "time": 40.666626,
          "velocity": 0.4881889763779528
        },
        {
          "duration": 0.08333324999999547,
          "durationTicks": 96,
          "midi": 57,
          "name": "A3",
          "ticks": 46848,
          "time": 40.666626,
          "velocity": 0.4881889763779528
        },
        {
          "duration": 0.08333325000000258,
          "durationTicks": 96,
          "midi": 60,
          "name": "C4",
          "ticks": 47232,
          "time": 40.999959,
          "velocity": 0.4881889763779528
        },
        {
          "duration": 0.08333325000000258,
          "durationTicks": 96,
          "midi": 65,
          "name": "F4",
          "ticks": 47232,
          "time": 40.999959,
          "velocity": 0.4881889763779528
        },
        {
          "duration": 0.08333324999999547,
          "durationTicks": 96,
          "midi": 59,
          "name": "B3",
          "ticks": 47616,
          "time": 41.333292,
          "velocity": 0.4881889763779528
        },
        {
          "duration": 0.08333324999999547,
          "durationTicks": 96,
          "midi": 64,
          "name": "E4",
          "ticks": 47616,
          "time": 41.333292,
          "velocity": 0.4881889763779528
        },
        {
          "duration": 0.08333325000000258,
          "durationTicks": 96,
          "midi": 67,
          "name": "G4",
          "ticks": 48000,
          "time": 41.666624999999996,
          "velocity": 0.4881889763779528
        },
        {
          "duration": 0.08333325000000258,
          "durationTicks": 96,
          "midi": 62,
          "name": "D4",
          "ticks": 48000,
          "time": 41.666624999999996,
          "velocity": 0.4881889763779528
        },
        {
          "duration": 0.08333325000000258,
          "durationTicks": 96,
          "midi": 65,
          "name": "F4",
          "ticks": 48384,
          "time": 41.999958,
          "velocity": 0.4881889763779528
        },
        {
          "duration": 0.08333325000000258,
          "durationTicks": 96,
          "midi": 60,
          "name": "C4",
          "ticks": 48384,
          "time": 41.999958,
          "velocity": 0.4881889763779528
        },
        {
          "duration": 0.08333325000000258,
          "durationTicks": 96,
          "midi": 56,
          "name": "G#3",
          "ticks": 73728,
          "time": 63.999936,
          "velocity": 0.4881889763779528
        },
        {
          "duration": 0.08333324999999547,
          "durationTicks": 96,
          "midi": 56,
          "name": "G#3",
          "ticks": 74112,
          "time": 64.333269,
          "velocity": 0.4881889763779528
        },
        {
          "duration": 0.08333325000000968,
          "durationTicks": 96,
          "midi": 58,
          "name": "A#3",
          "ticks": 74304,
          "time": 64.49993549999999,
          "velocity": 0.4881889763779528
        },
        {
          "duration": 0.08333324999999547,
          "durationTicks": 96,
          "midi": 60,
          "name": "C4",
          "ticks": 74496,
          "time": 64.666602,
          "velocity": 0.4881889763779528
        },
        {
          "duration": 0.08333325000000968,
          "durationTicks": 96,
          "midi": 56,
          "name": "G#3",
          "ticks": 74880,
          "time": 64.999935,
          "velocity": 0.4881889763779528
        },
        {
          "duration": 0.08333324999999547,
          "durationTicks": 96,
          "midi": 58,
          "name": "A#3",
          "ticks": 75264,
          "time": 65.333268,
          "velocity": 0.4881889763779528
        },
        {
          "duration": 0.08333324999999547,
          "durationTicks": 96,
          "midi": 58,
          "name": "A#3",
          "ticks": 75648,
          "time": 65.666601,
          "velocity": 0.4881889763779528
        },
        {
          "duration": 0.08333324999999547,
          "durationTicks": 96,
          "midi": 60,
          "name": "C4",
          "ticks": 75840,
          "time": 65.8332675,
          "velocity": 0.4881889763779528
        },
        {
          "duration": 0.08333324999999547,
          "durationTicks": 96,
          "midi": 55,
          "name": "G3",
          "ticks": 76032,
          "time": 65.999934,
          "velocity": 0.4881889763779528
        },
        {
          "duration": 0.08333325000000968,
          "durationTicks": 96,
          "midi": 51,
          "name": "D#3",
          "ticks": 76416,
          "time": 66.33326699999999,
          "velocity": 0.4881889763779528
        },
        {
          "duration": 0.08333324999999547,
          "durationTicks": 96,
          "midi": 56,
          "name": "G#3",
          "ticks": 76800,
          "time": 66.6666,
          "velocity": 0.4881889763779528
        },
        {
          "duration": 0.08333324999999547,
          "durationTicks": 96,
          "midi": 56,
          "name": "G#3",
          "ticks": 77184,
          "time": 66.999933,
          "velocity": 0.4881889763779528
        },
        {
          "duration": 0.08333324999999547,
          "durationTicks": 96,
          "midi": 58,
          "name": "A#3",
          "ticks": 77376,
          "time": 67.1665995,
          "velocity": 0.4881889763779528
        },
        {
          "duration": 0.08333325000000968,
          "durationTicks": 96,
          "midi": 60,
          "name": "C4",
          "ticks": 77568,
          "time": 67.333266,
          "velocity": 0.4881889763779528
        },
        {
          "duration": 0.08333324999999547,
          "durationTicks": 96,
          "midi": 60,
          "name": "C4",
          "ticks": 77952,
          "time": 67.666599,
          "velocity": 0.4881889763779528
        },
        {
          "duration": 0.08333324999999547,
          "durationTicks": 96,
          "midi": 68,
          "name": "G#4",
          "ticks": 78144,
          "time": 67.8332655,
          "velocity": 0.4881889763779528
        },
        {
          "duration": 0.08333324999999547,
          "durationTicks": 96,
          "midi": 67,
          "name": "G4",
          "ticks": 78336,
          "time": 67.999932,
          "velocity": 0.4881889763779528
        },
        {
          "duration": 0.08333324999999547,
          "durationTicks": 96,
          "midi": 63,
          "name": "D#4",
          "ticks": 78720,
          "time": 68.333265,
          "velocity": 0.4881889763779528
        },
        {
          "duration": 0.08333325000000968,
          "durationTicks": 96,
          "midi": 58,
          "name": "A#3",
          "ticks": 79104,
          "time": 68.666598,
          "velocity": 0.4881889763779528
        },
        {
          "duration": 0.08333324999999547,
          "durationTicks": 96,
          "midi": 55,
          "name": "G3",
          "ticks": 79488,
          "time": 68.999931,
          "velocity": 0.4881889763779528
        },
        {
          "duration": 0.08333324999999547,
          "durationTicks": 96,
          "midi": 56,
          "name": "G#3",
          "ticks": 79872,
          "time": 69.333264,
          "velocity": 0.4881889763779528
        },
        {
          "duration": 0.08333324999999547,
          "durationTicks": 96,
          "midi": 56,
          "name": "G#3",
          "ticks": 80256,
          "time": 69.666597,
          "velocity": 0.4881889763779528
        },
        {
          "duration": 0.08333324999999547,
          "durationTicks": 96,
          "midi": 63,
          "name": "D#4",
          "ticks": 80448,
          "time": 69.8332635,
          "velocity": 0.4881889763779528
        },
        {
          "duration": 0.08333325000000968,
          "durationTicks": 96,
          "midi": 65,
          "name": "F4",
          "ticks": 80640,
          "time": 69.99992999999999,
          "velocity": 0.4881889763779528
        },
        {
          "duration": 0.08333324999999547,
          "durationTicks": 96,
          "midi": 60,
          "name": "C4",
          "ticks": 81024,
          "time": 70.333263,
          "velocity": 0.4881889763779528
        },
        {
          "duration": 0.08333324999999547,
          "durationTicks": 96,
          "midi": 58,
          "name": "A#3",
          "ticks": 81408,
          "time": 70.666596,
          "velocity": 0.4881889763779528
        },
        {
          "duration": 0.08333325000000968,
          "durationTicks": 96,
          "midi": 58,
          "name": "A#3",
          "ticks": 81792,
          "time": 70.999929,
          "velocity": 0.4881889763779528
        },
        {
          "duration": 0.08333324999999547,
          "durationTicks": 96,
          "midi": 60,
          "name": "C4",
          "ticks": 81984,
          "time": 71.1665955,
          "velocity": 0.4881889763779528
        },
        {
          "duration": 0.08333324999999547,
          "durationTicks": 96,
          "midi": 58,
          "name": "A#3",
          "ticks": 82176,
          "time": 71.333262,
          "velocity": 0.4881889763779528
        },
        {
          "duration": 0.08333324999999547,
          "durationTicks": 96,
          "midi": 56,
          "name": "G#3",
          "ticks": 82560,
          "time": 71.666595,
          "velocity": 0.4881889763779528
        },
        {
          "duration": 0.08333324999999547,
          "durationTicks": 96,
          "midi": 58,
          "name": "A#3",
          "ticks": 82944,
          "time": 71.999928,
          "velocity": 0.4881889763779528
        },
        {
          "duration": 0.08333325000000968,
          "durationTicks": 96,
          "midi": 58,
          "name": "A#3",
          "ticks": 83328,
          "time": 72.333261,
          "velocity": 0.4881889763779528
        },
        {
          "duration": 0.08333324999999547,
          "durationTicks": 96,
          "midi": 60,
          "name": "C4",
          "ticks": 83520,
          "time": 72.4999275,
          "velocity": 0.4881889763779528
        },
        {
          "duration": 0.08333324999999547,
          "durationTicks": 96,
          "midi": 58,
          "name": "A#3",
          "ticks": 83712,
          "time": 72.666594,
          "velocity": 0.4881889763779528
        },
        {
          "duration": 0.08333324999999547,
          "durationTicks": 96,
          "midi": 56,
          "name": "G#3",
          "ticks": 84096,
          "time": 72.999927,
          "velocity": 0.4881889763779528
        },
        {
          "duration": 0.08333324999999547,
          "durationTicks": 96,
          "midi": 58,
          "name": "A#3",
          "ticks": 84480,
          "time": 73.33326,
          "velocity": 0.4881889763779528
        },
        {
          "duration": 0.08333324999999547,
          "durationTicks": 96,
          "midi": 60,
          "name": "C4",
          "ticks": 85248,
          "time": 73.999926,
          "velocity": 0.4881889763779528
        },
        {
          "duration": 0.08333325000000968,
          "durationTicks": 96,
          "midi": 53,
          "name": "F3",
          "ticks": 86016,
          "time": 74.666592,
          "velocity": 0.4881889763779528
        },
        {
          "duration": 0.08333325000000968,
          "durationTicks": 96,
          "midi": 56,
          "name": "G#3",
          "ticks": 86016,
          "time": 74.666592,
          "velocity": 0.4881889763779528
        },
        {
          "duration": 0.08333324999999547,
          "durationTicks": 96,
          "midi": 53,
          "name": "F3",
          "ticks": 86400,
          "time": 74.999925,
          "velocity": 0.4881889763779528
        },
        {
          "duration": 0.08333324999999547,
          "durationTicks": 96,
          "midi": 56,
          "name": "G#3",
          "ticks": 86400,
          "time": 74.999925,
          "velocity": 0.4881889763779528
        },
        {
          "duration": 0.08333324999999547,
          "durationTicks": 96,
          "midi": 58,
          "name": "A#3",
          "ticks": 86592,
          "time": 75.1665915,
          "velocity": 0.4881889763779528
        },
        {
          "duration": 0.08333324999999547,
          "durationTicks": 96,
          "midi": 55,
          "name": "G3",
          "ticks": 86592,
          "time": 75.1665915,
          "velocity": 0.4881889763779528
        },
        {
          "duration": 0.08333324999999547,
          "durationTicks": 96,
          "midi": 60,
          "name": "C4",
          "ticks": 86784,
          "time": 75.333258,
          "velocity": 0.4881889763779528
        },
        {
          "duration": 0.08333324999999547,
          "durationTicks": 96,
          "midi": 56,
          "name": "G#3",
          "ticks": 86784,
          "time": 75.333258,
          "velocity": 0.4881889763779528
        },
        {
          "duration": 0.08333324999999547,
          "durationTicks": 96,
          "midi": 56,
          "name": "G#3",
          "ticks": 87168,
          "time": 75.666591,
          "velocity": 0.4881889763779528
        },
        {
          "duration": 0.08333324999999547,
          "durationTicks": 96,
          "midi": 53,
          "name": "F3",
          "ticks": 87168,
          "time": 75.666591,
          "velocity": 0.4881889763779528
        },
        {
          "duration": 0.08333325000000968,
          "durationTicks": 96,
          "midi": 55,
          "name": "G3",
          "ticks": 87552,
          "time": 75.999924,
          "velocity": 0.4881889763779528
        },
        {
          "duration": 0.08333325000000968,
          "durationTicks": 96,
          "midi": 58,
          "name": "A#3",
          "ticks": 87552,
          "time": 75.999924,
          "velocity": 0.4881889763779528
        },
        {
          "duration": 0.08333324999999547,
          "durationTicks": 96,
          "midi": 58,
          "name": "A#3",
          "ticks": 87936,
          "time": 76.333257,
          "velocity": 0.4881889763779528
        },
        {
          "duration": 0.08333324999999547,
          "durationTicks": 96,
          "midi": 55,
          "name": "G3",
          "ticks": 87936,
          "time": 76.333257,
          "velocity": 0.4881889763779528
        },
        {
          "duration": 0.08333325000000968,
          "durationTicks": 96,
          "midi": 60,
          "name": "C4",
          "ticks": 88128,
          "time": 76.4999235,
          "velocity": 0.4881889763779528
        },
        {
          "duration": 0.08333325000000968,
          "durationTicks": 96,
          "midi": 56,
          "name": "G#3",
          "ticks": 88128,
          "time": 76.4999235,
          "velocity": 0.4881889763779528
        },
        {
          "duration": 0.08333324999999547,
          "durationTicks": 96,
          "midi": 51,
          "name": "D#3",
          "ticks": 88320,
          "time": 76.66659,
          "velocity": 0.4881889763779528
        },
        {
          "duration": 0.08333324999999547,
          "durationTicks": 96,
          "midi": 55,
          "name": "G3",
          "ticks": 88320,
          "time": 76.66659,
          "velocity": 0.4881889763779528
        },
        {
          "duration": 0.08333324999999547,
          "durationTicks": 96,
          "midi": 48,
          "name": "C3",
          "ticks": 88704,
          "time": 76.999923,
          "velocity": 0.4881889763779528
        },
        {
          "duration": 0.08333324999999547,
          "durationTicks": 96,
          "midi": 51,
          "name": "D#3",
          "ticks": 88704,
          "time": 76.999923,
          "velocity": 0.4881889763779528
        },
        {
          "duration": 0.08333325000000968,
          "durationTicks": 96,
          "midi": 51,
          "name": "D#3",
          "ticks": 89088,
          "time": 77.33325599999999,
          "velocity": 0.4881889763779528
        },
        {
          "duration": 0.08333325000000968,
          "durationTicks": 96,
          "midi": 56,
          "name": "G#3",
          "ticks": 89088,
          "time": 77.33325599999999,
          "velocity": 0.4881889763779528
        },
        {
          "duration": 0.08333324999999547,
          "durationTicks": 96,
          "midi": 51,
          "name": "D#3",
          "ticks": 89472,
          "time": 77.666589,
          "velocity": 0.4881889763779528
        },
        {
          "duration": 0.08333324999999547,
          "durationTicks": 96,
          "midi": 56,
          "name": "G#3",
          "ticks": 89472,
          "time": 77.666589,
          "velocity": 0.4881889763779528
        },
        {
          "duration": 0.08333325000000968,
          "durationTicks": 96,
          "midi": 58,
          "name": "A#3",
          "ticks": 89664,
          "time": 77.83325549999999,
          "velocity": 0.4881889763779528
        },
        {
          "duration": 0.08333325000000968,
          "durationTicks": 96,
          "midi": 55,
          "name": "G3",
          "ticks": 89664,
          "time": 77.83325549999999,
          "velocity": 0.4881889763779528
        },
        {
          "duration": 0.08333324999999547,
          "durationTicks": 96,
          "midi": 60,
          "name": "C4",
          "ticks": 89856,
          "time": 77.999922,
          "velocity": 0.4881889763779528
        },
        {
          "duration": 0.08333324999999547,
          "durationTicks": 96,
          "midi": 56,
          "name": "G#3",
          "ticks": 89856,
          "time": 77.999922,
          "velocity": 0.4881889763779528
        },
        {
          "duration": 0.08333324999999547,
          "durationTicks": 96,
          "midi": 56,
          "name": "G#3",
          "ticks": 90048,
          "time": 78.1665885,
          "velocity": 0.4881889763779528
        },
        {
          "duration": 0.08333325000000968,
          "durationTicks": 96,
          "midi": 60,
          "name": "C4",
          "ticks": 90240,
          "time": 78.333255,
          "velocity": 0.4881889763779528
        },
        {
          "duration": 0.08333324999999547,
          "durationTicks": 96,
          "midi": 68,
          "name": "G#4",
          "ticks": 90432,
          "time": 78.4999215,
          "velocity": 0.4881889763779528
        },
        {
          "duration": 0.08333324999999547,
          "durationTicks": 96,
          "midi": 63,
          "name": "D#4",
          "ticks": 90624,
          "time": 78.666588,
          "velocity": 0.4881889763779528
        },
        {
          "duration": 0.08333324999999547,
          "durationTicks": 96,
          "midi": 67,
          "name": "G4",
          "ticks": 90624,
          "time": 78.666588,
          "velocity": 0.4881889763779528
        },
        {
          "duration": 0.08333324999999547,
          "durationTicks": 96,
          "midi": 63,
          "name": "D#4",
          "ticks": 91008,
          "time": 78.999921,
          "velocity": 0.4881889763779528
        },
        {
          "duration": 0.08333324999999547,
          "durationTicks": 96,
          "midi": 58,
          "name": "A#3",
          "ticks": 91008,
          "time": 78.999921,
          "velocity": 0.4881889763779528
        },
        {
          "duration": 0.08333324999999547,
          "durationTicks": 96,
          "midi": 55,
          "name": "G3",
          "ticks": 91392,
          "time": 79.333254,
          "velocity": 0.4881889763779528
        },
        {
          "duration": 0.08333324999999547,
          "durationTicks": 96,
          "midi": 58,
          "name": "A#3",
          "ticks": 91392,
          "time": 79.333254,
          "velocity": 0.4881889763779528
        },
        {
          "duration": 0.08333325000000968,
          "durationTicks": 96,
          "midi": 51,
          "name": "D#3",
          "ticks": 91776,
          "time": 79.66658699999999,
          "velocity": 0.4881889763779528
        },
        {
          "duration": 0.08333325000000968,
          "durationTicks": 96,
          "midi": 55,
          "name": "G3",
          "ticks": 91776,
          "time": 79.66658699999999,
          "velocity": 0.4881889763779528
        },
        {
          "duration": 0.08333324999999547,
          "durationTicks": 96,
          "midi": 53,
          "name": "F3",
          "ticks": 92160,
          "time": 79.99992,
          "velocity": 0.4881889763779528
        },
        {
          "duration": 0.08333324999999547,
          "durationTicks": 96,
          "midi": 56,
          "name": "G#3",
          "ticks": 92160,
          "time": 79.99992,
          "velocity": 0.4881889763779528
        },
        {
          "duration": 0.08333324999999547,
          "durationTicks": 96,
          "midi": 56,
          "name": "G#3",
          "ticks": 92544,
          "time": 80.333253,
          "velocity": 0.4881889763779528
        },
        {
          "duration": 0.08333324999999547,
          "durationTicks": 96,
          "midi": 53,
          "name": "F3",
          "ticks": 92544,
          "time": 80.333253,
          "velocity": 0.4881889763779528
        },
        {
          "duration": 0.08333324999999547,
          "durationTicks": 96,
          "midi": 58,
          "name": "A#3",
          "ticks": 92736,
          "time": 80.4999195,
          "velocity": 0.4881889763779528
        },
        {
          "duration": 0.08333324999999547,
          "durationTicks": 96,
          "midi": 63,
          "name": "D#4",
          "ticks": 92736,
          "time": 80.4999195,
          "velocity": 0.4881889763779528
        },
        {
          "duration": 0.08333324999999547,
          "durationTicks": 96,
          "midi": 60,
          "name": "C4",
          "ticks": 92928,
          "time": 80.666586,
          "velocity": 0.4881889763779528
        },
        {
          "duration": 0.08333324999999547,
          "durationTicks": 96,
          "midi": 65,
          "name": "F4",
          "ticks": 92928,
          "time": 80.666586,
          "velocity": 0.4881889763779528
        },
        {
          "duration": 0.08333325000000968,
          "durationTicks": 96,
          "midi": 56,
          "name": "G#3",
          "ticks": 93312,
          "time": 80.99991899999999,
          "velocity": 0.4881889763779528
        },
        {
          "duration": 0.08333325000000968,
          "durationTicks": 96,
          "midi": 60,
          "name": "C4",
          "ticks": 93312,
          "time": 80.99991899999999,
          "velocity": 0.4881889763779528
        },
        {
          "duration": 0.08333324999999547,
          "durationTicks": 96,
          "midi": 55,
          "name": "G3",
          "ticks": 93696,
          "time": 81.333252,
          "velocity": 0.4881889763779528
        },
        {
          "duration": 0.08333324999999547,
          "durationTicks": 96,
          "midi": 58,
          "name": "A#3",
          "ticks": 93696,
          "time": 81.333252,
          "velocity": 0.4881889763779528
        },
        {
          "duration": 0.08333324999999547,
          "durationTicks": 96,
          "midi": 55,
          "name": "G3",
          "ticks": 94080,
          "time": 81.666585,
          "velocity": 0.4881889763779528
        },
        {
          "duration": 0.08333324999999547,
          "durationTicks": 96,
          "midi": 58,
          "name": "A#3",
          "ticks": 94080,
          "time": 81.666585,
          "velocity": 0.4881889763779528
        },
        {
          "duration": 0.08333324999999547,
          "durationTicks": 96,
          "midi": 56,
          "name": "G#3",
          "ticks": 94272,
          "time": 81.8332515,
          "velocity": 0.4881889763779528
        },
        {
          "duration": 0.08333324999999547,
          "durationTicks": 96,
          "midi": 60,
          "name": "C4",
          "ticks": 94272,
          "time": 81.8332515,
          "velocity": 0.4881889763779528
        },
        {
          "duration": 0.08333325000000968,
          "durationTicks": 96,
          "midi": 55,
          "name": "G3",
          "ticks": 94464,
          "time": 81.999918,
          "velocity": 0.4881889763779528
        },
        {
          "duration": 0.08333325000000968,
          "durationTicks": 96,
          "midi": 58,
          "name": "A#3",
          "ticks": 94464,
          "time": 81.999918,
          "velocity": 0.4881889763779528
        },
        {
          "duration": 0.08333324999999547,
          "durationTicks": 96,
          "midi": 56,
          "name": "G#3",
          "ticks": 94848,
          "time": 82.333251,
          "velocity": 0.4881889763779528
        },
        {
          "duration": 0.08333324999999547,
          "durationTicks": 96,
          "midi": 53,
          "name": "F3",
          "ticks": 94848,
          "time": 82.333251,
          "velocity": 0.4881889763779528
        },
        {
          "duration": 0.08333324999999547,
          "durationTicks": 96,
          "midi": 58,
          "name": "A#3",
          "ticks": 95232,
          "time": 82.666584,
          "velocity": 0.4881889763779528
        },
        {
          "duration": 0.08333324999999547,
          "durationTicks": 96,
          "midi": 55,
          "name": "G3",
          "ticks": 95232,
          "time": 82.666584,
          "velocity": 0.4881889763779528
        },
        {
          "duration": 0.08333324999999547,
          "durationTicks": 96,
          "midi": 55,
          "name": "G3",
          "ticks": 95616,
          "time": 82.999917,
          "velocity": 0.4881889763779528
        },
        {
          "duration": 0.08333324999999547,
          "durationTicks": 96,
          "midi": 58,
          "name": "A#3",
          "ticks": 95616,
          "time": 82.999917,
          "velocity": 0.4881889763779528
        },
        {
          "duration": 0.08333324999999547,
          "durationTicks": 96,
          "midi": 60,
          "name": "C4",
          "ticks": 95808,
          "time": 83.1665835,
          "velocity": 0.4881889763779528
        },
        {
          "duration": 0.08333324999999547,
          "durationTicks": 96,
          "midi": 56,
          "name": "G#3",
          "ticks": 95808,
          "time": 83.1665835,
          "velocity": 0.4881889763779528
        },
        {
          "duration": 0.08333325000000968,
          "durationTicks": 96,
          "midi": 58,
          "name": "A#3",
          "ticks": 96000,
          "time": 83.33324999999999,
          "velocity": 0.4881889763779528
        },
        {
          "duration": 0.08333325000000968,
          "durationTicks": 96,
          "midi": 55,
          "name": "G3",
          "ticks": 96000,
          "time": 83.33324999999999,
          "velocity": 0.4881889763779528
        },
        {
          "duration": 0.08333324999999547,
          "durationTicks": 96,
          "midi": 56,
          "name": "G#3",
          "ticks": 96384,
          "time": 83.666583,
          "velocity": 0.4881889763779528
        },
        {
          "duration": 0.08333324999999547,
          "durationTicks": 96,
          "midi": 53,
          "name": "F3",
          "ticks": 96384,
          "time": 83.666583,
          "velocity": 0.4881889763779528
        },
        {
          "duration": 0.08333324999999547,
          "durationTicks": 96,
          "midi": 55,
          "name": "G3",
          "ticks": 96768,
          "time": 83.999916,
          "velocity": 0.4881889763779528
        },
        {
          "duration": 0.08333324999999547,
          "durationTicks": 96,
          "midi": 58,
          "name": "A#3",
          "ticks": 96768,
          "time": 83.999916,
          "velocity": 0.4881889763779528
        },
        {
          "duration": 0.08333325000000968,
          "durationTicks": 96,
          "midi": 60,
          "name": "C4",
          "ticks": 97536,
          "time": 84.66658199999999,
          "velocity": 0.4881889763779528
        },
        {
          "duration": 0.08333325000000968,
          "durationTicks": 96,
          "midi": 52,
          "name": "E3",
          "ticks": 97536,
          "time": 84.66658199999999,
          "velocity": 0.4881889763779528
        },
        {
          "duration": 0.08333324999999547,
          "durationTicks": 96,
          "midi": 56,
          "name": "G#3",
          "ticks": 98304,
          "time": 85.333248,
          "velocity": 0.4881889763779528
        },
        {
          "duration": 0.08333325000000968,
          "durationTicks": 96,
          "midi": 53,
          "name": "F3",
          "ticks": 98400,
          "time": 85.41658125,
          "velocity": 0.4881889763779528
        },
        {
          "duration": 0.08333324999999547,
          "durationTicks": 96,
          "midi": 49,
          "name": "C#3",
          "ticks": 98496,
          "time": 85.4999145,
          "velocity": 0.4881889763779528
        },
        {
          "duration": 0.08333324999999547,
          "durationTicks": 96,
          "midi": 53,
          "name": "F3",
          "ticks": 98592,
          "time": 85.58324775,
          "velocity": 0.4881889763779528
        },
        {
          "duration": 0.08333325000000968,
          "durationTicks": 96,
          "midi": 56,
          "name": "G#3",
          "ticks": 98688,
          "time": 85.666581,
          "velocity": 0.4881889763779528
        },
        {
          "duration": 0.08333324999999547,
          "durationTicks": 96,
          "midi": 58,
          "name": "A#3",
          "ticks": 98880,
          "time": 85.8332475,
          "velocity": 0.4881889763779528
        },
        {
          "duration": 0.08333324999999547,
          "durationTicks": 96,
          "midi": 60,
          "name": "C4",
          "ticks": 99072,
          "time": 85.999914,
          "velocity": 0.4881889763779528
        },
        {
          "duration": 0.08333324999999547,
          "durationTicks": 96,
          "midi": 56,
          "name": "G#3",
          "ticks": 99456,
          "time": 86.333247,
          "velocity": 0.4881889763779528
        },
        {
          "duration": 0.08333324999999547,
          "durationTicks": 96,
          "midi": 58,
          "name": "A#3",
          "ticks": 99840,
          "time": 86.66658,
          "velocity": 0.4881889763779528
        },
        {
          "duration": 0.08333325000000968,
          "durationTicks": 96,
          "midi": 55,
          "name": "G3",
          "ticks": 99936,
          "time": 86.74991324999999,
          "velocity": 0.4881889763779528
        },
        {
          "duration": 0.08333324999999547,
          "durationTicks": 96,
          "midi": 53,
          "name": "F3",
          "ticks": 100032,
          "time": 86.8332465,
          "velocity": 0.4881889763779528
        },
        {
          "duration": 0.08333324999999547,
          "durationTicks": 96,
          "midi": 55,
          "name": "G3",
          "ticks": 100128,
          "time": 86.91657975,
          "velocity": 0.4881889763779528
        },
        {
          "duration": 0.08333325000000968,
          "durationTicks": 96,
          "midi": 58,
          "name": "A#3",
          "ticks": 100224,
          "time": 86.99991299999999,
          "velocity": 0.4881889763779528
        },
        {
          "duration": 0.08333324999999547,
          "durationTicks": 96,
          "midi": 60,
          "name": "C4",
          "ticks": 100416,
          "time": 87.1665795,
          "velocity": 0.4881889763779528
        },
        {
          "duration": 0.08333324999999547,
          "durationTicks": 96,
          "midi": 55,
          "name": "G3",
          "ticks": 100608,
          "time": 87.333246,
          "velocity": 0.4881889763779528
        },
        {
          "duration": 0.08333325000000968,
          "durationTicks": 96,
          "midi": 56,
          "name": "G#3",
          "ticks": 100800,
          "time": 87.4999125,
          "velocity": 0.4881889763779528
        },
        {
          "duration": 0.08333324999999547,
          "durationTicks": 96,
          "midi": 55,
          "name": "G3",
          "ticks": 100896,
          "time": 87.58324575,
          "velocity": 0.4881889763779528
        },
        {
          "duration": 0.08333324999999547,
          "durationTicks": 96,
          "midi": 51,
          "name": "D#3",
          "ticks": 100992,
          "time": 87.666579,
          "velocity": 0.4881889763779528
        },
        {
          "duration": 0.08333324999999547,
          "durationTicks": 96,
          "midi": 55,
          "name": "G3",
          "ticks": 101184,
          "time": 87.8332455,
          "velocity": 0.4881889763779528
        },
        {
          "duration": 0.08333325000000968,
          "durationTicks": 96,
          "midi": 56,
          "name": "G#3",
          "ticks": 101376,
          "time": 87.999912,
          "velocity": 0.4881889763779528
        },
        {
          "duration": 0.08333324999999547,
          "durationTicks": 96,
          "midi": 51,
          "name": "D#3",
          "ticks": 101568,
          "time": 88.1665785,
          "velocity": 0.4881889763779528
        },
        {
          "duration": 0.08333325000000968,
          "durationTicks": 96,
          "midi": 56,
          "name": "G#3",
          "ticks": 101760,
          "time": 88.33324499999999,
          "velocity": 0.4881889763779528
        },
        {
          "duration": 0.08333324999999547,
          "durationTicks": 96,
          "midi": 58,
          "name": "A#3",
          "ticks": 101952,
          "time": 88.4999115,
          "velocity": 0.4881889763779528
        },
        {
          "duration": 0.08333324999999547,
          "durationTicks": 96,
          "midi": 60,
          "name": "C4",
          "ticks": 102144,
          "time": 88.666578,
          "velocity": 0.4881889763779528
        },
        {
          "duration": 0.08333325000000968,
          "durationTicks": 96,
          "midi": 56,
          "name": "G#3",
          "ticks": 102336,
          "time": 88.83324449999999,
          "velocity": 0.4881889763779528
        },
        {
          "duration": 0.08333324999999547,
          "durationTicks": 96,
          "midi": 60,
          "name": "C4",
          "ticks": 102528,
          "time": 88.999911,
          "velocity": 0.4881889763779528
        },
        {
          "duration": 0.08333324999999547,
          "durationTicks": 96,
          "midi": 63,
          "name": "D#4",
          "ticks": 102720,
          "time": 89.1665775,
          "velocity": 0.4881889763779528
        },
        {
          "duration": 0.08333325000000968,
          "durationTicks": 96,
          "midi": 67,
          "name": "G4",
          "ticks": 102912,
          "time": 89.333244,
          "velocity": 0.4881889763779528
        },
        {
          "duration": 0.08333324999999547,
          "durationTicks": 96,
          "midi": 55,
          "name": "G3",
          "ticks": 103104,
          "time": 89.4999105,
          "velocity": 0.4881889763779528
        },
        {
          "duration": 0.08333325000000968,
          "durationTicks": 96,
          "midi": 58,
          "name": "A#3",
          "ticks": 103200,
          "time": 89.58324375,
          "velocity": 0.4881889763779528
        },
        {
          "duration": 0.08333324999999547,
          "durationTicks": 96,
          "midi": 63,
          "name": "D#4",
          "ticks": 103296,
          "time": 89.666577,
          "velocity": 0.4881889763779528
        },
        {
          "duration": 0.08333325000000968,
          "durationTicks": 96,
          "midi": 55,
          "name": "G3",
          "ticks": 103488,
          "time": 89.8332435,
          "velocity": 0.4881889763779528
        },
        {
          "duration": 0.08333324999999547,
          "durationTicks": 96,
          "midi": 58,
          "name": "A#3",
          "ticks": 103584,
          "time": 89.91657675,
          "velocity": 0.4881889763779528
        },
        {
          "duration": 0.08333324999999547,
          "durationTicks": 96,
          "midi": 60,
          "name": "C4",
          "ticks": 103680,
          "time": 89.99991,
          "velocity": 0.4881889763779528
        },
        {
          "duration": 0.08333325000000968,
          "durationTicks": 96,
          "midi": 55,
          "name": "G3",
          "ticks": 103872,
          "time": 90.16657649999999,
          "velocity": 0.4881889763779528
        },
        {
          "duration": 0.08333324999999547,
          "durationTicks": 96,
          "midi": 58,
          "name": "A#3",
          "ticks": 103968,
          "time": 90.24990975,
          "velocity": 0.4881889763779528
        },
        {
          "duration": 0.08333324999999547,
          "durationTicks": 96,
          "midi": 63,
          "name": "D#4",
          "ticks": 104064,
          "time": 90.333243,
          "velocity": 0.4881889763779528
        },
        {
          "duration": 0.08333324999999547,
          "durationTicks": 96,
          "midi": 60,
          "name": "C4",
          "ticks": 104256,
          "time": 90.4999095,
          "velocity": 0.4881889763779528
        },
        {
          "duration": 0.08333324999999547,
          "durationTicks": 96,
          "midi": 63,
          "name": "D#4",
          "ticks": 104352,
          "time": 90.58324275,
          "velocity": 0.4881889763779528
        },
        {
          "duration": 0.08333325000000968,
          "durationTicks": 96,
          "midi": 65,
          "name": "F4",
          "ticks": 104448,
          "time": 90.66657599999999,
          "velocity": 0.4881889763779528
        },
        {
          "duration": 0.08333324999999547,
          "durationTicks": 96,
          "midi": 60,
          "name": "C4",
          "ticks": 104832,
          "time": 90.999909,
          "velocity": 0.4881889763779528
        },
        {
          "duration": 0.08333325000000968,
          "durationTicks": 96,
          "midi": 63,
          "name": "D#4",
          "ticks": 105024,
          "time": 91.1665755,
          "velocity": 0.4881889763779528
        },
        {
          "duration": 0.08333324999999547,
          "durationTicks": 96,
          "midi": 65,
          "name": "F4",
          "ticks": 105216,
          "time": 91.333242,
          "velocity": 0.4881889763779528
        },
        {
          "duration": 0.08333325000000968,
          "durationTicks": 96,
          "midi": 60,
          "name": "C4",
          "ticks": 105600,
          "time": 91.666575,
          "velocity": 0.4881889763779528
        },
        {
          "duration": 0.08333325000000968,
          "durationTicks": 96,
          "midi": 58,
          "name": "A#3",
          "ticks": 105984,
          "time": 91.99990799999999,
          "velocity": 0.4881889763779528
        },
        {
          "duration": 0.08333324999999547,
          "durationTicks": 96,
          "midi": 58,
          "name": "A#3",
          "ticks": 106368,
          "time": 92.333241,
          "velocity": 0.4881889763779528
        },
        {
          "duration": 0.08333325000000968,
          "durationTicks": 96,
          "midi": 60,
          "name": "C4",
          "ticks": 106560,
          "time": 92.49990749999999,
          "velocity": 0.4881889763779528
        },
        {
          "duration": 0.08333324999999547,
          "durationTicks": 96,
          "midi": 58,
          "name": "A#3",
          "ticks": 106752,
          "time": 92.666574,
          "velocity": 0.4881889763779528
        },
        {
          "duration": 0.08333324999999547,
          "durationTicks": 96,
          "midi": 49,
          "name": "C#3",
          "ticks": 106944,
          "time": 92.8332405,
          "velocity": 0.4881889763779528
        },
        {
          "duration": 0.08333324999999547,
          "durationTicks": 96,
          "midi": 51,
          "name": "D#3",
          "ticks": 107040,
          "time": 92.91657375,
          "velocity": 0.4881889763779528
        },
        {
          "duration": 0.08333325000000968,
          "durationTicks": 96,
          "midi": 56,
          "name": "G#3",
          "ticks": 107136,
          "time": 92.999907,
          "velocity": 0.4881889763779528
        },
        {
          "duration": 0.08333324999999547,
          "durationTicks": 96,
          "midi": 51,
          "name": "D#3",
          "ticks": 107232,
          "time": 93.08324025,
          "velocity": 0.4881889763779528
        },
        {
          "duration": 0.08333324999999547,
          "durationTicks": 96,
          "midi": 49,
          "name": "C#3",
          "ticks": 107328,
          "time": 93.1665735,
          "velocity": 0.4881889763779528
        },
        {
          "duration": 0.08333324999999547,
          "durationTicks": 96,
          "midi": 53,
          "name": "F3",
          "ticks": 107520,
          "time": 93.33324,
          "velocity": 0.4881889763779528
        },
        {
          "duration": 0.08333325000000968,
          "durationTicks": 96,
          "midi": 56,
          "name": "G#3",
          "ticks": 107712,
          "time": 93.4999065,
          "velocity": 0.4881889763779528
        },
        {
          "duration": 0.08333324999999547,
          "durationTicks": 96,
          "midi": 58,
          "name": "A#3",
          "ticks": 107904,
          "time": 93.666573,
          "velocity": 0.4881889763779528
        },
        {
          "duration": 0.08333325000000968,
          "durationTicks": 96,
          "midi": 60,
          "name": "C4",
          "ticks": 108096,
          "time": 93.83323949999999,
          "velocity": 0.4881889763779528
        },
        {
          "duration": 0.08333324999999547,
          "durationTicks": 96,
          "midi": 63,
          "name": "D#4",
          "ticks": 108288,
          "time": 93.999906,
          "velocity": 0.4881889763779528
        },
        {
          "duration": 0.08333324999999547,
          "durationTicks": 96,
          "midi": 60,
          "name": "C4",
          "ticks": 108480,
          "time": 94.1665725,
          "velocity": 0.4881889763779528
        },
        {
          "duration": 0.08333325000000968,
          "durationTicks": 96,
          "midi": 56,
          "name": "G#3",
          "ticks": 108672,
          "time": 94.33323899999999,
          "velocity": 0.4881889763779528
        },
        {
          "duration": 0.08333324999999547,
          "durationTicks": 96,
          "midi": 53,
          "name": "F3",
          "ticks": 108864,
          "time": 94.4999055,
          "velocity": 0.4881889763779528
        },
        {
          "duration": 0.08333324999999547,
          "durationTicks": 96,
          "midi": 58,
          "name": "A#3",
          "ticks": 109056,
          "time": 94.666572,
          "velocity": 0.4881889763779528
        },
        {
          "duration": 0.08333324999999547,
          "durationTicks": 96,
          "midi": 56,
          "name": "G#3",
          "ticks": 109152,
          "time": 94.74990525,
          "velocity": 0.4881889763779528
        },
        {
          "duration": 0.08333325000000968,
          "durationTicks": 96,
          "midi": 53,
          "name": "F3",
          "ticks": 109248,
          "time": 94.8332385,
          "velocity": 0.4881889763779528
        },
        {
          "duration": 0.08333324999999547,
          "durationTicks": 96,
          "midi": 48,
          "name": "C3",
          "ticks": 109344,
          "time": 94.91657175,
          "velocity": 0.4881889763779528
        },
        {
          "duration": 0.08333324999999547,
          "durationTicks": 96,
          "midi": 58,
          "name": "A#3",
          "ticks": 109440,
          "time": 94.999905,
          "velocity": 0.4881889763779528
        },
        {
          "duration": 0.08333325000000968,
          "durationTicks": 96,
          "midi": 56,
          "name": "G#3",
          "ticks": 109536,
          "time": 95.08323825,
          "velocity": 0.4881889763779528
        },
        {
          "duration": 0.08333324999999547,
          "durationTicks": 96,
          "midi": 53,
          "name": "F3",
          "ticks": 109632,
          "time": 95.1665715,
          "velocity": 0.4881889763779528
        },
        {
          "duration": 0.08333324999999547,
          "durationTicks": 96,
          "midi": 48,
          "name": "C3",
          "ticks": 109728,
          "time": 95.24990475,
          "velocity": 0.4881889763779528
        },
        {
          "duration": 0.08333325000000968,
          "durationTicks": 96,
          "midi": 60,
          "name": "C4",
          "ticks": 109824,
          "time": 95.333238,
          "velocity": 0.4881889763779528
        },
        {
          "duration": 0.08333324999999547,
          "durationTicks": 96,
          "midi": 55,
          "name": "G3",
          "ticks": 109920,
          "time": 95.41657125,
          "velocity": 0.4881889763779528
        },
        {
          "duration": 0.08333324999999547,
          "durationTicks": 96,
          "midi": 52,
          "name": "E3",
          "ticks": 110016,
          "time": 95.4999045,
          "velocity": 0.4881889763779528
        },
        {
          "duration": 0.08333324999999547,
          "durationTicks": 96,
          "midi": 48,
          "name": "C3",
          "ticks": 110112,
          "time": 95.58323775,
          "velocity": 0.4881889763779528
        },
        {
          "duration": 0.08333325000000968,
          "durationTicks": 96,
          "midi": 60,
          "name": "C4",
          "ticks": 110208,
          "time": 95.66657099999999,
          "velocity": 0.4881889763779528
        },
        {
          "duration": 0.08333324999999547,
          "durationTicks": 96,
          "midi": 55,
          "name": "G3",
          "ticks": 110304,
          "time": 95.74990425,
          "velocity": 0.4881889763779528
        },
        {
          "duration": 0.08333324999999547,
          "durationTicks": 96,
          "midi": 52,
          "name": "E3",
          "ticks": 110400,
          "time": 95.8332375,
          "velocity": 0.4881889763779528
        },
        {
          "duration": 0.08333325000000968,
          "durationTicks": 96,
          "midi": 48,
          "name": "C3",
          "ticks": 110496,
          "time": 95.91657074999999,
          "velocity": 0.4881889763779528
        },
        {
          "duration": 0.08333324999999547,
          "durationTicks": 96,
          "midi": 56,
          "name": "G#3",
          "ticks": 110592,
          "time": 95.999904,
          "velocity": 0.4881889763779528
        },
        {
          "duration": 0.08333324999999547,
          "durationTicks": 96,
          "midi": 53,
          "name": "F3",
          "ticks": 110688,
          "time": 96.08323725,
          "velocity": 0.4881889763779528
        },
        {
          "duration": 0.08333325000000968,
          "durationTicks": 96,
          "midi": 49,
          "name": "C#3",
          "ticks": 110784,
          "time": 96.16657049999999,
          "velocity": 0.4881889763779528
        },
        {
          "duration": 0.08333324999999547,
          "durationTicks": 96,
          "midi": 53,
          "name": "F3",
          "ticks": 110880,
          "time": 96.24990375,
          "velocity": 0.4881889763779528
        },
        {
          "duration": 0.08333324999999547,
          "durationTicks": 96,
          "midi": 56,
          "name": "G#3",
          "ticks": 110976,
          "time": 96.333237,
          "velocity": 0.4881889763779528
        },
        {
          "duration": 0.08333324999999547,
          "durationTicks": 96,
          "midi": 58,
          "name": "A#3",
          "ticks": 111168,
          "time": 96.4999035,
          "velocity": 0.4881889763779528
        },
        {
          "duration": 0.08333325000000968,
          "durationTicks": 96,
          "midi": 60,
          "name": "C4",
          "ticks": 111360,
          "time": 96.66657,
          "velocity": 0.4881889763779528
        },
        {
          "duration": 0.08333324999999547,
          "durationTicks": 96,
          "midi": 56,
          "name": "G#3",
          "ticks": 111744,
          "time": 96.999903,
          "velocity": 0.4881889763779528
        },
        {
          "duration": 0.08333324999999547,
          "durationTicks": 96,
          "midi": 58,
          "name": "A#3",
          "ticks": 112128,
          "time": 97.333236,
          "velocity": 0.4881889763779528
        },
        {
          "duration": 0.08333324999999547,
          "durationTicks": 96,
          "midi": 55,
          "name": "G3",
          "ticks": 112224,
          "time": 97.41656925,
          "velocity": 0.4881889763779528
        },
        {
          "duration": 0.08333325000000968,
          "durationTicks": 96,
          "midi": 53,
          "name": "F3",
          "ticks": 112320,
          "time": 97.49990249999999,
          "velocity": 0.4881889763779528
        },
        {
          "duration": 0.08333324999999547,
          "durationTicks": 96,
          "midi": 55,
          "name": "G3",
          "ticks": 112416,
          "time": 97.58323575,
          "velocity": 0.4881889763779528
        },
        {
          "duration": 0.08333324999999547,
          "durationTicks": 96,
          "midi": 58,
          "name": "A#3",
          "ticks": 112512,
          "time": 97.666569,
          "velocity": 0.4881889763779528
        },
        {
          "duration": 0.08333324999999547,
          "durationTicks": 96,
          "midi": 60,
          "name": "C4",
          "ticks": 112704,
          "time": 97.8332355,
          "velocity": 0.4881889763779528
        },
        {
          "duration": 0.08333325000000968,
          "durationTicks": 96,
          "midi": 55,
          "name": "G3",
          "ticks": 112896,
          "time": 97.99990199999999,
          "velocity": 0.4881889763779528
        },
        {
          "duration": 0.08333324999999547,
          "durationTicks": 96,
          "midi": 56,
          "name": "G#3",
          "ticks": 113088,
          "time": 98.1665685,
          "velocity": 0.4881889763779528
        },
        {
          "duration": 0.08333325000000968,
          "durationTicks": 96,
          "midi": 55,
          "name": "G3",
          "ticks": 113184,
          "time": 98.24990174999999,
          "velocity": 0.4881889763779528
        },
        {
          "duration": 0.08333324999999547,
          "durationTicks": 96,
          "midi": 51,
          "name": "D#3",
          "ticks": 113280,
          "time": 98.333235,
          "velocity": 0.4881889763779528
        },
        {
          "duration": 0.08333325000000968,
          "durationTicks": 96,
          "midi": 55,
          "name": "G3",
          "ticks": 113472,
          "time": 98.49990149999999,
          "velocity": 0.4881889763779528
        },
        {
          "duration": 0.08333324999999547,
          "durationTicks": 96,
          "midi": 56,
          "name": "G#3",
          "ticks": 113664,
          "time": 98.666568,
          "velocity": 0.4881889763779528
        },
        {
          "duration": 0.08333324999999547,
          "durationTicks": 96,
          "midi": 51,
          "name": "D#3",
          "ticks": 113856,
          "time": 98.8332345,
          "velocity": 0.4881889763779528
        },
        {
          "duration": 0.08333325000000968,
          "durationTicks": 96,
          "midi": 56,
          "name": "G#3",
          "ticks": 114048,
          "time": 98.999901,
          "velocity": 0.4881889763779528
        },
        {
          "duration": 0.08333324999999547,
          "durationTicks": 96,
          "midi": 58,
          "name": "A#3",
          "ticks": 114240,
          "time": 99.1665675,
          "velocity": 0.4881889763779528
        },
        {
          "duration": 0.08333325000000968,
          "durationTicks": 96,
          "midi": 60,
          "name": "C4",
          "ticks": 114432,
          "time": 99.33323399999999,
          "velocity": 0.4881889763779528
        },
        {
          "duration": 0.08333324999999547,
          "durationTicks": 96,
          "midi": 56,
          "name": "G#3",
          "ticks": 114624,
          "time": 99.4999005,
          "velocity": 0.4881889763779528
        },
        {
          "duration": 0.08333324999999547,
          "durationTicks": 96,
          "midi": 60,
          "name": "C4",
          "ticks": 114816,
          "time": 99.666567,
          "velocity": 0.4881889763779528
        },
        {
          "duration": 0.08333325000000968,
          "durationTicks": 96,
          "midi": 63,
          "name": "D#4",
          "ticks": 115008,
          "time": 99.83323349999999,
          "velocity": 0.4881889763779528
        },
        {
          "duration": 0.08333324999999547,
          "durationTicks": 96,
          "midi": 67,
          "name": "G4",
          "ticks": 115200,
          "time": 99.9999,
          "velocity": 0.4881889763779528
        },
        {
          "duration": 0.08333324999999547,
          "durationTicks": 96,
          "midi": 55,
          "name": "G3",
          "ticks": 115392,
          "time": 100.1665665,
          "velocity": 0.4881889763779528
        },
        {
          "duration": 0.08333324999999547,
          "durationTicks": 96,
          "midi": 58,
          "name": "A#3",
          "ticks": 115488,
          "time": 100.24989975,
          "velocity": 0.4881889763779528
        },
        {
          "duration": 0.08333325000000968,
          "durationTicks": 96,
          "midi": 63,
          "name": "D#4",
          "ticks": 115584,
          "time": 100.33323299999999,
          "velocity": 0.4881889763779528
        },
        {
          "duration": 0.08333324999999547,
          "durationTicks": 96,
          "midi": 55,
          "name": "G3",
          "ticks": 115776,
          "time": 100.4998995,
          "velocity": 0.4881889763779528
        },
        {
          "duration": 0.08333325000000968,
          "durationTicks": 96,
          "midi": 58,
          "name": "A#3",
          "ticks": 115872,
          "time": 100.58323275,
          "velocity": 0.4881889763779528
        },
        {
          "duration": 0.08333324999999547,
          "durationTicks": 96,
          "midi": 60,
          "name": "C4",
          "ticks": 115968,
          "time": 100.666566,
          "velocity": 0.4881889763779528
        },
        {
          "duration": 0.08333325000000968,
          "durationTicks": 96,
          "midi": 55,
          "name": "G3",
          "ticks": 116160,
          "time": 100.8332325,
          "velocity": 0.4881889763779528
        },
        {
          "duration": 0.08333324999999547,
          "durationTicks": 96,
          "midi": 58,
          "name": "A#3",
          "ticks": 116256,
          "time": 100.91656575,
          "velocity": 0.4881889763779528
        },
        {
          "duration": 0.08333324999999547,
          "durationTicks": 96,
          "midi": 63,
          "name": "D#4",
          "ticks": 116352,
          "time": 100.999899,
          "velocity": 0.4881889763779528
        },
        {
          "duration": 0.08333325000000968,
          "durationTicks": 96,
          "midi": 60,
          "name": "C4",
          "ticks": 116544,
          "time": 101.16656549999999,
          "velocity": 0.4881889763779528
        },
        {
          "duration": 0.08333324999999547,
          "durationTicks": 96,
          "midi": 63,
          "name": "D#4",
          "ticks": 116640,
          "time": 101.24989875,
          "velocity": 0.4881889763779528
        },
        {
          "duration": 0.08333324999999547,
          "durationTicks": 96,
          "midi": 65,
          "name": "F4",
          "ticks": 116736,
          "time": 101.333232,
          "velocity": 0.4881889763779528
        },
        {
          "duration": 0.08333325000000968,
          "durationTicks": 96,
          "midi": 60,
          "name": "C4",
          "ticks": 117120,
          "time": 101.66656499999999,
          "velocity": 0.4881889763779528
        },
        {
          "duration": 0.08333324999999547,
          "durationTicks": 96,
          "midi": 63,
          "name": "D#4",
          "ticks": 117312,
          "time": 101.8332315,
          "velocity": 0.4881889763779528
        },
        {
          "duration": 0.08333324999999547,
          "durationTicks": 96,
          "midi": 65,
          "name": "F4",
          "ticks": 117504,
          "time": 101.999898,
          "velocity": 0.4881889763779528
        },
        {
          "duration": 0.08333324999999547,
          "durationTicks": 96,
          "midi": 60,
          "name": "C4",
          "ticks": 117888,
          "time": 102.333231,
          "velocity": 0.4881889763779528
        },
        {
          "duration": 0.08333325000000968,
          "durationTicks": 96,
          "midi": 58,
          "name": "A#3",
          "ticks": 118272,
          "time": 102.666564,
          "velocity": 0.4881889763779528
        },
        {
          "duration": 0.08333325000000968,
          "durationTicks": 96,
          "midi": 58,
          "name": "A#3",
          "ticks": 118656,
          "time": 102.99989699999999,
          "velocity": 0.4881889763779528
        },
        {
          "duration": 0.08333324999999547,
          "durationTicks": 96,
          "midi": 60,
          "name": "C4",
          "ticks": 118848,
          "time": 103.1665635,
          "velocity": 0.4881889763779528
        },
        {
          "duration": 0.08333324999999547,
          "durationTicks": 96,
          "midi": 58,
          "name": "A#3",
          "ticks": 119040,
          "time": 103.33323,
          "velocity": 0.4881889763779528
        },
        {
          "duration": 0.08333325000000968,
          "durationTicks": 96,
          "midi": 49,
          "name": "C#3",
          "ticks": 119232,
          "time": 103.49989649999999,
          "velocity": 0.4881889763779528
        },
        {
          "duration": 0.08333324999999547,
          "durationTicks": 96,
          "midi": 51,
          "name": "D#3",
          "ticks": 119328,
          "time": 103.58322975,
          "velocity": 0.4881889763779528
        },
        {
          "duration": 0.08333324999999547,
          "durationTicks": 96,
          "midi": 56,
          "name": "G#3",
          "ticks": 119424,
          "time": 103.666563,
          "velocity": 0.4881889763779528
        },
        {
          "duration": 0.08333325000000968,
          "durationTicks": 96,
          "midi": 51,
          "name": "D#3",
          "ticks": 119520,
          "time": 103.74989624999999,
          "velocity": 0.4881889763779528
        },
        {
          "duration": 0.08333324999999547,
          "durationTicks": 96,
          "midi": 49,
          "name": "C#3",
          "ticks": 119616,
          "time": 103.8332295,
          "velocity": 0.4881889763779528
        },
        {
          "duration": 0.08333325000000968,
          "durationTicks": 96,
          "midi": 53,
          "name": "F3",
          "ticks": 119808,
          "time": 103.99989599999999,
          "velocity": 0.4881889763779528
        },
        {
          "duration": 0.08333324999999547,
          "durationTicks": 96,
          "midi": 56,
          "name": "G#3",
          "ticks": 120000,
          "time": 104.1665625,
          "velocity": 0.4881889763779528
        },
        {
          "duration": 0.08333324999999547,
          "durationTicks": 96,
          "midi": 58,
          "name": "A#3",
          "ticks": 120192,
          "time": 104.333229,
          "velocity": 0.4881889763779528
        },
        {
          "duration": 0.08333325000000968,
          "durationTicks": 96,
          "midi": 60,
          "name": "C4",
          "ticks": 120384,
          "time": 104.4998955,
          "velocity": 0.4881889763779528
        },
        {
          "duration": 0.08333324999999547,
          "durationTicks": 96,
          "midi": 63,
          "name": "D#4",
          "ticks": 120576,
          "time": 104.666562,
          "velocity": 0.4881889763779528
        },
        {
          "duration": 0.08333325000000968,
          "durationTicks": 96,
          "midi": 60,
          "name": "C4",
          "ticks": 120768,
          "time": 104.83322849999999,
          "velocity": 0.4881889763779528
        },
        {
          "duration": 0.08333324999999547,
          "durationTicks": 96,
          "midi": 56,
          "name": "G#3",
          "ticks": 120960,
          "time": 104.999895,
          "velocity": 0.4881889763779528
        },
        {
          "duration": 0.08333324999999547,
          "durationTicks": 96,
          "midi": 53,
          "name": "F3",
          "ticks": 121152,
          "time": 105.1665615,
          "velocity": 0.4881889763779528
        },
        {
          "duration": 0.08333325000000968,
          "durationTicks": 96,
          "midi": 58,
          "name": "A#3",
          "ticks": 121344,
          "time": 105.33322799999999,
          "velocity": 0.4881889763779528
        },
        {
          "duration": 0.08333324999999547,
          "durationTicks": 96,
          "midi": 56,
          "name": "G#3",
          "ticks": 121440,
          "time": 105.41656125,
          "velocity": 0.4881889763779528
        },
        {
          "duration": 0.08333324999999547,
          "durationTicks": 96,
          "midi": 53,
          "name": "F3",
          "ticks": 121536,
          "time": 105.4998945,
          "velocity": 0.4881889763779528
        },
        {
          "duration": 0.08333325000000968,
          "durationTicks": 96,
          "midi": 48,
          "name": "C3",
          "ticks": 121632,
          "time": 105.58322774999999,
          "velocity": 0.4881889763779528
        },
        {
          "duration": 0.08333324999999547,
          "durationTicks": 96,
          "midi": 58,
          "name": "A#3",
          "ticks": 121728,
          "time": 105.666561,
          "velocity": 0.4881889763779528
        },
        {
          "duration": 0.08333324999999547,
          "durationTicks": 96,
          "midi": 56,
          "name": "G#3",
          "ticks": 121824,
          "time": 105.74989425,
          "velocity": 0.4881889763779528
        },
        {
          "duration": 0.08333325000000968,
          "durationTicks": 96,
          "midi": 53,
          "name": "F3",
          "ticks": 121920,
          "time": 105.83322749999999,
          "velocity": 0.4881889763779528
        },
        {
          "duration": 0.08333324999999547,
          "durationTicks": 96,
          "midi": 48,
          "name": "C3",
          "ticks": 122016,
          "time": 105.91656075,
          "velocity": 0.4881889763779528
        },
        {
          "duration": 0.08333324999999547,
          "durationTicks": 96,
          "midi": 60,
          "name": "C4",
          "ticks": 122112,
          "time": 105.999894,
          "velocity": 0.4881889763779528
        },
        {
          "duration": 0.08333325000000968,
          "durationTicks": 96,
          "midi": 55,
          "name": "G3",
          "ticks": 122208,
          "time": 106.08322725,
          "velocity": 0.4881889763779528
        },
        {
          "duration": 0.08333324999999547,
          "durationTicks": 96,
          "midi": 52,
          "name": "E3",
          "ticks": 122304,
          "time": 106.1665605,
          "velocity": 0.4881889763779528
        },
        {
          "duration": 0.08333324999999547,
          "durationTicks": 96,
          "midi": 48,
          "name": "C3",
          "ticks": 122400,
          "time": 106.24989375,
          "velocity": 0.4881889763779528
        },
        {
          "duration": 0.08333325000000968,
          "durationTicks": 96,
          "midi": 60,
          "name": "C4",
          "ticks": 122496,
          "time": 106.333227,
          "velocity": 0.4881889763779528
        },
        {
          "duration": 0.08333324999999547,
          "durationTicks": 96,
          "midi": 55,
          "name": "G3",
          "ticks": 122592,
          "time": 106.41656025,
          "velocity": 0.4881889763779528
        },
        {
          "duration": 0.08333324999999547,
          "durationTicks": 96,
          "midi": 52,
          "name": "E3",
          "ticks": 122688,
          "time": 106.4998935,
          "velocity": 0.4881889763779528
        },
        {
          "duration": 0.7499992500000019,
          "durationTicks": 864,
          "midi": 48,
          "name": "C3",
          "ticks": 122784,
          "time": 106.58322675,
          "velocity": 0.4881889763779528
        }
      ],
      "endOfTrackTicks": 123648
    },
    {
      "channel": 2,
      "controlChanges": {},
      "pitchBends": [],
      "instrument": {
        "family": "synth lead",
        "number": 80,
        "name": "lead 1 (square)"
      },
      "name": "8-Bit Square",
      "notes": [
        {
          "duration": 0.08333324999999903,
          "durationTicks": 96,
          "midi": 34,
          "name": "A#1",
          "ticks": 24576,
          "time": 21.333312,
          "velocity": 0.3937007874015748
        },
        {
          "duration": 0.08333324999999903,
          "durationTicks": 96,
          "midi": 34,
          "name": "A#1",
          "ticks": 24768,
          "time": 21.4999785,
          "velocity": 0.3937007874015748
        },
        {
          "duration": 0.1666665000000016,
          "durationTicks": 192,
          "midi": 46,
          "name": "A#2",
          "ticks": 24960,
          "time": 21.666645,
          "velocity": 0.3937007874015748
        },
        {
          "duration": 0.08333324999999903,
          "durationTicks": 96,
          "midi": 34,
          "name": "A#1",
          "ticks": 25152,
          "time": 21.8333115,
          "velocity": 0.3937007874015748
        },
        {
          "duration": 0.08333324999999903,
          "durationTicks": 96,
          "midi": 34,
          "name": "A#1",
          "ticks": 25344,
          "time": 21.999978,
          "velocity": 0.3937007874015748
        },
        {
          "duration": 0.16666649999999805,
          "durationTicks": 192,
          "midi": 46,
          "name": "A#2",
          "ticks": 25536,
          "time": 22.1666445,
          "velocity": 0.3937007874015748
        },
        {
          "duration": 0.08333325000000258,
          "durationTicks": 96,
          "midi": 34,
          "name": "A#1",
          "ticks": 25728,
          "time": 22.333311,
          "velocity": 0.3937007874015748
        },
        {
          "duration": 0.08333324999999903,
          "durationTicks": 96,
          "midi": 34,
          "name": "A#1",
          "ticks": 25920,
          "time": 22.4999775,
          "velocity": 0.3937007874015748
        },
        {
          "duration": 0.08333325000000258,
          "durationTicks": 96,
          "midi": 34,
          "name": "A#1",
          "ticks": 26112,
          "time": 22.666643999999998,
          "velocity": 0.3937007874015748
        },
        {
          "duration": 0.08333324999999903,
          "durationTicks": 96,
          "midi": 34,
          "name": "A#1",
          "ticks": 26304,
          "time": 22.8333105,
          "velocity": 0.3937007874015748
        },
        {
          "duration": 0.1666665000000016,
          "durationTicks": 192,
          "midi": 46,
          "name": "A#2",
          "ticks": 26496,
          "time": 22.999976999999998,
          "velocity": 0.3937007874015748
        },
        {
          "duration": 0.08333324999999903,
          "durationTicks": 96,
          "midi": 34,
          "name": "A#1",
          "ticks": 26688,
          "time": 23.1666435,
          "velocity": 0.3937007874015748
        },
        {
          "duration": 0.08333324999999903,
          "durationTicks": 96,
          "midi": 34,
          "name": "A#1",
          "ticks": 26880,
          "time": 23.33331,
          "velocity": 0.3937007874015748
        },
        {
          "duration": 0.1666665000000016,
          "durationTicks": 192,
          "midi": 46,
          "name": "A#2",
          "ticks": 27072,
          "time": 23.4999765,
          "velocity": 0.3937007874015748
        },
        {
          "duration": 0.08333324999999903,
          "durationTicks": 96,
          "midi": 34,
          "name": "A#1",
          "ticks": 27264,
          "time": 23.666643,
          "velocity": 0.3937007874015748
        },
        {
          "duration": 0.08333324999999903,
          "durationTicks": 96,
          "midi": 34,
          "name": "A#1",
          "ticks": 27456,
          "time": 23.8333095,
          "velocity": 0.3937007874015748
        },
        {
          "duration": 0.08333324999999903,
          "durationTicks": 96,
          "midi": 36,
          "name": "C2",
          "ticks": 27648,
          "time": 23.999976,
          "velocity": 0.3937007874015748
        },
        {
          "duration": 0.08333325000000258,
          "durationTicks": 96,
          "midi": 36,
          "name": "C2",
          "ticks": 27840,
          "time": 24.1666425,
          "velocity": 0.3937007874015748
        },
        {
          "duration": 0.16666649999999805,
          "durationTicks": 192,
          "midi": 48,
          "name": "C3",
          "ticks": 28032,
          "time": 24.333309,
          "velocity": 0.3937007874015748
        },
        {
          "duration": 0.08333325000000258,
          "durationTicks": 96,
          "midi": 36,
          "name": "C2",
          "ticks": 28224,
          "time": 24.499975499999998,
          "velocity": 0.3937007874015748
        },
        {
          "duration": 0.08333324999999903,
          "durationTicks": 96,
          "midi": 36,
          "name": "C2",
          "ticks": 28416,
          "time": 24.666642,
          "velocity": 0.3937007874015748
        },
        {
          "duration": 0.1666665000000016,
          "durationTicks": 192,
          "midi": 48,
          "name": "C3",
          "ticks": 28608,
          "time": 24.833308499999998,
          "velocity": 0.3937007874015748
        },
        {
          "duration": 0.08333324999999903,
          "durationTicks": 96,
          "midi": 36,
          "name": "C2",
          "ticks": 28800,
          "time": 24.999975,
          "velocity": 0.3937007874015748
        },
        {
          "duration": 0.08333324999999903,
          "durationTicks": 96,
          "midi": 36,
          "name": "C2",
          "ticks": 28992,
          "time": 25.1666415,
          "velocity": 0.3937007874015748
        },
        {
          "duration": 0.08333324999999903,
          "durationTicks": 96,
          "midi": 36,
          "name": "C2",
          "ticks": 29184,
          "time": 25.333308,
          "velocity": 0.3937007874015748
        },
        {
          "duration": 0.08333324999999903,
          "durationTicks": 96,
          "midi": 36,
          "name": "C2",
          "ticks": 29376,
          "time": 25.4999745,
          "velocity": 0.3937007874015748
        },
        {
          "duration": 0.1666665000000016,
          "durationTicks": 192,
          "midi": 48,
          "name": "C3",
          "ticks": 29568,
          "time": 25.666641,
          "velocity": 0.3937007874015748
        },
        {
          "duration": 0.08333324999999903,
          "durationTicks": 96,
          "midi": 36,
          "name": "C2",
          "ticks": 29760,
          "time": 25.8333075,
          "velocity": 0.3937007874015748
        },
        {
          "duration": 0.08333325000000258,
          "durationTicks": 96,
          "midi": 36,
          "name": "C2",
          "ticks": 29952,
          "time": 25.999973999999998,
          "velocity": 0.3937007874015748
        },
        {
          "duration": 0.16666649999999805,
          "durationTicks": 192,
          "midi": 48,
          "name": "C3",
          "ticks": 30144,
          "time": 26.1666405,
          "velocity": 0.3937007874015748
        },
        {
          "duration": 0.08333325000000258,
          "durationTicks": 96,
          "midi": 36,
          "name": "C2",
          "ticks": 30336,
          "time": 26.333306999999998,
          "velocity": 0.3937007874015748
        },
        {
          "duration": 0.08333324999999903,
          "durationTicks": 96,
          "midi": 36,
          "name": "C2",
          "ticks": 30528,
          "time": 26.4999735,
          "velocity": 0.3937007874015748
        },
        {
          "duration": 0.08333324999999903,
          "durationTicks": 96,
          "midi": 37,
          "name": "C#2",
          "ticks": 30720,
          "time": 26.66664,
          "velocity": 0.3937007874015748
        },
        {
          "duration": 0.08333324999999903,
          "durationTicks": 96,
          "midi": 37,
          "name": "C#2",
          "ticks": 30912,
          "time": 26.8333065,
          "velocity": 0.3937007874015748
        },
        {
          "duration": 0.16666649999999805,
          "durationTicks": 192,
          "midi": 49,
          "name": "C#3",
          "ticks": 31104,
          "time": 26.999973,
          "velocity": 0.3937007874015748
        },
        {
          "duration": 0.08333324999999903,
          "durationTicks": 96,
          "midi": 37,
          "name": "C#2",
          "ticks": 31296,
          "time": 27.1666395,
          "velocity": 0.3937007874015748
        },
        {
          "duration": 0.08333324999999903,
          "durationTicks": 96,
          "midi": 37,
          "name": "C#2",
          "ticks": 31488,
          "time": 27.333306,
          "velocity": 0.3937007874015748
        },
        {
          "duration": 0.1666665000000016,
          "durationTicks": 192,
          "midi": 49,
          "name": "C#3",
          "ticks": 31680,
          "time": 27.4999725,
          "velocity": 0.3937007874015748
        },
        {
          "duration": 0.08333324999999903,
          "durationTicks": 96,
          "midi": 37,
          "name": "C#2",
          "ticks": 31872,
          "time": 27.666639,
          "velocity": 0.3937007874015748
        },
        {
          "duration": 0.08333325000000258,
          "durationTicks": 96,
          "midi": 37,
          "name": "C#2",
          "ticks": 32064,
          "time": 27.833305499999998,
          "velocity": 0.3937007874015748
        },
        {
          "duration": 0.08333324999999903,
          "durationTicks": 96,
          "midi": 37,
          "name": "C#2",
          "ticks": 32256,
          "time": 27.999972,
          "velocity": 0.3937007874015748
        },
        {
          "duration": 0.08333325000000258,
          "durationTicks": 96,
          "midi": 37,
          "name": "C#2",
          "ticks": 32448,
          "time": 28.166638499999998,
          "velocity": 0.3937007874015748
        },
        {
          "duration": 0.1666665000000016,
          "durationTicks": 192,
          "midi": 49,
          "name": "C#3",
          "ticks": 32640,
          "time": 28.333305,
          "velocity": 0.3937007874015748
        },
        {
          "duration": 0.08333324999999903,
          "durationTicks": 96,
          "midi": 37,
          "name": "C#2",
          "ticks": 32832,
          "time": 28.4999715,
          "velocity": 0.3937007874015748
        },
        {
          "duration": 0.08333324999999903,
          "durationTicks": 96,
          "midi": 37,
          "name": "C#2",
          "ticks": 33024,
          "time": 28.666638,
          "velocity": 0.3937007874015748
        },
        {
          "duration": 0.16666649999999805,
          "durationTicks": 192,
          "midi": 49,
          "name": "C#3",
          "ticks": 33216,
          "time": 28.8333045,
          "velocity": 0.3937007874015748
        },
        {
          "duration": 0.08333324999999903,
          "durationTicks": 96,
          "midi": 37,
          "name": "C#2",
          "ticks": 33408,
          "time": 28.999971,
          "velocity": 0.3937007874015748
        },
        {
          "duration": 0.08333324999999903,
          "durationTicks": 96,
          "midi": 37,
          "name": "C#2",
          "ticks": 33600,
          "time": 29.1666375,
          "velocity": 0.3937007874015748
        },
        {
          "duration": 0.08333325000000258,
          "durationTicks": 96,
          "midi": 38,
          "name": "D2",
          "ticks": 33792,
          "time": 29.333304,
          "velocity": 0.3937007874015748
        },
        {
          "duration": 0.08333324999999903,
          "durationTicks": 96,
          "midi": 38,
          "name": "D2",
          "ticks": 33984,
          "time": 29.4999705,
          "velocity": 0.3937007874015748
        },
        {
          "duration": 0.1666665000000016,
          "durationTicks": 192,
          "midi": 50,
          "name": "D3",
          "ticks": 34176,
          "time": 29.666636999999998,
          "velocity": 0.3937007874015748
        },
        {
          "duration": 0.08333324999999903,
          "durationTicks": 96,
          "midi": 38,
          "name": "D2",
          "ticks": 34368,
          "time": 29.8333035,
          "velocity": 0.3937007874015748
        },
        {
          "duration": 0.08333325000000258,
          "durationTicks": 96,
          "midi": 38,
          "name": "D2",
          "ticks": 34560,
          "time": 29.999969999999998,
          "velocity": 0.3937007874015748
        },
        {
          "duration": 0.1666665000000016,
          "durationTicks": 192,
          "midi": 50,
          "name": "D3",
          "ticks": 34752,
          "time": 30.1666365,
          "velocity": 0.3937007874015748
        },
        {
          "duration": 0.08333324999999903,
          "durationTicks": 96,
          "midi": 38,
          "name": "D2",
          "ticks": 34944,
          "time": 30.333303,
          "velocity": 0.3937007874015748
        },
        {
          "duration": 0.08333324999999903,
          "durationTicks": 96,
          "midi": 38,
          "name": "D2",
          "ticks": 35136,
          "time": 30.4999695,
          "velocity": 0.3937007874015748
        },
        {
          "duration": 0.08333324999999903,
          "durationTicks": 96,
          "midi": 38,
          "name": "D2",
          "ticks": 35328,
          "time": 30.666636,
          "velocity": 0.3937007874015748
        },
        {
          "duration": 0.08333324999999903,
          "durationTicks": 96,
          "midi": 38,
          "name": "D2",
          "ticks": 35520,
          "time": 30.8333025,
          "velocity": 0.3937007874015748
        },
        {
          "duration": 0.16666649999999805,
          "durationTicks": 192,
          "midi": 50,
          "name": "D3",
          "ticks": 35712,
          "time": 30.999969,
          "velocity": 0.3937007874015748
        },
        {
          "duration": 0.08333325000000258,
          "durationTicks": 96,
          "midi": 38,
          "name": "D2",
          "ticks": 35904,
          "time": 31.166635499999998,
          "velocity": 0.3937007874015748
        },
        {
          "duration": 0.08333324999999903,
          "durationTicks": 96,
          "midi": 38,
          "name": "D2",
          "ticks": 36096,
          "time": 31.333302,
          "velocity": 0.3937007874015748
        },
        {
          "duration": 0.1666665000000016,
          "durationTicks": 192,
          "midi": 50,
          "name": "D3",
          "ticks": 36288,
          "time": 31.499968499999998,
          "velocity": 0.3937007874015748
        },
        {
          "duration": 0.08333324999999903,
          "durationTicks": 96,
          "midi": 38,
          "name": "D2",
          "ticks": 36480,
          "time": 31.666635,
          "velocity": 0.3937007874015748
        },
        {
          "duration": 0.08333325000000258,
          "durationTicks": 96,
          "midi": 38,
          "name": "D2",
          "ticks": 36672,
          "time": 31.833301499999997,
          "velocity": 0.3937007874015748
        },
        {
          "duration": 0.08333324999999903,
          "durationTicks": 96,
          "midi": 34,
          "name": "A#1",
          "ticks": 36864,
          "time": 31.999968,
          "velocity": 0.3937007874015748
        },
        {
          "duration": 0.08333324999999547,
          "durationTicks": 96,
          "midi": 34,
          "name": "A#1",
          "ticks": 37056,
          "time": 32.1666345,
          "velocity": 0.3937007874015748
        },
        {
          "duration": 0.16666649999999805,
          "durationTicks": 192,
          "midi": 46,
          "name": "A#2",
          "ticks": 37248,
          "time": 32.333301,
          "velocity": 0.3937007874015748
        },
        {
          "duration": 0.08333325000000258,
          "durationTicks": 96,
          "midi": 34,
          "name": "A#1",
          "ticks": 37440,
          "time": 32.4999675,
          "velocity": 0.3937007874015748
        },
        {
          "duration": 0.08333324999999547,
          "durationTicks": 96,
          "midi": 34,
          "name": "A#1",
          "ticks": 37632,
          "time": 32.666634,
          "velocity": 0.3937007874015748
        },
        {
          "duration": 0.16666649999999805,
          "durationTicks": 192,
          "midi": 46,
          "name": "A#2",
          "ticks": 37824,
          "time": 32.8333005,
          "velocity": 0.3937007874015748
        },
        {
          "duration": 0.08333325000000258,
          "durationTicks": 96,
          "midi": 34,
          "name": "A#1",
          "ticks": 38016,
          "time": 32.999967,
          "velocity": 0.3937007874015748
        },
        {
          "duration": 0.08333325000000258,
          "durationTicks": 96,
          "midi": 34,
          "name": "A#1",
          "ticks": 38208,
          "time": 33.166633499999996,
          "velocity": 0.3937007874015748
        },
        {
          "duration": 0.08333324999999547,
          "durationTicks": 96,
          "midi": 34,
          "name": "A#1",
          "ticks": 38400,
          "time": 33.3333,
          "velocity": 0.3937007874015748
        },
        {
          "duration": 0.08333325000000258,
          "durationTicks": 96,
          "midi": 34,
          "name": "A#1",
          "ticks": 38592,
          "time": 33.4999665,
          "velocity": 0.3937007874015748
        },
        {
          "duration": 0.16666650000000516,
          "durationTicks": 192,
          "midi": 46,
          "name": "A#2",
          "ticks": 38784,
          "time": 33.666633,
          "velocity": 0.3937007874015748
        },
        {
          "duration": 0.08333324999999547,
          "durationTicks": 96,
          "midi": 34,
          "name": "A#1",
          "ticks": 38976,
          "time": 33.8332995,
          "velocity": 0.3937007874015748
        },
        {
          "duration": 0.08333324999999547,
          "durationTicks": 96,
          "midi": 34,
          "name": "A#1",
          "ticks": 39168,
          "time": 33.999966,
          "velocity": 0.3937007874015748
        },
        {
          "duration": 0.16666649999999805,
          "durationTicks": 192,
          "midi": 46,
          "name": "A#2",
          "ticks": 39360,
          "time": 34.1666325,
          "velocity": 0.3937007874015748
        },
        {
          "duration": 0.08333325000000258,
          "durationTicks": 96,
          "midi": 34,
          "name": "A#1",
          "ticks": 39552,
          "time": 34.333299,
          "velocity": 0.3937007874015748
        },
        {
          "duration": 0.08333324999999547,
          "durationTicks": 96,
          "midi": 34,
          "name": "A#1",
          "ticks": 39744,
          "time": 34.4999655,
          "velocity": 0.3937007874015748
        },
        {
          "duration": 0.08333325000000258,
          "durationTicks": 96,
          "midi": 36,
          "name": "C2",
          "ticks": 39936,
          "time": 34.666632,
          "velocity": 0.3937007874015748
        },
        {
          "duration": 0.08333325000000258,
          "durationTicks": 96,
          "midi": 36,
          "name": "C2",
          "ticks": 40128,
          "time": 34.8332985,
          "velocity": 0.3937007874015748
        },
        {
          "duration": 0.16666650000000516,
          "durationTicks": 192,
          "midi": 48,
          "name": "C3",
          "ticks": 40320,
          "time": 34.999964999999996,
          "velocity": 0.3937007874015748
        },
        {
          "duration": 0.08333324999999547,
          "durationTicks": 96,
          "midi": 36,
          "name": "C2",
          "ticks": 40512,
          "time": 35.1666315,
          "velocity": 0.3937007874015748
        },
        {
          "duration": 0.08333325000000258,
          "durationTicks": 96,
          "midi": 36,
          "name": "C2",
          "ticks": 40704,
          "time": 35.333298,
          "velocity": 0.3937007874015748
        },
        {
          "duration": 0.16666650000000516,
          "durationTicks": 192,
          "midi": 48,
          "name": "C3",
          "ticks": 40896,
          "time": 35.4999645,
          "velocity": 0.3937007874015748
        },
        {
          "duration": 0.08333324999999547,
          "durationTicks": 96,
          "midi": 36,
          "name": "C2",
          "ticks": 41088,
          "time": 35.666631,
          "velocity": 0.3937007874015748
        },
        {
          "duration": 0.08333324999999547,
          "durationTicks": 96,
          "midi": 36,
          "name": "C2",
          "ticks": 41280,
          "time": 35.8332975,
          "velocity": 0.3937007874015748
        },
        {
          "duration": 0.08333325000000258,
          "durationTicks": 96,
          "midi": 36,
          "name": "C2",
          "ticks": 41472,
          "time": 35.999964,
          "velocity": 0.3937007874015748
        },
        {
          "duration": 0.08333325000000258,
          "durationTicks": 96,
          "midi": 36,
          "name": "C2",
          "ticks": 41664,
          "time": 36.1666305,
          "velocity": 0.3937007874015748
        },
        {
          "duration": 0.16666649999999805,
          "durationTicks": 192,
          "midi": 48,
          "name": "C3",
          "ticks": 41856,
          "time": 36.333297,
          "velocity": 0.3937007874015748
        },
        {
          "duration": 0.08333325000000258,
          "durationTicks": 96,
          "midi": 36,
          "name": "C2",
          "ticks": 42048,
          "time": 36.4999635,
          "velocity": 0.3937007874015748
        },
        {
          "duration": 0.08333325000000258,
          "durationTicks": 96,
          "midi": 36,
          "name": "C2",
          "ticks": 42240,
          "time": 36.66663,
          "velocity": 0.3937007874015748
        },
        {
          "duration": 0.16666650000000516,
          "durationTicks": 192,
          "midi": 48,
          "name": "C3",
          "ticks": 42432,
          "time": 36.833296499999996,
          "velocity": 0.3937007874015748
        },
        {
          "duration": 0.08333324999999547,
          "durationTicks": 96,
          "midi": 36,
          "name": "C2",
          "ticks": 42624,
          "time": 36.999963,
          "velocity": 0.3937007874015748
        },
        {
          "duration": 0.08333325000000258,
          "durationTicks": 96,
          "midi": 36,
          "name": "C2",
          "ticks": 42816,
          "time": 37.1666295,
          "velocity": 0.3937007874015748
        },
        {
          "duration": 0.08333325000000258,
          "durationTicks": 96,
          "midi": 37,
          "name": "C#2",
          "ticks": 43008,
          "time": 37.333296,
          "velocity": 0.3937007874015748
        },
        {
          "duration": 0.08333324999999547,
          "durationTicks": 96,
          "midi": 37,
          "name": "C#2",
          "ticks": 43200,
          "time": 37.4999625,
          "velocity": 0.3937007874015748
        },
        {
          "duration": 0.16666649999999805,
          "durationTicks": 192,
          "midi": 49,
          "name": "C#3",
          "ticks": 43392,
          "time": 37.666629,
          "velocity": 0.3937007874015748
        },
        {
          "duration": 0.08333325000000258,
          "durationTicks": 96,
          "midi": 37,
          "name": "C#2",
          "ticks": 43584,
          "time": 37.8332955,
          "velocity": 0.3937007874015748
        },
        {
          "duration": 0.08333325000000258,
          "durationTicks": 96,
          "midi": 37,
          "name": "C#2",
          "ticks": 43776,
          "time": 37.999962,
          "velocity": 0.3937007874015748
        },
        {
          "duration": 0.16666649999999805,
          "durationTicks": 192,
          "midi": 49,
          "name": "C#3",
          "ticks": 43968,
          "time": 38.1666285,
          "velocity": 0.3937007874015748
        },
        {
          "duration": 0.08333325000000258,
          "durationTicks": 96,
          "midi": 37,
          "name": "C#2",
          "ticks": 44160,
          "time": 38.333295,
          "velocity": 0.3937007874015748
        },
        {
          "duration": 0.08333325000000258,
          "durationTicks": 96,
          "midi": 37,
          "name": "C#2",
          "ticks": 44352,
          "time": 38.4999615,
          "velocity": 0.3937007874015748
        },
        {
          "duration": 0.08333325000000258,
          "durationTicks": 96,
          "midi": 37,
          "name": "C#2",
          "ticks": 44544,
          "time": 38.666627999999996,
          "velocity": 0.3937007874015748
        },
        {
          "duration": 0.08333324999999547,
          "durationTicks": 96,
          "midi": 37,
          "name": "C#2",
          "ticks": 44736,
          "time": 38.8332945,
          "velocity": 0.3937007874015748
        },
        {
          "duration": 0.16666649999999805,
          "durationTicks": 192,
          "midi": 49,
          "name": "C#3",
          "ticks": 44928,
          "time": 38.999961,
          "velocity": 0.3937007874015748
        },
        {
          "duration": 0.08333325000000258,
          "durationTicks": 96,
          "midi": 37,
          "name": "C#2",
          "ticks": 45120,
          "time": 39.1666275,
          "velocity": 0.3937007874015748
        },
        {
          "duration": 0.08333324999999547,
          "durationTicks": 96,
          "midi": 37,
          "name": "C#2",
          "ticks": 45312,
          "time": 39.333294,
          "velocity": 0.3937007874015748
        },
        {
          "duration": 0.16666649999999805,
          "durationTicks": 192,
          "midi": 49,
          "name": "C#3",
          "ticks": 45504,
          "time": 39.4999605,
          "velocity": 0.3937007874015748
        },
        {
          "duration": 0.08333325000000258,
          "durationTicks": 96,
          "midi": 37,
          "name": "C#2",
          "ticks": 45696,
          "time": 39.666627,
          "velocity": 0.3937007874015748
        },
        {
          "duration": 0.08333325000000258,
          "durationTicks": 96,
          "midi": 37,
          "name": "C#2",
          "ticks": 45888,
          "time": 39.833293499999996,
          "velocity": 0.3937007874015748
        },
        {
          "duration": 0.08333324999999547,
          "durationTicks": 96,
          "midi": 38,
          "name": "D2",
          "ticks": 46080,
          "time": 39.99996,
          "velocity": 0.3937007874015748
        },
        {
          "duration": 0.08333325000000258,
          "durationTicks": 96,
          "midi": 38,
          "name": "D2",
          "ticks": 46272,
          "time": 40.1666265,
          "velocity": 0.3937007874015748
        },
        {
          "duration": 0.16666649999999805,
          "durationTicks": 192,
          "midi": 50,
          "name": "D3",
          "ticks": 46464,
          "time": 40.333293,
          "velocity": 0.3937007874015748
        },
        {
          "duration": 0.08333325000000258,
          "durationTicks": 96,
          "midi": 38,
          "name": "D2",
          "ticks": 46656,
          "time": 40.499959499999996,
          "velocity": 0.3937007874015748
        },
        {
          "duration": 0.08333324999999547,
          "durationTicks": 96,
          "midi": 38,
          "name": "D2",
          "ticks": 46848,
          "time": 40.666626,
          "velocity": 0.3937007874015748
        },
        {
          "duration": 0.16666649999999805,
          "durationTicks": 192,
          "midi": 50,
          "name": "D3",
          "ticks": 47040,
          "time": 40.8332925,
          "velocity": 0.3937007874015748
        },
        {
          "duration": 0.08333325000000258,
          "durationTicks": 96,
          "midi": 38,
          "name": "D2",
          "ticks": 47232,
          "time": 40.999959,
          "velocity": 0.3937007874015748
        },
        {
          "duration": 0.08333324999999547,
          "durationTicks": 96,
          "midi": 38,
          "name": "D2",
          "ticks": 47424,
          "time": 41.1666255,
          "velocity": 0.3937007874015748
        },
        {
          "duration": 0.08333324999999547,
          "durationTicks": 96,
          "midi": 38,
          "name": "D2",
          "ticks": 47616,
          "time": 41.333292,
          "velocity": 0.3937007874015748
        },
        {
          "duration": 0.08333325000000258,
          "durationTicks": 96,
          "midi": 38,
          "name": "D2",
          "ticks": 47808,
          "time": 41.4999585,
          "velocity": 0.3937007874015748
        },
        {
          "duration": 0.16666650000000516,
          "durationTicks": 192,
          "midi": 50,
          "name": "D3",
          "ticks": 48000,
          "time": 41.666624999999996,
          "velocity": 0.3937007874015748
        },
        {
          "duration": 0.08333324999999547,
          "durationTicks": 96,
          "midi": 38,
          "name": "D2",
          "ticks": 48192,
          "time": 41.8332915,
          "velocity": 0.3937007874015748
        },
        {
          "duration": 0.08333325000000258,
          "durationTicks": 96,
          "midi": 38,
          "name": "D2",
          "ticks": 48384,
          "time": 41.999958,
          "velocity": 0.3937007874015748
        },
        {
          "duration": 0.16666649999999805,
          "durationTicks": 192,
          "midi": 50,
          "name": "D3",
          "ticks": 48576,
          "time": 42.1666245,
          "velocity": 0.3937007874015748
        },
        {
          "duration": 0.08333325000000258,
          "durationTicks": 96,
          "midi": 38,
          "name": "D2",
          "ticks": 48768,
          "time": 42.333290999999996,
          "velocity": 0.3937007874015748
        },
        {
          "duration": 0.08333324999999547,
          "durationTicks": 96,
          "midi": 38,
          "name": "D2",
          "ticks": 48960,
          "time": 42.4999575,
          "velocity": 0.3937007874015748
        },
        {
          "duration": 0.08333325000000258,
          "durationTicks": 96,
          "midi": 34,
          "name": "A#1",
          "ticks": 49152,
          "time": 42.666624,
          "velocity": 0.3937007874015748
        },
        {
          "duration": 0.08333325000000258,
          "durationTicks": 96,
          "midi": 34,
          "name": "A#1",
          "ticks": 49344,
          "time": 42.8332905,
          "velocity": 0.3937007874015748
        },
        {
          "duration": 0.16666649999999805,
          "durationTicks": 192,
          "midi": 46,
          "name": "A#2",
          "ticks": 49536,
          "time": 42.999957,
          "velocity": 0.3937007874015748
        },
        {
          "duration": 0.08333324999999547,
          "durationTicks": 96,
          "midi": 34,
          "name": "A#1",
          "ticks": 49728,
          "time": 43.1666235,
          "velocity": 0.3937007874015748
        },
        {
          "duration": 0.08333325000000258,
          "durationTicks": 96,
          "midi": 34,
          "name": "A#1",
          "ticks": 49920,
          "time": 43.33329,
          "velocity": 0.3937007874015748
        },
        {
          "duration": 0.16666650000000516,
          "durationTicks": 192,
          "midi": 46,
          "name": "A#2",
          "ticks": 50112,
          "time": 43.499956499999996,
          "velocity": 0.3937007874015748
        },
        {
          "duration": 0.08333324999999547,
          "durationTicks": 96,
          "midi": 34,
          "name": "A#1",
          "ticks": 50304,
          "time": 43.666623,
          "velocity": 0.3937007874015748
        },
        {
          "duration": 0.08333325000000258,
          "durationTicks": 96,
          "midi": 34,
          "name": "A#1",
          "ticks": 50496,
          "time": 43.8332895,
          "velocity": 0.3937007874015748
        },
        {
          "duration": 0.08333325000000258,
          "durationTicks": 96,
          "midi": 34,
          "name": "A#1",
          "ticks": 50688,
          "time": 43.999956,
          "velocity": 0.3937007874015748
        },
        {
          "duration": 0.08333325000000258,
          "durationTicks": 96,
          "midi": 34,
          "name": "A#1",
          "ticks": 50880,
          "time": 44.166622499999995,
          "velocity": 0.3937007874015748
        },
        {
          "duration": 0.16666649999999805,
          "durationTicks": 192,
          "midi": 46,
          "name": "A#2",
          "ticks": 51072,
          "time": 44.333289,
          "velocity": 0.3937007874015748
        },
        {
          "duration": 0.08333325000000258,
          "durationTicks": 96,
          "midi": 34,
          "name": "A#1",
          "ticks": 51264,
          "time": 44.4999555,
          "velocity": 0.3937007874015748
        },
        {
          "duration": 0.08333325000000258,
          "durationTicks": 96,
          "midi": 34,
          "name": "A#1",
          "ticks": 51456,
          "time": 44.666622,
          "velocity": 0.3937007874015748
        },
        {
          "duration": 0.16666649999999805,
          "durationTicks": 192,
          "midi": 46,
          "name": "A#2",
          "ticks": 51648,
          "time": 44.8332885,
          "velocity": 0.3937007874015748
        },
        {
          "duration": 0.08333324999999547,
          "durationTicks": 96,
          "midi": 34,
          "name": "A#1",
          "ticks": 51840,
          "time": 44.999955,
          "velocity": 0.3937007874015748
        },
        {
          "duration": 0.08333325000000258,
          "durationTicks": 96,
          "midi": 34,
          "name": "A#1",
          "ticks": 52032,
          "time": 45.1666215,
          "velocity": 0.3937007874015748
        },
        {
          "duration": 0.08333325000000258,
          "durationTicks": 96,
          "midi": 36,
          "name": "C2",
          "ticks": 52224,
          "time": 45.333287999999996,
          "velocity": 0.3937007874015748
        },
        {
          "duration": 0.08333324999999547,
          "durationTicks": 96,
          "midi": 36,
          "name": "C2",
          "ticks": 52416,
          "time": 45.4999545,
          "velocity": 0.3937007874015748
        },
        {
          "duration": 0.16666649999999805,
          "durationTicks": 192,
          "midi": 48,
          "name": "C3",
          "ticks": 52608,
          "time": 45.666621,
          "velocity": 0.3937007874015748
        },
        {
          "duration": 0.08333325000000258,
          "durationTicks": 96,
          "midi": 36,
          "name": "C2",
          "ticks": 52800,
          "time": 45.8332875,
          "velocity": 0.3937007874015748
        },
        {
          "duration": 0.08333325000000258,
          "durationTicks": 96,
          "midi": 36,
          "name": "C2",
          "ticks": 52992,
          "time": 45.999953999999995,
          "velocity": 0.3937007874015748
        },
        {
          "duration": 0.16666649999999805,
          "durationTicks": 192,
          "midi": 48,
          "name": "C3",
          "ticks": 53184,
          "time": 46.1666205,
          "velocity": 0.3937007874015748
        },
        {
          "duration": 0.08333325000000258,
          "durationTicks": 96,
          "midi": 36,
          "name": "C2",
          "ticks": 53376,
          "time": 46.333287,
          "velocity": 0.3937007874015748
        },
        {
          "duration": 0.08333325000000258,
          "durationTicks": 96,
          "midi": 36,
          "name": "C2",
          "ticks": 53568,
          "time": 46.4999535,
          "velocity": 0.3937007874015748
        },
        {
          "duration": 0.08333324999999547,
          "durationTicks": 96,
          "midi": 36,
          "name": "C2",
          "ticks": 53760,
          "time": 46.66662,
          "velocity": 0.3937007874015748
        },
        {
          "duration": 0.08333324999999547,
          "durationTicks": 96,
          "midi": 36,
          "name": "C2",
          "ticks": 53952,
          "time": 46.8332865,
          "velocity": 0.3937007874015748
        },
        {
          "duration": 0.16666649999999805,
          "durationTicks": 192,
          "midi": 48,
          "name": "C3",
          "ticks": 54144,
          "time": 46.999953,
          "velocity": 0.3937007874015748
        },
        {
          "duration": 0.08333325000000258,
          "durationTicks": 96,
          "midi": 36,
          "name": "C2",
          "ticks": 54336,
          "time": 47.166619499999996,
          "velocity": 0.3937007874015748
        },
        {
          "duration": 0.08333324999999547,
          "durationTicks": 96,
          "midi": 36,
          "name": "C2",
          "ticks": 54528,
          "time": 47.333286,
          "velocity": 0.3937007874015748
        },
        {
          "duration": 0.16666649999999805,
          "durationTicks": 192,
          "midi": 48,
          "name": "C3",
          "ticks": 54720,
          "time": 47.4999525,
          "velocity": 0.3937007874015748
        },
        {
          "duration": 0.08333325000000258,
          "durationTicks": 96,
          "midi": 36,
          "name": "C2",
          "ticks": 54912,
          "time": 47.666619,
          "velocity": 0.3937007874015748
        },
        {
          "duration": 0.08333325000000258,
          "durationTicks": 96,
          "midi": 36,
          "name": "C2",
          "ticks": 55104,
          "time": 47.833285499999995,
          "velocity": 0.3937007874015748
        },
        {
          "duration": 0.08333324999999547,
          "durationTicks": 96,
          "midi": 37,
          "name": "C#2",
          "ticks": 55296,
          "time": 47.999952,
          "velocity": 0.3937007874015748
        },
        {
          "duration": 0.08333325000000258,
          "durationTicks": 96,
          "midi": 37,
          "name": "C#2",
          "ticks": 55488,
          "time": 48.1666185,
          "velocity": 0.3937007874015748
        },
        {
          "duration": 0.16666650000000516,
          "durationTicks": 192,
          "midi": 49,
          "name": "C#3",
          "ticks": 55680,
          "time": 48.333285,
          "velocity": 0.3937007874015748
        },
        {
          "duration": 0.08333324999999547,
          "durationTicks": 96,
          "midi": 37,
          "name": "C#2",
          "ticks": 55872,
          "time": 48.4999515,
          "velocity": 0.3937007874015748
        },
        {
          "duration": 0.08333324999999547,
          "durationTicks": 96,
          "midi": 37,
          "name": "C#2",
          "ticks": 56064,
          "time": 48.666618,
          "velocity": 0.3937007874015748
        },
        {
          "duration": 0.16666649999999805,
          "durationTicks": 192,
          "midi": 49,
          "name": "C#3",
          "ticks": 56256,
          "time": 48.8332845,
          "velocity": 0.3937007874015748
        },
        {
          "duration": 0.08333325000000258,
          "durationTicks": 96,
          "midi": 37,
          "name": "C#2",
          "ticks": 56448,
          "time": 48.999950999999996,
          "velocity": 0.3937007874015748
        },
        {
          "duration": 0.08333324999999547,
          "durationTicks": 96,
          "midi": 37,
          "name": "C#2",
          "ticks": 56640,
          "time": 49.1666175,
          "velocity": 0.3937007874015748
        },
        {
          "duration": 0.08333325000000258,
          "durationTicks": 96,
          "midi": 37,
          "name": "C#2",
          "ticks": 56832,
          "time": 49.333284,
          "velocity": 0.3937007874015748
        },
        {
          "duration": 0.08333325000000258,
          "durationTicks": 96,
          "midi": 37,
          "name": "C#2",
          "ticks": 57024,
          "time": 49.4999505,
          "velocity": 0.3937007874015748
        },
        {
          "duration": 0.16666650000000516,
          "durationTicks": 192,
          "midi": 49,
          "name": "C#3",
          "ticks": 57216,
          "time": 49.666616999999995,
          "velocity": 0.3937007874015748
        },
        {
          "duration": 0.08333324999999547,
          "durationTicks": 96,
          "midi": 37,
          "name": "C#2",
          "ticks": 57408,
          "time": 49.8332835,
          "velocity": 0.3937007874015748
        },
        {
          "duration": 0.08333325000000258,
          "durationTicks": 96,
          "midi": 37,
          "name": "C#2",
          "ticks": 57600,
          "time": 49.99995,
          "velocity": 0.3937007874015748
        },
        {
          "duration": 0.16666650000000516,
          "durationTicks": 192,
          "midi": 49,
          "name": "C#3",
          "ticks": 57792,
          "time": 50.166616499999996,
          "velocity": 0.3937007874015748
        },
        {
          "duration": 0.08333324999999547,
          "durationTicks": 96,
          "midi": 37,
          "name": "C#2",
          "ticks": 57984,
          "time": 50.333283,
          "velocity": 0.3937007874015748
        },
        {
          "duration": 0.08333324999999547,
          "durationTicks": 96,
          "midi": 37,
          "name": "C#2",
          "ticks": 58176,
          "time": 50.4999495,
          "velocity": 0.3937007874015748
        },
        {
          "duration": 0.08333325000000258,
          "durationTicks": 96,
          "midi": 38,
          "name": "D2",
          "ticks": 58368,
          "time": 50.666616,
          "velocity": 0.3937007874015748
        },
        {
          "duration": 0.08333325000000258,
          "durationTicks": 96,
          "midi": 38,
          "name": "D2",
          "ticks": 58560,
          "time": 50.833282499999996,
          "velocity": 0.3937007874015748
        },
        {
          "duration": 0.16666649999999805,
          "durationTicks": 192,
          "midi": 50,
          "name": "D3",
          "ticks": 58752,
          "time": 50.999949,
          "velocity": 0.3937007874015748
        },
        {
          "duration": 0.08333325000000258,
          "durationTicks": 96,
          "midi": 38,
          "name": "D2",
          "ticks": 58944,
          "time": 51.1666155,
          "velocity": 0.3937007874015748
        },
        {
          "duration": 0.08333325000000258,
          "durationTicks": 96,
          "midi": 38,
          "name": "D2",
          "ticks": 59136,
          "time": 51.333282,
          "velocity": 0.3937007874015748
        },
        {
          "duration": 0.16666650000000516,
          "durationTicks": 192,
          "midi": 50,
          "name": "D3",
          "ticks": 59328,
          "time": 51.499948499999995,
          "velocity": 0.3937007874015748
        },
        {
          "duration": 0.08333324999999547,
          "durationTicks": 96,
          "midi": 38,
          "name": "D2",
          "ticks": 59520,
          "time": 51.666615,
          "velocity": 0.3937007874015748
        },
        {
          "duration": 0.08333325000000258,
          "durationTicks": 96,
          "midi": 38,
          "name": "D2",
          "ticks": 59712,
          "time": 51.8332815,
          "velocity": 0.3937007874015748
        },
        {
          "duration": 0.08333325000000258,
          "durationTicks": 96,
          "midi": 38,
          "name": "D2",
          "ticks": 59904,
          "time": 51.999947999999996,
          "velocity": 0.3937007874015748
        },
        {
          "duration": 0.08333324999999547,
          "durationTicks": 96,
          "midi": 38,
          "name": "D2",
          "ticks": 60096,
          "time": 52.1666145,
          "velocity": 0.3937007874015748
        },
        {
          "duration": 0.16666649999999805,
          "durationTicks": 192,
          "midi": 50,
          "name": "D3",
          "ticks": 60288,
          "time": 52.333281,
          "velocity": 0.3937007874015748
        },
        {
          "duration": 0.08333325000000258,
          "durationTicks": 96,
          "midi": 38,
          "name": "D2",
          "ticks": 60480,
          "time": 52.4999475,
          "velocity": 0.3937007874015748
        },
        {
          "duration": 0.08333325000000258,
          "durationTicks": 96,
          "midi": 38,
          "name": "D2",
          "ticks": 60672,
          "time": 52.666613999999996,
          "velocity": 0.3937007874015748
        },
        {
          "duration": 0.16666649999999805,
          "durationTicks": 192,
          "midi": 50,
          "name": "D3",
          "ticks": 60864,
          "time": 52.8332805,
          "velocity": 0.3937007874015748
        },
        {
          "duration": 0.08333325000000258,
          "durationTicks": 96,
          "midi": 38,
          "name": "D2",
          "ticks": 61056,
          "time": 52.999947,
          "velocity": 0.3937007874015748
        },
        {
          "duration": 0.08333325000000258,
          "durationTicks": 96,
          "midi": 38,
          "name": "D2",
          "ticks": 61248,
          "time": 53.1666135,
          "velocity": 0.3937007874015748
        },
        {
          "duration": 0.08333324999999547,
          "durationTicks": 96,
          "midi": 34,
          "name": "A#1",
          "ticks": 61440,
          "time": 53.33328,
          "velocity": 0.3937007874015748
        },
        {
          "duration": 0.08333324999999547,
          "durationTicks": 96,
          "midi": 34,
          "name": "A#1",
          "ticks": 61632,
          "time": 53.4999465,
          "velocity": 0.3937007874015748
        },
        {
          "duration": 0.16666649999999805,
          "durationTicks": 192,
          "midi": 46,
          "name": "A#2",
          "ticks": 61824,
          "time": 53.666613,
          "velocity": 0.3937007874015748
        },
        {
          "duration": 0.08333325000000258,
          "durationTicks": 96,
          "midi": 34,
          "name": "A#1",
          "ticks": 62016,
          "time": 53.833279499999996,
          "velocity": 0.3937007874015748
        },
        {
          "duration": 0.08333324999999547,
          "durationTicks": 96,
          "midi": 34,
          "name": "A#1",
          "ticks": 62208,
          "time": 53.999946,
          "velocity": 0.3937007874015748
        },
        {
          "duration": 0.16666649999999805,
          "durationTicks": 192,
          "midi": 46,
          "name": "A#2",
          "ticks": 62400,
          "time": 54.1666125,
          "velocity": 0.3937007874015748
        },
        {
          "duration": 0.08333325000000258,
          "durationTicks": 96,
          "midi": 34,
          "name": "A#1",
          "ticks": 62592,
          "time": 54.333279,
          "velocity": 0.3937007874015748
        },
        {
          "duration": 0.08333325000000258,
          "durationTicks": 96,
          "midi": 34,
          "name": "A#1",
          "ticks": 62784,
          "time": 54.499945499999995,
          "velocity": 0.3937007874015748
        },
        {
          "duration": 0.08333324999999547,
          "durationTicks": 96,
          "midi": 34,
          "name": "A#1",
          "ticks": 62976,
          "time": 54.666612,
          "velocity": 0.3937007874015748
        },
        {
          "duration": 0.08333325000000258,
          "durationTicks": 96,
          "midi": 34,
          "name": "A#1",
          "ticks": 63168,
          "time": 54.8332785,
          "velocity": 0.3937007874015748
        },
        {
          "duration": 0.16666650000000516,
          "durationTicks": 192,
          "midi": 46,
          "name": "A#2",
          "ticks": 63360,
          "time": 54.999945,
          "velocity": 0.3937007874015748
        },
        {
          "duration": 0.08333324999999547,
          "durationTicks": 96,
          "midi": 34,
          "name": "A#1",
          "ticks": 63552,
          "time": 55.1666115,
          "velocity": 0.3937007874015748
        },
        {
          "duration": 0.08333324999999547,
          "durationTicks": 96,
          "midi": 34,
          "name": "A#1",
          "ticks": 63744,
          "time": 55.333278,
          "velocity": 0.3937007874015748
        },
        {
          "duration": 0.16666649999999805,
          "durationTicks": 192,
          "midi": 46,
          "name": "A#2",
          "ticks": 63936,
          "time": 55.4999445,
          "velocity": 0.3937007874015748
        },
        {
          "duration": 0.08333325000000258,
          "durationTicks": 96,
          "midi": 34,
          "name": "A#1",
          "ticks": 64128,
          "time": 55.666610999999996,
          "velocity": 0.3937007874015748
        },
        {
          "duration": 0.08333324999999547,
          "durationTicks": 96,
          "midi": 34,
          "name": "A#1",
          "ticks": 64320,
          "time": 55.8332775,
          "velocity": 0.3937007874015748
        },
        {
          "duration": 0.08333325000000258,
          "durationTicks": 96,
          "midi": 36,
          "name": "C2",
          "ticks": 64512,
          "time": 55.999944,
          "velocity": 0.3937007874015748
        },
        {
          "duration": 0.08333325000000258,
          "durationTicks": 96,
          "midi": 36,
          "name": "C2",
          "ticks": 64704,
          "time": 56.1666105,
          "velocity": 0.3937007874015748
        },
        {
          "duration": 0.16666650000000516,
          "durationTicks": 192,
          "midi": 48,
          "name": "C3",
          "ticks": 64896,
          "time": 56.333276999999995,
          "velocity": 0.3937007874015748
        },
        {
          "duration": 0.08333324999999547,
          "durationTicks": 96,
          "midi": 36,
          "name": "C2",
          "ticks": 65088,
          "time": 56.4999435,
          "velocity": 0.3937007874015748
        },
        {
          "duration": 0.08333325000000258,
          "durationTicks": 96,
          "midi": 36,
          "name": "C2",
          "ticks": 65280,
          "time": 56.66661,
          "velocity": 0.3937007874015748
        },
        {
          "duration": 0.16666650000000516,
          "durationTicks": 192,
          "midi": 48,
          "name": "C3",
          "ticks": 65472,
          "time": 56.8332765,
          "velocity": 0.3937007874015748
        },
        {
          "duration": 0.08333324999999547,
          "durationTicks": 96,
          "midi": 36,
          "name": "C2",
          "ticks": 65664,
          "time": 56.999943,
          "velocity": 0.3937007874015748
        },
        {
          "duration": 0.08333324999999547,
          "durationTicks": 96,
          "midi": 36,
          "name": "C2",
          "ticks": 65856,
          "time": 57.1666095,
          "velocity": 0.3937007874015748
        },
        {
          "duration": 0.08333325000000258,
          "durationTicks": 96,
          "midi": 36,
          "name": "C2",
          "ticks": 66048,
          "time": 57.333276,
          "velocity": 0.3937007874015748
        },
        {
          "duration": 0.08333325000000258,
          "durationTicks": 96,
          "midi": 36,
          "name": "C2",
          "ticks": 66240,
          "time": 57.499942499999996,
          "velocity": 0.3937007874015748
        },
        {
          "duration": 0.16666649999999805,
          "durationTicks": 192,
          "midi": 48,
          "name": "C3",
          "ticks": 66432,
          "time": 57.666609,
          "velocity": 0.3937007874015748
        },
        {
          "duration": 0.08333325000000258,
          "durationTicks": 96,
          "midi": 36,
          "name": "C2",
          "ticks": 66624,
          "time": 57.8332755,
          "velocity": 0.3937007874015748
        },
        {
          "duration": 0.08333325000000258,
          "durationTicks": 96,
          "midi": 36,
          "name": "C2",
          "ticks": 66816,
          "time": 57.999942,
          "velocity": 0.3937007874015748
        },
        {
          "duration": 0.16666650000000516,
          "durationTicks": 192,
          "midi": 48,
          "name": "C3",
          "ticks": 67008,
          "time": 58.166608499999995,
          "velocity": 0.3937007874015748
        },
        {
          "duration": 0.08333324999999547,
          "durationTicks": 96,
          "midi": 36,
          "name": "C2",
          "ticks": 67200,
          "time": 58.333275,
          "velocity": 0.3937007874015748
        },
        {
          "duration": 0.08333325000000258,
          "durationTicks": 96,
          "midi": 36,
          "name": "C2",
          "ticks": 67392,
          "time": 58.4999415,
          "velocity": 0.3937007874015748
        },
        {
          "duration": 0.08333325000000258,
          "durationTicks": 96,
          "midi": 37,
          "name": "C#2",
          "ticks": 67584,
          "time": 58.666608,
          "velocity": 0.3937007874015748
        },
        {
          "duration": 0.08333324999999547,
          "durationTicks": 96,
          "midi": 37,
          "name": "C#2",
          "ticks": 67776,
          "time": 58.8332745,
          "velocity": 0.3937007874015748
        },
        {
          "duration": 0.16666649999999805,
          "durationTicks": 192,
          "midi": 49,
          "name": "C#3",
          "ticks": 67968,
          "time": 58.999941,
          "velocity": 0.3937007874015748
        },
        {
          "duration": 0.08333325000000258,
          "durationTicks": 96,
          "midi": 37,
          "name": "C#2",
          "ticks": 68160,
          "time": 59.1666075,
          "velocity": 0.3937007874015748
        },
        {
          "duration": 0.08333325000000258,
          "durationTicks": 96,
          "midi": 37,
          "name": "C#2",
          "ticks": 68352,
          "time": 59.333273999999996,
          "velocity": 0.3937007874015748
        },
        {
          "duration": 0.16666649999999805,
          "durationTicks": 192,
          "midi": 49,
          "name": "C#3",
          "ticks": 68544,
          "time": 59.4999405,
          "velocity": 0.3937007874015748
        },
        {
          "duration": 0.08333325000000258,
          "durationTicks": 96,
          "midi": 37,
          "name": "C#2",
          "ticks": 68736,
          "time": 59.666607,
          "velocity": 0.3937007874015748
        },
        {
          "duration": 0.08333325000000258,
          "durationTicks": 96,
          "midi": 37,
          "name": "C#2",
          "ticks": 68928,
          "time": 59.8332735,
          "velocity": 0.3937007874015748
        },
        {
          "duration": 0.08333325000000258,
          "durationTicks": 96,
          "midi": 37,
          "name": "C#2",
          "ticks": 69120,
          "time": 59.999939999999995,
          "velocity": 0.3937007874015748
        },
        {
          "duration": 0.08333324999999547,
          "durationTicks": 96,
          "midi": 37,
          "name": "C#2",
          "ticks": 69312,
          "time": 60.1666065,
          "velocity": 0.3937007874015748
        },
        {
          "duration": 0.16666649999999805,
          "durationTicks": 192,
          "midi": 49,
          "name": "C#3",
          "ticks": 69504,
          "time": 60.333273,
          "velocity": 0.3937007874015748
        },
        {
          "duration": 0.08333325000000258,
          "durationTicks": 96,
          "midi": 37,
          "name": "C#2",
          "ticks": 69696,
          "time": 60.499939499999996,
          "velocity": 0.3937007874015748
        },
        {
          "duration": 0.08333324999999547,
          "durationTicks": 96,
          "midi": 37,
          "name": "C#2",
          "ticks": 69888,
          "time": 60.666606,
          "velocity": 0.3937007874015748
        },
        {
          "duration": 0.16666649999999805,
          "durationTicks": 192,
          "midi": 49,
          "name": "C#3",
          "ticks": 70080,
          "time": 60.8332725,
          "velocity": 0.3937007874015748
        },
        {
          "duration": 0.08333325000000258,
          "durationTicks": 96,
          "midi": 37,
          "name": "C#2",
          "ticks": 70272,
          "time": 60.999939,
          "velocity": 0.3937007874015748
        },
        {
          "duration": 0.08333325000000258,
          "durationTicks": 96,
          "midi": 37,
          "name": "C#2",
          "ticks": 70464,
          "time": 61.166605499999996,
          "velocity": 0.3937007874015748
        },
        {
          "duration": 0.08333325000000258,
          "durationTicks": 96,
          "midi": 34,
          "name": "A#1",
          "ticks": 73728,
          "time": 63.999936,
          "velocity": 0.3937007874015748
        },
        {
          "duration": 0.08333324999999547,
          "durationTicks": 96,
          "midi": 41,
          "name": "F2",
          "ticks": 73920,
          "time": 64.1666025,
          "velocity": 0.3937007874015748
        },
        {
          "duration": 0.08333324999999547,
          "durationTicks": 96,
          "midi": 29,
          "name": "F1",
          "ticks": 74112,
          "time": 64.333269,
          "velocity": 0.3937007874015748
        },
        {
          "duration": 0.08333325000000968,
          "durationTicks": 96,
          "midi": 41,
          "name": "F2",
          "ticks": 74304,
          "time": 64.49993549999999,
          "velocity": 0.3937007874015748
        },
        {
          "duration": 0.08333324999999547,
          "durationTicks": 96,
          "midi": 34,
          "name": "A#1",
          "ticks": 74496,
          "time": 64.666602,
          "velocity": 0.3937007874015748
        },
        {
          "duration": 0.08333324999999547,
          "durationTicks": 96,
          "midi": 41,
          "name": "F2",
          "ticks": 74688,
          "time": 64.8332685,
          "velocity": 0.3937007874015748
        },
        {
          "duration": 0.08333325000000968,
          "durationTicks": 96,
          "midi": 29,
          "name": "F1",
          "ticks": 74880,
          "time": 64.999935,
          "velocity": 0.3937007874015748
        },
        {
          "duration": 0.08333324999999547,
          "durationTicks": 96,
          "midi": 41,
          "name": "F2",
          "ticks": 75072,
          "time": 65.1666015,
          "velocity": 0.3937007874015748
        },
        {
          "duration": 0.08333324999999547,
          "durationTicks": 96,
          "midi": 34,
          "name": "A#1",
          "ticks": 75264,
          "time": 65.333268,
          "velocity": 0.3937007874015748
        },
        {
          "duration": 0.08333325000000968,
          "durationTicks": 96,
          "midi": 41,
          "name": "F2",
          "ticks": 75456,
          "time": 65.4999345,
          "velocity": 0.3937007874015748
        },
        {
          "duration": 0.08333324999999547,
          "durationTicks": 96,
          "midi": 29,
          "name": "F1",
          "ticks": 75648,
          "time": 65.666601,
          "velocity": 0.3937007874015748
        },
        {
          "duration": 0.08333324999999547,
          "durationTicks": 96,
          "midi": 41,
          "name": "F2",
          "ticks": 75840,
          "time": 65.8332675,
          "velocity": 0.3937007874015748
        },
        {
          "duration": 0.08333324999999547,
          "durationTicks": 96,
          "midi": 34,
          "name": "A#1",
          "ticks": 76032,
          "time": 65.999934,
          "velocity": 0.3937007874015748
        },
        {
          "duration": 0.08333324999999547,
          "durationTicks": 96,
          "midi": 41,
          "name": "F2",
          "ticks": 76224,
          "time": 66.1666005,
          "velocity": 0.3937007874015748
        },
        {
          "duration": 0.08333325000000968,
          "durationTicks": 96,
          "midi": 29,
          "name": "F1",
          "ticks": 76416,
          "time": 66.33326699999999,
          "velocity": 0.3937007874015748
        },
        {
          "duration": 0.08333324999999547,
          "durationTicks": 96,
          "midi": 41,
          "name": "F2",
          "ticks": 76608,
          "time": 66.4999335,
          "velocity": 0.3937007874015748
        },
        {
          "duration": 0.08333324999999547,
          "durationTicks": 96,
          "midi": 36,
          "name": "C2",
          "ticks": 76800,
          "time": 66.6666,
          "velocity": 0.3937007874015748
        },
        {
          "duration": 0.08333325000000968,
          "durationTicks": 96,
          "midi": 44,
          "name": "G#2",
          "ticks": 76992,
          "time": 66.8332665,
          "velocity": 0.3937007874015748
        },
        {
          "duration": 0.08333324999999547,
          "durationTicks": 96,
          "midi": 32,
          "name": "G#1",
          "ticks": 77184,
          "time": 66.999933,
          "velocity": 0.3937007874015748
        },
        {
          "duration": 0.08333324999999547,
          "durationTicks": 96,
          "midi": 44,
          "name": "G#2",
          "ticks": 77376,
          "time": 67.1665995,
          "velocity": 0.3937007874015748
        },
        {
          "duration": 0.08333325000000968,
          "durationTicks": 96,
          "midi": 36,
          "name": "C2",
          "ticks": 77568,
          "time": 67.333266,
          "velocity": 0.3937007874015748
        },
        {
          "duration": 0.08333324999999547,
          "durationTicks": 96,
          "midi": 44,
          "name": "G#2",
          "ticks": 77760,
          "time": 67.4999325,
          "velocity": 0.3937007874015748
        },
        {
          "duration": 0.08333324999999547,
          "durationTicks": 96,
          "midi": 32,
          "name": "G#1",
          "ticks": 77952,
          "time": 67.666599,
          "velocity": 0.3937007874015748
        },
        {
          "duration": 0.08333324999999547,
          "durationTicks": 96,
          "midi": 44,
          "name": "G#2",
          "ticks": 78144,
          "time": 67.8332655,
          "velocity": 0.3937007874015748
        },
        {
          "duration": 0.08333324999999547,
          "durationTicks": 96,
          "midi": 36,
          "name": "C2",
          "ticks": 78336,
          "time": 67.999932,
          "velocity": 0.3937007874015748
        },
        {
          "duration": 0.08333325000000968,
          "durationTicks": 96,
          "midi": 44,
          "name": "G#2",
          "ticks": 78528,
          "time": 68.16659849999999,
          "velocity": 0.3937007874015748
        },
        {
          "duration": 0.08333324999999547,
          "durationTicks": 96,
          "midi": 32,
          "name": "G#1",
          "ticks": 78720,
          "time": 68.333265,
          "velocity": 0.3937007874015748
        },
        {
          "duration": 0.08333324999999547,
          "durationTicks": 96,
          "midi": 44,
          "name": "G#2",
          "ticks": 78912,
          "time": 68.4999315,
          "velocity": 0.3937007874015748
        },
        {
          "duration": 0.08333325000000968,
          "durationTicks": 96,
          "midi": 36,
          "name": "C2",
          "ticks": 79104,
          "time": 68.666598,
          "velocity": 0.3937007874015748
        },
        {
          "duration": 0.08333324999999547,
          "durationTicks": 96,
          "midi": 44,
          "name": "G#2",
          "ticks": 79296,
          "time": 68.8332645,
          "velocity": 0.3937007874015748
        },
        {
          "duration": 0.08333324999999547,
          "durationTicks": 96,
          "midi": 32,
          "name": "G#1",
          "ticks": 79488,
          "time": 68.999931,
          "velocity": 0.3937007874015748
        },
        {
          "duration": 0.08333325000000968,
          "durationTicks": 96,
          "midi": 44,
          "name": "G#2",
          "ticks": 79680,
          "time": 69.1665975,
          "velocity": 0.3937007874015748
        },
        {
          "duration": 0.08333324999999547,
          "durationTicks": 96,
          "midi": 37,
          "name": "C#2",
          "ticks": 79872,
          "time": 69.333264,
          "velocity": 0.3937007874015748
        },
        {
          "duration": 0.08333324999999547,
          "durationTicks": 96,
          "midi": 44,
          "name": "G#2",
          "ticks": 80064,
          "time": 69.4999305,
          "velocity": 0.3937007874015748
        },
        {
          "duration": 0.08333324999999547,
          "durationTicks": 96,
          "midi": 32,
          "name": "G#1",
          "ticks": 80256,
          "time": 69.666597,
          "velocity": 0.3937007874015748
        },
        {
          "duration": 0.08333324999999547,
          "durationTicks": 96,
          "midi": 44,
          "name": "G#2",
          "ticks": 80448,
          "time": 69.8332635,
          "velocity": 0.3937007874015748
        },
        {
          "duration": 0.08333325000000968,
          "durationTicks": 96,
          "midi": 37,
          "name": "C#2",
          "ticks": 80640,
          "time": 69.99992999999999,
          "velocity": 0.3937007874015748
        },
        {
          "duration": 0.08333324999999547,
          "durationTicks": 96,
          "midi": 44,
          "name": "G#2",
          "ticks": 80832,
          "time": 70.1665965,
          "velocity": 0.3937007874015748
        },
        {
          "duration": 0.08333324999999547,
          "durationTicks": 96,
          "midi": 32,
          "name": "G#1",
          "ticks": 81024,
          "time": 70.333263,
          "velocity": 0.3937007874015748
        },
        {
          "duration": 0.08333325000000968,
          "durationTicks": 96,
          "midi": 44,
          "name": "G#2",
          "ticks": 81216,
          "time": 70.4999295,
          "velocity": 0.3937007874015748
        },
        {
          "duration": 0.08333324999999547,
          "durationTicks": 96,
          "midi": 37,
          "name": "C#2",
          "ticks": 81408,
          "time": 70.666596,
          "velocity": 0.3937007874015748
        },
        {
          "duration": 0.08333324999999547,
          "durationTicks": 96,
          "midi": 44,
          "name": "G#2",
          "ticks": 81600,
          "time": 70.8332625,
          "velocity": 0.3937007874015748
        },
        {
          "duration": 0.08333325000000968,
          "durationTicks": 96,
          "midi": 32,
          "name": "G#1",
          "ticks": 81792,
          "time": 70.999929,
          "velocity": 0.3937007874015748
        },
        {
          "duration": 0.08333324999999547,
          "durationTicks": 96,
          "midi": 44,
          "name": "G#2",
          "ticks": 81984,
          "time": 71.1665955,
          "velocity": 0.3937007874015748
        },
        {
          "duration": 0.08333324999999547,
          "durationTicks": 96,
          "midi": 37,
          "name": "C#2",
          "ticks": 82176,
          "time": 71.333262,
          "velocity": 0.3937007874015748
        },
        {
          "duration": 0.08333324999999547,
          "durationTicks": 96,
          "midi": 44,
          "name": "G#2",
          "ticks": 82368,
          "time": 71.4999285,
          "velocity": 0.3937007874015748
        },
        {
          "duration": 0.08333324999999547,
          "durationTicks": 96,
          "midi": 32,
          "name": "G#1",
          "ticks": 82560,
          "time": 71.666595,
          "velocity": 0.3937007874015748
        },
        {
          "duration": 0.08333325000000968,
          "durationTicks": 96,
          "midi": 44,
          "name": "G#2",
          "ticks": 82752,
          "time": 71.83326149999999,
          "velocity": 0.3937007874015748
        },
        {
          "duration": 0.08333324999999547,
          "durationTicks": 96,
          "midi": 37,
          "name": "C#2",
          "ticks": 82944,
          "time": 71.999928,
          "velocity": 0.3937007874015748
        },
        {
          "duration": 0.08333324999999547,
          "durationTicks": 96,
          "midi": 44,
          "name": "G#2",
          "ticks": 83136,
          "time": 72.1665945,
          "velocity": 0.3937007874015748
        },
        {
          "duration": 0.08333325000000968,
          "durationTicks": 96,
          "midi": 32,
          "name": "G#1",
          "ticks": 83328,
          "time": 72.333261,
          "velocity": 0.3937007874015748
        },
        {
          "duration": 0.08333324999999547,
          "durationTicks": 96,
          "midi": 44,
          "name": "G#2",
          "ticks": 83520,
          "time": 72.4999275,
          "velocity": 0.3937007874015748
        },
        {
          "duration": 0.08333324999999547,
          "durationTicks": 96,
          "midi": 37,
          "name": "C#2",
          "ticks": 83712,
          "time": 72.666594,
          "velocity": 0.3937007874015748
        },
        {
          "duration": 0.08333325000000968,
          "durationTicks": 96,
          "midi": 44,
          "name": "G#2",
          "ticks": 83904,
          "time": 72.8332605,
          "velocity": 0.3937007874015748
        },
        {
          "duration": 0.08333324999999547,
          "durationTicks": 96,
          "midi": 32,
          "name": "G#1",
          "ticks": 84096,
          "time": 72.999927,
          "velocity": 0.3937007874015748
        },
        {
          "duration": 0.08333324999999547,
          "durationTicks": 96,
          "midi": 44,
          "name": "G#2",
          "ticks": 84288,
          "time": 73.1665935,
          "velocity": 0.3937007874015748
        },
        {
          "duration": 0.08333324999999547,
          "durationTicks": 96,
          "midi": 36,
          "name": "C2",
          "ticks": 84480,
          "time": 73.33326,
          "velocity": 0.3937007874015748
        },
        {
          "duration": 0.08333324999999547,
          "durationTicks": 96,
          "midi": 43,
          "name": "G2",
          "ticks": 84672,
          "time": 73.4999265,
          "velocity": 0.3937007874015748
        },
        {
          "duration": 0.08333325000000968,
          "durationTicks": 96,
          "midi": 31,
          "name": "G1",
          "ticks": 84864,
          "time": 73.66659299999999,
          "velocity": 0.3937007874015748
        },
        {
          "duration": 0.08333324999999547,
          "durationTicks": 96,
          "midi": 43,
          "name": "G2",
          "ticks": 85056,
          "time": 73.8332595,
          "velocity": 0.3937007874015748
        },
        {
          "duration": 0.08333324999999547,
          "durationTicks": 96,
          "midi": 36,
          "name": "C2",
          "ticks": 85248,
          "time": 73.999926,
          "velocity": 0.3937007874015748
        },
        {
          "duration": 0.08333325000000968,
          "durationTicks": 96,
          "midi": 43,
          "name": "G2",
          "ticks": 85440,
          "time": 74.1665925,
          "velocity": 0.3937007874015748
        },
        {
          "duration": 0.08333324999999547,
          "durationTicks": 96,
          "midi": 31,
          "name": "G1",
          "ticks": 85632,
          "time": 74.333259,
          "velocity": 0.3937007874015748
        },
        {
          "duration": 0.08333324999999547,
          "durationTicks": 96,
          "midi": 43,
          "name": "G2",
          "ticks": 85824,
          "time": 74.4999255,
          "velocity": 0.3937007874015748
        },
        {
          "duration": 0.08333325000000968,
          "durationTicks": 96,
          "midi": 34,
          "name": "A#1",
          "ticks": 86016,
          "time": 74.666592,
          "velocity": 0.3937007874015748
        },
        {
          "duration": 0.08333324999999547,
          "durationTicks": 96,
          "midi": 41,
          "name": "F2",
          "ticks": 86208,
          "time": 74.8332585,
          "velocity": 0.3937007874015748
        },
        {
          "duration": 0.08333324999999547,
          "durationTicks": 96,
          "midi": 29,
          "name": "F1",
          "ticks": 86400,
          "time": 74.999925,
          "velocity": 0.3937007874015748
        },
        {
          "duration": 0.08333324999999547,
          "durationTicks": 96,
          "midi": 41,
          "name": "F2",
          "ticks": 86592,
          "time": 75.1665915,
          "velocity": 0.3937007874015748
        },
        {
          "duration": 0.08333324999999547,
          "durationTicks": 96,
          "midi": 34,
          "name": "A#1",
          "ticks": 86784,
          "time": 75.333258,
          "velocity": 0.3937007874015748
        },
        {
          "duration": 0.08333325000000968,
          "durationTicks": 96,
          "midi": 41,
          "name": "F2",
          "ticks": 86976,
          "time": 75.49992449999999,
          "velocity": 0.3937007874015748
        },
        {
          "duration": 0.08333324999999547,
          "durationTicks": 96,
          "midi": 29,
          "name": "F1",
          "ticks": 87168,
          "time": 75.666591,
          "velocity": 0.3937007874015748
        },
        {
          "duration": 0.08333324999999547,
          "durationTicks": 96,
          "midi": 41,
          "name": "F2",
          "ticks": 87360,
          "time": 75.8332575,
          "velocity": 0.3937007874015748
        },
        {
          "duration": 0.08333325000000968,
          "durationTicks": 96,
          "midi": 34,
          "name": "A#1",
          "ticks": 87552,
          "time": 75.999924,
          "velocity": 0.3937007874015748
        },
        {
          "duration": 0.08333324999999547,
          "durationTicks": 96,
          "midi": 41,
          "name": "F2",
          "ticks": 87744,
          "time": 76.1665905,
          "velocity": 0.3937007874015748
        },
        {
          "duration": 0.08333324999999547,
          "durationTicks": 96,
          "midi": 29,
          "name": "F1",
          "ticks": 87936,
          "time": 76.333257,
          "velocity": 0.3937007874015748
        },
        {
          "duration": 0.08333325000000968,
          "durationTicks": 96,
          "midi": 41,
          "name": "F2",
          "ticks": 88128,
          "time": 76.4999235,
          "velocity": 0.3937007874015748
        },
        {
          "duration": 0.08333324999999547,
          "durationTicks": 96,
          "midi": 34,
          "name": "A#1",
          "ticks": 88320,
          "time": 76.66659,
          "velocity": 0.3937007874015748
        },
        {
          "duration": 0.08333324999999547,
          "durationTicks": 96,
          "midi": 41,
          "name": "F2",
          "ticks": 88512,
          "time": 76.8332565,
          "velocity": 0.3937007874015748
        },
        {
          "duration": 0.08333324999999547,
          "durationTicks": 96,
          "midi": 29,
          "name": "F1",
          "ticks": 88704,
          "time": 76.999923,
          "velocity": 0.3937007874015748
        },
        {
          "duration": 0.08333324999999547,
          "durationTicks": 96,
          "midi": 41,
          "name": "F2",
          "ticks": 88896,
          "time": 77.1665895,
          "velocity": 0.3937007874015748
        },
        {
          "duration": 0.08333325000000968,
          "durationTicks": 96,
          "midi": 36,
          "name": "C2",
          "ticks": 89088,
          "time": 77.33325599999999,
          "velocity": 0.3937007874015748
        },
        {
          "duration": 0.08333324999999547,
          "durationTicks": 96,
          "midi": 44,
          "name": "G#2",
          "ticks": 89280,
          "time": 77.4999225,
          "velocity": 0.3937007874015748
        },
        {
          "duration": 0.08333324999999547,
          "durationTicks": 96,
          "midi": 32,
          "name": "G#1",
          "ticks": 89472,
          "time": 77.666589,
          "velocity": 0.3937007874015748
        },
        {
          "duration": 0.08333325000000968,
          "durationTicks": 96,
          "midi": 44,
          "name": "G#2",
          "ticks": 89664,
          "time": 77.83325549999999,
          "velocity": 0.3937007874015748
        },
        {
          "duration": 0.08333324999999547,
          "durationTicks": 96,
          "midi": 36,
          "name": "C2",
          "ticks": 89856,
          "time": 77.999922,
          "velocity": 0.3937007874015748
        },
        {
          "duration": 0.08333324999999547,
          "durationTicks": 96,
          "midi": 44,
          "name": "G#2",
          "ticks": 90048,
          "time": 78.1665885,
          "velocity": 0.3937007874015748
        },
        {
          "duration": 0.08333325000000968,
          "durationTicks": 96,
          "midi": 32,
          "name": "G#1",
          "ticks": 90240,
          "time": 78.333255,
          "velocity": 0.3937007874015748
        },
        {
          "duration": 0.08333324999999547,
          "durationTicks": 96,
          "midi": 44,
          "name": "G#2",
          "ticks": 90432,
          "time": 78.4999215,
          "velocity": 0.3937007874015748
        },
        {
          "duration": 0.08333324999999547,
          "durationTicks": 96,
          "midi": 36,
          "name": "C2",
          "ticks": 90624,
          "time": 78.666588,
          "velocity": 0.3937007874015748
        },
        {
          "duration": 0.08333324999999547,
          "durationTicks": 96,
          "midi": 44,
          "name": "G#2",
          "ticks": 90816,
          "time": 78.8332545,
          "velocity": 0.3937007874015748
        },
        {
          "duration": 0.08333324999999547,
          "durationTicks": 96,
          "midi": 32,
          "name": "G#1",
          "ticks": 91008,
          "time": 78.999921,
          "velocity": 0.3937007874015748
        },
        {
          "duration": 0.08333325000000968,
          "durationTicks": 96,
          "midi": 44,
          "name": "G#2",
          "ticks": 91200,
          "time": 79.16658749999999,
          "velocity": 0.3937007874015748
        },
        {
          "duration": 0.08333324999999547,
          "durationTicks": 96,
          "midi": 36,
          "name": "C2",
          "ticks": 91392,
          "time": 79.333254,
          "velocity": 0.3937007874015748
        },
        {
          "duration": 0.08333324999999547,
          "durationTicks": 96,
          "midi": 44,
          "name": "G#2",
          "ticks": 91584,
          "time": 79.4999205,
          "velocity": 0.3937007874015748
        },
        {
          "duration": 0.08333325000000968,
          "durationTicks": 96,
          "midi": 32,
          "name": "G#1",
          "ticks": 91776,
          "time": 79.66658699999999,
          "velocity": 0.3937007874015748
        },
        {
          "duration": 0.08333324999999547,
          "durationTicks": 96,
          "midi": 44,
          "name": "G#2",
          "ticks": 91968,
          "time": 79.8332535,
          "velocity": 0.3937007874015748
        },
        {
          "duration": 0.08333324999999547,
          "durationTicks": 96,
          "midi": 37,
          "name": "C#2",
          "ticks": 92160,
          "time": 79.99992,
          "velocity": 0.3937007874015748
        },
        {
          "duration": 0.08333325000000968,
          "durationTicks": 96,
          "midi": 44,
          "name": "G#2",
          "ticks": 92352,
          "time": 80.1665865,
          "velocity": 0.3937007874015748
        },
        {
          "duration": 0.08333324999999547,
          "durationTicks": 96,
          "midi": 32,
          "name": "G#1",
          "ticks": 92544,
          "time": 80.333253,
          "velocity": 0.3937007874015748
        },
        {
          "duration": 0.08333324999999547,
          "durationTicks": 96,
          "midi": 44,
          "name": "G#2",
          "ticks": 92736,
          "time": 80.4999195,
          "velocity": 0.3937007874015748
        },
        {
          "duration": 0.08333324999999547,
          "durationTicks": 96,
          "midi": 37,
          "name": "C#2",
          "ticks": 92928,
          "time": 80.666586,
          "velocity": 0.3937007874015748
        },
        {
          "duration": 0.08333324999999547,
          "durationTicks": 96,
          "midi": 44,
          "name": "G#2",
          "ticks": 93120,
          "time": 80.8332525,
          "velocity": 0.3937007874015748
        },
        {
          "duration": 0.08333325000000968,
          "durationTicks": 96,
          "midi": 32,
          "name": "G#1",
          "ticks": 93312,
          "time": 80.99991899999999,
          "velocity": 0.3937007874015748
        },
        {
          "duration": 0.08333324999999547,
          "durationTicks": 96,
          "midi": 44,
          "name": "G#2",
          "ticks": 93504,
          "time": 81.1665855,
          "velocity": 0.3937007874015748
        },
        {
          "duration": 0.08333324999999547,
          "durationTicks": 96,
          "midi": 37,
          "name": "C#2",
          "ticks": 93696,
          "time": 81.333252,
          "velocity": 0.3937007874015748
        },
        {
          "duration": 0.08333325000000968,
          "durationTicks": 96,
          "midi": 44,
          "name": "G#2",
          "ticks": 93888,
          "time": 81.49991849999999,
          "velocity": 0.3937007874015748
        },
        {
          "duration": 0.08333324999999547,
          "durationTicks": 96,
          "midi": 32,
          "name": "G#1",
          "ticks": 94080,
          "time": 81.666585,
          "velocity": 0.3937007874015748
        },
        {
          "duration": 0.08333324999999547,
          "durationTicks": 96,
          "midi": 44,
          "name": "G#2",
          "ticks": 94272,
          "time": 81.8332515,
          "velocity": 0.3937007874015748
        },
        {
          "duration": 0.08333325000000968,
          "durationTicks": 96,
          "midi": 37,
          "name": "C#2",
          "ticks": 94464,
          "time": 81.999918,
          "velocity": 0.3937007874015748
        },
        {
          "duration": 0.08333324999999547,
          "durationTicks": 96,
          "midi": 44,
          "name": "G#2",
          "ticks": 94656,
          "time": 82.1665845,
          "velocity": 0.3937007874015748
        },
        {
          "duration": 0.08333324999999547,
          "durationTicks": 96,
          "midi": 32,
          "name": "G#1",
          "ticks": 94848,
          "time": 82.333251,
          "velocity": 0.3937007874015748
        },
        {
          "duration": 0.08333324999999547,
          "durationTicks": 96,
          "midi": 44,
          "name": "G#2",
          "ticks": 95040,
          "time": 82.4999175,
          "velocity": 0.3937007874015748
        },
        {
          "duration": 0.08333324999999547,
          "durationTicks": 96,
          "midi": 37,
          "name": "C#2",
          "ticks": 95232,
          "time": 82.666584,
          "velocity": 0.3937007874015748
        },
        {
          "duration": 0.08333325000000968,
          "durationTicks": 96,
          "midi": 44,
          "name": "G#2",
          "ticks": 95424,
          "time": 82.83325049999999,
          "velocity": 0.3937007874015748
        },
        {
          "duration": 0.08333324999999547,
          "durationTicks": 96,
          "midi": 32,
          "name": "G#1",
          "ticks": 95616,
          "time": 82.999917,
          "velocity": 0.3937007874015748
        },
        {
          "duration": 0.08333324999999547,
          "durationTicks": 96,
          "midi": 44,
          "name": "G#2",
          "ticks": 95808,
          "time": 83.1665835,
          "velocity": 0.3937007874015748
        },
        {
          "duration": 0.08333325000000968,
          "durationTicks": 96,
          "midi": 37,
          "name": "C#2",
          "ticks": 96000,
          "time": 83.33324999999999,
          "velocity": 0.3937007874015748
        },
        {
          "duration": 0.08333324999999547,
          "durationTicks": 96,
          "midi": 44,
          "name": "G#2",
          "ticks": 96192,
          "time": 83.4999165,
          "velocity": 0.3937007874015748
        },
        {
          "duration": 0.08333324999999547,
          "durationTicks": 96,
          "midi": 32,
          "name": "G#1",
          "ticks": 96384,
          "time": 83.666583,
          "velocity": 0.3937007874015748
        },
        {
          "duration": 0.08333325000000968,
          "durationTicks": 96,
          "midi": 44,
          "name": "G#2",
          "ticks": 96576,
          "time": 83.8332495,
          "velocity": 0.3937007874015748
        },
        {
          "duration": 0.08333324999999547,
          "durationTicks": 96,
          "midi": 36,
          "name": "C2",
          "ticks": 96768,
          "time": 83.999916,
          "velocity": 0.3937007874015748
        },
        {
          "duration": 0.08333324999999547,
          "durationTicks": 96,
          "midi": 43,
          "name": "G2",
          "ticks": 96960,
          "time": 84.1665825,
          "velocity": 0.3937007874015748
        },
        {
          "duration": 0.08333324999999547,
          "durationTicks": 96,
          "midi": 31,
          "name": "G1",
          "ticks": 97152,
          "time": 84.333249,
          "velocity": 0.3937007874015748
        },
        {
          "duration": 0.08333324999999547,
          "durationTicks": 96,
          "midi": 43,
          "name": "G2",
          "ticks": 97344,
          "time": 84.4999155,
          "velocity": 0.3937007874015748
        },
        {
          "duration": 0.08333325000000968,
          "durationTicks": 96,
          "midi": 36,
          "name": "C2",
          "ticks": 97536,
          "time": 84.66658199999999,
          "velocity": 0.3937007874015748
        },
        {
          "duration": 0.08333324999999547,
          "durationTicks": 96,
          "midi": 43,
          "name": "G2",
          "ticks": 97728,
          "time": 84.8332485,
          "velocity": 0.3937007874015748
        },
        {
          "duration": 0.08333324999999547,
          "durationTicks": 96,
          "midi": 31,
          "name": "G1",
          "ticks": 97920,
          "time": 84.999915,
          "velocity": 0.3937007874015748
        },
        {
          "duration": 0.08333325000000968,
          "durationTicks": 96,
          "midi": 43,
          "name": "G2",
          "ticks": 98112,
          "time": 85.16658149999999,
          "velocity": 0.3937007874015748
        },
        {
          "duration": 0.08333324999999547,
          "durationTicks": 96,
          "midi": 34,
          "name": "A#1",
          "ticks": 98304,
          "time": 85.333248,
          "velocity": 0.3937007874015748
        },
        {
          "duration": 0.08333324999999547,
          "durationTicks": 96,
          "midi": 41,
          "name": "F2",
          "ticks": 98496,
          "time": 85.4999145,
          "velocity": 0.3937007874015748
        },
        {
          "duration": 0.08333325000000968,
          "durationTicks": 96,
          "midi": 29,
          "name": "F1",
          "ticks": 98688,
          "time": 85.666581,
          "velocity": 0.3937007874015748
        },
        {
          "duration": 0.08333324999999547,
          "durationTicks": 96,
          "midi": 41,
          "name": "F2",
          "ticks": 98880,
          "time": 85.8332475,
          "velocity": 0.3937007874015748
        },
        {
          "duration": 0.08333324999999547,
          "durationTicks": 96,
          "midi": 34,
          "name": "A#1",
          "ticks": 99072,
          "time": 85.999914,
          "velocity": 0.3937007874015748
        },
        {
          "duration": 0.08333325000000968,
          "durationTicks": 96,
          "midi": 41,
          "name": "F2",
          "ticks": 99264,
          "time": 86.1665805,
          "velocity": 0.3937007874015748
        },
        {
          "duration": 0.08333324999999547,
          "durationTicks": 96,
          "midi": 29,
          "name": "F1",
          "ticks": 99456,
          "time": 86.333247,
          "velocity": 0.3937007874015748
        },
        {
          "duration": 0.08333325000000968,
          "durationTicks": 96,
          "midi": 41,
          "name": "F2",
          "ticks": 99648,
          "time": 86.49991349999999,
          "velocity": 0.3937007874015748
        },
        {
          "duration": 0.08333324999999547,
          "durationTicks": 96,
          "midi": 34,
          "name": "A#1",
          "ticks": 99840,
          "time": 86.66658,
          "velocity": 0.3937007874015748
        },
        {
          "duration": 0.08333324999999547,
          "durationTicks": 96,
          "midi": 41,
          "name": "F2",
          "ticks": 100032,
          "time": 86.8332465,
          "velocity": 0.3937007874015748
        },
        {
          "duration": 0.08333325000000968,
          "durationTicks": 96,
          "midi": 29,
          "name": "F1",
          "ticks": 100224,
          "time": 86.99991299999999,
          "velocity": 0.3937007874015748
        },
        {
          "duration": 0.08333324999999547,
          "durationTicks": 96,
          "midi": 41,
          "name": "F2",
          "ticks": 100416,
          "time": 87.1665795,
          "velocity": 0.3937007874015748
        },
        {
          "duration": 0.08333324999999547,
          "durationTicks": 96,
          "midi": 34,
          "name": "A#1",
          "ticks": 100608,
          "time": 87.333246,
          "velocity": 0.3937007874015748
        },
        {
          "duration": 0.08333325000000968,
          "durationTicks": 96,
          "midi": 41,
          "name": "F2",
          "ticks": 100800,
          "time": 87.4999125,
          "velocity": 0.3937007874015748
        },
        {
          "duration": 0.08333324999999547,
          "durationTicks": 96,
          "midi": 29,
          "name": "F1",
          "ticks": 100992,
          "time": 87.666579,
          "velocity": 0.3937007874015748
        },
        {
          "duration": 0.08333324999999547,
          "durationTicks": 96,
          "midi": 41,
          "name": "F2",
          "ticks": 101184,
          "time": 87.8332455,
          "velocity": 0.3937007874015748
        },
        {
          "duration": 0.08333325000000968,
          "durationTicks": 96,
          "midi": 36,
          "name": "C2",
          "ticks": 101376,
          "time": 87.999912,
          "velocity": 0.3937007874015748
        },
        {
          "duration": 0.08333324999999547,
          "durationTicks": 96,
          "midi": 44,
          "name": "G#2",
          "ticks": 101568,
          "time": 88.1665785,
          "velocity": 0.3937007874015748
        },
        {
          "duration": 0.08333325000000968,
          "durationTicks": 96,
          "midi": 32,
          "name": "G#1",
          "ticks": 101760,
          "time": 88.33324499999999,
          "velocity": 0.3937007874015748
        },
        {
          "duration": 0.08333324999999547,
          "durationTicks": 96,
          "midi": 44,
          "name": "G#2",
          "ticks": 101952,
          "time": 88.4999115,
          "velocity": 0.3937007874015748
        },
        {
          "duration": 0.08333324999999547,
          "durationTicks": 96,
          "midi": 36,
          "name": "C2",
          "ticks": 102144,
          "time": 88.666578,
          "velocity": 0.3937007874015748
        },
        {
          "duration": 0.08333325000000968,
          "durationTicks": 96,
          "midi": 44,
          "name": "G#2",
          "ticks": 102336,
          "time": 88.83324449999999,
          "velocity": 0.3937007874015748
        },
        {
          "duration": 0.08333324999999547,
          "durationTicks": 96,
          "midi": 32,
          "name": "G#1",
          "ticks": 102528,
          "time": 88.999911,
          "velocity": 0.3937007874015748
        },
        {
          "duration": 0.08333324999999547,
          "durationTicks": 96,
          "midi": 44,
          "name": "G#2",
          "ticks": 102720,
          "time": 89.1665775,
          "velocity": 0.3937007874015748
        },
        {
          "duration": 0.08333325000000968,
          "durationTicks": 96,
          "midi": 36,
          "name": "C2",
          "ticks": 102912,
          "time": 89.333244,
          "velocity": 0.3937007874015748
        },
        {
          "duration": 0.08333324999999547,
          "durationTicks": 96,
          "midi": 44,
          "name": "G#2",
          "ticks": 103104,
          "time": 89.4999105,
          "velocity": 0.3937007874015748
        },
        {
          "duration": 0.08333324999999547,
          "durationTicks": 96,
          "midi": 32,
          "name": "G#1",
          "ticks": 103296,
          "time": 89.666577,
          "velocity": 0.3937007874015748
        },
        {
          "duration": 0.08333325000000968,
          "durationTicks": 96,
          "midi": 44,
          "name": "G#2",
          "ticks": 103488,
          "time": 89.8332435,
          "velocity": 0.3937007874015748
        },
        {
          "duration": 0.08333324999999547,
          "durationTicks": 96,
          "midi": 36,
          "name": "C2",
          "ticks": 103680,
          "time": 89.99991,
          "velocity": 0.3937007874015748
        },
        {
          "duration": 0.08333325000000968,
          "durationTicks": 96,
          "midi": 44,
          "name": "G#2",
          "ticks": 103872,
          "time": 90.16657649999999,
          "velocity": 0.3937007874015748
        },
        {
          "duration": 0.08333324999999547,
          "durationTicks": 96,
          "midi": 32,
          "name": "G#1",
          "ticks": 104064,
          "time": 90.333243,
          "velocity": 0.3937007874015748
        },
        {
          "duration": 0.08333324999999547,
          "durationTicks": 96,
          "midi": 44,
          "name": "G#2",
          "ticks": 104256,
          "time": 90.4999095,
          "velocity": 0.3937007874015748
        },
        {
          "duration": 0.08333325000000968,
          "durationTicks": 96,
          "midi": 37,
          "name": "C#2",
          "ticks": 104448,
          "time": 90.66657599999999,
          "velocity": 0.3937007874015748
        },
        {
          "duration": 0.08333324999999547,
          "durationTicks": 96,
          "midi": 44,
          "name": "G#2",
          "ticks": 104640,
          "time": 90.8332425,
          "velocity": 0.3937007874015748
        },
        {
          "duration": 0.08333324999999547,
          "durationTicks": 96,
          "midi": 32,
          "name": "G#1",
          "ticks": 104832,
          "time": 90.999909,
          "velocity": 0.3937007874015748
        },
        {
          "duration": 0.08333325000000968,
          "durationTicks": 96,
          "midi": 44,
          "name": "G#2",
          "ticks": 105024,
          "time": 91.1665755,
          "velocity": 0.3937007874015748
        },
        {
          "duration": 0.08333324999999547,
          "durationTicks": 96,
          "midi": 37,
          "name": "C#2",
          "ticks": 105216,
          "time": 91.333242,
          "velocity": 0.3937007874015748
        },
        {
          "duration": 0.08333324999999547,
          "durationTicks": 96,
          "midi": 44,
          "name": "G#2",
          "ticks": 105408,
          "time": 91.4999085,
          "velocity": 0.3937007874015748
        },
        {
          "duration": 0.08333325000000968,
          "durationTicks": 96,
          "midi": 32,
          "name": "G#1",
          "ticks": 105600,
          "time": 91.666575,
          "velocity": 0.3937007874015748
        },
        {
          "duration": 0.08333324999999547,
          "durationTicks": 96,
          "midi": 44,
          "name": "G#2",
          "ticks": 105792,
          "time": 91.8332415,
          "velocity": 0.3937007874015748
        },
        {
          "duration": 0.08333325000000968,
          "durationTicks": 96,
          "midi": 37,
          "name": "C#2",
          "ticks": 105984,
          "time": 91.99990799999999,
          "velocity": 0.3937007874015748
        },
        {
          "duration": 0.08333324999999547,
          "durationTicks": 96,
          "midi": 44,
          "name": "G#2",
          "ticks": 106176,
          "time": 92.1665745,
          "velocity": 0.3937007874015748
        },
        {
          "duration": 0.08333324999999547,
          "durationTicks": 96,
          "midi": 32,
          "name": "G#1",
          "ticks": 106368,
          "time": 92.333241,
          "velocity": 0.3937007874015748
        },
        {
          "duration": 0.08333325000000968,
          "durationTicks": 96,
          "midi": 44,
          "name": "G#2",
          "ticks": 106560,
          "time": 92.49990749999999,
          "velocity": 0.3937007874015748
        },
        {
          "duration": 0.08333324999999547,
          "durationTicks": 96,
          "midi": 37,
          "name": "C#2",
          "ticks": 106752,
          "time": 92.666574,
          "velocity": 0.3937007874015748
        },
        {
          "duration": 0.08333324999999547,
          "durationTicks": 96,
          "midi": 44,
          "name": "G#2",
          "ticks": 106944,
          "time": 92.8332405,
          "velocity": 0.3937007874015748
        },
        {
          "duration": 0.08333325000000968,
          "durationTicks": 96,
          "midi": 32,
          "name": "G#1",
          "ticks": 107136,
          "time": 92.999907,
          "velocity": 0.3937007874015748
        },
        {
          "duration": 0.08333324999999547,
          "durationTicks": 96,
          "midi": 44,
          "name": "G#2",
          "ticks": 107328,
          "time": 93.1665735,
          "velocity": 0.3937007874015748
        },
        {
          "duration": 0.08333324999999547,
          "durationTicks": 96,
          "midi": 37,
          "name": "C#2",
          "ticks": 107520,
          "time": 93.33324,
          "velocity": 0.3937007874015748
        },
        {
          "duration": 0.08333325000000968,
          "durationTicks": 96,
          "midi": 44,
          "name": "G#2",
          "ticks": 107712,
          "time": 93.4999065,
          "velocity": 0.3937007874015748
        },
        {
          "duration": 0.08333324999999547,
          "durationTicks": 96,
          "midi": 32,
          "name": "G#1",
          "ticks": 107904,
          "time": 93.666573,
          "velocity": 0.3937007874015748
        },
        {
          "duration": 0.08333325000000968,
          "durationTicks": 96,
          "midi": 44,
          "name": "G#2",
          "ticks": 108096,
          "time": 93.83323949999999,
          "velocity": 0.3937007874015748
        },
        {
          "duration": 0.08333324999999547,
          "durationTicks": 96,
          "midi": 37,
          "name": "C#2",
          "ticks": 108288,
          "time": 93.999906,
          "velocity": 0.3937007874015748
        },
        {
          "duration": 0.08333324999999547,
          "durationTicks": 96,
          "midi": 44,
          "name": "G#2",
          "ticks": 108480,
          "time": 94.1665725,
          "velocity": 0.3937007874015748
        },
        {
          "duration": 0.08333325000000968,
          "durationTicks": 96,
          "midi": 32,
          "name": "G#1",
          "ticks": 108672,
          "time": 94.33323899999999,
          "velocity": 0.3937007874015748
        },
        {
          "duration": 0.08333324999999547,
          "durationTicks": 96,
          "midi": 44,
          "name": "G#2",
          "ticks": 108864,
          "time": 94.4999055,
          "velocity": 0.3937007874015748
        },
        {
          "duration": 0.08333324999999547,
          "durationTicks": 96,
          "midi": 36,
          "name": "C2",
          "ticks": 109056,
          "time": 94.666572,
          "velocity": 0.3937007874015748
        },
        {
          "duration": 0.08333325000000968,
          "durationTicks": 96,
          "midi": 43,
          "name": "G2",
          "ticks": 109248,
          "time": 94.8332385,
          "velocity": 0.3937007874015748
        },
        {
          "duration": 0.08333324999999547,
          "durationTicks": 96,
          "midi": 31,
          "name": "G1",
          "ticks": 109440,
          "time": 94.999905,
          "velocity": 0.3937007874015748
        },
        {
          "duration": 0.08333324999999547,
          "durationTicks": 96,
          "midi": 43,
          "name": "G2",
          "ticks": 109632,
          "time": 95.1665715,
          "velocity": 0.3937007874015748
        },
        {
          "duration": 0.08333325000000968,
          "durationTicks": 96,
          "midi": 36,
          "name": "C2",
          "ticks": 109824,
          "time": 95.333238,
          "velocity": 0.3937007874015748
        },
        {
          "duration": 0.08333324999999547,
          "durationTicks": 96,
          "midi": 43,
          "name": "G2",
          "ticks": 110016,
          "time": 95.4999045,
          "velocity": 0.3937007874015748
        },
        {
          "duration": 0.08333325000000968,
          "durationTicks": 96,
          "midi": 31,
          "name": "G1",
          "ticks": 110208,
          "time": 95.66657099999999,
          "velocity": 0.3937007874015748
        },
        {
          "duration": 0.08333324999999547,
          "durationTicks": 96,
          "midi": 43,
          "name": "G2",
          "ticks": 110400,
          "time": 95.8332375,
          "velocity": 0.3937007874015748
        },
        {
          "duration": 0.08333324999999547,
          "durationTicks": 96,
          "midi": 34,
          "name": "A#1",
          "ticks": 110592,
          "time": 95.999904,
          "velocity": 0.3937007874015748
        },
        {
          "duration": 0.08333325000000968,
          "durationTicks": 96,
          "midi": 41,
          "name": "F2",
          "ticks": 110784,
          "time": 96.16657049999999,
          "velocity": 0.3937007874015748
        },
        {
          "duration": 0.08333324999999547,
          "durationTicks": 96,
          "midi": 29,
          "name": "F1",
          "ticks": 110976,
          "time": 96.333237,
          "velocity": 0.3937007874015748
        },
        {
          "duration": 0.08333324999999547,
          "durationTicks": 96,
          "midi": 41,
          "name": "F2",
          "ticks": 111168,
          "time": 96.4999035,
          "velocity": 0.3937007874015748
        },
        {
          "duration": 0.08333325000000968,
          "durationTicks": 96,
          "midi": 34,
          "name": "A#1",
          "ticks": 111360,
          "time": 96.66657,
          "velocity": 0.3937007874015748
        },
        {
          "duration": 0.08333324999999547,
          "durationTicks": 96,
          "midi": 41,
          "name": "F2",
          "ticks": 111552,
          "time": 96.8332365,
          "velocity": 0.3937007874015748
        },
        {
          "duration": 0.08333324999999547,
          "durationTicks": 96,
          "midi": 29,
          "name": "F1",
          "ticks": 111744,
          "time": 96.999903,
          "velocity": 0.3937007874015748
        },
        {
          "duration": 0.08333325000000968,
          "durationTicks": 96,
          "midi": 41,
          "name": "F2",
          "ticks": 111936,
          "time": 97.1665695,
          "velocity": 0.3937007874015748
        },
        {
          "duration": 0.08333324999999547,
          "durationTicks": 96,
          "midi": 34,
          "name": "A#1",
          "ticks": 112128,
          "time": 97.333236,
          "velocity": 0.3937007874015748
        },
        {
          "duration": 0.08333325000000968,
          "durationTicks": 96,
          "midi": 41,
          "name": "F2",
          "ticks": 112320,
          "time": 97.49990249999999,
          "velocity": 0.3937007874015748
        },
        {
          "duration": 0.08333324999999547,
          "durationTicks": 96,
          "midi": 29,
          "name": "F1",
          "ticks": 112512,
          "time": 97.666569,
          "velocity": 0.3937007874015748
        },
        {
          "duration": 0.08333324999999547,
          "durationTicks": 96,
          "midi": 41,
          "name": "F2",
          "ticks": 112704,
          "time": 97.8332355,
          "velocity": 0.3937007874015748
        },
        {
          "duration": 0.08333325000000968,
          "durationTicks": 96,
          "midi": 34,
          "name": "A#1",
          "ticks": 112896,
          "time": 97.99990199999999,
          "velocity": 0.3937007874015748
        },
        {
          "duration": 0.08333324999999547,
          "durationTicks": 96,
          "midi": 41,
          "name": "F2",
          "ticks": 113088,
          "time": 98.1665685,
          "velocity": 0.3937007874015748
        },
        {
          "duration": 0.08333324999999547,
          "durationTicks": 96,
          "midi": 29,
          "name": "F1",
          "ticks": 113280,
          "time": 98.333235,
          "velocity": 0.3937007874015748
        },
        {
          "duration": 0.08333325000000968,
          "durationTicks": 96,
          "midi": 41,
          "name": "F2",
          "ticks": 113472,
          "time": 98.49990149999999,
          "velocity": 0.3937007874015748
        },
        {
          "duration": 0.08333324999999547,
          "durationTicks": 96,
          "midi": 36,
          "name": "C2",
          "ticks": 113664,
          "time": 98.666568,
          "velocity": 0.3937007874015748
        },
        {
          "duration": 0.08333324999999547,
          "durationTicks": 96,
          "midi": 44,
          "name": "G#2",
          "ticks": 113856,
          "time": 98.8332345,
          "velocity": 0.3937007874015748
        },
        {
          "duration": 0.08333325000000968,
          "durationTicks": 96,
          "midi": 32,
          "name": "G#1",
          "ticks": 114048,
          "time": 98.999901,
          "velocity": 0.3937007874015748
        },
        {
          "duration": 0.08333324999999547,
          "durationTicks": 96,
          "midi": 44,
          "name": "G#2",
          "ticks": 114240,
          "time": 99.1665675,
          "velocity": 0.3937007874015748
        },
        {
          "duration": 0.08333325000000968,
          "durationTicks": 96,
          "midi": 36,
          "name": "C2",
          "ticks": 114432,
          "time": 99.33323399999999,
          "velocity": 0.3937007874015748
        },
        {
          "duration": 0.08333324999999547,
          "durationTicks": 96,
          "midi": 44,
          "name": "G#2",
          "ticks": 114624,
          "time": 99.4999005,
          "velocity": 0.3937007874015748
        },
        {
          "duration": 0.08333324999999547,
          "durationTicks": 96,
          "midi": 32,
          "name": "G#1",
          "ticks": 114816,
          "time": 99.666567,
          "velocity": 0.3937007874015748
        },
        {
          "duration": 0.08333325000000968,
          "durationTicks": 96,
          "midi": 44,
          "name": "G#2",
          "ticks": 115008,
          "time": 99.83323349999999,
          "velocity": 0.3937007874015748
        },
        {
          "duration": 0.08333324999999547,
          "durationTicks": 96,
          "midi": 36,
          "name": "C2",
          "ticks": 115200,
          "time": 99.9999,
          "velocity": 0.3937007874015748
        },
        {
          "duration": 0.08333324999999547,
          "durationTicks": 96,
          "midi": 44,
          "name": "G#2",
          "ticks": 115392,
          "time": 100.1665665,
          "velocity": 0.3937007874015748
        },
        {
          "duration": 0.08333325000000968,
          "durationTicks": 96,
          "midi": 32,
          "name": "G#1",
          "ticks": 115584,
          "time": 100.33323299999999,
          "velocity": 0.3937007874015748
        },
        {
          "duration": 0.08333324999999547,
          "durationTicks": 96,
          "midi": 44,
          "name": "G#2",
          "ticks": 115776,
          "time": 100.4998995,
          "velocity": 0.3937007874015748
        },
        {
          "duration": 0.08333324999999547,
          "durationTicks": 96,
          "midi": 36,
          "name": "C2",
          "ticks": 115968,
          "time": 100.666566,
          "velocity": 0.3937007874015748
        },
        {
          "duration": 0.08333325000000968,
          "durationTicks": 96,
          "midi": 44,
          "name": "G#2",
          "ticks": 116160,
          "time": 100.8332325,
          "velocity": 0.3937007874015748
        },
        {
          "duration": 0.08333324999999547,
          "durationTicks": 96,
          "midi": 32,
          "name": "G#1",
          "ticks": 116352,
          "time": 100.999899,
          "velocity": 0.3937007874015748
        },
        {
          "duration": 0.08333325000000968,
          "durationTicks": 96,
          "midi": 44,
          "name": "G#2",
          "ticks": 116544,
          "time": 101.16656549999999,
          "velocity": 0.3937007874015748
        },
        {
          "duration": 0.08333324999999547,
          "durationTicks": 96,
          "midi": 37,
          "name": "C#2",
          "ticks": 116736,
          "time": 101.333232,
          "velocity": 0.3937007874015748
        },
        {
          "duration": 0.08333324999999547,
          "durationTicks": 96,
          "midi": 44,
          "name": "G#2",
          "ticks": 116928,
          "time": 101.4998985,
          "velocity": 0.3937007874015748
        },
        {
          "duration": 0.08333325000000968,
          "durationTicks": 96,
          "midi": 32,
          "name": "G#1",
          "ticks": 117120,
          "time": 101.66656499999999,
          "velocity": 0.3937007874015748
        },
        {
          "duration": 0.08333324999999547,
          "durationTicks": 96,
          "midi": 44,
          "name": "G#2",
          "ticks": 117312,
          "time": 101.8332315,
          "velocity": 0.3937007874015748
        },
        {
          "duration": 0.08333324999999547,
          "durationTicks": 96,
          "midi": 37,
          "name": "C#2",
          "ticks": 117504,
          "time": 101.999898,
          "velocity": 0.3937007874015748
        },
        {
          "duration": 0.08333325000000968,
          "durationTicks": 96,
          "midi": 44,
          "name": "G#2",
          "ticks": 117696,
          "time": 102.16656449999999,
          "velocity": 0.3937007874015748
        },
        {
          "duration": 0.08333324999999547,
          "durationTicks": 96,
          "midi": 32,
          "name": "G#1",
          "ticks": 117888,
          "time": 102.333231,
          "velocity": 0.3937007874015748
        },
        {
          "duration": 0.08333324999999547,
          "durationTicks": 96,
          "midi": 44,
          "name": "G#2",
          "ticks": 118080,
          "time": 102.4998975,
          "velocity": 0.3937007874015748
        },
        {
          "duration": 0.08333325000000968,
          "durationTicks": 96,
          "midi": 37,
          "name": "C#2",
          "ticks": 118272,
          "time": 102.666564,
          "velocity": 0.3937007874015748
        },
        {
          "duration": 0.08333324999999547,
          "durationTicks": 96,
          "midi": 44,
          "name": "G#2",
          "ticks": 118464,
          "time": 102.8332305,
          "velocity": 0.3937007874015748
        },
        {
          "duration": 0.08333325000000968,
          "durationTicks": 96,
          "midi": 32,
          "name": "G#1",
          "ticks": 118656,
          "time": 102.99989699999999,
          "velocity": 0.3937007874015748
        },
        {
          "duration": 0.08333324999999547,
          "durationTicks": 96,
          "midi": 44,
          "name": "G#2",
          "ticks": 118848,
          "time": 103.1665635,
          "velocity": 0.3937007874015748
        },
        {
          "duration": 0.08333324999999547,
          "durationTicks": 96,
          "midi": 37,
          "name": "C#2",
          "ticks": 119040,
          "time": 103.33323,
          "velocity": 0.3937007874015748
        },
        {
          "duration": 0.08333325000000968,
          "durationTicks": 96,
          "midi": 44,
          "name": "G#2",
          "ticks": 119232,
          "time": 103.49989649999999,
          "velocity": 0.3937007874015748
        },
        {
          "duration": 0.08333324999999547,
          "durationTicks": 96,
          "midi": 32,
          "name": "G#1",
          "ticks": 119424,
          "time": 103.666563,
          "velocity": 0.3937007874015748
        },
        {
          "duration": 0.08333324999999547,
          "durationTicks": 96,
          "midi": 44,
          "name": "G#2",
          "ticks": 119616,
          "time": 103.8332295,
          "velocity": 0.3937007874015748
        },
        {
          "duration": 0.08333325000000968,
          "durationTicks": 96,
          "midi": 37,
          "name": "C#2",
          "ticks": 119808,
          "time": 103.99989599999999,
          "velocity": 0.3937007874015748
        },
        {
          "duration": 0.08333324999999547,
          "durationTicks": 96,
          "midi": 44,
          "name": "G#2",
          "ticks": 120000,
          "time": 104.1665625,
          "velocity": 0.3937007874015748
        },
        {
          "duration": 0.08333324999999547,
          "durationTicks": 96,
          "midi": 32,
          "name": "G#1",
          "ticks": 120192,
          "time": 104.333229,
          "velocity": 0.3937007874015748
        },
        {
          "duration": 0.08333325000000968,
          "durationTicks": 96,
          "midi": 44,
          "name": "G#2",
          "ticks": 120384,
          "time": 104.4998955,
          "velocity": 0.3937007874015748
        },
        {
          "duration": 0.08333324999999547,
          "durationTicks": 96,
          "midi": 37,
          "name": "C#2",
          "ticks": 120576,
          "time": 104.666562,
          "velocity": 0.3937007874015748
        },
        {
          "duration": 0.08333325000000968,
          "durationTicks": 96,
          "midi": 44,
          "name": "G#2",
          "ticks": 120768,
          "time": 104.83322849999999,
          "velocity": 0.3937007874015748
        },
        {
          "duration": 0.08333324999999547,
          "durationTicks": 96,
          "midi": 32,
          "name": "G#1",
          "ticks": 120960,
          "time": 104.999895,
          "velocity": 0.3937007874015748
        },
        {
          "duration": 0.08333324999999547,
          "durationTicks": 96,
          "midi": 44,
          "name": "G#2",
          "ticks": 121152,
          "time": 105.1665615,
          "velocity": 0.3937007874015748
        },
        {
          "duration": 0.08333325000000968,
          "durationTicks": 96,
          "midi": 36,
          "name": "C2",
          "ticks": 121344,
          "time": 105.33322799999999,
          "velocity": 0.3937007874015748
        },
        {
          "duration": 0.08333324999999547,
          "durationTicks": 96,
          "midi": 43,
          "name": "G2",
          "ticks": 121536,
          "time": 105.4998945,
          "velocity": 0.3937007874015748
        },
        {
          "duration": 0.08333324999999547,
          "durationTicks": 96,
          "midi": 31,
          "name": "G1",
          "ticks": 121728,
          "time": 105.666561,
          "velocity": 0.3937007874015748
        },
        {
          "duration": 0.08333325000000968,
          "durationTicks": 96,
          "midi": 43,
          "name": "G2",
          "ticks": 121920,
          "time": 105.83322749999999,
          "velocity": 0.3937007874015748
        },
        {
          "duration": 0.08333324999999547,
          "durationTicks": 96,
          "midi": 36,
          "name": "C2",
          "ticks": 122112,
          "time": 105.999894,
          "velocity": 0.3937007874015748
        },
        {
          "duration": 0.08333324999999547,
          "durationTicks": 96,
          "midi": 43,
          "name": "G2",
          "ticks": 122304,
          "time": 106.1665605,
          "velocity": 0.3937007874015748
        },
        {
          "duration": 0.08333325000000968,
          "durationTicks": 96,
          "midi": 31,
          "name": "G1",
          "ticks": 122496,
          "time": 106.333227,
          "velocity": 0.3937007874015748
        },
        {
          "duration": 0.08333324999999547,
          "durationTicks": 96,
          "midi": 43,
          "name": "G2",
          "ticks": 122688,
          "time": 106.4998935,
          "velocity": 0.3937007874015748
        }
      ],
      "endOfTrackTicks": 122784
    },
    {
      "channel": 3,
      "controlChanges": {},
      "pitchBends": [],
      "instrument": {
        "family": "synth lead",
        "number": 81,
        "name": "lead 2 (sawtooth)"
      },
      "name": "8-Bit Sawtooth",
      "notes": [
        {
          "duration": 0.1666665000000016,
          "durationTicks": 192,
          "midi": 56,
          "name": "G#3",
          "ticks": 24576,
          "time": 21.333312,
          "velocity": 0.4881889763779528
        },
        {
          "duration": 0.1666665000000016,
          "durationTicks": 192,
          "midi": 56,
          "name": "G#3",
          "ticks": 24960,
          "time": 21.666645,
          "velocity": 0.4881889763779528
        },
        {
          "duration": 0.16666649999999805,
          "durationTicks": 192,
          "midi": 58,
          "name": "A#3",
          "ticks": 25152,
          "time": 21.8333115,
          "velocity": 0.4881889763779528
        },
        {
          "duration": 0.1666665000000016,
          "durationTicks": 192,
          "midi": 60,
          "name": "C4",
          "ticks": 25344,
          "time": 21.999978,
          "velocity": 0.4881889763779528
        },
        {
          "duration": 0.1666665000000016,
          "durationTicks": 192,
          "midi": 56,
          "name": "G#3",
          "ticks": 25728,
          "time": 22.333311,
          "velocity": 0.4881889763779528
        },
        {
          "duration": 0.1666665000000016,
          "durationTicks": 192,
          "midi": 58,
          "name": "A#3",
          "ticks": 26112,
          "time": 22.666643999999998,
          "velocity": 0.4881889763779528
        },
        {
          "duration": 0.1666665000000016,
          "durationTicks": 192,
          "midi": 58,
          "name": "A#3",
          "ticks": 26496,
          "time": 22.999976999999998,
          "velocity": 0.4881889763779528
        },
        {
          "duration": 0.1666665000000016,
          "durationTicks": 192,
          "midi": 60,
          "name": "C4",
          "ticks": 26688,
          "time": 23.1666435,
          "velocity": 0.4881889763779528
        },
        {
          "duration": 0.16666649999999805,
          "durationTicks": 192,
          "midi": 55,
          "name": "G3",
          "ticks": 26880,
          "time": 23.33331,
          "velocity": 0.4881889763779528
        },
        {
          "duration": 0.16666649999999805,
          "durationTicks": 192,
          "midi": 51,
          "name": "D#3",
          "ticks": 27264,
          "time": 23.666643,
          "velocity": 0.4881889763779528
        },
        {
          "duration": 0.16666649999999805,
          "durationTicks": 192,
          "midi": 56,
          "name": "G#3",
          "ticks": 27648,
          "time": 23.999976,
          "velocity": 0.4881889763779528
        },
        {
          "duration": 0.16666649999999805,
          "durationTicks": 192,
          "midi": 56,
          "name": "G#3",
          "ticks": 28032,
          "time": 24.333309,
          "velocity": 0.4881889763779528
        },
        {
          "duration": 0.1666665000000016,
          "durationTicks": 192,
          "midi": 58,
          "name": "A#3",
          "ticks": 28224,
          "time": 24.499975499999998,
          "velocity": 0.4881889763779528
        },
        {
          "duration": 0.16666649999999805,
          "durationTicks": 192,
          "midi": 60,
          "name": "C4",
          "ticks": 28416,
          "time": 24.666642,
          "velocity": 0.4881889763779528
        },
        {
          "duration": 0.1666665000000016,
          "durationTicks": 192,
          "midi": 68,
          "name": "G#4",
          "ticks": 28800,
          "time": 24.999975,
          "velocity": 0.4881889763779528
        },
        {
          "duration": 0.33333299999999966,
          "durationTicks": 384,
          "midi": 67,
          "name": "G4",
          "ticks": 29184,
          "time": 25.333308,
          "velocity": 0.4881889763779528
        },
        {
          "duration": 0.33333299999999966,
          "durationTicks": 384,
          "midi": 63,
          "name": "D#4",
          "ticks": 29568,
          "time": 25.666641,
          "velocity": 0.4881889763779528
        },
        {
          "duration": 0.33333299999999966,
          "durationTicks": 384,
          "midi": 58,
          "name": "A#3",
          "ticks": 29952,
          "time": 25.999973999999998,
          "velocity": 0.4881889763779528
        },
        {
          "duration": 0.3333330000000032,
          "durationTicks": 384,
          "midi": 55,
          "name": "G3",
          "ticks": 30336,
          "time": 26.333306999999998,
          "velocity": 0.4881889763779528
        },
        {
          "duration": 0.16666649999999805,
          "durationTicks": 192,
          "midi": 56,
          "name": "G#3",
          "ticks": 30720,
          "time": 26.66664,
          "velocity": 0.4881889763779528
        },
        {
          "duration": 0.16666649999999805,
          "durationTicks": 192,
          "midi": 56,
          "name": "G#3",
          "ticks": 31104,
          "time": 26.999973,
          "velocity": 0.4881889763779528
        },
        {
          "duration": 0.1666665000000016,
          "durationTicks": 192,
          "midi": 58,
          "name": "A#3",
          "ticks": 31296,
          "time": 27.1666395,
          "velocity": 0.4881889763779528
        },
        {
          "duration": 0.16666649999999805,
          "durationTicks": 192,
          "midi": 60,
          "name": "C4",
          "ticks": 31488,
          "time": 27.333306,
          "velocity": 0.4881889763779528
        },
        {
          "duration": 0.16666649999999805,
          "durationTicks": 192,
          "midi": 56,
          "name": "G#3",
          "ticks": 31872,
          "time": 27.666639,
          "velocity": 0.4881889763779528
        },
        {
          "duration": 0.16666649999999805,
          "durationTicks": 192,
          "midi": 58,
          "name": "A#3",
          "ticks": 32256,
          "time": 27.999972,
          "velocity": 0.4881889763779528
        },
        {
          "duration": 0.1666665000000016,
          "durationTicks": 192,
          "midi": 58,
          "name": "A#3",
          "ticks": 32640,
          "time": 28.333305,
          "velocity": 0.4881889763779528
        },
        {
          "duration": 0.16666649999999805,
          "durationTicks": 192,
          "midi": 60,
          "name": "C4",
          "ticks": 32832,
          "time": 28.4999715,
          "velocity": 0.4881889763779528
        },
        {
          "duration": 0.1666665000000016,
          "durationTicks": 192,
          "midi": 55,
          "name": "G3",
          "ticks": 33024,
          "time": 28.666638,
          "velocity": 0.4881889763779528
        },
        {
          "duration": 0.1666665000000016,
          "durationTicks": 192,
          "midi": 51,
          "name": "D#3",
          "ticks": 33408,
          "time": 28.999971,
          "velocity": 0.4881889763779528
        },
        {
          "duration": 0.1666665000000016,
          "durationTicks": 192,
          "midi": 57,
          "name": "A3",
          "ticks": 33792,
          "time": 29.333304,
          "velocity": 0.4881889763779528
        },
        {
          "duration": 0.1666665000000016,
          "durationTicks": 192,
          "midi": 57,
          "name": "A3",
          "ticks": 34176,
          "time": 29.666636999999998,
          "velocity": 0.4881889763779528
        },
        {
          "duration": 0.16666649999999805,
          "durationTicks": 192,
          "midi": 58,
          "name": "A#3",
          "ticks": 34368,
          "time": 29.8333035,
          "velocity": 0.4881889763779528
        },
        {
          "duration": 0.1666665000000016,
          "durationTicks": 192,
          "midi": 60,
          "name": "C4",
          "ticks": 34560,
          "time": 29.999969999999998,
          "velocity": 0.4881889763779528
        },
        {
          "duration": 0.16666649999999805,
          "durationTicks": 192,
          "midi": 65,
          "name": "F4",
          "ticks": 34944,
          "time": 30.333303,
          "velocity": 0.4881889763779528
        },
        {
          "duration": 0.33333299999999966,
          "durationTicks": 384,
          "midi": 64,
          "name": "E4",
          "ticks": 35328,
          "time": 30.666636,
          "velocity": 0.4881889763779528
        },
        {
          "duration": 0.33333299999999966,
          "durationTicks": 384,
          "midi": 67,
          "name": "G4",
          "ticks": 35712,
          "time": 30.999969,
          "velocity": 0.4881889763779528
        },
        {
          "duration": 0.6666659999999993,
          "durationTicks": 768,
          "midi": 65,
          "name": "F4",
          "ticks": 36096,
          "time": 31.333302,
          "velocity": 0.4881889763779528
        },
        {
          "duration": 0.1666665000000016,
          "durationTicks": 192,
          "midi": 56,
          "name": "G#3",
          "ticks": 36864,
          "time": 31.999968,
          "velocity": 0.4881889763779528
        },
        {
          "duration": 0.1666665000000016,
          "durationTicks": 192,
          "midi": 53,
          "name": "F3",
          "ticks": 36864,
          "time": 31.999968,
          "velocity": 0.4881889763779528
        },
        {
          "duration": 0.16666649999999805,
          "durationTicks": 192,
          "midi": 56,
          "name": "G#3",
          "ticks": 37248,
          "time": 32.333301,
          "velocity": 0.4881889763779528
        },
        {
          "duration": 0.16666649999999805,
          "durationTicks": 192,
          "midi": 53,
          "name": "F3",
          "ticks": 37248,
          "time": 32.333301,
          "velocity": 0.4881889763779528
        },
        {
          "duration": 0.16666650000000516,
          "durationTicks": 192,
          "midi": 55,
          "name": "G3",
          "ticks": 37440,
          "time": 32.4999675,
          "velocity": 0.4881889763779528
        },
        {
          "duration": 0.16666650000000516,
          "durationTicks": 192,
          "midi": 58,
          "name": "A#3",
          "ticks": 37440,
          "time": 32.4999675,
          "velocity": 0.4881889763779528
        },
        {
          "duration": 0.16666649999999805,
          "durationTicks": 192,
          "midi": 56,
          "name": "G#3",
          "ticks": 37632,
          "time": 32.666634,
          "velocity": 0.4881889763779528
        },
        {
          "duration": 0.16666649999999805,
          "durationTicks": 192,
          "midi": 60,
          "name": "C4",
          "ticks": 37632,
          "time": 32.666634,
          "velocity": 0.4881889763779528
        },
        {
          "duration": 0.16666649999999805,
          "durationTicks": 192,
          "midi": 56,
          "name": "G#3",
          "ticks": 38016,
          "time": 32.999967,
          "velocity": 0.4881889763779528
        },
        {
          "duration": 0.16666649999999805,
          "durationTicks": 192,
          "midi": 53,
          "name": "F3",
          "ticks": 38016,
          "time": 32.999967,
          "velocity": 0.4881889763779528
        },
        {
          "duration": 0.16666649999999805,
          "durationTicks": 192,
          "midi": 58,
          "name": "A#3",
          "ticks": 38400,
          "time": 33.3333,
          "velocity": 0.4881889763779528
        },
        {
          "duration": 0.16666649999999805,
          "durationTicks": 192,
          "midi": 55,
          "name": "G3",
          "ticks": 38400,
          "time": 33.3333,
          "velocity": 0.4881889763779528
        },
        {
          "duration": 0.16666650000000516,
          "durationTicks": 192,
          "midi": 55,
          "name": "G3",
          "ticks": 38784,
          "time": 33.666633,
          "velocity": 0.4881889763779528
        },
        {
          "duration": 0.16666650000000516,
          "durationTicks": 192,
          "midi": 58,
          "name": "A#3",
          "ticks": 38784,
          "time": 33.666633,
          "velocity": 0.4881889763779528
        },
        {
          "duration": 0.16666649999999805,
          "durationTicks": 192,
          "midi": 56,
          "name": "G#3",
          "ticks": 38976,
          "time": 33.8332995,
          "velocity": 0.4881889763779528
        },
        {
          "duration": 0.16666649999999805,
          "durationTicks": 192,
          "midi": 60,
          "name": "C4",
          "ticks": 38976,
          "time": 33.8332995,
          "velocity": 0.4881889763779528
        },
        {
          "duration": 0.16666649999999805,
          "durationTicks": 192,
          "midi": 51,
          "name": "D#3",
          "ticks": 39168,
          "time": 33.999966,
          "velocity": 0.4881889763779528
        },
        {
          "duration": 0.16666649999999805,
          "durationTicks": 192,
          "midi": 55,
          "name": "G3",
          "ticks": 39168,
          "time": 33.999966,
          "velocity": 0.4881889763779528
        },
        {
          "duration": 0.16666650000000516,
          "durationTicks": 192,
          "midi": 51,
          "name": "D#3",
          "ticks": 39552,
          "time": 34.333299,
          "velocity": 0.4881889763779528
        },
        {
          "duration": 0.16666650000000516,
          "durationTicks": 192,
          "midi": 48,
          "name": "C3",
          "ticks": 39552,
          "time": 34.333299,
          "velocity": 0.4881889763779528
        },
        {
          "duration": 0.16666649999999805,
          "durationTicks": 192,
          "midi": 56,
          "name": "G#3",
          "ticks": 39936,
          "time": 34.666632,
          "velocity": 0.4881889763779528
        },
        {
          "duration": 0.16666649999999805,
          "durationTicks": 192,
          "midi": 53,
          "name": "F3",
          "ticks": 39936,
          "time": 34.666632,
          "velocity": 0.4881889763779528
        },
        {
          "duration": 0.16666650000000516,
          "durationTicks": 192,
          "midi": 53,
          "name": "F3",
          "ticks": 40320,
          "time": 34.999964999999996,
          "velocity": 0.4881889763779528
        },
        {
          "duration": 0.16666650000000516,
          "durationTicks": 192,
          "midi": 56,
          "name": "G#3",
          "ticks": 40320,
          "time": 34.999964999999996,
          "velocity": 0.4881889763779528
        },
        {
          "duration": 0.16666649999999805,
          "durationTicks": 192,
          "midi": 58,
          "name": "A#3",
          "ticks": 40512,
          "time": 35.1666315,
          "velocity": 0.4881889763779528
        },
        {
          "duration": 0.16666649999999805,
          "durationTicks": 192,
          "midi": 55,
          "name": "G3",
          "ticks": 40512,
          "time": 35.1666315,
          "velocity": 0.4881889763779528
        },
        {
          "duration": 0.16666649999999805,
          "durationTicks": 192,
          "midi": 60,
          "name": "C4",
          "ticks": 40704,
          "time": 35.333298,
          "velocity": 0.4881889763779528
        },
        {
          "duration": 0.16666649999999805,
          "durationTicks": 192,
          "midi": 56,
          "name": "G#3",
          "ticks": 40704,
          "time": 35.333298,
          "velocity": 0.4881889763779528
        },
        {
          "duration": 0.16666649999999805,
          "durationTicks": 192,
          "midi": 68,
          "name": "G#4",
          "ticks": 41088,
          "time": 35.666631,
          "velocity": 0.4881889763779528
        },
        {
          "duration": 0.16666649999999805,
          "durationTicks": 192,
          "midi": 65,
          "name": "F4",
          "ticks": 41088,
          "time": 35.666631,
          "velocity": 0.4881889763779528
        },
        {
          "duration": 0.3333330000000032,
          "durationTicks": 384,
          "midi": 67,
          "name": "G4",
          "ticks": 41472,
          "time": 35.999964,
          "velocity": 0.4881889763779528
        },
        {
          "duration": 0.3333330000000032,
          "durationTicks": 384,
          "midi": 63,
          "name": "D#4",
          "ticks": 41472,
          "time": 35.999964,
          "velocity": 0.4881889763779528
        },
        {
          "duration": 0.3333329999999961,
          "durationTicks": 384,
          "midi": 63,
          "name": "D#4",
          "ticks": 41856,
          "time": 36.333297,
          "velocity": 0.4881889763779528
        },
        {
          "duration": 0.3333329999999961,
          "durationTicks": 384,
          "midi": 60,
          "name": "C4",
          "ticks": 41856,
          "time": 36.333297,
          "velocity": 0.4881889763779528
        },
        {
          "duration": 0.3333330000000032,
          "durationTicks": 384,
          "midi": 55,
          "name": "G3",
          "ticks": 42240,
          "time": 36.66663,
          "velocity": 0.4881889763779528
        },
        {
          "duration": 0.3333330000000032,
          "durationTicks": 384,
          "midi": 58,
          "name": "A#3",
          "ticks": 42240,
          "time": 36.66663,
          "velocity": 0.4881889763779528
        },
        {
          "duration": 0.3333329999999961,
          "durationTicks": 384,
          "midi": 51,
          "name": "D#3",
          "ticks": 42624,
          "time": 36.999963,
          "velocity": 0.4881889763779528
        },
        {
          "duration": 0.3333329999999961,
          "durationTicks": 384,
          "midi": 55,
          "name": "G3",
          "ticks": 42624,
          "time": 36.999963,
          "velocity": 0.4881889763779528
        },
        {
          "duration": 0.16666650000000516,
          "durationTicks": 192,
          "midi": 53,
          "name": "F3",
          "ticks": 43008,
          "time": 37.333296,
          "velocity": 0.4881889763779528
        },
        {
          "duration": 0.16666650000000516,
          "durationTicks": 192,
          "midi": 56,
          "name": "G#3",
          "ticks": 43008,
          "time": 37.333296,
          "velocity": 0.4881889763779528
        },
        {
          "duration": 0.16666649999999805,
          "durationTicks": 192,
          "midi": 53,
          "name": "F3",
          "ticks": 43392,
          "time": 37.666629,
          "velocity": 0.4881889763779528
        },
        {
          "duration": 0.16666649999999805,
          "durationTicks": 192,
          "midi": 56,
          "name": "G#3",
          "ticks": 43392,
          "time": 37.666629,
          "velocity": 0.4881889763779528
        },
        {
          "duration": 0.16666649999999805,
          "durationTicks": 192,
          "midi": 55,
          "name": "G3",
          "ticks": 43584,
          "time": 37.8332955,
          "velocity": 0.4881889763779528
        },
        {
          "duration": 0.16666649999999805,
          "durationTicks": 192,
          "midi": 58,
          "name": "A#3",
          "ticks": 43584,
          "time": 37.8332955,
          "velocity": 0.4881889763779528
        },
        {
          "duration": 0.16666650000000516,
          "durationTicks": 192,
          "midi": 60,
          "name": "C4",
          "ticks": 43776,
          "time": 37.999962,
          "velocity": 0.4881889763779528
        },
        {
          "duration": 0.16666650000000516,
          "durationTicks": 192,
          "midi": 56,
          "name": "G#3",
          "ticks": 43776,
          "time": 37.999962,
          "velocity": 0.4881889763779528
        },
        {
          "duration": 0.16666649999999805,
          "durationTicks": 192,
          "midi": 56,
          "name": "G#3",
          "ticks": 44160,
          "time": 38.333295,
          "velocity": 0.4881889763779528
        },
        {
          "duration": 0.16666649999999805,
          "durationTicks": 192,
          "midi": 53,
          "name": "F3",
          "ticks": 44160,
          "time": 38.333295,
          "velocity": 0.4881889763779528
        },
        {
          "duration": 0.16666650000000516,
          "durationTicks": 192,
          "midi": 58,
          "name": "A#3",
          "ticks": 44544,
          "time": 38.666627999999996,
          "velocity": 0.4881889763779528
        },
        {
          "duration": 0.16666650000000516,
          "durationTicks": 192,
          "midi": 55,
          "name": "G3",
          "ticks": 44544,
          "time": 38.666627999999996,
          "velocity": 0.4881889763779528
        },
        {
          "duration": 0.16666649999999805,
          "durationTicks": 192,
          "midi": 58,
          "name": "A#3",
          "ticks": 44928,
          "time": 38.999961,
          "velocity": 0.4881889763779528
        },
        {
          "duration": 0.16666649999999805,
          "durationTicks": 192,
          "midi": 55,
          "name": "G3",
          "ticks": 44928,
          "time": 38.999961,
          "velocity": 0.4881889763779528
        },
        {
          "duration": 0.16666650000000516,
          "durationTicks": 192,
          "midi": 56,
          "name": "G#3",
          "ticks": 45120,
          "time": 39.1666275,
          "velocity": 0.4881889763779528
        },
        {
          "duration": 0.16666650000000516,
          "durationTicks": 192,
          "midi": 60,
          "name": "C4",
          "ticks": 45120,
          "time": 39.1666275,
          "velocity": 0.4881889763779528
        },
        {
          "duration": 0.16666649999999805,
          "durationTicks": 192,
          "midi": 55,
          "name": "G3",
          "ticks": 45312,
          "time": 39.333294,
          "velocity": 0.4881889763779528
        },
        {
          "duration": 0.16666649999999805,
          "durationTicks": 192,
          "midi": 51,
          "name": "D#3",
          "ticks": 45312,
          "time": 39.333294,
          "velocity": 0.4881889763779528
        },
        {
          "duration": 0.16666649999999805,
          "durationTicks": 192,
          "midi": 51,
          "name": "D#3",
          "ticks": 45696,
          "time": 39.666627,
          "velocity": 0.4881889763779528
        },
        {
          "duration": 0.16666649999999805,
          "durationTicks": 192,
          "midi": 48,
          "name": "C3",
          "ticks": 45696,
          "time": 39.666627,
          "velocity": 0.4881889763779528
        },
        {
          "duration": 0.16666649999999805,
          "durationTicks": 192,
          "midi": 53,
          "name": "F3",
          "ticks": 46080,
          "time": 39.99996,
          "velocity": 0.4881889763779528
        },
        {
          "duration": 0.16666649999999805,
          "durationTicks": 192,
          "midi": 57,
          "name": "A3",
          "ticks": 46080,
          "time": 39.99996,
          "velocity": 0.4881889763779528
        },
        {
          "duration": 0.16666649999999805,
          "durationTicks": 192,
          "midi": 57,
          "name": "A3",
          "ticks": 46464,
          "time": 40.333293,
          "velocity": 0.4881889763779528
        },
        {
          "duration": 0.16666649999999805,
          "durationTicks": 192,
          "midi": 53,
          "name": "F3",
          "ticks": 46464,
          "time": 40.333293,
          "velocity": 0.4881889763779528
        },
        {
          "duration": 0.16666650000000516,
          "durationTicks": 192,
          "midi": 55,
          "name": "G3",
          "ticks": 46656,
          "time": 40.499959499999996,
          "velocity": 0.4881889763779528
        },
        {
          "duration": 0.16666650000000516,
          "durationTicks": 192,
          "midi": 58,
          "name": "A#3",
          "ticks": 46656,
          "time": 40.499959499999996,
          "velocity": 0.4881889763779528
        },
        {
          "duration": 0.16666649999999805,
          "durationTicks": 192,
          "midi": 60,
          "name": "C4",
          "ticks": 46848,
          "time": 40.666626,
          "velocity": 0.4881889763779528
        },
        {
          "duration": 0.16666649999999805,
          "durationTicks": 192,
          "midi": 57,
          "name": "A3",
          "ticks": 46848,
          "time": 40.666626,
          "velocity": 0.4881889763779528
        },
        {
          "duration": 0.16666650000000516,
          "durationTicks": 192,
          "midi": 65,
          "name": "F4",
          "ticks": 47232,
          "time": 40.999959,
          "velocity": 0.4881889763779528
        },
        {
          "duration": 0.16666650000000516,
          "durationTicks": 192,
          "midi": 60,
          "name": "C4",
          "ticks": 47232,
          "time": 40.999959,
          "velocity": 0.4881889763779528
        },
        {
          "duration": 0.3333329999999961,
          "durationTicks": 384,
          "midi": 64,
          "name": "E4",
          "ticks": 47616,
          "time": 41.333292,
          "velocity": 0.4881889763779528
        },
        {
          "duration": 0.3333329999999961,
          "durationTicks": 384,
          "midi": 59,
          "name": "B3",
          "ticks": 47616,
          "time": 41.333292,
          "velocity": 0.4881889763779528
        },
        {
          "duration": 0.3333330000000032,
          "durationTicks": 384,
          "midi": 62,
          "name": "D4",
          "ticks": 48000,
          "time": 41.666624999999996,
          "velocity": 0.4881889763779528
        },
        {
          "duration": 0.3333330000000032,
          "durationTicks": 384,
          "midi": 67,
          "name": "G4",
          "ticks": 48000,
          "time": 41.666624999999996,
          "velocity": 0.4881889763779528
        },
        {
          "duration": 0.6666659999999993,
          "durationTicks": 768,
          "midi": 65,
          "name": "F4",
          "ticks": 48384,
          "time": 41.999958,
          "velocity": 0.4881889763779528
        },
        {
          "duration": 0.6666659999999993,
          "durationTicks": 768,
          "midi": 60,
          "name": "C4",
          "ticks": 48384,
          "time": 41.999958,
          "velocity": 0.4881889763779528
        },
        {
          "duration": 0.16666649999999805,
          "durationTicks": 192,
          "midi": 57,
          "name": "A3",
          "ticks": 70656,
          "time": 61.333272,
          "velocity": 0.4881889763779528
        },
        {
          "duration": 0.16666649999999805,
          "durationTicks": 192,
          "midi": 57,
          "name": "A3",
          "ticks": 71040,
          "time": 61.666605,
          "velocity": 0.4881889763779528
        },
        {
          "duration": 0.16666650000000516,
          "durationTicks": 192,
          "midi": 58,
          "name": "A#3",
          "ticks": 71232,
          "time": 61.833271499999995,
          "velocity": 0.4881889763779528
        },
        {
          "duration": 0.16666649999999805,
          "durationTicks": 192,
          "midi": 60,
          "name": "C4",
          "ticks": 71424,
          "time": 61.999938,
          "velocity": 0.4881889763779528
        },
        {
          "duration": 0.16666650000000516,
          "durationTicks": 192,
          "midi": 65,
          "name": "F4",
          "ticks": 71808,
          "time": 62.333270999999996,
          "velocity": 0.4881889763779528
        },
        {
          "duration": 0.6666659999999993,
          "durationTicks": 768,
          "midi": 62,
          "name": "D4",
          "ticks": 72192,
          "time": 62.666604,
          "velocity": 0.4881889763779528
        },
        {
          "duration": 0.08333325000000258,
          "durationTicks": 96,
          "midi": 60,
          "name": "C4",
          "ticks": 72960,
          "time": 63.33327,
          "velocity": 0.4881889763779528
        },
        {
          "duration": 0.08333325000000258,
          "durationTicks": 96,
          "midi": 60,
          "name": "C4",
          "ticks": 73152,
          "time": 63.4999365,
          "velocity": 0.4881889763779528
        },
        {
          "duration": 0.08333325000000258,
          "durationTicks": 96,
          "midi": 60,
          "name": "C4",
          "ticks": 73344,
          "time": 63.666602999999995,
          "velocity": 0.4881889763779528
        },
        {
          "duration": 0.08333324999999547,
          "durationTicks": 96,
          "midi": 60,
          "name": "C4",
          "ticks": 73536,
          "time": 63.8332695,
          "velocity": 0.4881889763779528
        },
        {
          "duration": 0.16666649999999805,
          "durationTicks": 192,
          "midi": 56,
          "name": "G#3",
          "ticks": 73728,
          "time": 63.999936,
          "velocity": 0.4881889763779528
        },
        {
          "duration": 0.16666649999999095,
          "durationTicks": 192,
          "midi": 56,
          "name": "G#3",
          "ticks": 74112,
          "time": 64.333269,
          "velocity": 0.4881889763779528
        },
        {
          "duration": 0.16666650000000516,
          "durationTicks": 192,
          "midi": 58,
          "name": "A#3",
          "ticks": 74304,
          "time": 64.49993549999999,
          "velocity": 0.4881889763779528
        },
        {
          "duration": 0.16666650000000516,
          "durationTicks": 192,
          "midi": 60,
          "name": "C4",
          "ticks": 74496,
          "time": 64.666602,
          "velocity": 0.4881889763779528
        },
        {
          "duration": 0.16666650000000516,
          "durationTicks": 192,
          "midi": 56,
          "name": "G#3",
          "ticks": 74880,
          "time": 64.999935,
          "velocity": 0.4881889763779528
        },
        {
          "duration": 0.16666649999999095,
          "durationTicks": 192,
          "midi": 58,
          "name": "A#3",
          "ticks": 75264,
          "time": 65.333268,
          "velocity": 0.4881889763779528
        },
        {
          "duration": 0.16666650000000516,
          "durationTicks": 192,
          "midi": 58,
          "name": "A#3",
          "ticks": 75648,
          "time": 65.666601,
          "velocity": 0.4881889763779528
        },
        {
          "duration": 0.16666649999999095,
          "durationTicks": 192,
          "midi": 60,
          "name": "C4",
          "ticks": 75840,
          "time": 65.8332675,
          "velocity": 0.4881889763779528
        },
        {
          "duration": 0.16666650000000516,
          "durationTicks": 192,
          "midi": 55,
          "name": "G3",
          "ticks": 76032,
          "time": 65.999934,
          "velocity": 0.4881889763779528
        },
        {
          "duration": 0.16666650000000516,
          "durationTicks": 192,
          "midi": 51,
          "name": "D#3",
          "ticks": 76416,
          "time": 66.33326699999999,
          "velocity": 0.4881889763779528
        },
        {
          "duration": 0.16666649999999095,
          "durationTicks": 192,
          "midi": 56,
          "name": "G#3",
          "ticks": 76800,
          "time": 66.6666,
          "velocity": 0.4881889763779528
        },
        {
          "duration": 0.16666650000000516,
          "durationTicks": 192,
          "midi": 56,
          "name": "G#3",
          "ticks": 77184,
          "time": 66.999933,
          "velocity": 0.4881889763779528
        },
        {
          "duration": 0.16666649999999095,
          "durationTicks": 192,
          "midi": 58,
          "name": "A#3",
          "ticks": 77376,
          "time": 67.1665995,
          "velocity": 0.4881889763779528
        },
        {
          "duration": 0.16666650000000516,
          "durationTicks": 192,
          "midi": 60,
          "name": "C4",
          "ticks": 77568,
          "time": 67.333266,
          "velocity": 0.4881889763779528
        },
        {
          "duration": 0.16666649999999095,
          "durationTicks": 192,
          "midi": 60,
          "name": "C4",
          "ticks": 77952,
          "time": 67.666599,
          "velocity": 0.4881889763779528
        },
        {
          "duration": 0.16666650000000516,
          "durationTicks": 192,
          "midi": 68,
          "name": "G#4",
          "ticks": 78144,
          "time": 67.8332655,
          "velocity": 0.4881889763779528
        },
        {
          "duration": 0.3333329999999961,
          "durationTicks": 384,
          "midi": 67,
          "name": "G4",
          "ticks": 78336,
          "time": 67.999932,
          "velocity": 0.4881889763779528
        },
        {
          "duration": 0.3333329999999961,
          "durationTicks": 384,
          "midi": 63,
          "name": "D#4",
          "ticks": 78720,
          "time": 68.333265,
          "velocity": 0.4881889763779528
        },
        {
          "duration": 0.3333330000000103,
          "durationTicks": 384,
          "midi": 58,
          "name": "A#3",
          "ticks": 79104,
          "time": 68.666598,
          "velocity": 0.4881889763779528
        },
        {
          "duration": 0.3333329999999961,
          "durationTicks": 384,
          "midi": 55,
          "name": "G3",
          "ticks": 79488,
          "time": 68.999931,
          "velocity": 0.4881889763779528
        },
        {
          "duration": 0.16666650000000516,
          "durationTicks": 192,
          "midi": 56,
          "name": "G#3",
          "ticks": 79872,
          "time": 69.333264,
          "velocity": 0.4881889763779528
        },
        {
          "duration": 0.16666650000000516,
          "durationTicks": 192,
          "midi": 56,
          "name": "G#3",
          "ticks": 80256,
          "time": 69.666597,
          "velocity": 0.4881889763779528
        },
        {
          "duration": 0.16666649999999095,
          "durationTicks": 192,
          "midi": 63,
          "name": "D#4",
          "ticks": 80448,
          "time": 69.8332635,
          "velocity": 0.4881889763779528
        },
        {
          "duration": 0.16666650000000516,
          "durationTicks": 192,
          "midi": 65,
          "name": "F4",
          "ticks": 80640,
          "time": 69.99992999999999,
          "velocity": 0.4881889763779528
        },
        {
          "duration": 0.16666649999999095,
          "durationTicks": 192,
          "midi": 60,
          "name": "C4",
          "ticks": 81024,
          "time": 70.333263,
          "velocity": 0.4881889763779528
        },
        {
          "duration": 0.16666650000000516,
          "durationTicks": 192,
          "midi": 58,
          "name": "A#3",
          "ticks": 81408,
          "time": 70.666596,
          "velocity": 0.4881889763779528
        },
        {
          "duration": 0.16666650000000516,
          "durationTicks": 192,
          "midi": 58,
          "name": "A#3",
          "ticks": 81792,
          "time": 70.999929,
          "velocity": 0.4881889763779528
        },
        {
          "duration": 0.16666650000000516,
          "durationTicks": 192,
          "midi": 60,
          "name": "C4",
          "ticks": 81984,
          "time": 71.1665955,
          "velocity": 0.4881889763779528
        },
        {
          "duration": 0.16666649999999095,
          "durationTicks": 192,
          "midi": 58,
          "name": "A#3",
          "ticks": 82176,
          "time": 71.333262,
          "velocity": 0.4881889763779528
        },
        {
          "duration": 0.16666649999999095,
          "durationTicks": 192,
          "midi": 56,
          "name": "G#3",
          "ticks": 82560,
          "time": 71.666595,
          "velocity": 0.4881889763779528
        },
        {
          "duration": 0.16666650000000516,
          "durationTicks": 192,
          "midi": 58,
          "name": "A#3",
          "ticks": 82944,
          "time": 71.999928,
          "velocity": 0.4881889763779528
        },
        {
          "duration": 0.16666650000000516,
          "durationTicks": 192,
          "midi": 58,
          "name": "A#3",
          "ticks": 83328,
          "time": 72.333261,
          "velocity": 0.4881889763779528
        },
        {
          "duration": 0.16666650000000516,
          "durationTicks": 192,
          "midi": 60,
          "name": "C4",
          "ticks": 83520,
          "time": 72.4999275,
          "velocity": 0.4881889763779528
        },
        {
          "duration": 0.16666649999999095,
          "durationTicks": 192,
          "midi": 58,
          "name": "A#3",
          "ticks": 83712,
          "time": 72.666594,
          "velocity": 0.4881889763779528
        },
        {
          "duration": 0.16666650000000516,
          "durationTicks": 192,
          "midi": 56,
          "name": "G#3",
          "ticks": 84096,
          "time": 72.999927,
          "velocity": 0.4881889763779528
        },
        {
          "duration": 0.6666660000000064,
          "durationTicks": 768,
          "midi": 58,
          "name": "A#3",
          "ticks": 84480,
          "time": 73.33326,
          "velocity": 0.4881889763779528
        },
        {
          "duration": 0.6666659999999922,
          "durationTicks": 768,
          "midi": 60,
          "name": "C4",
          "ticks": 85248,
          "time": 73.999926,
          "velocity": 0.4881889763779528
        },
        {
          "duration": 0.16666650000000516,
          "durationTicks": 192,
          "midi": 56,
          "name": "G#3",
          "ticks": 86016,
          "time": 74.666592,
          "velocity": 0.4881889763779528
        },
        {
          "duration": 0.16666650000000516,
          "durationTicks": 192,
          "midi": 53,
          "name": "F3",
          "ticks": 86016,
          "time": 74.666592,
          "velocity": 0.4881889763779528
        },
        {
          "duration": 0.16666649999999095,
          "durationTicks": 192,
          "midi": 53,
          "name": "F3",
          "ticks": 86400,
          "time": 74.999925,
          "velocity": 0.4881889763779528
        },
        {
          "duration": 0.16666649999999095,
          "durationTicks": 192,
          "midi": 56,
          "name": "G#3",
          "ticks": 86400,
          "time": 74.999925,
          "velocity": 0.4881889763779528
        },
        {
          "duration": 0.16666650000000516,
          "durationTicks": 192,
          "midi": 55,
          "name": "G3",
          "ticks": 86592,
          "time": 75.1665915,
          "velocity": 0.4881889763779528
        },
        {
          "duration": 0.16666650000000516,
          "durationTicks": 192,
          "midi": 58,
          "name": "A#3",
          "ticks": 86592,
          "time": 75.1665915,
          "velocity": 0.4881889763779528
        },
        {
          "duration": 0.16666649999999095,
          "durationTicks": 192,
          "midi": 56,
          "name": "G#3",
          "ticks": 86784,
          "time": 75.333258,
          "velocity": 0.4881889763779528
        },
        {
          "duration": 0.16666649999999095,
          "durationTicks": 192,
          "midi": 60,
          "name": "C4",
          "ticks": 86784,
          "time": 75.333258,
          "velocity": 0.4881889763779528
        },
        {
          "duration": 0.16666650000000516,
          "durationTicks": 192,
          "midi": 56,
          "name": "G#3",
          "ticks": 87168,
          "time": 75.666591,
          "velocity": 0.4881889763779528
        },
        {
          "duration": 0.16666650000000516,
          "durationTicks": 192,
          "midi": 53,
          "name": "F3",
          "ticks": 87168,
          "time": 75.666591,
          "velocity": 0.4881889763779528
        },
        {
          "duration": 0.16666650000000516,
          "durationTicks": 192,
          "midi": 58,
          "name": "A#3",
          "ticks": 87552,
          "time": 75.999924,
          "velocity": 0.4881889763779528
        },
        {
          "duration": 0.16666650000000516,
          "durationTicks": 192,
          "midi": 55,
          "name": "G3",
          "ticks": 87552,
          "time": 75.999924,
          "velocity": 0.4881889763779528
        },
        {
          "duration": 0.16666649999999095,
          "durationTicks": 192,
          "midi": 55,
          "name": "G3",
          "ticks": 87936,
          "time": 76.333257,
          "velocity": 0.4881889763779528
        },
        {
          "duration": 0.16666649999999095,
          "durationTicks": 192,
          "midi": 58,
          "name": "A#3",
          "ticks": 87936,
          "time": 76.333257,
          "velocity": 0.4881889763779528
        },
        {
          "duration": 0.16666650000000516,
          "durationTicks": 192,
          "midi": 56,
          "name": "G#3",
          "ticks": 88128,
          "time": 76.4999235,
          "velocity": 0.4881889763779528
        },
        {
          "duration": 0.16666650000000516,
          "durationTicks": 192,
          "midi": 60,
          "name": "C4",
          "ticks": 88128,
          "time": 76.4999235,
          "velocity": 0.4881889763779528
        },
        {
          "duration": 0.16666650000000516,
          "durationTicks": 192,
          "midi": 55,
          "name": "G3",
          "ticks": 88320,
          "time": 76.66659,
          "velocity": 0.4881889763779528
        },
        {
          "duration": 0.16666650000000516,
          "durationTicks": 192,
          "midi": 51,
          "name": "D#3",
          "ticks": 88320,
          "time": 76.66659,
          "velocity": 0.4881889763779528
        },
        {
          "duration": 0.16666650000000516,
          "durationTicks": 192,
          "midi": 51,
          "name": "D#3",
          "ticks": 88704,
          "time": 76.999923,
          "velocity": 0.4881889763779528
        },
        {
          "duration": 0.16666650000000516,
          "durationTicks": 192,
          "midi": 48,
          "name": "C3",
          "ticks": 88704,
          "time": 76.999923,
          "velocity": 0.4881889763779528
        },
        {
          "duration": 0.16666650000000516,
          "durationTicks": 192,
          "midi": 56,
          "name": "G#3",
          "ticks": 89088,
          "time": 77.33325599999999,
          "velocity": 0.4881889763779528
        },
        {
          "duration": 0.16666650000000516,
          "durationTicks": 192,
          "midi": 51,
          "name": "D#3",
          "ticks": 89088,
          "time": 77.33325599999999,
          "velocity": 0.4881889763779528
        },
        {
          "duration": 0.16666649999999095,
          "durationTicks": 192,
          "midi": 56,
          "name": "G#3",
          "ticks": 89472,
          "time": 77.666589,
          "velocity": 0.4881889763779528
        },
        {
          "duration": 0.16666649999999095,
          "durationTicks": 192,
          "midi": 51,
          "name": "D#3",
          "ticks": 89472,
          "time": 77.666589,
          "velocity": 0.4881889763779528
        },
        {
          "duration": 0.16666650000000516,
          "durationTicks": 192,
          "midi": 55,
          "name": "G3",
          "ticks": 89664,
          "time": 77.83325549999999,
          "velocity": 0.4881889763779528
        },
        {
          "duration": 0.16666650000000516,
          "durationTicks": 192,
          "midi": 58,
          "name": "A#3",
          "ticks": 89664,
          "time": 77.83325549999999,
          "velocity": 0.4881889763779528
        },
        {
          "duration": 0.16666650000000516,
          "durationTicks": 192,
          "midi": 56,
          "name": "G#3",
          "ticks": 89856,
          "time": 77.999922,
          "velocity": 0.4881889763779528
        },
        {
          "duration": 0.16666650000000516,
          "durationTicks": 192,
          "midi": 60,
          "name": "C4",
          "ticks": 89856,
          "time": 77.999922,
          "velocity": 0.4881889763779528
        },
        {
          "duration": 0.16666649999999095,
          "durationTicks": 192,
          "midi": 56,
          "name": "G#3",
          "ticks": 90048,
          "time": 78.1665885,
          "velocity": 0.4881889763779528
        },
        {
          "duration": 0.16666650000000516,
          "durationTicks": 192,
          "midi": 60,
          "name": "C4",
          "ticks": 90240,
          "time": 78.333255,
          "velocity": 0.4881889763779528
        },
        {
          "duration": 0.16666650000000516,
          "durationTicks": 192,
          "midi": 68,
          "name": "G#4",
          "ticks": 90432,
          "time": 78.4999215,
          "velocity": 0.4881889763779528
        },
        {
          "duration": 0.3333329999999961,
          "durationTicks": 384,
          "midi": 63,
          "name": "D#4",
          "ticks": 90624,
          "time": 78.666588,
          "velocity": 0.4881889763779528
        },
        {
          "duration": 0.3333329999999961,
          "durationTicks": 384,
          "midi": 67,
          "name": "G4",
          "ticks": 90624,
          "time": 78.666588,
          "velocity": 0.4881889763779528
        },
        {
          "duration": 0.3333329999999961,
          "durationTicks": 384,
          "midi": 58,
          "name": "A#3",
          "ticks": 91008,
          "time": 78.999921,
          "velocity": 0.4881889763779528
        },
        {
          "duration": 0.3333329999999961,
          "durationTicks": 384,
          "midi": 63,
          "name": "D#4",
          "ticks": 91008,
          "time": 78.999921,
          "velocity": 0.4881889763779528
        },
        {
          "duration": 0.3333329999999961,
          "durationTicks": 384,
          "midi": 58,
          "name": "A#3",
          "ticks": 91392,
          "time": 79.333254,
          "velocity": 0.4881889763779528
        },
        {
          "duration": 0.3333329999999961,
          "durationTicks": 384,
          "midi": 55,
          "name": "G3",
          "ticks": 91392,
          "time": 79.333254,
          "velocity": 0.4881889763779528
        },
        {
          "duration": 0.3333330000000103,
          "durationTicks": 384,
          "midi": 51,
          "name": "D#3",
          "ticks": 91776,
          "time": 79.66658699999999,
          "velocity": 0.4881889763779528
        },
        {
          "duration": 0.3333330000000103,
          "durationTicks": 384,
          "midi": 55,
          "name": "G3",
          "ticks": 91776,
          "time": 79.66658699999999,
          "velocity": 0.4881889763779528
        },
        {
          "duration": 0.16666649999999095,
          "durationTicks": 192,
          "midi": 56,
          "name": "G#3",
          "ticks": 92160,
          "time": 79.99992,
          "velocity": 0.4881889763779528
        },
        {
          "duration": 0.16666649999999095,
          "durationTicks": 192,
          "midi": 53,
          "name": "F3",
          "ticks": 92160,
          "time": 79.99992,
          "velocity": 0.4881889763779528
        },
        {
          "duration": 0.16666650000000516,
          "durationTicks": 192,
          "midi": 53,
          "name": "F3",
          "ticks": 92544,
          "time": 80.333253,
          "velocity": 0.4881889763779528
        },
        {
          "duration": 0.16666650000000516,
          "durationTicks": 192,
          "midi": 56,
          "name": "G#3",
          "ticks": 92544,
          "time": 80.333253,
          "velocity": 0.4881889763779528
        },
        {
          "duration": 0.16666649999999095,
          "durationTicks": 192,
          "midi": 58,
          "name": "A#3",
          "ticks": 92736,
          "time": 80.4999195,
          "velocity": 0.4881889763779528
        },
        {
          "duration": 0.16666649999999095,
          "durationTicks": 192,
          "midi": 63,
          "name": "D#4",
          "ticks": 92736,
          "time": 80.4999195,
          "velocity": 0.4881889763779528
        },
        {
          "duration": 0.16666650000000516,
          "durationTicks": 192,
          "midi": 65,
          "name": "F4",
          "ticks": 92928,
          "time": 80.666586,
          "velocity": 0.4881889763779528
        },
        {
          "duration": 0.16666650000000516,
          "durationTicks": 192,
          "midi": 60,
          "name": "C4",
          "ticks": 92928,
          "time": 80.666586,
          "velocity": 0.4881889763779528
        },
        {
          "duration": 0.16666650000000516,
          "durationTicks": 192,
          "midi": 60,
          "name": "C4",
          "ticks": 93312,
          "time": 80.99991899999999,
          "velocity": 0.4881889763779528
        },
        {
          "duration": 0.16666650000000516,
          "durationTicks": 192,
          "midi": 56,
          "name": "G#3",
          "ticks": 93312,
          "time": 80.99991899999999,
          "velocity": 0.4881889763779528
        },
        {
          "duration": 0.16666649999999095,
          "durationTicks": 192,
          "midi": 55,
          "name": "G3",
          "ticks": 93696,
          "time": 81.333252,
          "velocity": 0.4881889763779528
        },
        {
          "duration": 0.16666649999999095,
          "durationTicks": 192,
          "midi": 58,
          "name": "A#3",
          "ticks": 93696,
          "time": 81.333252,
          "velocity": 0.4881889763779528
        },
        {
          "duration": 0.16666650000000516,
          "durationTicks": 192,
          "midi": 55,
          "name": "G3",
          "ticks": 94080,
          "time": 81.666585,
          "velocity": 0.4881889763779528
        },
        {
          "duration": 0.16666650000000516,
          "durationTicks": 192,
          "midi": 58,
          "name": "A#3",
          "ticks": 94080,
          "time": 81.666585,
          "velocity": 0.4881889763779528
        },
        {
          "duration": 0.16666649999999095,
          "durationTicks": 192,
          "midi": 56,
          "name": "G#3",
          "ticks": 94272,
          "time": 81.8332515,
          "velocity": 0.4881889763779528
        },
        {
          "duration": 0.16666649999999095,
          "durationTicks": 192,
          "midi": 60,
          "name": "C4",
          "ticks": 94272,
          "time": 81.8332515,
          "velocity": 0.4881889763779528
        },
        {
          "duration": 0.16666650000000516,
          "durationTicks": 192,
          "midi": 58,
          "name": "A#3",
          "ticks": 94464,
          "time": 81.999918,
          "velocity": 0.4881889763779528
        },
        {
          "duration": 0.16666650000000516,
          "durationTicks": 192,
          "midi": 55,
          "name": "G3",
          "ticks": 94464,
          "time": 81.999918,
          "velocity": 0.4881889763779528
        },
        {
          "duration": 0.16666649999999095,
          "durationTicks": 192,
          "midi": 56,
          "name": "G#3",
          "ticks": 94848,
          "time": 82.333251,
          "velocity": 0.4881889763779528
        },
        {
          "duration": 0.16666649999999095,
          "durationTicks": 192,
          "midi": 53,
          "name": "F3",
          "ticks": 94848,
          "time": 82.333251,
          "velocity": 0.4881889763779528
        },
        {
          "duration": 0.16666649999999095,
          "durationTicks": 192,
          "midi": 55,
          "name": "G3",
          "ticks": 95232,
          "time": 82.666584,
          "velocity": 0.4881889763779528
        },
        {
          "duration": 0.16666649999999095,
          "durationTicks": 192,
          "midi": 58,
          "name": "A#3",
          "ticks": 95232,
          "time": 82.666584,
          "velocity": 0.4881889763779528
        },
        {
          "duration": 0.16666650000000516,
          "durationTicks": 192,
          "midi": 58,
          "name": "A#3",
          "ticks": 95616,
          "time": 82.999917,
          "velocity": 0.4881889763779528
        },
        {
          "duration": 0.16666650000000516,
          "durationTicks": 192,
          "midi": 55,
          "name": "G3",
          "ticks": 95616,
          "time": 82.999917,
          "velocity": 0.4881889763779528
        },
        {
          "duration": 0.16666649999999095,
          "durationTicks": 192,
          "midi": 60,
          "name": "C4",
          "ticks": 95808,
          "time": 83.1665835,
          "velocity": 0.4881889763779528
        },
        {
          "duration": 0.16666649999999095,
          "durationTicks": 192,
          "midi": 56,
          "name": "G#3",
          "ticks": 95808,
          "time": 83.1665835,
          "velocity": 0.4881889763779528
        },
        {
          "duration": 0.16666650000000516,
          "durationTicks": 192,
          "midi": 58,
          "name": "A#3",
          "ticks": 96000,
          "time": 83.33324999999999,
          "velocity": 0.4881889763779528
        },
        {
          "duration": 0.16666650000000516,
          "durationTicks": 192,
          "midi": 55,
          "name": "G3",
          "ticks": 96000,
          "time": 83.33324999999999,
          "velocity": 0.4881889763779528
        },
        {
          "duration": 0.16666649999999095,
          "durationTicks": 192,
          "midi": 53,
          "name": "F3",
          "ticks": 96384,
          "time": 83.666583,
          "velocity": 0.4881889763779528
        },
        {
          "duration": 0.16666649999999095,
          "durationTicks": 192,
          "midi": 56,
          "name": "G#3",
          "ticks": 96384,
          "time": 83.666583,
          "velocity": 0.4881889763779528
        },
        {
          "duration": 0.6666659999999922,
          "durationTicks": 768,
          "midi": 55,
          "name": "G3",
          "ticks": 96768,
          "time": 83.999916,
          "velocity": 0.4881889763779528
        },
        {
          "duration": 0.6666659999999922,
          "durationTicks": 768,
          "midi": 58,
          "name": "A#3",
          "ticks": 96768,
          "time": 83.999916,
          "velocity": 0.4881889763779528
        },
        {
          "duration": 0.6666660000000064,
          "durationTicks": 768,
          "midi": 60,
          "name": "C4",
          "ticks": 97536,
          "time": 84.66658199999999,
          "velocity": 0.4881889763779528
        },
        {
          "duration": 0.6666660000000064,
          "durationTicks": 768,
          "midi": 52,
          "name": "E3",
          "ticks": 97536,
          "time": 84.66658199999999,
          "velocity": 0.4881889763779528
        },
        {
          "duration": 0.08333324999999547,
          "durationTicks": 96,
          "midi": 56,
          "name": "G#3",
          "ticks": 98304,
          "time": 85.333248,
          "velocity": 0.4881889763779528
        },
        {
          "duration": 0.08333325000000968,
          "durationTicks": 96,
          "midi": 53,
          "name": "F3",
          "ticks": 98400,
          "time": 85.41658125,
          "velocity": 0.4881889763779528
        },
        {
          "duration": 0.08333324999999547,
          "durationTicks": 96,
          "midi": 49,
          "name": "C#3",
          "ticks": 98496,
          "time": 85.4999145,
          "velocity": 0.4881889763779528
        },
        {
          "duration": 0.08333324999999547,
          "durationTicks": 96,
          "midi": 53,
          "name": "F3",
          "ticks": 98592,
          "time": 85.58324775,
          "velocity": 0.4881889763779528
        },
        {
          "duration": 0.16666650000000516,
          "durationTicks": 192,
          "midi": 56,
          "name": "G#3",
          "ticks": 98688,
          "time": 85.666581,
          "velocity": 0.4881889763779528
        },
        {
          "duration": 0.16666650000000516,
          "durationTicks": 192,
          "midi": 58,
          "name": "A#3",
          "ticks": 98880,
          "time": 85.8332475,
          "velocity": 0.4881889763779528
        },
        {
          "duration": 0.16666649999999095,
          "durationTicks": 192,
          "midi": 60,
          "name": "C4",
          "ticks": 99072,
          "time": 85.999914,
          "velocity": 0.4881889763779528
        },
        {
          "duration": 0.16666649999999095,
          "durationTicks": 192,
          "midi": 56,
          "name": "G#3",
          "ticks": 99456,
          "time": 86.333247,
          "velocity": 0.4881889763779528
        },
        {
          "duration": 0.08333324999999547,
          "durationTicks": 96,
          "midi": 58,
          "name": "A#3",
          "ticks": 99840,
          "time": 86.66658,
          "velocity": 0.4881889763779528
        },
        {
          "duration": 0.08333325000000968,
          "durationTicks": 96,
          "midi": 55,
          "name": "G3",
          "ticks": 99936,
          "time": 86.74991324999999,
          "velocity": 0.4881889763779528
        },
        {
          "duration": 0.08333324999999547,
          "durationTicks": 96,
          "midi": 53,
          "name": "F3",
          "ticks": 100032,
          "time": 86.8332465,
          "velocity": 0.4881889763779528
        },
        {
          "duration": 0.08333324999999547,
          "durationTicks": 96,
          "midi": 55,
          "name": "G3",
          "ticks": 100128,
          "time": 86.91657975,
          "velocity": 0.4881889763779528
        },
        {
          "duration": 0.16666650000000516,
          "durationTicks": 192,
          "midi": 58,
          "name": "A#3",
          "ticks": 100224,
          "time": 86.99991299999999,
          "velocity": 0.4881889763779528
        },
        {
          "duration": 0.16666650000000516,
          "durationTicks": 192,
          "midi": 60,
          "name": "C4",
          "ticks": 100416,
          "time": 87.1665795,
          "velocity": 0.4881889763779528
        },
        {
          "duration": 0.16666649999999095,
          "durationTicks": 192,
          "midi": 55,
          "name": "G3",
          "ticks": 100608,
          "time": 87.333246,
          "velocity": 0.4881889763779528
        },
        {
          "duration": 0.08333325000000968,
          "durationTicks": 96,
          "midi": 56,
          "name": "G#3",
          "ticks": 100800,
          "time": 87.4999125,
          "velocity": 0.4881889763779528
        },
        {
          "duration": 0.08333324999999547,
          "durationTicks": 96,
          "midi": 55,
          "name": "G3",
          "ticks": 100896,
          "time": 87.58324575,
          "velocity": 0.4881889763779528
        },
        {
          "duration": 0.16666650000000516,
          "durationTicks": 192,
          "midi": 51,
          "name": "D#3",
          "ticks": 100992,
          "time": 87.666579,
          "velocity": 0.4881889763779528
        },
        {
          "duration": 0.16666649999999095,
          "durationTicks": 192,
          "midi": 55,
          "name": "G3",
          "ticks": 101184,
          "time": 87.8332455,
          "velocity": 0.4881889763779528
        },
        {
          "duration": 0.16666650000000516,
          "durationTicks": 192,
          "midi": 56,
          "name": "G#3",
          "ticks": 101376,
          "time": 87.999912,
          "velocity": 0.4881889763779528
        },
        {
          "duration": 0.16666649999999095,
          "durationTicks": 192,
          "midi": 51,
          "name": "D#3",
          "ticks": 101568,
          "time": 88.1665785,
          "velocity": 0.4881889763779528
        },
        {
          "duration": 0.16666650000000516,
          "durationTicks": 192,
          "midi": 56,
          "name": "G#3",
          "ticks": 101760,
          "time": 88.33324499999999,
          "velocity": 0.4881889763779528
        },
        {
          "duration": 0.16666650000000516,
          "durationTicks": 192,
          "midi": 58,
          "name": "A#3",
          "ticks": 101952,
          "time": 88.4999115,
          "velocity": 0.4881889763779528
        },
        {
          "duration": 0.16666649999999095,
          "durationTicks": 192,
          "midi": 60,
          "name": "C4",
          "ticks": 102144,
          "time": 88.666578,
          "velocity": 0.4881889763779528
        },
        {
          "duration": 0.16666650000000516,
          "durationTicks": 192,
          "midi": 56,
          "name": "G#3",
          "ticks": 102336,
          "time": 88.83324449999999,
          "velocity": 0.4881889763779528
        },
        {
          "duration": 0.16666650000000516,
          "durationTicks": 192,
          "midi": 60,
          "name": "C4",
          "ticks": 102528,
          "time": 88.999911,
          "velocity": 0.4881889763779528
        },
        {
          "duration": 0.16666649999999095,
          "durationTicks": 192,
          "midi": 63,
          "name": "D#4",
          "ticks": 102720,
          "time": 89.1665775,
          "velocity": 0.4881889763779528
        },
        {
          "duration": 0.16666650000000516,
          "durationTicks": 192,
          "midi": 67,
          "name": "G4",
          "ticks": 102912,
          "time": 89.333244,
          "velocity": 0.4881889763779528
        },
        {
          "duration": 0.08333324999999547,
          "durationTicks": 96,
          "midi": 55,
          "name": "G3",
          "ticks": 103104,
          "time": 89.4999105,
          "velocity": 0.4881889763779528
        },
        {
          "duration": 0.08333325000000968,
          "durationTicks": 96,
          "midi": 58,
          "name": "A#3",
          "ticks": 103200,
          "time": 89.58324375,
          "velocity": 0.4881889763779528
        },
        {
          "duration": 0.16666649999999095,
          "durationTicks": 192,
          "midi": 63,
          "name": "D#4",
          "ticks": 103296,
          "time": 89.666577,
          "velocity": 0.4881889763779528
        },
        {
          "duration": 0.08333325000000968,
          "durationTicks": 96,
          "midi": 55,
          "name": "G3",
          "ticks": 103488,
          "time": 89.8332435,
          "velocity": 0.4881889763779528
        },
        {
          "duration": 0.08333324999999547,
          "durationTicks": 96,
          "midi": 58,
          "name": "A#3",
          "ticks": 103584,
          "time": 89.91657675,
          "velocity": 0.4881889763779528
        },
        {
          "duration": 0.16666649999999095,
          "durationTicks": 192,
          "midi": 60,
          "name": "C4",
          "ticks": 103680,
          "time": 89.99991,
          "velocity": 0.4881889763779528
        },
        {
          "duration": 0.08333325000000968,
          "durationTicks": 96,
          "midi": 55,
          "name": "G3",
          "ticks": 103872,
          "time": 90.16657649999999,
          "velocity": 0.4881889763779528
        },
        {
          "duration": 0.08333324999999547,
          "durationTicks": 96,
          "midi": 58,
          "name": "A#3",
          "ticks": 103968,
          "time": 90.24990975,
          "velocity": 0.4881889763779528
        },
        {
          "duration": 0.16666650000000516,
          "durationTicks": 192,
          "midi": 63,
          "name": "D#4",
          "ticks": 104064,
          "time": 90.333243,
          "velocity": 0.4881889763779528
        },
        {
          "duration": 0.08333324999999547,
          "durationTicks": 96,
          "midi": 60,
          "name": "C4",
          "ticks": 104256,
          "time": 90.4999095,
          "velocity": 0.4881889763779528
        },
        {
          "duration": 0.08333324999999547,
          "durationTicks": 96,
          "midi": 63,
          "name": "D#4",
          "ticks": 104352,
          "time": 90.58324275,
          "velocity": 0.4881889763779528
        },
        {
          "duration": 0.16666650000000516,
          "durationTicks": 192,
          "midi": 65,
          "name": "F4",
          "ticks": 104448,
          "time": 90.66657599999999,
          "velocity": 0.4881889763779528
        },
        {
          "duration": 0.16666649999999095,
          "durationTicks": 192,
          "midi": 60,
          "name": "C4",
          "ticks": 104832,
          "time": 90.999909,
          "velocity": 0.4881889763779528
        },
        {
          "duration": 0.16666650000000516,
          "durationTicks": 192,
          "midi": 63,
          "name": "D#4",
          "ticks": 105024,
          "time": 91.1665755,
          "velocity": 0.4881889763779528
        },
        {
          "duration": 0.16666650000000516,
          "durationTicks": 192,
          "midi": 65,
          "name": "F4",
          "ticks": 105216,
          "time": 91.333242,
          "velocity": 0.4881889763779528
        },
        {
          "duration": 0.16666650000000516,
          "durationTicks": 192,
          "midi": 60,
          "name": "C4",
          "ticks": 105600,
          "time": 91.666575,
          "velocity": 0.4881889763779528
        },
        {
          "duration": 0.16666650000000516,
          "durationTicks": 192,
          "midi": 58,
          "name": "A#3",
          "ticks": 105984,
          "time": 91.99990799999999,
          "velocity": 0.4881889763779528
        },
        {
          "duration": 0.16666649999999095,
          "durationTicks": 192,
          "midi": 58,
          "name": "A#3",
          "ticks": 106368,
          "time": 92.333241,
          "velocity": 0.4881889763779528
        },
        {
          "duration": 0.16666650000000516,
          "durationTicks": 192,
          "midi": 60,
          "name": "C4",
          "ticks": 106560,
          "time": 92.49990749999999,
          "velocity": 0.4881889763779528
        },
        {
          "duration": 0.16666650000000516,
          "durationTicks": 192,
          "midi": 58,
          "name": "A#3",
          "ticks": 106752,
          "time": 92.666574,
          "velocity": 0.4881889763779528
        },
        {
          "duration": 0.08333324999999547,
          "durationTicks": 96,
          "midi": 49,
          "name": "C#3",
          "ticks": 106944,
          "time": 92.8332405,
          "velocity": 0.4881889763779528
        },
        {
          "duration": 0.08333324999999547,
          "durationTicks": 96,
          "midi": 51,
          "name": "D#3",
          "ticks": 107040,
          "time": 92.91657375,
          "velocity": 0.4881889763779528
        },
        {
          "duration": 0.08333325000000968,
          "durationTicks": 96,
          "midi": 56,
          "name": "G#3",
          "ticks": 107136,
          "time": 92.999907,
          "velocity": 0.4881889763779528
        },
        {
          "duration": 0.08333324999999547,
          "durationTicks": 96,
          "midi": 51,
          "name": "D#3",
          "ticks": 107232,
          "time": 93.08324025,
          "velocity": 0.4881889763779528
        },
        {
          "duration": 0.16666650000000516,
          "durationTicks": 192,
          "midi": 49,
          "name": "C#3",
          "ticks": 107328,
          "time": 93.1665735,
          "velocity": 0.4881889763779528
        },
        {
          "duration": 0.16666649999999095,
          "durationTicks": 192,
          "midi": 53,
          "name": "F3",
          "ticks": 107520,
          "time": 93.33324,
          "velocity": 0.4881889763779528
        },
        {
          "duration": 0.16666650000000516,
          "durationTicks": 192,
          "midi": 56,
          "name": "G#3",
          "ticks": 107712,
          "time": 93.4999065,
          "velocity": 0.4881889763779528
        },
        {
          "duration": 0.16666649999999095,
          "durationTicks": 192,
          "midi": 58,
          "name": "A#3",
          "ticks": 107904,
          "time": 93.666573,
          "velocity": 0.4881889763779528
        },
        {
          "duration": 0.16666650000000516,
          "durationTicks": 192,
          "midi": 60,
          "name": "C4",
          "ticks": 108096,
          "time": 93.83323949999999,
          "velocity": 0.4881889763779528
        },
        {
          "duration": 0.16666650000000516,
          "durationTicks": 192,
          "midi": 63,
          "name": "D#4",
          "ticks": 108288,
          "time": 93.999906,
          "velocity": 0.4881889763779528
        },
        {
          "duration": 0.16666649999999095,
          "durationTicks": 192,
          "midi": 60,
          "name": "C4",
          "ticks": 108480,
          "time": 94.1665725,
          "velocity": 0.4881889763779528
        },
        {
          "duration": 0.16666650000000516,
          "durationTicks": 192,
          "midi": 56,
          "name": "G#3",
          "ticks": 108672,
          "time": 94.33323899999999,
          "velocity": 0.4881889763779528
        },
        {
          "duration": 0.16666650000000516,
          "durationTicks": 192,
          "midi": 53,
          "name": "F3",
          "ticks": 108864,
          "time": 94.4999055,
          "velocity": 0.4881889763779528
        },
        {
          "duration": 0.08333324999999547,
          "durationTicks": 96,
          "midi": 58,
          "name": "A#3",
          "ticks": 109056,
          "time": 94.666572,
          "velocity": 0.4881889763779528
        },
        {
          "duration": 0.08333324999999547,
          "durationTicks": 96,
          "midi": 56,
          "name": "G#3",
          "ticks": 109152,
          "time": 94.74990525,
          "velocity": 0.4881889763779528
        },
        {
          "duration": 0.08333325000000968,
          "durationTicks": 96,
          "midi": 53,
          "name": "F3",
          "ticks": 109248,
          "time": 94.8332385,
          "velocity": 0.4881889763779528
        },
        {
          "duration": 0.08333324999999547,
          "durationTicks": 96,
          "midi": 48,
          "name": "C3",
          "ticks": 109344,
          "time": 94.91657175,
          "velocity": 0.4881889763779528
        },
        {
          "duration": 0.08333324999999547,
          "durationTicks": 96,
          "midi": 58,
          "name": "A#3",
          "ticks": 109440,
          "time": 94.999905,
          "velocity": 0.4881889763779528
        },
        {
          "duration": 0.08333325000000968,
          "durationTicks": 96,
          "midi": 56,
          "name": "G#3",
          "ticks": 109536,
          "time": 95.08323825,
          "velocity": 0.4881889763779528
        },
        {
          "duration": 0.08333324999999547,
          "durationTicks": 96,
          "midi": 53,
          "name": "F3",
          "ticks": 109632,
          "time": 95.1665715,
          "velocity": 0.4881889763779528
        },
        {
          "duration": 0.08333324999999547,
          "durationTicks": 96,
          "midi": 48,
          "name": "C3",
          "ticks": 109728,
          "time": 95.24990475,
          "velocity": 0.4881889763779528
        },
        {
          "duration": 0.08333325000000968,
          "durationTicks": 96,
          "midi": 60,
          "name": "C4",
          "ticks": 109824,
          "time": 95.333238,
          "velocity": 0.4881889763779528
        },
        {
          "duration": 0.08333324999999547,
          "durationTicks": 96,
          "midi": 55,
          "name": "G3",
          "ticks": 109920,
          "time": 95.41657125,
          "velocity": 0.4881889763779528
        },
        {
          "duration": 0.08333324999999547,
          "durationTicks": 96,
          "midi": 52,
          "name": "E3",
          "ticks": 110016,
          "time": 95.4999045,
          "velocity": 0.4881889763779528
        },
        {
          "duration": 0.08333324999999547,
          "durationTicks": 96,
          "midi": 48,
          "name": "C3",
          "ticks": 110112,
          "time": 95.58323775,
          "velocity": 0.4881889763779528
        },
        {
          "duration": 0.08333325000000968,
          "durationTicks": 96,
          "midi": 60,
          "name": "C4",
          "ticks": 110208,
          "time": 95.66657099999999,
          "velocity": 0.4881889763779528
        },
        {
          "duration": 0.08333324999999547,
          "durationTicks": 96,
          "midi": 55,
          "name": "G3",
          "ticks": 110304,
          "time": 95.74990425,
          "velocity": 0.4881889763779528
        },
        {
          "duration": 0.08333324999999547,
          "durationTicks": 96,
          "midi": 52,
          "name": "E3",
          "ticks": 110400,
          "time": 95.8332375,
          "velocity": 0.4881889763779528
        },
        {
          "duration": 0.08333325000000968,
          "durationTicks": 96,
          "midi": 48,
          "name": "C3",
          "ticks": 110496,
          "time": 95.91657074999999,
          "velocity": 0.4881889763779528
        },
        {
          "duration": 0.08333324999999547,
          "durationTicks": 96,
          "midi": 56,
          "name": "G#3",
          "ticks": 110592,
          "time": 95.999904,
          "velocity": 0.4881889763779528
        },
        {
          "duration": 0.08333324999999547,
          "durationTicks": 96,
          "midi": 53,
          "name": "F3",
          "ticks": 110688,
          "time": 96.08323725,
          "velocity": 0.4881889763779528
        },
        {
          "duration": 0.08333325000000968,
          "durationTicks": 96,
          "midi": 49,
          "name": "C#3",
          "ticks": 110784,
          "time": 96.16657049999999,
          "velocity": 0.4881889763779528
        },
        {
          "duration": 0.08333324999999547,
          "durationTicks": 96,
          "midi": 53,
          "name": "F3",
          "ticks": 110880,
          "time": 96.24990375,
          "velocity": 0.4881889763779528
        },
        {
          "duration": 0.16666650000000516,
          "durationTicks": 192,
          "midi": 56,
          "name": "G#3",
          "ticks": 110976,
          "time": 96.333237,
          "velocity": 0.4881889763779528
        },
        {
          "duration": 0.16666649999999095,
          "durationTicks": 192,
          "midi": 58,
          "name": "A#3",
          "ticks": 111168,
          "time": 96.4999035,
          "velocity": 0.4881889763779528
        },
        {
          "duration": 0.16666650000000516,
          "durationTicks": 192,
          "midi": 60,
          "name": "C4",
          "ticks": 111360,
          "time": 96.66657,
          "velocity": 0.4881889763779528
        },
        {
          "duration": 0.16666649999999095,
          "durationTicks": 192,
          "midi": 56,
          "name": "G#3",
          "ticks": 111744,
          "time": 96.999903,
          "velocity": 0.4881889763779528
        },
        {
          "duration": 0.08333324999999547,
          "durationTicks": 96,
          "midi": 58,
          "name": "A#3",
          "ticks": 112128,
          "time": 97.333236,
          "velocity": 0.4881889763779528
        },
        {
          "duration": 0.08333324999999547,
          "durationTicks": 96,
          "midi": 55,
          "name": "G3",
          "ticks": 112224,
          "time": 97.41656925,
          "velocity": 0.4881889763779528
        },
        {
          "duration": 0.08333325000000968,
          "durationTicks": 96,
          "midi": 53,
          "name": "F3",
          "ticks": 112320,
          "time": 97.49990249999999,
          "velocity": 0.4881889763779528
        },
        {
          "duration": 0.08333324999999547,
          "durationTicks": 96,
          "midi": 55,
          "name": "G3",
          "ticks": 112416,
          "time": 97.58323575,
          "velocity": 0.4881889763779528
        },
        {
          "duration": 0.16666650000000516,
          "durationTicks": 192,
          "midi": 58,
          "name": "A#3",
          "ticks": 112512,
          "time": 97.666569,
          "velocity": 0.4881889763779528
        },
        {
          "duration": 0.16666649999999095,
          "durationTicks": 192,
          "midi": 60,
          "name": "C4",
          "ticks": 112704,
          "time": 97.8332355,
          "velocity": 0.4881889763779528
        },
        {
          "duration": 0.16666650000000516,
          "durationTicks": 192,
          "midi": 55,
          "name": "G3",
          "ticks": 112896,
          "time": 97.99990199999999,
          "velocity": 0.4881889763779528
        },
        {
          "duration": 0.08333324999999547,
          "durationTicks": 96,
          "midi": 56,
          "name": "G#3",
          "ticks": 113088,
          "time": 98.1665685,
          "velocity": 0.4881889763779528
        },
        {
          "duration": 0.08333325000000968,
          "durationTicks": 96,
          "midi": 55,
          "name": "G3",
          "ticks": 113184,
          "time": 98.24990174999999,
          "velocity": 0.4881889763779528
        },
        {
          "duration": 0.16666649999999095,
          "durationTicks": 192,
          "midi": 51,
          "name": "D#3",
          "ticks": 113280,
          "time": 98.333235,
          "velocity": 0.4881889763779528
        },
        {
          "duration": 0.16666650000000516,
          "durationTicks": 192,
          "midi": 55,
          "name": "G3",
          "ticks": 113472,
          "time": 98.49990149999999,
          "velocity": 0.4881889763779528
        },
        {
          "duration": 0.16666650000000516,
          "durationTicks": 192,
          "midi": 56,
          "name": "G#3",
          "ticks": 113664,
          "time": 98.666568,
          "velocity": 0.4881889763779528
        },
        {
          "duration": 0.16666649999999095,
          "durationTicks": 192,
          "midi": 51,
          "name": "D#3",
          "ticks": 113856,
          "time": 98.8332345,
          "velocity": 0.4881889763779528
        },
        {
          "duration": 0.16666650000000516,
          "durationTicks": 192,
          "midi": 56,
          "name": "G#3",
          "ticks": 114048,
          "time": 98.999901,
          "velocity": 0.4881889763779528
        },
        {
          "duration": 0.16666649999999095,
          "durationTicks": 192,
          "midi": 58,
          "name": "A#3",
          "ticks": 114240,
          "time": 99.1665675,
          "velocity": 0.4881889763779528
        },
        {
          "duration": 0.16666650000000516,
          "durationTicks": 192,
          "midi": 60,
          "name": "C4",
          "ticks": 114432,
          "time": 99.33323399999999,
          "velocity": 0.4881889763779528
        },
        {
          "duration": 0.16666650000000516,
          "durationTicks": 192,
          "midi": 56,
          "name": "G#3",
          "ticks": 114624,
          "time": 99.4999005,
          "velocity": 0.4881889763779528
        },
        {
          "duration": 0.16666649999999095,
          "durationTicks": 192,
          "midi": 60,
          "name": "C4",
          "ticks": 114816,
          "time": 99.666567,
          "velocity": 0.4881889763779528
        },
        {
          "duration": 0.16666650000000516,
          "durationTicks": 192,
          "midi": 63,
          "name": "D#4",
          "ticks": 115008,
          "time": 99.83323349999999,
          "velocity": 0.4881889763779528
        },
        {
          "duration": 0.16666650000000516,
          "durationTicks": 192,
          "midi": 67,
          "name": "G4",
          "ticks": 115200,
          "time": 99.9999,
          "velocity": 0.4881889763779528
        },
        {
          "duration": 0.08333324999999547,
          "durationTicks": 96,
          "midi": 55,
          "name": "G3",
          "ticks": 115392,
          "time": 100.1665665,
          "velocity": 0.4881889763779528
        },
        {
          "duration": 0.08333324999999547,
          "durationTicks": 96,
          "midi": 58,
          "name": "A#3",
          "ticks": 115488,
          "time": 100.24989975,
          "velocity": 0.4881889763779528
        },
        {
          "duration": 0.16666650000000516,
          "durationTicks": 192,
          "midi": 63,
          "name": "D#4",
          "ticks": 115584,
          "time": 100.33323299999999,
          "velocity": 0.4881889763779528
        },
        {
          "duration": 0.08333324999999547,
          "durationTicks": 96,
          "midi": 55,
          "name": "G3",
          "ticks": 115776,
          "time": 100.4998995,
          "velocity": 0.4881889763779528
        },
        {
          "duration": 0.08333325000000968,
          "durationTicks": 96,
          "midi": 58,
          "name": "A#3",
          "ticks": 115872,
          "time": 100.58323275,
          "velocity": 0.4881889763779528
        },
        {
          "duration": 0.16666649999999095,
          "durationTicks": 192,
          "midi": 60,
          "name": "C4",
          "ticks": 115968,
          "time": 100.666566,
          "velocity": 0.4881889763779528
        },
        {
          "duration": 0.08333325000000968,
          "durationTicks": 96,
          "midi": 55,
          "name": "G3",
          "ticks": 116160,
          "time": 100.8332325,
          "velocity": 0.4881889763779528
        },
        {
          "duration": 0.08333324999999547,
          "durationTicks": 96,
          "midi": 58,
          "name": "A#3",
          "ticks": 116256,
          "time": 100.91656575,
          "velocity": 0.4881889763779528
        },
        {
          "duration": 0.16666649999999095,
          "durationTicks": 192,
          "midi": 63,
          "name": "D#4",
          "ticks": 116352,
          "time": 100.999899,
          "velocity": 0.4881889763779528
        },
        {
          "duration": 0.08333325000000968,
          "durationTicks": 96,
          "midi": 60,
          "name": "C4",
          "ticks": 116544,
          "time": 101.16656549999999,
          "velocity": 0.4881889763779528
        },
        {
          "duration": 0.08333324999999547,
          "durationTicks": 96,
          "midi": 63,
          "name": "D#4",
          "ticks": 116640,
          "time": 101.24989875,
          "velocity": 0.4881889763779528
        },
        {
          "duration": 0.16666650000000516,
          "durationTicks": 192,
          "midi": 65,
          "name": "F4",
          "ticks": 116736,
          "time": 101.333232,
          "velocity": 0.4881889763779528
        },
        {
          "duration": 0.16666650000000516,
          "durationTicks": 192,
          "midi": 60,
          "name": "C4",
          "ticks": 117120,
          "time": 101.66656499999999,
          "velocity": 0.4881889763779528
        },
        {
          "duration": 0.16666650000000516,
          "durationTicks": 192,
          "midi": 63,
          "name": "D#4",
          "ticks": 117312,
          "time": 101.8332315,
          "velocity": 0.4881889763779528
        },
        {
          "duration": 0.16666649999999095,
          "durationTicks": 192,
          "midi": 65,
          "name": "F4",
          "ticks": 117504,
          "time": 101.999898,
          "velocity": 0.4881889763779528
        },
        {
          "duration": 0.16666650000000516,
          "durationTicks": 192,
          "midi": 60,
          "name": "C4",
          "ticks": 117888,
          "time": 102.333231,
          "velocity": 0.4881889763779528
        },
        {
          "duration": 0.16666650000000516,
          "durationTicks": 192,
          "midi": 58,
          "name": "A#3",
          "ticks": 118272,
          "time": 102.666564,
          "velocity": 0.4881889763779528
        },
        {
          "duration": 0.16666650000000516,
          "durationTicks": 192,
          "midi": 58,
          "name": "A#3",
          "ticks": 118656,
          "time": 102.99989699999999,
          "velocity": 0.4881889763779528
        },
        {
          "duration": 0.16666650000000516,
          "durationTicks": 192,
          "midi": 60,
          "name": "C4",
          "ticks": 118848,
          "time": 103.1665635,
          "velocity": 0.4881889763779528
        },
        {
          "duration": 0.16666649999999095,
          "durationTicks": 192,
          "midi": 58,
          "name": "A#3",
          "ticks": 119040,
          "time": 103.33323,
          "velocity": 0.4881889763779528
        },
        {
          "duration": 0.08333325000000968,
          "durationTicks": 96,
          "midi": 49,
          "name": "C#3",
          "ticks": 119232,
          "time": 103.49989649999999,
          "velocity": 0.4881889763779528
        },
        {
          "duration": 0.08333324999999547,
          "durationTicks": 96,
          "midi": 51,
          "name": "D#3",
          "ticks": 119328,
          "time": 103.58322975,
          "velocity": 0.4881889763779528
        },
        {
          "duration": 0.08333324999999547,
          "durationTicks": 96,
          "midi": 56,
          "name": "G#3",
          "ticks": 119424,
          "time": 103.666563,
          "velocity": 0.4881889763779528
        },
        {
          "duration": 0.08333325000000968,
          "durationTicks": 96,
          "midi": 51,
          "name": "D#3",
          "ticks": 119520,
          "time": 103.74989624999999,
          "velocity": 0.4881889763779528
        },
        {
          "duration": 0.16666649999999095,
          "durationTicks": 192,
          "midi": 49,
          "name": "C#3",
          "ticks": 119616,
          "time": 103.8332295,
          "velocity": 0.4881889763779528
        },
        {
          "duration": 0.16666650000000516,
          "durationTicks": 192,
          "midi": 53,
          "name": "F3",
          "ticks": 119808,
          "time": 103.99989599999999,
          "velocity": 0.4881889763779528
        },
        {
          "duration": 0.16666650000000516,
          "durationTicks": 192,
          "midi": 56,
          "name": "G#3",
          "ticks": 120000,
          "time": 104.1665625,
          "velocity": 0.4881889763779528
        },
        {
          "duration": 0.16666649999999095,
          "durationTicks": 192,
          "midi": 58,
          "name": "A#3",
          "ticks": 120192,
          "time": 104.333229,
          "velocity": 0.4881889763779528
        },
        {
          "duration": 0.16666650000000516,
          "durationTicks": 192,
          "midi": 60,
          "name": "C4",
          "ticks": 120384,
          "time": 104.4998955,
          "velocity": 0.4881889763779528
        },
        {
          "duration": 0.16666649999999095,
          "durationTicks": 192,
          "midi": 63,
          "name": "D#4",
          "ticks": 120576,
          "time": 104.666562,
          "velocity": 0.4881889763779528
        },
        {
          "duration": 0.16666650000000516,
          "durationTicks": 192,
          "midi": 60,
          "name": "C4",
          "ticks": 120768,
          "time": 104.83322849999999,
          "velocity": 0.4881889763779528
        },
        {
          "duration": 0.16666650000000516,
          "durationTicks": 192,
          "midi": 56,
          "name": "G#3",
          "ticks": 120960,
          "time": 104.999895,
          "velocity": 0.4881889763779528
        },
        {
          "duration": 0.16666649999999095,
          "durationTicks": 192,
          "midi": 53,
          "name": "F3",
          "ticks": 121152,
          "time": 105.1665615,
          "velocity": 0.4881889763779528
        },
        {
          "duration": 0.08333325000000968,
          "durationTicks": 96,
          "midi": 58,
          "name": "A#3",
          "ticks": 121344,
          "time": 105.33322799999999,
          "velocity": 0.4881889763779528
        },
        {
          "duration": 0.08333324999999547,
          "durationTicks": 96,
          "midi": 56,
          "name": "G#3",
          "ticks": 121440,
          "time": 105.41656125,
          "velocity": 0.4881889763779528
        },
        {
          "duration": 0.08333324999999547,
          "durationTicks": 96,
          "midi": 53,
          "name": "F3",
          "ticks": 121536,
          "time": 105.4998945,
          "velocity": 0.4881889763779528
        },
        {
          "duration": 0.08333325000000968,
          "durationTicks": 96,
          "midi": 48,
          "name": "C3",
          "ticks": 121632,
          "time": 105.58322774999999,
          "velocity": 0.4881889763779528
        },
        {
          "duration": 0.08333324999999547,
          "durationTicks": 96,
          "midi": 58,
          "name": "A#3",
          "ticks": 121728,
          "time": 105.666561,
          "velocity": 0.4881889763779528
        },
        {
          "duration": 0.08333324999999547,
          "durationTicks": 96,
          "midi": 56,
          "name": "G#3",
          "ticks": 121824,
          "time": 105.74989425,
          "velocity": 0.4881889763779528
        },
        {
          "duration": 0.08333325000000968,
          "durationTicks": 96,
          "midi": 53,
          "name": "F3",
          "ticks": 121920,
          "time": 105.83322749999999,
          "velocity": 0.4881889763779528
        },
        {
          "duration": 0.08333324999999547,
          "durationTicks": 96,
          "midi": 48,
          "name": "C3",
          "ticks": 122016,
          "time": 105.91656075,
          "velocity": 0.4881889763779528
        },
        {
          "duration": 0.08333324999999547,
          "durationTicks": 96,
          "midi": 60,
          "name": "C4",
          "ticks": 122112,
          "time": 105.999894,
          "velocity": 0.4881889763779528
        },
        {
          "duration": 0.08333325000000968,
          "durationTicks": 96,
          "midi": 55,
          "name": "G3",
          "ticks": 122208,
          "time": 106.08322725,
          "velocity": 0.4881889763779528
        },
        {
          "duration": 0.08333324999999547,
          "durationTicks": 96,
          "midi": 52,
          "name": "E3",
          "ticks": 122304,
          "time": 106.1665605,
          "velocity": 0.4881889763779528
        },
        {
          "duration": 0.08333324999999547,
          "durationTicks": 96,
          "midi": 48,
          "name": "C3",
          "ticks": 122400,
          "time": 106.24989375,
          "velocity": 0.4881889763779528
        },
        {
          "duration": 0.08333325000000968,
          "durationTicks": 96,
          "midi": 60,
          "name": "C4",
          "ticks": 122496,
          "time": 106.333227,
          "velocity": 0.4881889763779528
        },
        {
          "duration": 0.08333324999999547,
          "durationTicks": 96,
          "midi": 55,
          "name": "G3",
          "ticks": 122592,
          "time": 106.41656025,
          "velocity": 0.4881889763779528
        },
        {
          "duration": 0.08333324999999547,
          "durationTicks": 96,
          "midi": 52,
          "name": "E3",
          "ticks": 122688,
          "time": 106.4998935,
          "velocity": 0.4881889763779528
        },
        {
          "duration": 0.08333325000000968,
          "durationTicks": 96,
          "midi": 48,
          "name": "C3",
          "ticks": 122784,
          "time": 106.58322675,
          "velocity": 0.4881889763779528
        }
      ],
      "endOfTrackTicks": 122880
    },
    {
      "channel": 4,
      "controlChanges": {},
      "pitchBends": [],
      "instrument": {
        "family": "synth lead",
        "number": 87,
        "name": "lead 8 (bass + lead)"
      },
      "name": "8-Bit Triangle",
      "notes": [
        {
          "duration": 0.16666649999999805,
          "durationTicks": 192,
          "midi": 69,
          "name": "A4",
          "ticks": 70656,
          "time": 61.333272,
          "velocity": 0.3937007874015748
        },
        {
          "duration": 0.16666649999999805,
          "durationTicks": 192,
          "midi": 69,
          "name": "A4",
          "ticks": 71040,
          "time": 61.666605,
          "velocity": 0.3937007874015748
        },
        {
          "duration": 0.16666650000000516,
          "durationTicks": 192,
          "midi": 70,
          "name": "A#4",
          "ticks": 71232,
          "time": 61.833271499999995,
          "velocity": 0.3937007874015748
        },
        {
          "duration": 0.16666649999999805,
          "durationTicks": 192,
          "midi": 72,
          "name": "C5",
          "ticks": 71424,
          "time": 61.999938,
          "velocity": 0.3937007874015748
        },
        {
          "duration": 0.16666650000000516,
          "durationTicks": 192,
          "midi": 77,
          "name": "F5",
          "ticks": 71808,
          "time": 62.333270999999996,
          "velocity": 0.3937007874015748
        },
        {
          "duration": 0.6666659999999993,
          "durationTicks": 768,
          "midi": 74,
          "name": "D5",
          "ticks": 72192,
          "time": 62.666604,
          "velocity": 0.3937007874015748
        },
        {
          "duration": 0.08333325000000258,
          "durationTicks": 96,
          "midi": 72,
          "name": "C5",
          "ticks": 72960,
          "time": 63.33327,
          "velocity": 0.3937007874015748
        },
        {
          "duration": 0.08333325000000258,
          "durationTicks": 96,
          "midi": 72,
          "name": "C5",
          "ticks": 73152,
          "time": 63.4999365,
          "velocity": 0.3937007874015748
        },
        {
          "duration": 0.08333325000000258,
          "durationTicks": 96,
          "midi": 72,
          "name": "C5",
          "ticks": 73344,
          "time": 63.666602999999995,
          "velocity": 0.3937007874015748
        },
        {
          "duration": 0.08333324999999547,
          "durationTicks": 96,
          "midi": 72,
          "name": "C5",
          "ticks": 73536,
          "time": 63.8332695,
          "velocity": 0.3937007874015748
        }
      ],
      "endOfTrackTicks": 73632
    },
    {
      "channel": 5,
      "controlChanges": {},
      "pitchBends": [],
      "instrument": {
        "family": "chromatic percussion",
        "number": 13,
        "name": "xylophone"
      },
      "name": "Xylophone",
      "notes": [
        {
          "duration": 0.08333325000000258,
          "durationTicks": 96,
          "midi": 77,
          "name": "F5",
          "ticks": 49152,
          "time": 42.666624,
          "velocity": 0.1968503937007874
        },
        {
          "duration": 0.08333324999999547,
          "durationTicks": 96,
          "midi": 84,
          "name": "C6",
          "ticks": 49536,
          "time": 42.999957,
          "velocity": 0.1968503937007874
        },
        {
          "duration": 0.08333325000000258,
          "durationTicks": 96,
          "midi": 82,
          "name": "A#5",
          "ticks": 49920,
          "time": 43.33329,
          "velocity": 0.1968503937007874
        },
        {
          "duration": 0.08333324999999547,
          "durationTicks": 96,
          "midi": 77,
          "name": "F5",
          "ticks": 50304,
          "time": 43.666623,
          "velocity": 0.1968503937007874
        },
        {
          "duration": 0.08333325000000258,
          "durationTicks": 96,
          "midi": 79,
          "name": "G5",
          "ticks": 50688,
          "time": 43.999956,
          "velocity": 0.1968503937007874
        },
        {
          "duration": 0.08333325000000258,
          "durationTicks": 96,
          "midi": 79,
          "name": "G5",
          "ticks": 51264,
          "time": 44.4999555,
          "velocity": 0.1968503937007874
        },
        {
          "duration": 0.08333324999999547,
          "durationTicks": 96,
          "midi": 80,
          "name": "G#5",
          "ticks": 51840,
          "time": 44.999955,
          "velocity": 0.1968503937007874
        },
        {
          "duration": 0.08333325000000258,
          "durationTicks": 96,
          "midi": 75,
          "name": "D#5",
          "ticks": 52224,
          "time": 45.333287999999996,
          "velocity": 0.1968503937007874
        },
        {
          "duration": 0.08333325000000258,
          "durationTicks": 96,
          "midi": 84,
          "name": "C6",
          "ticks": 52608,
          "time": 45.666621,
          "velocity": 0.1968503937007874
        },
        {
          "duration": 0.08333325000000258,
          "durationTicks": 96,
          "midi": 82,
          "name": "A#5",
          "ticks": 52992,
          "time": 45.999953999999995,
          "velocity": 0.1968503937007874
        },
        {
          "duration": 0.08333325000000258,
          "durationTicks": 96,
          "midi": 77,
          "name": "F5",
          "ticks": 53376,
          "time": 46.333287,
          "velocity": 0.1968503937007874
        },
        {
          "duration": 0.08333324999999547,
          "durationTicks": 96,
          "midi": 79,
          "name": "G5",
          "ticks": 53760,
          "time": 46.66662,
          "velocity": 0.1968503937007874
        },
        {
          "duration": 0.08333325000000258,
          "durationTicks": 96,
          "midi": 79,
          "name": "G5",
          "ticks": 54336,
          "time": 47.166619499999996,
          "velocity": 0.1968503937007874
        },
        {
          "duration": 0.08333325000000258,
          "durationTicks": 96,
          "midi": 80,
          "name": "G#5",
          "ticks": 54912,
          "time": 47.666619,
          "velocity": 0.1968503937007874
        },
        {
          "duration": 0.08333324999999547,
          "durationTicks": 96,
          "midi": 77,
          "name": "F5",
          "ticks": 55296,
          "time": 47.999952,
          "velocity": 0.1968503937007874
        },
        {
          "duration": 0.08333325000000258,
          "durationTicks": 96,
          "midi": 84,
          "name": "C6",
          "ticks": 55680,
          "time": 48.333285,
          "velocity": 0.1968503937007874
        },
        {
          "duration": 0.08333324999999547,
          "durationTicks": 96,
          "midi": 82,
          "name": "A#5",
          "ticks": 56064,
          "time": 48.666618,
          "velocity": 0.1968503937007874
        },
        {
          "duration": 0.08333325000000258,
          "durationTicks": 96,
          "midi": 77,
          "name": "F5",
          "ticks": 56448,
          "time": 48.999950999999996,
          "velocity": 0.1968503937007874
        },
        {
          "duration": 0.08333325000000258,
          "durationTicks": 96,
          "midi": 79,
          "name": "G5",
          "ticks": 56832,
          "time": 49.333284,
          "velocity": 0.1968503937007874
        },
        {
          "duration": 0.08333324999999547,
          "durationTicks": 96,
          "midi": 79,
          "name": "G5",
          "ticks": 57408,
          "time": 49.8332835,
          "velocity": 0.1968503937007874
        },
        {
          "duration": 0.08333324999999547,
          "durationTicks": 96,
          "midi": 80,
          "name": "G#5",
          "ticks": 57984,
          "time": 50.333283,
          "velocity": 0.1968503937007874
        },
        {
          "duration": 0.08333325000000258,
          "durationTicks": 96,
          "midi": 82,
          "name": "A#5",
          "ticks": 58368,
          "time": 50.666616,
          "velocity": 0.1968503937007874
        },
        {
          "duration": 0.08333324999999547,
          "durationTicks": 96,
          "midi": 84,
          "name": "C6",
          "ticks": 58752,
          "time": 50.999949,
          "velocity": 0.1968503937007874
        },
        {
          "duration": 0.08333325000000258,
          "durationTicks": 96,
          "midi": 82,
          "name": "A#5",
          "ticks": 59136,
          "time": 51.333282,
          "velocity": 0.1968503937007874
        },
        {
          "duration": 0.08333324999999547,
          "durationTicks": 96,
          "midi": 77,
          "name": "F5",
          "ticks": 59520,
          "time": 51.666615,
          "velocity": 0.1968503937007874
        },
        {
          "duration": 0.08333325000000258,
          "durationTicks": 96,
          "midi": 81,
          "name": "A5",
          "ticks": 59904,
          "time": 51.999947999999996,
          "velocity": 0.1968503937007874
        },
        {
          "duration": 0.08333325000000258,
          "durationTicks": 96,
          "midi": 76,
          "name": "E5",
          "ticks": 59904,
          "time": 51.999947999999996,
          "velocity": 0.1968503937007874
        },
        {
          "duration": 0.08333325000000258,
          "durationTicks": 96,
          "midi": 76,
          "name": "E5",
          "ticks": 60480,
          "time": 52.4999475,
          "velocity": 0.1968503937007874
        },
        {
          "duration": 0.08333325000000258,
          "durationTicks": 96,
          "midi": 81,
          "name": "A5",
          "ticks": 60480,
          "time": 52.4999475,
          "velocity": 0.1968503937007874
        },
        {
          "duration": 0.08333325000000258,
          "durationTicks": 96,
          "midi": 77,
          "name": "F5",
          "ticks": 61056,
          "time": 52.999947,
          "velocity": 0.1968503937007874
        },
        {
          "duration": 0.08333324999999547,
          "durationTicks": 96,
          "midi": 77,
          "name": "F5",
          "ticks": 61440,
          "time": 53.33328,
          "velocity": 0.1968503937007874
        },
        {
          "duration": 0.08333324999999547,
          "durationTicks": 96,
          "midi": 80,
          "name": "G#5",
          "ticks": 61440,
          "time": 53.33328,
          "velocity": 0.1968503937007874
        },
        {
          "duration": 0.08333325000000258,
          "durationTicks": 96,
          "midi": 79,
          "name": "G5",
          "ticks": 61824,
          "time": 53.666613,
          "velocity": 0.1968503937007874
        },
        {
          "duration": 0.08333325000000258,
          "durationTicks": 96,
          "midi": 84,
          "name": "C6",
          "ticks": 61824,
          "time": 53.666613,
          "velocity": 0.1968503937007874
        },
        {
          "duration": 0.08333324999999547,
          "durationTicks": 96,
          "midi": 77,
          "name": "F5",
          "ticks": 62208,
          "time": 53.999946,
          "velocity": 0.1968503937007874
        },
        {
          "duration": 0.08333324999999547,
          "durationTicks": 96,
          "midi": 82,
          "name": "A#5",
          "ticks": 62208,
          "time": 53.999946,
          "velocity": 0.1968503937007874
        },
        {
          "duration": 0.08333325000000258,
          "durationTicks": 96,
          "midi": 77,
          "name": "F5",
          "ticks": 62592,
          "time": 54.333279,
          "velocity": 0.1968503937007874
        },
        {
          "duration": 0.08333325000000258,
          "durationTicks": 96,
          "midi": 72,
          "name": "C5",
          "ticks": 62592,
          "time": 54.333279,
          "velocity": 0.1968503937007874
        },
        {
          "duration": 0.08333324999999547,
          "durationTicks": 96,
          "midi": 80,
          "name": "G#5",
          "ticks": 62976,
          "time": 54.666612,
          "velocity": 0.1968503937007874
        },
        {
          "duration": 0.08333324999999547,
          "durationTicks": 96,
          "midi": 77,
          "name": "F5",
          "ticks": 62976,
          "time": 54.666612,
          "velocity": 0.1968503937007874
        },
        {
          "duration": 0.08333324999999547,
          "durationTicks": 96,
          "midi": 79,
          "name": "G5",
          "ticks": 63552,
          "time": 55.1666115,
          "velocity": 0.1968503937007874
        },
        {
          "duration": 0.08333325000000258,
          "durationTicks": 96,
          "midi": 80,
          "name": "G#5",
          "ticks": 64128,
          "time": 55.666610999999996,
          "velocity": 0.1968503937007874
        },
        {
          "duration": 0.08333325000000258,
          "durationTicks": 96,
          "midi": 84,
          "name": "C6",
          "ticks": 64512,
          "time": 55.999944,
          "velocity": 0.1968503937007874
        },
        {
          "duration": 0.08333325000000258,
          "durationTicks": 96,
          "midi": 77,
          "name": "F5",
          "ticks": 64512,
          "time": 55.999944,
          "velocity": 0.1968503937007874
        },
        {
          "duration": 0.08333325000000258,
          "durationTicks": 96,
          "midi": 84,
          "name": "C6",
          "ticks": 64896,
          "time": 56.333276999999995,
          "velocity": 0.1968503937007874
        },
        {
          "duration": 0.08333325000000258,
          "durationTicks": 96,
          "midi": 79,
          "name": "G5",
          "ticks": 64896,
          "time": 56.333276999999995,
          "velocity": 0.1968503937007874
        },
        {
          "duration": 0.08333325000000258,
          "durationTicks": 96,
          "midi": 77,
          "name": "F5",
          "ticks": 65280,
          "time": 56.66661,
          "velocity": 0.1968503937007874
        },
        {
          "duration": 0.08333325000000258,
          "durationTicks": 96,
          "midi": 82,
          "name": "A#5",
          "ticks": 65280,
          "time": 56.66661,
          "velocity": 0.1968503937007874
        },
        {
          "duration": 0.08333324999999547,
          "durationTicks": 96,
          "midi": 77,
          "name": "F5",
          "ticks": 65664,
          "time": 56.999943,
          "velocity": 0.1968503937007874
        },
        {
          "duration": 0.08333324999999547,
          "durationTicks": 96,
          "midi": 72,
          "name": "C5",
          "ticks": 65664,
          "time": 56.999943,
          "velocity": 0.1968503937007874
        },
        {
          "duration": 0.08333325000000258,
          "durationTicks": 96,
          "midi": 79,
          "name": "G5",
          "ticks": 66048,
          "time": 57.333276,
          "velocity": 0.1968503937007874
        },
        {
          "duration": 0.08333325000000258,
          "durationTicks": 96,
          "midi": 82,
          "name": "A#5",
          "ticks": 66048,
          "time": 57.333276,
          "velocity": 0.1968503937007874
        },
        {
          "duration": 0.08333325000000258,
          "durationTicks": 96,
          "midi": 79,
          "name": "G5",
          "ticks": 66624,
          "time": 57.8332755,
          "velocity": 0.1968503937007874
        },
        {
          "duration": 0.08333324999999547,
          "durationTicks": 96,
          "midi": 80,
          "name": "G#5",
          "ticks": 67200,
          "time": 58.333275,
          "velocity": 0.1968503937007874
        },
        {
          "duration": 0.08333325000000258,
          "durationTicks": 96,
          "midi": 77,
          "name": "F5",
          "ticks": 67584,
          "time": 58.666608,
          "velocity": 0.1968503937007874
        },
        {
          "duration": 0.08333325000000258,
          "durationTicks": 96,
          "midi": 84,
          "name": "C6",
          "ticks": 67584,
          "time": 58.666608,
          "velocity": 0.1968503937007874
        },
        {
          "duration": 0.08333324999999547,
          "durationTicks": 96,
          "midi": 79,
          "name": "G5",
          "ticks": 67968,
          "time": 58.999941,
          "velocity": 0.1968503937007874
        },
        {
          "duration": 0.08333324999999547,
          "durationTicks": 96,
          "midi": 84,
          "name": "C6",
          "ticks": 67968,
          "time": 58.999941,
          "velocity": 0.1968503937007874
        },
        {
          "duration": 0.08333325000000258,
          "durationTicks": 96,
          "midi": 77,
          "name": "F5",
          "ticks": 68352,
          "time": 59.333273999999996,
          "velocity": 0.1968503937007874
        },
        {
          "duration": 0.08333325000000258,
          "durationTicks": 96,
          "midi": 82,
          "name": "A#5",
          "ticks": 68352,
          "time": 59.333273999999996,
          "velocity": 0.1968503937007874
        },
        {
          "duration": 0.08333325000000258,
          "durationTicks": 96,
          "midi": 73,
          "name": "C#5",
          "ticks": 68736,
          "time": 59.666607,
          "velocity": 0.1968503937007874
        },
        {
          "duration": 0.08333325000000258,
          "durationTicks": 96,
          "midi": 77,
          "name": "F5",
          "ticks": 68736,
          "time": 59.666607,
          "velocity": 0.1968503937007874
        },
        {
          "duration": 0.08333325000000258,
          "durationTicks": 96,
          "midi": 79,
          "name": "G5",
          "ticks": 69120,
          "time": 59.999939999999995,
          "velocity": 0.1968503937007874
        },
        {
          "duration": 0.08333325000000258,
          "durationTicks": 96,
          "midi": 75,
          "name": "D#5",
          "ticks": 69120,
          "time": 59.999939999999995,
          "velocity": 0.1968503937007874
        },
        {
          "duration": 0.08333325000000258,
          "durationTicks": 96,
          "midi": 79,
          "name": "G5",
          "ticks": 69696,
          "time": 60.499939499999996,
          "velocity": 0.1968503937007874
        },
        {
          "duration": 0.08333325000000258,
          "durationTicks": 96,
          "midi": 80,
          "name": "G#5",
          "ticks": 70272,
          "time": 60.999939,
          "velocity": 0.1968503937007874
        }
      ],
      "endOfTrackTicks": 70368
    },
    {
      "channel": 6,
      "controlChanges": {},
      "pitchBends": [],
      "instrument": {
        "family": "pipe",
        "number": 73,
        "name": "flute"
      },
      "name": "Flute",
      "notes": [
        {
          "duration": 0.6666659999999993,
          "durationTicks": 768,
          "midi": 53,
          "name": "F3",
          "ticks": 49920,
          "time": 43.33329,
          "velocity": 0.3937007874015748
        },
        {
          "duration": 0.6666659999999993,
          "durationTicks": 768,
          "midi": 56,
          "name": "G#3",
          "ticks": 50688,
          "time": 43.999956,
          "velocity": 0.3937007874015748
        },
        {
          "duration": 0.6666659999999993,
          "durationTicks": 768,
          "midi": 60,
          "name": "C4",
          "ticks": 51456,
          "time": 44.666622,
          "velocity": 0.3937007874015748
        },
        {
          "duration": 1.3333320000000057,
          "durationTicks": 1536,
          "midi": 58,
          "name": "A#3",
          "ticks": 52224,
          "time": 45.333287999999996,
          "velocity": 0.3937007874015748
        },
        {
          "duration": 0.6666659999999993,
          "durationTicks": 768,
          "midi": 55,
          "name": "G3",
          "ticks": 53760,
          "time": 46.66662,
          "velocity": 0.3937007874015748
        },
        {
          "duration": 0.6666659999999993,
          "durationTicks": 768,
          "midi": 51,
          "name": "D#3",
          "ticks": 54528,
          "time": 47.333286,
          "velocity": 0.3937007874015748
        },
        {
          "duration": 1.3333319999999986,
          "durationTicks": 1536,
          "midi": 53,
          "name": "F3",
          "ticks": 55296,
          "time": 47.999952,
          "velocity": 0.3937007874015748
        },
        {
          "duration": 1.3333319999999986,
          "durationTicks": 1536,
          "midi": 57,
          "name": "A3",
          "ticks": 58368,
          "time": 50.666616,
          "velocity": 0.3937007874015748
        },
        {
          "duration": 0.6666659999999993,
          "durationTicks": 768,
          "midi": 53,
          "name": "F3",
          "ticks": 62208,
          "time": 53.999946,
          "velocity": 0.3937007874015748
        },
        {
          "duration": 0.6666659999999993,
          "durationTicks": 768,
          "midi": 56,
          "name": "G#3",
          "ticks": 62976,
          "time": 54.666612,
          "velocity": 0.3937007874015748
        },
        {
          "duration": 0.6666659999999993,
          "durationTicks": 768,
          "midi": 60,
          "name": "C4",
          "ticks": 63744,
          "time": 55.333278,
          "velocity": 0.3937007874015748
        },
        {
          "duration": 1.3333319999999986,
          "durationTicks": 1536,
          "midi": 63,
          "name": "D#4",
          "ticks": 64512,
          "time": 55.999944,
          "velocity": 0.3937007874015748
        },
        {
          "duration": 0.6666659999999993,
          "durationTicks": 768,
          "midi": 58,
          "name": "A#3",
          "ticks": 66048,
          "time": 57.333276,
          "velocity": 0.3937007874015748
        },
        {
          "duration": 0.6666659999999993,
          "durationTicks": 768,
          "midi": 55,
          "name": "G3",
          "ticks": 66816,
          "time": 57.999942,
          "velocity": 0.3937007874015748
        },
        {
          "duration": 1.3333319999999986,
          "durationTicks": 1536,
          "midi": 56,
          "name": "G#3",
          "ticks": 67584,
          "time": 58.666608,
          "velocity": 0.3937007874015748
        }
      ],
      "endOfTrackTicks": 69120
    },
    {
      "channel": 7,
      "controlChanges": {},
      "pitchBends": [],
      "instrument": {
        "family": "reed",
        "number": 64,
        "name": "soprano sax"
      },
      "name": "Saxophone",
      "notes": [
        {
          "duration": 0.08333325000000258,
          "durationTicks": 96,
          "midi": 53,
          "name": "F3",
          "ticks": 49920,
          "time": 43.33329,
          "velocity": 0.3937007874015748
        },
        {
          "duration": 0.08333325000000258,
          "durationTicks": 96,
          "midi": 56,
          "name": "G#3",
          "ticks": 50688,
          "time": 43.999956,
          "velocity": 0.3937007874015748
        },
        {
          "duration": 0.08333325000000258,
          "durationTicks": 96,
          "midi": 60,
          "name": "C4",
          "ticks": 51456,
          "time": 44.666622,
          "velocity": 0.3937007874015748
        },
        {
          "duration": 0.08333325000000258,
          "durationTicks": 96,
          "midi": 58,
          "name": "A#3",
          "ticks": 52224,
          "time": 45.333287999999996,
          "velocity": 0.3937007874015748
        },
        {
          "duration": 0.08333324999999547,
          "durationTicks": 96,
          "midi": 55,
          "name": "G3",
          "ticks": 53760,
          "time": 46.66662,
          "velocity": 0.3937007874015748
        },
        {
          "duration": 0.08333324999999547,
          "durationTicks": 96,
          "midi": 51,
          "name": "D#3",
          "ticks": 54528,
          "time": 47.333286,
          "velocity": 0.3937007874015748
        },
        {
          "duration": 0.08333324999999547,
          "durationTicks": 96,
          "midi": 53,
          "name": "F3",
          "ticks": 55296,
          "time": 47.999952,
          "velocity": 0.3937007874015748
        },
        {
          "duration": 0.08333325000000258,
          "durationTicks": 96,
          "midi": 57,
          "name": "A3",
          "ticks": 58368,
          "time": 50.666616,
          "velocity": 0.3937007874015748
        },
        {
          "duration": 0.08333324999999547,
          "durationTicks": 96,
          "midi": 53,
          "name": "F3",
          "ticks": 62208,
          "time": 53.999946,
          "velocity": 0.3937007874015748
        },
        {
          "duration": 0.08333324999999547,
          "durationTicks": 96,
          "midi": 56,
          "name": "G#3",
          "ticks": 62976,
          "time": 54.666612,
          "velocity": 0.3937007874015748
        },
        {
          "duration": 0.08333324999999547,
          "durationTicks": 96,
          "midi": 60,
          "name": "C4",
          "ticks": 63744,
          "time": 55.333278,
          "velocity": 0.3937007874015748
        },
        {
          "duration": 0.08333325000000258,
          "durationTicks": 96,
          "midi": 63,
          "name": "D#4",
          "ticks": 64512,
          "time": 55.999944,
          "velocity": 0.3937007874015748
        },
        {
          "duration": 0.08333325000000258,
          "durationTicks": 96,
          "midi": 58,
          "name": "A#3",
          "ticks": 66048,
          "time": 57.333276,
          "velocity": 0.3937007874015748
        },
        {
          "duration": 0.08333325000000258,
          "durationTicks": 96,
          "midi": 55,
          "name": "G3",
          "ticks": 66816,
          "time": 57.999942,
          "velocity": 0.3937007874015748
        },
        {
          "duration": 0.08333325000000258,
          "durationTicks": 96,
          "midi": 56,
          "name": "G#3",
          "ticks": 67584,
          "time": 58.666608,
          "velocity": 0.3937007874015748
        }
      ],
      "endOfTrackTicks": 67680
    },
    {
      "channel": 8,
      "controlChanges": {},
      "pitchBends": [],
      "instrument": {
        "family": "chromatic percussion",
        "number": 10,
        "name": "music box"
      },
      "name": "Music Box",
      "notes": [
        {
          "duration": 0.08333325000000258,
          "durationTicks": 96,
          "midi": 65,
          "name": "F4",
          "ticks": 49920,
          "time": 43.33329,
          "velocity": 0.3937007874015748
        },
        {
          "duration": 0.08333325000000258,
          "durationTicks": 96,
          "midi": 68,
          "name": "G#4",
          "ticks": 50688,
          "time": 43.999956,
          "velocity": 0.3937007874015748
        },
        {
          "duration": 0.08333325000000258,
          "durationTicks": 96,
          "midi": 72,
          "name": "C5",
          "ticks": 51456,
          "time": 44.666622,
          "velocity": 0.3937007874015748
        },
        {
          "duration": 0.08333325000000258,
          "durationTicks": 96,
          "midi": 70,
          "name": "A#4",
          "ticks": 52224,
          "time": 45.333287999999996,
          "velocity": 0.3937007874015748
        },
        {
          "duration": 0.08333324999999547,
          "durationTicks": 96,
          "midi": 67,
          "name": "G4",
          "ticks": 53760,
          "time": 46.66662,
          "velocity": 0.3937007874015748
        },
        {
          "duration": 0.08333324999999547,
          "durationTicks": 96,
          "midi": 63,
          "name": "D#4",
          "ticks": 54528,
          "time": 47.333286,
          "velocity": 0.3937007874015748
        },
        {
          "duration": 0.08333324999999547,
          "durationTicks": 96,
          "midi": 65,
          "name": "F4",
          "ticks": 55296,
          "time": 47.999952,
          "velocity": 0.3937007874015748
        },
        {
          "duration": 0.08333325000000258,
          "durationTicks": 96,
          "midi": 69,
          "name": "A4",
          "ticks": 58368,
          "time": 50.666616,
          "velocity": 0.3937007874015748
        },
        {
          "duration": 0.08333324999999547,
          "durationTicks": 96,
          "midi": 65,
          "name": "F4",
          "ticks": 62208,
          "time": 53.999946,
          "velocity": 0.3937007874015748
        },
        {
          "duration": 0.08333324999999547,
          "durationTicks": 96,
          "midi": 68,
          "name": "G#4",
          "ticks": 62976,
          "time": 54.666612,
          "velocity": 0.3937007874015748
        },
        {
          "duration": 0.08333324999999547,
          "durationTicks": 96,
          "midi": 72,
          "name": "C5",
          "ticks": 63744,
          "time": 55.333278,
          "velocity": 0.3937007874015748
        },
        {
          "duration": 0.08333325000000258,
          "durationTicks": 96,
          "midi": 75,
          "name": "D#5",
          "ticks": 64512,
          "time": 55.999944,
          "velocity": 0.3937007874015748
        },
        {
          "duration": 0.08333325000000258,
          "durationTicks": 96,
          "midi": 70,
          "name": "A#4",
          "ticks": 66048,
          "time": 57.333276,
          "velocity": 0.3937007874015748
        },
        {
          "duration": 0.08333325000000258,
          "durationTicks": 96,
          "midi": 67,
          "name": "G4",
          "ticks": 66816,
          "time": 57.999942,
          "velocity": 0.3937007874015748
        },
        {
          "duration": 0.08333325000000258,
          "durationTicks": 96,
          "midi": 68,
          "name": "G#4",
          "ticks": 67584,
          "time": 58.666608,
          "velocity": 0.3937007874015748
        }
      ],
      "endOfTrackTicks": 67680
    },
    {
      "channel": 9,
      "controlChanges": {},
      "pitchBends": [],
      "instrument": {
        "family": "drums",
        "number": 0,
        "name": "standard kit"
      },
      "name": "Electric Drum Kit",
      "notes": [
        {
          "duration": 0.08333324999999903,
          "durationTicks": 96,
          "midi": 42,
          "name": "F#2",
          "ticks": 24576,
          "time": 21.333312,
          "velocity": 0.2992125984251969
        },
        {
          "duration": 0.08333324999999903,
          "durationTicks": 96,
          "midi": 36,
          "name": "C2",
          "ticks": 24576,
          "time": 21.333312,
          "velocity": 0.2992125984251969
        },
        {
          "duration": 0.08333324999999903,
          "durationTicks": 96,
          "midi": 59,
          "name": "B3",
          "ticks": 24576,
          "time": 21.333312,
          "velocity": 0.2992125984251969
        },
        {
          "duration": 0.08333324999999903,
          "durationTicks": 96,
          "midi": 49,
          "name": "C#3",
          "ticks": 24576,
          "time": 21.333312,
          "velocity": 0.2992125984251969
        },
        {
          "duration": 0.08333324999999903,
          "durationTicks": 96,
          "midi": 53,
          "name": "F3",
          "ticks": 24576,
          "time": 21.333312,
          "velocity": 0.2992125984251969
        },
        {
          "duration": 0.08333324999999903,
          "durationTicks": 96,
          "midi": 51,
          "name": "D#3",
          "ticks": 24576,
          "time": 21.333312,
          "velocity": 0.2992125984251969
        },
        {
          "duration": 0.08333324999999903,
          "durationTicks": 96,
          "midi": 42,
          "name": "F#2",
          "ticks": 24768,
          "time": 21.4999785,
          "velocity": 0.2992125984251969
        },
        {
          "duration": 0.08333324999999903,
          "durationTicks": 96,
          "midi": 36,
          "name": "C2",
          "ticks": 24768,
          "time": 21.4999785,
          "velocity": 0.2992125984251969
        },
        {
          "duration": 0.08333324999999903,
          "durationTicks": 96,
          "midi": 42,
          "name": "F#2",
          "ticks": 24960,
          "time": 21.666645,
          "velocity": 0.2992125984251969
        },
        {
          "duration": 0.08333324999999903,
          "durationTicks": 96,
          "midi": 51,
          "name": "D#3",
          "ticks": 24960,
          "time": 21.666645,
          "velocity": 0.2992125984251969
        },
        {
          "duration": 0.08333324999999903,
          "durationTicks": 96,
          "midi": 53,
          "name": "F3",
          "ticks": 24960,
          "time": 21.666645,
          "velocity": 0.2992125984251969
        },
        {
          "duration": 0.08333324999999903,
          "durationTicks": 96,
          "midi": 40,
          "name": "E2",
          "ticks": 24960,
          "time": 21.666645,
          "velocity": 0.2992125984251969
        },
        {
          "duration": 0.08333324999999903,
          "durationTicks": 96,
          "midi": 49,
          "name": "C#3",
          "ticks": 24960,
          "time": 21.666645,
          "velocity": 0.2992125984251969
        },
        {
          "duration": 0.08333324999999903,
          "durationTicks": 96,
          "midi": 38,
          "name": "D2",
          "ticks": 24960,
          "time": 21.666645,
          "velocity": 0.2992125984251969
        },
        {
          "duration": 0.08333324999999903,
          "durationTicks": 96,
          "midi": 59,
          "name": "B3",
          "ticks": 24960,
          "time": 21.666645,
          "velocity": 0.2992125984251969
        },
        {
          "duration": 0.08333324999999903,
          "durationTicks": 96,
          "midi": 36,
          "name": "C2",
          "ticks": 25152,
          "time": 21.8333115,
          "velocity": 0.2992125984251969
        },
        {
          "duration": 0.08333324999999903,
          "durationTicks": 96,
          "midi": 42,
          "name": "F#2",
          "ticks": 25152,
          "time": 21.8333115,
          "velocity": 0.2992125984251969
        },
        {
          "duration": 0.08333324999999903,
          "durationTicks": 96,
          "midi": 36,
          "name": "C2",
          "ticks": 25344,
          "time": 21.999978,
          "velocity": 0.2992125984251969
        },
        {
          "duration": 0.08333324999999903,
          "durationTicks": 96,
          "midi": 42,
          "name": "F#2",
          "ticks": 25344,
          "time": 21.999978,
          "velocity": 0.2992125984251969
        },
        {
          "duration": 0.08333324999999903,
          "durationTicks": 96,
          "midi": 53,
          "name": "F3",
          "ticks": 25536,
          "time": 22.1666445,
          "velocity": 0.2992125984251969
        },
        {
          "duration": 0.08333324999999903,
          "durationTicks": 96,
          "midi": 59,
          "name": "B3",
          "ticks": 25536,
          "time": 22.1666445,
          "velocity": 0.2992125984251969
        },
        {
          "duration": 0.08333324999999903,
          "durationTicks": 96,
          "midi": 49,
          "name": "C#3",
          "ticks": 25536,
          "time": 22.1666445,
          "velocity": 0.2992125984251969
        },
        {
          "duration": 0.08333324999999903,
          "durationTicks": 96,
          "midi": 42,
          "name": "F#2",
          "ticks": 25536,
          "time": 22.1666445,
          "velocity": 0.2992125984251969
        },
        {
          "duration": 0.08333324999999903,
          "durationTicks": 96,
          "midi": 40,
          "name": "E2",
          "ticks": 25536,
          "time": 22.1666445,
          "velocity": 0.2992125984251969
        },
        {
          "duration": 0.08333324999999903,
          "durationTicks": 96,
          "midi": 51,
          "name": "D#3",
          "ticks": 25536,
          "time": 22.1666445,
          "velocity": 0.2992125984251969
        },
        {
          "duration": 0.08333324999999903,
          "durationTicks": 96,
          "midi": 38,
          "name": "D2",
          "ticks": 25536,
          "time": 22.1666445,
          "velocity": 0.2992125984251969
        },
        {
          "duration": 0.08333325000000258,
          "durationTicks": 96,
          "midi": 36,
          "name": "C2",
          "ticks": 25728,
          "time": 22.333311,
          "velocity": 0.2992125984251969
        },
        {
          "duration": 0.08333325000000258,
          "durationTicks": 96,
          "midi": 42,
          "name": "F#2",
          "ticks": 25728,
          "time": 22.333311,
          "velocity": 0.2992125984251969
        },
        {
          "duration": 0.08333324999999903,
          "durationTicks": 96,
          "midi": 42,
          "name": "F#2",
          "ticks": 25920,
          "time": 22.4999775,
          "velocity": 0.2992125984251969
        },
        {
          "duration": 0.08333324999999903,
          "durationTicks": 96,
          "midi": 40,
          "name": "E2",
          "ticks": 25920,
          "time": 22.4999775,
          "velocity": 0.2992125984251969
        },
        {
          "duration": 0.08333324999999903,
          "durationTicks": 96,
          "midi": 38,
          "name": "D2",
          "ticks": 25920,
          "time": 22.4999775,
          "velocity": 0.2992125984251969
        },
        {
          "duration": 0.08333325000000258,
          "durationTicks": 96,
          "midi": 36,
          "name": "C2",
          "ticks": 26112,
          "time": 22.666643999999998,
          "velocity": 0.2992125984251969
        },
        {
          "duration": 0.08333325000000258,
          "durationTicks": 96,
          "midi": 42,
          "name": "F#2",
          "ticks": 26112,
          "time": 22.666643999999998,
          "velocity": 0.2992125984251969
        },
        {
          "duration": 0.08333325000000258,
          "durationTicks": 96,
          "midi": 53,
          "name": "F3",
          "ticks": 26112,
          "time": 22.666643999999998,
          "velocity": 0.2992125984251969
        },
        {
          "duration": 0.08333325000000258,
          "durationTicks": 96,
          "midi": 49,
          "name": "C#3",
          "ticks": 26112,
          "time": 22.666643999999998,
          "velocity": 0.2992125984251969
        },
        {
          "duration": 0.08333325000000258,
          "durationTicks": 96,
          "midi": 51,
          "name": "D#3",
          "ticks": 26112,
          "time": 22.666643999999998,
          "velocity": 0.2992125984251969
        },
        {
          "duration": 0.08333325000000258,
          "durationTicks": 96,
          "midi": 59,
          "name": "B3",
          "ticks": 26112,
          "time": 22.666643999999998,
          "velocity": 0.2992125984251969
        },
        {
          "duration": 0.08333324999999903,
          "durationTicks": 96,
          "midi": 36,
          "name": "C2",
          "ticks": 26304,
          "time": 22.8333105,
          "velocity": 0.2992125984251969
        },
        {
          "duration": 0.08333324999999903,
          "durationTicks": 96,
          "midi": 42,
          "name": "F#2",
          "ticks": 26304,
          "time": 22.8333105,
          "velocity": 0.2992125984251969
        },
        {
          "duration": 0.08333325000000258,
          "durationTicks": 96,
          "midi": 40,
          "name": "E2",
          "ticks": 26496,
          "time": 22.999976999999998,
          "velocity": 0.2992125984251969
        },
        {
          "duration": 0.08333325000000258,
          "durationTicks": 96,
          "midi": 49,
          "name": "C#3",
          "ticks": 26496,
          "time": 22.999976999999998,
          "velocity": 0.2992125984251969
        },
        {
          "duration": 0.08333325000000258,
          "durationTicks": 96,
          "midi": 59,
          "name": "B3",
          "ticks": 26496,
          "time": 22.999976999999998,
          "velocity": 0.2992125984251969
        },
        {
          "duration": 0.08333325000000258,
          "durationTicks": 96,
          "midi": 53,
          "name": "F3",
          "ticks": 26496,
          "time": 22.999976999999998,
          "velocity": 0.2992125984251969
        },
        {
          "duration": 0.08333325000000258,
          "durationTicks": 96,
          "midi": 51,
          "name": "D#3",
          "ticks": 26496,
          "time": 22.999976999999998,
          "velocity": 0.2992125984251969
        },
        {
          "duration": 0.08333325000000258,
          "durationTicks": 96,
          "midi": 38,
          "name": "D2",
          "ticks": 26496,
          "time": 22.999976999999998,
          "velocity": 0.2992125984251969
        },
        {
          "duration": 0.08333325000000258,
          "durationTicks": 96,
          "midi": 42,
          "name": "F#2",
          "ticks": 26496,
          "time": 22.999976999999998,
          "velocity": 0.2992125984251969
        },
        {
          "duration": 0.08333324999999903,
          "durationTicks": 96,
          "midi": 42,
          "name": "F#2",
          "ticks": 26688,
          "time": 23.1666435,
          "velocity": 0.2992125984251969
        },
        {
          "duration": 0.08333324999999903,
          "durationTicks": 96,
          "midi": 36,
          "name": "C2",
          "ticks": 26688,
          "time": 23.1666435,
          "velocity": 0.2992125984251969
        },
        {
          "duration": 0.08333324999999903,
          "durationTicks": 96,
          "midi": 42,
          "name": "F#2",
          "ticks": 26880,
          "time": 23.33331,
          "velocity": 0.2992125984251969
        },
        {
          "duration": 0.08333324999999903,
          "durationTicks": 96,
          "midi": 36,
          "name": "C2",
          "ticks": 26880,
          "time": 23.33331,
          "velocity": 0.2992125984251969
        },
        {
          "duration": 0.08333324999999903,
          "durationTicks": 96,
          "midi": 49,
          "name": "C#3",
          "ticks": 27072,
          "time": 23.4999765,
          "velocity": 0.2992125984251969
        },
        {
          "duration": 0.08333324999999903,
          "durationTicks": 96,
          "midi": 53,
          "name": "F3",
          "ticks": 27072,
          "time": 23.4999765,
          "velocity": 0.2992125984251969
        },
        {
          "duration": 0.08333324999999903,
          "durationTicks": 96,
          "midi": 38,
          "name": "D2",
          "ticks": 27072,
          "time": 23.4999765,
          "velocity": 0.2992125984251969
        },
        {
          "duration": 0.08333324999999903,
          "durationTicks": 96,
          "midi": 59,
          "name": "B3",
          "ticks": 27072,
          "time": 23.4999765,
          "velocity": 0.2992125984251969
        },
        {
          "duration": 0.08333324999999903,
          "durationTicks": 96,
          "midi": 42,
          "name": "F#2",
          "ticks": 27072,
          "time": 23.4999765,
          "velocity": 0.2992125984251969
        },
        {
          "duration": 0.08333324999999903,
          "durationTicks": 96,
          "midi": 40,
          "name": "E2",
          "ticks": 27072,
          "time": 23.4999765,
          "velocity": 0.2992125984251969
        },
        {
          "duration": 0.08333324999999903,
          "durationTicks": 96,
          "midi": 51,
          "name": "D#3",
          "ticks": 27072,
          "time": 23.4999765,
          "velocity": 0.2992125984251969
        },
        {
          "duration": 0.08333324999999903,
          "durationTicks": 96,
          "midi": 36,
          "name": "C2",
          "ticks": 27264,
          "time": 23.666643,
          "velocity": 0.2992125984251969
        },
        {
          "duration": 0.08333324999999903,
          "durationTicks": 96,
          "midi": 42,
          "name": "F#2",
          "ticks": 27264,
          "time": 23.666643,
          "velocity": 0.2992125984251969
        },
        {
          "duration": 0.08333324999999903,
          "durationTicks": 96,
          "midi": 42,
          "name": "F#2",
          "ticks": 27456,
          "time": 23.8333095,
          "velocity": 0.2992125984251969
        },
        {
          "duration": 0.08333324999999903,
          "durationTicks": 96,
          "midi": 40,
          "name": "E2",
          "ticks": 27456,
          "time": 23.8333095,
          "velocity": 0.2992125984251969
        },
        {
          "duration": 0.08333324999999903,
          "durationTicks": 96,
          "midi": 38,
          "name": "D2",
          "ticks": 27456,
          "time": 23.8333095,
          "velocity": 0.2992125984251969
        },
        {
          "duration": 0.08333324999999903,
          "durationTicks": 96,
          "midi": 36,
          "name": "C2",
          "ticks": 27648,
          "time": 23.999976,
          "velocity": 0.2992125984251969
        },
        {
          "duration": 0.08333324999999903,
          "durationTicks": 96,
          "midi": 49,
          "name": "C#3",
          "ticks": 27648,
          "time": 23.999976,
          "velocity": 0.2992125984251969
        },
        {
          "duration": 0.08333324999999903,
          "durationTicks": 96,
          "midi": 42,
          "name": "F#2",
          "ticks": 27648,
          "time": 23.999976,
          "velocity": 0.2992125984251969
        },
        {
          "duration": 0.08333324999999903,
          "durationTicks": 96,
          "midi": 51,
          "name": "D#3",
          "ticks": 27648,
          "time": 23.999976,
          "velocity": 0.2992125984251969
        },
        {
          "duration": 0.08333324999999903,
          "durationTicks": 96,
          "midi": 59,
          "name": "B3",
          "ticks": 27648,
          "time": 23.999976,
          "velocity": 0.2992125984251969
        },
        {
          "duration": 0.08333324999999903,
          "durationTicks": 96,
          "midi": 53,
          "name": "F3",
          "ticks": 27648,
          "time": 23.999976,
          "velocity": 0.2992125984251969
        },
        {
          "duration": 0.08333325000000258,
          "durationTicks": 96,
          "midi": 36,
          "name": "C2",
          "ticks": 27840,
          "time": 24.1666425,
          "velocity": 0.2992125984251969
        },
        {
          "duration": 0.08333325000000258,
          "durationTicks": 96,
          "midi": 42,
          "name": "F#2",
          "ticks": 27840,
          "time": 24.1666425,
          "velocity": 0.2992125984251969
        },
        {
          "duration": 0.08333324999999903,
          "durationTicks": 96,
          "midi": 51,
          "name": "D#3",
          "ticks": 28032,
          "time": 24.333309,
          "velocity": 0.2992125984251969
        },
        {
          "duration": 0.08333324999999903,
          "durationTicks": 96,
          "midi": 40,
          "name": "E2",
          "ticks": 28032,
          "time": 24.333309,
          "velocity": 0.2992125984251969
        },
        {
          "duration": 0.08333324999999903,
          "durationTicks": 96,
          "midi": 59,
          "name": "B3",
          "ticks": 28032,
          "time": 24.333309,
          "velocity": 0.2992125984251969
        },
        {
          "duration": 0.08333324999999903,
          "durationTicks": 96,
          "midi": 49,
          "name": "C#3",
          "ticks": 28032,
          "time": 24.333309,
          "velocity": 0.2992125984251969
        },
        {
          "duration": 0.08333324999999903,
          "durationTicks": 96,
          "midi": 53,
          "name": "F3",
          "ticks": 28032,
          "time": 24.333309,
          "velocity": 0.2992125984251969
        },
        {
          "duration": 0.08333324999999903,
          "durationTicks": 96,
          "midi": 42,
          "name": "F#2",
          "ticks": 28032,
          "time": 24.333309,
          "velocity": 0.2992125984251969
        },
        {
          "duration": 0.08333324999999903,
          "durationTicks": 96,
          "midi": 38,
          "name": "D2",
          "ticks": 28032,
          "time": 24.333309,
          "velocity": 0.2992125984251969
        },
        {
          "duration": 0.08333325000000258,
          "durationTicks": 96,
          "midi": 36,
          "name": "C2",
          "ticks": 28224,
          "time": 24.499975499999998,
          "velocity": 0.2992125984251969
        },
        {
          "duration": 0.08333325000000258,
          "durationTicks": 96,
          "midi": 42,
          "name": "F#2",
          "ticks": 28224,
          "time": 24.499975499999998,
          "velocity": 0.2992125984251969
        },
        {
          "duration": 0.08333324999999903,
          "durationTicks": 96,
          "midi": 36,
          "name": "C2",
          "ticks": 28416,
          "time": 24.666642,
          "velocity": 0.2992125984251969
        },
        {
          "duration": 0.08333324999999903,
          "durationTicks": 96,
          "midi": 42,
          "name": "F#2",
          "ticks": 28416,
          "time": 24.666642,
          "velocity": 0.2992125984251969
        },
        {
          "duration": 0.08333325000000258,
          "durationTicks": 96,
          "midi": 42,
          "name": "F#2",
          "ticks": 28608,
          "time": 24.833308499999998,
          "velocity": 0.2992125984251969
        },
        {
          "duration": 0.08333325000000258,
          "durationTicks": 96,
          "midi": 40,
          "name": "E2",
          "ticks": 28608,
          "time": 24.833308499999998,
          "velocity": 0.2992125984251969
        },
        {
          "duration": 0.08333325000000258,
          "durationTicks": 96,
          "midi": 49,
          "name": "C#3",
          "ticks": 28608,
          "time": 24.833308499999998,
          "velocity": 0.2992125984251969
        },
        {
          "duration": 0.08333325000000258,
          "durationTicks": 96,
          "midi": 38,
          "name": "D2",
          "ticks": 28608,
          "time": 24.833308499999998,
          "velocity": 0.2992125984251969
        },
        {
          "duration": 0.08333325000000258,
          "durationTicks": 96,
          "midi": 53,
          "name": "F3",
          "ticks": 28608,
          "time": 24.833308499999998,
          "velocity": 0.2992125984251969
        },
        {
          "duration": 0.08333325000000258,
          "durationTicks": 96,
          "midi": 59,
          "name": "B3",
          "ticks": 28608,
          "time": 24.833308499999998,
          "velocity": 0.2992125984251969
        },
        {
          "duration": 0.08333325000000258,
          "durationTicks": 96,
          "midi": 51,
          "name": "D#3",
          "ticks": 28608,
          "time": 24.833308499999998,
          "velocity": 0.2992125984251969
        },
        {
          "duration": 0.08333324999999903,
          "durationTicks": 96,
          "midi": 42,
          "name": "F#2",
          "ticks": 28800,
          "time": 24.999975,
          "velocity": 0.2992125984251969
        },
        {
          "duration": 0.08333324999999903,
          "durationTicks": 96,
          "midi": 36,
          "name": "C2",
          "ticks": 28800,
          "time": 24.999975,
          "velocity": 0.2992125984251969
        },
        {
          "duration": 0.08333324999999903,
          "durationTicks": 96,
          "midi": 42,
          "name": "F#2",
          "ticks": 28992,
          "time": 25.1666415,
          "velocity": 0.2992125984251969
        },
        {
          "duration": 0.08333324999999903,
          "durationTicks": 96,
          "midi": 38,
          "name": "D2",
          "ticks": 28992,
          "time": 25.1666415,
          "velocity": 0.2992125984251969
        },
        {
          "duration": 0.08333324999999903,
          "durationTicks": 96,
          "midi": 40,
          "name": "E2",
          "ticks": 28992,
          "time": 25.1666415,
          "velocity": 0.2992125984251969
        },
        {
          "duration": 0.08333324999999903,
          "durationTicks": 96,
          "midi": 42,
          "name": "F#2",
          "ticks": 29184,
          "time": 25.333308,
          "velocity": 0.2992125984251969
        },
        {
          "duration": 0.08333324999999903,
          "durationTicks": 96,
          "midi": 36,
          "name": "C2",
          "ticks": 29184,
          "time": 25.333308,
          "velocity": 0.2992125984251969
        },
        {
          "duration": 0.08333324999999903,
          "durationTicks": 96,
          "midi": 49,
          "name": "C#3",
          "ticks": 29184,
          "time": 25.333308,
          "velocity": 0.2992125984251969
        },
        {
          "duration": 0.08333324999999903,
          "durationTicks": 96,
          "midi": 51,
          "name": "D#3",
          "ticks": 29184,
          "time": 25.333308,
          "velocity": 0.2992125984251969
        },
        {
          "duration": 0.08333324999999903,
          "durationTicks": 96,
          "midi": 59,
          "name": "B3",
          "ticks": 29184,
          "time": 25.333308,
          "velocity": 0.2992125984251969
        },
        {
          "duration": 0.08333324999999903,
          "durationTicks": 96,
          "midi": 53,
          "name": "F3",
          "ticks": 29184,
          "time": 25.333308,
          "velocity": 0.2992125984251969
        },
        {
          "duration": 0.08333324999999903,
          "durationTicks": 96,
          "midi": 42,
          "name": "F#2",
          "ticks": 29376,
          "time": 25.4999745,
          "velocity": 0.2992125984251969
        },
        {
          "duration": 0.08333324999999903,
          "durationTicks": 96,
          "midi": 36,
          "name": "C2",
          "ticks": 29376,
          "time": 25.4999745,
          "velocity": 0.2992125984251969
        },
        {
          "duration": 0.08333324999999903,
          "durationTicks": 96,
          "midi": 53,
          "name": "F3",
          "ticks": 29568,
          "time": 25.666641,
          "velocity": 0.2992125984251969
        },
        {
          "duration": 0.08333324999999903,
          "durationTicks": 96,
          "midi": 59,
          "name": "B3",
          "ticks": 29568,
          "time": 25.666641,
          "velocity": 0.2992125984251969
        },
        {
          "duration": 0.08333324999999903,
          "durationTicks": 96,
          "midi": 49,
          "name": "C#3",
          "ticks": 29568,
          "time": 25.666641,
          "velocity": 0.2992125984251969
        },
        {
          "duration": 0.08333324999999903,
          "durationTicks": 96,
          "midi": 51,
          "name": "D#3",
          "ticks": 29568,
          "time": 25.666641,
          "velocity": 0.2992125984251969
        },
        {
          "duration": 0.08333324999999903,
          "durationTicks": 96,
          "midi": 40,
          "name": "E2",
          "ticks": 29568,
          "time": 25.666641,
          "velocity": 0.2992125984251969
        },
        {
          "duration": 0.08333324999999903,
          "durationTicks": 96,
          "midi": 42,
          "name": "F#2",
          "ticks": 29568,
          "time": 25.666641,
          "velocity": 0.2992125984251969
        },
        {
          "duration": 0.08333324999999903,
          "durationTicks": 96,
          "midi": 38,
          "name": "D2",
          "ticks": 29568,
          "time": 25.666641,
          "velocity": 0.2992125984251969
        },
        {
          "duration": 0.08333324999999903,
          "durationTicks": 96,
          "midi": 36,
          "name": "C2",
          "ticks": 29760,
          "time": 25.8333075,
          "velocity": 0.2992125984251969
        },
        {
          "duration": 0.08333324999999903,
          "durationTicks": 96,
          "midi": 42,
          "name": "F#2",
          "ticks": 29760,
          "time": 25.8333075,
          "velocity": 0.2992125984251969
        },
        {
          "duration": 0.08333325000000258,
          "durationTicks": 96,
          "midi": 42,
          "name": "F#2",
          "ticks": 29952,
          "time": 25.999973999999998,
          "velocity": 0.2992125984251969
        },
        {
          "duration": 0.08333325000000258,
          "durationTicks": 96,
          "midi": 36,
          "name": "C2",
          "ticks": 29952,
          "time": 25.999973999999998,
          "velocity": 0.2992125984251969
        },
        {
          "duration": 0.08333324999999903,
          "durationTicks": 96,
          "midi": 59,
          "name": "B3",
          "ticks": 30144,
          "time": 26.1666405,
          "velocity": 0.2992125984251969
        },
        {
          "duration": 0.08333324999999903,
          "durationTicks": 96,
          "midi": 42,
          "name": "F#2",
          "ticks": 30144,
          "time": 26.1666405,
          "velocity": 0.2992125984251969
        },
        {
          "duration": 0.08333324999999903,
          "durationTicks": 96,
          "midi": 49,
          "name": "C#3",
          "ticks": 30144,
          "time": 26.1666405,
          "velocity": 0.2992125984251969
        },
        {
          "duration": 0.08333324999999903,
          "durationTicks": 96,
          "midi": 51,
          "name": "D#3",
          "ticks": 30144,
          "time": 26.1666405,
          "velocity": 0.2992125984251969
        },
        {
          "duration": 0.08333324999999903,
          "durationTicks": 96,
          "midi": 38,
          "name": "D2",
          "ticks": 30144,
          "time": 26.1666405,
          "velocity": 0.2992125984251969
        },
        {
          "duration": 0.08333324999999903,
          "durationTicks": 96,
          "midi": 40,
          "name": "E2",
          "ticks": 30144,
          "time": 26.1666405,
          "velocity": 0.2992125984251969
        },
        {
          "duration": 0.08333324999999903,
          "durationTicks": 96,
          "midi": 53,
          "name": "F3",
          "ticks": 30144,
          "time": 26.1666405,
          "velocity": 0.2992125984251969
        },
        {
          "duration": 0.08333325000000258,
          "durationTicks": 96,
          "midi": 42,
          "name": "F#2",
          "ticks": 30336,
          "time": 26.333306999999998,
          "velocity": 0.2992125984251969
        },
        {
          "duration": 0.08333325000000258,
          "durationTicks": 96,
          "midi": 36,
          "name": "C2",
          "ticks": 30336,
          "time": 26.333306999999998,
          "velocity": 0.2992125984251969
        },
        {
          "duration": 0.08333324999999903,
          "durationTicks": 96,
          "midi": 38,
          "name": "D2",
          "ticks": 30528,
          "time": 26.4999735,
          "velocity": 0.2992125984251969
        },
        {
          "duration": 0.08333324999999903,
          "durationTicks": 96,
          "midi": 42,
          "name": "F#2",
          "ticks": 30528,
          "time": 26.4999735,
          "velocity": 0.2992125984251969
        },
        {
          "duration": 0.08333324999999903,
          "durationTicks": 96,
          "midi": 40,
          "name": "E2",
          "ticks": 30528,
          "time": 26.4999735,
          "velocity": 0.2992125984251969
        },
        {
          "duration": 0.08333324999999903,
          "durationTicks": 96,
          "midi": 49,
          "name": "C#3",
          "ticks": 30720,
          "time": 26.66664,
          "velocity": 0.2992125984251969
        },
        {
          "duration": 0.08333324999999903,
          "durationTicks": 96,
          "midi": 51,
          "name": "D#3",
          "ticks": 30720,
          "time": 26.66664,
          "velocity": 0.2992125984251969
        },
        {
          "duration": 0.08333324999999903,
          "durationTicks": 96,
          "midi": 59,
          "name": "B3",
          "ticks": 30720,
          "time": 26.66664,
          "velocity": 0.2992125984251969
        },
        {
          "duration": 0.08333324999999903,
          "durationTicks": 96,
          "midi": 36,
          "name": "C2",
          "ticks": 30720,
          "time": 26.66664,
          "velocity": 0.2992125984251969
        },
        {
          "duration": 0.08333324999999903,
          "durationTicks": 96,
          "midi": 53,
          "name": "F3",
          "ticks": 30720,
          "time": 26.66664,
          "velocity": 0.2992125984251969
        },
        {
          "duration": 0.08333324999999903,
          "durationTicks": 96,
          "midi": 42,
          "name": "F#2",
          "ticks": 30720,
          "time": 26.66664,
          "velocity": 0.2992125984251969
        },
        {
          "duration": 0.08333324999999903,
          "durationTicks": 96,
          "midi": 36,
          "name": "C2",
          "ticks": 30912,
          "time": 26.8333065,
          "velocity": 0.2992125984251969
        },
        {
          "duration": 0.08333324999999903,
          "durationTicks": 96,
          "midi": 42,
          "name": "F#2",
          "ticks": 30912,
          "time": 26.8333065,
          "velocity": 0.2992125984251969
        },
        {
          "duration": 0.08333324999999903,
          "durationTicks": 96,
          "midi": 49,
          "name": "C#3",
          "ticks": 31104,
          "time": 26.999973,
          "velocity": 0.2992125984251969
        },
        {
          "duration": 0.08333324999999903,
          "durationTicks": 96,
          "midi": 40,
          "name": "E2",
          "ticks": 31104,
          "time": 26.999973,
          "velocity": 0.2992125984251969
        },
        {
          "duration": 0.08333324999999903,
          "durationTicks": 96,
          "midi": 42,
          "name": "F#2",
          "ticks": 31104,
          "time": 26.999973,
          "velocity": 0.2992125984251969
        },
        {
          "duration": 0.08333324999999903,
          "durationTicks": 96,
          "midi": 59,
          "name": "B3",
          "ticks": 31104,
          "time": 26.999973,
          "velocity": 0.2992125984251969
        },
        {
          "duration": 0.08333324999999903,
          "durationTicks": 96,
          "midi": 38,
          "name": "D2",
          "ticks": 31104,
          "time": 26.999973,
          "velocity": 0.2992125984251969
        },
        {
          "duration": 0.08333324999999903,
          "durationTicks": 96,
          "midi": 53,
          "name": "F3",
          "ticks": 31104,
          "time": 26.999973,
          "velocity": 0.2992125984251969
        },
        {
          "duration": 0.08333324999999903,
          "durationTicks": 96,
          "midi": 51,
          "name": "D#3",
          "ticks": 31104,
          "time": 26.999973,
          "velocity": 0.2992125984251969
        },
        {
          "duration": 0.08333324999999903,
          "durationTicks": 96,
          "midi": 36,
          "name": "C2",
          "ticks": 31296,
          "time": 27.1666395,
          "velocity": 0.2992125984251969
        },
        {
          "duration": 0.08333324999999903,
          "durationTicks": 96,
          "midi": 42,
          "name": "F#2",
          "ticks": 31296,
          "time": 27.1666395,
          "velocity": 0.2992125984251969
        },
        {
          "duration": 0.08333324999999903,
          "durationTicks": 96,
          "midi": 36,
          "name": "C2",
          "ticks": 31488,
          "time": 27.333306,
          "velocity": 0.2992125984251969
        },
        {
          "duration": 0.08333324999999903,
          "durationTicks": 96,
          "midi": 42,
          "name": "F#2",
          "ticks": 31488,
          "time": 27.333306,
          "velocity": 0.2992125984251969
        },
        {
          "duration": 0.08333325000000258,
          "durationTicks": 96,
          "midi": 38,
          "name": "D2",
          "ticks": 31680,
          "time": 27.4999725,
          "velocity": 0.2992125984251969
        },
        {
          "duration": 0.08333325000000258,
          "durationTicks": 96,
          "midi": 42,
          "name": "F#2",
          "ticks": 31680,
          "time": 27.4999725,
          "velocity": 0.2992125984251969
        },
        {
          "duration": 0.08333325000000258,
          "durationTicks": 96,
          "midi": 51,
          "name": "D#3",
          "ticks": 31680,
          "time": 27.4999725,
          "velocity": 0.2992125984251969
        },
        {
          "duration": 0.08333325000000258,
          "durationTicks": 96,
          "midi": 59,
          "name": "B3",
          "ticks": 31680,
          "time": 27.4999725,
          "velocity": 0.2992125984251969
        },
        {
          "duration": 0.08333325000000258,
          "durationTicks": 96,
          "midi": 53,
          "name": "F3",
          "ticks": 31680,
          "time": 27.4999725,
          "velocity": 0.2992125984251969
        },
        {
          "duration": 0.08333325000000258,
          "durationTicks": 96,
          "midi": 40,
          "name": "E2",
          "ticks": 31680,
          "time": 27.4999725,
          "velocity": 0.2992125984251969
        },
        {
          "duration": 0.08333325000000258,
          "durationTicks": 96,
          "midi": 49,
          "name": "C#3",
          "ticks": 31680,
          "time": 27.4999725,
          "velocity": 0.2992125984251969
        },
        {
          "duration": 0.08333324999999903,
          "durationTicks": 96,
          "midi": 36,
          "name": "C2",
          "ticks": 31872,
          "time": 27.666639,
          "velocity": 0.2992125984251969
        },
        {
          "duration": 0.08333324999999903,
          "durationTicks": 96,
          "midi": 42,
          "name": "F#2",
          "ticks": 31872,
          "time": 27.666639,
          "velocity": 0.2992125984251969
        },
        {
          "duration": 0.08333325000000258,
          "durationTicks": 96,
          "midi": 42,
          "name": "F#2",
          "ticks": 32064,
          "time": 27.833305499999998,
          "velocity": 0.2992125984251969
        },
        {
          "duration": 0.08333325000000258,
          "durationTicks": 96,
          "midi": 40,
          "name": "E2",
          "ticks": 32064,
          "time": 27.833305499999998,
          "velocity": 0.2992125984251969
        },
        {
          "duration": 0.08333325000000258,
          "durationTicks": 96,
          "midi": 38,
          "name": "D2",
          "ticks": 32064,
          "time": 27.833305499999998,
          "velocity": 0.2992125984251969
        },
        {
          "duration": 0.08333324999999903,
          "durationTicks": 96,
          "midi": 51,
          "name": "D#3",
          "ticks": 32256,
          "time": 27.999972,
          "velocity": 0.2992125984251969
        },
        {
          "duration": 0.08333324999999903,
          "durationTicks": 96,
          "midi": 42,
          "name": "F#2",
          "ticks": 32256,
          "time": 27.999972,
          "velocity": 0.2992125984251969
        },
        {
          "duration": 0.08333324999999903,
          "durationTicks": 96,
          "midi": 49,
          "name": "C#3",
          "ticks": 32256,
          "time": 27.999972,
          "velocity": 0.2992125984251969
        },
        {
          "duration": 0.08333324999999903,
          "durationTicks": 96,
          "midi": 53,
          "name": "F3",
          "ticks": 32256,
          "time": 27.999972,
          "velocity": 0.2992125984251969
        },
        {
          "duration": 0.08333324999999903,
          "durationTicks": 96,
          "midi": 59,
          "name": "B3",
          "ticks": 32256,
          "time": 27.999972,
          "velocity": 0.2992125984251969
        },
        {
          "duration": 0.08333324999999903,
          "durationTicks": 96,
          "midi": 36,
          "name": "C2",
          "ticks": 32256,
          "time": 27.999972,
          "velocity": 0.2992125984251969
        },
        {
          "duration": 0.08333325000000258,
          "durationTicks": 96,
          "midi": 42,
          "name": "F#2",
          "ticks": 32448,
          "time": 28.166638499999998,
          "velocity": 0.2992125984251969
        },
        {
          "duration": 0.08333325000000258,
          "durationTicks": 96,
          "midi": 36,
          "name": "C2",
          "ticks": 32448,
          "time": 28.166638499999998,
          "velocity": 0.2992125984251969
        },
        {
          "duration": 0.08333324999999903,
          "durationTicks": 96,
          "midi": 51,
          "name": "D#3",
          "ticks": 32640,
          "time": 28.333305,
          "velocity": 0.2992125984251969
        },
        {
          "duration": 0.08333324999999903,
          "durationTicks": 96,
          "midi": 53,
          "name": "F3",
          "ticks": 32640,
          "time": 28.333305,
          "velocity": 0.2992125984251969
        },
        {
          "duration": 0.08333324999999903,
          "durationTicks": 96,
          "midi": 59,
          "name": "B3",
          "ticks": 32640,
          "time": 28.333305,
          "velocity": 0.2992125984251969
        },
        {
          "duration": 0.08333324999999903,
          "durationTicks": 96,
          "midi": 49,
          "name": "C#3",
          "ticks": 32640,
          "time": 28.333305,
          "velocity": 0.2992125984251969
        },
        {
          "duration": 0.08333324999999903,
          "durationTicks": 96,
          "midi": 42,
          "name": "F#2",
          "ticks": 32640,
          "time": 28.333305,
          "velocity": 0.2992125984251969
        },
        {
          "duration": 0.08333324999999903,
          "durationTicks": 96,
          "midi": 38,
          "name": "D2",
          "ticks": 32640,
          "time": 28.333305,
          "velocity": 0.2992125984251969
        },
        {
          "duration": 0.08333324999999903,
          "durationTicks": 96,
          "midi": 40,
          "name": "E2",
          "ticks": 32640,
          "time": 28.333305,
          "velocity": 0.2992125984251969
        },
        {
          "duration": 0.08333324999999903,
          "durationTicks": 96,
          "midi": 36,
          "name": "C2",
          "ticks": 32832,
          "time": 28.4999715,
          "velocity": 0.2992125984251969
        },
        {
          "duration": 0.08333324999999903,
          "durationTicks": 96,
          "midi": 42,
          "name": "F#2",
          "ticks": 32832,
          "time": 28.4999715,
          "velocity": 0.2992125984251969
        },
        {
          "duration": 0.08333324999999903,
          "durationTicks": 96,
          "midi": 36,
          "name": "C2",
          "ticks": 33024,
          "time": 28.666638,
          "velocity": 0.2992125984251969
        },
        {
          "duration": 0.08333324999999903,
          "durationTicks": 96,
          "midi": 42,
          "name": "F#2",
          "ticks": 33024,
          "time": 28.666638,
          "velocity": 0.2992125984251969
        },
        {
          "duration": 0.08333324999999903,
          "durationTicks": 96,
          "midi": 49,
          "name": "C#3",
          "ticks": 33216,
          "time": 28.8333045,
          "velocity": 0.2992125984251969
        },
        {
          "duration": 0.08333324999999903,
          "durationTicks": 96,
          "midi": 42,
          "name": "F#2",
          "ticks": 33216,
          "time": 28.8333045,
          "velocity": 0.2992125984251969
        },
        {
          "duration": 0.08333324999999903,
          "durationTicks": 96,
          "midi": 51,
          "name": "D#3",
          "ticks": 33216,
          "time": 28.8333045,
          "velocity": 0.2992125984251969
        },
        {
          "duration": 0.08333324999999903,
          "durationTicks": 96,
          "midi": 59,
          "name": "B3",
          "ticks": 33216,
          "time": 28.8333045,
          "velocity": 0.2992125984251969
        },
        {
          "duration": 0.08333324999999903,
          "durationTicks": 96,
          "midi": 53,
          "name": "F3",
          "ticks": 33216,
          "time": 28.8333045,
          "velocity": 0.2992125984251969
        },
        {
          "duration": 0.08333324999999903,
          "durationTicks": 96,
          "midi": 38,
          "name": "D2",
          "ticks": 33216,
          "time": 28.8333045,
          "velocity": 0.2992125984251969
        },
        {
          "duration": 0.08333324999999903,
          "durationTicks": 96,
          "midi": 40,
          "name": "E2",
          "ticks": 33216,
          "time": 28.8333045,
          "velocity": 0.2992125984251969
        },
        {
          "duration": 0.08333324999999903,
          "durationTicks": 96,
          "midi": 36,
          "name": "C2",
          "ticks": 33408,
          "time": 28.999971,
          "velocity": 0.2992125984251969
        },
        {
          "duration": 0.08333324999999903,
          "durationTicks": 96,
          "midi": 42,
          "name": "F#2",
          "ticks": 33408,
          "time": 28.999971,
          "velocity": 0.2992125984251969
        },
        {
          "duration": 0.08333324999999903,
          "durationTicks": 96,
          "midi": 42,
          "name": "F#2",
          "ticks": 33600,
          "time": 29.1666375,
          "velocity": 0.2992125984251969
        },
        {
          "duration": 0.08333324999999903,
          "durationTicks": 96,
          "midi": 40,
          "name": "E2",
          "ticks": 33600,
          "time": 29.1666375,
          "velocity": 0.2992125984251969
        },
        {
          "duration": 0.08333324999999903,
          "durationTicks": 96,
          "midi": 38,
          "name": "D2",
          "ticks": 33600,
          "time": 29.1666375,
          "velocity": 0.2992125984251969
        },
        {
          "duration": 0.08333325000000258,
          "durationTicks": 96,
          "midi": 36,
          "name": "C2",
          "ticks": 33792,
          "time": 29.333304,
          "velocity": 0.2992125984251969
        },
        {
          "duration": 0.08333325000000258,
          "durationTicks": 96,
          "midi": 49,
          "name": "C#3",
          "ticks": 33792,
          "time": 29.333304,
          "velocity": 0.2992125984251969
        },
        {
          "duration": 0.08333325000000258,
          "durationTicks": 96,
          "midi": 42,
          "name": "F#2",
          "ticks": 33792,
          "time": 29.333304,
          "velocity": 0.2992125984251969
        },
        {
          "duration": 0.08333325000000258,
          "durationTicks": 96,
          "midi": 51,
          "name": "D#3",
          "ticks": 33792,
          "time": 29.333304,
          "velocity": 0.2992125984251969
        },
        {
          "duration": 0.08333325000000258,
          "durationTicks": 96,
          "midi": 59,
          "name": "B3",
          "ticks": 33792,
          "time": 29.333304,
          "velocity": 0.2992125984251969
        },
        {
          "duration": 0.08333325000000258,
          "durationTicks": 96,
          "midi": 53,
          "name": "F3",
          "ticks": 33792,
          "time": 29.333304,
          "velocity": 0.2992125984251969
        },
        {
          "duration": 0.08333324999999903,
          "durationTicks": 96,
          "midi": 36,
          "name": "C2",
          "ticks": 33984,
          "time": 29.4999705,
          "velocity": 0.2992125984251969
        },
        {
          "duration": 0.08333324999999903,
          "durationTicks": 96,
          "midi": 42,
          "name": "F#2",
          "ticks": 33984,
          "time": 29.4999705,
          "velocity": 0.2992125984251969
        },
        {
          "duration": 0.08333325000000258,
          "durationTicks": 96,
          "midi": 53,
          "name": "F3",
          "ticks": 34176,
          "time": 29.666636999999998,
          "velocity": 0.2992125984251969
        },
        {
          "duration": 0.08333325000000258,
          "durationTicks": 96,
          "midi": 51,
          "name": "D#3",
          "ticks": 34176,
          "time": 29.666636999999998,
          "velocity": 0.2992125984251969
        },
        {
          "duration": 0.08333325000000258,
          "durationTicks": 96,
          "midi": 38,
          "name": "D2",
          "ticks": 34176,
          "time": 29.666636999999998,
          "velocity": 0.2992125984251969
        },
        {
          "duration": 0.08333325000000258,
          "durationTicks": 96,
          "midi": 42,
          "name": "F#2",
          "ticks": 34176,
          "time": 29.666636999999998,
          "velocity": 0.2992125984251969
        },
        {
          "duration": 0.08333325000000258,
          "durationTicks": 96,
          "midi": 59,
          "name": "B3",
          "ticks": 34176,
          "time": 29.666636999999998,
          "velocity": 0.2992125984251969
        },
        {
          "duration": 0.08333325000000258,
          "durationTicks": 96,
          "midi": 49,
          "name": "C#3",
          "ticks": 34176,
          "time": 29.666636999999998,
          "velocity": 0.2992125984251969
        },
        {
          "duration": 0.08333325000000258,
          "durationTicks": 96,
          "midi": 40,
          "name": "E2",
          "ticks": 34176,
          "time": 29.666636999999998,
          "velocity": 0.2992125984251969
        },
        {
          "duration": 0.08333324999999903,
          "durationTicks": 96,
          "midi": 42,
          "name": "F#2",
          "ticks": 34368,
          "time": 29.8333035,
          "velocity": 0.2992125984251969
        },
        {
          "duration": 0.08333324999999903,
          "durationTicks": 96,
          "midi": 36,
          "name": "C2",
          "ticks": 34368,
          "time": 29.8333035,
          "velocity": 0.2992125984251969
        },
        {
          "duration": 0.08333325000000258,
          "durationTicks": 96,
          "midi": 36,
          "name": "C2",
          "ticks": 34560,
          "time": 29.999969999999998,
          "velocity": 0.2992125984251969
        },
        {
          "duration": 0.08333325000000258,
          "durationTicks": 96,
          "midi": 42,
          "name": "F#2",
          "ticks": 34560,
          "time": 29.999969999999998,
          "velocity": 0.2992125984251969
        },
        {
          "duration": 0.08333324999999903,
          "durationTicks": 96,
          "midi": 38,
          "name": "D2",
          "ticks": 34752,
          "time": 30.1666365,
          "velocity": 0.2992125984251969
        },
        {
          "duration": 0.08333324999999903,
          "durationTicks": 96,
          "midi": 42,
          "name": "F#2",
          "ticks": 34752,
          "time": 30.1666365,
          "velocity": 0.2992125984251969
        },
        {
          "duration": 0.08333324999999903,
          "durationTicks": 96,
          "midi": 49,
          "name": "C#3",
          "ticks": 34752,
          "time": 30.1666365,
          "velocity": 0.2992125984251969
        },
        {
          "duration": 0.08333324999999903,
          "durationTicks": 96,
          "midi": 59,
          "name": "B3",
          "ticks": 34752,
          "time": 30.1666365,
          "velocity": 0.2992125984251969
        },
        {
          "duration": 0.08333324999999903,
          "durationTicks": 96,
          "midi": 40,
          "name": "E2",
          "ticks": 34752,
          "time": 30.1666365,
          "velocity": 0.2992125984251969
        },
        {
          "duration": 0.08333324999999903,
          "durationTicks": 96,
          "midi": 51,
          "name": "D#3",
          "ticks": 34752,
          "time": 30.1666365,
          "velocity": 0.2992125984251969
        },
        {
          "duration": 0.08333324999999903,
          "durationTicks": 96,
          "midi": 53,
          "name": "F3",
          "ticks": 34752,
          "time": 30.1666365,
          "velocity": 0.2992125984251969
        },
        {
          "duration": 0.08333324999999903,
          "durationTicks": 96,
          "midi": 42,
          "name": "F#2",
          "ticks": 34944,
          "time": 30.333303,
          "velocity": 0.2992125984251969
        },
        {
          "duration": 0.08333324999999903,
          "durationTicks": 96,
          "midi": 36,
          "name": "C2",
          "ticks": 34944,
          "time": 30.333303,
          "velocity": 0.2992125984251969
        },
        {
          "duration": 0.08333324999999903,
          "durationTicks": 96,
          "midi": 40,
          "name": "E2",
          "ticks": 35136,
          "time": 30.4999695,
          "velocity": 0.2992125984251969
        },
        {
          "duration": 0.08333324999999903,
          "durationTicks": 96,
          "midi": 42,
          "name": "F#2",
          "ticks": 35136,
          "time": 30.4999695,
          "velocity": 0.2992125984251969
        },
        {
          "duration": 0.08333324999999903,
          "durationTicks": 96,
          "midi": 38,
          "name": "D2",
          "ticks": 35136,
          "time": 30.4999695,
          "velocity": 0.2992125984251969
        },
        {
          "duration": 0.08333324999999903,
          "durationTicks": 96,
          "midi": 51,
          "name": "D#3",
          "ticks": 35328,
          "time": 30.666636,
          "velocity": 0.2992125984251969
        },
        {
          "duration": 0.08333324999999903,
          "durationTicks": 96,
          "midi": 49,
          "name": "C#3",
          "ticks": 35328,
          "time": 30.666636,
          "velocity": 0.2992125984251969
        },
        {
          "duration": 0.08333324999999903,
          "durationTicks": 96,
          "midi": 59,
          "name": "B3",
          "ticks": 35328,
          "time": 30.666636,
          "velocity": 0.2992125984251969
        },
        {
          "duration": 0.08333324999999903,
          "durationTicks": 96,
          "midi": 53,
          "name": "F3",
          "ticks": 35328,
          "time": 30.666636,
          "velocity": 0.2992125984251969
        },
        {
          "duration": 0.08333324999999903,
          "durationTicks": 96,
          "midi": 42,
          "name": "F#2",
          "ticks": 35328,
          "time": 30.666636,
          "velocity": 0.2992125984251969
        },
        {
          "duration": 0.08333324999999903,
          "durationTicks": 96,
          "midi": 36,
          "name": "C2",
          "ticks": 35328,
          "time": 30.666636,
          "velocity": 0.2992125984251969
        },
        {
          "duration": 0.08333324999999903,
          "durationTicks": 96,
          "midi": 36,
          "name": "C2",
          "ticks": 35520,
          "time": 30.8333025,
          "velocity": 0.2992125984251969
        },
        {
          "duration": 0.08333324999999903,
          "durationTicks": 96,
          "midi": 42,
          "name": "F#2",
          "ticks": 35520,
          "time": 30.8333025,
          "velocity": 0.2992125984251969
        },
        {
          "duration": 0.08333324999999903,
          "durationTicks": 96,
          "midi": 38,
          "name": "D2",
          "ticks": 35712,
          "time": 30.999969,
          "velocity": 0.2992125984251969
        },
        {
          "duration": 0.08333324999999903,
          "durationTicks": 96,
          "midi": 40,
          "name": "E2",
          "ticks": 35712,
          "time": 30.999969,
          "velocity": 0.2992125984251969
        },
        {
          "duration": 0.08333324999999903,
          "durationTicks": 96,
          "midi": 51,
          "name": "D#3",
          "ticks": 35712,
          "time": 30.999969,
          "velocity": 0.2992125984251969
        },
        {
          "duration": 0.08333324999999903,
          "durationTicks": 96,
          "midi": 53,
          "name": "F3",
          "ticks": 35712,
          "time": 30.999969,
          "velocity": 0.2992125984251969
        },
        {
          "duration": 0.08333324999999903,
          "durationTicks": 96,
          "midi": 49,
          "name": "C#3",
          "ticks": 35712,
          "time": 30.999969,
          "velocity": 0.2992125984251969
        },
        {
          "duration": 0.08333324999999903,
          "durationTicks": 96,
          "midi": 59,
          "name": "B3",
          "ticks": 35712,
          "time": 30.999969,
          "velocity": 0.2992125984251969
        },
        {
          "duration": 0.08333324999999903,
          "durationTicks": 96,
          "midi": 42,
          "name": "F#2",
          "ticks": 35712,
          "time": 30.999969,
          "velocity": 0.2992125984251969
        },
        {
          "duration": 0.08333325000000258,
          "durationTicks": 96,
          "midi": 42,
          "name": "F#2",
          "ticks": 35904,
          "time": 31.166635499999998,
          "velocity": 0.2992125984251969
        },
        {
          "duration": 0.08333325000000258,
          "durationTicks": 96,
          "midi": 36,
          "name": "C2",
          "ticks": 35904,
          "time": 31.166635499999998,
          "velocity": 0.2992125984251969
        },
        {
          "duration": 0.08333324999999903,
          "durationTicks": 96,
          "midi": 42,
          "name": "F#2",
          "ticks": 36096,
          "time": 31.333302,
          "velocity": 0.2992125984251969
        },
        {
          "duration": 0.08333324999999903,
          "durationTicks": 96,
          "midi": 36,
          "name": "C2",
          "ticks": 36096,
          "time": 31.333302,
          "velocity": 0.2992125984251969
        },
        {
          "duration": 0.08333325000000258,
          "durationTicks": 96,
          "midi": 51,
          "name": "D#3",
          "ticks": 36288,
          "time": 31.499968499999998,
          "velocity": 0.2992125984251969
        },
        {
          "duration": 0.08333325000000258,
          "durationTicks": 96,
          "midi": 38,
          "name": "D2",
          "ticks": 36288,
          "time": 31.499968499999998,
          "velocity": 0.2992125984251969
        },
        {
          "duration": 0.08333325000000258,
          "durationTicks": 96,
          "midi": 53,
          "name": "F3",
          "ticks": 36288,
          "time": 31.499968499999998,
          "velocity": 0.2992125984251969
        },
        {
          "duration": 0.08333325000000258,
          "durationTicks": 96,
          "midi": 49,
          "name": "C#3",
          "ticks": 36288,
          "time": 31.499968499999998,
          "velocity": 0.2992125984251969
        },
        {
          "duration": 0.08333325000000258,
          "durationTicks": 96,
          "midi": 42,
          "name": "F#2",
          "ticks": 36288,
          "time": 31.499968499999998,
          "velocity": 0.2992125984251969
        },
        {
          "duration": 0.08333325000000258,
          "durationTicks": 96,
          "midi": 40,
          "name": "E2",
          "ticks": 36288,
          "time": 31.499968499999998,
          "velocity": 0.2992125984251969
        },
        {
          "duration": 0.08333325000000258,
          "durationTicks": 96,
          "midi": 59,
          "name": "B3",
          "ticks": 36288,
          "time": 31.499968499999998,
          "velocity": 0.2992125984251969
        },
        {
          "duration": 0.08333324999999903,
          "durationTicks": 96,
          "midi": 42,
          "name": "F#2",
          "ticks": 36480,
          "time": 31.666635,
          "velocity": 0.2992125984251969
        },
        {
          "duration": 0.08333324999999903,
          "durationTicks": 96,
          "midi": 36,
          "name": "C2",
          "ticks": 36480,
          "time": 31.666635,
          "velocity": 0.2992125984251969
        },
        {
          "duration": 0.08333325000000258,
          "durationTicks": 96,
          "midi": 42,
          "name": "F#2",
          "ticks": 36672,
          "time": 31.833301499999997,
          "velocity": 0.2992125984251969
        },
        {
          "duration": 0.08333325000000258,
          "durationTicks": 96,
          "midi": 40,
          "name": "E2",
          "ticks": 36672,
          "time": 31.833301499999997,
          "velocity": 0.2992125984251969
        },
        {
          "duration": 0.08333325000000258,
          "durationTicks": 96,
          "midi": 38,
          "name": "D2",
          "ticks": 36672,
          "time": 31.833301499999997,
          "velocity": 0.2992125984251969
        },
        {
          "duration": 0.08333324999999903,
          "durationTicks": 96,
          "midi": 53,
          "name": "F3",
          "ticks": 36864,
          "time": 31.999968,
          "velocity": 0.2992125984251969
        },
        {
          "duration": 0.08333324999999903,
          "durationTicks": 96,
          "midi": 36,
          "name": "C2",
          "ticks": 36864,
          "time": 31.999968,
          "velocity": 0.2992125984251969
        },
        {
          "duration": 0.08333324999999903,
          "durationTicks": 96,
          "midi": 51,
          "name": "D#3",
          "ticks": 36864,
          "time": 31.999968,
          "velocity": 0.2992125984251969
        },
        {
          "duration": 0.08333324999999903,
          "durationTicks": 96,
          "midi": 49,
          "name": "C#3",
          "ticks": 36864,
          "time": 31.999968,
          "velocity": 0.2992125984251969
        },
        {
          "duration": 0.08333324999999903,
          "durationTicks": 96,
          "midi": 59,
          "name": "B3",
          "ticks": 36864,
          "time": 31.999968,
          "velocity": 0.2992125984251969
        },
        {
          "duration": 0.08333324999999903,
          "durationTicks": 96,
          "midi": 42,
          "name": "F#2",
          "ticks": 36864,
          "time": 31.999968,
          "velocity": 0.2992125984251969
        },
        {
          "duration": 0.08333324999999547,
          "durationTicks": 96,
          "midi": 42,
          "name": "F#2",
          "ticks": 37056,
          "time": 32.1666345,
          "velocity": 0.2992125984251969
        },
        {
          "duration": 0.08333324999999547,
          "durationTicks": 96,
          "midi": 36,
          "name": "C2",
          "ticks": 37056,
          "time": 32.1666345,
          "velocity": 0.2992125984251969
        },
        {
          "duration": 0.08333325000000258,
          "durationTicks": 96,
          "midi": 51,
          "name": "D#3",
          "ticks": 37248,
          "time": 32.333301,
          "velocity": 0.2992125984251969
        },
        {
          "duration": 0.08333325000000258,
          "durationTicks": 96,
          "midi": 59,
          "name": "B3",
          "ticks": 37248,
          "time": 32.333301,
          "velocity": 0.2992125984251969
        },
        {
          "duration": 0.08333325000000258,
          "durationTicks": 96,
          "midi": 49,
          "name": "C#3",
          "ticks": 37248,
          "time": 32.333301,
          "velocity": 0.2992125984251969
        },
        {
          "duration": 0.08333325000000258,
          "durationTicks": 96,
          "midi": 38,
          "name": "D2",
          "ticks": 37248,
          "time": 32.333301,
          "velocity": 0.2992125984251969
        },
        {
          "duration": 0.08333325000000258,
          "durationTicks": 96,
          "midi": 40,
          "name": "E2",
          "ticks": 37248,
          "time": 32.333301,
          "velocity": 0.2992125984251969
        },
        {
          "duration": 0.08333325000000258,
          "durationTicks": 96,
          "midi": 53,
          "name": "F3",
          "ticks": 37248,
          "time": 32.333301,
          "velocity": 0.2992125984251969
        },
        {
          "duration": 0.08333325000000258,
          "durationTicks": 96,
          "midi": 42,
          "name": "F#2",
          "ticks": 37248,
          "time": 32.333301,
          "velocity": 0.2992125984251969
        },
        {
          "duration": 0.08333325000000258,
          "durationTicks": 96,
          "midi": 36,
          "name": "C2",
          "ticks": 37440,
          "time": 32.4999675,
          "velocity": 0.2992125984251969
        },
        {
          "duration": 0.08333325000000258,
          "durationTicks": 96,
          "midi": 42,
          "name": "F#2",
          "ticks": 37440,
          "time": 32.4999675,
          "velocity": 0.2992125984251969
        },
        {
          "duration": 0.08333324999999547,
          "durationTicks": 96,
          "midi": 42,
          "name": "F#2",
          "ticks": 37632,
          "time": 32.666634,
          "velocity": 0.2992125984251969
        },
        {
          "duration": 0.08333324999999547,
          "durationTicks": 96,
          "midi": 36,
          "name": "C2",
          "ticks": 37632,
          "time": 32.666634,
          "velocity": 0.2992125984251969
        },
        {
          "duration": 0.08333325000000258,
          "durationTicks": 96,
          "midi": 51,
          "name": "D#3",
          "ticks": 37824,
          "time": 32.8333005,
          "velocity": 0.2992125984251969
        },
        {
          "duration": 0.08333325000000258,
          "durationTicks": 96,
          "midi": 59,
          "name": "B3",
          "ticks": 37824,
          "time": 32.8333005,
          "velocity": 0.2992125984251969
        },
        {
          "duration": 0.08333325000000258,
          "durationTicks": 96,
          "midi": 42,
          "name": "F#2",
          "ticks": 37824,
          "time": 32.8333005,
          "velocity": 0.2992125984251969
        },
        {
          "duration": 0.08333325000000258,
          "durationTicks": 96,
          "midi": 40,
          "name": "E2",
          "ticks": 37824,
          "time": 32.8333005,
          "velocity": 0.2992125984251969
        },
        {
          "duration": 0.08333325000000258,
          "durationTicks": 96,
          "midi": 49,
          "name": "C#3",
          "ticks": 37824,
          "time": 32.8333005,
          "velocity": 0.2992125984251969
        },
        {
          "duration": 0.08333325000000258,
          "durationTicks": 96,
          "midi": 38,
          "name": "D2",
          "ticks": 37824,
          "time": 32.8333005,
          "velocity": 0.2992125984251969
        },
        {
          "duration": 0.08333325000000258,
          "durationTicks": 96,
          "midi": 53,
          "name": "F3",
          "ticks": 37824,
          "time": 32.8333005,
          "velocity": 0.2992125984251969
        },
        {
          "duration": 0.08333325000000258,
          "durationTicks": 96,
          "midi": 36,
          "name": "C2",
          "ticks": 38016,
          "time": 32.999967,
          "velocity": 0.2992125984251969
        },
        {
          "duration": 0.08333325000000258,
          "durationTicks": 96,
          "midi": 42,
          "name": "F#2",
          "ticks": 38016,
          "time": 32.999967,
          "velocity": 0.2992125984251969
        },
        {
          "duration": 0.08333325000000258,
          "durationTicks": 96,
          "midi": 40,
          "name": "E2",
          "ticks": 38208,
          "time": 33.166633499999996,
          "velocity": 0.2992125984251969
        },
        {
          "duration": 0.08333325000000258,
          "durationTicks": 96,
          "midi": 42,
          "name": "F#2",
          "ticks": 38208,
          "time": 33.166633499999996,
          "velocity": 0.2992125984251969
        },
        {
          "duration": 0.08333325000000258,
          "durationTicks": 96,
          "midi": 38,
          "name": "D2",
          "ticks": 38208,
          "time": 33.166633499999996,
          "velocity": 0.2992125984251969
        },
        {
          "duration": 0.08333324999999547,
          "durationTicks": 96,
          "midi": 51,
          "name": "D#3",
          "ticks": 38400,
          "time": 33.3333,
          "velocity": 0.2992125984251969
        },
        {
          "duration": 0.08333324999999547,
          "durationTicks": 96,
          "midi": 36,
          "name": "C2",
          "ticks": 38400,
          "time": 33.3333,
          "velocity": 0.2992125984251969
        },
        {
          "duration": 0.08333324999999547,
          "durationTicks": 96,
          "midi": 42,
          "name": "F#2",
          "ticks": 38400,
          "time": 33.3333,
          "velocity": 0.2992125984251969
        },
        {
          "duration": 0.08333324999999547,
          "durationTicks": 96,
          "midi": 49,
          "name": "C#3",
          "ticks": 38400,
          "time": 33.3333,
          "velocity": 0.2992125984251969
        },
        {
          "duration": 0.08333324999999547,
          "durationTicks": 96,
          "midi": 59,
          "name": "B3",
          "ticks": 38400,
          "time": 33.3333,
          "velocity": 0.2992125984251969
        },
        {
          "duration": 0.08333324999999547,
          "durationTicks": 96,
          "midi": 53,
          "name": "F3",
          "ticks": 38400,
          "time": 33.3333,
          "velocity": 0.2992125984251969
        },
        {
          "duration": 0.08333325000000258,
          "durationTicks": 96,
          "midi": 42,
          "name": "F#2",
          "ticks": 38592,
          "time": 33.4999665,
          "velocity": 0.2992125984251969
        },
        {
          "duration": 0.08333325000000258,
          "durationTicks": 96,
          "midi": 36,
          "name": "C2",
          "ticks": 38592,
          "time": 33.4999665,
          "velocity": 0.2992125984251969
        },
        {
          "duration": 0.08333325000000258,
          "durationTicks": 96,
          "midi": 42,
          "name": "F#2",
          "ticks": 38784,
          "time": 33.666633,
          "velocity": 0.2992125984251969
        },
        {
          "duration": 0.08333325000000258,
          "durationTicks": 96,
          "midi": 51,
          "name": "D#3",
          "ticks": 38784,
          "time": 33.666633,
          "velocity": 0.2992125984251969
        },
        {
          "duration": 0.08333325000000258,
          "durationTicks": 96,
          "midi": 53,
          "name": "F3",
          "ticks": 38784,
          "time": 33.666633,
          "velocity": 0.2992125984251969
        },
        {
          "duration": 0.08333325000000258,
          "durationTicks": 96,
          "midi": 40,
          "name": "E2",
          "ticks": 38784,
          "time": 33.666633,
          "velocity": 0.2992125984251969
        },
        {
          "duration": 0.08333325000000258,
          "durationTicks": 96,
          "midi": 38,
          "name": "D2",
          "ticks": 38784,
          "time": 33.666633,
          "velocity": 0.2992125984251969
        },
        {
          "duration": 0.08333325000000258,
          "durationTicks": 96,
          "midi": 59,
          "name": "B3",
          "ticks": 38784,
          "time": 33.666633,
          "velocity": 0.2992125984251969
        },
        {
          "duration": 0.08333325000000258,
          "durationTicks": 96,
          "midi": 49,
          "name": "C#3",
          "ticks": 38784,
          "time": 33.666633,
          "velocity": 0.2992125984251969
        },
        {
          "duration": 0.08333324999999547,
          "durationTicks": 96,
          "midi": 42,
          "name": "F#2",
          "ticks": 38976,
          "time": 33.8332995,
          "velocity": 0.2992125984251969
        },
        {
          "duration": 0.08333324999999547,
          "durationTicks": 96,
          "midi": 36,
          "name": "C2",
          "ticks": 38976,
          "time": 33.8332995,
          "velocity": 0.2992125984251969
        },
        {
          "duration": 0.08333324999999547,
          "durationTicks": 96,
          "midi": 36,
          "name": "C2",
          "ticks": 39168,
          "time": 33.999966,
          "velocity": 0.2992125984251969
        },
        {
          "duration": 0.08333324999999547,
          "durationTicks": 96,
          "midi": 42,
          "name": "F#2",
          "ticks": 39168,
          "time": 33.999966,
          "velocity": 0.2992125984251969
        },
        {
          "duration": 0.08333325000000258,
          "durationTicks": 96,
          "midi": 38,
          "name": "D2",
          "ticks": 39360,
          "time": 34.1666325,
          "velocity": 0.2992125984251969
        },
        {
          "duration": 0.08333325000000258,
          "durationTicks": 96,
          "midi": 51,
          "name": "D#3",
          "ticks": 39360,
          "time": 34.1666325,
          "velocity": 0.2992125984251969
        },
        {
          "duration": 0.08333325000000258,
          "durationTicks": 96,
          "midi": 40,
          "name": "E2",
          "ticks": 39360,
          "time": 34.1666325,
          "velocity": 0.2992125984251969
        },
        {
          "duration": 0.08333325000000258,
          "durationTicks": 96,
          "midi": 53,
          "name": "F3",
          "ticks": 39360,
          "time": 34.1666325,
          "velocity": 0.2992125984251969
        },
        {
          "duration": 0.08333325000000258,
          "durationTicks": 96,
          "midi": 59,
          "name": "B3",
          "ticks": 39360,
          "time": 34.1666325,
          "velocity": 0.2992125984251969
        },
        {
          "duration": 0.08333325000000258,
          "durationTicks": 96,
          "midi": 49,
          "name": "C#3",
          "ticks": 39360,
          "time": 34.1666325,
          "velocity": 0.2992125984251969
        },
        {
          "duration": 0.08333325000000258,
          "durationTicks": 96,
          "midi": 42,
          "name": "F#2",
          "ticks": 39360,
          "time": 34.1666325,
          "velocity": 0.2992125984251969
        },
        {
          "duration": 0.08333325000000258,
          "durationTicks": 96,
          "midi": 36,
          "name": "C2",
          "ticks": 39552,
          "time": 34.333299,
          "velocity": 0.2992125984251969
        },
        {
          "duration": 0.08333325000000258,
          "durationTicks": 96,
          "midi": 42,
          "name": "F#2",
          "ticks": 39552,
          "time": 34.333299,
          "velocity": 0.2992125984251969
        },
        {
          "duration": 0.08333324999999547,
          "durationTicks": 96,
          "midi": 40,
          "name": "E2",
          "ticks": 39744,
          "time": 34.4999655,
          "velocity": 0.2992125984251969
        },
        {
          "duration": 0.08333324999999547,
          "durationTicks": 96,
          "midi": 38,
          "name": "D2",
          "ticks": 39744,
          "time": 34.4999655,
          "velocity": 0.2992125984251969
        },
        {
          "duration": 0.08333324999999547,
          "durationTicks": 96,
          "midi": 42,
          "name": "F#2",
          "ticks": 39744,
          "time": 34.4999655,
          "velocity": 0.2992125984251969
        },
        {
          "duration": 0.08333325000000258,
          "durationTicks": 96,
          "midi": 51,
          "name": "D#3",
          "ticks": 39936,
          "time": 34.666632,
          "velocity": 0.2992125984251969
        },
        {
          "duration": 0.08333325000000258,
          "durationTicks": 96,
          "midi": 59,
          "name": "B3",
          "ticks": 39936,
          "time": 34.666632,
          "velocity": 0.2992125984251969
        },
        {
          "duration": 0.08333325000000258,
          "durationTicks": 96,
          "midi": 49,
          "name": "C#3",
          "ticks": 39936,
          "time": 34.666632,
          "velocity": 0.2992125984251969
        },
        {
          "duration": 0.08333325000000258,
          "durationTicks": 96,
          "midi": 42,
          "name": "F#2",
          "ticks": 39936,
          "time": 34.666632,
          "velocity": 0.2992125984251969
        },
        {
          "duration": 0.08333325000000258,
          "durationTicks": 96,
          "midi": 36,
          "name": "C2",
          "ticks": 39936,
          "time": 34.666632,
          "velocity": 0.2992125984251969
        },
        {
          "duration": 0.08333325000000258,
          "durationTicks": 96,
          "midi": 53,
          "name": "F3",
          "ticks": 39936,
          "time": 34.666632,
          "velocity": 0.2992125984251969
        },
        {
          "duration": 0.08333325000000258,
          "durationTicks": 96,
          "midi": 36,
          "name": "C2",
          "ticks": 40128,
          "time": 34.8332985,
          "velocity": 0.2992125984251969
        },
        {
          "duration": 0.08333325000000258,
          "durationTicks": 96,
          "midi": 42,
          "name": "F#2",
          "ticks": 40128,
          "time": 34.8332985,
          "velocity": 0.2992125984251969
        },
        {
          "duration": 0.08333325000000258,
          "durationTicks": 96,
          "midi": 53,
          "name": "F3",
          "ticks": 40320,
          "time": 34.999964999999996,
          "velocity": 0.2992125984251969
        },
        {
          "duration": 0.08333325000000258,
          "durationTicks": 96,
          "midi": 49,
          "name": "C#3",
          "ticks": 40320,
          "time": 34.999964999999996,
          "velocity": 0.2992125984251969
        },
        {
          "duration": 0.08333325000000258,
          "durationTicks": 96,
          "midi": 40,
          "name": "E2",
          "ticks": 40320,
          "time": 34.999964999999996,
          "velocity": 0.2992125984251969
        },
        {
          "duration": 0.08333325000000258,
          "durationTicks": 96,
          "midi": 42,
          "name": "F#2",
          "ticks": 40320,
          "time": 34.999964999999996,
          "velocity": 0.2992125984251969
        },
        {
          "duration": 0.08333325000000258,
          "durationTicks": 96,
          "midi": 51,
          "name": "D#3",
          "ticks": 40320,
          "time": 34.999964999999996,
          "velocity": 0.2992125984251969
        },
        {
          "duration": 0.08333325000000258,
          "durationTicks": 96,
          "midi": 38,
          "name": "D2",
          "ticks": 40320,
          "time": 34.999964999999996,
          "velocity": 0.2992125984251969
        },
        {
          "duration": 0.08333325000000258,
          "durationTicks": 96,
          "midi": 59,
          "name": "B3",
          "ticks": 40320,
          "time": 34.999964999999996,
          "velocity": 0.2992125984251969
        },
        {
          "duration": 0.08333324999999547,
          "durationTicks": 96,
          "midi": 36,
          "name": "C2",
          "ticks": 40512,
          "time": 35.1666315,
          "velocity": 0.2992125984251969
        },
        {
          "duration": 0.08333324999999547,
          "durationTicks": 96,
          "midi": 42,
          "name": "F#2",
          "ticks": 40512,
          "time": 35.1666315,
          "velocity": 0.2992125984251969
        },
        {
          "duration": 0.08333325000000258,
          "durationTicks": 96,
          "midi": 42,
          "name": "F#2",
          "ticks": 40704,
          "time": 35.333298,
          "velocity": 0.2992125984251969
        },
        {
          "duration": 0.08333325000000258,
          "durationTicks": 96,
          "midi": 36,
          "name": "C2",
          "ticks": 40704,
          "time": 35.333298,
          "velocity": 0.2992125984251969
        },
        {
          "duration": 0.08333325000000258,
          "durationTicks": 96,
          "midi": 42,
          "name": "F#2",
          "ticks": 40896,
          "time": 35.4999645,
          "velocity": 0.2992125984251969
        },
        {
          "duration": 0.08333325000000258,
          "durationTicks": 96,
          "midi": 59,
          "name": "B3",
          "ticks": 40896,
          "time": 35.4999645,
          "velocity": 0.2992125984251969
        },
        {
          "duration": 0.08333325000000258,
          "durationTicks": 96,
          "midi": 40,
          "name": "E2",
          "ticks": 40896,
          "time": 35.4999645,
          "velocity": 0.2992125984251969
        },
        {
          "duration": 0.08333325000000258,
          "durationTicks": 96,
          "midi": 38,
          "name": "D2",
          "ticks": 40896,
          "time": 35.4999645,
          "velocity": 0.2992125984251969
        },
        {
          "duration": 0.08333325000000258,
          "durationTicks": 96,
          "midi": 49,
          "name": "C#3",
          "ticks": 40896,
          "time": 35.4999645,
          "velocity": 0.2992125984251969
        },
        {
          "duration": 0.08333325000000258,
          "durationTicks": 96,
          "midi": 53,
          "name": "F3",
          "ticks": 40896,
          "time": 35.4999645,
          "velocity": 0.2992125984251969
        },
        {
          "duration": 0.08333325000000258,
          "durationTicks": 96,
          "midi": 51,
          "name": "D#3",
          "ticks": 40896,
          "time": 35.4999645,
          "velocity": 0.2992125984251969
        },
        {
          "duration": 0.08333324999999547,
          "durationTicks": 96,
          "midi": 36,
          "name": "C2",
          "ticks": 41088,
          "time": 35.666631,
          "velocity": 0.2992125984251969
        },
        {
          "duration": 0.08333324999999547,
          "durationTicks": 96,
          "midi": 42,
          "name": "F#2",
          "ticks": 41088,
          "time": 35.666631,
          "velocity": 0.2992125984251969
        },
        {
          "duration": 0.08333324999999547,
          "durationTicks": 96,
          "midi": 40,
          "name": "E2",
          "ticks": 41280,
          "time": 35.8332975,
          "velocity": 0.2992125984251969
        },
        {
          "duration": 0.08333324999999547,
          "durationTicks": 96,
          "midi": 42,
          "name": "F#2",
          "ticks": 41280,
          "time": 35.8332975,
          "velocity": 0.2992125984251969
        },
        {
          "duration": 0.08333324999999547,
          "durationTicks": 96,
          "midi": 38,
          "name": "D2",
          "ticks": 41280,
          "time": 35.8332975,
          "velocity": 0.2992125984251969
        },
        {
          "duration": 0.08333325000000258,
          "durationTicks": 96,
          "midi": 42,
          "name": "F#2",
          "ticks": 41472,
          "time": 35.999964,
          "velocity": 0.2992125984251969
        },
        {
          "duration": 0.08333325000000258,
          "durationTicks": 96,
          "midi": 49,
          "name": "C#3",
          "ticks": 41472,
          "time": 35.999964,
          "velocity": 0.2992125984251969
        },
        {
          "duration": 0.08333325000000258,
          "durationTicks": 96,
          "midi": 51,
          "name": "D#3",
          "ticks": 41472,
          "time": 35.999964,
          "velocity": 0.2992125984251969
        },
        {
          "duration": 0.08333325000000258,
          "durationTicks": 96,
          "midi": 53,
          "name": "F3",
          "ticks": 41472,
          "time": 35.999964,
          "velocity": 0.2992125984251969
        },
        {
          "duration": 0.08333325000000258,
          "durationTicks": 96,
          "midi": 59,
          "name": "B3",
          "ticks": 41472,
          "time": 35.999964,
          "velocity": 0.2992125984251969
        },
        {
          "duration": 0.08333325000000258,
          "durationTicks": 96,
          "midi": 36,
          "name": "C2",
          "ticks": 41472,
          "time": 35.999964,
          "velocity": 0.2992125984251969
        },
        {
          "duration": 0.08333325000000258,
          "durationTicks": 96,
          "midi": 42,
          "name": "F#2",
          "ticks": 41664,
          "time": 36.1666305,
          "velocity": 0.2992125984251969
        },
        {
          "duration": 0.08333325000000258,
          "durationTicks": 96,
          "midi": 36,
          "name": "C2",
          "ticks": 41664,
          "time": 36.1666305,
          "velocity": 0.2992125984251969
        },
        {
          "duration": 0.08333324999999547,
          "durationTicks": 96,
          "midi": 51,
          "name": "D#3",
          "ticks": 41856,
          "time": 36.333297,
          "velocity": 0.2992125984251969
        },
        {
          "duration": 0.08333324999999547,
          "durationTicks": 96,
          "midi": 49,
          "name": "C#3",
          "ticks": 41856,
          "time": 36.333297,
          "velocity": 0.2992125984251969
        },
        {
          "duration": 0.08333324999999547,
          "durationTicks": 96,
          "midi": 40,
          "name": "E2",
          "ticks": 41856,
          "time": 36.333297,
          "velocity": 0.2992125984251969
        },
        {
          "duration": 0.08333324999999547,
          "durationTicks": 96,
          "midi": 59,
          "name": "B3",
          "ticks": 41856,
          "time": 36.333297,
          "velocity": 0.2992125984251969
        },
        {
          "duration": 0.08333324999999547,
          "durationTicks": 96,
          "midi": 38,
          "name": "D2",
          "ticks": 41856,
          "time": 36.333297,
          "velocity": 0.2992125984251969
        },
        {
          "duration": 0.08333324999999547,
          "durationTicks": 96,
          "midi": 42,
          "name": "F#2",
          "ticks": 41856,
          "time": 36.333297,
          "velocity": 0.2992125984251969
        },
        {
          "duration": 0.08333324999999547,
          "durationTicks": 96,
          "midi": 53,
          "name": "F3",
          "ticks": 41856,
          "time": 36.333297,
          "velocity": 0.2992125984251969
        },
        {
          "duration": 0.08333325000000258,
          "durationTicks": 96,
          "midi": 42,
          "name": "F#2",
          "ticks": 42048,
          "time": 36.4999635,
          "velocity": 0.2992125984251969
        },
        {
          "duration": 0.08333325000000258,
          "durationTicks": 96,
          "midi": 36,
          "name": "C2",
          "ticks": 42048,
          "time": 36.4999635,
          "velocity": 0.2992125984251969
        },
        {
          "duration": 0.08333325000000258,
          "durationTicks": 96,
          "midi": 36,
          "name": "C2",
          "ticks": 42240,
          "time": 36.66663,
          "velocity": 0.2992125984251969
        },
        {
          "duration": 0.08333325000000258,
          "durationTicks": 96,
          "midi": 42,
          "name": "F#2",
          "ticks": 42240,
          "time": 36.66663,
          "velocity": 0.2992125984251969
        },
        {
          "duration": 0.08333325000000258,
          "durationTicks": 96,
          "midi": 51,
          "name": "D#3",
          "ticks": 42432,
          "time": 36.833296499999996,
          "velocity": 0.2992125984251969
        },
        {
          "duration": 0.08333325000000258,
          "durationTicks": 96,
          "midi": 53,
          "name": "F3",
          "ticks": 42432,
          "time": 36.833296499999996,
          "velocity": 0.2992125984251969
        },
        {
          "duration": 0.08333325000000258,
          "durationTicks": 96,
          "midi": 59,
          "name": "B3",
          "ticks": 42432,
          "time": 36.833296499999996,
          "velocity": 0.2992125984251969
        },
        {
          "duration": 0.08333325000000258,
          "durationTicks": 96,
          "midi": 42,
          "name": "F#2",
          "ticks": 42432,
          "time": 36.833296499999996,
          "velocity": 0.2992125984251969
        },
        {
          "duration": 0.08333325000000258,
          "durationTicks": 96,
          "midi": 38,
          "name": "D2",
          "ticks": 42432,
          "time": 36.833296499999996,
          "velocity": 0.2992125984251969
        },
        {
          "duration": 0.08333325000000258,
          "durationTicks": 96,
          "midi": 49,
          "name": "C#3",
          "ticks": 42432,
          "time": 36.833296499999996,
          "velocity": 0.2992125984251969
        },
        {
          "duration": 0.08333325000000258,
          "durationTicks": 96,
          "midi": 40,
          "name": "E2",
          "ticks": 42432,
          "time": 36.833296499999996,
          "velocity": 0.2992125984251969
        },
        {
          "duration": 0.08333324999999547,
          "durationTicks": 96,
          "midi": 36,
          "name": "C2",
          "ticks": 42624,
          "time": 36.999963,
          "velocity": 0.2992125984251969
        },
        {
          "duration": 0.08333324999999547,
          "durationTicks": 96,
          "midi": 42,
          "name": "F#2",
          "ticks": 42624,
          "time": 36.999963,
          "velocity": 0.2992125984251969
        },
        {
          "duration": 0.08333325000000258,
          "durationTicks": 96,
          "midi": 38,
          "name": "D2",
          "ticks": 42816,
          "time": 37.1666295,
          "velocity": 0.2992125984251969
        },
        {
          "duration": 0.08333325000000258,
          "durationTicks": 96,
          "midi": 40,
          "name": "E2",
          "ticks": 42816,
          "time": 37.1666295,
          "velocity": 0.2992125984251969
        },
        {
          "duration": 0.08333325000000258,
          "durationTicks": 96,
          "midi": 42,
          "name": "F#2",
          "ticks": 42816,
          "time": 37.1666295,
          "velocity": 0.2992125984251969
        },
        {
          "duration": 0.08333325000000258,
          "durationTicks": 96,
          "midi": 53,
          "name": "F3",
          "ticks": 43008,
          "time": 37.333296,
          "velocity": 0.2992125984251969
        },
        {
          "duration": 0.08333325000000258,
          "durationTicks": 96,
          "midi": 49,
          "name": "C#3",
          "ticks": 43008,
          "time": 37.333296,
          "velocity": 0.2992125984251969
        },
        {
          "duration": 0.08333325000000258,
          "durationTicks": 96,
          "midi": 59,
          "name": "B3",
          "ticks": 43008,
          "time": 37.333296,
          "velocity": 0.2992125984251969
        },
        {
          "duration": 0.08333325000000258,
          "durationTicks": 96,
          "midi": 36,
          "name": "C2",
          "ticks": 43008,
          "time": 37.333296,
          "velocity": 0.2992125984251969
        },
        {
          "duration": 0.08333325000000258,
          "durationTicks": 96,
          "midi": 42,
          "name": "F#2",
          "ticks": 43008,
          "time": 37.333296,
          "velocity": 0.2992125984251969
        },
        {
          "duration": 0.08333325000000258,
          "durationTicks": 96,
          "midi": 51,
          "name": "D#3",
          "ticks": 43008,
          "time": 37.333296,
          "velocity": 0.2992125984251969
        },
        {
          "duration": 0.08333324999999547,
          "durationTicks": 96,
          "midi": 42,
          "name": "F#2",
          "ticks": 43200,
          "time": 37.4999625,
          "velocity": 0.2992125984251969
        },
        {
          "duration": 0.08333324999999547,
          "durationTicks": 96,
          "midi": 36,
          "name": "C2",
          "ticks": 43200,
          "time": 37.4999625,
          "velocity": 0.2992125984251969
        },
        {
          "duration": 0.08333324999999547,
          "durationTicks": 96,
          "midi": 51,
          "name": "D#3",
          "ticks": 43392,
          "time": 37.666629,
          "velocity": 0.2992125984251969
        },
        {
          "duration": 0.08333324999999547,
          "durationTicks": 96,
          "midi": 42,
          "name": "F#2",
          "ticks": 43392,
          "time": 37.666629,
          "velocity": 0.2992125984251969
        },
        {
          "duration": 0.08333324999999547,
          "durationTicks": 96,
          "midi": 53,
          "name": "F3",
          "ticks": 43392,
          "time": 37.666629,
          "velocity": 0.2992125984251969
        },
        {
          "duration": 0.08333324999999547,
          "durationTicks": 96,
          "midi": 40,
          "name": "E2",
          "ticks": 43392,
          "time": 37.666629,
          "velocity": 0.2992125984251969
        },
        {
          "duration": 0.08333324999999547,
          "durationTicks": 96,
          "midi": 59,
          "name": "B3",
          "ticks": 43392,
          "time": 37.666629,
          "velocity": 0.2992125984251969
        },
        {
          "duration": 0.08333324999999547,
          "durationTicks": 96,
          "midi": 38,
          "name": "D2",
          "ticks": 43392,
          "time": 37.666629,
          "velocity": 0.2992125984251969
        },
        {
          "duration": 0.08333324999999547,
          "durationTicks": 96,
          "midi": 49,
          "name": "C#3",
          "ticks": 43392,
          "time": 37.666629,
          "velocity": 0.2992125984251969
        },
        {
          "duration": 0.08333325000000258,
          "durationTicks": 96,
          "midi": 42,
          "name": "F#2",
          "ticks": 43584,
          "time": 37.8332955,
          "velocity": 0.2992125984251969
        },
        {
          "duration": 0.08333325000000258,
          "durationTicks": 96,
          "midi": 36,
          "name": "C2",
          "ticks": 43584,
          "time": 37.8332955,
          "velocity": 0.2992125984251969
        },
        {
          "duration": 0.08333325000000258,
          "durationTicks": 96,
          "midi": 36,
          "name": "C2",
          "ticks": 43776,
          "time": 37.999962,
          "velocity": 0.2992125984251969
        },
        {
          "duration": 0.08333325000000258,
          "durationTicks": 96,
          "midi": 42,
          "name": "F#2",
          "ticks": 43776,
          "time": 37.999962,
          "velocity": 0.2992125984251969
        },
        {
          "duration": 0.08333324999999547,
          "durationTicks": 96,
          "midi": 51,
          "name": "D#3",
          "ticks": 43968,
          "time": 38.1666285,
          "velocity": 0.2992125984251969
        },
        {
          "duration": 0.08333324999999547,
          "durationTicks": 96,
          "midi": 42,
          "name": "F#2",
          "ticks": 43968,
          "time": 38.1666285,
          "velocity": 0.2992125984251969
        },
        {
          "duration": 0.08333324999999547,
          "durationTicks": 96,
          "midi": 49,
          "name": "C#3",
          "ticks": 43968,
          "time": 38.1666285,
          "velocity": 0.2992125984251969
        },
        {
          "duration": 0.08333324999999547,
          "durationTicks": 96,
          "midi": 53,
          "name": "F3",
          "ticks": 43968,
          "time": 38.1666285,
          "velocity": 0.2992125984251969
        },
        {
          "duration": 0.08333324999999547,
          "durationTicks": 96,
          "midi": 59,
          "name": "B3",
          "ticks": 43968,
          "time": 38.1666285,
          "velocity": 0.2992125984251969
        },
        {
          "duration": 0.08333324999999547,
          "durationTicks": 96,
          "midi": 38,
          "name": "D2",
          "ticks": 43968,
          "time": 38.1666285,
          "velocity": 0.2992125984251969
        },
        {
          "duration": 0.08333324999999547,
          "durationTicks": 96,
          "midi": 40,
          "name": "E2",
          "ticks": 43968,
          "time": 38.1666285,
          "velocity": 0.2992125984251969
        },
        {
          "duration": 0.08333325000000258,
          "durationTicks": 96,
          "midi": 42,
          "name": "F#2",
          "ticks": 44160,
          "time": 38.333295,
          "velocity": 0.2992125984251969
        },
        {
          "duration": 0.08333325000000258,
          "durationTicks": 96,
          "midi": 36,
          "name": "C2",
          "ticks": 44160,
          "time": 38.333295,
          "velocity": 0.2992125984251969
        },
        {
          "duration": 0.08333325000000258,
          "durationTicks": 96,
          "midi": 38,
          "name": "D2",
          "ticks": 44352,
          "time": 38.4999615,
          "velocity": 0.2992125984251969
        },
        {
          "duration": 0.08333325000000258,
          "durationTicks": 96,
          "midi": 42,
          "name": "F#2",
          "ticks": 44352,
          "time": 38.4999615,
          "velocity": 0.2992125984251969
        },
        {
          "duration": 0.08333325000000258,
          "durationTicks": 96,
          "midi": 40,
          "name": "E2",
          "ticks": 44352,
          "time": 38.4999615,
          "velocity": 0.2992125984251969
        },
        {
          "duration": 0.08333325000000258,
          "durationTicks": 96,
          "midi": 42,
          "name": "F#2",
          "ticks": 44544,
          "time": 38.666627999999996,
          "velocity": 0.2992125984251969
        },
        {
          "duration": 0.08333325000000258,
          "durationTicks": 96,
          "midi": 51,
          "name": "D#3",
          "ticks": 44544,
          "time": 38.666627999999996,
          "velocity": 0.2992125984251969
        },
        {
          "duration": 0.08333325000000258,
          "durationTicks": 96,
          "midi": 49,
          "name": "C#3",
          "ticks": 44544,
          "time": 38.666627999999996,
          "velocity": 0.2992125984251969
        },
        {
          "duration": 0.08333325000000258,
          "durationTicks": 96,
          "midi": 53,
          "name": "F3",
          "ticks": 44544,
          "time": 38.666627999999996,
          "velocity": 0.2992125984251969
        },
        {
          "duration": 0.08333325000000258,
          "durationTicks": 96,
          "midi": 59,
          "name": "B3",
          "ticks": 44544,
          "time": 38.666627999999996,
          "velocity": 0.2992125984251969
        },
        {
          "duration": 0.08333325000000258,
          "durationTicks": 96,
          "midi": 36,
          "name": "C2",
          "ticks": 44544,
          "time": 38.666627999999996,
          "velocity": 0.2992125984251969
        },
        {
          "duration": 0.08333324999999547,
          "durationTicks": 96,
          "midi": 36,
          "name": "C2",
          "ticks": 44736,
          "time": 38.8332945,
          "velocity": 0.2992125984251969
        },
        {
          "duration": 0.08333324999999547,
          "durationTicks": 96,
          "midi": 42,
          "name": "F#2",
          "ticks": 44736,
          "time": 38.8332945,
          "velocity": 0.2992125984251969
        },
        {
          "duration": 0.08333325000000258,
          "durationTicks": 96,
          "midi": 49,
          "name": "C#3",
          "ticks": 44928,
          "time": 38.999961,
          "velocity": 0.2992125984251969
        },
        {
          "duration": 0.08333325000000258,
          "durationTicks": 96,
          "midi": 38,
          "name": "D2",
          "ticks": 44928,
          "time": 38.999961,
          "velocity": 0.2992125984251969
        },
        {
          "duration": 0.08333325000000258,
          "durationTicks": 96,
          "midi": 42,
          "name": "F#2",
          "ticks": 44928,
          "time": 38.999961,
          "velocity": 0.2992125984251969
        },
        {
          "duration": 0.08333325000000258,
          "durationTicks": 96,
          "midi": 51,
          "name": "D#3",
          "ticks": 44928,
          "time": 38.999961,
          "velocity": 0.2992125984251969
        },
        {
          "duration": 0.08333325000000258,
          "durationTicks": 96,
          "midi": 53,
          "name": "F3",
          "ticks": 44928,
          "time": 38.999961,
          "velocity": 0.2992125984251969
        },
        {
          "duration": 0.08333325000000258,
          "durationTicks": 96,
          "midi": 59,
          "name": "B3",
          "ticks": 44928,
          "time": 38.999961,
          "velocity": 0.2992125984251969
        },
        {
          "duration": 0.08333325000000258,
          "durationTicks": 96,
          "midi": 40,
          "name": "E2",
          "ticks": 44928,
          "time": 38.999961,
          "velocity": 0.2992125984251969
        },
        {
          "duration": 0.08333325000000258,
          "durationTicks": 96,
          "midi": 42,
          "name": "F#2",
          "ticks": 45120,
          "time": 39.1666275,
          "velocity": 0.2992125984251969
        },
        {
          "duration": 0.08333325000000258,
          "durationTicks": 96,
          "midi": 36,
          "name": "C2",
          "ticks": 45120,
          "time": 39.1666275,
          "velocity": 0.2992125984251969
        },
        {
          "duration": 0.08333324999999547,
          "durationTicks": 96,
          "midi": 42,
          "name": "F#2",
          "ticks": 45312,
          "time": 39.333294,
          "velocity": 0.2992125984251969
        },
        {
          "duration": 0.08333324999999547,
          "durationTicks": 96,
          "midi": 36,
          "name": "C2",
          "ticks": 45312,
          "time": 39.333294,
          "velocity": 0.2992125984251969
        },
        {
          "duration": 0.08333324999999547,
          "durationTicks": 96,
          "midi": 38,
          "name": "D2",
          "ticks": 45504,
          "time": 39.4999605,
          "velocity": 0.2992125984251969
        },
        {
          "duration": 0.08333324999999547,
          "durationTicks": 96,
          "midi": 42,
          "name": "F#2",
          "ticks": 45504,
          "time": 39.4999605,
          "velocity": 0.2992125984251969
        },
        {
          "duration": 0.08333324999999547,
          "durationTicks": 96,
          "midi": 59,
          "name": "B3",
          "ticks": 45504,
          "time": 39.4999605,
          "velocity": 0.2992125984251969
        },
        {
          "duration": 0.08333324999999547,
          "durationTicks": 96,
          "midi": 49,
          "name": "C#3",
          "ticks": 45504,
          "time": 39.4999605,
          "velocity": 0.2992125984251969
        },
        {
          "duration": 0.08333324999999547,
          "durationTicks": 96,
          "midi": 40,
          "name": "E2",
          "ticks": 45504,
          "time": 39.4999605,
          "velocity": 0.2992125984251969
        },
        {
          "duration": 0.08333324999999547,
          "durationTicks": 96,
          "midi": 53,
          "name": "F3",
          "ticks": 45504,
          "time": 39.4999605,
          "velocity": 0.2992125984251969
        },
        {
          "duration": 0.08333324999999547,
          "durationTicks": 96,
          "midi": 51,
          "name": "D#3",
          "ticks": 45504,
          "time": 39.4999605,
          "velocity": 0.2992125984251969
        },
        {
          "duration": 0.08333325000000258,
          "durationTicks": 96,
          "midi": 42,
          "name": "F#2",
          "ticks": 45696,
          "time": 39.666627,
          "velocity": 0.2992125984251969
        },
        {
          "duration": 0.08333325000000258,
          "durationTicks": 96,
          "midi": 36,
          "name": "C2",
          "ticks": 45696,
          "time": 39.666627,
          "velocity": 0.2992125984251969
        },
        {
          "duration": 0.08333325000000258,
          "durationTicks": 96,
          "midi": 38,
          "name": "D2",
          "ticks": 45888,
          "time": 39.833293499999996,
          "velocity": 0.2992125984251969
        },
        {
          "duration": 0.08333325000000258,
          "durationTicks": 96,
          "midi": 40,
          "name": "E2",
          "ticks": 45888,
          "time": 39.833293499999996,
          "velocity": 0.2992125984251969
        },
        {
          "duration": 0.08333325000000258,
          "durationTicks": 96,
          "midi": 42,
          "name": "F#2",
          "ticks": 45888,
          "time": 39.833293499999996,
          "velocity": 0.2992125984251969
        },
        {
          "duration": 0.08333324999999547,
          "durationTicks": 96,
          "midi": 51,
          "name": "D#3",
          "ticks": 46080,
          "time": 39.99996,
          "velocity": 0.2992125984251969
        },
        {
          "duration": 0.08333324999999547,
          "durationTicks": 96,
          "midi": 42,
          "name": "F#2",
          "ticks": 46080,
          "time": 39.99996,
          "velocity": 0.2992125984251969
        },
        {
          "duration": 0.08333324999999547,
          "durationTicks": 96,
          "midi": 59,
          "name": "B3",
          "ticks": 46080,
          "time": 39.99996,
          "velocity": 0.2992125984251969
        },
        {
          "duration": 0.08333324999999547,
          "durationTicks": 96,
          "midi": 36,
          "name": "C2",
          "ticks": 46080,
          "time": 39.99996,
          "velocity": 0.2992125984251969
        },
        {
          "duration": 0.08333324999999547,
          "durationTicks": 96,
          "midi": 49,
          "name": "C#3",
          "ticks": 46080,
          "time": 39.99996,
          "velocity": 0.2992125984251969
        },
        {
          "duration": 0.08333324999999547,
          "durationTicks": 96,
          "midi": 53,
          "name": "F3",
          "ticks": 46080,
          "time": 39.99996,
          "velocity": 0.2992125984251969
        },
        {
          "duration": 0.08333325000000258,
          "durationTicks": 96,
          "midi": 36,
          "name": "C2",
          "ticks": 46272,
          "time": 40.1666265,
          "velocity": 0.2992125984251969
        },
        {
          "duration": 0.08333325000000258,
          "durationTicks": 96,
          "midi": 42,
          "name": "F#2",
          "ticks": 46272,
          "time": 40.1666265,
          "velocity": 0.2992125984251969
        },
        {
          "duration": 0.08333325000000258,
          "durationTicks": 96,
          "midi": 40,
          "name": "E2",
          "ticks": 46464,
          "time": 40.333293,
          "velocity": 0.2992125984251969
        },
        {
          "duration": 0.08333325000000258,
          "durationTicks": 96,
          "midi": 49,
          "name": "C#3",
          "ticks": 46464,
          "time": 40.333293,
          "velocity": 0.2992125984251969
        },
        {
          "duration": 0.08333325000000258,
          "durationTicks": 96,
          "midi": 59,
          "name": "B3",
          "ticks": 46464,
          "time": 40.333293,
          "velocity": 0.2992125984251969
        },
        {
          "duration": 0.08333325000000258,
          "durationTicks": 96,
          "midi": 51,
          "name": "D#3",
          "ticks": 46464,
          "time": 40.333293,
          "velocity": 0.2992125984251969
        },
        {
          "duration": 0.08333325000000258,
          "durationTicks": 96,
          "midi": 38,
          "name": "D2",
          "ticks": 46464,
          "time": 40.333293,
          "velocity": 0.2992125984251969
        },
        {
          "duration": 0.08333325000000258,
          "durationTicks": 96,
          "midi": 42,
          "name": "F#2",
          "ticks": 46464,
          "time": 40.333293,
          "velocity": 0.2992125984251969
        },
        {
          "duration": 0.08333325000000258,
          "durationTicks": 96,
          "midi": 53,
          "name": "F3",
          "ticks": 46464,
          "time": 40.333293,
          "velocity": 0.2992125984251969
        },
        {
          "duration": 0.08333325000000258,
          "durationTicks": 96,
          "midi": 36,
          "name": "C2",
          "ticks": 46656,
          "time": 40.499959499999996,
          "velocity": 0.2992125984251969
        },
        {
          "duration": 0.08333325000000258,
          "durationTicks": 96,
          "midi": 42,
          "name": "F#2",
          "ticks": 46656,
          "time": 40.499959499999996,
          "velocity": 0.2992125984251969
        },
        {
          "duration": 0.08333324999999547,
          "durationTicks": 96,
          "midi": 42,
          "name": "F#2",
          "ticks": 46848,
          "time": 40.666626,
          "velocity": 0.2992125984251969
        },
        {
          "duration": 0.08333324999999547,
          "durationTicks": 96,
          "midi": 36,
          "name": "C2",
          "ticks": 46848,
          "time": 40.666626,
          "velocity": 0.2992125984251969
        },
        {
          "duration": 0.08333325000000258,
          "durationTicks": 96,
          "midi": 42,
          "name": "F#2",
          "ticks": 47040,
          "time": 40.8332925,
          "velocity": 0.2992125984251969
        },
        {
          "duration": 0.08333325000000258,
          "durationTicks": 96,
          "midi": 51,
          "name": "D#3",
          "ticks": 47040,
          "time": 40.8332925,
          "velocity": 0.2992125984251969
        },
        {
          "duration": 0.08333325000000258,
          "durationTicks": 96,
          "midi": 53,
          "name": "F3",
          "ticks": 47040,
          "time": 40.8332925,
          "velocity": 0.2992125984251969
        },
        {
          "duration": 0.08333325000000258,
          "durationTicks": 96,
          "midi": 38,
          "name": "D2",
          "ticks": 47040,
          "time": 40.8332925,
          "velocity": 0.2992125984251969
        },
        {
          "duration": 0.08333325000000258,
          "durationTicks": 96,
          "midi": 59,
          "name": "B3",
          "ticks": 47040,
          "time": 40.8332925,
          "velocity": 0.2992125984251969
        },
        {
          "duration": 0.08333325000000258,
          "durationTicks": 96,
          "midi": 40,
          "name": "E2",
          "ticks": 47040,
          "time": 40.8332925,
          "velocity": 0.2992125984251969
        },
        {
          "duration": 0.08333325000000258,
          "durationTicks": 96,
          "midi": 49,
          "name": "C#3",
          "ticks": 47040,
          "time": 40.8332925,
          "velocity": 0.2992125984251969
        },
        {
          "duration": 0.08333325000000258,
          "durationTicks": 96,
          "midi": 42,
          "name": "F#2",
          "ticks": 47232,
          "time": 40.999959,
          "velocity": 0.2992125984251969
        },
        {
          "duration": 0.08333325000000258,
          "durationTicks": 96,
          "midi": 36,
          "name": "C2",
          "ticks": 47232,
          "time": 40.999959,
          "velocity": 0.2992125984251969
        },
        {
          "duration": 0.08333324999999547,
          "durationTicks": 96,
          "midi": 38,
          "name": "D2",
          "ticks": 47424,
          "time": 41.1666255,
          "velocity": 0.2992125984251969
        },
        {
          "duration": 0.08333324999999547,
          "durationTicks": 96,
          "midi": 42,
          "name": "F#2",
          "ticks": 47424,
          "time": 41.1666255,
          "velocity": 0.2992125984251969
        },
        {
          "duration": 0.08333324999999547,
          "durationTicks": 96,
          "midi": 40,
          "name": "E2",
          "ticks": 47424,
          "time": 41.1666255,
          "velocity": 0.2992125984251969
        },
        {
          "duration": 0.08333324999999547,
          "durationTicks": 96,
          "midi": 53,
          "name": "F3",
          "ticks": 47616,
          "time": 41.333292,
          "velocity": 0.2992125984251969
        },
        {
          "duration": 0.08333324999999547,
          "durationTicks": 96,
          "midi": 59,
          "name": "B3",
          "ticks": 47616,
          "time": 41.333292,
          "velocity": 0.2992125984251969
        },
        {
          "duration": 0.08333324999999547,
          "durationTicks": 96,
          "midi": 51,
          "name": "D#3",
          "ticks": 47616,
          "time": 41.333292,
          "velocity": 0.2992125984251969
        },
        {
          "duration": 0.08333324999999547,
          "durationTicks": 96,
          "midi": 49,
          "name": "C#3",
          "ticks": 47616,
          "time": 41.333292,
          "velocity": 0.2992125984251969
        },
        {
          "duration": 0.08333324999999547,
          "durationTicks": 96,
          "midi": 42,
          "name": "F#2",
          "ticks": 47616,
          "time": 41.333292,
          "velocity": 0.2992125984251969
        },
        {
          "duration": 0.08333324999999547,
          "durationTicks": 96,
          "midi": 36,
          "name": "C2",
          "ticks": 47616,
          "time": 41.333292,
          "velocity": 0.2992125984251969
        },
        {
          "duration": 0.08333325000000258,
          "durationTicks": 96,
          "midi": 36,
          "name": "C2",
          "ticks": 47808,
          "time": 41.4999585,
          "velocity": 0.2992125984251969
        },
        {
          "duration": 0.08333325000000258,
          "durationTicks": 96,
          "midi": 42,
          "name": "F#2",
          "ticks": 47808,
          "time": 41.4999585,
          "velocity": 0.2992125984251969
        },
        {
          "duration": 0.08333325000000258,
          "durationTicks": 96,
          "midi": 38,
          "name": "D2",
          "ticks": 48000,
          "time": 41.666624999999996,
          "velocity": 0.2992125984251969
        },
        {
          "duration": 0.08333325000000258,
          "durationTicks": 96,
          "midi": 49,
          "name": "C#3",
          "ticks": 48000,
          "time": 41.666624999999996,
          "velocity": 0.2992125984251969
        },
        {
          "duration": 0.08333325000000258,
          "durationTicks": 96,
          "midi": 53,
          "name": "F3",
          "ticks": 48000,
          "time": 41.666624999999996,
          "velocity": 0.2992125984251969
        },
        {
          "duration": 0.08333325000000258,
          "durationTicks": 96,
          "midi": 42,
          "name": "F#2",
          "ticks": 48000,
          "time": 41.666624999999996,
          "velocity": 0.2992125984251969
        },
        {
          "duration": 0.08333325000000258,
          "durationTicks": 96,
          "midi": 40,
          "name": "E2",
          "ticks": 48000,
          "time": 41.666624999999996,
          "velocity": 0.2992125984251969
        },
        {
          "duration": 0.08333325000000258,
          "durationTicks": 96,
          "midi": 59,
          "name": "B3",
          "ticks": 48000,
          "time": 41.666624999999996,
          "velocity": 0.2992125984251969
        },
        {
          "duration": 0.08333325000000258,
          "durationTicks": 96,
          "midi": 51,
          "name": "D#3",
          "ticks": 48000,
          "time": 41.666624999999996,
          "velocity": 0.2992125984251969
        },
        {
          "duration": 0.08333324999999547,
          "durationTicks": 96,
          "midi": 36,
          "name": "C2",
          "ticks": 48192,
          "time": 41.8332915,
          "velocity": 0.2992125984251969
        },
        {
          "duration": 0.08333324999999547,
          "durationTicks": 96,
          "midi": 42,
          "name": "F#2",
          "ticks": 48192,
          "time": 41.8332915,
          "velocity": 0.2992125984251969
        },
        {
          "duration": 0.08333325000000258,
          "durationTicks": 96,
          "midi": 36,
          "name": "C2",
          "ticks": 48384,
          "time": 41.999958,
          "velocity": 0.2992125984251969
        },
        {
          "duration": 0.08333325000000258,
          "durationTicks": 96,
          "midi": 42,
          "name": "F#2",
          "ticks": 48384,
          "time": 41.999958,
          "velocity": 0.2992125984251969
        },
        {
          "duration": 0.08333325000000258,
          "durationTicks": 96,
          "midi": 38,
          "name": "D2",
          "ticks": 48576,
          "time": 42.1666245,
          "velocity": 0.2992125984251969
        },
        {
          "duration": 0.08333325000000258,
          "durationTicks": 96,
          "midi": 59,
          "name": "B3",
          "ticks": 48576,
          "time": 42.1666245,
          "velocity": 0.2992125984251969
        },
        {
          "duration": 0.08333325000000258,
          "durationTicks": 96,
          "midi": 42,
          "name": "F#2",
          "ticks": 48576,
          "time": 42.1666245,
          "velocity": 0.2992125984251969
        },
        {
          "duration": 0.08333325000000258,
          "durationTicks": 96,
          "midi": 49,
          "name": "C#3",
          "ticks": 48576,
          "time": 42.1666245,
          "velocity": 0.2992125984251969
        },
        {
          "duration": 0.08333325000000258,
          "durationTicks": 96,
          "midi": 51,
          "name": "D#3",
          "ticks": 48576,
          "time": 42.1666245,
          "velocity": 0.2992125984251969
        },
        {
          "duration": 0.08333325000000258,
          "durationTicks": 96,
          "midi": 40,
          "name": "E2",
          "ticks": 48576,
          "time": 42.1666245,
          "velocity": 0.2992125984251969
        },
        {
          "duration": 0.08333325000000258,
          "durationTicks": 96,
          "midi": 53,
          "name": "F3",
          "ticks": 48576,
          "time": 42.1666245,
          "velocity": 0.2992125984251969
        },
        {
          "duration": 0.08333325000000258,
          "durationTicks": 96,
          "midi": 36,
          "name": "C2",
          "ticks": 48768,
          "time": 42.333290999999996,
          "velocity": 0.2992125984251969
        },
        {
          "duration": 0.08333325000000258,
          "durationTicks": 96,
          "midi": 42,
          "name": "F#2",
          "ticks": 48768,
          "time": 42.333290999999996,
          "velocity": 0.2992125984251969
        },
        {
          "duration": 0.08333324999999547,
          "durationTicks": 96,
          "midi": 42,
          "name": "F#2",
          "ticks": 48960,
          "time": 42.4999575,
          "velocity": 0.2992125984251969
        },
        {
          "duration": 0.08333324999999547,
          "durationTicks": 96,
          "midi": 40,
          "name": "E2",
          "ticks": 48960,
          "time": 42.4999575,
          "velocity": 0.2992125984251969
        },
        {
          "duration": 0.08333324999999547,
          "durationTicks": 96,
          "midi": 38,
          "name": "D2",
          "ticks": 48960,
          "time": 42.4999575,
          "velocity": 0.2992125984251969
        },
        {
          "duration": 0.08333325000000258,
          "durationTicks": 96,
          "midi": 36,
          "name": "C2",
          "ticks": 49152,
          "time": 42.666624,
          "velocity": 0.2992125984251969
        },
        {
          "duration": 0.08333325000000258,
          "durationTicks": 96,
          "midi": 59,
          "name": "B3",
          "ticks": 49152,
          "time": 42.666624,
          "velocity": 0.2992125984251969
        },
        {
          "duration": 0.08333325000000258,
          "durationTicks": 96,
          "midi": 42,
          "name": "F#2",
          "ticks": 49152,
          "time": 42.666624,
          "velocity": 0.2992125984251969
        },
        {
          "duration": 0.08333325000000258,
          "durationTicks": 96,
          "midi": 51,
          "name": "D#3",
          "ticks": 49152,
          "time": 42.666624,
          "velocity": 0.2992125984251969
        },
        {
          "duration": 0.08333325000000258,
          "durationTicks": 96,
          "midi": 49,
          "name": "C#3",
          "ticks": 49152,
          "time": 42.666624,
          "velocity": 0.2992125984251969
        },
        {
          "duration": 0.08333325000000258,
          "durationTicks": 96,
          "midi": 53,
          "name": "F3",
          "ticks": 49152,
          "time": 42.666624,
          "velocity": 0.2992125984251969
        },
        {
          "duration": 0.08333325000000258,
          "durationTicks": 96,
          "midi": 42,
          "name": "F#2",
          "ticks": 49344,
          "time": 42.8332905,
          "velocity": 0.2992125984251969
        },
        {
          "duration": 0.08333325000000258,
          "durationTicks": 96,
          "midi": 36,
          "name": "C2",
          "ticks": 49344,
          "time": 42.8332905,
          "velocity": 0.2992125984251969
        },
        {
          "duration": 0.08333324999999547,
          "durationTicks": 96,
          "midi": 51,
          "name": "D#3",
          "ticks": 49536,
          "time": 42.999957,
          "velocity": 0.2992125984251969
        },
        {
          "duration": 0.08333324999999547,
          "durationTicks": 96,
          "midi": 42,
          "name": "F#2",
          "ticks": 49536,
          "time": 42.999957,
          "velocity": 0.2992125984251969
        },
        {
          "duration": 0.08333324999999547,
          "durationTicks": 96,
          "midi": 53,
          "name": "F3",
          "ticks": 49536,
          "time": 42.999957,
          "velocity": 0.2992125984251969
        },
        {
          "duration": 0.08333324999999547,
          "durationTicks": 96,
          "midi": 40,
          "name": "E2",
          "ticks": 49536,
          "time": 42.999957,
          "velocity": 0.2992125984251969
        },
        {
          "duration": 0.08333324999999547,
          "durationTicks": 96,
          "midi": 49,
          "name": "C#3",
          "ticks": 49536,
          "time": 42.999957,
          "velocity": 0.2992125984251969
        },
        {
          "duration": 0.08333324999999547,
          "durationTicks": 96,
          "midi": 38,
          "name": "D2",
          "ticks": 49536,
          "time": 42.999957,
          "velocity": 0.2992125984251969
        },
        {
          "duration": 0.08333324999999547,
          "durationTicks": 96,
          "midi": 59,
          "name": "B3",
          "ticks": 49536,
          "time": 42.999957,
          "velocity": 0.2992125984251969
        },
        {
          "duration": 0.08333324999999547,
          "durationTicks": 96,
          "midi": 42,
          "name": "F#2",
          "ticks": 49728,
          "time": 43.1666235,
          "velocity": 0.2992125984251969
        },
        {
          "duration": 0.08333324999999547,
          "durationTicks": 96,
          "midi": 36,
          "name": "C2",
          "ticks": 49728,
          "time": 43.1666235,
          "velocity": 0.2992125984251969
        },
        {
          "duration": 0.08333325000000258,
          "durationTicks": 96,
          "midi": 42,
          "name": "F#2",
          "ticks": 49920,
          "time": 43.33329,
          "velocity": 0.2992125984251969
        },
        {
          "duration": 0.08333325000000258,
          "durationTicks": 96,
          "midi": 36,
          "name": "C2",
          "ticks": 49920,
          "time": 43.33329,
          "velocity": 0.2992125984251969
        },
        {
          "duration": 0.08333325000000258,
          "durationTicks": 96,
          "midi": 59,
          "name": "B3",
          "ticks": 50112,
          "time": 43.499956499999996,
          "velocity": 0.2992125984251969
        },
        {
          "duration": 0.08333325000000258,
          "durationTicks": 96,
          "midi": 53,
          "name": "F3",
          "ticks": 50112,
          "time": 43.499956499999996,
          "velocity": 0.2992125984251969
        },
        {
          "duration": 0.08333325000000258,
          "durationTicks": 96,
          "midi": 38,
          "name": "D2",
          "ticks": 50112,
          "time": 43.499956499999996,
          "velocity": 0.2992125984251969
        },
        {
          "duration": 0.08333325000000258,
          "durationTicks": 96,
          "midi": 49,
          "name": "C#3",
          "ticks": 50112,
          "time": 43.499956499999996,
          "velocity": 0.2992125984251969
        },
        {
          "duration": 0.08333325000000258,
          "durationTicks": 96,
          "midi": 42,
          "name": "F#2",
          "ticks": 50112,
          "time": 43.499956499999996,
          "velocity": 0.2992125984251969
        },
        {
          "duration": 0.08333325000000258,
          "durationTicks": 96,
          "midi": 40,
          "name": "E2",
          "ticks": 50112,
          "time": 43.499956499999996,
          "velocity": 0.2992125984251969
        },
        {
          "duration": 0.08333325000000258,
          "durationTicks": 96,
          "midi": 51,
          "name": "D#3",
          "ticks": 50112,
          "time": 43.499956499999996,
          "velocity": 0.2992125984251969
        },
        {
          "duration": 0.08333324999999547,
          "durationTicks": 96,
          "midi": 36,
          "name": "C2",
          "ticks": 50304,
          "time": 43.666623,
          "velocity": 0.2992125984251969
        },
        {
          "duration": 0.08333324999999547,
          "durationTicks": 96,
          "midi": 42,
          "name": "F#2",
          "ticks": 50304,
          "time": 43.666623,
          "velocity": 0.2992125984251969
        },
        {
          "duration": 0.08333325000000258,
          "durationTicks": 96,
          "midi": 40,
          "name": "E2",
          "ticks": 50496,
          "time": 43.8332895,
          "velocity": 0.2992125984251969
        },
        {
          "duration": 0.08333325000000258,
          "durationTicks": 96,
          "midi": 38,
          "name": "D2",
          "ticks": 50496,
          "time": 43.8332895,
          "velocity": 0.2992125984251969
        },
        {
          "duration": 0.08333325000000258,
          "durationTicks": 96,
          "midi": 42,
          "name": "F#2",
          "ticks": 50496,
          "time": 43.8332895,
          "velocity": 0.2992125984251969
        },
        {
          "duration": 0.08333325000000258,
          "durationTicks": 96,
          "midi": 36,
          "name": "C2",
          "ticks": 50688,
          "time": 43.999956,
          "velocity": 0.2992125984251969
        },
        {
          "duration": 0.08333325000000258,
          "durationTicks": 96,
          "midi": 59,
          "name": "B3",
          "ticks": 50688,
          "time": 43.999956,
          "velocity": 0.2992125984251969
        },
        {
          "duration": 0.08333325000000258,
          "durationTicks": 96,
          "midi": 53,
          "name": "F3",
          "ticks": 50688,
          "time": 43.999956,
          "velocity": 0.2992125984251969
        },
        {
          "duration": 0.08333325000000258,
          "durationTicks": 96,
          "midi": 49,
          "name": "C#3",
          "ticks": 50688,
          "time": 43.999956,
          "velocity": 0.2992125984251969
        },
        {
          "duration": 0.08333325000000258,
          "durationTicks": 96,
          "midi": 42,
          "name": "F#2",
          "ticks": 50688,
          "time": 43.999956,
          "velocity": 0.2992125984251969
        },
        {
          "duration": 0.08333325000000258,
          "durationTicks": 96,
          "midi": 51,
          "name": "D#3",
          "ticks": 50688,
          "time": 43.999956,
          "velocity": 0.2992125984251969
        },
        {
          "duration": 0.08333325000000258,
          "durationTicks": 96,
          "midi": 36,
          "name": "C2",
          "ticks": 50880,
          "time": 44.166622499999995,
          "velocity": 0.2992125984251969
        },
        {
          "duration": 0.08333325000000258,
          "durationTicks": 96,
          "midi": 42,
          "name": "F#2",
          "ticks": 50880,
          "time": 44.166622499999995,
          "velocity": 0.2992125984251969
        },
        {
          "duration": 0.08333324999999547,
          "durationTicks": 96,
          "midi": 40,
          "name": "E2",
          "ticks": 51072,
          "time": 44.333289,
          "velocity": 0.2992125984251969
        },
        {
          "duration": 0.08333324999999547,
          "durationTicks": 96,
          "midi": 49,
          "name": "C#3",
          "ticks": 51072,
          "time": 44.333289,
          "velocity": 0.2992125984251969
        },
        {
          "duration": 0.08333324999999547,
          "durationTicks": 96,
          "midi": 51,
          "name": "D#3",
          "ticks": 51072,
          "time": 44.333289,
          "velocity": 0.2992125984251969
        },
        {
          "duration": 0.08333324999999547,
          "durationTicks": 96,
          "midi": 38,
          "name": "D2",
          "ticks": 51072,
          "time": 44.333289,
          "velocity": 0.2992125984251969
        },
        {
          "duration": 0.08333324999999547,
          "durationTicks": 96,
          "midi": 53,
          "name": "F3",
          "ticks": 51072,
          "time": 44.333289,
          "velocity": 0.2992125984251969
        },
        {
          "duration": 0.08333324999999547,
          "durationTicks": 96,
          "midi": 59,
          "name": "B3",
          "ticks": 51072,
          "time": 44.333289,
          "velocity": 0.2992125984251969
        },
        {
          "duration": 0.08333324999999547,
          "durationTicks": 96,
          "midi": 42,
          "name": "F#2",
          "ticks": 51072,
          "time": 44.333289,
          "velocity": 0.2992125984251969
        },
        {
          "duration": 0.08333325000000258,
          "durationTicks": 96,
          "midi": 42,
          "name": "F#2",
          "ticks": 51264,
          "time": 44.4999555,
          "velocity": 0.2992125984251969
        },
        {
          "duration": 0.08333325000000258,
          "durationTicks": 96,
          "midi": 36,
          "name": "C2",
          "ticks": 51264,
          "time": 44.4999555,
          "velocity": 0.2992125984251969
        },
        {
          "duration": 0.08333325000000258,
          "durationTicks": 96,
          "midi": 36,
          "name": "C2",
          "ticks": 51456,
          "time": 44.666622,
          "velocity": 0.2992125984251969
        },
        {
          "duration": 0.08333325000000258,
          "durationTicks": 96,
          "midi": 42,
          "name": "F#2",
          "ticks": 51456,
          "time": 44.666622,
          "velocity": 0.2992125984251969
        },
        {
          "duration": 0.08333324999999547,
          "durationTicks": 96,
          "midi": 49,
          "name": "C#3",
          "ticks": 51648,
          "time": 44.8332885,
          "velocity": 0.2992125984251969
        },
        {
          "duration": 0.08333324999999547,
          "durationTicks": 96,
          "midi": 40,
          "name": "E2",
          "ticks": 51648,
          "time": 44.8332885,
          "velocity": 0.2992125984251969
        },
        {
          "duration": 0.08333324999999547,
          "durationTicks": 96,
          "midi": 53,
          "name": "F3",
          "ticks": 51648,
          "time": 44.8332885,
          "velocity": 0.2992125984251969
        },
        {
          "duration": 0.08333324999999547,
          "durationTicks": 96,
          "midi": 51,
          "name": "D#3",
          "ticks": 51648,
          "time": 44.8332885,
          "velocity": 0.2992125984251969
        },
        {
          "duration": 0.08333324999999547,
          "durationTicks": 96,
          "midi": 42,
          "name": "F#2",
          "ticks": 51648,
          "time": 44.8332885,
          "velocity": 0.2992125984251969
        },
        {
          "duration": 0.08333324999999547,
          "durationTicks": 96,
          "midi": 59,
          "name": "B3",
          "ticks": 51648,
          "time": 44.8332885,
          "velocity": 0.2992125984251969
        },
        {
          "duration": 0.08333324999999547,
          "durationTicks": 96,
          "midi": 38,
          "name": "D2",
          "ticks": 51648,
          "time": 44.8332885,
          "velocity": 0.2992125984251969
        },
        {
          "duration": 0.08333324999999547,
          "durationTicks": 96,
          "midi": 42,
          "name": "F#2",
          "ticks": 51840,
          "time": 44.999955,
          "velocity": 0.2992125984251969
        },
        {
          "duration": 0.08333324999999547,
          "durationTicks": 96,
          "midi": 36,
          "name": "C2",
          "ticks": 51840,
          "time": 44.999955,
          "velocity": 0.2992125984251969
        },
        {
          "duration": 0.08333325000000258,
          "durationTicks": 96,
          "midi": 40,
          "name": "E2",
          "ticks": 52032,
          "time": 45.1666215,
          "velocity": 0.2992125984251969
        },
        {
          "duration": 0.08333325000000258,
          "durationTicks": 96,
          "midi": 38,
          "name": "D2",
          "ticks": 52032,
          "time": 45.1666215,
          "velocity": 0.2992125984251969
        },
        {
          "duration": 0.08333325000000258,
          "durationTicks": 96,
          "midi": 42,
          "name": "F#2",
          "ticks": 52032,
          "time": 45.1666215,
          "velocity": 0.2992125984251969
        },
        {
          "duration": 0.08333325000000258,
          "durationTicks": 96,
          "midi": 36,
          "name": "C2",
          "ticks": 52224,
          "time": 45.333287999999996,
          "velocity": 0.2992125984251969
        },
        {
          "duration": 0.08333325000000258,
          "durationTicks": 96,
          "midi": 51,
          "name": "D#3",
          "ticks": 52224,
          "time": 45.333287999999996,
          "velocity": 0.2992125984251969
        },
        {
          "duration": 0.08333325000000258,
          "durationTicks": 96,
          "midi": 42,
          "name": "F#2",
          "ticks": 52224,
          "time": 45.333287999999996,
          "velocity": 0.2992125984251969
        },
        {
          "duration": 0.08333325000000258,
          "durationTicks": 96,
          "midi": 53,
          "name": "F3",
          "ticks": 52224,
          "time": 45.333287999999996,
          "velocity": 0.2992125984251969
        },
        {
          "duration": 0.08333325000000258,
          "durationTicks": 96,
          "midi": 59,
          "name": "B3",
          "ticks": 52224,
          "time": 45.333287999999996,
          "velocity": 0.2992125984251969
        },
        {
          "duration": 0.08333325000000258,
          "durationTicks": 96,
          "midi": 49,
          "name": "C#3",
          "ticks": 52224,
          "time": 45.333287999999996,
          "velocity": 0.2992125984251969
        },
        {
          "duration": 0.08333324999999547,
          "durationTicks": 96,
          "midi": 42,
          "name": "F#2",
          "ticks": 52416,
          "time": 45.4999545,
          "velocity": 0.2992125984251969
        },
        {
          "duration": 0.08333324999999547,
          "durationTicks": 96,
          "midi": 36,
          "name": "C2",
          "ticks": 52416,
          "time": 45.4999545,
          "velocity": 0.2992125984251969
        },
        {
          "duration": 0.08333325000000258,
          "durationTicks": 96,
          "midi": 38,
          "name": "D2",
          "ticks": 52608,
          "time": 45.666621,
          "velocity": 0.2992125984251969
        },
        {
          "duration": 0.08333325000000258,
          "durationTicks": 96,
          "midi": 53,
          "name": "F3",
          "ticks": 52608,
          "time": 45.666621,
          "velocity": 0.2992125984251969
        },
        {
          "duration": 0.08333325000000258,
          "durationTicks": 96,
          "midi": 51,
          "name": "D#3",
          "ticks": 52608,
          "time": 45.666621,
          "velocity": 0.2992125984251969
        },
        {
          "duration": 0.08333325000000258,
          "durationTicks": 96,
          "midi": 42,
          "name": "F#2",
          "ticks": 52608,
          "time": 45.666621,
          "velocity": 0.2992125984251969
        },
        {
          "duration": 0.08333325000000258,
          "durationTicks": 96,
          "midi": 59,
          "name": "B3",
          "ticks": 52608,
          "time": 45.666621,
          "velocity": 0.2992125984251969
        },
        {
          "duration": 0.08333325000000258,
          "durationTicks": 96,
          "midi": 40,
          "name": "E2",
          "ticks": 52608,
          "time": 45.666621,
          "velocity": 0.2992125984251969
        },
        {
          "duration": 0.08333325000000258,
          "durationTicks": 96,
          "midi": 49,
          "name": "C#3",
          "ticks": 52608,
          "time": 45.666621,
          "velocity": 0.2992125984251969
        },
        {
          "duration": 0.08333325000000258,
          "durationTicks": 96,
          "midi": 36,
          "name": "C2",
          "ticks": 52800,
          "time": 45.8332875,
          "velocity": 0.2992125984251969
        },
        {
          "duration": 0.08333325000000258,
          "durationTicks": 96,
          "midi": 42,
          "name": "F#2",
          "ticks": 52800,
          "time": 45.8332875,
          "velocity": 0.2992125984251969
        },
        {
          "duration": 0.08333325000000258,
          "durationTicks": 96,
          "midi": 42,
          "name": "F#2",
          "ticks": 52992,
          "time": 45.999953999999995,
          "velocity": 0.2992125984251969
        },
        {
          "duration": 0.08333325000000258,
          "durationTicks": 96,
          "midi": 36,
          "name": "C2",
          "ticks": 52992,
          "time": 45.999953999999995,
          "velocity": 0.2992125984251969
        },
        {
          "duration": 0.08333324999999547,
          "durationTicks": 96,
          "midi": 59,
          "name": "B3",
          "ticks": 53184,
          "time": 46.1666205,
          "velocity": 0.2992125984251969
        },
        {
          "duration": 0.08333324999999547,
          "durationTicks": 96,
          "midi": 53,
          "name": "F3",
          "ticks": 53184,
          "time": 46.1666205,
          "velocity": 0.2992125984251969
        },
        {
          "duration": 0.08333324999999547,
          "durationTicks": 96,
          "midi": 51,
          "name": "D#3",
          "ticks": 53184,
          "time": 46.1666205,
          "velocity": 0.2992125984251969
        },
        {
          "duration": 0.08333324999999547,
          "durationTicks": 96,
          "midi": 42,
          "name": "F#2",
          "ticks": 53184,
          "time": 46.1666205,
          "velocity": 0.2992125984251969
        },
        {
          "duration": 0.08333324999999547,
          "durationTicks": 96,
          "midi": 49,
          "name": "C#3",
          "ticks": 53184,
          "time": 46.1666205,
          "velocity": 0.2992125984251969
        },
        {
          "duration": 0.08333324999999547,
          "durationTicks": 96,
          "midi": 38,
          "name": "D2",
          "ticks": 53184,
          "time": 46.1666205,
          "velocity": 0.2992125984251969
        },
        {
          "duration": 0.08333324999999547,
          "durationTicks": 96,
          "midi": 40,
          "name": "E2",
          "ticks": 53184,
          "time": 46.1666205,
          "velocity": 0.2992125984251969
        },
        {
          "duration": 0.08333325000000258,
          "durationTicks": 96,
          "midi": 42,
          "name": "F#2",
          "ticks": 53376,
          "time": 46.333287,
          "velocity": 0.2992125984251969
        },
        {
          "duration": 0.08333325000000258,
          "durationTicks": 96,
          "midi": 36,
          "name": "C2",
          "ticks": 53376,
          "time": 46.333287,
          "velocity": 0.2992125984251969
        },
        {
          "duration": 0.08333325000000258,
          "durationTicks": 96,
          "midi": 38,
          "name": "D2",
          "ticks": 53568,
          "time": 46.4999535,
          "velocity": 0.2992125984251969
        },
        {
          "duration": 0.08333325000000258,
          "durationTicks": 96,
          "midi": 40,
          "name": "E2",
          "ticks": 53568,
          "time": 46.4999535,
          "velocity": 0.2992125984251969
        },
        {
          "duration": 0.08333325000000258,
          "durationTicks": 96,
          "midi": 42,
          "name": "F#2",
          "ticks": 53568,
          "time": 46.4999535,
          "velocity": 0.2992125984251969
        },
        {
          "duration": 0.08333324999999547,
          "durationTicks": 96,
          "midi": 49,
          "name": "C#3",
          "ticks": 53760,
          "time": 46.66662,
          "velocity": 0.2992125984251969
        },
        {
          "duration": 0.08333324999999547,
          "durationTicks": 96,
          "midi": 51,
          "name": "D#3",
          "ticks": 53760,
          "time": 46.66662,
          "velocity": 0.2992125984251969
        },
        {
          "duration": 0.08333324999999547,
          "durationTicks": 96,
          "midi": 59,
          "name": "B3",
          "ticks": 53760,
          "time": 46.66662,
          "velocity": 0.2992125984251969
        },
        {
          "duration": 0.08333324999999547,
          "durationTicks": 96,
          "midi": 36,
          "name": "C2",
          "ticks": 53760,
          "time": 46.66662,
          "velocity": 0.2992125984251969
        },
        {
          "duration": 0.08333324999999547,
          "durationTicks": 96,
          "midi": 42,
          "name": "F#2",
          "ticks": 53760,
          "time": 46.66662,
          "velocity": 0.2992125984251969
        },
        {
          "duration": 0.08333324999999547,
          "durationTicks": 96,
          "midi": 53,
          "name": "F3",
          "ticks": 53760,
          "time": 46.66662,
          "velocity": 0.2992125984251969
        },
        {
          "duration": 0.08333324999999547,
          "durationTicks": 96,
          "midi": 42,
          "name": "F#2",
          "ticks": 53952,
          "time": 46.8332865,
          "velocity": 0.2992125984251969
        },
        {
          "duration": 0.08333324999999547,
          "durationTicks": 96,
          "midi": 36,
          "name": "C2",
          "ticks": 53952,
          "time": 46.8332865,
          "velocity": 0.2992125984251969
        },
        {
          "duration": 0.08333325000000258,
          "durationTicks": 96,
          "midi": 59,
          "name": "B3",
          "ticks": 54144,
          "time": 46.999953,
          "velocity": 0.2992125984251969
        },
        {
          "duration": 0.08333325000000258,
          "durationTicks": 96,
          "midi": 51,
          "name": "D#3",
          "ticks": 54144,
          "time": 46.999953,
          "velocity": 0.2992125984251969
        },
        {
          "duration": 0.08333325000000258,
          "durationTicks": 96,
          "midi": 38,
          "name": "D2",
          "ticks": 54144,
          "time": 46.999953,
          "velocity": 0.2992125984251969
        },
        {
          "duration": 0.08333325000000258,
          "durationTicks": 96,
          "midi": 53,
          "name": "F3",
          "ticks": 54144,
          "time": 46.999953,
          "velocity": 0.2992125984251969
        },
        {
          "duration": 0.08333325000000258,
          "durationTicks": 96,
          "midi": 49,
          "name": "C#3",
          "ticks": 54144,
          "time": 46.999953,
          "velocity": 0.2992125984251969
        },
        {
          "duration": 0.08333325000000258,
          "durationTicks": 96,
          "midi": 42,
          "name": "F#2",
          "ticks": 54144,
          "time": 46.999953,
          "velocity": 0.2992125984251969
        },
        {
          "duration": 0.08333325000000258,
          "durationTicks": 96,
          "midi": 40,
          "name": "E2",
          "ticks": 54144,
          "time": 46.999953,
          "velocity": 0.2992125984251969
        },
        {
          "duration": 0.08333325000000258,
          "durationTicks": 96,
          "midi": 36,
          "name": "C2",
          "ticks": 54336,
          "time": 47.166619499999996,
          "velocity": 0.2992125984251969
        },
        {
          "duration": 0.08333325000000258,
          "durationTicks": 96,
          "midi": 42,
          "name": "F#2",
          "ticks": 54336,
          "time": 47.166619499999996,
          "velocity": 0.2992125984251969
        },
        {
          "duration": 0.08333324999999547,
          "durationTicks": 96,
          "midi": 42,
          "name": "F#2",
          "ticks": 54528,
          "time": 47.333286,
          "velocity": 0.2992125984251969
        },
        {
          "duration": 0.08333324999999547,
          "durationTicks": 96,
          "midi": 36,
          "name": "C2",
          "ticks": 54528,
          "time": 47.333286,
          "velocity": 0.2992125984251969
        },
        {
          "duration": 0.08333325000000258,
          "durationTicks": 96,
          "midi": 59,
          "name": "B3",
          "ticks": 54720,
          "time": 47.4999525,
          "velocity": 0.2992125984251969
        },
        {
          "duration": 0.08333325000000258,
          "durationTicks": 96,
          "midi": 40,
          "name": "E2",
          "ticks": 54720,
          "time": 47.4999525,
          "velocity": 0.2992125984251969
        },
        {
          "duration": 0.08333325000000258,
          "durationTicks": 96,
          "midi": 53,
          "name": "F3",
          "ticks": 54720,
          "time": 47.4999525,
          "velocity": 0.2992125984251969
        },
        {
          "duration": 0.08333325000000258,
          "durationTicks": 96,
          "midi": 42,
          "name": "F#2",
          "ticks": 54720,
          "time": 47.4999525,
          "velocity": 0.2992125984251969
        },
        {
          "duration": 0.08333325000000258,
          "durationTicks": 96,
          "midi": 38,
          "name": "D2",
          "ticks": 54720,
          "time": 47.4999525,
          "velocity": 0.2992125984251969
        },
        {
          "duration": 0.08333325000000258,
          "durationTicks": 96,
          "midi": 49,
          "name": "C#3",
          "ticks": 54720,
          "time": 47.4999525,
          "velocity": 0.2992125984251969
        },
        {
          "duration": 0.08333325000000258,
          "durationTicks": 96,
          "midi": 51,
          "name": "D#3",
          "ticks": 54720,
          "time": 47.4999525,
          "velocity": 0.2992125984251969
        },
        {
          "duration": 0.08333325000000258,
          "durationTicks": 96,
          "midi": 36,
          "name": "C2",
          "ticks": 54912,
          "time": 47.666619,
          "velocity": 0.2992125984251969
        },
        {
          "duration": 0.08333325000000258,
          "durationTicks": 96,
          "midi": 42,
          "name": "F#2",
          "ticks": 54912,
          "time": 47.666619,
          "velocity": 0.2992125984251969
        },
        {
          "duration": 0.08333325000000258,
          "durationTicks": 96,
          "midi": 40,
          "name": "E2",
          "ticks": 55104,
          "time": 47.833285499999995,
          "velocity": 0.2992125984251969
        },
        {
          "duration": 0.08333325000000258,
          "durationTicks": 96,
          "midi": 42,
          "name": "F#2",
          "ticks": 55104,
          "time": 47.833285499999995,
          "velocity": 0.2992125984251969
        },
        {
          "duration": 0.08333325000000258,
          "durationTicks": 96,
          "midi": 38,
          "name": "D2",
          "ticks": 55104,
          "time": 47.833285499999995,
          "velocity": 0.2992125984251969
        },
        {
          "duration": 0.08333324999999547,
          "durationTicks": 96,
          "midi": 53,
          "name": "F3",
          "ticks": 55296,
          "time": 47.999952,
          "velocity": 0.2992125984251969
        },
        {
          "duration": 0.08333324999999547,
          "durationTicks": 96,
          "midi": 59,
          "name": "B3",
          "ticks": 55296,
          "time": 47.999952,
          "velocity": 0.2992125984251969
        },
        {
          "duration": 0.08333324999999547,
          "durationTicks": 96,
          "midi": 49,
          "name": "C#3",
          "ticks": 55296,
          "time": 47.999952,
          "velocity": 0.2992125984251969
        },
        {
          "duration": 0.08333324999999547,
          "durationTicks": 96,
          "midi": 36,
          "name": "C2",
          "ticks": 55296,
          "time": 47.999952,
          "velocity": 0.2992125984251969
        },
        {
          "duration": 0.08333324999999547,
          "durationTicks": 96,
          "midi": 42,
          "name": "F#2",
          "ticks": 55296,
          "time": 47.999952,
          "velocity": 0.2992125984251969
        },
        {
          "duration": 0.08333324999999547,
          "durationTicks": 96,
          "midi": 51,
          "name": "D#3",
          "ticks": 55296,
          "time": 47.999952,
          "velocity": 0.2992125984251969
        },
        {
          "duration": 0.08333325000000258,
          "durationTicks": 96,
          "midi": 36,
          "name": "C2",
          "ticks": 55488,
          "time": 48.1666185,
          "velocity": 0.2992125984251969
        },
        {
          "duration": 0.08333325000000258,
          "durationTicks": 96,
          "midi": 42,
          "name": "F#2",
          "ticks": 55488,
          "time": 48.1666185,
          "velocity": 0.2992125984251969
        },
        {
          "duration": 0.08333325000000258,
          "durationTicks": 96,
          "midi": 40,
          "name": "E2",
          "ticks": 55680,
          "time": 48.333285,
          "velocity": 0.2992125984251969
        },
        {
          "duration": 0.08333325000000258,
          "durationTicks": 96,
          "midi": 42,
          "name": "F#2",
          "ticks": 55680,
          "time": 48.333285,
          "velocity": 0.2992125984251969
        },
        {
          "duration": 0.08333325000000258,
          "durationTicks": 96,
          "midi": 53,
          "name": "F3",
          "ticks": 55680,
          "time": 48.333285,
          "velocity": 0.2992125984251969
        },
        {
          "duration": 0.08333325000000258,
          "durationTicks": 96,
          "midi": 49,
          "name": "C#3",
          "ticks": 55680,
          "time": 48.333285,
          "velocity": 0.2992125984251969
        },
        {
          "duration": 0.08333325000000258,
          "durationTicks": 96,
          "midi": 38,
          "name": "D2",
          "ticks": 55680,
          "time": 48.333285,
          "velocity": 0.2992125984251969
        },
        {
          "duration": 0.08333325000000258,
          "durationTicks": 96,
          "midi": 51,
          "name": "D#3",
          "ticks": 55680,
          "time": 48.333285,
          "velocity": 0.2992125984251969
        },
        {
          "duration": 0.08333325000000258,
          "durationTicks": 96,
          "midi": 59,
          "name": "B3",
          "ticks": 55680,
          "time": 48.333285,
          "velocity": 0.2992125984251969
        },
        {
          "duration": 0.08333324999999547,
          "durationTicks": 96,
          "midi": 42,
          "name": "F#2",
          "ticks": 55872,
          "time": 48.4999515,
          "velocity": 0.2992125984251969
        },
        {
          "duration": 0.08333324999999547,
          "durationTicks": 96,
          "midi": 36,
          "name": "C2",
          "ticks": 55872,
          "time": 48.4999515,
          "velocity": 0.2992125984251969
        },
        {
          "duration": 0.08333324999999547,
          "durationTicks": 96,
          "midi": 42,
          "name": "F#2",
          "ticks": 56064,
          "time": 48.666618,
          "velocity": 0.2992125984251969
        },
        {
          "duration": 0.08333324999999547,
          "durationTicks": 96,
          "midi": 36,
          "name": "C2",
          "ticks": 56064,
          "time": 48.666618,
          "velocity": 0.2992125984251969
        },
        {
          "duration": 0.08333325000000258,
          "durationTicks": 96,
          "midi": 40,
          "name": "E2",
          "ticks": 56256,
          "time": 48.8332845,
          "velocity": 0.2992125984251969
        },
        {
          "duration": 0.08333325000000258,
          "durationTicks": 96,
          "midi": 42,
          "name": "F#2",
          "ticks": 56256,
          "time": 48.8332845,
          "velocity": 0.2992125984251969
        },
        {
          "duration": 0.08333325000000258,
          "durationTicks": 96,
          "midi": 51,
          "name": "D#3",
          "ticks": 56256,
          "time": 48.8332845,
          "velocity": 0.2992125984251969
        },
        {
          "duration": 0.08333325000000258,
          "durationTicks": 96,
          "midi": 38,
          "name": "D2",
          "ticks": 56256,
          "time": 48.8332845,
          "velocity": 0.2992125984251969
        },
        {
          "duration": 0.08333325000000258,
          "durationTicks": 96,
          "midi": 59,
          "name": "B3",
          "ticks": 56256,
          "time": 48.8332845,
          "velocity": 0.2992125984251969
        },
        {
          "duration": 0.08333325000000258,
          "durationTicks": 96,
          "midi": 53,
          "name": "F3",
          "ticks": 56256,
          "time": 48.8332845,
          "velocity": 0.2992125984251969
        },
        {
          "duration": 0.08333325000000258,
          "durationTicks": 96,
          "midi": 49,
          "name": "C#3",
          "ticks": 56256,
          "time": 48.8332845,
          "velocity": 0.2992125984251969
        },
        {
          "duration": 0.08333325000000258,
          "durationTicks": 96,
          "midi": 36,
          "name": "C2",
          "ticks": 56448,
          "time": 48.999950999999996,
          "velocity": 0.2992125984251969
        },
        {
          "duration": 0.08333325000000258,
          "durationTicks": 96,
          "midi": 42,
          "name": "F#2",
          "ticks": 56448,
          "time": 48.999950999999996,
          "velocity": 0.2992125984251969
        },
        {
          "duration": 0.08333324999999547,
          "durationTicks": 96,
          "midi": 42,
          "name": "F#2",
          "ticks": 56640,
          "time": 49.1666175,
          "velocity": 0.2992125984251969
        },
        {
          "duration": 0.08333324999999547,
          "durationTicks": 96,
          "midi": 38,
          "name": "D2",
          "ticks": 56640,
          "time": 49.1666175,
          "velocity": 0.2992125984251969
        },
        {
          "duration": 0.08333324999999547,
          "durationTicks": 96,
          "midi": 40,
          "name": "E2",
          "ticks": 56640,
          "time": 49.1666175,
          "velocity": 0.2992125984251969
        },
        {
          "duration": 0.08333325000000258,
          "durationTicks": 96,
          "midi": 36,
          "name": "C2",
          "ticks": 56832,
          "time": 49.333284,
          "velocity": 0.2992125984251969
        },
        {
          "duration": 0.08333325000000258,
          "durationTicks": 96,
          "midi": 51,
          "name": "D#3",
          "ticks": 56832,
          "time": 49.333284,
          "velocity": 0.2992125984251969
        },
        {
          "duration": 0.08333325000000258,
          "durationTicks": 96,
          "midi": 42,
          "name": "F#2",
          "ticks": 56832,
          "time": 49.333284,
          "velocity": 0.2992125984251969
        },
        {
          "duration": 0.08333325000000258,
          "durationTicks": 96,
          "midi": 59,
          "name": "B3",
          "ticks": 56832,
          "time": 49.333284,
          "velocity": 0.2992125984251969
        },
        {
          "duration": 0.08333325000000258,
          "durationTicks": 96,
          "midi": 49,
          "name": "C#3",
          "ticks": 56832,
          "time": 49.333284,
          "velocity": 0.2992125984251969
        },
        {
          "duration": 0.08333325000000258,
          "durationTicks": 96,
          "midi": 53,
          "name": "F3",
          "ticks": 56832,
          "time": 49.333284,
          "velocity": 0.2992125984251969
        },
        {
          "duration": 0.08333325000000258,
          "durationTicks": 96,
          "midi": 42,
          "name": "F#2",
          "ticks": 57024,
          "time": 49.4999505,
          "velocity": 0.2992125984251969
        },
        {
          "duration": 0.08333325000000258,
          "durationTicks": 96,
          "midi": 36,
          "name": "C2",
          "ticks": 57024,
          "time": 49.4999505,
          "velocity": 0.2992125984251969
        },
        {
          "duration": 0.08333325000000258,
          "durationTicks": 96,
          "midi": 40,
          "name": "E2",
          "ticks": 57216,
          "time": 49.666616999999995,
          "velocity": 0.2992125984251969
        },
        {
          "duration": 0.08333325000000258,
          "durationTicks": 96,
          "midi": 49,
          "name": "C#3",
          "ticks": 57216,
          "time": 49.666616999999995,
          "velocity": 0.2992125984251969
        },
        {
          "duration": 0.08333325000000258,
          "durationTicks": 96,
          "midi": 38,
          "name": "D2",
          "ticks": 57216,
          "time": 49.666616999999995,
          "velocity": 0.2992125984251969
        },
        {
          "duration": 0.08333325000000258,
          "durationTicks": 96,
          "midi": 51,
          "name": "D#3",
          "ticks": 57216,
          "time": 49.666616999999995,
          "velocity": 0.2992125984251969
        },
        {
          "duration": 0.08333325000000258,
          "durationTicks": 96,
          "midi": 53,
          "name": "F3",
          "ticks": 57216,
          "time": 49.666616999999995,
          "velocity": 0.2992125984251969
        },
        {
          "duration": 0.08333325000000258,
          "durationTicks": 96,
          "midi": 42,
          "name": "F#2",
          "ticks": 57216,
          "time": 49.666616999999995,
          "velocity": 0.2992125984251969
        },
        {
          "duration": 0.08333325000000258,
          "durationTicks": 96,
          "midi": 59,
          "name": "B3",
          "ticks": 57216,
          "time": 49.666616999999995,
          "velocity": 0.2992125984251969
        },
        {
          "duration": 0.08333324999999547,
          "durationTicks": 96,
          "midi": 42,
          "name": "F#2",
          "ticks": 57408,
          "time": 49.8332835,
          "velocity": 0.2992125984251969
        },
        {
          "duration": 0.08333324999999547,
          "durationTicks": 96,
          "midi": 36,
          "name": "C2",
          "ticks": 57408,
          "time": 49.8332835,
          "velocity": 0.2992125984251969
        },
        {
          "duration": 0.08333325000000258,
          "durationTicks": 96,
          "midi": 42,
          "name": "F#2",
          "ticks": 57600,
          "time": 49.99995,
          "velocity": 0.2992125984251969
        },
        {
          "duration": 0.08333325000000258,
          "durationTicks": 96,
          "midi": 36,
          "name": "C2",
          "ticks": 57600,
          "time": 49.99995,
          "velocity": 0.2992125984251969
        },
        {
          "duration": 0.08333325000000258,
          "durationTicks": 96,
          "midi": 53,
          "name": "F3",
          "ticks": 57792,
          "time": 50.166616499999996,
          "velocity": 0.2992125984251969
        },
        {
          "duration": 0.08333325000000258,
          "durationTicks": 96,
          "midi": 51,
          "name": "D#3",
          "ticks": 57792,
          "time": 50.166616499999996,
          "velocity": 0.2992125984251969
        },
        {
          "duration": 0.08333325000000258,
          "durationTicks": 96,
          "midi": 49,
          "name": "C#3",
          "ticks": 57792,
          "time": 50.166616499999996,
          "velocity": 0.2992125984251969
        },
        {
          "duration": 0.08333325000000258,
          "durationTicks": 96,
          "midi": 42,
          "name": "F#2",
          "ticks": 57792,
          "time": 50.166616499999996,
          "velocity": 0.2992125984251969
        },
        {
          "duration": 0.08333325000000258,
          "durationTicks": 96,
          "midi": 38,
          "name": "D2",
          "ticks": 57792,
          "time": 50.166616499999996,
          "velocity": 0.2992125984251969
        },
        {
          "duration": 0.08333325000000258,
          "durationTicks": 96,
          "midi": 40,
          "name": "E2",
          "ticks": 57792,
          "time": 50.166616499999996,
          "velocity": 0.2992125984251969
        },
        {
          "duration": 0.08333325000000258,
          "durationTicks": 96,
          "midi": 59,
          "name": "B3",
          "ticks": 57792,
          "time": 50.166616499999996,
          "velocity": 0.2992125984251969
        },
        {
          "duration": 0.08333324999999547,
          "durationTicks": 96,
          "midi": 42,
          "name": "F#2",
          "ticks": 57984,
          "time": 50.333283,
          "velocity": 0.2992125984251969
        },
        {
          "duration": 0.08333324999999547,
          "durationTicks": 96,
          "midi": 36,
          "name": "C2",
          "ticks": 57984,
          "time": 50.333283,
          "velocity": 0.2992125984251969
        },
        {
          "duration": 0.08333324999999547,
          "durationTicks": 96,
          "midi": 42,
          "name": "F#2",
          "ticks": 58176,
          "time": 50.4999495,
          "velocity": 0.2992125984251969
        },
        {
          "duration": 0.08333324999999547,
          "durationTicks": 96,
          "midi": 40,
          "name": "E2",
          "ticks": 58176,
          "time": 50.4999495,
          "velocity": 0.2992125984251969
        },
        {
          "duration": 0.08333324999999547,
          "durationTicks": 96,
          "midi": 38,
          "name": "D2",
          "ticks": 58176,
          "time": 50.4999495,
          "velocity": 0.2992125984251969
        },
        {
          "duration": 0.08333325000000258,
          "durationTicks": 96,
          "midi": 51,
          "name": "D#3",
          "ticks": 58368,
          "time": 50.666616,
          "velocity": 0.2992125984251969
        },
        {
          "duration": 0.08333325000000258,
          "durationTicks": 96,
          "midi": 42,
          "name": "F#2",
          "ticks": 58368,
          "time": 50.666616,
          "velocity": 0.2992125984251969
        },
        {
          "duration": 0.08333325000000258,
          "durationTicks": 96,
          "midi": 59,
          "name": "B3",
          "ticks": 58368,
          "time": 50.666616,
          "velocity": 0.2992125984251969
        },
        {
          "duration": 0.08333325000000258,
          "durationTicks": 96,
          "midi": 53,
          "name": "F3",
          "ticks": 58368,
          "time": 50.666616,
          "velocity": 0.2992125984251969
        },
        {
          "duration": 0.08333325000000258,
          "durationTicks": 96,
          "midi": 36,
          "name": "C2",
          "ticks": 58368,
          "time": 50.666616,
          "velocity": 0.2992125984251969
        },
        {
          "duration": 0.08333325000000258,
          "durationTicks": 96,
          "midi": 49,
          "name": "C#3",
          "ticks": 58368,
          "time": 50.666616,
          "velocity": 0.2992125984251969
        },
        {
          "duration": 0.08333325000000258,
          "durationTicks": 96,
          "midi": 42,
          "name": "F#2",
          "ticks": 58560,
          "time": 50.833282499999996,
          "velocity": 0.2992125984251969
        },
        {
          "duration": 0.08333325000000258,
          "durationTicks": 96,
          "midi": 36,
          "name": "C2",
          "ticks": 58560,
          "time": 50.833282499999996,
          "velocity": 0.2992125984251969
        },
        {
          "duration": 0.08333324999999547,
          "durationTicks": 96,
          "midi": 51,
          "name": "D#3",
          "ticks": 58752,
          "time": 50.999949,
          "velocity": 0.2992125984251969
        },
        {
          "duration": 0.08333324999999547,
          "durationTicks": 96,
          "midi": 40,
          "name": "E2",
          "ticks": 58752,
          "time": 50.999949,
          "velocity": 0.2992125984251969
        },
        {
          "duration": 0.08333324999999547,
          "durationTicks": 96,
          "midi": 53,
          "name": "F3",
          "ticks": 58752,
          "time": 50.999949,
          "velocity": 0.2992125984251969
        },
        {
          "duration": 0.08333324999999547,
          "durationTicks": 96,
          "midi": 59,
          "name": "B3",
          "ticks": 58752,
          "time": 50.999949,
          "velocity": 0.2992125984251969
        },
        {
          "duration": 0.08333324999999547,
          "durationTicks": 96,
          "midi": 42,
          "name": "F#2",
          "ticks": 58752,
          "time": 50.999949,
          "velocity": 0.2992125984251969
        },
        {
          "duration": 0.08333324999999547,
          "durationTicks": 96,
          "midi": 49,
          "name": "C#3",
          "ticks": 58752,
          "time": 50.999949,
          "velocity": 0.2992125984251969
        },
        {
          "duration": 0.08333324999999547,
          "durationTicks": 96,
          "midi": 38,
          "name": "D2",
          "ticks": 58752,
          "time": 50.999949,
          "velocity": 0.2992125984251969
        },
        {
          "duration": 0.08333325000000258,
          "durationTicks": 96,
          "midi": 36,
          "name": "C2",
          "ticks": 58944,
          "time": 51.1666155,
          "velocity": 0.2992125984251969
        },
        {
          "duration": 0.08333325000000258,
          "durationTicks": 96,
          "midi": 42,
          "name": "F#2",
          "ticks": 58944,
          "time": 51.1666155,
          "velocity": 0.2992125984251969
        },
        {
          "duration": 0.08333325000000258,
          "durationTicks": 96,
          "midi": 36,
          "name": "C2",
          "ticks": 59136,
          "time": 51.333282,
          "velocity": 0.2992125984251969
        },
        {
          "duration": 0.08333325000000258,
          "durationTicks": 96,
          "midi": 42,
          "name": "F#2",
          "ticks": 59136,
          "time": 51.333282,
          "velocity": 0.2992125984251969
        },
        {
          "duration": 0.08333325000000258,
          "durationTicks": 96,
          "midi": 40,
          "name": "E2",
          "ticks": 59328,
          "time": 51.499948499999995,
          "velocity": 0.2992125984251969
        },
        {
          "duration": 0.08333325000000258,
          "durationTicks": 96,
          "midi": 53,
          "name": "F3",
          "ticks": 59328,
          "time": 51.499948499999995,
          "velocity": 0.2992125984251969
        },
        {
          "duration": 0.08333325000000258,
          "durationTicks": 96,
          "midi": 42,
          "name": "F#2",
          "ticks": 59328,
          "time": 51.499948499999995,
          "velocity": 0.2992125984251969
        },
        {
          "duration": 0.08333325000000258,
          "durationTicks": 96,
          "midi": 59,
          "name": "B3",
          "ticks": 59328,
          "time": 51.499948499999995,
          "velocity": 0.2992125984251969
        },
        {
          "duration": 0.08333325000000258,
          "durationTicks": 96,
          "midi": 51,
          "name": "D#3",
          "ticks": 59328,
          "time": 51.499948499999995,
          "velocity": 0.2992125984251969
        },
        {
          "duration": 0.08333325000000258,
          "durationTicks": 96,
          "midi": 49,
          "name": "C#3",
          "ticks": 59328,
          "time": 51.499948499999995,
          "velocity": 0.2992125984251969
        },
        {
          "duration": 0.08333325000000258,
          "durationTicks": 96,
          "midi": 38,
          "name": "D2",
          "ticks": 59328,
          "time": 51.499948499999995,
          "velocity": 0.2992125984251969
        },
        {
          "duration": 0.08333324999999547,
          "durationTicks": 96,
          "midi": 36,
          "name": "C2",
          "ticks": 59520,
          "time": 51.666615,
          "velocity": 0.2992125984251969
        },
        {
          "duration": 0.08333324999999547,
          "durationTicks": 96,
          "midi": 42,
          "name": "F#2",
          "ticks": 59520,
          "time": 51.666615,
          "velocity": 0.2992125984251969
        },
        {
          "duration": 0.08333325000000258,
          "durationTicks": 96,
          "midi": 38,
          "name": "D2",
          "ticks": 59712,
          "time": 51.8332815,
          "velocity": 0.2992125984251969
        },
        {
          "duration": 0.08333325000000258,
          "durationTicks": 96,
          "midi": 40,
          "name": "E2",
          "ticks": 59712,
          "time": 51.8332815,
          "velocity": 0.2992125984251969
        },
        {
          "duration": 0.08333325000000258,
          "durationTicks": 96,
          "midi": 42,
          "name": "F#2",
          "ticks": 59712,
          "time": 51.8332815,
          "velocity": 0.2992125984251969
        },
        {
          "duration": 0.08333325000000258,
          "durationTicks": 96,
          "midi": 53,
          "name": "F3",
          "ticks": 59904,
          "time": 51.999947999999996,
          "velocity": 0.2992125984251969
        },
        {
          "duration": 0.08333325000000258,
          "durationTicks": 96,
          "midi": 51,
          "name": "D#3",
          "ticks": 59904,
          "time": 51.999947999999996,
          "velocity": 0.2992125984251969
        },
        {
          "duration": 0.08333325000000258,
          "durationTicks": 96,
          "midi": 42,
          "name": "F#2",
          "ticks": 59904,
          "time": 51.999947999999996,
          "velocity": 0.2992125984251969
        },
        {
          "duration": 0.08333325000000258,
          "durationTicks": 96,
          "midi": 49,
          "name": "C#3",
          "ticks": 59904,
          "time": 51.999947999999996,
          "velocity": 0.2992125984251969
        },
        {
          "duration": 0.08333325000000258,
          "durationTicks": 96,
          "midi": 36,
          "name": "C2",
          "ticks": 59904,
          "time": 51.999947999999996,
          "velocity": 0.2992125984251969
        },
        {
          "duration": 0.08333325000000258,
          "durationTicks": 96,
          "midi": 59,
          "name": "B3",
          "ticks": 59904,
          "time": 51.999947999999996,
          "velocity": 0.2992125984251969
        },
        {
          "duration": 0.08333324999999547,
          "durationTicks": 96,
          "midi": 36,
          "name": "C2",
          "ticks": 60096,
          "time": 52.1666145,
          "velocity": 0.2992125984251969
        },
        {
          "duration": 0.08333324999999547,
          "durationTicks": 96,
          "midi": 42,
          "name": "F#2",
          "ticks": 60096,
          "time": 52.1666145,
          "velocity": 0.2992125984251969
        },
        {
          "duration": 0.08333324999999547,
          "durationTicks": 96,
          "midi": 40,
          "name": "E2",
          "ticks": 60288,
          "time": 52.333281,
          "velocity": 0.2992125984251969
        },
        {
          "duration": 0.08333324999999547,
          "durationTicks": 96,
          "midi": 53,
          "name": "F3",
          "ticks": 60288,
          "time": 52.333281,
          "velocity": 0.2992125984251969
        },
        {
          "duration": 0.08333324999999547,
          "durationTicks": 96,
          "midi": 42,
          "name": "F#2",
          "ticks": 60288,
          "time": 52.333281,
          "velocity": 0.2992125984251969
        },
        {
          "duration": 0.08333324999999547,
          "durationTicks": 96,
          "midi": 38,
          "name": "D2",
          "ticks": 60288,
          "time": 52.333281,
          "velocity": 0.2992125984251969
        },
        {
          "duration": 0.08333324999999547,
          "durationTicks": 96,
          "midi": 59,
          "name": "B3",
          "ticks": 60288,
          "time": 52.333281,
          "velocity": 0.2992125984251969
        },
        {
          "duration": 0.08333324999999547,
          "durationTicks": 96,
          "midi": 51,
          "name": "D#3",
          "ticks": 60288,
          "time": 52.333281,
          "velocity": 0.2992125984251969
        },
        {
          "duration": 0.08333324999999547,
          "durationTicks": 96,
          "midi": 49,
          "name": "C#3",
          "ticks": 60288,
          "time": 52.333281,
          "velocity": 0.2992125984251969
        },
        {
          "duration": 0.08333325000000258,
          "durationTicks": 96,
          "midi": 42,
          "name": "F#2",
          "ticks": 60480,
          "time": 52.4999475,
          "velocity": 0.2992125984251969
        },
        {
          "duration": 0.08333325000000258,
          "durationTicks": 96,
          "midi": 36,
          "name": "C2",
          "ticks": 60480,
          "time": 52.4999475,
          "velocity": 0.2992125984251969
        },
        {
          "duration": 0.08333325000000258,
          "durationTicks": 96,
          "midi": 42,
          "name": "F#2",
          "ticks": 60672,
          "time": 52.666613999999996,
          "velocity": 0.2992125984251969
        },
        {
          "duration": 0.08333325000000258,
          "durationTicks": 96,
          "midi": 36,
          "name": "C2",
          "ticks": 60672,
          "time": 52.666613999999996,
          "velocity": 0.2992125984251969
        },
        {
          "duration": 0.08333324999999547,
          "durationTicks": 96,
          "midi": 42,
          "name": "F#2",
          "ticks": 60864,
          "time": 52.8332805,
          "velocity": 0.2992125984251969
        },
        {
          "duration": 0.08333324999999547,
          "durationTicks": 96,
          "midi": 59,
          "name": "B3",
          "ticks": 60864,
          "time": 52.8332805,
          "velocity": 0.2992125984251969
        },
        {
          "duration": 0.08333324999999547,
          "durationTicks": 96,
          "midi": 51,
          "name": "D#3",
          "ticks": 60864,
          "time": 52.8332805,
          "velocity": 0.2992125984251969
        },
        {
          "duration": 0.08333324999999547,
          "durationTicks": 96,
          "midi": 49,
          "name": "C#3",
          "ticks": 60864,
          "time": 52.8332805,
          "velocity": 0.2992125984251969
        },
        {
          "duration": 0.08333324999999547,
          "durationTicks": 96,
          "midi": 53,
          "name": "F3",
          "ticks": 60864,
          "time": 52.8332805,
          "velocity": 0.2992125984251969
        },
        {
          "duration": 0.08333324999999547,
          "durationTicks": 96,
          "midi": 40,
          "name": "E2",
          "ticks": 60864,
          "time": 52.8332805,
          "velocity": 0.2992125984251969
        },
        {
          "duration": 0.08333324999999547,
          "durationTicks": 96,
          "midi": 38,
          "name": "D2",
          "ticks": 60864,
          "time": 52.8332805,
          "velocity": 0.2992125984251969
        },
        {
          "duration": 0.08333325000000258,
          "durationTicks": 96,
          "midi": 36,
          "name": "C2",
          "ticks": 61056,
          "time": 52.999947,
          "velocity": 0.2992125984251969
        },
        {
          "duration": 0.08333325000000258,
          "durationTicks": 96,
          "midi": 42,
          "name": "F#2",
          "ticks": 61056,
          "time": 52.999947,
          "velocity": 0.2992125984251969
        },
        {
          "duration": 0.08333325000000258,
          "durationTicks": 96,
          "midi": 38,
          "name": "D2",
          "ticks": 61248,
          "time": 53.1666135,
          "velocity": 0.2992125984251969
        },
        {
          "duration": 0.08333325000000258,
          "durationTicks": 96,
          "midi": 42,
          "name": "F#2",
          "ticks": 61248,
          "time": 53.1666135,
          "velocity": 0.2992125984251969
        },
        {
          "duration": 0.08333325000000258,
          "durationTicks": 96,
          "midi": 40,
          "name": "E2",
          "ticks": 61248,
          "time": 53.1666135,
          "velocity": 0.2992125984251969
        },
        {
          "duration": 0.08333324999999547,
          "durationTicks": 96,
          "midi": 36,
          "name": "C2",
          "ticks": 61440,
          "time": 53.33328,
          "velocity": 0.2992125984251969
        },
        {
          "duration": 0.08333324999999547,
          "durationTicks": 96,
          "midi": 49,
          "name": "C#3",
          "ticks": 61440,
          "time": 53.33328,
          "velocity": 0.2992125984251969
        },
        {
          "duration": 0.08333324999999547,
          "durationTicks": 96,
          "midi": 42,
          "name": "F#2",
          "ticks": 61440,
          "time": 53.33328,
          "velocity": 0.2992125984251969
        },
        {
          "duration": 0.08333324999999547,
          "durationTicks": 96,
          "midi": 51,
          "name": "D#3",
          "ticks": 61440,
          "time": 53.33328,
          "velocity": 0.2992125984251969
        },
        {
          "duration": 0.08333324999999547,
          "durationTicks": 96,
          "midi": 59,
          "name": "B3",
          "ticks": 61440,
          "time": 53.33328,
          "velocity": 0.2992125984251969
        },
        {
          "duration": 0.08333324999999547,
          "durationTicks": 96,
          "midi": 53,
          "name": "F3",
          "ticks": 61440,
          "time": 53.33328,
          "velocity": 0.2992125984251969
        },
        {
          "duration": 0.08333324999999547,
          "durationTicks": 96,
          "midi": 42,
          "name": "F#2",
          "ticks": 61632,
          "time": 53.4999465,
          "velocity": 0.2992125984251969
        },
        {
          "duration": 0.08333324999999547,
          "durationTicks": 96,
          "midi": 36,
          "name": "C2",
          "ticks": 61632,
          "time": 53.4999465,
          "velocity": 0.2992125984251969
        },
        {
          "duration": 0.08333325000000258,
          "durationTicks": 96,
          "midi": 38,
          "name": "D2",
          "ticks": 61824,
          "time": 53.666613,
          "velocity": 0.2992125984251969
        },
        {
          "duration": 0.08333325000000258,
          "durationTicks": 96,
          "midi": 42,
          "name": "F#2",
          "ticks": 61824,
          "time": 53.666613,
          "velocity": 0.2992125984251969
        },
        {
          "duration": 0.08333325000000258,
          "durationTicks": 96,
          "midi": 51,
          "name": "D#3",
          "ticks": 61824,
          "time": 53.666613,
          "velocity": 0.2992125984251969
        },
        {
          "duration": 0.08333325000000258,
          "durationTicks": 96,
          "midi": 40,
          "name": "E2",
          "ticks": 61824,
          "time": 53.666613,
          "velocity": 0.2992125984251969
        },
        {
          "duration": 0.08333325000000258,
          "durationTicks": 96,
          "midi": 59,
          "name": "B3",
          "ticks": 61824,
          "time": 53.666613,
          "velocity": 0.2992125984251969
        },
        {
          "duration": 0.08333325000000258,
          "durationTicks": 96,
          "midi": 49,
          "name": "C#3",
          "ticks": 61824,
          "time": 53.666613,
          "velocity": 0.2992125984251969
        },
        {
          "duration": 0.08333325000000258,
          "durationTicks": 96,
          "midi": 53,
          "name": "F3",
          "ticks": 61824,
          "time": 53.666613,
          "velocity": 0.2992125984251969
        },
        {
          "duration": 0.08333325000000258,
          "durationTicks": 96,
          "midi": 42,
          "name": "F#2",
          "ticks": 62016,
          "time": 53.833279499999996,
          "velocity": 0.2992125984251969
        },
        {
          "duration": 0.08333325000000258,
          "durationTicks": 96,
          "midi": 36,
          "name": "C2",
          "ticks": 62016,
          "time": 53.833279499999996,
          "velocity": 0.2992125984251969
        },
        {
          "duration": 0.08333324999999547,
          "durationTicks": 96,
          "midi": 42,
          "name": "F#2",
          "ticks": 62208,
          "time": 53.999946,
          "velocity": 0.2992125984251969
        },
        {
          "duration": 0.08333324999999547,
          "durationTicks": 96,
          "midi": 36,
          "name": "C2",
          "ticks": 62208,
          "time": 53.999946,
          "velocity": 0.2992125984251969
        },
        {
          "duration": 0.08333325000000258,
          "durationTicks": 96,
          "midi": 42,
          "name": "F#2",
          "ticks": 62400,
          "time": 54.1666125,
          "velocity": 0.2992125984251969
        },
        {
          "duration": 0.08333325000000258,
          "durationTicks": 96,
          "midi": 38,
          "name": "D2",
          "ticks": 62400,
          "time": 54.1666125,
          "velocity": 0.2992125984251969
        },
        {
          "duration": 0.08333325000000258,
          "durationTicks": 96,
          "midi": 51,
          "name": "D#3",
          "ticks": 62400,
          "time": 54.1666125,
          "velocity": 0.2992125984251969
        },
        {
          "duration": 0.08333325000000258,
          "durationTicks": 96,
          "midi": 53,
          "name": "F3",
          "ticks": 62400,
          "time": 54.1666125,
          "velocity": 0.2992125984251969
        },
        {
          "duration": 0.08333325000000258,
          "durationTicks": 96,
          "midi": 49,
          "name": "C#3",
          "ticks": 62400,
          "time": 54.1666125,
          "velocity": 0.2992125984251969
        },
        {
          "duration": 0.08333325000000258,
          "durationTicks": 96,
          "midi": 40,
          "name": "E2",
          "ticks": 62400,
          "time": 54.1666125,
          "velocity": 0.2992125984251969
        },
        {
          "duration": 0.08333325000000258,
          "durationTicks": 96,
          "midi": 59,
          "name": "B3",
          "ticks": 62400,
          "time": 54.1666125,
          "velocity": 0.2992125984251969
        },
        {
          "duration": 0.08333325000000258,
          "durationTicks": 96,
          "midi": 36,
          "name": "C2",
          "ticks": 62592,
          "time": 54.333279,
          "velocity": 0.2992125984251969
        },
        {
          "duration": 0.08333325000000258,
          "durationTicks": 96,
          "midi": 42,
          "name": "F#2",
          "ticks": 62592,
          "time": 54.333279,
          "velocity": 0.2992125984251969
        },
        {
          "duration": 0.08333325000000258,
          "durationTicks": 96,
          "midi": 40,
          "name": "E2",
          "ticks": 62784,
          "time": 54.499945499999995,
          "velocity": 0.2992125984251969
        },
        {
          "duration": 0.08333325000000258,
          "durationTicks": 96,
          "midi": 42,
          "name": "F#2",
          "ticks": 62784,
          "time": 54.499945499999995,
          "velocity": 0.2992125984251969
        },
        {
          "duration": 0.08333325000000258,
          "durationTicks": 96,
          "midi": 38,
          "name": "D2",
          "ticks": 62784,
          "time": 54.499945499999995,
          "velocity": 0.2992125984251969
        },
        {
          "duration": 0.08333324999999547,
          "durationTicks": 96,
          "midi": 49,
          "name": "C#3",
          "ticks": 62976,
          "time": 54.666612,
          "velocity": 0.2992125984251969
        },
        {
          "duration": 0.08333324999999547,
          "durationTicks": 96,
          "midi": 51,
          "name": "D#3",
          "ticks": 62976,
          "time": 54.666612,
          "velocity": 0.2992125984251969
        },
        {
          "duration": 0.08333324999999547,
          "durationTicks": 96,
          "midi": 53,
          "name": "F3",
          "ticks": 62976,
          "time": 54.666612,
          "velocity": 0.2992125984251969
        },
        {
          "duration": 0.08333324999999547,
          "durationTicks": 96,
          "midi": 42,
          "name": "F#2",
          "ticks": 62976,
          "time": 54.666612,
          "velocity": 0.2992125984251969
        },
        {
          "duration": 0.08333324999999547,
          "durationTicks": 96,
          "midi": 59,
          "name": "B3",
          "ticks": 62976,
          "time": 54.666612,
          "velocity": 0.2992125984251969
        },
        {
          "duration": 0.08333324999999547,
          "durationTicks": 96,
          "midi": 36,
          "name": "C2",
          "ticks": 62976,
          "time": 54.666612,
          "velocity": 0.2992125984251969
        },
        {
          "duration": 0.08333325000000258,
          "durationTicks": 96,
          "midi": 42,
          "name": "F#2",
          "ticks": 63168,
          "time": 54.8332785,
          "velocity": 0.2992125984251969
        },
        {
          "duration": 0.08333325000000258,
          "durationTicks": 96,
          "midi": 36,
          "name": "C2",
          "ticks": 63168,
          "time": 54.8332785,
          "velocity": 0.2992125984251969
        },
        {
          "duration": 0.08333325000000258,
          "durationTicks": 96,
          "midi": 42,
          "name": "F#2",
          "ticks": 63360,
          "time": 54.999945,
          "velocity": 0.2992125984251969
        },
        {
          "duration": 0.08333325000000258,
          "durationTicks": 96,
          "midi": 40,
          "name": "E2",
          "ticks": 63360,
          "time": 54.999945,
          "velocity": 0.2992125984251969
        },
        {
          "duration": 0.08333325000000258,
          "durationTicks": 96,
          "midi": 53,
          "name": "F3",
          "ticks": 63360,
          "time": 54.999945,
          "velocity": 0.2992125984251969
        },
        {
          "duration": 0.08333325000000258,
          "durationTicks": 96,
          "midi": 38,
          "name": "D2",
          "ticks": 63360,
          "time": 54.999945,
          "velocity": 0.2992125984251969
        },
        {
          "duration": 0.08333325000000258,
          "durationTicks": 96,
          "midi": 49,
          "name": "C#3",
          "ticks": 63360,
          "time": 54.999945,
          "velocity": 0.2992125984251969
        },
        {
          "duration": 0.08333325000000258,
          "durationTicks": 96,
          "midi": 59,
          "name": "B3",
          "ticks": 63360,
          "time": 54.999945,
          "velocity": 0.2992125984251969
        },
        {
          "duration": 0.08333325000000258,
          "durationTicks": 96,
          "midi": 51,
          "name": "D#3",
          "ticks": 63360,
          "time": 54.999945,
          "velocity": 0.2992125984251969
        },
        {
          "duration": 0.08333324999999547,
          "durationTicks": 96,
          "midi": 36,
          "name": "C2",
          "ticks": 63552,
          "time": 55.1666115,
          "velocity": 0.2992125984251969
        },
        {
          "duration": 0.08333324999999547,
          "durationTicks": 96,
          "midi": 42,
          "name": "F#2",
          "ticks": 63552,
          "time": 55.1666115,
          "velocity": 0.2992125984251969
        },
        {
          "duration": 0.08333324999999547,
          "durationTicks": 96,
          "midi": 42,
          "name": "F#2",
          "ticks": 63744,
          "time": 55.333278,
          "velocity": 0.2992125984251969
        },
        {
          "duration": 0.08333324999999547,
          "durationTicks": 96,
          "midi": 36,
          "name": "C2",
          "ticks": 63744,
          "time": 55.333278,
          "velocity": 0.2992125984251969
        },
        {
          "duration": 0.08333325000000258,
          "durationTicks": 96,
          "midi": 42,
          "name": "F#2",
          "ticks": 63936,
          "time": 55.4999445,
          "velocity": 0.2992125984251969
        },
        {
          "duration": 0.08333325000000258,
          "durationTicks": 96,
          "midi": 51,
          "name": "D#3",
          "ticks": 63936,
          "time": 55.4999445,
          "velocity": 0.2992125984251969
        },
        {
          "duration": 0.08333325000000258,
          "durationTicks": 96,
          "midi": 38,
          "name": "D2",
          "ticks": 63936,
          "time": 55.4999445,
          "velocity": 0.2992125984251969
        },
        {
          "duration": 0.08333325000000258,
          "durationTicks": 96,
          "midi": 59,
          "name": "B3",
          "ticks": 63936,
          "time": 55.4999445,
          "velocity": 0.2992125984251969
        },
        {
          "duration": 0.08333325000000258,
          "durationTicks": 96,
          "midi": 53,
          "name": "F3",
          "ticks": 63936,
          "time": 55.4999445,
          "velocity": 0.2992125984251969
        },
        {
          "duration": 0.08333325000000258,
          "durationTicks": 96,
          "midi": 49,
          "name": "C#3",
          "ticks": 63936,
          "time": 55.4999445,
          "velocity": 0.2992125984251969
        },
        {
          "duration": 0.08333325000000258,
          "durationTicks": 96,
          "midi": 40,
          "name": "E2",
          "ticks": 63936,
          "time": 55.4999445,
          "velocity": 0.2992125984251969
        },
        {
          "duration": 0.08333325000000258,
          "durationTicks": 96,
          "midi": 42,
          "name": "F#2",
          "ticks": 64128,
          "time": 55.666610999999996,
          "velocity": 0.2992125984251969
        },
        {
          "duration": 0.08333325000000258,
          "durationTicks": 96,
          "midi": 36,
          "name": "C2",
          "ticks": 64128,
          "time": 55.666610999999996,
          "velocity": 0.2992125984251969
        },
        {
          "duration": 0.08333324999999547,
          "durationTicks": 96,
          "midi": 38,
          "name": "D2",
          "ticks": 64320,
          "time": 55.8332775,
          "velocity": 0.2992125984251969
        },
        {
          "duration": 0.08333324999999547,
          "durationTicks": 96,
          "midi": 42,
          "name": "F#2",
          "ticks": 64320,
          "time": 55.8332775,
          "velocity": 0.2992125984251969
        },
        {
          "duration": 0.08333324999999547,
          "durationTicks": 96,
          "midi": 40,
          "name": "E2",
          "ticks": 64320,
          "time": 55.8332775,
          "velocity": 0.2992125984251969
        },
        {
          "duration": 0.08333325000000258,
          "durationTicks": 96,
          "midi": 36,
          "name": "C2",
          "ticks": 64512,
          "time": 55.999944,
          "velocity": 0.2992125984251969
        },
        {
          "duration": 0.08333325000000258,
          "durationTicks": 96,
          "midi": 49,
          "name": "C#3",
          "ticks": 64512,
          "time": 55.999944,
          "velocity": 0.2992125984251969
        },
        {
          "duration": 0.08333325000000258,
          "durationTicks": 96,
          "midi": 42,
          "name": "F#2",
          "ticks": 64512,
          "time": 55.999944,
          "velocity": 0.2992125984251969
        },
        {
          "duration": 0.08333325000000258,
          "durationTicks": 96,
          "midi": 53,
          "name": "F3",
          "ticks": 64512,
          "time": 55.999944,
          "velocity": 0.2992125984251969
        },
        {
          "duration": 0.08333325000000258,
          "durationTicks": 96,
          "midi": 51,
          "name": "D#3",
          "ticks": 64512,
          "time": 55.999944,
          "velocity": 0.2992125984251969
        },
        {
          "duration": 0.08333325000000258,
          "durationTicks": 96,
          "midi": 59,
          "name": "B3",
          "ticks": 64512,
          "time": 55.999944,
          "velocity": 0.2992125984251969
        },
        {
          "duration": 0.08333325000000258,
          "durationTicks": 96,
          "midi": 42,
          "name": "F#2",
          "ticks": 64704,
          "time": 56.1666105,
          "velocity": 0.2992125984251969
        },
        {
          "duration": 0.08333325000000258,
          "durationTicks": 96,
          "midi": 36,
          "name": "C2",
          "ticks": 64704,
          "time": 56.1666105,
          "velocity": 0.2992125984251969
        },
        {
          "duration": 0.08333325000000258,
          "durationTicks": 96,
          "midi": 38,
          "name": "D2",
          "ticks": 64896,
          "time": 56.333276999999995,
          "velocity": 0.2992125984251969
        },
        {
          "duration": 0.08333325000000258,
          "durationTicks": 96,
          "midi": 42,
          "name": "F#2",
          "ticks": 64896,
          "time": 56.333276999999995,
          "velocity": 0.2992125984251969
        },
        {
          "duration": 0.08333325000000258,
          "durationTicks": 96,
          "midi": 40,
          "name": "E2",
          "ticks": 64896,
          "time": 56.333276999999995,
          "velocity": 0.2992125984251969
        },
        {
          "duration": 0.08333325000000258,
          "durationTicks": 96,
          "midi": 59,
          "name": "B3",
          "ticks": 64896,
          "time": 56.333276999999995,
          "velocity": 0.2992125984251969
        },
        {
          "duration": 0.08333325000000258,
          "durationTicks": 96,
          "midi": 49,
          "name": "C#3",
          "ticks": 64896,
          "time": 56.333276999999995,
          "velocity": 0.2992125984251969
        },
        {
          "duration": 0.08333325000000258,
          "durationTicks": 96,
          "midi": 53,
          "name": "F3",
          "ticks": 64896,
          "time": 56.333276999999995,
          "velocity": 0.2992125984251969
        },
        {
          "duration": 0.08333325000000258,
          "durationTicks": 96,
          "midi": 51,
          "name": "D#3",
          "ticks": 64896,
          "time": 56.333276999999995,
          "velocity": 0.2992125984251969
        },
        {
          "duration": 0.08333324999999547,
          "durationTicks": 96,
          "midi": 36,
          "name": "C2",
          "ticks": 65088,
          "time": 56.4999435,
          "velocity": 0.2992125984251969
        },
        {
          "duration": 0.08333324999999547,
          "durationTicks": 96,
          "midi": 42,
          "name": "F#2",
          "ticks": 65088,
          "time": 56.4999435,
          "velocity": 0.2992125984251969
        },
        {
          "duration": 0.08333325000000258,
          "durationTicks": 96,
          "midi": 36,
          "name": "C2",
          "ticks": 65280,
          "time": 56.66661,
          "velocity": 0.2992125984251969
        },
        {
          "duration": 0.08333325000000258,
          "durationTicks": 96,
          "midi": 42,
          "name": "F#2",
          "ticks": 65280,
          "time": 56.66661,
          "velocity": 0.2992125984251969
        },
        {
          "duration": 0.08333325000000258,
          "durationTicks": 96,
          "midi": 42,
          "name": "F#2",
          "ticks": 65472,
          "time": 56.8332765,
          "velocity": 0.2992125984251969
        },
        {
          "duration": 0.08333325000000258,
          "durationTicks": 96,
          "midi": 51,
          "name": "D#3",
          "ticks": 65472,
          "time": 56.8332765,
          "velocity": 0.2992125984251969
        },
        {
          "duration": 0.08333325000000258,
          "durationTicks": 96,
          "midi": 40,
          "name": "E2",
          "ticks": 65472,
          "time": 56.8332765,
          "velocity": 0.2992125984251969
        },
        {
          "duration": 0.08333325000000258,
          "durationTicks": 96,
          "midi": 38,
          "name": "D2",
          "ticks": 65472,
          "time": 56.8332765,
          "velocity": 0.2992125984251969
        },
        {
          "duration": 0.08333325000000258,
          "durationTicks": 96,
          "midi": 53,
          "name": "F3",
          "ticks": 65472,
          "time": 56.8332765,
          "velocity": 0.2992125984251969
        },
        {
          "duration": 0.08333325000000258,
          "durationTicks": 96,
          "midi": 59,
          "name": "B3",
          "ticks": 65472,
          "time": 56.8332765,
          "velocity": 0.2992125984251969
        },
        {
          "duration": 0.08333325000000258,
          "durationTicks": 96,
          "midi": 49,
          "name": "C#3",
          "ticks": 65472,
          "time": 56.8332765,
          "velocity": 0.2992125984251969
        },
        {
          "duration": 0.08333324999999547,
          "durationTicks": 96,
          "midi": 36,
          "name": "C2",
          "ticks": 65664,
          "time": 56.999943,
          "velocity": 0.2992125984251969
        },
        {
          "duration": 0.08333324999999547,
          "durationTicks": 96,
          "midi": 42,
          "name": "F#2",
          "ticks": 65664,
          "time": 56.999943,
          "velocity": 0.2992125984251969
        },
        {
          "duration": 0.08333324999999547,
          "durationTicks": 96,
          "midi": 42,
          "name": "F#2",
          "ticks": 65856,
          "time": 57.1666095,
          "velocity": 0.2992125984251969
        },
        {
          "duration": 0.08333324999999547,
          "durationTicks": 96,
          "midi": 40,
          "name": "E2",
          "ticks": 65856,
          "time": 57.1666095,
          "velocity": 0.2992125984251969
        },
        {
          "duration": 0.08333324999999547,
          "durationTicks": 96,
          "midi": 38,
          "name": "D2",
          "ticks": 65856,
          "time": 57.1666095,
          "velocity": 0.2992125984251969
        },
        {
          "duration": 0.08333325000000258,
          "durationTicks": 96,
          "midi": 53,
          "name": "F3",
          "ticks": 66048,
          "time": 57.333276,
          "velocity": 0.2992125984251969
        },
        {
          "duration": 0.08333325000000258,
          "durationTicks": 96,
          "midi": 51,
          "name": "D#3",
          "ticks": 66048,
          "time": 57.333276,
          "velocity": 0.2992125984251969
        },
        {
          "duration": 0.08333325000000258,
          "durationTicks": 96,
          "midi": 42,
          "name": "F#2",
          "ticks": 66048,
          "time": 57.333276,
          "velocity": 0.2992125984251969
        },
        {
          "duration": 0.08333325000000258,
          "durationTicks": 96,
          "midi": 49,
          "name": "C#3",
          "ticks": 66048,
          "time": 57.333276,
          "velocity": 0.2992125984251969
        },
        {
          "duration": 0.08333325000000258,
          "durationTicks": 96,
          "midi": 59,
          "name": "B3",
          "ticks": 66048,
          "time": 57.333276,
          "velocity": 0.2992125984251969
        },
        {
          "duration": 0.08333325000000258,
          "durationTicks": 96,
          "midi": 36,
          "name": "C2",
          "ticks": 66048,
          "time": 57.333276,
          "velocity": 0.2992125984251969
        },
        {
          "duration": 0.08333325000000258,
          "durationTicks": 96,
          "midi": 36,
          "name": "C2",
          "ticks": 66240,
          "time": 57.499942499999996,
          "velocity": 0.2992125984251969
        },
        {
          "duration": 0.08333325000000258,
          "durationTicks": 96,
          "midi": 42,
          "name": "F#2",
          "ticks": 66240,
          "time": 57.499942499999996,
          "velocity": 0.2992125984251969
        },
        {
          "duration": 0.08333324999999547,
          "durationTicks": 96,
          "midi": 49,
          "name": "C#3",
          "ticks": 66432,
          "time": 57.666609,
          "velocity": 0.2992125984251969
        },
        {
          "duration": 0.08333324999999547,
          "durationTicks": 96,
          "midi": 51,
          "name": "D#3",
          "ticks": 66432,
          "time": 57.666609,
          "velocity": 0.2992125984251969
        },
        {
          "duration": 0.08333324999999547,
          "durationTicks": 96,
          "midi": 38,
          "name": "D2",
          "ticks": 66432,
          "time": 57.666609,
          "velocity": 0.2992125984251969
        },
        {
          "duration": 0.08333324999999547,
          "durationTicks": 96,
          "midi": 53,
          "name": "F3",
          "ticks": 66432,
          "time": 57.666609,
          "velocity": 0.2992125984251969
        },
        {
          "duration": 0.08333324999999547,
          "durationTicks": 96,
          "midi": 59,
          "name": "B3",
          "ticks": 66432,
          "time": 57.666609,
          "velocity": 0.2992125984251969
        },
        {
          "duration": 0.08333324999999547,
          "durationTicks": 96,
          "midi": 42,
          "name": "F#2",
          "ticks": 66432,
          "time": 57.666609,
          "velocity": 0.2992125984251969
        },
        {
          "duration": 0.08333324999999547,
          "durationTicks": 96,
          "midi": 40,
          "name": "E2",
          "ticks": 66432,
          "time": 57.666609,
          "velocity": 0.2992125984251969
        },
        {
          "duration": 0.08333325000000258,
          "durationTicks": 96,
          "midi": 42,
          "name": "F#2",
          "ticks": 66624,
          "time": 57.8332755,
          "velocity": 0.2992125984251969
        },
        {
          "duration": 0.08333325000000258,
          "durationTicks": 96,
          "midi": 36,
          "name": "C2",
          "ticks": 66624,
          "time": 57.8332755,
          "velocity": 0.2992125984251969
        },
        {
          "duration": 0.08333325000000258,
          "durationTicks": 96,
          "midi": 36,
          "name": "C2",
          "ticks": 66816,
          "time": 57.999942,
          "velocity": 0.2992125984251969
        },
        {
          "duration": 0.08333325000000258,
          "durationTicks": 96,
          "midi": 42,
          "name": "F#2",
          "ticks": 66816,
          "time": 57.999942,
          "velocity": 0.2992125984251969
        },
        {
          "duration": 0.08333325000000258,
          "durationTicks": 96,
          "midi": 38,
          "name": "D2",
          "ticks": 67008,
          "time": 58.166608499999995,
          "velocity": 0.2992125984251969
        },
        {
          "duration": 0.08333325000000258,
          "durationTicks": 96,
          "midi": 40,
          "name": "E2",
          "ticks": 67008,
          "time": 58.166608499999995,
          "velocity": 0.2992125984251969
        },
        {
          "duration": 0.08333325000000258,
          "durationTicks": 96,
          "midi": 53,
          "name": "F3",
          "ticks": 67008,
          "time": 58.166608499999995,
          "velocity": 0.2992125984251969
        },
        {
          "duration": 0.08333325000000258,
          "durationTicks": 96,
          "midi": 51,
          "name": "D#3",
          "ticks": 67008,
          "time": 58.166608499999995,
          "velocity": 0.2992125984251969
        },
        {
          "duration": 0.08333325000000258,
          "durationTicks": 96,
          "midi": 59,
          "name": "B3",
          "ticks": 67008,
          "time": 58.166608499999995,
          "velocity": 0.2992125984251969
        },
        {
          "duration": 0.08333325000000258,
          "durationTicks": 96,
          "midi": 49,
          "name": "C#3",
          "ticks": 67008,
          "time": 58.166608499999995,
          "velocity": 0.2992125984251969
        },
        {
          "duration": 0.08333325000000258,
          "durationTicks": 96,
          "midi": 42,
          "name": "F#2",
          "ticks": 67008,
          "time": 58.166608499999995,
          "velocity": 0.2992125984251969
        },
        {
          "duration": 0.08333324999999547,
          "durationTicks": 96,
          "midi": 42,
          "name": "F#2",
          "ticks": 67200,
          "time": 58.333275,
          "velocity": 0.2992125984251969
        },
        {
          "duration": 0.08333324999999547,
          "durationTicks": 96,
          "midi": 36,
          "name": "C2",
          "ticks": 67200,
          "time": 58.333275,
          "velocity": 0.2992125984251969
        },
        {
          "duration": 0.08333325000000258,
          "durationTicks": 96,
          "midi": 42,
          "name": "F#2",
          "ticks": 67392,
          "time": 58.4999415,
          "velocity": 0.2992125984251969
        },
        {
          "duration": 0.08333325000000258,
          "durationTicks": 96,
          "midi": 38,
          "name": "D2",
          "ticks": 67392,
          "time": 58.4999415,
          "velocity": 0.2992125984251969
        },
        {
          "duration": 0.08333325000000258,
          "durationTicks": 96,
          "midi": 40,
          "name": "E2",
          "ticks": 67392,
          "time": 58.4999415,
          "velocity": 0.2992125984251969
        },
        {
          "duration": 0.08333325000000258,
          "durationTicks": 96,
          "midi": 36,
          "name": "C2",
          "ticks": 67584,
          "time": 58.666608,
          "velocity": 0.2992125984251969
        },
        {
          "duration": 0.08333325000000258,
          "durationTicks": 96,
          "midi": 42,
          "name": "F#2",
          "ticks": 67584,
          "time": 58.666608,
          "velocity": 0.2992125984251969
        },
        {
          "duration": 0.08333325000000258,
          "durationTicks": 96,
          "midi": 51,
          "name": "D#3",
          "ticks": 67584,
          "time": 58.666608,
          "velocity": 0.2992125984251969
        },
        {
          "duration": 0.08333325000000258,
          "durationTicks": 96,
          "midi": 53,
          "name": "F3",
          "ticks": 67584,
          "time": 58.666608,
          "velocity": 0.2992125984251969
        },
        {
          "duration": 0.08333325000000258,
          "durationTicks": 96,
          "midi": 49,
          "name": "C#3",
          "ticks": 67584,
          "time": 58.666608,
          "velocity": 0.2992125984251969
        },
        {
          "duration": 0.08333325000000258,
          "durationTicks": 96,
          "midi": 59,
          "name": "B3",
          "ticks": 67584,
          "time": 58.666608,
          "velocity": 0.2992125984251969
        },
        {
          "duration": 0.08333324999999547,
          "durationTicks": 96,
          "midi": 36,
          "name": "C2",
          "ticks": 67776,
          "time": 58.8332745,
          "velocity": 0.2992125984251969
        },
        {
          "duration": 0.08333324999999547,
          "durationTicks": 96,
          "midi": 42,
          "name": "F#2",
          "ticks": 67776,
          "time": 58.8332745,
          "velocity": 0.2992125984251969
        },
        {
          "duration": 0.08333324999999547,
          "durationTicks": 96,
          "midi": 53,
          "name": "F3",
          "ticks": 67968,
          "time": 58.999941,
          "velocity": 0.2992125984251969
        },
        {
          "duration": 0.08333324999999547,
          "durationTicks": 96,
          "midi": 40,
          "name": "E2",
          "ticks": 67968,
          "time": 58.999941,
          "velocity": 0.2992125984251969
        },
        {
          "duration": 0.08333324999999547,
          "durationTicks": 96,
          "midi": 42,
          "name": "F#2",
          "ticks": 67968,
          "time": 58.999941,
          "velocity": 0.2992125984251969
        },
        {
          "duration": 0.08333324999999547,
          "durationTicks": 96,
          "midi": 38,
          "name": "D2",
          "ticks": 67968,
          "time": 58.999941,
          "velocity": 0.2992125984251969
        },
        {
          "duration": 0.08333324999999547,
          "durationTicks": 96,
          "midi": 59,
          "name": "B3",
          "ticks": 67968,
          "time": 58.999941,
          "velocity": 0.2992125984251969
        },
        {
          "duration": 0.08333324999999547,
          "durationTicks": 96,
          "midi": 49,
          "name": "C#3",
          "ticks": 67968,
          "time": 58.999941,
          "velocity": 0.2992125984251969
        },
        {
          "duration": 0.08333324999999547,
          "durationTicks": 96,
          "midi": 51,
          "name": "D#3",
          "ticks": 67968,
          "time": 58.999941,
          "velocity": 0.2992125984251969
        },
        {
          "duration": 0.08333325000000258,
          "durationTicks": 96,
          "midi": 36,
          "name": "C2",
          "ticks": 68160,
          "time": 59.1666075,
          "velocity": 0.2992125984251969
        },
        {
          "duration": 0.08333325000000258,
          "durationTicks": 96,
          "midi": 42,
          "name": "F#2",
          "ticks": 68160,
          "time": 59.1666075,
          "velocity": 0.2992125984251969
        },
        {
          "duration": 0.08333325000000258,
          "durationTicks": 96,
          "midi": 42,
          "name": "F#2",
          "ticks": 68352,
          "time": 59.333273999999996,
          "velocity": 0.2992125984251969
        },
        {
          "duration": 0.08333325000000258,
          "durationTicks": 96,
          "midi": 36,
          "name": "C2",
          "ticks": 68352,
          "time": 59.333273999999996,
          "velocity": 0.2992125984251969
        },
        {
          "duration": 0.08333324999999547,
          "durationTicks": 96,
          "midi": 51,
          "name": "D#3",
          "ticks": 68544,
          "time": 59.4999405,
          "velocity": 0.2992125984251969
        },
        {
          "duration": 0.08333324999999547,
          "durationTicks": 96,
          "midi": 59,
          "name": "B3",
          "ticks": 68544,
          "time": 59.4999405,
          "velocity": 0.2992125984251969
        },
        {
          "duration": 0.08333324999999547,
          "durationTicks": 96,
          "midi": 53,
          "name": "F3",
          "ticks": 68544,
          "time": 59.4999405,
          "velocity": 0.2992125984251969
        },
        {
          "duration": 0.08333324999999547,
          "durationTicks": 96,
          "midi": 38,
          "name": "D2",
          "ticks": 68544,
          "time": 59.4999405,
          "velocity": 0.2992125984251969
        },
        {
          "duration": 0.08333324999999547,
          "durationTicks": 96,
          "midi": 49,
          "name": "C#3",
          "ticks": 68544,
          "time": 59.4999405,
          "velocity": 0.2992125984251969
        },
        {
          "duration": 0.08333324999999547,
          "durationTicks": 96,
          "midi": 40,
          "name": "E2",
          "ticks": 68544,
          "time": 59.4999405,
          "velocity": 0.2992125984251969
        },
        {
          "duration": 0.08333324999999547,
          "durationTicks": 96,
          "midi": 42,
          "name": "F#2",
          "ticks": 68544,
          "time": 59.4999405,
          "velocity": 0.2992125984251969
        },
        {
          "duration": 0.08333325000000258,
          "durationTicks": 96,
          "midi": 36,
          "name": "C2",
          "ticks": 68736,
          "time": 59.666607,
          "velocity": 0.2992125984251969
        },
        {
          "duration": 0.08333325000000258,
          "durationTicks": 96,
          "midi": 42,
          "name": "F#2",
          "ticks": 68736,
          "time": 59.666607,
          "velocity": 0.2992125984251969
        },
        {
          "duration": 0.08333325000000258,
          "durationTicks": 96,
          "midi": 40,
          "name": "E2",
          "ticks": 68928,
          "time": 59.8332735,
          "velocity": 0.2992125984251969
        },
        {
          "duration": 0.08333325000000258,
          "durationTicks": 96,
          "midi": 38,
          "name": "D2",
          "ticks": 68928,
          "time": 59.8332735,
          "velocity": 0.2992125984251969
        },
        {
          "duration": 0.08333325000000258,
          "durationTicks": 96,
          "midi": 42,
          "name": "F#2",
          "ticks": 68928,
          "time": 59.8332735,
          "velocity": 0.2992125984251969
        },
        {
          "duration": 0.08333325000000258,
          "durationTicks": 96,
          "midi": 59,
          "name": "B3",
          "ticks": 69120,
          "time": 59.999939999999995,
          "velocity": 0.2992125984251969
        },
        {
          "duration": 0.08333325000000258,
          "durationTicks": 96,
          "midi": 51,
          "name": "D#3",
          "ticks": 69120,
          "time": 59.999939999999995,
          "velocity": 0.2992125984251969
        },
        {
          "duration": 0.08333325000000258,
          "durationTicks": 96,
          "midi": 53,
          "name": "F3",
          "ticks": 69120,
          "time": 59.999939999999995,
          "velocity": 0.2992125984251969
        },
        {
          "duration": 0.08333325000000258,
          "durationTicks": 96,
          "midi": 42,
          "name": "F#2",
          "ticks": 69120,
          "time": 59.999939999999995,
          "velocity": 0.2992125984251969
        },
        {
          "duration": 0.08333325000000258,
          "durationTicks": 96,
          "midi": 49,
          "name": "C#3",
          "ticks": 69120,
          "time": 59.999939999999995,
          "velocity": 0.2992125984251969
        },
        {
          "duration": 0.08333325000000258,
          "durationTicks": 96,
          "midi": 36,
          "name": "C2",
          "ticks": 69120,
          "time": 59.999939999999995,
          "velocity": 0.2992125984251969
        },
        {
          "duration": 0.08333324999999547,
          "durationTicks": 96,
          "midi": 42,
          "name": "F#2",
          "ticks": 69312,
          "time": 60.1666065,
          "velocity": 0.2992125984251969
        },
        {
          "duration": 0.08333324999999547,
          "durationTicks": 96,
          "midi": 36,
          "name": "C2",
          "ticks": 69312,
          "time": 60.1666065,
          "velocity": 0.2992125984251969
        },
        {
          "duration": 0.08333325000000258,
          "durationTicks": 96,
          "midi": 40,
          "name": "E2",
          "ticks": 69504,
          "time": 60.333273,
          "velocity": 0.2992125984251969
        },
        {
          "duration": 0.08333325000000258,
          "durationTicks": 96,
          "midi": 51,
          "name": "D#3",
          "ticks": 69504,
          "time": 60.333273,
          "velocity": 0.2992125984251969
        },
        {
          "duration": 0.08333325000000258,
          "durationTicks": 96,
          "midi": 59,
          "name": "B3",
          "ticks": 69504,
          "time": 60.333273,
          "velocity": 0.2992125984251969
        },
        {
          "duration": 0.08333325000000258,
          "durationTicks": 96,
          "midi": 53,
          "name": "F3",
          "ticks": 69504,
          "time": 60.333273,
          "velocity": 0.2992125984251969
        },
        {
          "duration": 0.08333325000000258,
          "durationTicks": 96,
          "midi": 49,
          "name": "C#3",
          "ticks": 69504,
          "time": 60.333273,
          "velocity": 0.2992125984251969
        },
        {
          "duration": 0.08333325000000258,
          "durationTicks": 96,
          "midi": 42,
          "name": "F#2",
          "ticks": 69504,
          "time": 60.333273,
          "velocity": 0.2992125984251969
        },
        {
          "duration": 0.08333325000000258,
          "durationTicks": 96,
          "midi": 38,
          "name": "D2",
          "ticks": 69504,
          "time": 60.333273,
          "velocity": 0.2992125984251969
        },
        {
          "duration": 0.08333325000000258,
          "durationTicks": 96,
          "midi": 36,
          "name": "C2",
          "ticks": 69696,
          "time": 60.499939499999996,
          "velocity": 0.2992125984251969
        },
        {
          "duration": 0.08333325000000258,
          "durationTicks": 96,
          "midi": 42,
          "name": "F#2",
          "ticks": 69696,
          "time": 60.499939499999996,
          "velocity": 0.2992125984251969
        },
        {
          "duration": 0.08333324999999547,
          "durationTicks": 96,
          "midi": 42,
          "name": "F#2",
          "ticks": 69888,
          "time": 60.666606,
          "velocity": 0.2992125984251969
        },
        {
          "duration": 0.08333324999999547,
          "durationTicks": 96,
          "midi": 36,
          "name": "C2",
          "ticks": 69888,
          "time": 60.666606,
          "velocity": 0.2992125984251969
        },
        {
          "duration": 0.08333324999999547,
          "durationTicks": 96,
          "midi": 53,
          "name": "F3",
          "ticks": 70080,
          "time": 60.8332725,
          "velocity": 0.2992125984251969
        },
        {
          "duration": 0.08333324999999547,
          "durationTicks": 96,
          "midi": 51,
          "name": "D#3",
          "ticks": 70080,
          "time": 60.8332725,
          "velocity": 0.2992125984251969
        },
        {
          "duration": 0.08333324999999547,
          "durationTicks": 96,
          "midi": 38,
          "name": "D2",
          "ticks": 70080,
          "time": 60.8332725,
          "velocity": 0.2992125984251969
        },
        {
          "duration": 0.08333324999999547,
          "durationTicks": 96,
          "midi": 49,
          "name": "C#3",
          "ticks": 70080,
          "time": 60.8332725,
          "velocity": 0.2992125984251969
        },
        {
          "duration": 0.08333324999999547,
          "durationTicks": 96,
          "midi": 59,
          "name": "B3",
          "ticks": 70080,
          "time": 60.8332725,
          "velocity": 0.2992125984251969
        },
        {
          "duration": 0.08333324999999547,
          "durationTicks": 96,
          "midi": 40,
          "name": "E2",
          "ticks": 70080,
          "time": 60.8332725,
          "velocity": 0.2992125984251969
        },
        {
          "duration": 0.08333324999999547,
          "durationTicks": 96,
          "midi": 42,
          "name": "F#2",
          "ticks": 70080,
          "time": 60.8332725,
          "velocity": 0.2992125984251969
        },
        {
          "duration": 0.08333325000000258,
          "durationTicks": 96,
          "midi": 36,
          "name": "C2",
          "ticks": 70272,
          "time": 60.999939,
          "velocity": 0.2992125984251969
        },
        {
          "duration": 0.08333325000000258,
          "durationTicks": 96,
          "midi": 42,
          "name": "F#2",
          "ticks": 70272,
          "time": 60.999939,
          "velocity": 0.2992125984251969
        },
        {
          "duration": 0.08333325000000258,
          "durationTicks": 96,
          "midi": 38,
          "name": "D2",
          "ticks": 70464,
          "time": 61.166605499999996,
          "velocity": 0.2992125984251969
        },
        {
          "duration": 0.08333325000000258,
          "durationTicks": 96,
          "midi": 40,
          "name": "E2",
          "ticks": 70464,
          "time": 61.166605499999996,
          "velocity": 0.2992125984251969
        },
        {
          "duration": 0.08333325000000258,
          "durationTicks": 96,
          "midi": 42,
          "name": "F#2",
          "ticks": 70464,
          "time": 61.166605499999996,
          "velocity": 0.2992125984251969
        },
        {
          "duration": 0.08333325000000258,
          "durationTicks": 96,
          "midi": 36,
          "name": "C2",
          "ticks": 73728,
          "time": 63.999936,
          "velocity": 0.2992125984251969
        },
        {
          "duration": 0.08333325000000258,
          "durationTicks": 96,
          "midi": 51,
          "name": "D#3",
          "ticks": 73728,
          "time": 63.999936,
          "velocity": 0.2992125984251969
        },
        {
          "duration": 0.08333325000000258,
          "durationTicks": 96,
          "midi": 49,
          "name": "C#3",
          "ticks": 73728,
          "time": 63.999936,
          "velocity": 0.2992125984251969
        },
        {
          "duration": 0.08333325000000258,
          "durationTicks": 96,
          "midi": 42,
          "name": "F#2",
          "ticks": 73728,
          "time": 63.999936,
          "velocity": 0.2992125984251969
        },
        {
          "duration": 0.08333325000000258,
          "durationTicks": 96,
          "midi": 53,
          "name": "F3",
          "ticks": 73728,
          "time": 63.999936,
          "velocity": 0.2992125984251969
        },
        {
          "duration": 0.08333325000000258,
          "durationTicks": 96,
          "midi": 59,
          "name": "B3",
          "ticks": 73728,
          "time": 63.999936,
          "velocity": 0.2992125984251969
        },
        {
          "duration": 0.08333324999999547,
          "durationTicks": 96,
          "midi": 36,
          "name": "C2",
          "ticks": 73920,
          "time": 64.1666025,
          "velocity": 0.2992125984251969
        },
        {
          "duration": 0.08333324999999547,
          "durationTicks": 96,
          "midi": 42,
          "name": "F#2",
          "ticks": 73920,
          "time": 64.1666025,
          "velocity": 0.2992125984251969
        },
        {
          "duration": 0.08333324999999547,
          "durationTicks": 96,
          "midi": 49,
          "name": "C#3",
          "ticks": 74112,
          "time": 64.333269,
          "velocity": 0.2992125984251969
        },
        {
          "duration": 0.08333324999999547,
          "durationTicks": 96,
          "midi": 40,
          "name": "E2",
          "ticks": 74112,
          "time": 64.333269,
          "velocity": 0.2992125984251969
        },
        {
          "duration": 0.08333324999999547,
          "durationTicks": 96,
          "midi": 53,
          "name": "F3",
          "ticks": 74112,
          "time": 64.333269,
          "velocity": 0.2992125984251969
        },
        {
          "duration": 0.08333324999999547,
          "durationTicks": 96,
          "midi": 38,
          "name": "D2",
          "ticks": 74112,
          "time": 64.333269,
          "velocity": 0.2992125984251969
        },
        {
          "duration": 0.08333324999999547,
          "durationTicks": 96,
          "midi": 51,
          "name": "D#3",
          "ticks": 74112,
          "time": 64.333269,
          "velocity": 0.2992125984251969
        },
        {
          "duration": 0.08333324999999547,
          "durationTicks": 96,
          "midi": 42,
          "name": "F#2",
          "ticks": 74112,
          "time": 64.333269,
          "velocity": 0.2992125984251969
        },
        {
          "duration": 0.08333324999999547,
          "durationTicks": 96,
          "midi": 59,
          "name": "B3",
          "ticks": 74112,
          "time": 64.333269,
          "velocity": 0.2992125984251969
        },
        {
          "duration": 0.08333325000000968,
          "durationTicks": 96,
          "midi": 36,
          "name": "C2",
          "ticks": 74304,
          "time": 64.49993549999999,
          "velocity": 0.2992125984251969
        },
        {
          "duration": 0.08333325000000968,
          "durationTicks": 96,
          "midi": 42,
          "name": "F#2",
          "ticks": 74304,
          "time": 64.49993549999999,
          "velocity": 0.2992125984251969
        },
        {
          "duration": 0.08333324999999547,
          "durationTicks": 96,
          "midi": 36,
          "name": "C2",
          "ticks": 74496,
          "time": 64.666602,
          "velocity": 0.2992125984251969
        },
        {
          "duration": 0.08333324999999547,
          "durationTicks": 96,
          "midi": 42,
          "name": "F#2",
          "ticks": 74496,
          "time": 64.666602,
          "velocity": 0.2992125984251969
        },
        {
          "duration": 0.08333324999999547,
          "durationTicks": 96,
          "midi": 51,
          "name": "D#3",
          "ticks": 74688,
          "time": 64.8332685,
          "velocity": 0.2992125984251969
        },
        {
          "duration": 0.08333324999999547,
          "durationTicks": 96,
          "midi": 40,
          "name": "E2",
          "ticks": 74688,
          "time": 64.8332685,
          "velocity": 0.2992125984251969
        },
        {
          "duration": 0.08333324999999547,
          "durationTicks": 96,
          "midi": 53,
          "name": "F3",
          "ticks": 74688,
          "time": 64.8332685,
          "velocity": 0.2992125984251969
        },
        {
          "duration": 0.08333324999999547,
          "durationTicks": 96,
          "midi": 59,
          "name": "B3",
          "ticks": 74688,
          "time": 64.8332685,
          "velocity": 0.2992125984251969
        },
        {
          "duration": 0.08333324999999547,
          "durationTicks": 96,
          "midi": 42,
          "name": "F#2",
          "ticks": 74688,
          "time": 64.8332685,
          "velocity": 0.2992125984251969
        },
        {
          "duration": 0.08333324999999547,
          "durationTicks": 96,
          "midi": 49,
          "name": "C#3",
          "ticks": 74688,
          "time": 64.8332685,
          "velocity": 0.2992125984251969
        },
        {
          "duration": 0.08333324999999547,
          "durationTicks": 96,
          "midi": 38,
          "name": "D2",
          "ticks": 74688,
          "time": 64.8332685,
          "velocity": 0.2992125984251969
        },
        {
          "duration": 0.08333325000000968,
          "durationTicks": 96,
          "midi": 36,
          "name": "C2",
          "ticks": 74880,
          "time": 64.999935,
          "velocity": 0.2992125984251969
        },
        {
          "duration": 0.08333325000000968,
          "durationTicks": 96,
          "midi": 42,
          "name": "F#2",
          "ticks": 74880,
          "time": 64.999935,
          "velocity": 0.2992125984251969
        },
        {
          "duration": 0.08333324999999547,
          "durationTicks": 96,
          "midi": 40,
          "name": "E2",
          "ticks": 75072,
          "time": 65.1666015,
          "velocity": 0.2992125984251969
        },
        {
          "duration": 0.08333324999999547,
          "durationTicks": 96,
          "midi": 42,
          "name": "F#2",
          "ticks": 75072,
          "time": 65.1666015,
          "velocity": 0.2992125984251969
        },
        {
          "duration": 0.08333324999999547,
          "durationTicks": 96,
          "midi": 38,
          "name": "D2",
          "ticks": 75072,
          "time": 65.1666015,
          "velocity": 0.2992125984251969
        },
        {
          "duration": 0.08333324999999547,
          "durationTicks": 96,
          "midi": 42,
          "name": "F#2",
          "ticks": 75264,
          "time": 65.333268,
          "velocity": 0.2992125984251969
        },
        {
          "duration": 0.08333324999999547,
          "durationTicks": 96,
          "midi": 51,
          "name": "D#3",
          "ticks": 75264,
          "time": 65.333268,
          "velocity": 0.2992125984251969
        },
        {
          "duration": 0.08333324999999547,
          "durationTicks": 96,
          "midi": 36,
          "name": "C2",
          "ticks": 75264,
          "time": 65.333268,
          "velocity": 0.2992125984251969
        },
        {
          "duration": 0.08333324999999547,
          "durationTicks": 96,
          "midi": 49,
          "name": "C#3",
          "ticks": 75264,
          "time": 65.333268,
          "velocity": 0.2992125984251969
        },
        {
          "duration": 0.08333324999999547,
          "durationTicks": 96,
          "midi": 59,
          "name": "B3",
          "ticks": 75264,
          "time": 65.333268,
          "velocity": 0.2992125984251969
        },
        {
          "duration": 0.08333324999999547,
          "durationTicks": 96,
          "midi": 53,
          "name": "F3",
          "ticks": 75264,
          "time": 65.333268,
          "velocity": 0.2992125984251969
        },
        {
          "duration": 0.08333325000000968,
          "durationTicks": 96,
          "midi": 42,
          "name": "F#2",
          "ticks": 75456,
          "time": 65.4999345,
          "velocity": 0.2992125984251969
        },
        {
          "duration": 0.08333325000000968,
          "durationTicks": 96,
          "midi": 36,
          "name": "C2",
          "ticks": 75456,
          "time": 65.4999345,
          "velocity": 0.2992125984251969
        },
        {
          "duration": 0.08333324999999547,
          "durationTicks": 96,
          "midi": 53,
          "name": "F3",
          "ticks": 75648,
          "time": 65.666601,
          "velocity": 0.2992125984251969
        },
        {
          "duration": 0.08333324999999547,
          "durationTicks": 96,
          "midi": 40,
          "name": "E2",
          "ticks": 75648,
          "time": 65.666601,
          "velocity": 0.2992125984251969
        },
        {
          "duration": 0.08333324999999547,
          "durationTicks": 96,
          "midi": 59,
          "name": "B3",
          "ticks": 75648,
          "time": 65.666601,
          "velocity": 0.2992125984251969
        },
        {
          "duration": 0.08333324999999547,
          "durationTicks": 96,
          "midi": 38,
          "name": "D2",
          "ticks": 75648,
          "time": 65.666601,
          "velocity": 0.2992125984251969
        },
        {
          "duration": 0.08333324999999547,
          "durationTicks": 96,
          "midi": 51,
          "name": "D#3",
          "ticks": 75648,
          "time": 65.666601,
          "velocity": 0.2992125984251969
        },
        {
          "duration": 0.08333324999999547,
          "durationTicks": 96,
          "midi": 49,
          "name": "C#3",
          "ticks": 75648,
          "time": 65.666601,
          "velocity": 0.2992125984251969
        },
        {
          "duration": 0.08333324999999547,
          "durationTicks": 96,
          "midi": 42,
          "name": "F#2",
          "ticks": 75648,
          "time": 65.666601,
          "velocity": 0.2992125984251969
        },
        {
          "duration": 0.08333324999999547,
          "durationTicks": 96,
          "midi": 36,
          "name": "C2",
          "ticks": 75840,
          "time": 65.8332675,
          "velocity": 0.2992125984251969
        },
        {
          "duration": 0.08333324999999547,
          "durationTicks": 96,
          "midi": 42,
          "name": "F#2",
          "ticks": 75840,
          "time": 65.8332675,
          "velocity": 0.2992125984251969
        },
        {
          "duration": 0.08333324999999547,
          "durationTicks": 96,
          "midi": 42,
          "name": "F#2",
          "ticks": 76032,
          "time": 65.999934,
          "velocity": 0.2992125984251969
        },
        {
          "duration": 0.08333324999999547,
          "durationTicks": 96,
          "midi": 36,
          "name": "C2",
          "ticks": 76032,
          "time": 65.999934,
          "velocity": 0.2992125984251969
        },
        {
          "duration": 0.08333324999999547,
          "durationTicks": 96,
          "midi": 42,
          "name": "F#2",
          "ticks": 76224,
          "time": 66.1666005,
          "velocity": 0.2992125984251969
        },
        {
          "duration": 0.08333324999999547,
          "durationTicks": 96,
          "midi": 49,
          "name": "C#3",
          "ticks": 76224,
          "time": 66.1666005,
          "velocity": 0.2992125984251969
        },
        {
          "duration": 0.08333324999999547,
          "durationTicks": 96,
          "midi": 53,
          "name": "F3",
          "ticks": 76224,
          "time": 66.1666005,
          "velocity": 0.2992125984251969
        },
        {
          "duration": 0.08333324999999547,
          "durationTicks": 96,
          "midi": 38,
          "name": "D2",
          "ticks": 76224,
          "time": 66.1666005,
          "velocity": 0.2992125984251969
        },
        {
          "duration": 0.08333324999999547,
          "durationTicks": 96,
          "midi": 51,
          "name": "D#3",
          "ticks": 76224,
          "time": 66.1666005,
          "velocity": 0.2992125984251969
        },
        {
          "duration": 0.08333324999999547,
          "durationTicks": 96,
          "midi": 40,
          "name": "E2",
          "ticks": 76224,
          "time": 66.1666005,
          "velocity": 0.2992125984251969
        },
        {
          "duration": 0.08333324999999547,
          "durationTicks": 96,
          "midi": 59,
          "name": "B3",
          "ticks": 76224,
          "time": 66.1666005,
          "velocity": 0.2992125984251969
        },
        {
          "duration": 0.08333325000000968,
          "durationTicks": 96,
          "midi": 36,
          "name": "C2",
          "ticks": 76416,
          "time": 66.33326699999999,
          "velocity": 0.2992125984251969
        },
        {
          "duration": 0.08333325000000968,
          "durationTicks": 96,
          "midi": 42,
          "name": "F#2",
          "ticks": 76416,
          "time": 66.33326699999999,
          "velocity": 0.2992125984251969
        },
        {
          "duration": 0.08333324999999547,
          "durationTicks": 96,
          "midi": 42,
          "name": "F#2",
          "ticks": 76608,
          "time": 66.4999335,
          "velocity": 0.2992125984251969
        },
        {
          "duration": 0.08333324999999547,
          "durationTicks": 96,
          "midi": 38,
          "name": "D2",
          "ticks": 76608,
          "time": 66.4999335,
          "velocity": 0.2992125984251969
        },
        {
          "duration": 0.08333324999999547,
          "durationTicks": 96,
          "midi": 40,
          "name": "E2",
          "ticks": 76608,
          "time": 66.4999335,
          "velocity": 0.2992125984251969
        },
        {
          "duration": 0.08333324999999547,
          "durationTicks": 96,
          "midi": 49,
          "name": "C#3",
          "ticks": 76800,
          "time": 66.6666,
          "velocity": 0.2992125984251969
        },
        {
          "duration": 0.08333324999999547,
          "durationTicks": 96,
          "midi": 59,
          "name": "B3",
          "ticks": 76800,
          "time": 66.6666,
          "velocity": 0.2992125984251969
        },
        {
          "duration": 0.08333324999999547,
          "durationTicks": 96,
          "midi": 42,
          "name": "F#2",
          "ticks": 76800,
          "time": 66.6666,
          "velocity": 0.2992125984251969
        },
        {
          "duration": 0.08333324999999547,
          "durationTicks": 96,
          "midi": 36,
          "name": "C2",
          "ticks": 76800,
          "time": 66.6666,
          "velocity": 0.2992125984251969
        },
        {
          "duration": 0.08333324999999547,
          "durationTicks": 96,
          "midi": 51,
          "name": "D#3",
          "ticks": 76800,
          "time": 66.6666,
          "velocity": 0.2992125984251969
        },
        {
          "duration": 0.08333324999999547,
          "durationTicks": 96,
          "midi": 53,
          "name": "F3",
          "ticks": 76800,
          "time": 66.6666,
          "velocity": 0.2992125984251969
        },
        {
          "duration": 0.08333325000000968,
          "durationTicks": 96,
          "midi": 42,
          "name": "F#2",
          "ticks": 76992,
          "time": 66.8332665,
          "velocity": 0.2992125984251969
        },
        {
          "duration": 0.08333325000000968,
          "durationTicks": 96,
          "midi": 36,
          "name": "C2",
          "ticks": 76992,
          "time": 66.8332665,
          "velocity": 0.2992125984251969
        },
        {
          "duration": 0.08333324999999547,
          "durationTicks": 96,
          "midi": 51,
          "name": "D#3",
          "ticks": 77184,
          "time": 66.999933,
          "velocity": 0.2992125984251969
        },
        {
          "duration": 0.08333324999999547,
          "durationTicks": 96,
          "midi": 38,
          "name": "D2",
          "ticks": 77184,
          "time": 66.999933,
          "velocity": 0.2992125984251969
        },
        {
          "duration": 0.08333324999999547,
          "durationTicks": 96,
          "midi": 59,
          "name": "B3",
          "ticks": 77184,
          "time": 66.999933,
          "velocity": 0.2992125984251969
        },
        {
          "duration": 0.08333324999999547,
          "durationTicks": 96,
          "midi": 42,
          "name": "F#2",
          "ticks": 77184,
          "time": 66.999933,
          "velocity": 0.2992125984251969
        },
        {
          "duration": 0.08333324999999547,
          "durationTicks": 96,
          "midi": 53,
          "name": "F3",
          "ticks": 77184,
          "time": 66.999933,
          "velocity": 0.2992125984251969
        },
        {
          "duration": 0.08333324999999547,
          "durationTicks": 96,
          "midi": 49,
          "name": "C#3",
          "ticks": 77184,
          "time": 66.999933,
          "velocity": 0.2992125984251969
        },
        {
          "duration": 0.08333324999999547,
          "durationTicks": 96,
          "midi": 40,
          "name": "E2",
          "ticks": 77184,
          "time": 66.999933,
          "velocity": 0.2992125984251969
        },
        {
          "duration": 0.08333324999999547,
          "durationTicks": 96,
          "midi": 36,
          "name": "C2",
          "ticks": 77376,
          "time": 67.1665995,
          "velocity": 0.2992125984251969
        },
        {
          "duration": 0.08333324999999547,
          "durationTicks": 96,
          "midi": 42,
          "name": "F#2",
          "ticks": 77376,
          "time": 67.1665995,
          "velocity": 0.2992125984251969
        },
        {
          "duration": 0.08333325000000968,
          "durationTicks": 96,
          "midi": 42,
          "name": "F#2",
          "ticks": 77568,
          "time": 67.333266,
          "velocity": 0.2992125984251969
        },
        {
          "duration": 0.08333325000000968,
          "durationTicks": 96,
          "midi": 36,
          "name": "C2",
          "ticks": 77568,
          "time": 67.333266,
          "velocity": 0.2992125984251969
        },
        {
          "duration": 0.08333324999999547,
          "durationTicks": 96,
          "midi": 53,
          "name": "F3",
          "ticks": 77760,
          "time": 67.4999325,
          "velocity": 0.2992125984251969
        },
        {
          "duration": 0.08333324999999547,
          "durationTicks": 96,
          "midi": 38,
          "name": "D2",
          "ticks": 77760,
          "time": 67.4999325,
          "velocity": 0.2992125984251969
        },
        {
          "duration": 0.08333324999999547,
          "durationTicks": 96,
          "midi": 59,
          "name": "B3",
          "ticks": 77760,
          "time": 67.4999325,
          "velocity": 0.2992125984251969
        },
        {
          "duration": 0.08333324999999547,
          "durationTicks": 96,
          "midi": 42,
          "name": "F#2",
          "ticks": 77760,
          "time": 67.4999325,
          "velocity": 0.2992125984251969
        },
        {
          "duration": 0.08333324999999547,
          "durationTicks": 96,
          "midi": 40,
          "name": "E2",
          "ticks": 77760,
          "time": 67.4999325,
          "velocity": 0.2992125984251969
        },
        {
          "duration": 0.08333324999999547,
          "durationTicks": 96,
          "midi": 49,
          "name": "C#3",
          "ticks": 77760,
          "time": 67.4999325,
          "velocity": 0.2992125984251969
        },
        {
          "duration": 0.08333324999999547,
          "durationTicks": 96,
          "midi": 51,
          "name": "D#3",
          "ticks": 77760,
          "time": 67.4999325,
          "velocity": 0.2992125984251969
        },
        {
          "duration": 0.08333324999999547,
          "durationTicks": 96,
          "midi": 36,
          "name": "C2",
          "ticks": 77952,
          "time": 67.666599,
          "velocity": 0.2992125984251969
        },
        {
          "duration": 0.08333324999999547,
          "durationTicks": 96,
          "midi": 42,
          "name": "F#2",
          "ticks": 77952,
          "time": 67.666599,
          "velocity": 0.2992125984251969
        },
        {
          "duration": 0.08333324999999547,
          "durationTicks": 96,
          "midi": 40,
          "name": "E2",
          "ticks": 78144,
          "time": 67.8332655,
          "velocity": 0.2992125984251969
        },
        {
          "duration": 0.08333324999999547,
          "durationTicks": 96,
          "midi": 42,
          "name": "F#2",
          "ticks": 78144,
          "time": 67.8332655,
          "velocity": 0.2992125984251969
        },
        {
          "duration": 0.08333324999999547,
          "durationTicks": 96,
          "midi": 38,
          "name": "D2",
          "ticks": 78144,
          "time": 67.8332655,
          "velocity": 0.2992125984251969
        },
        {
          "duration": 0.08333324999999547,
          "durationTicks": 96,
          "midi": 59,
          "name": "B3",
          "ticks": 78336,
          "time": 67.999932,
          "velocity": 0.2992125984251969
        },
        {
          "duration": 0.08333324999999547,
          "durationTicks": 96,
          "midi": 49,
          "name": "C#3",
          "ticks": 78336,
          "time": 67.999932,
          "velocity": 0.2992125984251969
        },
        {
          "duration": 0.08333324999999547,
          "durationTicks": 96,
          "midi": 42,
          "name": "F#2",
          "ticks": 78336,
          "time": 67.999932,
          "velocity": 0.2992125984251969
        },
        {
          "duration": 0.08333324999999547,
          "durationTicks": 96,
          "midi": 36,
          "name": "C2",
          "ticks": 78336,
          "time": 67.999932,
          "velocity": 0.2992125984251969
        },
        {
          "duration": 0.08333324999999547,
          "durationTicks": 96,
          "midi": 51,
          "name": "D#3",
          "ticks": 78336,
          "time": 67.999932,
          "velocity": 0.2992125984251969
        },
        {
          "duration": 0.08333324999999547,
          "durationTicks": 96,
          "midi": 53,
          "name": "F3",
          "ticks": 78336,
          "time": 67.999932,
          "velocity": 0.2992125984251969
        },
        {
          "duration": 0.08333325000000968,
          "durationTicks": 96,
          "midi": 36,
          "name": "C2",
          "ticks": 78528,
          "time": 68.16659849999999,
          "velocity": 0.2992125984251969
        },
        {
          "duration": 0.08333325000000968,
          "durationTicks": 96,
          "midi": 42,
          "name": "F#2",
          "ticks": 78528,
          "time": 68.16659849999999,
          "velocity": 0.2992125984251969
        },
        {
          "duration": 0.08333324999999547,
          "durationTicks": 96,
          "midi": 40,
          "name": "E2",
          "ticks": 78720,
          "time": 68.333265,
          "velocity": 0.2992125984251969
        },
        {
          "duration": 0.08333324999999547,
          "durationTicks": 96,
          "midi": 38,
          "name": "D2",
          "ticks": 78720,
          "time": 68.333265,
          "velocity": 0.2992125984251969
        },
        {
          "duration": 0.08333324999999547,
          "durationTicks": 96,
          "midi": 42,
          "name": "F#2",
          "ticks": 78720,
          "time": 68.333265,
          "velocity": 0.2992125984251969
        },
        {
          "duration": 0.08333324999999547,
          "durationTicks": 96,
          "midi": 53,
          "name": "F3",
          "ticks": 78720,
          "time": 68.333265,
          "velocity": 0.2992125984251969
        },
        {
          "duration": 0.08333324999999547,
          "durationTicks": 96,
          "midi": 49,
          "name": "C#3",
          "ticks": 78720,
          "time": 68.333265,
          "velocity": 0.2992125984251969
        },
        {
          "duration": 0.08333324999999547,
          "durationTicks": 96,
          "midi": 59,
          "name": "B3",
          "ticks": 78720,
          "time": 68.333265,
          "velocity": 0.2992125984251969
        },
        {
          "duration": 0.08333324999999547,
          "durationTicks": 96,
          "midi": 51,
          "name": "D#3",
          "ticks": 78720,
          "time": 68.333265,
          "velocity": 0.2992125984251969
        },
        {
          "duration": 0.08333324999999547,
          "durationTicks": 96,
          "midi": 42,
          "name": "F#2",
          "ticks": 78912,
          "time": 68.4999315,
          "velocity": 0.2992125984251969
        },
        {
          "duration": 0.08333324999999547,
          "durationTicks": 96,
          "midi": 36,
          "name": "C2",
          "ticks": 78912,
          "time": 68.4999315,
          "velocity": 0.2992125984251969
        },
        {
          "duration": 0.08333325000000968,
          "durationTicks": 96,
          "midi": 36,
          "name": "C2",
          "ticks": 79104,
          "time": 68.666598,
          "velocity": 0.2992125984251969
        },
        {
          "duration": 0.08333325000000968,
          "durationTicks": 96,
          "midi": 42,
          "name": "F#2",
          "ticks": 79104,
          "time": 68.666598,
          "velocity": 0.2992125984251969
        },
        {
          "duration": 0.08333324999999547,
          "durationTicks": 96,
          "midi": 38,
          "name": "D2",
          "ticks": 79296,
          "time": 68.8332645,
          "velocity": 0.2992125984251969
        },
        {
          "duration": 0.08333324999999547,
          "durationTicks": 96,
          "midi": 40,
          "name": "E2",
          "ticks": 79296,
          "time": 68.8332645,
          "velocity": 0.2992125984251969
        },
        {
          "duration": 0.08333324999999547,
          "durationTicks": 96,
          "midi": 53,
          "name": "F3",
          "ticks": 79296,
          "time": 68.8332645,
          "velocity": 0.2992125984251969
        },
        {
          "duration": 0.08333324999999547,
          "durationTicks": 96,
          "midi": 51,
          "name": "D#3",
          "ticks": 79296,
          "time": 68.8332645,
          "velocity": 0.2992125984251969
        },
        {
          "duration": 0.08333324999999547,
          "durationTicks": 96,
          "midi": 42,
          "name": "F#2",
          "ticks": 79296,
          "time": 68.8332645,
          "velocity": 0.2992125984251969
        },
        {
          "duration": 0.08333324999999547,
          "durationTicks": 96,
          "midi": 49,
          "name": "C#3",
          "ticks": 79296,
          "time": 68.8332645,
          "velocity": 0.2992125984251969
        },
        {
          "duration": 0.08333324999999547,
          "durationTicks": 96,
          "midi": 59,
          "name": "B3",
          "ticks": 79296,
          "time": 68.8332645,
          "velocity": 0.2992125984251969
        },
        {
          "duration": 0.08333324999999547,
          "durationTicks": 96,
          "midi": 42,
          "name": "F#2",
          "ticks": 79488,
          "time": 68.999931,
          "velocity": 0.2992125984251969
        },
        {
          "duration": 0.08333324999999547,
          "durationTicks": 96,
          "midi": 36,
          "name": "C2",
          "ticks": 79488,
          "time": 68.999931,
          "velocity": 0.2992125984251969
        },
        {
          "duration": 0.08333325000000968,
          "durationTicks": 96,
          "midi": 40,
          "name": "E2",
          "ticks": 79680,
          "time": 69.1665975,
          "velocity": 0.2992125984251969
        },
        {
          "duration": 0.08333325000000968,
          "durationTicks": 96,
          "midi": 38,
          "name": "D2",
          "ticks": 79680,
          "time": 69.1665975,
          "velocity": 0.2992125984251969
        },
        {
          "duration": 0.08333325000000968,
          "durationTicks": 96,
          "midi": 42,
          "name": "F#2",
          "ticks": 79680,
          "time": 69.1665975,
          "velocity": 0.2992125984251969
        },
        {
          "duration": 0.08333324999999547,
          "durationTicks": 96,
          "midi": 59,
          "name": "B3",
          "ticks": 79872,
          "time": 69.333264,
          "velocity": 0.2992125984251969
        },
        {
          "duration": 0.08333324999999547,
          "durationTicks": 96,
          "midi": 42,
          "name": "F#2",
          "ticks": 79872,
          "time": 69.333264,
          "velocity": 0.2992125984251969
        },
        {
          "duration": 0.08333324999999547,
          "durationTicks": 96,
          "midi": 53,
          "name": "F3",
          "ticks": 79872,
          "time": 69.333264,
          "velocity": 0.2992125984251969
        },
        {
          "duration": 0.08333324999999547,
          "durationTicks": 96,
          "midi": 36,
          "name": "C2",
          "ticks": 79872,
          "time": 69.333264,
          "velocity": 0.2992125984251969
        },
        {
          "duration": 0.08333324999999547,
          "durationTicks": 96,
          "midi": 51,
          "name": "D#3",
          "ticks": 79872,
          "time": 69.333264,
          "velocity": 0.2992125984251969
        },
        {
          "duration": 0.08333324999999547,
          "durationTicks": 96,
          "midi": 49,
          "name": "C#3",
          "ticks": 79872,
          "time": 69.333264,
          "velocity": 0.2992125984251969
        },
        {
          "duration": 0.08333324999999547,
          "durationTicks": 96,
          "midi": 42,
          "name": "F#2",
          "ticks": 80064,
          "time": 69.4999305,
          "velocity": 0.2992125984251969
        },
        {
          "duration": 0.08333324999999547,
          "durationTicks": 96,
          "midi": 36,
          "name": "C2",
          "ticks": 80064,
          "time": 69.4999305,
          "velocity": 0.2992125984251969
        },
        {
          "duration": 0.08333324999999547,
          "durationTicks": 96,
          "midi": 40,
          "name": "E2",
          "ticks": 80256,
          "time": 69.666597,
          "velocity": 0.2992125984251969
        },
        {
          "duration": 0.08333324999999547,
          "durationTicks": 96,
          "midi": 49,
          "name": "C#3",
          "ticks": 80256,
          "time": 69.666597,
          "velocity": 0.2992125984251969
        },
        {
          "duration": 0.08333324999999547,
          "durationTicks": 96,
          "midi": 42,
          "name": "F#2",
          "ticks": 80256,
          "time": 69.666597,
          "velocity": 0.2992125984251969
        },
        {
          "duration": 0.08333324999999547,
          "durationTicks": 96,
          "midi": 51,
          "name": "D#3",
          "ticks": 80256,
          "time": 69.666597,
          "velocity": 0.2992125984251969
        },
        {
          "duration": 0.08333324999999547,
          "durationTicks": 96,
          "midi": 53,
          "name": "F3",
          "ticks": 80256,
          "time": 69.666597,
          "velocity": 0.2992125984251969
        },
        {
          "duration": 0.08333324999999547,
          "durationTicks": 96,
          "midi": 59,
          "name": "B3",
          "ticks": 80256,
          "time": 69.666597,
          "velocity": 0.2992125984251969
        },
        {
          "duration": 0.08333324999999547,
          "durationTicks": 96,
          "midi": 38,
          "name": "D2",
          "ticks": 80256,
          "time": 69.666597,
          "velocity": 0.2992125984251969
        },
        {
          "duration": 0.08333324999999547,
          "durationTicks": 96,
          "midi": 42,
          "name": "F#2",
          "ticks": 80448,
          "time": 69.8332635,
          "velocity": 0.2992125984251969
        },
        {
          "duration": 0.08333324999999547,
          "durationTicks": 96,
          "midi": 36,
          "name": "C2",
          "ticks": 80448,
          "time": 69.8332635,
          "velocity": 0.2992125984251969
        },
        {
          "duration": 0.08333325000000968,
          "durationTicks": 96,
          "midi": 36,
          "name": "C2",
          "ticks": 80640,
          "time": 69.99992999999999,
          "velocity": 0.2992125984251969
        },
        {
          "duration": 0.08333325000000968,
          "durationTicks": 96,
          "midi": 42,
          "name": "F#2",
          "ticks": 80640,
          "time": 69.99992999999999,
          "velocity": 0.2992125984251969
        },
        {
          "duration": 0.08333324999999547,
          "durationTicks": 96,
          "midi": 40,
          "name": "E2",
          "ticks": 80832,
          "time": 70.1665965,
          "velocity": 0.2992125984251969
        },
        {
          "duration": 0.08333324999999547,
          "durationTicks": 96,
          "midi": 51,
          "name": "D#3",
          "ticks": 80832,
          "time": 70.1665965,
          "velocity": 0.2992125984251969
        },
        {
          "duration": 0.08333324999999547,
          "durationTicks": 96,
          "midi": 38,
          "name": "D2",
          "ticks": 80832,
          "time": 70.1665965,
          "velocity": 0.2992125984251969
        },
        {
          "duration": 0.08333324999999547,
          "durationTicks": 96,
          "midi": 49,
          "name": "C#3",
          "ticks": 80832,
          "time": 70.1665965,
          "velocity": 0.2992125984251969
        },
        {
          "duration": 0.08333324999999547,
          "durationTicks": 96,
          "midi": 42,
          "name": "F#2",
          "ticks": 80832,
          "time": 70.1665965,
          "velocity": 0.2992125984251969
        },
        {
          "duration": 0.08333324999999547,
          "durationTicks": 96,
          "midi": 53,
          "name": "F3",
          "ticks": 80832,
          "time": 70.1665965,
          "velocity": 0.2992125984251969
        },
        {
          "duration": 0.08333324999999547,
          "durationTicks": 96,
          "midi": 59,
          "name": "B3",
          "ticks": 80832,
          "time": 70.1665965,
          "velocity": 0.2992125984251969
        },
        {
          "duration": 0.08333324999999547,
          "durationTicks": 96,
          "midi": 36,
          "name": "C2",
          "ticks": 81024,
          "time": 70.333263,
          "velocity": 0.2992125984251969
        },
        {
          "duration": 0.08333324999999547,
          "durationTicks": 96,
          "midi": 42,
          "name": "F#2",
          "ticks": 81024,
          "time": 70.333263,
          "velocity": 0.2992125984251969
        },
        {
          "duration": 0.08333325000000968,
          "durationTicks": 96,
          "midi": 42,
          "name": "F#2",
          "ticks": 81216,
          "time": 70.4999295,
          "velocity": 0.2992125984251969
        },
        {
          "duration": 0.08333325000000968,
          "durationTicks": 96,
          "midi": 40,
          "name": "E2",
          "ticks": 81216,
          "time": 70.4999295,
          "velocity": 0.2992125984251969
        },
        {
          "duration": 0.08333325000000968,
          "durationTicks": 96,
          "midi": 38,
          "name": "D2",
          "ticks": 81216,
          "time": 70.4999295,
          "velocity": 0.2992125984251969
        },
        {
          "duration": 0.08333324999999547,
          "durationTicks": 96,
          "midi": 36,
          "name": "C2",
          "ticks": 81408,
          "time": 70.666596,
          "velocity": 0.2992125984251969
        },
        {
          "duration": 0.08333324999999547,
          "durationTicks": 96,
          "midi": 51,
          "name": "D#3",
          "ticks": 81408,
          "time": 70.666596,
          "velocity": 0.2992125984251969
        },
        {
          "duration": 0.08333324999999547,
          "durationTicks": 96,
          "midi": 59,
          "name": "B3",
          "ticks": 81408,
          "time": 70.666596,
          "velocity": 0.2992125984251969
        },
        {
          "duration": 0.08333324999999547,
          "durationTicks": 96,
          "midi": 53,
          "name": "F3",
          "ticks": 81408,
          "time": 70.666596,
          "velocity": 0.2992125984251969
        },
        {
          "duration": 0.08333324999999547,
          "durationTicks": 96,
          "midi": 42,
          "name": "F#2",
          "ticks": 81408,
          "time": 70.666596,
          "velocity": 0.2992125984251969
        },
        {
          "duration": 0.08333324999999547,
          "durationTicks": 96,
          "midi": 49,
          "name": "C#3",
          "ticks": 81408,
          "time": 70.666596,
          "velocity": 0.2992125984251969
        },
        {
          "duration": 0.08333324999999547,
          "durationTicks": 96,
          "midi": 36,
          "name": "C2",
          "ticks": 81600,
          "time": 70.8332625,
          "velocity": 0.2992125984251969
        },
        {
          "duration": 0.08333324999999547,
          "durationTicks": 96,
          "midi": 42,
          "name": "F#2",
          "ticks": 81600,
          "time": 70.8332625,
          "velocity": 0.2992125984251969
        },
        {
          "duration": 0.08333325000000968,
          "durationTicks": 96,
          "midi": 40,
          "name": "E2",
          "ticks": 81792,
          "time": 70.999929,
          "velocity": 0.2992125984251969
        },
        {
          "duration": 0.08333325000000968,
          "durationTicks": 96,
          "midi": 51,
          "name": "D#3",
          "ticks": 81792,
          "time": 70.999929,
          "velocity": 0.2992125984251969
        },
        {
          "duration": 0.08333325000000968,
          "durationTicks": 96,
          "midi": 42,
          "name": "F#2",
          "ticks": 81792,
          "time": 70.999929,
          "velocity": 0.2992125984251969
        },
        {
          "duration": 0.08333325000000968,
          "durationTicks": 96,
          "midi": 49,
          "name": "C#3",
          "ticks": 81792,
          "time": 70.999929,
          "velocity": 0.2992125984251969
        },
        {
          "duration": 0.08333325000000968,
          "durationTicks": 96,
          "midi": 53,
          "name": "F3",
          "ticks": 81792,
          "time": 70.999929,
          "velocity": 0.2992125984251969
        },
        {
          "duration": 0.08333325000000968,
          "durationTicks": 96,
          "midi": 59,
          "name": "B3",
          "ticks": 81792,
          "time": 70.999929,
          "velocity": 0.2992125984251969
        },
        {
          "duration": 0.08333325000000968,
          "durationTicks": 96,
          "midi": 38,
          "name": "D2",
          "ticks": 81792,
          "time": 70.999929,
          "velocity": 0.2992125984251969
        },
        {
          "duration": 0.08333324999999547,
          "durationTicks": 96,
          "midi": 36,
          "name": "C2",
          "ticks": 81984,
          "time": 71.1665955,
          "velocity": 0.2992125984251969
        },
        {
          "duration": 0.08333324999999547,
          "durationTicks": 96,
          "midi": 42,
          "name": "F#2",
          "ticks": 81984,
          "time": 71.1665955,
          "velocity": 0.2992125984251969
        },
        {
          "duration": 0.08333324999999547,
          "durationTicks": 96,
          "midi": 36,
          "name": "C2",
          "ticks": 82176,
          "time": 71.333262,
          "velocity": 0.2992125984251969
        },
        {
          "duration": 0.08333324999999547,
          "durationTicks": 96,
          "midi": 42,
          "name": "F#2",
          "ticks": 82176,
          "time": 71.333262,
          "velocity": 0.2992125984251969
        },
        {
          "duration": 0.08333324999999547,
          "durationTicks": 96,
          "midi": 42,
          "name": "F#2",
          "ticks": 82368,
          "time": 71.4999285,
          "velocity": 0.2992125984251969
        },
        {
          "duration": 0.08333324999999547,
          "durationTicks": 96,
          "midi": 40,
          "name": "E2",
          "ticks": 82368,
          "time": 71.4999285,
          "velocity": 0.2992125984251969
        },
        {
          "duration": 0.08333324999999547,
          "durationTicks": 96,
          "midi": 49,
          "name": "C#3",
          "ticks": 82368,
          "time": 71.4999285,
          "velocity": 0.2992125984251969
        },
        {
          "duration": 0.08333324999999547,
          "durationTicks": 96,
          "midi": 53,
          "name": "F3",
          "ticks": 82368,
          "time": 71.4999285,
          "velocity": 0.2992125984251969
        },
        {
          "duration": 0.08333324999999547,
          "durationTicks": 96,
          "midi": 51,
          "name": "D#3",
          "ticks": 82368,
          "time": 71.4999285,
          "velocity": 0.2992125984251969
        },
        {
          "duration": 0.08333324999999547,
          "durationTicks": 96,
          "midi": 59,
          "name": "B3",
          "ticks": 82368,
          "time": 71.4999285,
          "velocity": 0.2992125984251969
        },
        {
          "duration": 0.08333324999999547,
          "durationTicks": 96,
          "midi": 38,
          "name": "D2",
          "ticks": 82368,
          "time": 71.4999285,
          "velocity": 0.2992125984251969
        },
        {
          "duration": 0.08333324999999547,
          "durationTicks": 96,
          "midi": 42,
          "name": "F#2",
          "ticks": 82560,
          "time": 71.666595,
          "velocity": 0.2992125984251969
        },
        {
          "duration": 0.08333324999999547,
          "durationTicks": 96,
          "midi": 36,
          "name": "C2",
          "ticks": 82560,
          "time": 71.666595,
          "velocity": 0.2992125984251969
        },
        {
          "duration": 0.08333325000000968,
          "durationTicks": 96,
          "midi": 38,
          "name": "D2",
          "ticks": 82752,
          "time": 71.83326149999999,
          "velocity": 0.2992125984251969
        },
        {
          "duration": 0.08333325000000968,
          "durationTicks": 96,
          "midi": 40,
          "name": "E2",
          "ticks": 82752,
          "time": 71.83326149999999,
          "velocity": 0.2992125984251969
        },
        {
          "duration": 0.08333325000000968,
          "durationTicks": 96,
          "midi": 42,
          "name": "F#2",
          "ticks": 82752,
          "time": 71.83326149999999,
          "velocity": 0.2992125984251969
        },
        {
          "duration": 0.08333324999999547,
          "durationTicks": 96,
          "midi": 53,
          "name": "F3",
          "ticks": 82944,
          "time": 71.999928,
          "velocity": 0.2992125984251969
        },
        {
          "duration": 0.08333324999999547,
          "durationTicks": 96,
          "midi": 51,
          "name": "D#3",
          "ticks": 82944,
          "time": 71.999928,
          "velocity": 0.2992125984251969
        },
        {
          "duration": 0.08333324999999547,
          "durationTicks": 96,
          "midi": 36,
          "name": "C2",
          "ticks": 82944,
          "time": 71.999928,
          "velocity": 0.2992125984251969
        },
        {
          "duration": 0.08333324999999547,
          "durationTicks": 96,
          "midi": 49,
          "name": "C#3",
          "ticks": 82944,
          "time": 71.999928,
          "velocity": 0.2992125984251969
        },
        {
          "duration": 0.08333324999999547,
          "durationTicks": 96,
          "midi": 59,
          "name": "B3",
          "ticks": 82944,
          "time": 71.999928,
          "velocity": 0.2992125984251969
        },
        {
          "duration": 0.08333324999999547,
          "durationTicks": 96,
          "midi": 42,
          "name": "F#2",
          "ticks": 82944,
          "time": 71.999928,
          "velocity": 0.2992125984251969
        },
        {
          "duration": 0.08333324999999547,
          "durationTicks": 96,
          "midi": 42,
          "name": "F#2",
          "ticks": 83136,
          "time": 72.1665945,
          "velocity": 0.2992125984251969
        },
        {
          "duration": 0.08333324999999547,
          "durationTicks": 96,
          "midi": 36,
          "name": "C2",
          "ticks": 83136,
          "time": 72.1665945,
          "velocity": 0.2992125984251969
        },
        {
          "duration": 0.08333325000000968,
          "durationTicks": 96,
          "midi": 40,
          "name": "E2",
          "ticks": 83328,
          "time": 72.333261,
          "velocity": 0.2992125984251969
        },
        {
          "duration": 0.08333325000000968,
          "durationTicks": 96,
          "midi": 53,
          "name": "F3",
          "ticks": 83328,
          "time": 72.333261,
          "velocity": 0.2992125984251969
        },
        {
          "duration": 0.08333325000000968,
          "durationTicks": 96,
          "midi": 59,
          "name": "B3",
          "ticks": 83328,
          "time": 72.333261,
          "velocity": 0.2992125984251969
        },
        {
          "duration": 0.08333325000000968,
          "durationTicks": 96,
          "midi": 42,
          "name": "F#2",
          "ticks": 83328,
          "time": 72.333261,
          "velocity": 0.2992125984251969
        },
        {
          "duration": 0.08333325000000968,
          "durationTicks": 96,
          "midi": 49,
          "name": "C#3",
          "ticks": 83328,
          "time": 72.333261,
          "velocity": 0.2992125984251969
        },
        {
          "duration": 0.08333325000000968,
          "durationTicks": 96,
          "midi": 38,
          "name": "D2",
          "ticks": 83328,
          "time": 72.333261,
          "velocity": 0.2992125984251969
        },
        {
          "duration": 0.08333325000000968,
          "durationTicks": 96,
          "midi": 51,
          "name": "D#3",
          "ticks": 83328,
          "time": 72.333261,
          "velocity": 0.2992125984251969
        },
        {
          "duration": 0.08333324999999547,
          "durationTicks": 96,
          "midi": 42,
          "name": "F#2",
          "ticks": 83520,
          "time": 72.4999275,
          "velocity": 0.2992125984251969
        },
        {
          "duration": 0.08333324999999547,
          "durationTicks": 96,
          "midi": 36,
          "name": "C2",
          "ticks": 83520,
          "time": 72.4999275,
          "velocity": 0.2992125984251969
        },
        {
          "duration": 0.08333324999999547,
          "durationTicks": 96,
          "midi": 42,
          "name": "F#2",
          "ticks": 83712,
          "time": 72.666594,
          "velocity": 0.2992125984251969
        },
        {
          "duration": 0.08333324999999547,
          "durationTicks": 96,
          "midi": 36,
          "name": "C2",
          "ticks": 83712,
          "time": 72.666594,
          "velocity": 0.2992125984251969
        },
        {
          "duration": 0.08333325000000968,
          "durationTicks": 96,
          "midi": 40,
          "name": "E2",
          "ticks": 83904,
          "time": 72.8332605,
          "velocity": 0.2992125984251969
        },
        {
          "duration": 0.08333325000000968,
          "durationTicks": 96,
          "midi": 49,
          "name": "C#3",
          "ticks": 83904,
          "time": 72.8332605,
          "velocity": 0.2992125984251969
        },
        {
          "duration": 0.08333325000000968,
          "durationTicks": 96,
          "midi": 59,
          "name": "B3",
          "ticks": 83904,
          "time": 72.8332605,
          "velocity": 0.2992125984251969
        },
        {
          "duration": 0.08333325000000968,
          "durationTicks": 96,
          "midi": 42,
          "name": "F#2",
          "ticks": 83904,
          "time": 72.8332605,
          "velocity": 0.2992125984251969
        },
        {
          "duration": 0.08333325000000968,
          "durationTicks": 96,
          "midi": 38,
          "name": "D2",
          "ticks": 83904,
          "time": 72.8332605,
          "velocity": 0.2992125984251969
        },
        {
          "duration": 0.08333325000000968,
          "durationTicks": 96,
          "midi": 53,
          "name": "F3",
          "ticks": 83904,
          "time": 72.8332605,
          "velocity": 0.2992125984251969
        },
        {
          "duration": 0.08333325000000968,
          "durationTicks": 96,
          "midi": 51,
          "name": "D#3",
          "ticks": 83904,
          "time": 72.8332605,
          "velocity": 0.2992125984251969
        },
        {
          "duration": 0.08333324999999547,
          "durationTicks": 96,
          "midi": 42,
          "name": "F#2",
          "ticks": 84096,
          "time": 72.999927,
          "velocity": 0.2992125984251969
        },
        {
          "duration": 0.08333324999999547,
          "durationTicks": 96,
          "midi": 36,
          "name": "C2",
          "ticks": 84096,
          "time": 72.999927,
          "velocity": 0.2992125984251969
        },
        {
          "duration": 0.08333324999999547,
          "durationTicks": 96,
          "midi": 38,
          "name": "D2",
          "ticks": 84288,
          "time": 73.1665935,
          "velocity": 0.2992125984251969
        },
        {
          "duration": 0.08333324999999547,
          "durationTicks": 96,
          "midi": 42,
          "name": "F#2",
          "ticks": 84288,
          "time": 73.1665935,
          "velocity": 0.2992125984251969
        },
        {
          "duration": 0.08333324999999547,
          "durationTicks": 96,
          "midi": 40,
          "name": "E2",
          "ticks": 84288,
          "time": 73.1665935,
          "velocity": 0.2992125984251969
        },
        {
          "duration": 0.08333324999999547,
          "durationTicks": 96,
          "midi": 42,
          "name": "F#2",
          "ticks": 84480,
          "time": 73.33326,
          "velocity": 0.2992125984251969
        },
        {
          "duration": 0.08333324999999547,
          "durationTicks": 96,
          "midi": 51,
          "name": "D#3",
          "ticks": 84480,
          "time": 73.33326,
          "velocity": 0.2992125984251969
        },
        {
          "duration": 0.08333324999999547,
          "durationTicks": 96,
          "midi": 36,
          "name": "C2",
          "ticks": 84480,
          "time": 73.33326,
          "velocity": 0.2992125984251969
        },
        {
          "duration": 0.08333324999999547,
          "durationTicks": 96,
          "midi": 59,
          "name": "B3",
          "ticks": 84480,
          "time": 73.33326,
          "velocity": 0.2992125984251969
        },
        {
          "duration": 0.08333324999999547,
          "durationTicks": 96,
          "midi": 49,
          "name": "C#3",
          "ticks": 84480,
          "time": 73.33326,
          "velocity": 0.2992125984251969
        },
        {
          "duration": 0.08333324999999547,
          "durationTicks": 96,
          "midi": 53,
          "name": "F3",
          "ticks": 84480,
          "time": 73.33326,
          "velocity": 0.2992125984251969
        },
        {
          "duration": 0.08333324999999547,
          "durationTicks": 96,
          "midi": 42,
          "name": "F#2",
          "ticks": 84672,
          "time": 73.4999265,
          "velocity": 0.2992125984251969
        },
        {
          "duration": 0.08333324999999547,
          "durationTicks": 96,
          "midi": 36,
          "name": "C2",
          "ticks": 84672,
          "time": 73.4999265,
          "velocity": 0.2992125984251969
        },
        {
          "duration": 0.08333325000000968,
          "durationTicks": 96,
          "midi": 53,
          "name": "F3",
          "ticks": 84864,
          "time": 73.66659299999999,
          "velocity": 0.2992125984251969
        },
        {
          "duration": 0.08333325000000968,
          "durationTicks": 96,
          "midi": 49,
          "name": "C#3",
          "ticks": 84864,
          "time": 73.66659299999999,
          "velocity": 0.2992125984251969
        },
        {
          "duration": 0.08333325000000968,
          "durationTicks": 96,
          "midi": 40,
          "name": "E2",
          "ticks": 84864,
          "time": 73.66659299999999,
          "velocity": 0.2992125984251969
        },
        {
          "duration": 0.08333325000000968,
          "durationTicks": 96,
          "midi": 51,
          "name": "D#3",
          "ticks": 84864,
          "time": 73.66659299999999,
          "velocity": 0.2992125984251969
        },
        {
          "duration": 0.08333325000000968,
          "durationTicks": 96,
          "midi": 59,
          "name": "B3",
          "ticks": 84864,
          "time": 73.66659299999999,
          "velocity": 0.2992125984251969
        },
        {
          "duration": 0.08333325000000968,
          "durationTicks": 96,
          "midi": 38,
          "name": "D2",
          "ticks": 84864,
          "time": 73.66659299999999,
          "velocity": 0.2992125984251969
        },
        {
          "duration": 0.08333325000000968,
          "durationTicks": 96,
          "midi": 42,
          "name": "F#2",
          "ticks": 84864,
          "time": 73.66659299999999,
          "velocity": 0.2992125984251969
        },
        {
          "duration": 0.08333324999999547,
          "durationTicks": 96,
          "midi": 36,
          "name": "C2",
          "ticks": 85056,
          "time": 73.8332595,
          "velocity": 0.2992125984251969
        },
        {
          "duration": 0.08333324999999547,
          "durationTicks": 96,
          "midi": 42,
          "name": "F#2",
          "ticks": 85056,
          "time": 73.8332595,
          "velocity": 0.2992125984251969
        },
        {
          "duration": 0.08333324999999547,
          "durationTicks": 96,
          "midi": 36,
          "name": "C2",
          "ticks": 85248,
          "time": 73.999926,
          "velocity": 0.2992125984251969
        },
        {
          "duration": 0.08333324999999547,
          "durationTicks": 96,
          "midi": 42,
          "name": "F#2",
          "ticks": 85248,
          "time": 73.999926,
          "velocity": 0.2992125984251969
        },
        {
          "duration": 0.08333325000000968,
          "durationTicks": 96,
          "midi": 38,
          "name": "D2",
          "ticks": 85440,
          "time": 74.1665925,
          "velocity": 0.2992125984251969
        },
        {
          "duration": 0.08333325000000968,
          "durationTicks": 96,
          "midi": 49,
          "name": "C#3",
          "ticks": 85440,
          "time": 74.1665925,
          "velocity": 0.2992125984251969
        },
        {
          "duration": 0.08333325000000968,
          "durationTicks": 96,
          "midi": 42,
          "name": "F#2",
          "ticks": 85440,
          "time": 74.1665925,
          "velocity": 0.2992125984251969
        },
        {
          "duration": 0.08333325000000968,
          "durationTicks": 96,
          "midi": 53,
          "name": "F3",
          "ticks": 85440,
          "time": 74.1665925,
          "velocity": 0.2992125984251969
        },
        {
          "duration": 0.08333325000000968,
          "durationTicks": 96,
          "midi": 59,
          "name": "B3",
          "ticks": 85440,
          "time": 74.1665925,
          "velocity": 0.2992125984251969
        },
        {
          "duration": 0.08333325000000968,
          "durationTicks": 96,
          "midi": 51,
          "name": "D#3",
          "ticks": 85440,
          "time": 74.1665925,
          "velocity": 0.2992125984251969
        },
        {
          "duration": 0.08333325000000968,
          "durationTicks": 96,
          "midi": 40,
          "name": "E2",
          "ticks": 85440,
          "time": 74.1665925,
          "velocity": 0.2992125984251969
        },
        {
          "duration": 0.08333324999999547,
          "durationTicks": 96,
          "midi": 42,
          "name": "F#2",
          "ticks": 85632,
          "time": 74.333259,
          "velocity": 0.2992125984251969
        },
        {
          "duration": 0.08333324999999547,
          "durationTicks": 96,
          "midi": 36,
          "name": "C2",
          "ticks": 85632,
          "time": 74.333259,
          "velocity": 0.2992125984251969
        },
        {
          "duration": 0.08333324999999547,
          "durationTicks": 96,
          "midi": 42,
          "name": "F#2",
          "ticks": 85824,
          "time": 74.4999255,
          "velocity": 0.2992125984251969
        },
        {
          "duration": 0.08333324999999547,
          "durationTicks": 96,
          "midi": 40,
          "name": "E2",
          "ticks": 85824,
          "time": 74.4999255,
          "velocity": 0.2992125984251969
        },
        {
          "duration": 0.08333324999999547,
          "durationTicks": 96,
          "midi": 38,
          "name": "D2",
          "ticks": 85824,
          "time": 74.4999255,
          "velocity": 0.2992125984251969
        },
        {
          "duration": 0.08333325000000968,
          "durationTicks": 96,
          "midi": 49,
          "name": "C#3",
          "ticks": 86016,
          "time": 74.666592,
          "velocity": 0.2992125984251969
        },
        {
          "duration": 0.08333325000000968,
          "durationTicks": 96,
          "midi": 53,
          "name": "F3",
          "ticks": 86016,
          "time": 74.666592,
          "velocity": 0.2992125984251969
        },
        {
          "duration": 0.08333325000000968,
          "durationTicks": 96,
          "midi": 42,
          "name": "F#2",
          "ticks": 86016,
          "time": 74.666592,
          "velocity": 0.2992125984251969
        },
        {
          "duration": 0.08333325000000968,
          "durationTicks": 96,
          "midi": 36,
          "name": "C2",
          "ticks": 86016,
          "time": 74.666592,
          "velocity": 0.2992125984251969
        },
        {
          "duration": 0.08333325000000968,
          "durationTicks": 96,
          "midi": 51,
          "name": "D#3",
          "ticks": 86016,
          "time": 74.666592,
          "velocity": 0.2992125984251969
        },
        {
          "duration": 0.08333325000000968,
          "durationTicks": 96,
          "midi": 59,
          "name": "B3",
          "ticks": 86016,
          "time": 74.666592,
          "velocity": 0.2992125984251969
        },
        {
          "duration": 0.08333324999999547,
          "durationTicks": 96,
          "midi": 42,
          "name": "F#2",
          "ticks": 86208,
          "time": 74.8332585,
          "velocity": 0.2992125984251969
        },
        {
          "duration": 0.08333324999999547,
          "durationTicks": 96,
          "midi": 36,
          "name": "C2",
          "ticks": 86208,
          "time": 74.8332585,
          "velocity": 0.2992125984251969
        },
        {
          "duration": 0.08333324999999547,
          "durationTicks": 96,
          "midi": 49,
          "name": "C#3",
          "ticks": 86400,
          "time": 74.999925,
          "velocity": 0.2992125984251969
        },
        {
          "duration": 0.08333324999999547,
          "durationTicks": 96,
          "midi": 38,
          "name": "D2",
          "ticks": 86400,
          "time": 74.999925,
          "velocity": 0.2992125984251969
        },
        {
          "duration": 0.08333324999999547,
          "durationTicks": 96,
          "midi": 51,
          "name": "D#3",
          "ticks": 86400,
          "time": 74.999925,
          "velocity": 0.2992125984251969
        },
        {
          "duration": 0.08333324999999547,
          "durationTicks": 96,
          "midi": 40,
          "name": "E2",
          "ticks": 86400,
          "time": 74.999925,
          "velocity": 0.2992125984251969
        },
        {
          "duration": 0.08333324999999547,
          "durationTicks": 96,
          "midi": 53,
          "name": "F3",
          "ticks": 86400,
          "time": 74.999925,
          "velocity": 0.2992125984251969
        },
        {
          "duration": 0.08333324999999547,
          "durationTicks": 96,
          "midi": 59,
          "name": "B3",
          "ticks": 86400,
          "time": 74.999925,
          "velocity": 0.2992125984251969
        },
        {
          "duration": 0.08333324999999547,
          "durationTicks": 96,
          "midi": 42,
          "name": "F#2",
          "ticks": 86400,
          "time": 74.999925,
          "velocity": 0.2992125984251969
        },
        {
          "duration": 0.08333324999999547,
          "durationTicks": 96,
          "midi": 42,
          "name": "F#2",
          "ticks": 86592,
          "time": 75.1665915,
          "velocity": 0.2992125984251969
        },
        {
          "duration": 0.08333324999999547,
          "durationTicks": 96,
          "midi": 36,
          "name": "C2",
          "ticks": 86592,
          "time": 75.1665915,
          "velocity": 0.2992125984251969
        },
        {
          "duration": 0.08333324999999547,
          "durationTicks": 96,
          "midi": 42,
          "name": "F#2",
          "ticks": 86784,
          "time": 75.333258,
          "velocity": 0.2992125984251969
        },
        {
          "duration": 0.08333324999999547,
          "durationTicks": 96,
          "midi": 36,
          "name": "C2",
          "ticks": 86784,
          "time": 75.333258,
          "velocity": 0.2992125984251969
        },
        {
          "duration": 0.08333325000000968,
          "durationTicks": 96,
          "midi": 40,
          "name": "E2",
          "ticks": 86976,
          "time": 75.49992449999999,
          "velocity": 0.2992125984251969
        },
        {
          "duration": 0.08333325000000968,
          "durationTicks": 96,
          "midi": 49,
          "name": "C#3",
          "ticks": 86976,
          "time": 75.49992449999999,
          "velocity": 0.2992125984251969
        },
        {
          "duration": 0.08333325000000968,
          "durationTicks": 96,
          "midi": 42,
          "name": "F#2",
          "ticks": 86976,
          "time": 75.49992449999999,
          "velocity": 0.2992125984251969
        },
        {
          "duration": 0.08333325000000968,
          "durationTicks": 96,
          "midi": 59,
          "name": "B3",
          "ticks": 86976,
          "time": 75.49992449999999,
          "velocity": 0.2992125984251969
        },
        {
          "duration": 0.08333325000000968,
          "durationTicks": 96,
          "midi": 38,
          "name": "D2",
          "ticks": 86976,
          "time": 75.49992449999999,
          "velocity": 0.2992125984251969
        },
        {
          "duration": 0.08333325000000968,
          "durationTicks": 96,
          "midi": 53,
          "name": "F3",
          "ticks": 86976,
          "time": 75.49992449999999,
          "velocity": 0.2992125984251969
        },
        {
          "duration": 0.08333325000000968,
          "durationTicks": 96,
          "midi": 51,
          "name": "D#3",
          "ticks": 86976,
          "time": 75.49992449999999,
          "velocity": 0.2992125984251969
        },
        {
          "duration": 0.08333324999999547,
          "durationTicks": 96,
          "midi": 42,
          "name": "F#2",
          "ticks": 87168,
          "time": 75.666591,
          "velocity": 0.2992125984251969
        },
        {
          "duration": 0.08333324999999547,
          "durationTicks": 96,
          "midi": 36,
          "name": "C2",
          "ticks": 87168,
          "time": 75.666591,
          "velocity": 0.2992125984251969
        },
        {
          "duration": 0.08333324999999547,
          "durationTicks": 96,
          "midi": 38,
          "name": "D2",
          "ticks": 87360,
          "time": 75.8332575,
          "velocity": 0.2992125984251969
        },
        {
          "duration": 0.08333324999999547,
          "durationTicks": 96,
          "midi": 40,
          "name": "E2",
          "ticks": 87360,
          "time": 75.8332575,
          "velocity": 0.2992125984251969
        },
        {
          "duration": 0.08333324999999547,
          "durationTicks": 96,
          "midi": 42,
          "name": "F#2",
          "ticks": 87360,
          "time": 75.8332575,
          "velocity": 0.2992125984251969
        },
        {
          "duration": 0.08333325000000968,
          "durationTicks": 96,
          "midi": 59,
          "name": "B3",
          "ticks": 87552,
          "time": 75.999924,
          "velocity": 0.2992125984251969
        },
        {
          "duration": 0.08333325000000968,
          "durationTicks": 96,
          "midi": 42,
          "name": "F#2",
          "ticks": 87552,
          "time": 75.999924,
          "velocity": 0.2992125984251969
        },
        {
          "duration": 0.08333325000000968,
          "durationTicks": 96,
          "midi": 51,
          "name": "D#3",
          "ticks": 87552,
          "time": 75.999924,
          "velocity": 0.2992125984251969
        },
        {
          "duration": 0.08333325000000968,
          "durationTicks": 96,
          "midi": 49,
          "name": "C#3",
          "ticks": 87552,
          "time": 75.999924,
          "velocity": 0.2992125984251969
        },
        {
          "duration": 0.08333325000000968,
          "durationTicks": 96,
          "midi": 53,
          "name": "F3",
          "ticks": 87552,
          "time": 75.999924,
          "velocity": 0.2992125984251969
        },
        {
          "duration": 0.08333325000000968,
          "durationTicks": 96,
          "midi": 36,
          "name": "C2",
          "ticks": 87552,
          "time": 75.999924,
          "velocity": 0.2992125984251969
        },
        {
          "duration": 0.08333324999999547,
          "durationTicks": 96,
          "midi": 42,
          "name": "F#2",
          "ticks": 87744,
          "time": 76.1665905,
          "velocity": 0.2992125984251969
        },
        {
          "duration": 0.08333324999999547,
          "durationTicks": 96,
          "midi": 36,
          "name": "C2",
          "ticks": 87744,
          "time": 76.1665905,
          "velocity": 0.2992125984251969
        },
        {
          "duration": 0.08333324999999547,
          "durationTicks": 96,
          "midi": 59,
          "name": "B3",
          "ticks": 87936,
          "time": 76.333257,
          "velocity": 0.2992125984251969
        },
        {
          "duration": 0.08333324999999547,
          "durationTicks": 96,
          "midi": 51,
          "name": "D#3",
          "ticks": 87936,
          "time": 76.333257,
          "velocity": 0.2992125984251969
        },
        {
          "duration": 0.08333324999999547,
          "durationTicks": 96,
          "midi": 38,
          "name": "D2",
          "ticks": 87936,
          "time": 76.333257,
          "velocity": 0.2992125984251969
        },
        {
          "duration": 0.08333324999999547,
          "durationTicks": 96,
          "midi": 42,
          "name": "F#2",
          "ticks": 87936,
          "time": 76.333257,
          "velocity": 0.2992125984251969
        },
        {
          "duration": 0.08333324999999547,
          "durationTicks": 96,
          "midi": 40,
          "name": "E2",
          "ticks": 87936,
          "time": 76.333257,
          "velocity": 0.2992125984251969
        },
        {
          "duration": 0.08333324999999547,
          "durationTicks": 96,
          "midi": 49,
          "name": "C#3",
          "ticks": 87936,
          "time": 76.333257,
          "velocity": 0.2992125984251969
        },
        {
          "duration": 0.08333324999999547,
          "durationTicks": 96,
          "midi": 53,
          "name": "F3",
          "ticks": 87936,
          "time": 76.333257,
          "velocity": 0.2992125984251969
        },
        {
          "duration": 0.08333325000000968,
          "durationTicks": 96,
          "midi": 36,
          "name": "C2",
          "ticks": 88128,
          "time": 76.4999235,
          "velocity": 0.2992125984251969
        },
        {
          "duration": 0.08333325000000968,
          "durationTicks": 96,
          "midi": 42,
          "name": "F#2",
          "ticks": 88128,
          "time": 76.4999235,
          "velocity": 0.2992125984251969
        },
        {
          "duration": 0.08333324999999547,
          "durationTicks": 96,
          "midi": 36,
          "name": "C2",
          "ticks": 88320,
          "time": 76.66659,
          "velocity": 0.2992125984251969
        },
        {
          "duration": 0.08333324999999547,
          "durationTicks": 96,
          "midi": 42,
          "name": "F#2",
          "ticks": 88320,
          "time": 76.66659,
          "velocity": 0.2992125984251969
        },
        {
          "duration": 0.08333324999999547,
          "durationTicks": 96,
          "midi": 42,
          "name": "F#2",
          "ticks": 88512,
          "time": 76.8332565,
          "velocity": 0.2992125984251969
        },
        {
          "duration": 0.08333324999999547,
          "durationTicks": 96,
          "midi": 38,
          "name": "D2",
          "ticks": 88512,
          "time": 76.8332565,
          "velocity": 0.2992125984251969
        },
        {
          "duration": 0.08333324999999547,
          "durationTicks": 96,
          "midi": 59,
          "name": "B3",
          "ticks": 88512,
          "time": 76.8332565,
          "velocity": 0.2992125984251969
        },
        {
          "duration": 0.08333324999999547,
          "durationTicks": 96,
          "midi": 40,
          "name": "E2",
          "ticks": 88512,
          "time": 76.8332565,
          "velocity": 0.2992125984251969
        },
        {
          "duration": 0.08333324999999547,
          "durationTicks": 96,
          "midi": 49,
          "name": "C#3",
          "ticks": 88512,
          "time": 76.8332565,
          "velocity": 0.2992125984251969
        },
        {
          "duration": 0.08333324999999547,
          "durationTicks": 96,
          "midi": 53,
          "name": "F3",
          "ticks": 88512,
          "time": 76.8332565,
          "velocity": 0.2992125984251969
        },
        {
          "duration": 0.08333324999999547,
          "durationTicks": 96,
          "midi": 51,
          "name": "D#3",
          "ticks": 88512,
          "time": 76.8332565,
          "velocity": 0.2992125984251969
        },
        {
          "duration": 0.08333324999999547,
          "durationTicks": 96,
          "midi": 36,
          "name": "C2",
          "ticks": 88704,
          "time": 76.999923,
          "velocity": 0.2992125984251969
        },
        {
          "duration": 0.08333324999999547,
          "durationTicks": 96,
          "midi": 42,
          "name": "F#2",
          "ticks": 88704,
          "time": 76.999923,
          "velocity": 0.2992125984251969
        },
        {
          "duration": 0.08333324999999547,
          "durationTicks": 96,
          "midi": 38,
          "name": "D2",
          "ticks": 88896,
          "time": 77.1665895,
          "velocity": 0.2992125984251969
        },
        {
          "duration": 0.08333324999999547,
          "durationTicks": 96,
          "midi": 40,
          "name": "E2",
          "ticks": 88896,
          "time": 77.1665895,
          "velocity": 0.2992125984251969
        },
        {
          "duration": 0.08333324999999547,
          "durationTicks": 96,
          "midi": 42,
          "name": "F#2",
          "ticks": 88896,
          "time": 77.1665895,
          "velocity": 0.2992125984251969
        },
        {
          "duration": 0.08333325000000968,
          "durationTicks": 96,
          "midi": 53,
          "name": "F3",
          "ticks": 89088,
          "time": 77.33325599999999,
          "velocity": 0.2992125984251969
        },
        {
          "duration": 0.08333325000000968,
          "durationTicks": 96,
          "midi": 59,
          "name": "B3",
          "ticks": 89088,
          "time": 77.33325599999999,
          "velocity": 0.2992125984251969
        },
        {
          "duration": 0.08333325000000968,
          "durationTicks": 96,
          "midi": 36,
          "name": "C2",
          "ticks": 89088,
          "time": 77.33325599999999,
          "velocity": 0.2992125984251969
        },
        {
          "duration": 0.08333325000000968,
          "durationTicks": 96,
          "midi": 49,
          "name": "C#3",
          "ticks": 89088,
          "time": 77.33325599999999,
          "velocity": 0.2992125984251969
        },
        {
          "duration": 0.08333325000000968,
          "durationTicks": 96,
          "midi": 51,
          "name": "D#3",
          "ticks": 89088,
          "time": 77.33325599999999,
          "velocity": 0.2992125984251969
        },
        {
          "duration": 0.08333325000000968,
          "durationTicks": 96,
          "midi": 42,
          "name": "F#2",
          "ticks": 89088,
          "time": 77.33325599999999,
          "velocity": 0.2992125984251969
        },
        {
          "duration": 0.08333324999999547,
          "durationTicks": 96,
          "midi": 36,
          "name": "C2",
          "ticks": 89280,
          "time": 77.4999225,
          "velocity": 0.2992125984251969
        },
        {
          "duration": 0.08333324999999547,
          "durationTicks": 96,
          "midi": 42,
          "name": "F#2",
          "ticks": 89280,
          "time": 77.4999225,
          "velocity": 0.2992125984251969
        },
        {
          "duration": 0.08333324999999547,
          "durationTicks": 96,
          "midi": 38,
          "name": "D2",
          "ticks": 89472,
          "time": 77.666589,
          "velocity": 0.2992125984251969
        },
        {
          "duration": 0.08333324999999547,
          "durationTicks": 96,
          "midi": 49,
          "name": "C#3",
          "ticks": 89472,
          "time": 77.666589,
          "velocity": 0.2992125984251969
        },
        {
          "duration": 0.08333324999999547,
          "durationTicks": 96,
          "midi": 40,
          "name": "E2",
          "ticks": 89472,
          "time": 77.666589,
          "velocity": 0.2992125984251969
        },
        {
          "duration": 0.08333324999999547,
          "durationTicks": 96,
          "midi": 51,
          "name": "D#3",
          "ticks": 89472,
          "time": 77.666589,
          "velocity": 0.2992125984251969
        },
        {
          "duration": 0.08333324999999547,
          "durationTicks": 96,
          "midi": 59,
          "name": "B3",
          "ticks": 89472,
          "time": 77.666589,
          "velocity": 0.2992125984251969
        },
        {
          "duration": 0.08333324999999547,
          "durationTicks": 96,
          "midi": 53,
          "name": "F3",
          "ticks": 89472,
          "time": 77.666589,
          "velocity": 0.2992125984251969
        },
        {
          "duration": 0.08333324999999547,
          "durationTicks": 96,
          "midi": 42,
          "name": "F#2",
          "ticks": 89472,
          "time": 77.666589,
          "velocity": 0.2992125984251969
        },
        {
          "duration": 0.08333325000000968,
          "durationTicks": 96,
          "midi": 36,
          "name": "C2",
          "ticks": 89664,
          "time": 77.83325549999999,
          "velocity": 0.2992125984251969
        },
        {
          "duration": 0.08333325000000968,
          "durationTicks": 96,
          "midi": 42,
          "name": "F#2",
          "ticks": 89664,
          "time": 77.83325549999999,
          "velocity": 0.2992125984251969
        },
        {
          "duration": 0.08333324999999547,
          "durationTicks": 96,
          "midi": 36,
          "name": "C2",
          "ticks": 89856,
          "time": 77.999922,
          "velocity": 0.2992125984251969
        },
        {
          "duration": 0.08333324999999547,
          "durationTicks": 96,
          "midi": 42,
          "name": "F#2",
          "ticks": 89856,
          "time": 77.999922,
          "velocity": 0.2992125984251969
        },
        {
          "duration": 0.08333324999999547,
          "durationTicks": 96,
          "midi": 42,
          "name": "F#2",
          "ticks": 90048,
          "time": 78.1665885,
          "velocity": 0.2992125984251969
        },
        {
          "duration": 0.08333324999999547,
          "durationTicks": 96,
          "midi": 38,
          "name": "D2",
          "ticks": 90048,
          "time": 78.1665885,
          "velocity": 0.2992125984251969
        },
        {
          "duration": 0.08333324999999547,
          "durationTicks": 96,
          "midi": 51,
          "name": "D#3",
          "ticks": 90048,
          "time": 78.1665885,
          "velocity": 0.2992125984251969
        },
        {
          "duration": 0.08333324999999547,
          "durationTicks": 96,
          "midi": 59,
          "name": "B3",
          "ticks": 90048,
          "time": 78.1665885,
          "velocity": 0.2992125984251969
        },
        {
          "duration": 0.08333324999999547,
          "durationTicks": 96,
          "midi": 53,
          "name": "F3",
          "ticks": 90048,
          "time": 78.1665885,
          "velocity": 0.2992125984251969
        },
        {
          "duration": 0.08333324999999547,
          "durationTicks": 96,
          "midi": 49,
          "name": "C#3",
          "ticks": 90048,
          "time": 78.1665885,
          "velocity": 0.2992125984251969
        },
        {
          "duration": 0.08333324999999547,
          "durationTicks": 96,
          "midi": 40,
          "name": "E2",
          "ticks": 90048,
          "time": 78.1665885,
          "velocity": 0.2992125984251969
        },
        {
          "duration": 0.08333325000000968,
          "durationTicks": 96,
          "midi": 36,
          "name": "C2",
          "ticks": 90240,
          "time": 78.333255,
          "velocity": 0.2992125984251969
        },
        {
          "duration": 0.08333325000000968,
          "durationTicks": 96,
          "midi": 42,
          "name": "F#2",
          "ticks": 90240,
          "time": 78.333255,
          "velocity": 0.2992125984251969
        },
        {
          "duration": 0.08333324999999547,
          "durationTicks": 96,
          "midi": 42,
          "name": "F#2",
          "ticks": 90432,
          "time": 78.4999215,
          "velocity": 0.2992125984251969
        },
        {
          "duration": 0.08333324999999547,
          "durationTicks": 96,
          "midi": 38,
          "name": "D2",
          "ticks": 90432,
          "time": 78.4999215,
          "velocity": 0.2992125984251969
        },
        {
          "duration": 0.08333324999999547,
          "durationTicks": 96,
          "midi": 40,
          "name": "E2",
          "ticks": 90432,
          "time": 78.4999215,
          "velocity": 0.2992125984251969
        },
        {
          "duration": 0.08333324999999547,
          "durationTicks": 96,
          "midi": 42,
          "name": "F#2",
          "ticks": 90624,
          "time": 78.666588,
          "velocity": 0.2992125984251969
        },
        {
          "duration": 0.08333324999999547,
          "durationTicks": 96,
          "midi": 59,
          "name": "B3",
          "ticks": 90624,
          "time": 78.666588,
          "velocity": 0.2992125984251969
        },
        {
          "duration": 0.08333324999999547,
          "durationTicks": 96,
          "midi": 36,
          "name": "C2",
          "ticks": 90624,
          "time": 78.666588,
          "velocity": 0.2992125984251969
        },
        {
          "duration": 0.08333324999999547,
          "durationTicks": 96,
          "midi": 51,
          "name": "D#3",
          "ticks": 90624,
          "time": 78.666588,
          "velocity": 0.2992125984251969
        },
        {
          "duration": 0.08333324999999547,
          "durationTicks": 96,
          "midi": 49,
          "name": "C#3",
          "ticks": 90624,
          "time": 78.666588,
          "velocity": 0.2992125984251969
        },
        {
          "duration": 0.08333324999999547,
          "durationTicks": 96,
          "midi": 53,
          "name": "F3",
          "ticks": 90624,
          "time": 78.666588,
          "velocity": 0.2992125984251969
        },
        {
          "duration": 0.08333324999999547,
          "durationTicks": 96,
          "midi": 36,
          "name": "C2",
          "ticks": 90816,
          "time": 78.8332545,
          "velocity": 0.2992125984251969
        },
        {
          "duration": 0.08333324999999547,
          "durationTicks": 96,
          "midi": 42,
          "name": "F#2",
          "ticks": 90816,
          "time": 78.8332545,
          "velocity": 0.2992125984251969
        },
        {
          "duration": 0.08333324999999547,
          "durationTicks": 96,
          "midi": 59,
          "name": "B3",
          "ticks": 91008,
          "time": 78.999921,
          "velocity": 0.2992125984251969
        },
        {
          "duration": 0.08333324999999547,
          "durationTicks": 96,
          "midi": 40,
          "name": "E2",
          "ticks": 91008,
          "time": 78.999921,
          "velocity": 0.2992125984251969
        },
        {
          "duration": 0.08333324999999547,
          "durationTicks": 96,
          "midi": 38,
          "name": "D2",
          "ticks": 91008,
          "time": 78.999921,
          "velocity": 0.2992125984251969
        },
        {
          "duration": 0.08333324999999547,
          "durationTicks": 96,
          "midi": 49,
          "name": "C#3",
          "ticks": 91008,
          "time": 78.999921,
          "velocity": 0.2992125984251969
        },
        {
          "duration": 0.08333324999999547,
          "durationTicks": 96,
          "midi": 51,
          "name": "D#3",
          "ticks": 91008,
          "time": 78.999921,
          "velocity": 0.2992125984251969
        },
        {
          "duration": 0.08333324999999547,
          "durationTicks": 96,
          "midi": 42,
          "name": "F#2",
          "ticks": 91008,
          "time": 78.999921,
          "velocity": 0.2992125984251969
        },
        {
          "duration": 0.08333324999999547,
          "durationTicks": 96,
          "midi": 53,
          "name": "F3",
          "ticks": 91008,
          "time": 78.999921,
          "velocity": 0.2992125984251969
        },
        {
          "duration": 0.08333325000000968,
          "durationTicks": 96,
          "midi": 42,
          "name": "F#2",
          "ticks": 91200,
          "time": 79.16658749999999,
          "velocity": 0.2992125984251969
        },
        {
          "duration": 0.08333325000000968,
          "durationTicks": 96,
          "midi": 36,
          "name": "C2",
          "ticks": 91200,
          "time": 79.16658749999999,
          "velocity": 0.2992125984251969
        },
        {
          "duration": 0.08333324999999547,
          "durationTicks": 96,
          "midi": 42,
          "name": "F#2",
          "ticks": 91392,
          "time": 79.333254,
          "velocity": 0.2992125984251969
        },
        {
          "duration": 0.08333324999999547,
          "durationTicks": 96,
          "midi": 36,
          "name": "C2",
          "ticks": 91392,
          "time": 79.333254,
          "velocity": 0.2992125984251969
        },
        {
          "duration": 0.08333324999999547,
          "durationTicks": 96,
          "midi": 53,
          "name": "F3",
          "ticks": 91584,
          "time": 79.4999205,
          "velocity": 0.2992125984251969
        },
        {
          "duration": 0.08333324999999547,
          "durationTicks": 96,
          "midi": 42,
          "name": "F#2",
          "ticks": 91584,
          "time": 79.4999205,
          "velocity": 0.2992125984251969
        },
        {
          "duration": 0.08333324999999547,
          "durationTicks": 96,
          "midi": 40,
          "name": "E2",
          "ticks": 91584,
          "time": 79.4999205,
          "velocity": 0.2992125984251969
        },
        {
          "duration": 0.08333324999999547,
          "durationTicks": 96,
          "midi": 59,
          "name": "B3",
          "ticks": 91584,
          "time": 79.4999205,
          "velocity": 0.2992125984251969
        },
        {
          "duration": 0.08333324999999547,
          "durationTicks": 96,
          "midi": 49,
          "name": "C#3",
          "ticks": 91584,
          "time": 79.4999205,
          "velocity": 0.2992125984251969
        },
        {
          "duration": 0.08333324999999547,
          "durationTicks": 96,
          "midi": 51,
          "name": "D#3",
          "ticks": 91584,
          "time": 79.4999205,
          "velocity": 0.2992125984251969
        },
        {
          "duration": 0.08333324999999547,
          "durationTicks": 96,
          "midi": 38,
          "name": "D2",
          "ticks": 91584,
          "time": 79.4999205,
          "velocity": 0.2992125984251969
        },
        {
          "duration": 0.08333325000000968,
          "durationTicks": 96,
          "midi": 36,
          "name": "C2",
          "ticks": 91776,
          "time": 79.66658699999999,
          "velocity": 0.2992125984251969
        },
        {
          "duration": 0.08333325000000968,
          "durationTicks": 96,
          "midi": 42,
          "name": "F#2",
          "ticks": 91776,
          "time": 79.66658699999999,
          "velocity": 0.2992125984251969
        },
        {
          "duration": 0.08333324999999547,
          "durationTicks": 96,
          "midi": 42,
          "name": "F#2",
          "ticks": 91968,
          "time": 79.8332535,
          "velocity": 0.2992125984251969
        },
        {
          "duration": 0.08333324999999547,
          "durationTicks": 96,
          "midi": 38,
          "name": "D2",
          "ticks": 91968,
          "time": 79.8332535,
          "velocity": 0.2992125984251969
        },
        {
          "duration": 0.08333324999999547,
          "durationTicks": 96,
          "midi": 40,
          "name": "E2",
          "ticks": 91968,
          "time": 79.8332535,
          "velocity": 0.2992125984251969
        },
        {
          "duration": 0.08333324999999547,
          "durationTicks": 96,
          "midi": 51,
          "name": "D#3",
          "ticks": 92160,
          "time": 79.99992,
          "velocity": 0.2992125984251969
        },
        {
          "duration": 0.08333324999999547,
          "durationTicks": 96,
          "midi": 36,
          "name": "C2",
          "ticks": 92160,
          "time": 79.99992,
          "velocity": 0.2992125984251969
        },
        {
          "duration": 0.08333324999999547,
          "durationTicks": 96,
          "midi": 53,
          "name": "F3",
          "ticks": 92160,
          "time": 79.99992,
          "velocity": 0.2992125984251969
        },
        {
          "duration": 0.08333324999999547,
          "durationTicks": 96,
          "midi": 49,
          "name": "C#3",
          "ticks": 92160,
          "time": 79.99992,
          "velocity": 0.2992125984251969
        },
        {
          "duration": 0.08333324999999547,
          "durationTicks": 96,
          "midi": 59,
          "name": "B3",
          "ticks": 92160,
          "time": 79.99992,
          "velocity": 0.2992125984251969
        },
        {
          "duration": 0.08333324999999547,
          "durationTicks": 96,
          "midi": 42,
          "name": "F#2",
          "ticks": 92160,
          "time": 79.99992,
          "velocity": 0.2992125984251969
        },
        {
          "duration": 0.08333325000000968,
          "durationTicks": 96,
          "midi": 42,
          "name": "F#2",
          "ticks": 92352,
          "time": 80.1665865,
          "velocity": 0.2992125984251969
        },
        {
          "duration": 0.08333325000000968,
          "durationTicks": 96,
          "midi": 36,
          "name": "C2",
          "ticks": 92352,
          "time": 80.1665865,
          "velocity": 0.2992125984251969
        },
        {
          "duration": 0.08333324999999547,
          "durationTicks": 96,
          "midi": 59,
          "name": "B3",
          "ticks": 92544,
          "time": 80.333253,
          "velocity": 0.2992125984251969
        },
        {
          "duration": 0.08333324999999547,
          "durationTicks": 96,
          "midi": 42,
          "name": "F#2",
          "ticks": 92544,
          "time": 80.333253,
          "velocity": 0.2992125984251969
        },
        {
          "duration": 0.08333324999999547,
          "durationTicks": 96,
          "midi": 38,
          "name": "D2",
          "ticks": 92544,
          "time": 80.333253,
          "velocity": 0.2992125984251969
        },
        {
          "duration": 0.08333324999999547,
          "durationTicks": 96,
          "midi": 53,
          "name": "F3",
          "ticks": 92544,
          "time": 80.333253,
          "velocity": 0.2992125984251969
        },
        {
          "duration": 0.08333324999999547,
          "durationTicks": 96,
          "midi": 40,
          "name": "E2",
          "ticks": 92544,
          "time": 80.333253,
          "velocity": 0.2992125984251969
        },
        {
          "duration": 0.08333324999999547,
          "durationTicks": 96,
          "midi": 51,
          "name": "D#3",
          "ticks": 92544,
          "time": 80.333253,
          "velocity": 0.2992125984251969
        },
        {
          "duration": 0.08333324999999547,
          "durationTicks": 96,
          "midi": 49,
          "name": "C#3",
          "ticks": 92544,
          "time": 80.333253,
          "velocity": 0.2992125984251969
        },
        {
          "duration": 0.08333324999999547,
          "durationTicks": 96,
          "midi": 42,
          "name": "F#2",
          "ticks": 92736,
          "time": 80.4999195,
          "velocity": 0.2992125984251969
        },
        {
          "duration": 0.08333324999999547,
          "durationTicks": 96,
          "midi": 36,
          "name": "C2",
          "ticks": 92736,
          "time": 80.4999195,
          "velocity": 0.2992125984251969
        },
        {
          "duration": 0.08333324999999547,
          "durationTicks": 96,
          "midi": 42,
          "name": "F#2",
          "ticks": 92928,
          "time": 80.666586,
          "velocity": 0.2992125984251969
        },
        {
          "duration": 0.08333324999999547,
          "durationTicks": 96,
          "midi": 36,
          "name": "C2",
          "ticks": 92928,
          "time": 80.666586,
          "velocity": 0.2992125984251969
        },
        {
          "duration": 0.08333324999999547,
          "durationTicks": 96,
          "midi": 51,
          "name": "D#3",
          "ticks": 93120,
          "time": 80.8332525,
          "velocity": 0.2992125984251969
        },
        {
          "duration": 0.08333324999999547,
          "durationTicks": 96,
          "midi": 49,
          "name": "C#3",
          "ticks": 93120,
          "time": 80.8332525,
          "velocity": 0.2992125984251969
        },
        {
          "duration": 0.08333324999999547,
          "durationTicks": 96,
          "midi": 53,
          "name": "F3",
          "ticks": 93120,
          "time": 80.8332525,
          "velocity": 0.2992125984251969
        },
        {
          "duration": 0.08333324999999547,
          "durationTicks": 96,
          "midi": 38,
          "name": "D2",
          "ticks": 93120,
          "time": 80.8332525,
          "velocity": 0.2992125984251969
        },
        {
          "duration": 0.08333324999999547,
          "durationTicks": 96,
          "midi": 59,
          "name": "B3",
          "ticks": 93120,
          "time": 80.8332525,
          "velocity": 0.2992125984251969
        },
        {
          "duration": 0.08333324999999547,
          "durationTicks": 96,
          "midi": 40,
          "name": "E2",
          "ticks": 93120,
          "time": 80.8332525,
          "velocity": 0.2992125984251969
        },
        {
          "duration": 0.08333324999999547,
          "durationTicks": 96,
          "midi": 42,
          "name": "F#2",
          "ticks": 93120,
          "time": 80.8332525,
          "velocity": 0.2992125984251969
        },
        {
          "duration": 0.08333325000000968,
          "durationTicks": 96,
          "midi": 36,
          "name": "C2",
          "ticks": 93312,
          "time": 80.99991899999999,
          "velocity": 0.2992125984251969
        },
        {
          "duration": 0.08333325000000968,
          "durationTicks": 96,
          "midi": 42,
          "name": "F#2",
          "ticks": 93312,
          "time": 80.99991899999999,
          "velocity": 0.2992125984251969
        },
        {
          "duration": 0.08333324999999547,
          "durationTicks": 96,
          "midi": 42,
          "name": "F#2",
          "ticks": 93504,
          "time": 81.1665855,
          "velocity": 0.2992125984251969
        },
        {
          "duration": 0.08333324999999547,
          "durationTicks": 96,
          "midi": 40,
          "name": "E2",
          "ticks": 93504,
          "time": 81.1665855,
          "velocity": 0.2992125984251969
        },
        {
          "duration": 0.08333324999999547,
          "durationTicks": 96,
          "midi": 38,
          "name": "D2",
          "ticks": 93504,
          "time": 81.1665855,
          "velocity": 0.2992125984251969
        },
        {
          "duration": 0.08333324999999547,
          "durationTicks": 96,
          "midi": 53,
          "name": "F3",
          "ticks": 93696,
          "time": 81.333252,
          "velocity": 0.2992125984251969
        },
        {
          "duration": 0.08333324999999547,
          "durationTicks": 96,
          "midi": 59,
          "name": "B3",
          "ticks": 93696,
          "time": 81.333252,
          "velocity": 0.2992125984251969
        },
        {
          "duration": 0.08333324999999547,
          "durationTicks": 96,
          "midi": 49,
          "name": "C#3",
          "ticks": 93696,
          "time": 81.333252,
          "velocity": 0.2992125984251969
        },
        {
          "duration": 0.08333324999999547,
          "durationTicks": 96,
          "midi": 42,
          "name": "F#2",
          "ticks": 93696,
          "time": 81.333252,
          "velocity": 0.2992125984251969
        },
        {
          "duration": 0.08333324999999547,
          "durationTicks": 96,
          "midi": 51,
          "name": "D#3",
          "ticks": 93696,
          "time": 81.333252,
          "velocity": 0.2992125984251969
        },
        {
          "duration": 0.08333324999999547,
          "durationTicks": 96,
          "midi": 36,
          "name": "C2",
          "ticks": 93696,
          "time": 81.333252,
          "velocity": 0.2992125984251969
        },
        {
          "duration": 0.08333325000000968,
          "durationTicks": 96,
          "midi": 36,
          "name": "C2",
          "ticks": 93888,
          "time": 81.49991849999999,
          "velocity": 0.2992125984251969
        },
        {
          "duration": 0.08333325000000968,
          "durationTicks": 96,
          "midi": 42,
          "name": "F#2",
          "ticks": 93888,
          "time": 81.49991849999999,
          "velocity": 0.2992125984251969
        },
        {
          "duration": 0.08333324999999547,
          "durationTicks": 96,
          "midi": 59,
          "name": "B3",
          "ticks": 94080,
          "time": 81.666585,
          "velocity": 0.2992125984251969
        },
        {
          "duration": 0.08333324999999547,
          "durationTicks": 96,
          "midi": 40,
          "name": "E2",
          "ticks": 94080,
          "time": 81.666585,
          "velocity": 0.2992125984251969
        },
        {
          "duration": 0.08333324999999547,
          "durationTicks": 96,
          "midi": 38,
          "name": "D2",
          "ticks": 94080,
          "time": 81.666585,
          "velocity": 0.2992125984251969
        },
        {
          "duration": 0.08333324999999547,
          "durationTicks": 96,
          "midi": 53,
          "name": "F3",
          "ticks": 94080,
          "time": 81.666585,
          "velocity": 0.2992125984251969
        },
        {
          "duration": 0.08333324999999547,
          "durationTicks": 96,
          "midi": 51,
          "name": "D#3",
          "ticks": 94080,
          "time": 81.666585,
          "velocity": 0.2992125984251969
        },
        {
          "duration": 0.08333324999999547,
          "durationTicks": 96,
          "midi": 49,
          "name": "C#3",
          "ticks": 94080,
          "time": 81.666585,
          "velocity": 0.2992125984251969
        },
        {
          "duration": 0.08333324999999547,
          "durationTicks": 96,
          "midi": 42,
          "name": "F#2",
          "ticks": 94080,
          "time": 81.666585,
          "velocity": 0.2992125984251969
        },
        {
          "duration": 0.08333324999999547,
          "durationTicks": 96,
          "midi": 42,
          "name": "F#2",
          "ticks": 94272,
          "time": 81.8332515,
          "velocity": 0.2992125984251969
        },
        {
          "duration": 0.08333324999999547,
          "durationTicks": 96,
          "midi": 36,
          "name": "C2",
          "ticks": 94272,
          "time": 81.8332515,
          "velocity": 0.2992125984251969
        },
        {
          "duration": 0.08333325000000968,
          "durationTicks": 96,
          "midi": 42,
          "name": "F#2",
          "ticks": 94464,
          "time": 81.999918,
          "velocity": 0.2992125984251969
        },
        {
          "duration": 0.08333325000000968,
          "durationTicks": 96,
          "midi": 36,
          "name": "C2",
          "ticks": 94464,
          "time": 81.999918,
          "velocity": 0.2992125984251969
        },
        {
          "duration": 0.08333324999999547,
          "durationTicks": 96,
          "midi": 51,
          "name": "D#3",
          "ticks": 94656,
          "time": 82.1665845,
          "velocity": 0.2992125984251969
        },
        {
          "duration": 0.08333324999999547,
          "durationTicks": 96,
          "midi": 53,
          "name": "F3",
          "ticks": 94656,
          "time": 82.1665845,
          "velocity": 0.2992125984251969
        },
        {
          "duration": 0.08333324999999547,
          "durationTicks": 96,
          "midi": 49,
          "name": "C#3",
          "ticks": 94656,
          "time": 82.1665845,
          "velocity": 0.2992125984251969
        },
        {
          "duration": 0.08333324999999547,
          "durationTicks": 96,
          "midi": 42,
          "name": "F#2",
          "ticks": 94656,
          "time": 82.1665845,
          "velocity": 0.2992125984251969
        },
        {
          "duration": 0.08333324999999547,
          "durationTicks": 96,
          "midi": 59,
          "name": "B3",
          "ticks": 94656,
          "time": 82.1665845,
          "velocity": 0.2992125984251969
        },
        {
          "duration": 0.08333324999999547,
          "durationTicks": 96,
          "midi": 40,
          "name": "E2",
          "ticks": 94656,
          "time": 82.1665845,
          "velocity": 0.2992125984251969
        },
        {
          "duration": 0.08333324999999547,
          "durationTicks": 96,
          "midi": 38,
          "name": "D2",
          "ticks": 94656,
          "time": 82.1665845,
          "velocity": 0.2992125984251969
        },
        {
          "duration": 0.08333324999999547,
          "durationTicks": 96,
          "midi": 36,
          "name": "C2",
          "ticks": 94848,
          "time": 82.333251,
          "velocity": 0.2992125984251969
        },
        {
          "duration": 0.08333324999999547,
          "durationTicks": 96,
          "midi": 42,
          "name": "F#2",
          "ticks": 94848,
          "time": 82.333251,
          "velocity": 0.2992125984251969
        },
        {
          "duration": 0.08333324999999547,
          "durationTicks": 96,
          "midi": 38,
          "name": "D2",
          "ticks": 95040,
          "time": 82.4999175,
          "velocity": 0.2992125984251969
        },
        {
          "duration": 0.08333324999999547,
          "durationTicks": 96,
          "midi": 42,
          "name": "F#2",
          "ticks": 95040,
          "time": 82.4999175,
          "velocity": 0.2992125984251969
        },
        {
          "duration": 0.08333324999999547,
          "durationTicks": 96,
          "midi": 40,
          "name": "E2",
          "ticks": 95040,
          "time": 82.4999175,
          "velocity": 0.2992125984251969
        },
        {
          "duration": 0.08333324999999547,
          "durationTicks": 96,
          "midi": 51,
          "name": "D#3",
          "ticks": 95232,
          "time": 82.666584,
          "velocity": 0.2992125984251969
        },
        {
          "duration": 0.08333324999999547,
          "durationTicks": 96,
          "midi": 49,
          "name": "C#3",
          "ticks": 95232,
          "time": 82.666584,
          "velocity": 0.2992125984251969
        },
        {
          "duration": 0.08333324999999547,
          "durationTicks": 96,
          "midi": 42,
          "name": "F#2",
          "ticks": 95232,
          "time": 82.666584,
          "velocity": 0.2992125984251969
        },
        {
          "duration": 0.08333324999999547,
          "durationTicks": 96,
          "midi": 53,
          "name": "F3",
          "ticks": 95232,
          "time": 82.666584,
          "velocity": 0.2992125984251969
        },
        {
          "duration": 0.08333324999999547,
          "durationTicks": 96,
          "midi": 59,
          "name": "B3",
          "ticks": 95232,
          "time": 82.666584,
          "velocity": 0.2992125984251969
        },
        {
          "duration": 0.08333324999999547,
          "durationTicks": 96,
          "midi": 36,
          "name": "C2",
          "ticks": 95232,
          "time": 82.666584,
          "velocity": 0.2992125984251969
        },
        {
          "duration": 0.08333325000000968,
          "durationTicks": 96,
          "midi": 42,
          "name": "F#2",
          "ticks": 95424,
          "time": 82.83325049999999,
          "velocity": 0.2992125984251969
        },
        {
          "duration": 0.08333325000000968,
          "durationTicks": 96,
          "midi": 36,
          "name": "C2",
          "ticks": 95424,
          "time": 82.83325049999999,
          "velocity": 0.2992125984251969
        },
        {
          "duration": 0.08333324999999547,
          "durationTicks": 96,
          "midi": 40,
          "name": "E2",
          "ticks": 95616,
          "time": 82.999917,
          "velocity": 0.2992125984251969
        },
        {
          "duration": 0.08333324999999547,
          "durationTicks": 96,
          "midi": 49,
          "name": "C#3",
          "ticks": 95616,
          "time": 82.999917,
          "velocity": 0.2992125984251969
        },
        {
          "duration": 0.08333324999999547,
          "durationTicks": 96,
          "midi": 59,
          "name": "B3",
          "ticks": 95616,
          "time": 82.999917,
          "velocity": 0.2992125984251969
        },
        {
          "duration": 0.08333324999999547,
          "durationTicks": 96,
          "midi": 53,
          "name": "F3",
          "ticks": 95616,
          "time": 82.999917,
          "velocity": 0.2992125984251969
        },
        {
          "duration": 0.08333324999999547,
          "durationTicks": 96,
          "midi": 51,
          "name": "D#3",
          "ticks": 95616,
          "time": 82.999917,
          "velocity": 0.2992125984251969
        },
        {
          "duration": 0.08333324999999547,
          "durationTicks": 96,
          "midi": 42,
          "name": "F#2",
          "ticks": 95616,
          "time": 82.999917,
          "velocity": 0.2992125984251969
        },
        {
          "duration": 0.08333324999999547,
          "durationTicks": 96,
          "midi": 38,
          "name": "D2",
          "ticks": 95616,
          "time": 82.999917,
          "velocity": 0.2992125984251969
        },
        {
          "duration": 0.08333324999999547,
          "durationTicks": 96,
          "midi": 42,
          "name": "F#2",
          "ticks": 95808,
          "time": 83.1665835,
          "velocity": 0.2992125984251969
        },
        {
          "duration": 0.08333324999999547,
          "durationTicks": 96,
          "midi": 36,
          "name": "C2",
          "ticks": 95808,
          "time": 83.1665835,
          "velocity": 0.2992125984251969
        },
        {
          "duration": 0.08333325000000968,
          "durationTicks": 96,
          "midi": 36,
          "name": "C2",
          "ticks": 96000,
          "time": 83.33324999999999,
          "velocity": 0.2992125984251969
        },
        {
          "duration": 0.08333325000000968,
          "durationTicks": 96,
          "midi": 42,
          "name": "F#2",
          "ticks": 96000,
          "time": 83.33324999999999,
          "velocity": 0.2992125984251969
        },
        {
          "duration": 0.08333324999999547,
          "durationTicks": 96,
          "midi": 49,
          "name": "C#3",
          "ticks": 96192,
          "time": 83.4999165,
          "velocity": 0.2992125984251969
        },
        {
          "duration": 0.08333324999999547,
          "durationTicks": 96,
          "midi": 38,
          "name": "D2",
          "ticks": 96192,
          "time": 83.4999165,
          "velocity": 0.2992125984251969
        },
        {
          "duration": 0.08333324999999547,
          "durationTicks": 96,
          "midi": 40,
          "name": "E2",
          "ticks": 96192,
          "time": 83.4999165,
          "velocity": 0.2992125984251969
        },
        {
          "duration": 0.08333324999999547,
          "durationTicks": 96,
          "midi": 42,
          "name": "F#2",
          "ticks": 96192,
          "time": 83.4999165,
          "velocity": 0.2992125984251969
        },
        {
          "duration": 0.08333324999999547,
          "durationTicks": 96,
          "midi": 53,
          "name": "F3",
          "ticks": 96192,
          "time": 83.4999165,
          "velocity": 0.2992125984251969
        },
        {
          "duration": 0.08333324999999547,
          "durationTicks": 96,
          "midi": 51,
          "name": "D#3",
          "ticks": 96192,
          "time": 83.4999165,
          "velocity": 0.2992125984251969
        },
        {
          "duration": 0.08333324999999547,
          "durationTicks": 96,
          "midi": 59,
          "name": "B3",
          "ticks": 96192,
          "time": 83.4999165,
          "velocity": 0.2992125984251969
        },
        {
          "duration": 0.08333324999999547,
          "durationTicks": 96,
          "midi": 42,
          "name": "F#2",
          "ticks": 96384,
          "time": 83.666583,
          "velocity": 0.2992125984251969
        },
        {
          "duration": 0.08333324999999547,
          "durationTicks": 96,
          "midi": 36,
          "name": "C2",
          "ticks": 96384,
          "time": 83.666583,
          "velocity": 0.2992125984251969
        },
        {
          "duration": 0.08333325000000968,
          "durationTicks": 96,
          "midi": 38,
          "name": "D2",
          "ticks": 96576,
          "time": 83.8332495,
          "velocity": 0.2992125984251969
        },
        {
          "duration": 0.08333325000000968,
          "durationTicks": 96,
          "midi": 40,
          "name": "E2",
          "ticks": 96576,
          "time": 83.8332495,
          "velocity": 0.2992125984251969
        },
        {
          "duration": 0.08333325000000968,
          "durationTicks": 96,
          "midi": 42,
          "name": "F#2",
          "ticks": 96576,
          "time": 83.8332495,
          "velocity": 0.2992125984251969
        },
        {
          "duration": 0.08333324999999547,
          "durationTicks": 96,
          "midi": 53,
          "name": "F3",
          "ticks": 96768,
          "time": 83.999916,
          "velocity": 0.2992125984251969
        },
        {
          "duration": 0.08333324999999547,
          "durationTicks": 96,
          "midi": 51,
          "name": "D#3",
          "ticks": 96768,
          "time": 83.999916,
          "velocity": 0.2992125984251969
        },
        {
          "duration": 0.08333324999999547,
          "durationTicks": 96,
          "midi": 36,
          "name": "C2",
          "ticks": 96768,
          "time": 83.999916,
          "velocity": 0.2992125984251969
        },
        {
          "duration": 0.08333324999999547,
          "durationTicks": 96,
          "midi": 59,
          "name": "B3",
          "ticks": 96768,
          "time": 83.999916,
          "velocity": 0.2992125984251969
        },
        {
          "duration": 0.08333324999999547,
          "durationTicks": 96,
          "midi": 49,
          "name": "C#3",
          "ticks": 96768,
          "time": 83.999916,
          "velocity": 0.2992125984251969
        },
        {
          "duration": 0.08333324999999547,
          "durationTicks": 96,
          "midi": 42,
          "name": "F#2",
          "ticks": 96768,
          "time": 83.999916,
          "velocity": 0.2992125984251969
        },
        {
          "duration": 0.08333324999999547,
          "durationTicks": 96,
          "midi": 36,
          "name": "C2",
          "ticks": 96960,
          "time": 84.1665825,
          "velocity": 0.2992125984251969
        },
        {
          "duration": 0.08333324999999547,
          "durationTicks": 96,
          "midi": 42,
          "name": "F#2",
          "ticks": 96960,
          "time": 84.1665825,
          "velocity": 0.2992125984251969
        },
        {
          "duration": 0.08333324999999547,
          "durationTicks": 96,
          "midi": 59,
          "name": "B3",
          "ticks": 97152,
          "time": 84.333249,
          "velocity": 0.2992125984251969
        },
        {
          "duration": 0.08333324999999547,
          "durationTicks": 96,
          "midi": 40,
          "name": "E2",
          "ticks": 97152,
          "time": 84.333249,
          "velocity": 0.2992125984251969
        },
        {
          "duration": 0.08333324999999547,
          "durationTicks": 96,
          "midi": 49,
          "name": "C#3",
          "ticks": 97152,
          "time": 84.333249,
          "velocity": 0.2992125984251969
        },
        {
          "duration": 0.08333324999999547,
          "durationTicks": 96,
          "midi": 51,
          "name": "D#3",
          "ticks": 97152,
          "time": 84.333249,
          "velocity": 0.2992125984251969
        },
        {
          "duration": 0.08333324999999547,
          "durationTicks": 96,
          "midi": 38,
          "name": "D2",
          "ticks": 97152,
          "time": 84.333249,
          "velocity": 0.2992125984251969
        },
        {
          "duration": 0.08333324999999547,
          "durationTicks": 96,
          "midi": 42,
          "name": "F#2",
          "ticks": 97152,
          "time": 84.333249,
          "velocity": 0.2992125984251969
        },
        {
          "duration": 0.08333324999999547,
          "durationTicks": 96,
          "midi": 53,
          "name": "F3",
          "ticks": 97152,
          "time": 84.333249,
          "velocity": 0.2992125984251969
        },
        {
          "duration": 0.08333324999999547,
          "durationTicks": 96,
          "midi": 42,
          "name": "F#2",
          "ticks": 97344,
          "time": 84.4999155,
          "velocity": 0.2992125984251969
        },
        {
          "duration": 0.08333324999999547,
          "durationTicks": 96,
          "midi": 36,
          "name": "C2",
          "ticks": 97344,
          "time": 84.4999155,
          "velocity": 0.2992125984251969
        },
        {
          "duration": 0.08333325000000968,
          "durationTicks": 96,
          "midi": 36,
          "name": "C2",
          "ticks": 97536,
          "time": 84.66658199999999,
          "velocity": 0.2992125984251969
        },
        {
          "duration": 0.08333325000000968,
          "durationTicks": 96,
          "midi": 42,
          "name": "F#2",
          "ticks": 97536,
          "time": 84.66658199999999,
          "velocity": 0.2992125984251969
        },
        {
          "duration": 0.08333324999999547,
          "durationTicks": 96,
          "midi": 38,
          "name": "D2",
          "ticks": 97728,
          "time": 84.8332485,
          "velocity": 0.2992125984251969
        },
        {
          "duration": 0.08333324999999547,
          "durationTicks": 96,
          "midi": 51,
          "name": "D#3",
          "ticks": 97728,
          "time": 84.8332485,
          "velocity": 0.2992125984251969
        },
        {
          "duration": 0.08333324999999547,
          "durationTicks": 96,
          "midi": 40,
          "name": "E2",
          "ticks": 97728,
          "time": 84.8332485,
          "velocity": 0.2992125984251969
        },
        {
          "duration": 0.08333324999999547,
          "durationTicks": 96,
          "midi": 53,
          "name": "F3",
          "ticks": 97728,
          "time": 84.8332485,
          "velocity": 0.2992125984251969
        },
        {
          "duration": 0.08333324999999547,
          "durationTicks": 96,
          "midi": 59,
          "name": "B3",
          "ticks": 97728,
          "time": 84.8332485,
          "velocity": 0.2992125984251969
        },
        {
          "duration": 0.08333324999999547,
          "durationTicks": 96,
          "midi": 49,
          "name": "C#3",
          "ticks": 97728,
          "time": 84.8332485,
          "velocity": 0.2992125984251969
        },
        {
          "duration": 0.08333324999999547,
          "durationTicks": 96,
          "midi": 42,
          "name": "F#2",
          "ticks": 97728,
          "time": 84.8332485,
          "velocity": 0.2992125984251969
        },
        {
          "duration": 0.08333324999999547,
          "durationTicks": 96,
          "midi": 36,
          "name": "C2",
          "ticks": 97920,
          "time": 84.999915,
          "velocity": 0.2992125984251969
        },
        {
          "duration": 0.08333324999999547,
          "durationTicks": 96,
          "midi": 42,
          "name": "F#2",
          "ticks": 97920,
          "time": 84.999915,
          "velocity": 0.2992125984251969
        },
        {
          "duration": 0.08333325000000968,
          "durationTicks": 96,
          "midi": 40,
          "name": "E2",
          "ticks": 98112,
          "time": 85.16658149999999,
          "velocity": 0.2992125984251969
        },
        {
          "duration": 0.08333325000000968,
          "durationTicks": 96,
          "midi": 38,
          "name": "D2",
          "ticks": 98112,
          "time": 85.16658149999999,
          "velocity": 0.2992125984251969
        },
        {
          "duration": 0.08333325000000968,
          "durationTicks": 96,
          "midi": 42,
          "name": "F#2",
          "ticks": 98112,
          "time": 85.16658149999999,
          "velocity": 0.2992125984251969
        },
        {
          "duration": 0.08333324999999547,
          "durationTicks": 96,
          "midi": 51,
          "name": "D#3",
          "ticks": 98304,
          "time": 85.333248,
          "velocity": 0.2992125984251969
        },
        {
          "duration": 0.08333324999999547,
          "durationTicks": 96,
          "midi": 53,
          "name": "F3",
          "ticks": 98304,
          "time": 85.333248,
          "velocity": 0.2992125984251969
        },
        {
          "duration": 0.08333324999999547,
          "durationTicks": 96,
          "midi": 49,
          "name": "C#3",
          "ticks": 98304,
          "time": 85.333248,
          "velocity": 0.2992125984251969
        },
        {
          "duration": 0.08333324999999547,
          "durationTicks": 96,
          "midi": 59,
          "name": "B3",
          "ticks": 98304,
          "time": 85.333248,
          "velocity": 0.2992125984251969
        },
        {
          "duration": 0.08333324999999547,
          "durationTicks": 96,
          "midi": 36,
          "name": "C2",
          "ticks": 98304,
          "time": 85.333248,
          "velocity": 0.2992125984251969
        },
        {
          "duration": 0.08333324999999547,
          "durationTicks": 96,
          "midi": 42,
          "name": "F#2",
          "ticks": 98304,
          "time": 85.333248,
          "velocity": 0.2992125984251969
        },
        {
          "duration": 0.08333324999999547,
          "durationTicks": 96,
          "midi": 42,
          "name": "F#2",
          "ticks": 98496,
          "time": 85.4999145,
          "velocity": 0.2992125984251969
        },
        {
          "duration": 0.08333324999999547,
          "durationTicks": 96,
          "midi": 36,
          "name": "C2",
          "ticks": 98496,
          "time": 85.4999145,
          "velocity": 0.2992125984251969
        },
        {
          "duration": 0.08333325000000968,
          "durationTicks": 96,
          "midi": 42,
          "name": "F#2",
          "ticks": 98688,
          "time": 85.666581,
          "velocity": 0.2992125984251969
        },
        {
          "duration": 0.08333325000000968,
          "durationTicks": 96,
          "midi": 51,
          "name": "D#3",
          "ticks": 98688,
          "time": 85.666581,
          "velocity": 0.2992125984251969
        },
        {
          "duration": 0.08333325000000968,
          "durationTicks": 96,
          "midi": 53,
          "name": "F3",
          "ticks": 98688,
          "time": 85.666581,
          "velocity": 0.2992125984251969
        },
        {
          "duration": 0.08333325000000968,
          "durationTicks": 96,
          "midi": 59,
          "name": "B3",
          "ticks": 98688,
          "time": 85.666581,
          "velocity": 0.2992125984251969
        },
        {
          "duration": 0.08333325000000968,
          "durationTicks": 96,
          "midi": 38,
          "name": "D2",
          "ticks": 98688,
          "time": 85.666581,
          "velocity": 0.2992125984251969
        },
        {
          "duration": 0.08333325000000968,
          "durationTicks": 96,
          "midi": 49,
          "name": "C#3",
          "ticks": 98688,
          "time": 85.666581,
          "velocity": 0.2992125984251969
        },
        {
          "duration": 0.08333325000000968,
          "durationTicks": 96,
          "midi": 40,
          "name": "E2",
          "ticks": 98688,
          "time": 85.666581,
          "velocity": 0.2992125984251969
        },
        {
          "duration": 0.08333324999999547,
          "durationTicks": 96,
          "midi": 36,
          "name": "C2",
          "ticks": 98880,
          "time": 85.8332475,
          "velocity": 0.2992125984251969
        },
        {
          "duration": 0.08333324999999547,
          "durationTicks": 96,
          "midi": 42,
          "name": "F#2",
          "ticks": 98880,
          "time": 85.8332475,
          "velocity": 0.2992125984251969
        },
        {
          "duration": 0.08333324999999547,
          "durationTicks": 96,
          "midi": 36,
          "name": "C2",
          "ticks": 99072,
          "time": 85.999914,
          "velocity": 0.2992125984251969
        },
        {
          "duration": 0.08333324999999547,
          "durationTicks": 96,
          "midi": 42,
          "name": "F#2",
          "ticks": 99072,
          "time": 85.999914,
          "velocity": 0.2992125984251969
        },
        {
          "duration": 0.08333325000000968,
          "durationTicks": 96,
          "midi": 51,
          "name": "D#3",
          "ticks": 99264,
          "time": 86.1665805,
          "velocity": 0.2992125984251969
        },
        {
          "duration": 0.08333325000000968,
          "durationTicks": 96,
          "midi": 53,
          "name": "F3",
          "ticks": 99264,
          "time": 86.1665805,
          "velocity": 0.2992125984251969
        },
        {
          "duration": 0.08333325000000968,
          "durationTicks": 96,
          "midi": 42,
          "name": "F#2",
          "ticks": 99264,
          "time": 86.1665805,
          "velocity": 0.2992125984251969
        },
        {
          "duration": 0.08333325000000968,
          "durationTicks": 96,
          "midi": 59,
          "name": "B3",
          "ticks": 99264,
          "time": 86.1665805,
          "velocity": 0.2992125984251969
        },
        {
          "duration": 0.08333325000000968,
          "durationTicks": 96,
          "midi": 49,
          "name": "C#3",
          "ticks": 99264,
          "time": 86.1665805,
          "velocity": 0.2992125984251969
        },
        {
          "duration": 0.08333325000000968,
          "durationTicks": 96,
          "midi": 38,
          "name": "D2",
          "ticks": 99264,
          "time": 86.1665805,
          "velocity": 0.2992125984251969
        },
        {
          "duration": 0.08333325000000968,
          "durationTicks": 96,
          "midi": 40,
          "name": "E2",
          "ticks": 99264,
          "time": 86.1665805,
          "velocity": 0.2992125984251969
        },
        {
          "duration": 0.08333324999999547,
          "durationTicks": 96,
          "midi": 36,
          "name": "C2",
          "ticks": 99456,
          "time": 86.333247,
          "velocity": 0.2992125984251969
        },
        {
          "duration": 0.08333324999999547,
          "durationTicks": 96,
          "midi": 42,
          "name": "F#2",
          "ticks": 99456,
          "time": 86.333247,
          "velocity": 0.2992125984251969
        },
        {
          "duration": 0.08333325000000968,
          "durationTicks": 96,
          "midi": 38,
          "name": "D2",
          "ticks": 99648,
          "time": 86.49991349999999,
          "velocity": 0.2992125984251969
        },
        {
          "duration": 0.08333325000000968,
          "durationTicks": 96,
          "midi": 42,
          "name": "F#2",
          "ticks": 99648,
          "time": 86.49991349999999,
          "velocity": 0.2992125984251969
        },
        {
          "duration": 0.08333325000000968,
          "durationTicks": 96,
          "midi": 40,
          "name": "E2",
          "ticks": 99648,
          "time": 86.49991349999999,
          "velocity": 0.2992125984251969
        },
        {
          "duration": 0.08333324999999547,
          "durationTicks": 96,
          "midi": 36,
          "name": "C2",
          "ticks": 99840,
          "time": 86.66658,
          "velocity": 0.2992125984251969
        },
        {
          "duration": 0.08333324999999547,
          "durationTicks": 96,
          "midi": 42,
          "name": "F#2",
          "ticks": 99840,
          "time": 86.66658,
          "velocity": 0.2992125984251969
        },
        {
          "duration": 0.08333324999999547,
          "durationTicks": 96,
          "midi": 53,
          "name": "F3",
          "ticks": 99840,
          "time": 86.66658,
          "velocity": 0.2992125984251969
        },
        {
          "duration": 0.08333324999999547,
          "durationTicks": 96,
          "midi": 49,
          "name": "C#3",
          "ticks": 99840,
          "time": 86.66658,
          "velocity": 0.2992125984251969
        },
        {
          "duration": 0.08333324999999547,
          "durationTicks": 96,
          "midi": 59,
          "name": "B3",
          "ticks": 99840,
          "time": 86.66658,
          "velocity": 0.2992125984251969
        },
        {
          "duration": 0.08333324999999547,
          "durationTicks": 96,
          "midi": 51,
          "name": "D#3",
          "ticks": 99840,
          "time": 86.66658,
          "velocity": 0.2992125984251969
        },
        {
          "duration": 0.08333324999999547,
          "durationTicks": 96,
          "midi": 36,
          "name": "C2",
          "ticks": 100032,
          "time": 86.8332465,
          "velocity": 0.2992125984251969
        },
        {
          "duration": 0.08333324999999547,
          "durationTicks": 96,
          "midi": 42,
          "name": "F#2",
          "ticks": 100032,
          "time": 86.8332465,
          "velocity": 0.2992125984251969
        },
        {
          "duration": 0.08333325000000968,
          "durationTicks": 96,
          "midi": 40,
          "name": "E2",
          "ticks": 100224,
          "time": 86.99991299999999,
          "velocity": 0.2992125984251969
        },
        {
          "duration": 0.08333325000000968,
          "durationTicks": 96,
          "midi": 53,
          "name": "F3",
          "ticks": 100224,
          "time": 86.99991299999999,
          "velocity": 0.2992125984251969
        },
        {
          "duration": 0.08333325000000968,
          "durationTicks": 96,
          "midi": 49,
          "name": "C#3",
          "ticks": 100224,
          "time": 86.99991299999999,
          "velocity": 0.2992125984251969
        },
        {
          "duration": 0.08333325000000968,
          "durationTicks": 96,
          "midi": 59,
          "name": "B3",
          "ticks": 100224,
          "time": 86.99991299999999,
          "velocity": 0.2992125984251969
        },
        {
          "duration": 0.08333325000000968,
          "durationTicks": 96,
          "midi": 38,
          "name": "D2",
          "ticks": 100224,
          "time": 86.99991299999999,
          "velocity": 0.2992125984251969
        },
        {
          "duration": 0.08333325000000968,
          "durationTicks": 96,
          "midi": 42,
          "name": "F#2",
          "ticks": 100224,
          "time": 86.99991299999999,
          "velocity": 0.2992125984251969
        },
        {
          "duration": 0.08333325000000968,
          "durationTicks": 96,
          "midi": 51,
          "name": "D#3",
          "ticks": 100224,
          "time": 86.99991299999999,
          "velocity": 0.2992125984251969
        },
        {
          "duration": 0.08333324999999547,
          "durationTicks": 96,
          "midi": 36,
          "name": "C2",
          "ticks": 100416,
          "time": 87.1665795,
          "velocity": 0.2992125984251969
        },
        {
          "duration": 0.08333324999999547,
          "durationTicks": 96,
          "midi": 42,
          "name": "F#2",
          "ticks": 100416,
          "time": 87.1665795,
          "velocity": 0.2992125984251969
        },
        {
          "duration": 0.08333324999999547,
          "durationTicks": 96,
          "midi": 42,
          "name": "F#2",
          "ticks": 100608,
          "time": 87.333246,
          "velocity": 0.2992125984251969
        },
        {
          "duration": 0.08333324999999547,
          "durationTicks": 96,
          "midi": 36,
          "name": "C2",
          "ticks": 100608,
          "time": 87.333246,
          "velocity": 0.2992125984251969
        },
        {
          "duration": 0.08333325000000968,
          "durationTicks": 96,
          "midi": 59,
          "name": "B3",
          "ticks": 100800,
          "time": 87.4999125,
          "velocity": 0.2992125984251969
        },
        {
          "duration": 0.08333325000000968,
          "durationTicks": 96,
          "midi": 51,
          "name": "D#3",
          "ticks": 100800,
          "time": 87.4999125,
          "velocity": 0.2992125984251969
        },
        {
          "duration": 0.08333325000000968,
          "durationTicks": 96,
          "midi": 38,
          "name": "D2",
          "ticks": 100800,
          "time": 87.4999125,
          "velocity": 0.2992125984251969
        },
        {
          "duration": 0.08333325000000968,
          "durationTicks": 96,
          "midi": 49,
          "name": "C#3",
          "ticks": 100800,
          "time": 87.4999125,
          "velocity": 0.2992125984251969
        },
        {
          "duration": 0.08333325000000968,
          "durationTicks": 96,
          "midi": 53,
          "name": "F3",
          "ticks": 100800,
          "time": 87.4999125,
          "velocity": 0.2992125984251969
        },
        {
          "duration": 0.08333325000000968,
          "durationTicks": 96,
          "midi": 42,
          "name": "F#2",
          "ticks": 100800,
          "time": 87.4999125,
          "velocity": 0.2992125984251969
        },
        {
          "duration": 0.08333325000000968,
          "durationTicks": 96,
          "midi": 40,
          "name": "E2",
          "ticks": 100800,
          "time": 87.4999125,
          "velocity": 0.2992125984251969
        },
        {
          "duration": 0.08333324999999547,
          "durationTicks": 96,
          "midi": 42,
          "name": "F#2",
          "ticks": 100992,
          "time": 87.666579,
          "velocity": 0.2992125984251969
        },
        {
          "duration": 0.08333324999999547,
          "durationTicks": 96,
          "midi": 36,
          "name": "C2",
          "ticks": 100992,
          "time": 87.666579,
          "velocity": 0.2992125984251969
        },
        {
          "duration": 0.08333324999999547,
          "durationTicks": 96,
          "midi": 40,
          "name": "E2",
          "ticks": 101184,
          "time": 87.8332455,
          "velocity": 0.2992125984251969
        },
        {
          "duration": 0.08333324999999547,
          "durationTicks": 96,
          "midi": 42,
          "name": "F#2",
          "ticks": 101184,
          "time": 87.8332455,
          "velocity": 0.2992125984251969
        },
        {
          "duration": 0.08333324999999547,
          "durationTicks": 96,
          "midi": 38,
          "name": "D2",
          "ticks": 101184,
          "time": 87.8332455,
          "velocity": 0.2992125984251969
        },
        {
          "duration": 0.08333325000000968,
          "durationTicks": 96,
          "midi": 53,
          "name": "F3",
          "ticks": 101376,
          "time": 87.999912,
          "velocity": 0.2992125984251969
        },
        {
          "duration": 0.08333325000000968,
          "durationTicks": 96,
          "midi": 59,
          "name": "B3",
          "ticks": 101376,
          "time": 87.999912,
          "velocity": 0.2992125984251969
        },
        {
          "duration": 0.08333325000000968,
          "durationTicks": 96,
          "midi": 42,
          "name": "F#2",
          "ticks": 101376,
          "time": 87.999912,
          "velocity": 0.2992125984251969
        },
        {
          "duration": 0.08333325000000968,
          "durationTicks": 96,
          "midi": 36,
          "name": "C2",
          "ticks": 101376,
          "time": 87.999912,
          "velocity": 0.2992125984251969
        },
        {
          "duration": 0.08333325000000968,
          "durationTicks": 96,
          "midi": 51,
          "name": "D#3",
          "ticks": 101376,
          "time": 87.999912,
          "velocity": 0.2992125984251969
        },
        {
          "duration": 0.08333325000000968,
          "durationTicks": 96,
          "midi": 49,
          "name": "C#3",
          "ticks": 101376,
          "time": 87.999912,
          "velocity": 0.2992125984251969
        },
        {
          "duration": 0.08333324999999547,
          "durationTicks": 96,
          "midi": 42,
          "name": "F#2",
          "ticks": 101568,
          "time": 88.1665785,
          "velocity": 0.2992125984251969
        },
        {
          "duration": 0.08333324999999547,
          "durationTicks": 96,
          "midi": 36,
          "name": "C2",
          "ticks": 101568,
          "time": 88.1665785,
          "velocity": 0.2992125984251969
        },
        {
          "duration": 0.08333325000000968,
          "durationTicks": 96,
          "midi": 40,
          "name": "E2",
          "ticks": 101760,
          "time": 88.33324499999999,
          "velocity": 0.2992125984251969
        },
        {
          "duration": 0.08333325000000968,
          "durationTicks": 96,
          "midi": 59,
          "name": "B3",
          "ticks": 101760,
          "time": 88.33324499999999,
          "velocity": 0.2992125984251969
        },
        {
          "duration": 0.08333325000000968,
          "durationTicks": 96,
          "midi": 49,
          "name": "C#3",
          "ticks": 101760,
          "time": 88.33324499999999,
          "velocity": 0.2992125984251969
        },
        {
          "duration": 0.08333325000000968,
          "durationTicks": 96,
          "midi": 38,
          "name": "D2",
          "ticks": 101760,
          "time": 88.33324499999999,
          "velocity": 0.2992125984251969
        },
        {
          "duration": 0.08333325000000968,
          "durationTicks": 96,
          "midi": 42,
          "name": "F#2",
          "ticks": 101760,
          "time": 88.33324499999999,
          "velocity": 0.2992125984251969
        },
        {
          "duration": 0.08333325000000968,
          "durationTicks": 96,
          "midi": 51,
          "name": "D#3",
          "ticks": 101760,
          "time": 88.33324499999999,
          "velocity": 0.2992125984251969
        },
        {
          "duration": 0.08333325000000968,
          "durationTicks": 96,
          "midi": 53,
          "name": "F3",
          "ticks": 101760,
          "time": 88.33324499999999,
          "velocity": 0.2992125984251969
        },
        {
          "duration": 0.08333324999999547,
          "durationTicks": 96,
          "midi": 42,
          "name": "F#2",
          "ticks": 101952,
          "time": 88.4999115,
          "velocity": 0.2992125984251969
        },
        {
          "duration": 0.08333324999999547,
          "durationTicks": 96,
          "midi": 36,
          "name": "C2",
          "ticks": 101952,
          "time": 88.4999115,
          "velocity": 0.2992125984251969
        },
        {
          "duration": 0.08333324999999547,
          "durationTicks": 96,
          "midi": 42,
          "name": "F#2",
          "ticks": 102144,
          "time": 88.666578,
          "velocity": 0.2992125984251969
        },
        {
          "duration": 0.08333324999999547,
          "durationTicks": 96,
          "midi": 36,
          "name": "C2",
          "ticks": 102144,
          "time": 88.666578,
          "velocity": 0.2992125984251969
        },
        {
          "duration": 0.08333325000000968,
          "durationTicks": 96,
          "midi": 40,
          "name": "E2",
          "ticks": 102336,
          "time": 88.83324449999999,
          "velocity": 0.2992125984251969
        },
        {
          "duration": 0.08333325000000968,
          "durationTicks": 96,
          "midi": 42,
          "name": "F#2",
          "ticks": 102336,
          "time": 88.83324449999999,
          "velocity": 0.2992125984251969
        },
        {
          "duration": 0.08333325000000968,
          "durationTicks": 96,
          "midi": 49,
          "name": "C#3",
          "ticks": 102336,
          "time": 88.83324449999999,
          "velocity": 0.2992125984251969
        },
        {
          "duration": 0.08333325000000968,
          "durationTicks": 96,
          "midi": 59,
          "name": "B3",
          "ticks": 102336,
          "time": 88.83324449999999,
          "velocity": 0.2992125984251969
        },
        {
          "duration": 0.08333325000000968,
          "durationTicks": 96,
          "midi": 53,
          "name": "F3",
          "ticks": 102336,
          "time": 88.83324449999999,
          "velocity": 0.2992125984251969
        },
        {
          "duration": 0.08333325000000968,
          "durationTicks": 96,
          "midi": 51,
          "name": "D#3",
          "ticks": 102336,
          "time": 88.83324449999999,
          "velocity": 0.2992125984251969
        },
        {
          "duration": 0.08333325000000968,
          "durationTicks": 96,
          "midi": 38,
          "name": "D2",
          "ticks": 102336,
          "time": 88.83324449999999,
          "velocity": 0.2992125984251969
        },
        {
          "duration": 0.08333324999999547,
          "durationTicks": 96,
          "midi": 36,
          "name": "C2",
          "ticks": 102528,
          "time": 88.999911,
          "velocity": 0.2992125984251969
        },
        {
          "duration": 0.08333324999999547,
          "durationTicks": 96,
          "midi": 42,
          "name": "F#2",
          "ticks": 102528,
          "time": 88.999911,
          "velocity": 0.2992125984251969
        },
        {
          "duration": 0.08333324999999547,
          "durationTicks": 96,
          "midi": 38,
          "name": "D2",
          "ticks": 102720,
          "time": 89.1665775,
          "velocity": 0.2992125984251969
        },
        {
          "duration": 0.08333324999999547,
          "durationTicks": 96,
          "midi": 42,
          "name": "F#2",
          "ticks": 102720,
          "time": 89.1665775,
          "velocity": 0.2992125984251969
        },
        {
          "duration": 0.08333324999999547,
          "durationTicks": 96,
          "midi": 40,
          "name": "E2",
          "ticks": 102720,
          "time": 89.1665775,
          "velocity": 0.2992125984251969
        },
        {
          "duration": 0.08333325000000968,
          "durationTicks": 96,
          "midi": 49,
          "name": "C#3",
          "ticks": 102912,
          "time": 89.333244,
          "velocity": 0.2992125984251969
        },
        {
          "duration": 0.08333325000000968,
          "durationTicks": 96,
          "midi": 42,
          "name": "F#2",
          "ticks": 102912,
          "time": 89.333244,
          "velocity": 0.2992125984251969
        },
        {
          "duration": 0.08333325000000968,
          "durationTicks": 96,
          "midi": 51,
          "name": "D#3",
          "ticks": 102912,
          "time": 89.333244,
          "velocity": 0.2992125984251969
        },
        {
          "duration": 0.08333325000000968,
          "durationTicks": 96,
          "midi": 36,
          "name": "C2",
          "ticks": 102912,
          "time": 89.333244,
          "velocity": 0.2992125984251969
        },
        {
          "duration": 0.08333325000000968,
          "durationTicks": 96,
          "midi": 53,
          "name": "F3",
          "ticks": 102912,
          "time": 89.333244,
          "velocity": 0.2992125984251969
        },
        {
          "duration": 0.08333325000000968,
          "durationTicks": 96,
          "midi": 59,
          "name": "B3",
          "ticks": 102912,
          "time": 89.333244,
          "velocity": 0.2992125984251969
        },
        {
          "duration": 0.08333324999999547,
          "durationTicks": 96,
          "midi": 36,
          "name": "C2",
          "ticks": 103104,
          "time": 89.4999105,
          "velocity": 0.2992125984251969
        },
        {
          "duration": 0.08333324999999547,
          "durationTicks": 96,
          "midi": 42,
          "name": "F#2",
          "ticks": 103104,
          "time": 89.4999105,
          "velocity": 0.2992125984251969
        },
        {
          "duration": 0.08333324999999547,
          "durationTicks": 96,
          "midi": 42,
          "name": "F#2",
          "ticks": 103296,
          "time": 89.666577,
          "velocity": 0.2992125984251969
        },
        {
          "duration": 0.08333324999999547,
          "durationTicks": 96,
          "midi": 51,
          "name": "D#3",
          "ticks": 103296,
          "time": 89.666577,
          "velocity": 0.2992125984251969
        },
        {
          "duration": 0.08333324999999547,
          "durationTicks": 96,
          "midi": 53,
          "name": "F3",
          "ticks": 103296,
          "time": 89.666577,
          "velocity": 0.2992125984251969
        },
        {
          "duration": 0.08333324999999547,
          "durationTicks": 96,
          "midi": 38,
          "name": "D2",
          "ticks": 103296,
          "time": 89.666577,
          "velocity": 0.2992125984251969
        },
        {
          "duration": 0.08333324999999547,
          "durationTicks": 96,
          "midi": 59,
          "name": "B3",
          "ticks": 103296,
          "time": 89.666577,
          "velocity": 0.2992125984251969
        },
        {
          "duration": 0.08333324999999547,
          "durationTicks": 96,
          "midi": 40,
          "name": "E2",
          "ticks": 103296,
          "time": 89.666577,
          "velocity": 0.2992125984251969
        },
        {
          "duration": 0.08333324999999547,
          "durationTicks": 96,
          "midi": 49,
          "name": "C#3",
          "ticks": 103296,
          "time": 89.666577,
          "velocity": 0.2992125984251969
        },
        {
          "duration": 0.08333325000000968,
          "durationTicks": 96,
          "midi": 42,
          "name": "F#2",
          "ticks": 103488,
          "time": 89.8332435,
          "velocity": 0.2992125984251969
        },
        {
          "duration": 0.08333325000000968,
          "durationTicks": 96,
          "midi": 36,
          "name": "C2",
          "ticks": 103488,
          "time": 89.8332435,
          "velocity": 0.2992125984251969
        },
        {
          "duration": 0.08333324999999547,
          "durationTicks": 96,
          "midi": 42,
          "name": "F#2",
          "ticks": 103680,
          "time": 89.99991,
          "velocity": 0.2992125984251969
        },
        {
          "duration": 0.08333324999999547,
          "durationTicks": 96,
          "midi": 36,
          "name": "C2",
          "ticks": 103680,
          "time": 89.99991,
          "velocity": 0.2992125984251969
        },
        {
          "duration": 0.08333325000000968,
          "durationTicks": 96,
          "midi": 49,
          "name": "C#3",
          "ticks": 103872,
          "time": 90.16657649999999,
          "velocity": 0.2992125984251969
        },
        {
          "duration": 0.08333325000000968,
          "durationTicks": 96,
          "midi": 59,
          "name": "B3",
          "ticks": 103872,
          "time": 90.16657649999999,
          "velocity": 0.2992125984251969
        },
        {
          "duration": 0.08333325000000968,
          "durationTicks": 96,
          "midi": 40,
          "name": "E2",
          "ticks": 103872,
          "time": 90.16657649999999,
          "velocity": 0.2992125984251969
        },
        {
          "duration": 0.08333325000000968,
          "durationTicks": 96,
          "midi": 51,
          "name": "D#3",
          "ticks": 103872,
          "time": 90.16657649999999,
          "velocity": 0.2992125984251969
        },
        {
          "duration": 0.08333325000000968,
          "durationTicks": 96,
          "midi": 38,
          "name": "D2",
          "ticks": 103872,
          "time": 90.16657649999999,
          "velocity": 0.2992125984251969
        },
        {
          "duration": 0.08333325000000968,
          "durationTicks": 96,
          "midi": 42,
          "name": "F#2",
          "ticks": 103872,
          "time": 90.16657649999999,
          "velocity": 0.2992125984251969
        },
        {
          "duration": 0.08333325000000968,
          "durationTicks": 96,
          "midi": 53,
          "name": "F3",
          "ticks": 103872,
          "time": 90.16657649999999,
          "velocity": 0.2992125984251969
        },
        {
          "duration": 0.08333324999999547,
          "durationTicks": 96,
          "midi": 42,
          "name": "F#2",
          "ticks": 104064,
          "time": 90.333243,
          "velocity": 0.2992125984251969
        },
        {
          "duration": 0.08333324999999547,
          "durationTicks": 96,
          "midi": 36,
          "name": "C2",
          "ticks": 104064,
          "time": 90.333243,
          "velocity": 0.2992125984251969
        },
        {
          "duration": 0.08333324999999547,
          "durationTicks": 96,
          "midi": 42,
          "name": "F#2",
          "ticks": 104256,
          "time": 90.4999095,
          "velocity": 0.2992125984251969
        },
        {
          "duration": 0.08333324999999547,
          "durationTicks": 96,
          "midi": 38,
          "name": "D2",
          "ticks": 104256,
          "time": 90.4999095,
          "velocity": 0.2992125984251969
        },
        {
          "duration": 0.08333324999999547,
          "durationTicks": 96,
          "midi": 40,
          "name": "E2",
          "ticks": 104256,
          "time": 90.4999095,
          "velocity": 0.2992125984251969
        },
        {
          "duration": 0.08333325000000968,
          "durationTicks": 96,
          "midi": 42,
          "name": "F#2",
          "ticks": 104448,
          "time": 90.66657599999999,
          "velocity": 0.2992125984251969
        },
        {
          "duration": 0.08333325000000968,
          "durationTicks": 96,
          "midi": 53,
          "name": "F3",
          "ticks": 104448,
          "time": 90.66657599999999,
          "velocity": 0.2992125984251969
        },
        {
          "duration": 0.08333325000000968,
          "durationTicks": 96,
          "midi": 51,
          "name": "D#3",
          "ticks": 104448,
          "time": 90.66657599999999,
          "velocity": 0.2992125984251969
        },
        {
          "duration": 0.08333325000000968,
          "durationTicks": 96,
          "midi": 49,
          "name": "C#3",
          "ticks": 104448,
          "time": 90.66657599999999,
          "velocity": 0.2992125984251969
        },
        {
          "duration": 0.08333325000000968,
          "durationTicks": 96,
          "midi": 36,
          "name": "C2",
          "ticks": 104448,
          "time": 90.66657599999999,
          "velocity": 0.2992125984251969
        },
        {
          "duration": 0.08333325000000968,
          "durationTicks": 96,
          "midi": 59,
          "name": "B3",
          "ticks": 104448,
          "time": 90.66657599999999,
          "velocity": 0.2992125984251969
        },
        {
          "duration": 0.08333324999999547,
          "durationTicks": 96,
          "midi": 42,
          "name": "F#2",
          "ticks": 104640,
          "time": 90.8332425,
          "velocity": 0.2992125984251969
        },
        {
          "duration": 0.08333324999999547,
          "durationTicks": 96,
          "midi": 36,
          "name": "C2",
          "ticks": 104640,
          "time": 90.8332425,
          "velocity": 0.2992125984251969
        },
        {
          "duration": 0.08333324999999547,
          "durationTicks": 96,
          "midi": 40,
          "name": "E2",
          "ticks": 104832,
          "time": 90.999909,
          "velocity": 0.2992125984251969
        },
        {
          "duration": 0.08333324999999547,
          "durationTicks": 96,
          "midi": 51,
          "name": "D#3",
          "ticks": 104832,
          "time": 90.999909,
          "velocity": 0.2992125984251969
        },
        {
          "duration": 0.08333324999999547,
          "durationTicks": 96,
          "midi": 42,
          "name": "F#2",
          "ticks": 104832,
          "time": 90.999909,
          "velocity": 0.2992125984251969
        },
        {
          "duration": 0.08333324999999547,
          "durationTicks": 96,
          "midi": 59,
          "name": "B3",
          "ticks": 104832,
          "time": 90.999909,
          "velocity": 0.2992125984251969
        },
        {
          "duration": 0.08333324999999547,
          "durationTicks": 96,
          "midi": 38,
          "name": "D2",
          "ticks": 104832,
          "time": 90.999909,
          "velocity": 0.2992125984251969
        },
        {
          "duration": 0.08333324999999547,
          "durationTicks": 96,
          "midi": 53,
          "name": "F3",
          "ticks": 104832,
          "time": 90.999909,
          "velocity": 0.2992125984251969
        },
        {
          "duration": 0.08333324999999547,
          "durationTicks": 96,
          "midi": 49,
          "name": "C#3",
          "ticks": 104832,
          "time": 90.999909,
          "velocity": 0.2992125984251969
        },
        {
          "duration": 0.08333325000000968,
          "durationTicks": 96,
          "midi": 36,
          "name": "C2",
          "ticks": 105024,
          "time": 91.1665755,
          "velocity": 0.2992125984251969
        },
        {
          "duration": 0.08333325000000968,
          "durationTicks": 96,
          "midi": 42,
          "name": "F#2",
          "ticks": 105024,
          "time": 91.1665755,
          "velocity": 0.2992125984251969
        },
        {
          "duration": 0.08333324999999547,
          "durationTicks": 96,
          "midi": 42,
          "name": "F#2",
          "ticks": 105216,
          "time": 91.333242,
          "velocity": 0.2992125984251969
        },
        {
          "duration": 0.08333324999999547,
          "durationTicks": 96,
          "midi": 36,
          "name": "C2",
          "ticks": 105216,
          "time": 91.333242,
          "velocity": 0.2992125984251969
        },
        {
          "duration": 0.08333324999999547,
          "durationTicks": 96,
          "midi": 38,
          "name": "D2",
          "ticks": 105408,
          "time": 91.4999085,
          "velocity": 0.2992125984251969
        },
        {
          "duration": 0.08333324999999547,
          "durationTicks": 96,
          "midi": 53,
          "name": "F3",
          "ticks": 105408,
          "time": 91.4999085,
          "velocity": 0.2992125984251969
        },
        {
          "duration": 0.08333324999999547,
          "durationTicks": 96,
          "midi": 40,
          "name": "E2",
          "ticks": 105408,
          "time": 91.4999085,
          "velocity": 0.2992125984251969
        },
        {
          "duration": 0.08333324999999547,
          "durationTicks": 96,
          "midi": 59,
          "name": "B3",
          "ticks": 105408,
          "time": 91.4999085,
          "velocity": 0.2992125984251969
        },
        {
          "duration": 0.08333324999999547,
          "durationTicks": 96,
          "midi": 49,
          "name": "C#3",
          "ticks": 105408,
          "time": 91.4999085,
          "velocity": 0.2992125984251969
        },
        {
          "duration": 0.08333324999999547,
          "durationTicks": 96,
          "midi": 51,
          "name": "D#3",
          "ticks": 105408,
          "time": 91.4999085,
          "velocity": 0.2992125984251969
        },
        {
          "duration": 0.08333324999999547,
          "durationTicks": 96,
          "midi": 42,
          "name": "F#2",
          "ticks": 105408,
          "time": 91.4999085,
          "velocity": 0.2992125984251969
        },
        {
          "duration": 0.08333325000000968,
          "durationTicks": 96,
          "midi": 36,
          "name": "C2",
          "ticks": 105600,
          "time": 91.666575,
          "velocity": 0.2992125984251969
        },
        {
          "duration": 0.08333325000000968,
          "durationTicks": 96,
          "midi": 42,
          "name": "F#2",
          "ticks": 105600,
          "time": 91.666575,
          "velocity": 0.2992125984251969
        },
        {
          "duration": 0.08333324999999547,
          "durationTicks": 96,
          "midi": 42,
          "name": "F#2",
          "ticks": 105792,
          "time": 91.8332415,
          "velocity": 0.2992125984251969
        },
        {
          "duration": 0.08333324999999547,
          "durationTicks": 96,
          "midi": 38,
          "name": "D2",
          "ticks": 105792,
          "time": 91.8332415,
          "velocity": 0.2992125984251969
        },
        {
          "duration": 0.08333324999999547,
          "durationTicks": 96,
          "midi": 40,
          "name": "E2",
          "ticks": 105792,
          "time": 91.8332415,
          "velocity": 0.2992125984251969
        },
        {
          "duration": 0.08333325000000968,
          "durationTicks": 96,
          "midi": 42,
          "name": "F#2",
          "ticks": 105984,
          "time": 91.99990799999999,
          "velocity": 0.2992125984251969
        },
        {
          "duration": 0.08333325000000968,
          "durationTicks": 96,
          "midi": 59,
          "name": "B3",
          "ticks": 105984,
          "time": 91.99990799999999,
          "velocity": 0.2992125984251969
        },
        {
          "duration": 0.08333325000000968,
          "durationTicks": 96,
          "midi": 36,
          "name": "C2",
          "ticks": 105984,
          "time": 91.99990799999999,
          "velocity": 0.2992125984251969
        },
        {
          "duration": 0.08333325000000968,
          "durationTicks": 96,
          "midi": 49,
          "name": "C#3",
          "ticks": 105984,
          "time": 91.99990799999999,
          "velocity": 0.2992125984251969
        },
        {
          "duration": 0.08333325000000968,
          "durationTicks": 96,
          "midi": 51,
          "name": "D#3",
          "ticks": 105984,
          "time": 91.99990799999999,
          "velocity": 0.2992125984251969
        },
        {
          "duration": 0.08333325000000968,
          "durationTicks": 96,
          "midi": 53,
          "name": "F3",
          "ticks": 105984,
          "time": 91.99990799999999,
          "velocity": 0.2992125984251969
        },
        {
          "duration": 0.08333324999999547,
          "durationTicks": 96,
          "midi": 36,
          "name": "C2",
          "ticks": 106176,
          "time": 92.1665745,
          "velocity": 0.2992125984251969
        },
        {
          "duration": 0.08333324999999547,
          "durationTicks": 96,
          "midi": 42,
          "name": "F#2",
          "ticks": 106176,
          "time": 92.1665745,
          "velocity": 0.2992125984251969
        },
        {
          "duration": 0.08333324999999547,
          "durationTicks": 96,
          "midi": 51,
          "name": "D#3",
          "ticks": 106368,
          "time": 92.333241,
          "velocity": 0.2992125984251969
        },
        {
          "duration": 0.08333324999999547,
          "durationTicks": 96,
          "midi": 49,
          "name": "C#3",
          "ticks": 106368,
          "time": 92.333241,
          "velocity": 0.2992125984251969
        },
        {
          "duration": 0.08333324999999547,
          "durationTicks": 96,
          "midi": 59,
          "name": "B3",
          "ticks": 106368,
          "time": 92.333241,
          "velocity": 0.2992125984251969
        },
        {
          "duration": 0.08333324999999547,
          "durationTicks": 96,
          "midi": 38,
          "name": "D2",
          "ticks": 106368,
          "time": 92.333241,
          "velocity": 0.2992125984251969
        },
        {
          "duration": 0.08333324999999547,
          "durationTicks": 96,
          "midi": 40,
          "name": "E2",
          "ticks": 106368,
          "time": 92.333241,
          "velocity": 0.2992125984251969
        },
        {
          "duration": 0.08333324999999547,
          "durationTicks": 96,
          "midi": 42,
          "name": "F#2",
          "ticks": 106368,
          "time": 92.333241,
          "velocity": 0.2992125984251969
        },
        {
          "duration": 0.08333324999999547,
          "durationTicks": 96,
          "midi": 53,
          "name": "F3",
          "ticks": 106368,
          "time": 92.333241,
          "velocity": 0.2992125984251969
        },
        {
          "duration": 0.08333325000000968,
          "durationTicks": 96,
          "midi": 42,
          "name": "F#2",
          "ticks": 106560,
          "time": 92.49990749999999,
          "velocity": 0.2992125984251969
        },
        {
          "duration": 0.08333325000000968,
          "durationTicks": 96,
          "midi": 36,
          "name": "C2",
          "ticks": 106560,
          "time": 92.49990749999999,
          "velocity": 0.2992125984251969
        },
        {
          "duration": 0.08333324999999547,
          "durationTicks": 96,
          "midi": 42,
          "name": "F#2",
          "ticks": 106752,
          "time": 92.666574,
          "velocity": 0.2992125984251969
        },
        {
          "duration": 0.08333324999999547,
          "durationTicks": 96,
          "midi": 36,
          "name": "C2",
          "ticks": 106752,
          "time": 92.666574,
          "velocity": 0.2992125984251969
        },
        {
          "duration": 0.08333324999999547,
          "durationTicks": 96,
          "midi": 49,
          "name": "C#3",
          "ticks": 106944,
          "time": 92.8332405,
          "velocity": 0.2992125984251969
        },
        {
          "duration": 0.08333324999999547,
          "durationTicks": 96,
          "midi": 59,
          "name": "B3",
          "ticks": 106944,
          "time": 92.8332405,
          "velocity": 0.2992125984251969
        },
        {
          "duration": 0.08333324999999547,
          "durationTicks": 96,
          "midi": 42,
          "name": "F#2",
          "ticks": 106944,
          "time": 92.8332405,
          "velocity": 0.2992125984251969
        },
        {
          "duration": 0.08333324999999547,
          "durationTicks": 96,
          "midi": 51,
          "name": "D#3",
          "ticks": 106944,
          "time": 92.8332405,
          "velocity": 0.2992125984251969
        },
        {
          "duration": 0.08333324999999547,
          "durationTicks": 96,
          "midi": 38,
          "name": "D2",
          "ticks": 106944,
          "time": 92.8332405,
          "velocity": 0.2992125984251969
        },
        {
          "duration": 0.08333324999999547,
          "durationTicks": 96,
          "midi": 53,
          "name": "F3",
          "ticks": 106944,
          "time": 92.8332405,
          "velocity": 0.2992125984251969
        },
        {
          "duration": 0.08333324999999547,
          "durationTicks": 96,
          "midi": 40,
          "name": "E2",
          "ticks": 106944,
          "time": 92.8332405,
          "velocity": 0.2992125984251969
        },
        {
          "duration": 0.08333325000000968,
          "durationTicks": 96,
          "midi": 42,
          "name": "F#2",
          "ticks": 107136,
          "time": 92.999907,
          "velocity": 0.2992125984251969
        },
        {
          "duration": 0.08333325000000968,
          "durationTicks": 96,
          "midi": 36,
          "name": "C2",
          "ticks": 107136,
          "time": 92.999907,
          "velocity": 0.2992125984251969
        },
        {
          "duration": 0.08333324999999547,
          "durationTicks": 96,
          "midi": 42,
          "name": "F#2",
          "ticks": 107328,
          "time": 93.1665735,
          "velocity": 0.2992125984251969
        },
        {
          "duration": 0.08333324999999547,
          "durationTicks": 96,
          "midi": 40,
          "name": "E2",
          "ticks": 107328,
          "time": 93.1665735,
          "velocity": 0.2992125984251969
        },
        {
          "duration": 0.08333324999999547,
          "durationTicks": 96,
          "midi": 38,
          "name": "D2",
          "ticks": 107328,
          "time": 93.1665735,
          "velocity": 0.2992125984251969
        },
        {
          "duration": 0.08333324999999547,
          "durationTicks": 96,
          "midi": 51,
          "name": "D#3",
          "ticks": 107520,
          "time": 93.33324,
          "velocity": 0.2992125984251969
        },
        {
          "duration": 0.08333324999999547,
          "durationTicks": 96,
          "midi": 49,
          "name": "C#3",
          "ticks": 107520,
          "time": 93.33324,
          "velocity": 0.2992125984251969
        },
        {
          "duration": 0.08333324999999547,
          "durationTicks": 96,
          "midi": 36,
          "name": "C2",
          "ticks": 107520,
          "time": 93.33324,
          "velocity": 0.2992125984251969
        },
        {
          "duration": 0.08333324999999547,
          "durationTicks": 96,
          "midi": 42,
          "name": "F#2",
          "ticks": 107520,
          "time": 93.33324,
          "velocity": 0.2992125984251969
        },
        {
          "duration": 0.08333324999999547,
          "durationTicks": 96,
          "midi": 53,
          "name": "F3",
          "ticks": 107520,
          "time": 93.33324,
          "velocity": 0.2992125984251969
        },
        {
          "duration": 0.08333324999999547,
          "durationTicks": 96,
          "midi": 59,
          "name": "B3",
          "ticks": 107520,
          "time": 93.33324,
          "velocity": 0.2992125984251969
        },
        {
          "duration": 0.08333325000000968,
          "durationTicks": 96,
          "midi": 36,
          "name": "C2",
          "ticks": 107712,
          "time": 93.4999065,
          "velocity": 0.2992125984251969
        },
        {
          "duration": 0.08333325000000968,
          "durationTicks": 96,
          "midi": 42,
          "name": "F#2",
          "ticks": 107712,
          "time": 93.4999065,
          "velocity": 0.2992125984251969
        },
        {
          "duration": 0.08333324999999547,
          "durationTicks": 96,
          "midi": 59,
          "name": "B3",
          "ticks": 107904,
          "time": 93.666573,
          "velocity": 0.2992125984251969
        },
        {
          "duration": 0.08333324999999547,
          "durationTicks": 96,
          "midi": 53,
          "name": "F3",
          "ticks": 107904,
          "time": 93.666573,
          "velocity": 0.2992125984251969
        },
        {
          "duration": 0.08333324999999547,
          "durationTicks": 96,
          "midi": 40,
          "name": "E2",
          "ticks": 107904,
          "time": 93.666573,
          "velocity": 0.2992125984251969
        },
        {
          "duration": 0.08333324999999547,
          "durationTicks": 96,
          "midi": 42,
          "name": "F#2",
          "ticks": 107904,
          "time": 93.666573,
          "velocity": 0.2992125984251969
        },
        {
          "duration": 0.08333324999999547,
          "durationTicks": 96,
          "midi": 49,
          "name": "C#3",
          "ticks": 107904,
          "time": 93.666573,
          "velocity": 0.2992125984251969
        },
        {
          "duration": 0.08333324999999547,
          "durationTicks": 96,
          "midi": 38,
          "name": "D2",
          "ticks": 107904,
          "time": 93.666573,
          "velocity": 0.2992125984251969
        },
        {
          "duration": 0.08333324999999547,
          "durationTicks": 96,
          "midi": 51,
          "name": "D#3",
          "ticks": 107904,
          "time": 93.666573,
          "velocity": 0.2992125984251969
        },
        {
          "duration": 0.08333325000000968,
          "durationTicks": 96,
          "midi": 36,
          "name": "C2",
          "ticks": 108096,
          "time": 93.83323949999999,
          "velocity": 0.2992125984251969
        },
        {
          "duration": 0.08333325000000968,
          "durationTicks": 96,
          "midi": 42,
          "name": "F#2",
          "ticks": 108096,
          "time": 93.83323949999999,
          "velocity": 0.2992125984251969
        },
        {
          "duration": 0.08333324999999547,
          "durationTicks": 96,
          "midi": 36,
          "name": "C2",
          "ticks": 108288,
          "time": 93.999906,
          "velocity": 0.2992125984251969
        },
        {
          "duration": 0.08333324999999547,
          "durationTicks": 96,
          "midi": 42,
          "name": "F#2",
          "ticks": 108288,
          "time": 93.999906,
          "velocity": 0.2992125984251969
        },
        {
          "duration": 0.08333324999999547,
          "durationTicks": 96,
          "midi": 49,
          "name": "C#3",
          "ticks": 108480,
          "time": 94.1665725,
          "velocity": 0.2992125984251969
        },
        {
          "duration": 0.08333324999999547,
          "durationTicks": 96,
          "midi": 40,
          "name": "E2",
          "ticks": 108480,
          "time": 94.1665725,
          "velocity": 0.2992125984251969
        },
        {
          "duration": 0.08333324999999547,
          "durationTicks": 96,
          "midi": 53,
          "name": "F3",
          "ticks": 108480,
          "time": 94.1665725,
          "velocity": 0.2992125984251969
        },
        {
          "duration": 0.08333324999999547,
          "durationTicks": 96,
          "midi": 59,
          "name": "B3",
          "ticks": 108480,
          "time": 94.1665725,
          "velocity": 0.2992125984251969
        },
        {
          "duration": 0.08333324999999547,
          "durationTicks": 96,
          "midi": 38,
          "name": "D2",
          "ticks": 108480,
          "time": 94.1665725,
          "velocity": 0.2992125984251969
        },
        {
          "duration": 0.08333324999999547,
          "durationTicks": 96,
          "midi": 51,
          "name": "D#3",
          "ticks": 108480,
          "time": 94.1665725,
          "velocity": 0.2992125984251969
        },
        {
          "duration": 0.08333324999999547,
          "durationTicks": 96,
          "midi": 42,
          "name": "F#2",
          "ticks": 108480,
          "time": 94.1665725,
          "velocity": 0.2992125984251969
        },
        {
          "duration": 0.08333325000000968,
          "durationTicks": 96,
          "midi": 42,
          "name": "F#2",
          "ticks": 108672,
          "time": 94.33323899999999,
          "velocity": 0.2992125984251969
        },
        {
          "duration": 0.08333325000000968,
          "durationTicks": 96,
          "midi": 36,
          "name": "C2",
          "ticks": 108672,
          "time": 94.33323899999999,
          "velocity": 0.2992125984251969
        },
        {
          "duration": 0.08333324999999547,
          "durationTicks": 96,
          "midi": 40,
          "name": "E2",
          "ticks": 108864,
          "time": 94.4999055,
          "velocity": 0.2992125984251969
        },
        {
          "duration": 0.08333324999999547,
          "durationTicks": 96,
          "midi": 38,
          "name": "D2",
          "ticks": 108864,
          "time": 94.4999055,
          "velocity": 0.2992125984251969
        },
        {
          "duration": 0.08333324999999547,
          "durationTicks": 96,
          "midi": 42,
          "name": "F#2",
          "ticks": 108864,
          "time": 94.4999055,
          "velocity": 0.2992125984251969
        },
        {
          "duration": 0.08333324999999547,
          "durationTicks": 96,
          "midi": 36,
          "name": "C2",
          "ticks": 109056,
          "time": 94.666572,
          "velocity": 0.2992125984251969
        },
        {
          "duration": 0.08333324999999547,
          "durationTicks": 96,
          "midi": 49,
          "name": "C#3",
          "ticks": 109056,
          "time": 94.666572,
          "velocity": 0.2992125984251969
        },
        {
          "duration": 0.08333324999999547,
          "durationTicks": 96,
          "midi": 59,
          "name": "B3",
          "ticks": 109056,
          "time": 94.666572,
          "velocity": 0.2992125984251969
        },
        {
          "duration": 0.08333324999999547,
          "durationTicks": 96,
          "midi": 51,
          "name": "D#3",
          "ticks": 109056,
          "time": 94.666572,
          "velocity": 0.2992125984251969
        },
        {
          "duration": 0.08333324999999547,
          "durationTicks": 96,
          "midi": 42,
          "name": "F#2",
          "ticks": 109056,
          "time": 94.666572,
          "velocity": 0.2992125984251969
        },
        {
          "duration": 0.08333324999999547,
          "durationTicks": 96,
          "midi": 53,
          "name": "F3",
          "ticks": 109056,
          "time": 94.666572,
          "velocity": 0.2992125984251969
        },
        {
          "duration": 0.08333325000000968,
          "durationTicks": 96,
          "midi": 42,
          "name": "F#2",
          "ticks": 109248,
          "time": 94.8332385,
          "velocity": 0.2992125984251969
        },
        {
          "duration": 0.08333325000000968,
          "durationTicks": 96,
          "midi": 36,
          "name": "C2",
          "ticks": 109248,
          "time": 94.8332385,
          "velocity": 0.2992125984251969
        },
        {
          "duration": 0.08333324999999547,
          "durationTicks": 96,
          "midi": 51,
          "name": "D#3",
          "ticks": 109440,
          "time": 94.999905,
          "velocity": 0.2992125984251969
        },
        {
          "duration": 0.08333324999999547,
          "durationTicks": 96,
          "midi": 59,
          "name": "B3",
          "ticks": 109440,
          "time": 94.999905,
          "velocity": 0.2992125984251969
        },
        {
          "duration": 0.08333324999999547,
          "durationTicks": 96,
          "midi": 38,
          "name": "D2",
          "ticks": 109440,
          "time": 94.999905,
          "velocity": 0.2992125984251969
        },
        {
          "duration": 0.08333324999999547,
          "durationTicks": 96,
          "midi": 40,
          "name": "E2",
          "ticks": 109440,
          "time": 94.999905,
          "velocity": 0.2992125984251969
        },
        {
          "duration": 0.08333324999999547,
          "durationTicks": 96,
          "midi": 42,
          "name": "F#2",
          "ticks": 109440,
          "time": 94.999905,
          "velocity": 0.2992125984251969
        },
        {
          "duration": 0.08333324999999547,
          "durationTicks": 96,
          "midi": 49,
          "name": "C#3",
          "ticks": 109440,
          "time": 94.999905,
          "velocity": 0.2992125984251969
        },
        {
          "duration": 0.08333324999999547,
          "durationTicks": 96,
          "midi": 53,
          "name": "F3",
          "ticks": 109440,
          "time": 94.999905,
          "velocity": 0.2992125984251969
        },
        {
          "duration": 0.08333324999999547,
          "durationTicks": 96,
          "midi": 36,
          "name": "C2",
          "ticks": 109632,
          "time": 95.1665715,
          "velocity": 0.2992125984251969
        },
        {
          "duration": 0.08333324999999547,
          "durationTicks": 96,
          "midi": 42,
          "name": "F#2",
          "ticks": 109632,
          "time": 95.1665715,
          "velocity": 0.2992125984251969
        },
        {
          "duration": 0.08333325000000968,
          "durationTicks": 96,
          "midi": 42,
          "name": "F#2",
          "ticks": 109824,
          "time": 95.333238,
          "velocity": 0.2992125984251969
        },
        {
          "duration": 0.08333325000000968,
          "durationTicks": 96,
          "midi": 36,
          "name": "C2",
          "ticks": 109824,
          "time": 95.333238,
          "velocity": 0.2992125984251969
        },
        {
          "duration": 0.08333324999999547,
          "durationTicks": 96,
          "midi": 51,
          "name": "D#3",
          "ticks": 110016,
          "time": 95.4999045,
          "velocity": 0.2992125984251969
        },
        {
          "duration": 0.08333324999999547,
          "durationTicks": 96,
          "midi": 59,
          "name": "B3",
          "ticks": 110016,
          "time": 95.4999045,
          "velocity": 0.2992125984251969
        },
        {
          "duration": 0.08333324999999547,
          "durationTicks": 96,
          "midi": 42,
          "name": "F#2",
          "ticks": 110016,
          "time": 95.4999045,
          "velocity": 0.2992125984251969
        },
        {
          "duration": 0.08333324999999547,
          "durationTicks": 96,
          "midi": 49,
          "name": "C#3",
          "ticks": 110016,
          "time": 95.4999045,
          "velocity": 0.2992125984251969
        },
        {
          "duration": 0.08333324999999547,
          "durationTicks": 96,
          "midi": 40,
          "name": "E2",
          "ticks": 110016,
          "time": 95.4999045,
          "velocity": 0.2992125984251969
        },
        {
          "duration": 0.08333324999999547,
          "durationTicks": 96,
          "midi": 38,
          "name": "D2",
          "ticks": 110016,
          "time": 95.4999045,
          "velocity": 0.2992125984251969
        },
        {
          "duration": 0.08333324999999547,
          "durationTicks": 96,
          "midi": 53,
          "name": "F3",
          "ticks": 110016,
          "time": 95.4999045,
          "velocity": 0.2992125984251969
        },
        {
          "duration": 0.08333325000000968,
          "durationTicks": 96,
          "midi": 42,
          "name": "F#2",
          "ticks": 110208,
          "time": 95.66657099999999,
          "velocity": 0.2992125984251969
        },
        {
          "duration": 0.08333325000000968,
          "durationTicks": 96,
          "midi": 36,
          "name": "C2",
          "ticks": 110208,
          "time": 95.66657099999999,
          "velocity": 0.2992125984251969
        },
        {
          "duration": 0.08333324999999547,
          "durationTicks": 96,
          "midi": 40,
          "name": "E2",
          "ticks": 110400,
          "time": 95.8332375,
          "velocity": 0.2992125984251969
        },
        {
          "duration": 0.08333324999999547,
          "durationTicks": 96,
          "midi": 42,
          "name": "F#2",
          "ticks": 110400,
          "time": 95.8332375,
          "velocity": 0.2992125984251969
        },
        {
          "duration": 0.08333324999999547,
          "durationTicks": 96,
          "midi": 38,
          "name": "D2",
          "ticks": 110400,
          "time": 95.8332375,
          "velocity": 0.2992125984251969
        },
        {
          "duration": 0.08333324999999547,
          "durationTicks": 96,
          "midi": 36,
          "name": "C2",
          "ticks": 110592,
          "time": 95.999904,
          "velocity": 0.2992125984251969
        },
        {
          "duration": 0.08333324999999547,
          "durationTicks": 96,
          "midi": 51,
          "name": "D#3",
          "ticks": 110592,
          "time": 95.999904,
          "velocity": 0.2992125984251969
        },
        {
          "duration": 0.08333324999999547,
          "durationTicks": 96,
          "midi": 49,
          "name": "C#3",
          "ticks": 110592,
          "time": 95.999904,
          "velocity": 0.2992125984251969
        },
        {
          "duration": 0.08333324999999547,
          "durationTicks": 96,
          "midi": 42,
          "name": "F#2",
          "ticks": 110592,
          "time": 95.999904,
          "velocity": 0.2992125984251969
        },
        {
          "duration": 0.08333324999999547,
          "durationTicks": 96,
          "midi": 59,
          "name": "B3",
          "ticks": 110592,
          "time": 95.999904,
          "velocity": 0.2992125984251969
        },
        {
          "duration": 0.08333324999999547,
          "durationTicks": 96,
          "midi": 53,
          "name": "F3",
          "ticks": 110592,
          "time": 95.999904,
          "velocity": 0.2992125984251969
        },
        {
          "duration": 0.08333325000000968,
          "durationTicks": 96,
          "midi": 36,
          "name": "C2",
          "ticks": 110784,
          "time": 96.16657049999999,
          "velocity": 0.2992125984251969
        },
        {
          "duration": 0.08333325000000968,
          "durationTicks": 96,
          "midi": 42,
          "name": "F#2",
          "ticks": 110784,
          "time": 96.16657049999999,
          "velocity": 0.2992125984251969
        },
        {
          "duration": 0.08333324999999547,
          "durationTicks": 96,
          "midi": 59,
          "name": "B3",
          "ticks": 110976,
          "time": 96.333237,
          "velocity": 0.2992125984251969
        },
        {
          "duration": 0.08333324999999547,
          "durationTicks": 96,
          "midi": 42,
          "name": "F#2",
          "ticks": 110976,
          "time": 96.333237,
          "velocity": 0.2992125984251969
        },
        {
          "duration": 0.08333324999999547,
          "durationTicks": 96,
          "midi": 51,
          "name": "D#3",
          "ticks": 110976,
          "time": 96.333237,
          "velocity": 0.2992125984251969
        },
        {
          "duration": 0.08333324999999547,
          "durationTicks": 96,
          "midi": 49,
          "name": "C#3",
          "ticks": 110976,
          "time": 96.333237,
          "velocity": 0.2992125984251969
        },
        {
          "duration": 0.08333324999999547,
          "durationTicks": 96,
          "midi": 53,
          "name": "F3",
          "ticks": 110976,
          "time": 96.333237,
          "velocity": 0.2992125984251969
        },
        {
          "duration": 0.08333324999999547,
          "durationTicks": 96,
          "midi": 40,
          "name": "E2",
          "ticks": 110976,
          "time": 96.333237,
          "velocity": 0.2992125984251969
        },
        {
          "duration": 0.08333324999999547,
          "durationTicks": 96,
          "midi": 38,
          "name": "D2",
          "ticks": 110976,
          "time": 96.333237,
          "velocity": 0.2992125984251969
        },
        {
          "duration": 0.08333324999999547,
          "durationTicks": 96,
          "midi": 36,
          "name": "C2",
          "ticks": 111168,
          "time": 96.4999035,
          "velocity": 0.2992125984251969
        },
        {
          "duration": 0.08333324999999547,
          "durationTicks": 96,
          "midi": 42,
          "name": "F#2",
          "ticks": 111168,
          "time": 96.4999035,
          "velocity": 0.2992125984251969
        },
        {
          "duration": 0.08333325000000968,
          "durationTicks": 96,
          "midi": 42,
          "name": "F#2",
          "ticks": 111360,
          "time": 96.66657,
          "velocity": 0.2992125984251969
        },
        {
          "duration": 0.08333325000000968,
          "durationTicks": 96,
          "midi": 36,
          "name": "C2",
          "ticks": 111360,
          "time": 96.66657,
          "velocity": 0.2992125984251969
        },
        {
          "duration": 0.08333324999999547,
          "durationTicks": 96,
          "midi": 59,
          "name": "B3",
          "ticks": 111552,
          "time": 96.8332365,
          "velocity": 0.2992125984251969
        },
        {
          "duration": 0.08333324999999547,
          "durationTicks": 96,
          "midi": 40,
          "name": "E2",
          "ticks": 111552,
          "time": 96.8332365,
          "velocity": 0.2992125984251969
        },
        {
          "duration": 0.08333324999999547,
          "durationTicks": 96,
          "midi": 51,
          "name": "D#3",
          "ticks": 111552,
          "time": 96.8332365,
          "velocity": 0.2992125984251969
        },
        {
          "duration": 0.08333324999999547,
          "durationTicks": 96,
          "midi": 49,
          "name": "C#3",
          "ticks": 111552,
          "time": 96.8332365,
          "velocity": 0.2992125984251969
        },
        {
          "duration": 0.08333324999999547,
          "durationTicks": 96,
          "midi": 42,
          "name": "F#2",
          "ticks": 111552,
          "time": 96.8332365,
          "velocity": 0.2992125984251969
        },
        {
          "duration": 0.08333324999999547,
          "durationTicks": 96,
          "midi": 38,
          "name": "D2",
          "ticks": 111552,
          "time": 96.8332365,
          "velocity": 0.2992125984251969
        },
        {
          "duration": 0.08333324999999547,
          "durationTicks": 96,
          "midi": 53,
          "name": "F3",
          "ticks": 111552,
          "time": 96.8332365,
          "velocity": 0.2992125984251969
        },
        {
          "duration": 0.08333324999999547,
          "durationTicks": 96,
          "midi": 36,
          "name": "C2",
          "ticks": 111744,
          "time": 96.999903,
          "velocity": 0.2992125984251969
        },
        {
          "duration": 0.08333324999999547,
          "durationTicks": 96,
          "midi": 42,
          "name": "F#2",
          "ticks": 111744,
          "time": 96.999903,
          "velocity": 0.2992125984251969
        },
        {
          "duration": 0.08333325000000968,
          "durationTicks": 96,
          "midi": 42,
          "name": "F#2",
          "ticks": 111936,
          "time": 97.1665695,
          "velocity": 0.2992125984251969
        },
        {
          "duration": 0.08333325000000968,
          "durationTicks": 96,
          "midi": 40,
          "name": "E2",
          "ticks": 111936,
          "time": 97.1665695,
          "velocity": 0.2992125984251969
        },
        {
          "duration": 0.08333325000000968,
          "durationTicks": 96,
          "midi": 38,
          "name": "D2",
          "ticks": 111936,
          "time": 97.1665695,
          "velocity": 0.2992125984251969
        },
        {
          "duration": 0.08333324999999547,
          "durationTicks": 96,
          "midi": 51,
          "name": "D#3",
          "ticks": 112128,
          "time": 97.333236,
          "velocity": 0.2992125984251969
        },
        {
          "duration": 0.08333324999999547,
          "durationTicks": 96,
          "midi": 36,
          "name": "C2",
          "ticks": 112128,
          "time": 97.333236,
          "velocity": 0.2992125984251969
        },
        {
          "duration": 0.08333324999999547,
          "durationTicks": 96,
          "midi": 59,
          "name": "B3",
          "ticks": 112128,
          "time": 97.333236,
          "velocity": 0.2992125984251969
        },
        {
          "duration": 0.08333324999999547,
          "durationTicks": 96,
          "midi": 42,
          "name": "F#2",
          "ticks": 112128,
          "time": 97.333236,
          "velocity": 0.2992125984251969
        },
        {
          "duration": 0.08333324999999547,
          "durationTicks": 96,
          "midi": 49,
          "name": "C#3",
          "ticks": 112128,
          "time": 97.333236,
          "velocity": 0.2992125984251969
        },
        {
          "duration": 0.08333324999999547,
          "durationTicks": 96,
          "midi": 53,
          "name": "F3",
          "ticks": 112128,
          "time": 97.333236,
          "velocity": 0.2992125984251969
        },
        {
          "duration": 0.08333325000000968,
          "durationTicks": 96,
          "midi": 36,
          "name": "C2",
          "ticks": 112320,
          "time": 97.49990249999999,
          "velocity": 0.2992125984251969
        },
        {
          "duration": 0.08333325000000968,
          "durationTicks": 96,
          "midi": 42,
          "name": "F#2",
          "ticks": 112320,
          "time": 97.49990249999999,
          "velocity": 0.2992125984251969
        },
        {
          "duration": 0.08333324999999547,
          "durationTicks": 96,
          "midi": 42,
          "name": "F#2",
          "ticks": 112512,
          "time": 97.666569,
          "velocity": 0.2992125984251969
        },
        {
          "duration": 0.08333324999999547,
          "durationTicks": 96,
          "midi": 49,
          "name": "C#3",
          "ticks": 112512,
          "time": 97.666569,
          "velocity": 0.2992125984251969
        },
        {
          "duration": 0.08333324999999547,
          "durationTicks": 96,
          "midi": 38,
          "name": "D2",
          "ticks": 112512,
          "time": 97.666569,
          "velocity": 0.2992125984251969
        },
        {
          "duration": 0.08333324999999547,
          "durationTicks": 96,
          "midi": 53,
          "name": "F3",
          "ticks": 112512,
          "time": 97.666569,
          "velocity": 0.2992125984251969
        },
        {
          "duration": 0.08333324999999547,
          "durationTicks": 96,
          "midi": 51,
          "name": "D#3",
          "ticks": 112512,
          "time": 97.666569,
          "velocity": 0.2992125984251969
        },
        {
          "duration": 0.08333324999999547,
          "durationTicks": 96,
          "midi": 59,
          "name": "B3",
          "ticks": 112512,
          "time": 97.666569,
          "velocity": 0.2992125984251969
        },
        {
          "duration": 0.08333324999999547,
          "durationTicks": 96,
          "midi": 40,
          "name": "E2",
          "ticks": 112512,
          "time": 97.666569,
          "velocity": 0.2992125984251969
        },
        {
          "duration": 0.08333324999999547,
          "durationTicks": 96,
          "midi": 36,
          "name": "C2",
          "ticks": 112704,
          "time": 97.8332355,
          "velocity": 0.2992125984251969
        },
        {
          "duration": 0.08333324999999547,
          "durationTicks": 96,
          "midi": 42,
          "name": "F#2",
          "ticks": 112704,
          "time": 97.8332355,
          "velocity": 0.2992125984251969
        },
        {
          "duration": 0.08333325000000968,
          "durationTicks": 96,
          "midi": 42,
          "name": "F#2",
          "ticks": 112896,
          "time": 97.99990199999999,
          "velocity": 0.2992125984251969
        },
        {
          "duration": 0.08333325000000968,
          "durationTicks": 96,
          "midi": 36,
          "name": "C2",
          "ticks": 112896,
          "time": 97.99990199999999,
          "velocity": 0.2992125984251969
        },
        {
          "duration": 0.08333324999999547,
          "durationTicks": 96,
          "midi": 40,
          "name": "E2",
          "ticks": 113088,
          "time": 98.1665685,
          "velocity": 0.2992125984251969
        },
        {
          "duration": 0.08333324999999547,
          "durationTicks": 96,
          "midi": 51,
          "name": "D#3",
          "ticks": 113088,
          "time": 98.1665685,
          "velocity": 0.2992125984251969
        },
        {
          "duration": 0.08333324999999547,
          "durationTicks": 96,
          "midi": 59,
          "name": "B3",
          "ticks": 113088,
          "time": 98.1665685,
          "velocity": 0.2992125984251969
        },
        {
          "duration": 0.08333324999999547,
          "durationTicks": 96,
          "midi": 38,
          "name": "D2",
          "ticks": 113088,
          "time": 98.1665685,
          "velocity": 0.2992125984251969
        },
        {
          "duration": 0.08333324999999547,
          "durationTicks": 96,
          "midi": 53,
          "name": "F3",
          "ticks": 113088,
          "time": 98.1665685,
          "velocity": 0.2992125984251969
        },
        {
          "duration": 0.08333324999999547,
          "durationTicks": 96,
          "midi": 42,
          "name": "F#2",
          "ticks": 113088,
          "time": 98.1665685,
          "velocity": 0.2992125984251969
        },
        {
          "duration": 0.08333324999999547,
          "durationTicks": 96,
          "midi": 49,
          "name": "C#3",
          "ticks": 113088,
          "time": 98.1665685,
          "velocity": 0.2992125984251969
        },
        {
          "duration": 0.08333324999999547,
          "durationTicks": 96,
          "midi": 42,
          "name": "F#2",
          "ticks": 113280,
          "time": 98.333235,
          "velocity": 0.2992125984251969
        },
        {
          "duration": 0.08333324999999547,
          "durationTicks": 96,
          "midi": 36,
          "name": "C2",
          "ticks": 113280,
          "time": 98.333235,
          "velocity": 0.2992125984251969
        },
        {
          "duration": 0.08333325000000968,
          "durationTicks": 96,
          "midi": 42,
          "name": "F#2",
          "ticks": 113472,
          "time": 98.49990149999999,
          "velocity": 0.2992125984251969
        },
        {
          "duration": 0.08333325000000968,
          "durationTicks": 96,
          "midi": 40,
          "name": "E2",
          "ticks": 113472,
          "time": 98.49990149999999,
          "velocity": 0.2992125984251969
        },
        {
          "duration": 0.08333325000000968,
          "durationTicks": 96,
          "midi": 38,
          "name": "D2",
          "ticks": 113472,
          "time": 98.49990149999999,
          "velocity": 0.2992125984251969
        },
        {
          "duration": 0.08333324999999547,
          "durationTicks": 96,
          "midi": 49,
          "name": "C#3",
          "ticks": 113664,
          "time": 98.666568,
          "velocity": 0.2992125984251969
        },
        {
          "duration": 0.08333324999999547,
          "durationTicks": 96,
          "midi": 51,
          "name": "D#3",
          "ticks": 113664,
          "time": 98.666568,
          "velocity": 0.2992125984251969
        },
        {
          "duration": 0.08333324999999547,
          "durationTicks": 96,
          "midi": 36,
          "name": "C2",
          "ticks": 113664,
          "time": 98.666568,
          "velocity": 0.2992125984251969
        },
        {
          "duration": 0.08333324999999547,
          "durationTicks": 96,
          "midi": 42,
          "name": "F#2",
          "ticks": 113664,
          "time": 98.666568,
          "velocity": 0.2992125984251969
        },
        {
          "duration": 0.08333324999999547,
          "durationTicks": 96,
          "midi": 53,
          "name": "F3",
          "ticks": 113664,
          "time": 98.666568,
          "velocity": 0.2992125984251969
        },
        {
          "duration": 0.08333324999999547,
          "durationTicks": 96,
          "midi": 59,
          "name": "B3",
          "ticks": 113664,
          "time": 98.666568,
          "velocity": 0.2992125984251969
        },
        {
          "duration": 0.08333324999999547,
          "durationTicks": 96,
          "midi": 42,
          "name": "F#2",
          "ticks": 113856,
          "time": 98.8332345,
          "velocity": 0.2992125984251969
        },
        {
          "duration": 0.08333324999999547,
          "durationTicks": 96,
          "midi": 36,
          "name": "C2",
          "ticks": 113856,
          "time": 98.8332345,
          "velocity": 0.2992125984251969
        },
        {
          "duration": 0.08333325000000968,
          "durationTicks": 96,
          "midi": 42,
          "name": "F#2",
          "ticks": 114048,
          "time": 98.999901,
          "velocity": 0.2992125984251969
        },
        {
          "duration": 0.08333325000000968,
          "durationTicks": 96,
          "midi": 49,
          "name": "C#3",
          "ticks": 114048,
          "time": 98.999901,
          "velocity": 0.2992125984251969
        },
        {
          "duration": 0.08333325000000968,
          "durationTicks": 96,
          "midi": 53,
          "name": "F3",
          "ticks": 114048,
          "time": 98.999901,
          "velocity": 0.2992125984251969
        },
        {
          "duration": 0.08333325000000968,
          "durationTicks": 96,
          "midi": 38,
          "name": "D2",
          "ticks": 114048,
          "time": 98.999901,
          "velocity": 0.2992125984251969
        },
        {
          "duration": 0.08333325000000968,
          "durationTicks": 96,
          "midi": 51,
          "name": "D#3",
          "ticks": 114048,
          "time": 98.999901,
          "velocity": 0.2992125984251969
        },
        {
          "duration": 0.08333325000000968,
          "durationTicks": 96,
          "midi": 40,
          "name": "E2",
          "ticks": 114048,
          "time": 98.999901,
          "velocity": 0.2992125984251969
        },
        {
          "duration": 0.08333325000000968,
          "durationTicks": 96,
          "midi": 59,
          "name": "B3",
          "ticks": 114048,
          "time": 98.999901,
          "velocity": 0.2992125984251969
        },
        {
          "duration": 0.08333324999999547,
          "durationTicks": 96,
          "midi": 42,
          "name": "F#2",
          "ticks": 114240,
          "time": 99.1665675,
          "velocity": 0.2992125984251969
        },
        {
          "duration": 0.08333324999999547,
          "durationTicks": 96,
          "midi": 36,
          "name": "C2",
          "ticks": 114240,
          "time": 99.1665675,
          "velocity": 0.2992125984251969
        },
        {
          "duration": 0.08333325000000968,
          "durationTicks": 96,
          "midi": 42,
          "name": "F#2",
          "ticks": 114432,
          "time": 99.33323399999999,
          "velocity": 0.2992125984251969
        },
        {
          "duration": 0.08333325000000968,
          "durationTicks": 96,
          "midi": 36,
          "name": "C2",
          "ticks": 114432,
          "time": 99.33323399999999,
          "velocity": 0.2992125984251969
        },
        {
          "duration": 0.08333324999999547,
          "durationTicks": 96,
          "midi": 42,
          "name": "F#2",
          "ticks": 114624,
          "time": 99.4999005,
          "velocity": 0.2992125984251969
        },
        {
          "duration": 0.08333324999999547,
          "durationTicks": 96,
          "midi": 38,
          "name": "D2",
          "ticks": 114624,
          "time": 99.4999005,
          "velocity": 0.2992125984251969
        },
        {
          "duration": 0.08333324999999547,
          "durationTicks": 96,
          "midi": 49,
          "name": "C#3",
          "ticks": 114624,
          "time": 99.4999005,
          "velocity": 0.2992125984251969
        },
        {
          "duration": 0.08333324999999547,
          "durationTicks": 96,
          "midi": 51,
          "name": "D#3",
          "ticks": 114624,
          "time": 99.4999005,
          "velocity": 0.2992125984251969
        },
        {
          "duration": 0.08333324999999547,
          "durationTicks": 96,
          "midi": 59,
          "name": "B3",
          "ticks": 114624,
          "time": 99.4999005,
          "velocity": 0.2992125984251969
        },
        {
          "duration": 0.08333324999999547,
          "durationTicks": 96,
          "midi": 40,
          "name": "E2",
          "ticks": 114624,
          "time": 99.4999005,
          "velocity": 0.2992125984251969
        },
        {
          "duration": 0.08333324999999547,
          "durationTicks": 96,
          "midi": 53,
          "name": "F3",
          "ticks": 114624,
          "time": 99.4999005,
          "velocity": 0.2992125984251969
        },
        {
          "duration": 0.08333324999999547,
          "durationTicks": 96,
          "midi": 36,
          "name": "C2",
          "ticks": 114816,
          "time": 99.666567,
          "velocity": 0.2992125984251969
        },
        {
          "duration": 0.08333324999999547,
          "durationTicks": 96,
          "midi": 42,
          "name": "F#2",
          "ticks": 114816,
          "time": 99.666567,
          "velocity": 0.2992125984251969
        },
        {
          "duration": 0.08333325000000968,
          "durationTicks": 96,
          "midi": 38,
          "name": "D2",
          "ticks": 115008,
          "time": 99.83323349999999,
          "velocity": 0.2992125984251969
        },
        {
          "duration": 0.08333325000000968,
          "durationTicks": 96,
          "midi": 42,
          "name": "F#2",
          "ticks": 115008,
          "time": 99.83323349999999,
          "velocity": 0.2992125984251969
        },
        {
          "duration": 0.08333325000000968,
          "durationTicks": 96,
          "midi": 40,
          "name": "E2",
          "ticks": 115008,
          "time": 99.83323349999999,
          "velocity": 0.2992125984251969
        },
        {
          "duration": 0.08333324999999547,
          "durationTicks": 96,
          "midi": 59,
          "name": "B3",
          "ticks": 115200,
          "time": 99.9999,
          "velocity": 0.2992125984251969
        },
        {
          "duration": 0.08333324999999547,
          "durationTicks": 96,
          "midi": 51,
          "name": "D#3",
          "ticks": 115200,
          "time": 99.9999,
          "velocity": 0.2992125984251969
        },
        {
          "duration": 0.08333324999999547,
          "durationTicks": 96,
          "midi": 42,
          "name": "F#2",
          "ticks": 115200,
          "time": 99.9999,
          "velocity": 0.2992125984251969
        },
        {
          "duration": 0.08333324999999547,
          "durationTicks": 96,
          "midi": 53,
          "name": "F3",
          "ticks": 115200,
          "time": 99.9999,
          "velocity": 0.2992125984251969
        },
        {
          "duration": 0.08333324999999547,
          "durationTicks": 96,
          "midi": 36,
          "name": "C2",
          "ticks": 115200,
          "time": 99.9999,
          "velocity": 0.2992125984251969
        },
        {
          "duration": 0.08333324999999547,
          "durationTicks": 96,
          "midi": 49,
          "name": "C#3",
          "ticks": 115200,
          "time": 99.9999,
          "velocity": 0.2992125984251969
        },
        {
          "duration": 0.08333324999999547,
          "durationTicks": 96,
          "midi": 36,
          "name": "C2",
          "ticks": 115392,
          "time": 100.1665665,
          "velocity": 0.2992125984251969
        },
        {
          "duration": 0.08333324999999547,
          "durationTicks": 96,
          "midi": 42,
          "name": "F#2",
          "ticks": 115392,
          "time": 100.1665665,
          "velocity": 0.2992125984251969
        },
        {
          "duration": 0.08333325000000968,
          "durationTicks": 96,
          "midi": 49,
          "name": "C#3",
          "ticks": 115584,
          "time": 100.33323299999999,
          "velocity": 0.2992125984251969
        },
        {
          "duration": 0.08333325000000968,
          "durationTicks": 96,
          "midi": 53,
          "name": "F3",
          "ticks": 115584,
          "time": 100.33323299999999,
          "velocity": 0.2992125984251969
        },
        {
          "duration": 0.08333325000000968,
          "durationTicks": 96,
          "midi": 59,
          "name": "B3",
          "ticks": 115584,
          "time": 100.33323299999999,
          "velocity": 0.2992125984251969
        },
        {
          "duration": 0.08333325000000968,
          "durationTicks": 96,
          "midi": 40,
          "name": "E2",
          "ticks": 115584,
          "time": 100.33323299999999,
          "velocity": 0.2992125984251969
        },
        {
          "duration": 0.08333325000000968,
          "durationTicks": 96,
          "midi": 51,
          "name": "D#3",
          "ticks": 115584,
          "time": 100.33323299999999,
          "velocity": 0.2992125984251969
        },
        {
          "duration": 0.08333325000000968,
          "durationTicks": 96,
          "midi": 38,
          "name": "D2",
          "ticks": 115584,
          "time": 100.33323299999999,
          "velocity": 0.2992125984251969
        },
        {
          "duration": 0.08333325000000968,
          "durationTicks": 96,
          "midi": 42,
          "name": "F#2",
          "ticks": 115584,
          "time": 100.33323299999999,
          "velocity": 0.2992125984251969
        },
        {
          "duration": 0.08333324999999547,
          "durationTicks": 96,
          "midi": 42,
          "name": "F#2",
          "ticks": 115776,
          "time": 100.4998995,
          "velocity": 0.2992125984251969
        },
        {
          "duration": 0.08333324999999547,
          "durationTicks": 96,
          "midi": 36,
          "name": "C2",
          "ticks": 115776,
          "time": 100.4998995,
          "velocity": 0.2992125984251969
        },
        {
          "duration": 0.08333324999999547,
          "durationTicks": 96,
          "midi": 36,
          "name": "C2",
          "ticks": 115968,
          "time": 100.666566,
          "velocity": 0.2992125984251969
        },
        {
          "duration": 0.08333324999999547,
          "durationTicks": 96,
          "midi": 42,
          "name": "F#2",
          "ticks": 115968,
          "time": 100.666566,
          "velocity": 0.2992125984251969
        },
        {
          "duration": 0.08333325000000968,
          "durationTicks": 96,
          "midi": 42,
          "name": "F#2",
          "ticks": 116160,
          "time": 100.8332325,
          "velocity": 0.2992125984251969
        },
        {
          "duration": 0.08333325000000968,
          "durationTicks": 96,
          "midi": 38,
          "name": "D2",
          "ticks": 116160,
          "time": 100.8332325,
          "velocity": 0.2992125984251969
        },
        {
          "duration": 0.08333325000000968,
          "durationTicks": 96,
          "midi": 59,
          "name": "B3",
          "ticks": 116160,
          "time": 100.8332325,
          "velocity": 0.2992125984251969
        },
        {
          "duration": 0.08333325000000968,
          "durationTicks": 96,
          "midi": 49,
          "name": "C#3",
          "ticks": 116160,
          "time": 100.8332325,
          "velocity": 0.2992125984251969
        },
        {
          "duration": 0.08333325000000968,
          "durationTicks": 96,
          "midi": 51,
          "name": "D#3",
          "ticks": 116160,
          "time": 100.8332325,
          "velocity": 0.2992125984251969
        },
        {
          "duration": 0.08333325000000968,
          "durationTicks": 96,
          "midi": 53,
          "name": "F3",
          "ticks": 116160,
          "time": 100.8332325,
          "velocity": 0.2992125984251969
        },
        {
          "duration": 0.08333325000000968,
          "durationTicks": 96,
          "midi": 40,
          "name": "E2",
          "ticks": 116160,
          "time": 100.8332325,
          "velocity": 0.2992125984251969
        },
        {
          "duration": 0.08333324999999547,
          "durationTicks": 96,
          "midi": 36,
          "name": "C2",
          "ticks": 116352,
          "time": 100.999899,
          "velocity": 0.2992125984251969
        },
        {
          "duration": 0.08333324999999547,
          "durationTicks": 96,
          "midi": 42,
          "name": "F#2",
          "ticks": 116352,
          "time": 100.999899,
          "velocity": 0.2992125984251969
        },
        {
          "duration": 0.08333325000000968,
          "durationTicks": 96,
          "midi": 42,
          "name": "F#2",
          "ticks": 116544,
          "time": 101.16656549999999,
          "velocity": 0.2992125984251969
        },
        {
          "duration": 0.08333325000000968,
          "durationTicks": 96,
          "midi": 38,
          "name": "D2",
          "ticks": 116544,
          "time": 101.16656549999999,
          "velocity": 0.2992125984251969
        },
        {
          "duration": 0.08333325000000968,
          "durationTicks": 96,
          "midi": 40,
          "name": "E2",
          "ticks": 116544,
          "time": 101.16656549999999,
          "velocity": 0.2992125984251969
        },
        {
          "duration": 0.08333324999999547,
          "durationTicks": 96,
          "midi": 36,
          "name": "C2",
          "ticks": 116736,
          "time": 101.333232,
          "velocity": 0.2992125984251969
        },
        {
          "duration": 0.08333324999999547,
          "durationTicks": 96,
          "midi": 42,
          "name": "F#2",
          "ticks": 116736,
          "time": 101.333232,
          "velocity": 0.2992125984251969
        },
        {
          "duration": 0.08333324999999547,
          "durationTicks": 96,
          "midi": 49,
          "name": "C#3",
          "ticks": 116736,
          "time": 101.333232,
          "velocity": 0.2992125984251969
        },
        {
          "duration": 0.08333324999999547,
          "durationTicks": 96,
          "midi": 59,
          "name": "B3",
          "ticks": 116736,
          "time": 101.333232,
          "velocity": 0.2992125984251969
        },
        {
          "duration": 0.08333324999999547,
          "durationTicks": 96,
          "midi": 51,
          "name": "D#3",
          "ticks": 116736,
          "time": 101.333232,
          "velocity": 0.2992125984251969
        },
        {
          "duration": 0.08333324999999547,
          "durationTicks": 96,
          "midi": 53,
          "name": "F3",
          "ticks": 116736,
          "time": 101.333232,
          "velocity": 0.2992125984251969
        },
        {
          "duration": 0.08333324999999547,
          "durationTicks": 96,
          "midi": 42,
          "name": "F#2",
          "ticks": 116928,
          "time": 101.4998985,
          "velocity": 0.2992125984251969
        },
        {
          "duration": 0.08333324999999547,
          "durationTicks": 96,
          "midi": 36,
          "name": "C2",
          "ticks": 116928,
          "time": 101.4998985,
          "velocity": 0.2992125984251969
        },
        {
          "duration": 0.08333325000000968,
          "durationTicks": 96,
          "midi": 49,
          "name": "C#3",
          "ticks": 117120,
          "time": 101.66656499999999,
          "velocity": 0.2992125984251969
        },
        {
          "duration": 0.08333325000000968,
          "durationTicks": 96,
          "midi": 38,
          "name": "D2",
          "ticks": 117120,
          "time": 101.66656499999999,
          "velocity": 0.2992125984251969
        },
        {
          "duration": 0.08333325000000968,
          "durationTicks": 96,
          "midi": 40,
          "name": "E2",
          "ticks": 117120,
          "time": 101.66656499999999,
          "velocity": 0.2992125984251969
        },
        {
          "duration": 0.08333325000000968,
          "durationTicks": 96,
          "midi": 53,
          "name": "F3",
          "ticks": 117120,
          "time": 101.66656499999999,
          "velocity": 0.2992125984251969
        },
        {
          "duration": 0.08333325000000968,
          "durationTicks": 96,
          "midi": 51,
          "name": "D#3",
          "ticks": 117120,
          "time": 101.66656499999999,
          "velocity": 0.2992125984251969
        },
        {
          "duration": 0.08333325000000968,
          "durationTicks": 96,
          "midi": 42,
          "name": "F#2",
          "ticks": 117120,
          "time": 101.66656499999999,
          "velocity": 0.2992125984251969
        },
        {
          "duration": 0.08333325000000968,
          "durationTicks": 96,
          "midi": 59,
          "name": "B3",
          "ticks": 117120,
          "time": 101.66656499999999,
          "velocity": 0.2992125984251969
        },
        {
          "duration": 0.08333324999999547,
          "durationTicks": 96,
          "midi": 42,
          "name": "F#2",
          "ticks": 117312,
          "time": 101.8332315,
          "velocity": 0.2992125984251969
        },
        {
          "duration": 0.08333324999999547,
          "durationTicks": 96,
          "midi": 36,
          "name": "C2",
          "ticks": 117312,
          "time": 101.8332315,
          "velocity": 0.2992125984251969
        },
        {
          "duration": 0.08333324999999547,
          "durationTicks": 96,
          "midi": 42,
          "name": "F#2",
          "ticks": 117504,
          "time": 101.999898,
          "velocity": 0.2992125984251969
        },
        {
          "duration": 0.08333324999999547,
          "durationTicks": 96,
          "midi": 36,
          "name": "C2",
          "ticks": 117504,
          "time": 101.999898,
          "velocity": 0.2992125984251969
        },
        {
          "duration": 0.08333325000000968,
          "durationTicks": 96,
          "midi": 59,
          "name": "B3",
          "ticks": 117696,
          "time": 102.16656449999999,
          "velocity": 0.2992125984251969
        },
        {
          "duration": 0.08333325000000968,
          "durationTicks": 96,
          "midi": 53,
          "name": "F3",
          "ticks": 117696,
          "time": 102.16656449999999,
          "velocity": 0.2992125984251969
        },
        {
          "duration": 0.08333325000000968,
          "durationTicks": 96,
          "midi": 38,
          "name": "D2",
          "ticks": 117696,
          "time": 102.16656449999999,
          "velocity": 0.2992125984251969
        },
        {
          "duration": 0.08333325000000968,
          "durationTicks": 96,
          "midi": 40,
          "name": "E2",
          "ticks": 117696,
          "time": 102.16656449999999,
          "velocity": 0.2992125984251969
        },
        {
          "duration": 0.08333325000000968,
          "durationTicks": 96,
          "midi": 49,
          "name": "C#3",
          "ticks": 117696,
          "time": 102.16656449999999,
          "velocity": 0.2992125984251969
        },
        {
          "duration": 0.08333325000000968,
          "durationTicks": 96,
          "midi": 51,
          "name": "D#3",
          "ticks": 117696,
          "time": 102.16656449999999,
          "velocity": 0.2992125984251969
        },
        {
          "duration": 0.08333325000000968,
          "durationTicks": 96,
          "midi": 42,
          "name": "F#2",
          "ticks": 117696,
          "time": 102.16656449999999,
          "velocity": 0.2992125984251969
        },
        {
          "duration": 0.08333324999999547,
          "durationTicks": 96,
          "midi": 42,
          "name": "F#2",
          "ticks": 117888,
          "time": 102.333231,
          "velocity": 0.2992125984251969
        },
        {
          "duration": 0.08333324999999547,
          "durationTicks": 96,
          "midi": 36,
          "name": "C2",
          "ticks": 117888,
          "time": 102.333231,
          "velocity": 0.2992125984251969
        },
        {
          "duration": 0.08333324999999547,
          "durationTicks": 96,
          "midi": 38,
          "name": "D2",
          "ticks": 118080,
          "time": 102.4998975,
          "velocity": 0.2992125984251969
        },
        {
          "duration": 0.08333324999999547,
          "durationTicks": 96,
          "midi": 40,
          "name": "E2",
          "ticks": 118080,
          "time": 102.4998975,
          "velocity": 0.2992125984251969
        },
        {
          "duration": 0.08333324999999547,
          "durationTicks": 96,
          "midi": 42,
          "name": "F#2",
          "ticks": 118080,
          "time": 102.4998975,
          "velocity": 0.2992125984251969
        },
        {
          "duration": 0.08333325000000968,
          "durationTicks": 96,
          "midi": 51,
          "name": "D#3",
          "ticks": 118272,
          "time": 102.666564,
          "velocity": 0.2992125984251969
        },
        {
          "duration": 0.08333325000000968,
          "durationTicks": 96,
          "midi": 42,
          "name": "F#2",
          "ticks": 118272,
          "time": 102.666564,
          "velocity": 0.2992125984251969
        },
        {
          "duration": 0.08333325000000968,
          "durationTicks": 96,
          "midi": 53,
          "name": "F3",
          "ticks": 118272,
          "time": 102.666564,
          "velocity": 0.2992125984251969
        },
        {
          "duration": 0.08333325000000968,
          "durationTicks": 96,
          "midi": 36,
          "name": "C2",
          "ticks": 118272,
          "time": 102.666564,
          "velocity": 0.2992125984251969
        },
        {
          "duration": 0.08333325000000968,
          "durationTicks": 96,
          "midi": 49,
          "name": "C#3",
          "ticks": 118272,
          "time": 102.666564,
          "velocity": 0.2992125984251969
        },
        {
          "duration": 0.08333325000000968,
          "durationTicks": 96,
          "midi": 59,
          "name": "B3",
          "ticks": 118272,
          "time": 102.666564,
          "velocity": 0.2992125984251969
        },
        {
          "duration": 0.08333324999999547,
          "durationTicks": 96,
          "midi": 36,
          "name": "C2",
          "ticks": 118464,
          "time": 102.8332305,
          "velocity": 0.2992125984251969
        },
        {
          "duration": 0.08333324999999547,
          "durationTicks": 96,
          "midi": 42,
          "name": "F#2",
          "ticks": 118464,
          "time": 102.8332305,
          "velocity": 0.2992125984251969
        },
        {
          "duration": 0.08333325000000968,
          "durationTicks": 96,
          "midi": 42,
          "name": "F#2",
          "ticks": 118656,
          "time": 102.99989699999999,
          "velocity": 0.2992125984251969
        },
        {
          "duration": 0.08333325000000968,
          "durationTicks": 96,
          "midi": 38,
          "name": "D2",
          "ticks": 118656,
          "time": 102.99989699999999,
          "velocity": 0.2992125984251969
        },
        {
          "duration": 0.08333325000000968,
          "durationTicks": 96,
          "midi": 40,
          "name": "E2",
          "ticks": 118656,
          "time": 102.99989699999999,
          "velocity": 0.2992125984251969
        },
        {
          "duration": 0.08333325000000968,
          "durationTicks": 96,
          "midi": 51,
          "name": "D#3",
          "ticks": 118656,
          "time": 102.99989699999999,
          "velocity": 0.2992125984251969
        },
        {
          "duration": 0.08333325000000968,
          "durationTicks": 96,
          "midi": 59,
          "name": "B3",
          "ticks": 118656,
          "time": 102.99989699999999,
          "velocity": 0.2992125984251969
        },
        {
          "duration": 0.08333325000000968,
          "durationTicks": 96,
          "midi": 49,
          "name": "C#3",
          "ticks": 118656,
          "time": 102.99989699999999,
          "velocity": 0.2992125984251969
        },
        {
          "duration": 0.08333325000000968,
          "durationTicks": 96,
          "midi": 53,
          "name": "F3",
          "ticks": 118656,
          "time": 102.99989699999999,
          "velocity": 0.2992125984251969
        },
        {
          "duration": 0.08333324999999547,
          "durationTicks": 96,
          "midi": 36,
          "name": "C2",
          "ticks": 118848,
          "time": 103.1665635,
          "velocity": 0.2992125984251969
        },
        {
          "duration": 0.08333324999999547,
          "durationTicks": 96,
          "midi": 42,
          "name": "F#2",
          "ticks": 118848,
          "time": 103.1665635,
          "velocity": 0.2992125984251969
        },
        {
          "duration": 0.08333324999999547,
          "durationTicks": 96,
          "midi": 36,
          "name": "C2",
          "ticks": 119040,
          "time": 103.33323,
          "velocity": 0.2992125984251969
        },
        {
          "duration": 0.08333324999999547,
          "durationTicks": 96,
          "midi": 42,
          "name": "F#2",
          "ticks": 119040,
          "time": 103.33323,
          "velocity": 0.2992125984251969
        },
        {
          "duration": 0.08333325000000968,
          "durationTicks": 96,
          "midi": 40,
          "name": "E2",
          "ticks": 119232,
          "time": 103.49989649999999,
          "velocity": 0.2992125984251969
        },
        {
          "duration": 0.08333325000000968,
          "durationTicks": 96,
          "midi": 59,
          "name": "B3",
          "ticks": 119232,
          "time": 103.49989649999999,
          "velocity": 0.2992125984251969
        },
        {
          "duration": 0.08333325000000968,
          "durationTicks": 96,
          "midi": 53,
          "name": "F3",
          "ticks": 119232,
          "time": 103.49989649999999,
          "velocity": 0.2992125984251969
        },
        {
          "duration": 0.08333325000000968,
          "durationTicks": 96,
          "midi": 38,
          "name": "D2",
          "ticks": 119232,
          "time": 103.49989649999999,
          "velocity": 0.2992125984251969
        },
        {
          "duration": 0.08333325000000968,
          "durationTicks": 96,
          "midi": 51,
          "name": "D#3",
          "ticks": 119232,
          "time": 103.49989649999999,
          "velocity": 0.2992125984251969
        },
        {
          "duration": 0.08333325000000968,
          "durationTicks": 96,
          "midi": 49,
          "name": "C#3",
          "ticks": 119232,
          "time": 103.49989649999999,
          "velocity": 0.2992125984251969
        },
        {
          "duration": 0.08333325000000968,
          "durationTicks": 96,
          "midi": 42,
          "name": "F#2",
          "ticks": 119232,
          "time": 103.49989649999999,
          "velocity": 0.2992125984251969
        },
        {
          "duration": 0.08333324999999547,
          "durationTicks": 96,
          "midi": 36,
          "name": "C2",
          "ticks": 119424,
          "time": 103.666563,
          "velocity": 0.2992125984251969
        },
        {
          "duration": 0.08333324999999547,
          "durationTicks": 96,
          "midi": 42,
          "name": "F#2",
          "ticks": 119424,
          "time": 103.666563,
          "velocity": 0.2992125984251969
        },
        {
          "duration": 0.08333324999999547,
          "durationTicks": 96,
          "midi": 40,
          "name": "E2",
          "ticks": 119616,
          "time": 103.8332295,
          "velocity": 0.2992125984251969
        },
        {
          "duration": 0.08333324999999547,
          "durationTicks": 96,
          "midi": 42,
          "name": "F#2",
          "ticks": 119616,
          "time": 103.8332295,
          "velocity": 0.2992125984251969
        },
        {
          "duration": 0.08333324999999547,
          "durationTicks": 96,
          "midi": 38,
          "name": "D2",
          "ticks": 119616,
          "time": 103.8332295,
          "velocity": 0.2992125984251969
        },
        {
          "duration": 0.08333325000000968,
          "durationTicks": 96,
          "midi": 59,
          "name": "B3",
          "ticks": 119808,
          "time": 103.99989599999999,
          "velocity": 0.2992125984251969
        },
        {
          "duration": 0.08333325000000968,
          "durationTicks": 96,
          "midi": 49,
          "name": "C#3",
          "ticks": 119808,
          "time": 103.99989599999999,
          "velocity": 0.2992125984251969
        },
        {
          "duration": 0.08333325000000968,
          "durationTicks": 96,
          "midi": 42,
          "name": "F#2",
          "ticks": 119808,
          "time": 103.99989599999999,
          "velocity": 0.2992125984251969
        },
        {
          "duration": 0.08333325000000968,
          "durationTicks": 96,
          "midi": 51,
          "name": "D#3",
          "ticks": 119808,
          "time": 103.99989599999999,
          "velocity": 0.2992125984251969
        },
        {
          "duration": 0.08333325000000968,
          "durationTicks": 96,
          "midi": 36,
          "name": "C2",
          "ticks": 119808,
          "time": 103.99989599999999,
          "velocity": 0.2992125984251969
        },
        {
          "duration": 0.08333325000000968,
          "durationTicks": 96,
          "midi": 53,
          "name": "F3",
          "ticks": 119808,
          "time": 103.99989599999999,
          "velocity": 0.2992125984251969
        },
        {
          "duration": 0.08333324999999547,
          "durationTicks": 96,
          "midi": 36,
          "name": "C2",
          "ticks": 120000,
          "time": 104.1665625,
          "velocity": 0.2992125984251969
        },
        {
          "duration": 0.08333324999999547,
          "durationTicks": 96,
          "midi": 42,
          "name": "F#2",
          "ticks": 120000,
          "time": 104.1665625,
          "velocity": 0.2992125984251969
        },
        {
          "duration": 0.08333324999999547,
          "durationTicks": 96,
          "midi": 49,
          "name": "C#3",
          "ticks": 120192,
          "time": 104.333229,
          "velocity": 0.2992125984251969
        },
        {
          "duration": 0.08333324999999547,
          "durationTicks": 96,
          "midi": 53,
          "name": "F3",
          "ticks": 120192,
          "time": 104.333229,
          "velocity": 0.2992125984251969
        },
        {
          "duration": 0.08333324999999547,
          "durationTicks": 96,
          "midi": 59,
          "name": "B3",
          "ticks": 120192,
          "time": 104.333229,
          "velocity": 0.2992125984251969
        },
        {
          "duration": 0.08333324999999547,
          "durationTicks": 96,
          "midi": 51,
          "name": "D#3",
          "ticks": 120192,
          "time": 104.333229,
          "velocity": 0.2992125984251969
        },
        {
          "duration": 0.08333324999999547,
          "durationTicks": 96,
          "midi": 40,
          "name": "E2",
          "ticks": 120192,
          "time": 104.333229,
          "velocity": 0.2992125984251969
        },
        {
          "duration": 0.08333324999999547,
          "durationTicks": 96,
          "midi": 42,
          "name": "F#2",
          "ticks": 120192,
          "time": 104.333229,
          "velocity": 0.2992125984251969
        },
        {
          "duration": 0.08333324999999547,
          "durationTicks": 96,
          "midi": 38,
          "name": "D2",
          "ticks": 120192,
          "time": 104.333229,
          "velocity": 0.2992125984251969
        },
        {
          "duration": 0.08333325000000968,
          "durationTicks": 96,
          "midi": 42,
          "name": "F#2",
          "ticks": 120384,
          "time": 104.4998955,
          "velocity": 0.2992125984251969
        },
        {
          "duration": 0.08333325000000968,
          "durationTicks": 96,
          "midi": 36,
          "name": "C2",
          "ticks": 120384,
          "time": 104.4998955,
          "velocity": 0.2992125984251969
        },
        {
          "duration": 0.08333324999999547,
          "durationTicks": 96,
          "midi": 42,
          "name": "F#2",
          "ticks": 120576,
          "time": 104.666562,
          "velocity": 0.2992125984251969
        },
        {
          "duration": 0.08333324999999547,
          "durationTicks": 96,
          "midi": 36,
          "name": "C2",
          "ticks": 120576,
          "time": 104.666562,
          "velocity": 0.2992125984251969
        },
        {
          "duration": 0.08333325000000968,
          "durationTicks": 96,
          "midi": 42,
          "name": "F#2",
          "ticks": 120768,
          "time": 104.83322849999999,
          "velocity": 0.2992125984251969
        },
        {
          "duration": 0.08333325000000968,
          "durationTicks": 96,
          "midi": 53,
          "name": "F3",
          "ticks": 120768,
          "time": 104.83322849999999,
          "velocity": 0.2992125984251969
        },
        {
          "duration": 0.08333325000000968,
          "durationTicks": 96,
          "midi": 49,
          "name": "C#3",
          "ticks": 120768,
          "time": 104.83322849999999,
          "velocity": 0.2992125984251969
        },
        {
          "duration": 0.08333325000000968,
          "durationTicks": 96,
          "midi": 38,
          "name": "D2",
          "ticks": 120768,
          "time": 104.83322849999999,
          "velocity": 0.2992125984251969
        },
        {
          "duration": 0.08333325000000968,
          "durationTicks": 96,
          "midi": 59,
          "name": "B3",
          "ticks": 120768,
          "time": 104.83322849999999,
          "velocity": 0.2992125984251969
        },
        {
          "duration": 0.08333325000000968,
          "durationTicks": 96,
          "midi": 40,
          "name": "E2",
          "ticks": 120768,
          "time": 104.83322849999999,
          "velocity": 0.2992125984251969
        },
        {
          "duration": 0.08333325000000968,
          "durationTicks": 96,
          "midi": 51,
          "name": "D#3",
          "ticks": 120768,
          "time": 104.83322849999999,
          "velocity": 0.2992125984251969
        },
        {
          "duration": 0.08333324999999547,
          "durationTicks": 96,
          "midi": 36,
          "name": "C2",
          "ticks": 120960,
          "time": 104.999895,
          "velocity": 0.2992125984251969
        },
        {
          "duration": 0.08333324999999547,
          "durationTicks": 96,
          "midi": 42,
          "name": "F#2",
          "ticks": 120960,
          "time": 104.999895,
          "velocity": 0.2992125984251969
        },
        {
          "duration": 0.08333324999999547,
          "durationTicks": 96,
          "midi": 40,
          "name": "E2",
          "ticks": 121152,
          "time": 105.1665615,
          "velocity": 0.2992125984251969
        },
        {
          "duration": 0.08333324999999547,
          "durationTicks": 96,
          "midi": 38,
          "name": "D2",
          "ticks": 121152,
          "time": 105.1665615,
          "velocity": 0.2992125984251969
        },
        {
          "duration": 0.08333324999999547,
          "durationTicks": 96,
          "midi": 42,
          "name": "F#2",
          "ticks": 121152,
          "time": 105.1665615,
          "velocity": 0.2992125984251969
        },
        {
          "duration": 0.08333325000000968,
          "durationTicks": 96,
          "midi": 42,
          "name": "F#2",
          "ticks": 121344,
          "time": 105.33322799999999,
          "velocity": 0.2992125984251969
        },
        {
          "duration": 0.08333325000000968,
          "durationTicks": 96,
          "midi": 36,
          "name": "C2",
          "ticks": 121344,
          "time": 105.33322799999999,
          "velocity": 0.2992125984251969
        },
        {
          "duration": 0.08333325000000968,
          "durationTicks": 96,
          "midi": 53,
          "name": "F3",
          "ticks": 121344,
          "time": 105.33322799999999,
          "velocity": 0.2992125984251969
        },
        {
          "duration": 0.08333325000000968,
          "durationTicks": 96,
          "midi": 59,
          "name": "B3",
          "ticks": 121344,
          "time": 105.33322799999999,
          "velocity": 0.2992125984251969
        },
        {
          "duration": 0.08333325000000968,
          "durationTicks": 96,
          "midi": 49,
          "name": "C#3",
          "ticks": 121344,
          "time": 105.33322799999999,
          "velocity": 0.2992125984251969
        },
        {
          "duration": 0.08333325000000968,
          "durationTicks": 96,
          "midi": 51,
          "name": "D#3",
          "ticks": 121344,
          "time": 105.33322799999999,
          "velocity": 0.2992125984251969
        },
        {
          "duration": 0.08333324999999547,
          "durationTicks": 96,
          "midi": 42,
          "name": "F#2",
          "ticks": 121536,
          "time": 105.4998945,
          "velocity": 0.2992125984251969
        },
        {
          "duration": 0.08333324999999547,
          "durationTicks": 96,
          "midi": 36,
          "name": "C2",
          "ticks": 121536,
          "time": 105.4998945,
          "velocity": 0.2992125984251969
        },
        {
          "duration": 0.08333324999999547,
          "durationTicks": 96,
          "midi": 38,
          "name": "D2",
          "ticks": 121728,
          "time": 105.666561,
          "velocity": 0.2992125984251969
        },
        {
          "duration": 0.08333324999999547,
          "durationTicks": 96,
          "midi": 53,
          "name": "F3",
          "ticks": 121728,
          "time": 105.666561,
          "velocity": 0.2992125984251969
        },
        {
          "duration": 0.08333324999999547,
          "durationTicks": 96,
          "midi": 49,
          "name": "C#3",
          "ticks": 121728,
          "time": 105.666561,
          "velocity": 0.2992125984251969
        },
        {
          "duration": 0.08333324999999547,
          "durationTicks": 96,
          "midi": 40,
          "name": "E2",
          "ticks": 121728,
          "time": 105.666561,
          "velocity": 0.2992125984251969
        },
        {
          "duration": 0.08333324999999547,
          "durationTicks": 96,
          "midi": 42,
          "name": "F#2",
          "ticks": 121728,
          "time": 105.666561,
          "velocity": 0.2992125984251969
        },
        {
          "duration": 0.08333324999999547,
          "durationTicks": 96,
          "midi": 59,
          "name": "B3",
          "ticks": 121728,
          "time": 105.666561,
          "velocity": 0.2992125984251969
        },
        {
          "duration": 0.08333324999999547,
          "durationTicks": 96,
          "midi": 51,
          "name": "D#3",
          "ticks": 121728,
          "time": 105.666561,
          "velocity": 0.2992125984251969
        },
        {
          "duration": 0.08333325000000968,
          "durationTicks": 96,
          "midi": 42,
          "name": "F#2",
          "ticks": 121920,
          "time": 105.83322749999999,
          "velocity": 0.2992125984251969
        },
        {
          "duration": 0.08333325000000968,
          "durationTicks": 96,
          "midi": 36,
          "name": "C2",
          "ticks": 121920,
          "time": 105.83322749999999,
          "velocity": 0.2992125984251969
        },
        {
          "duration": 0.08333324999999547,
          "durationTicks": 96,
          "midi": 36,
          "name": "C2",
          "ticks": 122112,
          "time": 105.999894,
          "velocity": 0.2992125984251969
        },
        {
          "duration": 0.08333324999999547,
          "durationTicks": 96,
          "midi": 42,
          "name": "F#2",
          "ticks": 122112,
          "time": 105.999894,
          "velocity": 0.2992125984251969
        },
        {
          "duration": 0.08333324999999547,
          "durationTicks": 96,
          "midi": 59,
          "name": "B3",
          "ticks": 122304,
          "time": 106.1665605,
          "velocity": 0.2992125984251969
        },
        {
          "duration": 0.08333324999999547,
          "durationTicks": 96,
          "midi": 49,
          "name": "C#3",
          "ticks": 122304,
          "time": 106.1665605,
          "velocity": 0.2992125984251969
        },
        {
          "duration": 0.08333324999999547,
          "durationTicks": 96,
          "midi": 42,
          "name": "F#2",
          "ticks": 122304,
          "time": 106.1665605,
          "velocity": 0.2992125984251969
        },
        {
          "duration": 0.08333324999999547,
          "durationTicks": 96,
          "midi": 40,
          "name": "E2",
          "ticks": 122304,
          "time": 106.1665605,
          "velocity": 0.2992125984251969
        },
        {
          "duration": 0.08333324999999547,
          "durationTicks": 96,
          "midi": 38,
          "name": "D2",
          "ticks": 122304,
          "time": 106.1665605,
          "velocity": 0.2992125984251969
        },
        {
          "duration": 0.08333324999999547,
          "durationTicks": 96,
          "midi": 51,
          "name": "D#3",
          "ticks": 122304,
          "time": 106.1665605,
          "velocity": 0.2992125984251969
        },
        {
          "duration": 0.08333324999999547,
          "durationTicks": 96,
          "midi": 53,
          "name": "F3",
          "ticks": 122304,
          "time": 106.1665605,
          "velocity": 0.2992125984251969
        },
        {
          "duration": 0.08333325000000968,
          "durationTicks": 96,
          "midi": 42,
          "name": "F#2",
          "ticks": 122496,
          "time": 106.333227,
          "velocity": 0.2992125984251969
        },
        {
          "duration": 0.08333325000000968,
          "durationTicks": 96,
          "midi": 36,
          "name": "C2",
          "ticks": 122496,
          "time": 106.333227,
          "velocity": 0.2992125984251969
        },
        {
          "duration": 0.08333324999999547,
          "durationTicks": 96,
          "midi": 42,
          "name": "F#2",
          "ticks": 122688,
          "time": 106.4998935,
          "velocity": 0.2992125984251969
        },
        {
          "duration": 0.08333324999999547,
          "durationTicks": 96,
          "midi": 38,
          "name": "D2",
          "ticks": 122688,
          "time": 106.4998935,
          "velocity": 0.2992125984251969
        },
        {
          "duration": 0.08333324999999547,
          "durationTicks": 96,
          "midi": 40,
          "name": "E2",
          "ticks": 122688,
          "time": 106.4998935,
          "velocity": 0.2992125984251969
        }
      ],
      "endOfTrackTicks": 122784
    },
    {
      "channel": 10,
      "controlChanges": {},
      "pitchBends": [],
      "instrument": {
        "family": "piano",
        "number": 0,
        "name": "acoustic grand piano"
      },
      "name": "Grand Piano",
      "notes": [
        {
          "duration": 0.1666665,
          "durationTicks": 192,
          "midi": 68,
          "name": "G#4",
          "ticks": 0,
          "time": 0,
          "velocity": 0.47244094488188976
        },
        {
          "duration": 2.666664,
          "durationTicks": 3072,
          "midi": 46,
          "name": "A#2",
          "ticks": 0,
          "time": 0,
          "velocity": 0.47244094488188976
        },
        {
          "duration": 2.666664,
          "durationTicks": 3072,
          "midi": 56,
          "name": "G#3",
          "ticks": 0,
          "time": 0,
          "velocity": 0.47244094488188976
        },
        {
          "duration": 0.1666665,
          "durationTicks": 192,
          "midi": 68,
          "name": "G#4",
          "ticks": 384,
          "time": 0.333333,
          "velocity": 0.47244094488188976
        },
        {
          "duration": 0.1666665,
          "durationTicks": 192,
          "midi": 70,
          "name": "A#4",
          "ticks": 576,
          "time": 0.4999995,
          "velocity": 0.47244094488188976
        },
        {
          "duration": 0.16666650000000005,
          "durationTicks": 192,
          "midi": 72,
          "name": "C5",
          "ticks": 768,
          "time": 0.666666,
          "velocity": 0.47244094488188976
        },
        {
          "duration": 0.16666649999999994,
          "durationTicks": 192,
          "midi": 68,
          "name": "G#4",
          "ticks": 1152,
          "time": 0.999999,
          "velocity": 0.47244094488188976
        },
        {
          "duration": 0.16666650000000005,
          "durationTicks": 192,
          "midi": 70,
          "name": "A#4",
          "ticks": 1536,
          "time": 1.333332,
          "velocity": 0.47244094488188976
        },
        {
          "duration": 0.16666649999999983,
          "durationTicks": 192,
          "midi": 70,
          "name": "A#4",
          "ticks": 1920,
          "time": 1.666665,
          "velocity": 0.47244094488188976
        },
        {
          "duration": 0.16666650000000005,
          "durationTicks": 192,
          "midi": 72,
          "name": "C5",
          "ticks": 2112,
          "time": 1.8333315,
          "velocity": 0.47244094488188976
        },
        {
          "duration": 0.16666650000000005,
          "durationTicks": 192,
          "midi": 67,
          "name": "G4",
          "ticks": 2304,
          "time": 1.999998,
          "velocity": 0.47244094488188976
        },
        {
          "duration": 0.16666650000000027,
          "durationTicks": 192,
          "midi": 63,
          "name": "D#4",
          "ticks": 2688,
          "time": 2.333331,
          "velocity": 0.47244094488188976
        },
        {
          "duration": 1.333332,
          "durationTicks": 1536,
          "midi": 56,
          "name": "G#3",
          "ticks": 3072,
          "time": 2.666664,
          "velocity": 0.47244094488188976
        },
        {
          "duration": 2.666664,
          "durationTicks": 3072,
          "midi": 48,
          "name": "C3",
          "ticks": 3072,
          "time": 2.666664,
          "velocity": 0.47244094488188976
        },
        {
          "duration": 0.16666649999999983,
          "durationTicks": 192,
          "midi": 68,
          "name": "G#4",
          "ticks": 3072,
          "time": 2.666664,
          "velocity": 0.47244094488188976
        },
        {
          "duration": 0.16666649999999983,
          "durationTicks": 192,
          "midi": 68,
          "name": "G#4",
          "ticks": 3456,
          "time": 2.999997,
          "velocity": 0.47244094488188976
        },
        {
          "duration": 0.16666650000000027,
          "durationTicks": 192,
          "midi": 70,
          "name": "A#4",
          "ticks": 3648,
          "time": 3.1666635,
          "velocity": 0.47244094488188976
        },
        {
          "duration": 0.16666649999999983,
          "durationTicks": 192,
          "midi": 72,
          "name": "C5",
          "ticks": 3840,
          "time": 3.33333,
          "velocity": 0.47244094488188976
        },
        {
          "duration": 0.16666650000000027,
          "durationTicks": 192,
          "midi": 80,
          "name": "G#5",
          "ticks": 4224,
          "time": 3.666663,
          "velocity": 0.47244094488188976
        },
        {
          "duration": 1.333332,
          "durationTicks": 1536,
          "midi": 55,
          "name": "G3",
          "ticks": 4608,
          "time": 3.999996,
          "velocity": 0.47244094488188976
        },
        {
          "duration": 0.3333330000000001,
          "durationTicks": 384,
          "midi": 79,
          "name": "G5",
          "ticks": 4608,
          "time": 3.999996,
          "velocity": 0.47244094488188976
        },
        {
          "duration": 0.33333299999999966,
          "durationTicks": 384,
          "midi": 75,
          "name": "D#5",
          "ticks": 4992,
          "time": 4.333329,
          "velocity": 0.47244094488188976
        },
        {
          "duration": 0.33333300000000055,
          "durationTicks": 384,
          "midi": 70,
          "name": "A#4",
          "ticks": 5376,
          "time": 4.666662,
          "velocity": 0.47244094488188976
        },
        {
          "duration": 0.33333299999999966,
          "durationTicks": 384,
          "midi": 67,
          "name": "G4",
          "ticks": 5760,
          "time": 4.999995,
          "velocity": 0.47244094488188976
        },
        {
          "duration": 2.666664,
          "durationTicks": 3072,
          "midi": 49,
          "name": "C#3",
          "ticks": 6144,
          "time": 5.333328,
          "velocity": 0.47244094488188976
        },
        {
          "duration": 2.666664,
          "durationTicks": 3072,
          "midi": 56,
          "name": "G#3",
          "ticks": 6144,
          "time": 5.333328,
          "velocity": 0.47244094488188976
        },
        {
          "duration": 0.16666649999999983,
          "durationTicks": 192,
          "midi": 68,
          "name": "G#4",
          "ticks": 6144,
          "time": 5.333328,
          "velocity": 0.47244094488188976
        },
        {
          "duration": 0.16666650000000072,
          "durationTicks": 192,
          "midi": 68,
          "name": "G#4",
          "ticks": 6528,
          "time": 5.6666609999999995,
          "velocity": 0.47244094488188976
        },
        {
          "duration": 0.16666649999999983,
          "durationTicks": 192,
          "midi": 70,
          "name": "A#4",
          "ticks": 6720,
          "time": 5.8333275,
          "velocity": 0.47244094488188976
        },
        {
          "duration": 0.16666649999999983,
          "durationTicks": 192,
          "midi": 72,
          "name": "C5",
          "ticks": 6912,
          "time": 5.999994,
          "velocity": 0.47244094488188976
        },
        {
          "duration": 0.16666649999999983,
          "durationTicks": 192,
          "midi": 68,
          "name": "G#4",
          "ticks": 7296,
          "time": 6.333327,
          "velocity": 0.47244094488188976
        },
        {
          "duration": 0.16666649999999983,
          "durationTicks": 192,
          "midi": 70,
          "name": "A#4",
          "ticks": 7680,
          "time": 6.66666,
          "velocity": 0.47244094488188976
        },
        {
          "duration": 0.16666649999999983,
          "durationTicks": 192,
          "midi": 70,
          "name": "A#4",
          "ticks": 8064,
          "time": 6.999993,
          "velocity": 0.47244094488188976
        },
        {
          "duration": 0.16666649999999983,
          "durationTicks": 192,
          "midi": 72,
          "name": "C5",
          "ticks": 8256,
          "time": 7.1666595,
          "velocity": 0.47244094488188976
        },
        {
          "duration": 0.16666649999999983,
          "durationTicks": 192,
          "midi": 67,
          "name": "G4",
          "ticks": 8448,
          "time": 7.333326,
          "velocity": 0.47244094488188976
        },
        {
          "duration": 0.16666649999999983,
          "durationTicks": 192,
          "midi": 63,
          "name": "D#4",
          "ticks": 8832,
          "time": 7.666659,
          "velocity": 0.47244094488188976
        },
        {
          "duration": 0.16666650000000072,
          "durationTicks": 192,
          "midi": 69,
          "name": "A4",
          "ticks": 9216,
          "time": 7.999992,
          "velocity": 0.47244094488188976
        },
        {
          "duration": 2.666664,
          "durationTicks": 3072,
          "midi": 50,
          "name": "D3",
          "ticks": 9216,
          "time": 7.999992,
          "velocity": 0.47244094488188976
        },
        {
          "duration": 2.666664,
          "durationTicks": 3072,
          "midi": 57,
          "name": "A3",
          "ticks": 9216,
          "time": 7.999992,
          "velocity": 0.47244094488188976
        },
        {
          "duration": 0.16666649999999983,
          "durationTicks": 192,
          "midi": 69,
          "name": "A4",
          "ticks": 9600,
          "time": 8.333325,
          "velocity": 0.47244094488188976
        },
        {
          "duration": 0.16666649999999983,
          "durationTicks": 192,
          "midi": 70,
          "name": "A#4",
          "ticks": 9792,
          "time": 8.4999915,
          "velocity": 0.47244094488188976
        },
        {
          "duration": 0.16666649999999983,
          "durationTicks": 192,
          "midi": 72,
          "name": "C5",
          "ticks": 9984,
          "time": 8.666658,
          "velocity": 0.47244094488188976
        },
        {
          "duration": 0.16666649999999983,
          "durationTicks": 192,
          "midi": 77,
          "name": "F5",
          "ticks": 10368,
          "time": 8.999991,
          "velocity": 0.47244094488188976
        },
        {
          "duration": 0.33333299999999966,
          "durationTicks": 384,
          "midi": 69,
          "name": "A4",
          "ticks": 10752,
          "time": 9.333324,
          "velocity": 0.47244094488188976
        },
        {
          "duration": 0.33333299999999966,
          "durationTicks": 384,
          "midi": 76,
          "name": "E5",
          "ticks": 10752,
          "time": 9.333324,
          "velocity": 0.47244094488188976
        },
        {
          "duration": 0.33333300000000143,
          "durationTicks": 384,
          "midi": 74,
          "name": "D5",
          "ticks": 11136,
          "time": 9.666656999999999,
          "velocity": 0.47244094488188976
        },
        {
          "duration": 0.33333300000000143,
          "durationTicks": 384,
          "midi": 79,
          "name": "G5",
          "ticks": 11136,
          "time": 9.666656999999999,
          "velocity": 0.47244094488188976
        },
        {
          "duration": 0.6666659999999993,
          "durationTicks": 768,
          "midi": 77,
          "name": "F5",
          "ticks": 11520,
          "time": 9.99999,
          "velocity": 0.47244094488188976
        },
        {
          "duration": 0.6666659999999993,
          "durationTicks": 768,
          "midi": 72,
          "name": "C5",
          "ticks": 11520,
          "time": 9.99999,
          "velocity": 0.47244094488188976
        },
        {
          "duration": 2.666664000000001,
          "durationTicks": 3072,
          "midi": 46,
          "name": "A#2",
          "ticks": 12288,
          "time": 10.666656,
          "velocity": 0.47244094488188976
        },
        {
          "duration": 2.666664000000001,
          "durationTicks": 3072,
          "midi": 56,
          "name": "G#3",
          "ticks": 12288,
          "time": 10.666656,
          "velocity": 0.47244094488188976
        },
        {
          "duration": 0.16666649999999983,
          "durationTicks": 192,
          "midi": 68,
          "name": "G#4",
          "ticks": 12288,
          "time": 10.666656,
          "velocity": 0.47244094488188976
        },
        {
          "duration": 0.16666649999999983,
          "durationTicks": 192,
          "midi": 68,
          "name": "G#4",
          "ticks": 12672,
          "time": 10.999989,
          "velocity": 0.47244094488188976
        },
        {
          "duration": 0.16666649999999983,
          "durationTicks": 192,
          "midi": 70,
          "name": "A#4",
          "ticks": 12864,
          "time": 11.1666555,
          "velocity": 0.47244094488188976
        },
        {
          "duration": 0.16666649999999983,
          "durationTicks": 192,
          "midi": 72,
          "name": "C5",
          "ticks": 13056,
          "time": 11.333321999999999,
          "velocity": 0.47244094488188976
        },
        {
          "duration": 0.16666649999999983,
          "durationTicks": 192,
          "midi": 68,
          "name": "G#4",
          "ticks": 13440,
          "time": 11.666655,
          "velocity": 0.47244094488188976
        },
        {
          "duration": 0.16666649999999983,
          "durationTicks": 192,
          "midi": 70,
          "name": "A#4",
          "ticks": 13824,
          "time": 11.999988,
          "velocity": 0.47244094488188976
        },
        {
          "duration": 0.16666649999999983,
          "durationTicks": 192,
          "midi": 70,
          "name": "A#4",
          "ticks": 14208,
          "time": 12.333321,
          "velocity": 0.47244094488188976
        },
        {
          "duration": 0.16666649999999983,
          "durationTicks": 192,
          "midi": 72,
          "name": "C5",
          "ticks": 14400,
          "time": 12.4999875,
          "velocity": 0.47244094488188976
        },
        {
          "duration": 0.16666649999999983,
          "durationTicks": 192,
          "midi": 67,
          "name": "G4",
          "ticks": 14592,
          "time": 12.666654,
          "velocity": 0.47244094488188976
        },
        {
          "duration": 0.16666649999999983,
          "durationTicks": 192,
          "midi": 63,
          "name": "D#4",
          "ticks": 14976,
          "time": 12.999986999999999,
          "velocity": 0.47244094488188976
        },
        {
          "duration": 0.16666649999999983,
          "durationTicks": 192,
          "midi": 68,
          "name": "G#4",
          "ticks": 15360,
          "time": 13.33332,
          "velocity": 0.47244094488188976
        },
        {
          "duration": 2.666663999999999,
          "durationTicks": 3072,
          "midi": 48,
          "name": "C3",
          "ticks": 15360,
          "time": 13.33332,
          "velocity": 0.47244094488188976
        },
        {
          "duration": 1.3333319999999986,
          "durationTicks": 1536,
          "midi": 56,
          "name": "G#3",
          "ticks": 15360,
          "time": 13.33332,
          "velocity": 0.47244094488188976
        },
        {
          "duration": 0.16666649999999983,
          "durationTicks": 192,
          "midi": 68,
          "name": "G#4",
          "ticks": 15744,
          "time": 13.666653,
          "velocity": 0.47244094488188976
        },
        {
          "duration": 0.16666649999999983,
          "durationTicks": 192,
          "midi": 70,
          "name": "A#4",
          "ticks": 15936,
          "time": 13.8333195,
          "velocity": 0.47244094488188976
        },
        {
          "duration": 0.16666649999999983,
          "durationTicks": 192,
          "midi": 72,
          "name": "C5",
          "ticks": 16128,
          "time": 13.999986,
          "velocity": 0.47244094488188976
        },
        {
          "duration": 0.16666649999999983,
          "durationTicks": 192,
          "midi": 80,
          "name": "G#5",
          "ticks": 16512,
          "time": 14.333319,
          "velocity": 0.47244094488188976
        },
        {
          "duration": 0.33333299999999966,
          "durationTicks": 384,
          "midi": 79,
          "name": "G5",
          "ticks": 16896,
          "time": 14.666652,
          "velocity": 0.47244094488188976
        },
        {
          "duration": 1.3333320000000004,
          "durationTicks": 1536,
          "midi": 55,
          "name": "G3",
          "ticks": 16896,
          "time": 14.666652,
          "velocity": 0.47244094488188976
        },
        {
          "duration": 0.33333300000000143,
          "durationTicks": 384,
          "midi": 75,
          "name": "D#5",
          "ticks": 17280,
          "time": 14.999984999999999,
          "velocity": 0.47244094488188976
        },
        {
          "duration": 0.33333299999999966,
          "durationTicks": 384,
          "midi": 70,
          "name": "A#4",
          "ticks": 17664,
          "time": 15.333318,
          "velocity": 0.47244094488188976
        },
        {
          "duration": 0.33333299999999966,
          "durationTicks": 384,
          "midi": 67,
          "name": "G4",
          "ticks": 18048,
          "time": 15.666651,
          "velocity": 0.47244094488188976
        },
        {
          "duration": 2.666663999999999,
          "durationTicks": 3072,
          "midi": 56,
          "name": "G#3",
          "ticks": 18432,
          "time": 15.999984,
          "velocity": 0.47244094488188976
        },
        {
          "duration": 2.666663999999999,
          "durationTicks": 3072,
          "midi": 49,
          "name": "C#3",
          "ticks": 18432,
          "time": 15.999984,
          "velocity": 0.47244094488188976
        },
        {
          "duration": 0.16666649999999983,
          "durationTicks": 192,
          "midi": 68,
          "name": "G#4",
          "ticks": 18432,
          "time": 15.999984,
          "velocity": 0.47244094488188976
        },
        {
          "duration": 0.16666649999999805,
          "durationTicks": 192,
          "midi": 68,
          "name": "G#4",
          "ticks": 18816,
          "time": 16.333317,
          "velocity": 0.47244094488188976
        },
        {
          "duration": 0.1666665000000016,
          "durationTicks": 192,
          "midi": 70,
          "name": "A#4",
          "ticks": 19008,
          "time": 16.4999835,
          "velocity": 0.47244094488188976
        },
        {
          "duration": 0.16666649999999805,
          "durationTicks": 192,
          "midi": 72,
          "name": "C5",
          "ticks": 19200,
          "time": 16.66665,
          "velocity": 0.47244094488188976
        },
        {
          "duration": 0.16666649999999805,
          "durationTicks": 192,
          "midi": 68,
          "name": "G#4",
          "ticks": 19584,
          "time": 16.999983,
          "velocity": 0.47244094488188976
        },
        {
          "duration": 0.16666649999999805,
          "durationTicks": 192,
          "midi": 70,
          "name": "A#4",
          "ticks": 19968,
          "time": 17.333316,
          "velocity": 0.47244094488188976
        },
        {
          "duration": 0.1666665000000016,
          "durationTicks": 192,
          "midi": 70,
          "name": "A#4",
          "ticks": 20352,
          "time": 17.666649,
          "velocity": 0.47244094488188976
        },
        {
          "duration": 0.16666649999999805,
          "durationTicks": 192,
          "midi": 72,
          "name": "C5",
          "ticks": 20544,
          "time": 17.8333155,
          "velocity": 0.47244094488188976
        },
        {
          "duration": 0.1666665000000016,
          "durationTicks": 192,
          "midi": 67,
          "name": "G4",
          "ticks": 20736,
          "time": 17.999982,
          "velocity": 0.47244094488188976
        },
        {
          "duration": 0.1666665000000016,
          "durationTicks": 192,
          "midi": 63,
          "name": "D#4",
          "ticks": 21120,
          "time": 18.333315,
          "velocity": 0.47244094488188976
        },
        {
          "duration": 2.666664000000001,
          "durationTicks": 3072,
          "midi": 57,
          "name": "A3",
          "ticks": 21504,
          "time": 18.666648,
          "velocity": 0.47244094488188976
        },
        {
          "duration": 2.666664000000001,
          "durationTicks": 3072,
          "midi": 50,
          "name": "D3",
          "ticks": 21504,
          "time": 18.666648,
          "velocity": 0.47244094488188976
        },
        {
          "duration": 0.1666665000000016,
          "durationTicks": 192,
          "midi": 69,
          "name": "A4",
          "ticks": 21504,
          "time": 18.666648,
          "velocity": 0.47244094488188976
        },
        {
          "duration": 0.1666665000000016,
          "durationTicks": 192,
          "midi": 69,
          "name": "A4",
          "ticks": 21888,
          "time": 18.999981,
          "velocity": 0.47244094488188976
        },
        {
          "duration": 0.16666649999999805,
          "durationTicks": 192,
          "midi": 70,
          "name": "A#4",
          "ticks": 22080,
          "time": 19.1666475,
          "velocity": 0.47244094488188976
        },
        {
          "duration": 0.1666665000000016,
          "durationTicks": 192,
          "midi": 72,
          "name": "C5",
          "ticks": 22272,
          "time": 19.333313999999998,
          "velocity": 0.47244094488188976
        },
        {
          "duration": 0.16666649999999805,
          "durationTicks": 192,
          "midi": 77,
          "name": "F5",
          "ticks": 22656,
          "time": 19.666647,
          "velocity": 0.47244094488188976
        },
        {
          "duration": 0.33333299999999966,
          "durationTicks": 384,
          "midi": 76,
          "name": "E5",
          "ticks": 23040,
          "time": 19.99998,
          "velocity": 0.47244094488188976
        },
        {
          "duration": 0.33333299999999966,
          "durationTicks": 384,
          "midi": 69,
          "name": "A4",
          "ticks": 23040,
          "time": 19.99998,
          "velocity": 0.47244094488188976
        },
        {
          "duration": 0.33333299999999966,
          "durationTicks": 384,
          "midi": 74,
          "name": "D5",
          "ticks": 23424,
          "time": 20.333313,
          "velocity": 0.47244094488188976
        },
        {
          "duration": 0.33333299999999966,
          "durationTicks": 384,
          "midi": 79,
          "name": "G5",
          "ticks": 23424,
          "time": 20.333313,
          "velocity": 0.47244094488188976
        },
        {
          "duration": 0.6666659999999993,
          "durationTicks": 768,
          "midi": 72,
          "name": "C5",
          "ticks": 23808,
          "time": 20.666646,
          "velocity": 0.47244094488188976
        },
        {
          "duration": 0.6666659999999993,
          "durationTicks": 768,
          "midi": 77,
          "name": "F5",
          "ticks": 23808,
          "time": 20.666646,
          "velocity": 0.47244094488188976
        },
        {
          "duration": 0.08333324999999903,
          "durationTicks": 96,
          "midi": 34,
          "name": "A#1",
          "ticks": 24576,
          "time": 21.333312,
          "velocity": 0.47244094488188976
        },
        {
          "duration": 0.08333324999999903,
          "durationTicks": 96,
          "midi": 34,
          "name": "A#1",
          "ticks": 24768,
          "time": 21.4999785,
          "velocity": 0.47244094488188976
        },
        {
          "duration": 0.1666665000000016,
          "durationTicks": 192,
          "midi": 46,
          "name": "A#2",
          "ticks": 24960,
          "time": 21.666645,
          "velocity": 0.47244094488188976
        },
        {
          "duration": 0.08333324999999903,
          "durationTicks": 96,
          "midi": 34,
          "name": "A#1",
          "ticks": 25152,
          "time": 21.8333115,
          "velocity": 0.47244094488188976
        },
        {
          "duration": 0.08333324999999903,
          "durationTicks": 96,
          "midi": 34,
          "name": "A#1",
          "ticks": 25344,
          "time": 21.999978,
          "velocity": 0.47244094488188976
        },
        {
          "duration": 0.16666649999999805,
          "durationTicks": 192,
          "midi": 46,
          "name": "A#2",
          "ticks": 25536,
          "time": 22.1666445,
          "velocity": 0.47244094488188976
        },
        {
          "duration": 0.08333325000000258,
          "durationTicks": 96,
          "midi": 34,
          "name": "A#1",
          "ticks": 25728,
          "time": 22.333311,
          "velocity": 0.47244094488188976
        },
        {
          "duration": 0.08333324999999903,
          "durationTicks": 96,
          "midi": 34,
          "name": "A#1",
          "ticks": 25920,
          "time": 22.4999775,
          "velocity": 0.47244094488188976
        },
        {
          "duration": 0.08333325000000258,
          "durationTicks": 96,
          "midi": 34,
          "name": "A#1",
          "ticks": 26112,
          "time": 22.666643999999998,
          "velocity": 0.47244094488188976
        },
        {
          "duration": 0.08333324999999903,
          "durationTicks": 96,
          "midi": 34,
          "name": "A#1",
          "ticks": 26304,
          "time": 22.8333105,
          "velocity": 0.47244094488188976
        },
        {
          "duration": 0.1666665000000016,
          "durationTicks": 192,
          "midi": 46,
          "name": "A#2",
          "ticks": 26496,
          "time": 22.999976999999998,
          "velocity": 0.47244094488188976
        },
        {
          "duration": 0.08333324999999903,
          "durationTicks": 96,
          "midi": 34,
          "name": "A#1",
          "ticks": 26688,
          "time": 23.1666435,
          "velocity": 0.47244094488188976
        },
        {
          "duration": 0.08333324999999903,
          "durationTicks": 96,
          "midi": 34,
          "name": "A#1",
          "ticks": 26880,
          "time": 23.33331,
          "velocity": 0.47244094488188976
        },
        {
          "duration": 0.1666665000000016,
          "durationTicks": 192,
          "midi": 46,
          "name": "A#2",
          "ticks": 27072,
          "time": 23.4999765,
          "velocity": 0.47244094488188976
        },
        {
          "duration": 0.08333324999999903,
          "durationTicks": 96,
          "midi": 34,
          "name": "A#1",
          "ticks": 27264,
          "time": 23.666643,
          "velocity": 0.47244094488188976
        },
        {
          "duration": 0.08333324999999903,
          "durationTicks": 96,
          "midi": 34,
          "name": "A#1",
          "ticks": 27456,
          "time": 23.8333095,
          "velocity": 0.47244094488188976
        },
        {
          "duration": 0.08333324999999903,
          "durationTicks": 96,
          "midi": 36,
          "name": "C2",
          "ticks": 27648,
          "time": 23.999976,
          "velocity": 0.47244094488188976
        },
        {
          "duration": 0.08333325000000258,
          "durationTicks": 96,
          "midi": 36,
          "name": "C2",
          "ticks": 27840,
          "time": 24.1666425,
          "velocity": 0.47244094488188976
        },
        {
          "duration": 0.16666649999999805,
          "durationTicks": 192,
          "midi": 48,
          "name": "C3",
          "ticks": 28032,
          "time": 24.333309,
          "velocity": 0.47244094488188976
        },
        {
          "duration": 0.08333325000000258,
          "durationTicks": 96,
          "midi": 36,
          "name": "C2",
          "ticks": 28224,
          "time": 24.499975499999998,
          "velocity": 0.47244094488188976
        },
        {
          "duration": 0.08333324999999903,
          "durationTicks": 96,
          "midi": 36,
          "name": "C2",
          "ticks": 28416,
          "time": 24.666642,
          "velocity": 0.47244094488188976
        },
        {
          "duration": 0.1666665000000016,
          "durationTicks": 192,
          "midi": 48,
          "name": "C3",
          "ticks": 28608,
          "time": 24.833308499999998,
          "velocity": 0.47244094488188976
        },
        {
          "duration": 0.08333324999999903,
          "durationTicks": 96,
          "midi": 36,
          "name": "C2",
          "ticks": 28800,
          "time": 24.999975,
          "velocity": 0.47244094488188976
        },
        {
          "duration": 0.08333324999999903,
          "durationTicks": 96,
          "midi": 36,
          "name": "C2",
          "ticks": 28992,
          "time": 25.1666415,
          "velocity": 0.47244094488188976
        },
        {
          "duration": 0.08333324999999903,
          "durationTicks": 96,
          "midi": 36,
          "name": "C2",
          "ticks": 29184,
          "time": 25.333308,
          "velocity": 0.47244094488188976
        },
        {
          "duration": 0.08333324999999903,
          "durationTicks": 96,
          "midi": 36,
          "name": "C2",
          "ticks": 29376,
          "time": 25.4999745,
          "velocity": 0.47244094488188976
        },
        {
          "duration": 0.1666665000000016,
          "durationTicks": 192,
          "midi": 48,
          "name": "C3",
          "ticks": 29568,
          "time": 25.666641,
          "velocity": 0.47244094488188976
        },
        {
          "duration": 0.08333324999999903,
          "durationTicks": 96,
          "midi": 36,
          "name": "C2",
          "ticks": 29760,
          "time": 25.8333075,
          "velocity": 0.47244094488188976
        },
        {
          "duration": 0.08333325000000258,
          "durationTicks": 96,
          "midi": 36,
          "name": "C2",
          "ticks": 29952,
          "time": 25.999973999999998,
          "velocity": 0.47244094488188976
        },
        {
          "duration": 0.16666649999999805,
          "durationTicks": 192,
          "midi": 48,
          "name": "C3",
          "ticks": 30144,
          "time": 26.1666405,
          "velocity": 0.47244094488188976
        },
        {
          "duration": 0.08333325000000258,
          "durationTicks": 96,
          "midi": 36,
          "name": "C2",
          "ticks": 30336,
          "time": 26.333306999999998,
          "velocity": 0.47244094488188976
        },
        {
          "duration": 0.08333324999999903,
          "durationTicks": 96,
          "midi": 36,
          "name": "C2",
          "ticks": 30528,
          "time": 26.4999735,
          "velocity": 0.47244094488188976
        },
        {
          "duration": 0.08333324999999903,
          "durationTicks": 96,
          "midi": 37,
          "name": "C#2",
          "ticks": 30720,
          "time": 26.66664,
          "velocity": 0.47244094488188976
        },
        {
          "duration": 0.08333324999999903,
          "durationTicks": 96,
          "midi": 37,
          "name": "C#2",
          "ticks": 30912,
          "time": 26.8333065,
          "velocity": 0.47244094488188976
        },
        {
          "duration": 0.16666649999999805,
          "durationTicks": 192,
          "midi": 49,
          "name": "C#3",
          "ticks": 31104,
          "time": 26.999973,
          "velocity": 0.47244094488188976
        },
        {
          "duration": 0.08333324999999903,
          "durationTicks": 96,
          "midi": 37,
          "name": "C#2",
          "ticks": 31296,
          "time": 27.1666395,
          "velocity": 0.47244094488188976
        },
        {
          "duration": 0.08333324999999903,
          "durationTicks": 96,
          "midi": 37,
          "name": "C#2",
          "ticks": 31488,
          "time": 27.333306,
          "velocity": 0.47244094488188976
        },
        {
          "duration": 0.1666665000000016,
          "durationTicks": 192,
          "midi": 49,
          "name": "C#3",
          "ticks": 31680,
          "time": 27.4999725,
          "velocity": 0.47244094488188976
        },
        {
          "duration": 0.08333324999999903,
          "durationTicks": 96,
          "midi": 37,
          "name": "C#2",
          "ticks": 31872,
          "time": 27.666639,
          "velocity": 0.47244094488188976
        },
        {
          "duration": 0.08333325000000258,
          "durationTicks": 96,
          "midi": 37,
          "name": "C#2",
          "ticks": 32064,
          "time": 27.833305499999998,
          "velocity": 0.47244094488188976
        },
        {
          "duration": 0.08333324999999903,
          "durationTicks": 96,
          "midi": 37,
          "name": "C#2",
          "ticks": 32256,
          "time": 27.999972,
          "velocity": 0.47244094488188976
        },
        {
          "duration": 0.08333325000000258,
          "durationTicks": 96,
          "midi": 37,
          "name": "C#2",
          "ticks": 32448,
          "time": 28.166638499999998,
          "velocity": 0.47244094488188976
        },
        {
          "duration": 0.1666665000000016,
          "durationTicks": 192,
          "midi": 49,
          "name": "C#3",
          "ticks": 32640,
          "time": 28.333305,
          "velocity": 0.47244094488188976
        },
        {
          "duration": 0.08333324999999903,
          "durationTicks": 96,
          "midi": 37,
          "name": "C#2",
          "ticks": 32832,
          "time": 28.4999715,
          "velocity": 0.47244094488188976
        },
        {
          "duration": 0.08333324999999903,
          "durationTicks": 96,
          "midi": 37,
          "name": "C#2",
          "ticks": 33024,
          "time": 28.666638,
          "velocity": 0.47244094488188976
        },
        {
          "duration": 0.16666649999999805,
          "durationTicks": 192,
          "midi": 49,
          "name": "C#3",
          "ticks": 33216,
          "time": 28.8333045,
          "velocity": 0.47244094488188976
        },
        {
          "duration": 0.08333324999999903,
          "durationTicks": 96,
          "midi": 37,
          "name": "C#2",
          "ticks": 33408,
          "time": 28.999971,
          "velocity": 0.47244094488188976
        },
        {
          "duration": 0.08333324999999903,
          "durationTicks": 96,
          "midi": 37,
          "name": "C#2",
          "ticks": 33600,
          "time": 29.1666375,
          "velocity": 0.47244094488188976
        },
        {
          "duration": 0.08333325000000258,
          "durationTicks": 96,
          "midi": 38,
          "name": "D2",
          "ticks": 33792,
          "time": 29.333304,
          "velocity": 0.47244094488188976
        },
        {
          "duration": 0.08333324999999903,
          "durationTicks": 96,
          "midi": 38,
          "name": "D2",
          "ticks": 33984,
          "time": 29.4999705,
          "velocity": 0.47244094488188976
        },
        {
          "duration": 0.1666665000000016,
          "durationTicks": 192,
          "midi": 50,
          "name": "D3",
          "ticks": 34176,
          "time": 29.666636999999998,
          "velocity": 0.47244094488188976
        },
        {
          "duration": 0.08333324999999903,
          "durationTicks": 96,
          "midi": 38,
          "name": "D2",
          "ticks": 34368,
          "time": 29.8333035,
          "velocity": 0.47244094488188976
        },
        {
          "duration": 0.08333325000000258,
          "durationTicks": 96,
          "midi": 38,
          "name": "D2",
          "ticks": 34560,
          "time": 29.999969999999998,
          "velocity": 0.47244094488188976
        },
        {
          "duration": 0.1666665000000016,
          "durationTicks": 192,
          "midi": 50,
          "name": "D3",
          "ticks": 34752,
          "time": 30.1666365,
          "velocity": 0.47244094488188976
        },
        {
          "duration": 0.08333324999999903,
          "durationTicks": 96,
          "midi": 38,
          "name": "D2",
          "ticks": 34944,
          "time": 30.333303,
          "velocity": 0.47244094488188976
        },
        {
          "duration": 0.08333324999999903,
          "durationTicks": 96,
          "midi": 38,
          "name": "D2",
          "ticks": 35136,
          "time": 30.4999695,
          "velocity": 0.47244094488188976
        },
        {
          "duration": 0.08333324999999903,
          "durationTicks": 96,
          "midi": 38,
          "name": "D2",
          "ticks": 35328,
          "time": 30.666636,
          "velocity": 0.47244094488188976
        },
        {
          "duration": 0.08333324999999903,
          "durationTicks": 96,
          "midi": 38,
          "name": "D2",
          "ticks": 35520,
          "time": 30.8333025,
          "velocity": 0.47244094488188976
        },
        {
          "duration": 0.16666649999999805,
          "durationTicks": 192,
          "midi": 50,
          "name": "D3",
          "ticks": 35712,
          "time": 30.999969,
          "velocity": 0.47244094488188976
        },
        {
          "duration": 0.08333325000000258,
          "durationTicks": 96,
          "midi": 38,
          "name": "D2",
          "ticks": 35904,
          "time": 31.166635499999998,
          "velocity": 0.47244094488188976
        },
        {
          "duration": 0.08333324999999903,
          "durationTicks": 96,
          "midi": 38,
          "name": "D2",
          "ticks": 36096,
          "time": 31.333302,
          "velocity": 0.47244094488188976
        },
        {
          "duration": 0.1666665000000016,
          "durationTicks": 192,
          "midi": 50,
          "name": "D3",
          "ticks": 36288,
          "time": 31.499968499999998,
          "velocity": 0.47244094488188976
        },
        {
          "duration": 0.08333324999999903,
          "durationTicks": 96,
          "midi": 38,
          "name": "D2",
          "ticks": 36480,
          "time": 31.666635,
          "velocity": 0.47244094488188976
        },
        {
          "duration": 0.08333325000000258,
          "durationTicks": 96,
          "midi": 38,
          "name": "D2",
          "ticks": 36672,
          "time": 31.833301499999997,
          "velocity": 0.47244094488188976
        },
        {
          "duration": 0.08333324999999903,
          "durationTicks": 96,
          "midi": 34,
          "name": "A#1",
          "ticks": 36864,
          "time": 31.999968,
          "velocity": 0.47244094488188976
        },
        {
          "duration": 0.08333324999999547,
          "durationTicks": 96,
          "midi": 34,
          "name": "A#1",
          "ticks": 37056,
          "time": 32.1666345,
          "velocity": 0.47244094488188976
        },
        {
          "duration": 0.16666649999999805,
          "durationTicks": 192,
          "midi": 46,
          "name": "A#2",
          "ticks": 37248,
          "time": 32.333301,
          "velocity": 0.47244094488188976
        },
        {
          "duration": 0.08333325000000258,
          "durationTicks": 96,
          "midi": 34,
          "name": "A#1",
          "ticks": 37440,
          "time": 32.4999675,
          "velocity": 0.47244094488188976
        },
        {
          "duration": 0.08333324999999547,
          "durationTicks": 96,
          "midi": 34,
          "name": "A#1",
          "ticks": 37632,
          "time": 32.666634,
          "velocity": 0.47244094488188976
        },
        {
          "duration": 0.16666649999999805,
          "durationTicks": 192,
          "midi": 46,
          "name": "A#2",
          "ticks": 37824,
          "time": 32.8333005,
          "velocity": 0.47244094488188976
        },
        {
          "duration": 0.08333325000000258,
          "durationTicks": 96,
          "midi": 34,
          "name": "A#1",
          "ticks": 38016,
          "time": 32.999967,
          "velocity": 0.47244094488188976
        },
        {
          "duration": 0.08333325000000258,
          "durationTicks": 96,
          "midi": 34,
          "name": "A#1",
          "ticks": 38208,
          "time": 33.166633499999996,
          "velocity": 0.47244094488188976
        },
        {
          "duration": 0.08333324999999547,
          "durationTicks": 96,
          "midi": 34,
          "name": "A#1",
          "ticks": 38400,
          "time": 33.3333,
          "velocity": 0.47244094488188976
        },
        {
          "duration": 0.08333325000000258,
          "durationTicks": 96,
          "midi": 34,
          "name": "A#1",
          "ticks": 38592,
          "time": 33.4999665,
          "velocity": 0.47244094488188976
        },
        {
          "duration": 0.16666650000000516,
          "durationTicks": 192,
          "midi": 46,
          "name": "A#2",
          "ticks": 38784,
          "time": 33.666633,
          "velocity": 0.47244094488188976
        },
        {
          "duration": 0.08333324999999547,
          "durationTicks": 96,
          "midi": 34,
          "name": "A#1",
          "ticks": 38976,
          "time": 33.8332995,
          "velocity": 0.47244094488188976
        },
        {
          "duration": 0.08333324999999547,
          "durationTicks": 96,
          "midi": 34,
          "name": "A#1",
          "ticks": 39168,
          "time": 33.999966,
          "velocity": 0.47244094488188976
        },
        {
          "duration": 0.16666649999999805,
          "durationTicks": 192,
          "midi": 46,
          "name": "A#2",
          "ticks": 39360,
          "time": 34.1666325,
          "velocity": 0.47244094488188976
        },
        {
          "duration": 0.08333325000000258,
          "durationTicks": 96,
          "midi": 34,
          "name": "A#1",
          "ticks": 39552,
          "time": 34.333299,
          "velocity": 0.47244094488188976
        },
        {
          "duration": 0.08333324999999547,
          "durationTicks": 96,
          "midi": 34,
          "name": "A#1",
          "ticks": 39744,
          "time": 34.4999655,
          "velocity": 0.47244094488188976
        },
        {
          "duration": 0.08333325000000258,
          "durationTicks": 96,
          "midi": 36,
          "name": "C2",
          "ticks": 39936,
          "time": 34.666632,
          "velocity": 0.47244094488188976
        },
        {
          "duration": 0.08333325000000258,
          "durationTicks": 96,
          "midi": 36,
          "name": "C2",
          "ticks": 40128,
          "time": 34.8332985,
          "velocity": 0.47244094488188976
        },
        {
          "duration": 0.16666650000000516,
          "durationTicks": 192,
          "midi": 48,
          "name": "C3",
          "ticks": 40320,
          "time": 34.999964999999996,
          "velocity": 0.47244094488188976
        },
        {
          "duration": 0.08333324999999547,
          "durationTicks": 96,
          "midi": 36,
          "name": "C2",
          "ticks": 40512,
          "time": 35.1666315,
          "velocity": 0.47244094488188976
        },
        {
          "duration": 0.08333325000000258,
          "durationTicks": 96,
          "midi": 36,
          "name": "C2",
          "ticks": 40704,
          "time": 35.333298,
          "velocity": 0.47244094488188976
        },
        {
          "duration": 0.16666650000000516,
          "durationTicks": 192,
          "midi": 48,
          "name": "C3",
          "ticks": 40896,
          "time": 35.4999645,
          "velocity": 0.47244094488188976
        },
        {
          "duration": 0.08333324999999547,
          "durationTicks": 96,
          "midi": 36,
          "name": "C2",
          "ticks": 41088,
          "time": 35.666631,
          "velocity": 0.47244094488188976
        },
        {
          "duration": 0.08333324999999547,
          "durationTicks": 96,
          "midi": 36,
          "name": "C2",
          "ticks": 41280,
          "time": 35.8332975,
          "velocity": 0.47244094488188976
        },
        {
          "duration": 0.08333325000000258,
          "durationTicks": 96,
          "midi": 36,
          "name": "C2",
          "ticks": 41472,
          "time": 35.999964,
          "velocity": 0.47244094488188976
        },
        {
          "duration": 0.08333325000000258,
          "durationTicks": 96,
          "midi": 36,
          "name": "C2",
          "ticks": 41664,
          "time": 36.1666305,
          "velocity": 0.47244094488188976
        },
        {
          "duration": 0.16666649999999805,
          "durationTicks": 192,
          "midi": 48,
          "name": "C3",
          "ticks": 41856,
          "time": 36.333297,
          "velocity": 0.47244094488188976
        },
        {
          "duration": 0.08333325000000258,
          "durationTicks": 96,
          "midi": 36,
          "name": "C2",
          "ticks": 42048,
          "time": 36.4999635,
          "velocity": 0.47244094488188976
        },
        {
          "duration": 0.08333325000000258,
          "durationTicks": 96,
          "midi": 36,
          "name": "C2",
          "ticks": 42240,
          "time": 36.66663,
          "velocity": 0.47244094488188976
        },
        {
          "duration": 0.16666650000000516,
          "durationTicks": 192,
          "midi": 48,
          "name": "C3",
          "ticks": 42432,
          "time": 36.833296499999996,
          "velocity": 0.47244094488188976
        },
        {
          "duration": 0.08333324999999547,
          "durationTicks": 96,
          "midi": 36,
          "name": "C2",
          "ticks": 42624,
          "time": 36.999963,
          "velocity": 0.47244094488188976
        },
        {
          "duration": 0.08333325000000258,
          "durationTicks": 96,
          "midi": 36,
          "name": "C2",
          "ticks": 42816,
          "time": 37.1666295,
          "velocity": 0.47244094488188976
        },
        {
          "duration": 0.08333325000000258,
          "durationTicks": 96,
          "midi": 37,
          "name": "C#2",
          "ticks": 43008,
          "time": 37.333296,
          "velocity": 0.47244094488188976
        },
        {
          "duration": 0.08333324999999547,
          "durationTicks": 96,
          "midi": 37,
          "name": "C#2",
          "ticks": 43200,
          "time": 37.4999625,
          "velocity": 0.47244094488188976
        },
        {
          "duration": 0.16666649999999805,
          "durationTicks": 192,
          "midi": 49,
          "name": "C#3",
          "ticks": 43392,
          "time": 37.666629,
          "velocity": 0.47244094488188976
        },
        {
          "duration": 0.08333325000000258,
          "durationTicks": 96,
          "midi": 37,
          "name": "C#2",
          "ticks": 43584,
          "time": 37.8332955,
          "velocity": 0.47244094488188976
        },
        {
          "duration": 0.08333325000000258,
          "durationTicks": 96,
          "midi": 37,
          "name": "C#2",
          "ticks": 43776,
          "time": 37.999962,
          "velocity": 0.47244094488188976
        },
        {
          "duration": 0.16666649999999805,
          "durationTicks": 192,
          "midi": 49,
          "name": "C#3",
          "ticks": 43968,
          "time": 38.1666285,
          "velocity": 0.47244094488188976
        },
        {
          "duration": 0.08333325000000258,
          "durationTicks": 96,
          "midi": 37,
          "name": "C#2",
          "ticks": 44160,
          "time": 38.333295,
          "velocity": 0.47244094488188976
        },
        {
          "duration": 0.08333325000000258,
          "durationTicks": 96,
          "midi": 37,
          "name": "C#2",
          "ticks": 44352,
          "time": 38.4999615,
          "velocity": 0.47244094488188976
        },
        {
          "duration": 0.08333325000000258,
          "durationTicks": 96,
          "midi": 37,
          "name": "C#2",
          "ticks": 44544,
          "time": 38.666627999999996,
          "velocity": 0.47244094488188976
        },
        {
          "duration": 0.08333324999999547,
          "durationTicks": 96,
          "midi": 37,
          "name": "C#2",
          "ticks": 44736,
          "time": 38.8332945,
          "velocity": 0.47244094488188976
        },
        {
          "duration": 0.16666649999999805,
          "durationTicks": 192,
          "midi": 49,
          "name": "C#3",
          "ticks": 44928,
          "time": 38.999961,
          "velocity": 0.47244094488188976
        },
        {
          "duration": 0.08333325000000258,
          "durationTicks": 96,
          "midi": 37,
          "name": "C#2",
          "ticks": 45120,
          "time": 39.1666275,
          "velocity": 0.47244094488188976
        },
        {
          "duration": 0.08333324999999547,
          "durationTicks": 96,
          "midi": 37,
          "name": "C#2",
          "ticks": 45312,
          "time": 39.333294,
          "velocity": 0.47244094488188976
        },
        {
          "duration": 0.16666649999999805,
          "durationTicks": 192,
          "midi": 49,
          "name": "C#3",
          "ticks": 45504,
          "time": 39.4999605,
          "velocity": 0.47244094488188976
        },
        {
          "duration": 0.08333325000000258,
          "durationTicks": 96,
          "midi": 37,
          "name": "C#2",
          "ticks": 45696,
          "time": 39.666627,
          "velocity": 0.47244094488188976
        },
        {
          "duration": 0.08333325000000258,
          "durationTicks": 96,
          "midi": 37,
          "name": "C#2",
          "ticks": 45888,
          "time": 39.833293499999996,
          "velocity": 0.47244094488188976
        },
        {
          "duration": 0.08333324999999547,
          "durationTicks": 96,
          "midi": 38,
          "name": "D2",
          "ticks": 46080,
          "time": 39.99996,
          "velocity": 0.47244094488188976
        },
        {
          "duration": 0.08333325000000258,
          "durationTicks": 96,
          "midi": 38,
          "name": "D2",
          "ticks": 46272,
          "time": 40.1666265,
          "velocity": 0.47244094488188976
        },
        {
          "duration": 0.16666649999999805,
          "durationTicks": 192,
          "midi": 50,
          "name": "D3",
          "ticks": 46464,
          "time": 40.333293,
          "velocity": 0.47244094488188976
        },
        {
          "duration": 0.08333325000000258,
          "durationTicks": 96,
          "midi": 38,
          "name": "D2",
          "ticks": 46656,
          "time": 40.499959499999996,
          "velocity": 0.47244094488188976
        },
        {
          "duration": 0.08333324999999547,
          "durationTicks": 96,
          "midi": 38,
          "name": "D2",
          "ticks": 46848,
          "time": 40.666626,
          "velocity": 0.47244094488188976
        },
        {
          "duration": 0.16666649999999805,
          "durationTicks": 192,
          "midi": 50,
          "name": "D3",
          "ticks": 47040,
          "time": 40.8332925,
          "velocity": 0.47244094488188976
        },
        {
          "duration": 0.08333325000000258,
          "durationTicks": 96,
          "midi": 38,
          "name": "D2",
          "ticks": 47232,
          "time": 40.999959,
          "velocity": 0.47244094488188976
        },
        {
          "duration": 0.08333324999999547,
          "durationTicks": 96,
          "midi": 38,
          "name": "D2",
          "ticks": 47424,
          "time": 41.1666255,
          "velocity": 0.47244094488188976
        },
        {
          "duration": 0.08333324999999547,
          "durationTicks": 96,
          "midi": 38,
          "name": "D2",
          "ticks": 47616,
          "time": 41.333292,
          "velocity": 0.47244094488188976
        },
        {
          "duration": 0.08333325000000258,
          "durationTicks": 96,
          "midi": 38,
          "name": "D2",
          "ticks": 47808,
          "time": 41.4999585,
          "velocity": 0.47244094488188976
        },
        {
          "duration": 0.16666650000000516,
          "durationTicks": 192,
          "midi": 50,
          "name": "D3",
          "ticks": 48000,
          "time": 41.666624999999996,
          "velocity": 0.47244094488188976
        },
        {
          "duration": 0.08333324999999547,
          "durationTicks": 96,
          "midi": 38,
          "name": "D2",
          "ticks": 48192,
          "time": 41.8332915,
          "velocity": 0.47244094488188976
        },
        {
          "duration": 0.08333325000000258,
          "durationTicks": 96,
          "midi": 38,
          "name": "D2",
          "ticks": 48384,
          "time": 41.999958,
          "velocity": 0.47244094488188976
        },
        {
          "duration": 0.16666649999999805,
          "durationTicks": 192,
          "midi": 50,
          "name": "D3",
          "ticks": 48576,
          "time": 42.1666245,
          "velocity": 0.47244094488188976
        },
        {
          "duration": 0.08333325000000258,
          "durationTicks": 96,
          "midi": 38,
          "name": "D2",
          "ticks": 48768,
          "time": 42.333290999999996,
          "velocity": 0.47244094488188976
        },
        {
          "duration": 0.08333324999999547,
          "durationTicks": 96,
          "midi": 38,
          "name": "D2",
          "ticks": 48960,
          "time": 42.4999575,
          "velocity": 0.47244094488188976
        },
        {
          "duration": 0.08333325000000258,
          "durationTicks": 96,
          "midi": 34,
          "name": "A#1",
          "ticks": 49152,
          "time": 42.666624,
          "velocity": 0.47244094488188976
        },
        {
          "duration": 0.08333325000000258,
          "durationTicks": 96,
          "midi": 34,
          "name": "A#1",
          "ticks": 49344,
          "time": 42.8332905,
          "velocity": 0.47244094488188976
        },
        {
          "duration": 0.16666649999999805,
          "durationTicks": 192,
          "midi": 46,
          "name": "A#2",
          "ticks": 49536,
          "time": 42.999957,
          "velocity": 0.47244094488188976
        },
        {
          "duration": 0.08333324999999547,
          "durationTicks": 96,
          "midi": 34,
          "name": "A#1",
          "ticks": 49728,
          "time": 43.1666235,
          "velocity": 0.47244094488188976
        },
        {
          "duration": 0.08333325000000258,
          "durationTicks": 96,
          "midi": 34,
          "name": "A#1",
          "ticks": 49920,
          "time": 43.33329,
          "velocity": 0.47244094488188976
        },
        {
          "duration": 0.16666650000000516,
          "durationTicks": 192,
          "midi": 46,
          "name": "A#2",
          "ticks": 50112,
          "time": 43.499956499999996,
          "velocity": 0.47244094488188976
        },
        {
          "duration": 0.08333324999999547,
          "durationTicks": 96,
          "midi": 34,
          "name": "A#1",
          "ticks": 50304,
          "time": 43.666623,
          "velocity": 0.47244094488188976
        },
        {
          "duration": 0.08333325000000258,
          "durationTicks": 96,
          "midi": 34,
          "name": "A#1",
          "ticks": 50496,
          "time": 43.8332895,
          "velocity": 0.47244094488188976
        },
        {
          "duration": 0.08333325000000258,
          "durationTicks": 96,
          "midi": 34,
          "name": "A#1",
          "ticks": 50688,
          "time": 43.999956,
          "velocity": 0.47244094488188976
        },
        {
          "duration": 0.08333325000000258,
          "durationTicks": 96,
          "midi": 34,
          "name": "A#1",
          "ticks": 50880,
          "time": 44.166622499999995,
          "velocity": 0.47244094488188976
        },
        {
          "duration": 0.16666649999999805,
          "durationTicks": 192,
          "midi": 46,
          "name": "A#2",
          "ticks": 51072,
          "time": 44.333289,
          "velocity": 0.47244094488188976
        },
        {
          "duration": 0.08333325000000258,
          "durationTicks": 96,
          "midi": 34,
          "name": "A#1",
          "ticks": 51264,
          "time": 44.4999555,
          "velocity": 0.47244094488188976
        },
        {
          "duration": 0.08333325000000258,
          "durationTicks": 96,
          "midi": 34,
          "name": "A#1",
          "ticks": 51456,
          "time": 44.666622,
          "velocity": 0.47244094488188976
        },
        {
          "duration": 0.16666649999999805,
          "durationTicks": 192,
          "midi": 46,
          "name": "A#2",
          "ticks": 51648,
          "time": 44.8332885,
          "velocity": 0.47244094488188976
        },
        {
          "duration": 0.08333324999999547,
          "durationTicks": 96,
          "midi": 34,
          "name": "A#1",
          "ticks": 51840,
          "time": 44.999955,
          "velocity": 0.47244094488188976
        },
        {
          "duration": 0.08333325000000258,
          "durationTicks": 96,
          "midi": 34,
          "name": "A#1",
          "ticks": 52032,
          "time": 45.1666215,
          "velocity": 0.47244094488188976
        },
        {
          "duration": 0.08333325000000258,
          "durationTicks": 96,
          "midi": 36,
          "name": "C2",
          "ticks": 52224,
          "time": 45.333287999999996,
          "velocity": 0.47244094488188976
        },
        {
          "duration": 0.08333324999999547,
          "durationTicks": 96,
          "midi": 36,
          "name": "C2",
          "ticks": 52416,
          "time": 45.4999545,
          "velocity": 0.47244094488188976
        },
        {
          "duration": 0.16666649999999805,
          "durationTicks": 192,
          "midi": 48,
          "name": "C3",
          "ticks": 52608,
          "time": 45.666621,
          "velocity": 0.47244094488188976
        },
        {
          "duration": 0.08333325000000258,
          "durationTicks": 96,
          "midi": 36,
          "name": "C2",
          "ticks": 52800,
          "time": 45.8332875,
          "velocity": 0.47244094488188976
        },
        {
          "duration": 0.08333325000000258,
          "durationTicks": 96,
          "midi": 36,
          "name": "C2",
          "ticks": 52992,
          "time": 45.999953999999995,
          "velocity": 0.47244094488188976
        },
        {
          "duration": 0.16666649999999805,
          "durationTicks": 192,
          "midi": 48,
          "name": "C3",
          "ticks": 53184,
          "time": 46.1666205,
          "velocity": 0.47244094488188976
        },
        {
          "duration": 0.08333325000000258,
          "durationTicks": 96,
          "midi": 36,
          "name": "C2",
          "ticks": 53376,
          "time": 46.333287,
          "velocity": 0.47244094488188976
        },
        {
          "duration": 0.08333325000000258,
          "durationTicks": 96,
          "midi": 36,
          "name": "C2",
          "ticks": 53568,
          "time": 46.4999535,
          "velocity": 0.47244094488188976
        },
        {
          "duration": 0.08333324999999547,
          "durationTicks": 96,
          "midi": 36,
          "name": "C2",
          "ticks": 53760,
          "time": 46.66662,
          "velocity": 0.47244094488188976
        },
        {
          "duration": 0.08333324999999547,
          "durationTicks": 96,
          "midi": 36,
          "name": "C2",
          "ticks": 53952,
          "time": 46.8332865,
          "velocity": 0.47244094488188976
        },
        {
          "duration": 0.16666649999999805,
          "durationTicks": 192,
          "midi": 48,
          "name": "C3",
          "ticks": 54144,
          "time": 46.999953,
          "velocity": 0.47244094488188976
        },
        {
          "duration": 0.08333325000000258,
          "durationTicks": 96,
          "midi": 36,
          "name": "C2",
          "ticks": 54336,
          "time": 47.166619499999996,
          "velocity": 0.47244094488188976
        },
        {
          "duration": 0.08333324999999547,
          "durationTicks": 96,
          "midi": 36,
          "name": "C2",
          "ticks": 54528,
          "time": 47.333286,
          "velocity": 0.47244094488188976
        },
        {
          "duration": 0.16666649999999805,
          "durationTicks": 192,
          "midi": 48,
          "name": "C3",
          "ticks": 54720,
          "time": 47.4999525,
          "velocity": 0.47244094488188976
        },
        {
          "duration": 0.08333325000000258,
          "durationTicks": 96,
          "midi": 36,
          "name": "C2",
          "ticks": 54912,
          "time": 47.666619,
          "velocity": 0.47244094488188976
        },
        {
          "duration": 0.08333325000000258,
          "durationTicks": 96,
          "midi": 36,
          "name": "C2",
          "ticks": 55104,
          "time": 47.833285499999995,
          "velocity": 0.47244094488188976
        },
        {
          "duration": 0.08333324999999547,
          "durationTicks": 96,
          "midi": 37,
          "name": "C#2",
          "ticks": 55296,
          "time": 47.999952,
          "velocity": 0.47244094488188976
        },
        {
          "duration": 0.08333325000000258,
          "durationTicks": 96,
          "midi": 37,
          "name": "C#2",
          "ticks": 55488,
          "time": 48.1666185,
          "velocity": 0.47244094488188976
        },
        {
          "duration": 0.16666650000000516,
          "durationTicks": 192,
          "midi": 49,
          "name": "C#3",
          "ticks": 55680,
          "time": 48.333285,
          "velocity": 0.47244094488188976
        },
        {
          "duration": 0.08333324999999547,
          "durationTicks": 96,
          "midi": 37,
          "name": "C#2",
          "ticks": 55872,
          "time": 48.4999515,
          "velocity": 0.47244094488188976
        },
        {
          "duration": 0.08333324999999547,
          "durationTicks": 96,
          "midi": 37,
          "name": "C#2",
          "ticks": 56064,
          "time": 48.666618,
          "velocity": 0.47244094488188976
        },
        {
          "duration": 0.16666649999999805,
          "durationTicks": 192,
          "midi": 49,
          "name": "C#3",
          "ticks": 56256,
          "time": 48.8332845,
          "velocity": 0.47244094488188976
        },
        {
          "duration": 0.08333325000000258,
          "durationTicks": 96,
          "midi": 37,
          "name": "C#2",
          "ticks": 56448,
          "time": 48.999950999999996,
          "velocity": 0.47244094488188976
        },
        {
          "duration": 0.08333324999999547,
          "durationTicks": 96,
          "midi": 37,
          "name": "C#2",
          "ticks": 56640,
          "time": 49.1666175,
          "velocity": 0.47244094488188976
        },
        {
          "duration": 0.08333325000000258,
          "durationTicks": 96,
          "midi": 37,
          "name": "C#2",
          "ticks": 56832,
          "time": 49.333284,
          "velocity": 0.47244094488188976
        },
        {
          "duration": 0.08333325000000258,
          "durationTicks": 96,
          "midi": 37,
          "name": "C#2",
          "ticks": 57024,
          "time": 49.4999505,
          "velocity": 0.47244094488188976
        },
        {
          "duration": 0.16666650000000516,
          "durationTicks": 192,
          "midi": 49,
          "name": "C#3",
          "ticks": 57216,
          "time": 49.666616999999995,
          "velocity": 0.47244094488188976
        },
        {
          "duration": 0.08333324999999547,
          "durationTicks": 96,
          "midi": 37,
          "name": "C#2",
          "ticks": 57408,
          "time": 49.8332835,
          "velocity": 0.47244094488188976
        },
        {
          "duration": 0.08333325000000258,
          "durationTicks": 96,
          "midi": 37,
          "name": "C#2",
          "ticks": 57600,
          "time": 49.99995,
          "velocity": 0.47244094488188976
        },
        {
          "duration": 0.16666650000000516,
          "durationTicks": 192,
          "midi": 49,
          "name": "C#3",
          "ticks": 57792,
          "time": 50.166616499999996,
          "velocity": 0.47244094488188976
        },
        {
          "duration": 0.08333324999999547,
          "durationTicks": 96,
          "midi": 37,
          "name": "C#2",
          "ticks": 57984,
          "time": 50.333283,
          "velocity": 0.47244094488188976
        },
        {
          "duration": 0.08333324999999547,
          "durationTicks": 96,
          "midi": 37,
          "name": "C#2",
          "ticks": 58176,
          "time": 50.4999495,
          "velocity": 0.47244094488188976
        },
        {
          "duration": 0.08333325000000258,
          "durationTicks": 96,
          "midi": 38,
          "name": "D2",
          "ticks": 58368,
          "time": 50.666616,
          "velocity": 0.47244094488188976
        },
        {
          "duration": 0.08333325000000258,
          "durationTicks": 96,
          "midi": 38,
          "name": "D2",
          "ticks": 58560,
          "time": 50.833282499999996,
          "velocity": 0.47244094488188976
        },
        {
          "duration": 0.16666649999999805,
          "durationTicks": 192,
          "midi": 50,
          "name": "D3",
          "ticks": 58752,
          "time": 50.999949,
          "velocity": 0.47244094488188976
        },
        {
          "duration": 0.08333325000000258,
          "durationTicks": 96,
          "midi": 38,
          "name": "D2",
          "ticks": 58944,
          "time": 51.1666155,
          "velocity": 0.47244094488188976
        },
        {
          "duration": 0.08333325000000258,
          "durationTicks": 96,
          "midi": 38,
          "name": "D2",
          "ticks": 59136,
          "time": 51.333282,
          "velocity": 0.47244094488188976
        },
        {
          "duration": 0.16666650000000516,
          "durationTicks": 192,
          "midi": 50,
          "name": "D3",
          "ticks": 59328,
          "time": 51.499948499999995,
          "velocity": 0.47244094488188976
        },
        {
          "duration": 0.08333324999999547,
          "durationTicks": 96,
          "midi": 38,
          "name": "D2",
          "ticks": 59520,
          "time": 51.666615,
          "velocity": 0.47244094488188976
        },
        {
          "duration": 0.08333325000000258,
          "durationTicks": 96,
          "midi": 38,
          "name": "D2",
          "ticks": 59712,
          "time": 51.8332815,
          "velocity": 0.47244094488188976
        },
        {
          "duration": 0.08333325000000258,
          "durationTicks": 96,
          "midi": 38,
          "name": "D2",
          "ticks": 59904,
          "time": 51.999947999999996,
          "velocity": 0.47244094488188976
        },
        {
          "duration": 0.08333324999999547,
          "durationTicks": 96,
          "midi": 38,
          "name": "D2",
          "ticks": 60096,
          "time": 52.1666145,
          "velocity": 0.47244094488188976
        },
        {
          "duration": 0.16666649999999805,
          "durationTicks": 192,
          "midi": 50,
          "name": "D3",
          "ticks": 60288,
          "time": 52.333281,
          "velocity": 0.47244094488188976
        },
        {
          "duration": 0.08333325000000258,
          "durationTicks": 96,
          "midi": 38,
          "name": "D2",
          "ticks": 60480,
          "time": 52.4999475,
          "velocity": 0.47244094488188976
        },
        {
          "duration": 0.08333325000000258,
          "durationTicks": 96,
          "midi": 38,
          "name": "D2",
          "ticks": 60672,
          "time": 52.666613999999996,
          "velocity": 0.47244094488188976
        },
        {
          "duration": 0.16666649999999805,
          "durationTicks": 192,
          "midi": 50,
          "name": "D3",
          "ticks": 60864,
          "time": 52.8332805,
          "velocity": 0.47244094488188976
        },
        {
          "duration": 0.08333325000000258,
          "durationTicks": 96,
          "midi": 38,
          "name": "D2",
          "ticks": 61056,
          "time": 52.999947,
          "velocity": 0.47244094488188976
        },
        {
          "duration": 0.08333325000000258,
          "durationTicks": 96,
          "midi": 38,
          "name": "D2",
          "ticks": 61248,
          "time": 53.1666135,
          "velocity": 0.47244094488188976
        },
        {
          "duration": 0.08333324999999547,
          "durationTicks": 96,
          "midi": 34,
          "name": "A#1",
          "ticks": 61440,
          "time": 53.33328,
          "velocity": 0.47244094488188976
        },
        {
          "duration": 0.08333324999999547,
          "durationTicks": 96,
          "midi": 34,
          "name": "A#1",
          "ticks": 61632,
          "time": 53.4999465,
          "velocity": 0.47244094488188976
        },
        {
          "duration": 0.16666649999999805,
          "durationTicks": 192,
          "midi": 46,
          "name": "A#2",
          "ticks": 61824,
          "time": 53.666613,
          "velocity": 0.47244094488188976
        },
        {
          "duration": 0.08333325000000258,
          "durationTicks": 96,
          "midi": 34,
          "name": "A#1",
          "ticks": 62016,
          "time": 53.833279499999996,
          "velocity": 0.47244094488188976
        },
        {
          "duration": 0.08333324999999547,
          "durationTicks": 96,
          "midi": 34,
          "name": "A#1",
          "ticks": 62208,
          "time": 53.999946,
          "velocity": 0.47244094488188976
        },
        {
          "duration": 0.16666649999999805,
          "durationTicks": 192,
          "midi": 46,
          "name": "A#2",
          "ticks": 62400,
          "time": 54.1666125,
          "velocity": 0.47244094488188976
        },
        {
          "duration": 0.08333325000000258,
          "durationTicks": 96,
          "midi": 34,
          "name": "A#1",
          "ticks": 62592,
          "time": 54.333279,
          "velocity": 0.47244094488188976
        },
        {
          "duration": 0.08333325000000258,
          "durationTicks": 96,
          "midi": 34,
          "name": "A#1",
          "ticks": 62784,
          "time": 54.499945499999995,
          "velocity": 0.47244094488188976
        },
        {
          "duration": 0.08333324999999547,
          "durationTicks": 96,
          "midi": 34,
          "name": "A#1",
          "ticks": 62976,
          "time": 54.666612,
          "velocity": 0.47244094488188976
        },
        {
          "duration": 0.08333325000000258,
          "durationTicks": 96,
          "midi": 34,
          "name": "A#1",
          "ticks": 63168,
          "time": 54.8332785,
          "velocity": 0.47244094488188976
        },
        {
          "duration": 0.16666650000000516,
          "durationTicks": 192,
          "midi": 46,
          "name": "A#2",
          "ticks": 63360,
          "time": 54.999945,
          "velocity": 0.47244094488188976
        },
        {
          "duration": 0.08333324999999547,
          "durationTicks": 96,
          "midi": 34,
          "name": "A#1",
          "ticks": 63552,
          "time": 55.1666115,
          "velocity": 0.47244094488188976
        },
        {
          "duration": 0.08333324999999547,
          "durationTicks": 96,
          "midi": 34,
          "name": "A#1",
          "ticks": 63744,
          "time": 55.333278,
          "velocity": 0.47244094488188976
        },
        {
          "duration": 0.16666649999999805,
          "durationTicks": 192,
          "midi": 46,
          "name": "A#2",
          "ticks": 63936,
          "time": 55.4999445,
          "velocity": 0.47244094488188976
        },
        {
          "duration": 0.08333325000000258,
          "durationTicks": 96,
          "midi": 34,
          "name": "A#1",
          "ticks": 64128,
          "time": 55.666610999999996,
          "velocity": 0.47244094488188976
        },
        {
          "duration": 0.08333324999999547,
          "durationTicks": 96,
          "midi": 34,
          "name": "A#1",
          "ticks": 64320,
          "time": 55.8332775,
          "velocity": 0.47244094488188976
        },
        {
          "duration": 0.08333325000000258,
          "durationTicks": 96,
          "midi": 36,
          "name": "C2",
          "ticks": 64512,
          "time": 55.999944,
          "velocity": 0.47244094488188976
        },
        {
          "duration": 0.08333325000000258,
          "durationTicks": 96,
          "midi": 36,
          "name": "C2",
          "ticks": 64704,
          "time": 56.1666105,
          "velocity": 0.47244094488188976
        },
        {
          "duration": 0.16666650000000516,
          "durationTicks": 192,
          "midi": 48,
          "name": "C3",
          "ticks": 64896,
          "time": 56.333276999999995,
          "velocity": 0.47244094488188976
        },
        {
          "duration": 0.08333324999999547,
          "durationTicks": 96,
          "midi": 36,
          "name": "C2",
          "ticks": 65088,
          "time": 56.4999435,
          "velocity": 0.47244094488188976
        },
        {
          "duration": 0.08333325000000258,
          "durationTicks": 96,
          "midi": 36,
          "name": "C2",
          "ticks": 65280,
          "time": 56.66661,
          "velocity": 0.47244094488188976
        },
        {
          "duration": 0.16666650000000516,
          "durationTicks": 192,
          "midi": 48,
          "name": "C3",
          "ticks": 65472,
          "time": 56.8332765,
          "velocity": 0.47244094488188976
        },
        {
          "duration": 0.08333324999999547,
          "durationTicks": 96,
          "midi": 36,
          "name": "C2",
          "ticks": 65664,
          "time": 56.999943,
          "velocity": 0.47244094488188976
        },
        {
          "duration": 0.08333324999999547,
          "durationTicks": 96,
          "midi": 36,
          "name": "C2",
          "ticks": 65856,
          "time": 57.1666095,
          "velocity": 0.47244094488188976
        },
        {
          "duration": 0.08333325000000258,
          "durationTicks": 96,
          "midi": 36,
          "name": "C2",
          "ticks": 66048,
          "time": 57.333276,
          "velocity": 0.47244094488188976
        },
        {
          "duration": 0.08333325000000258,
          "durationTicks": 96,
          "midi": 36,
          "name": "C2",
          "ticks": 66240,
          "time": 57.499942499999996,
          "velocity": 0.47244094488188976
        },
        {
          "duration": 0.16666649999999805,
          "durationTicks": 192,
          "midi": 48,
          "name": "C3",
          "ticks": 66432,
          "time": 57.666609,
          "velocity": 0.47244094488188976
        },
        {
          "duration": 0.08333325000000258,
          "durationTicks": 96,
          "midi": 36,
          "name": "C2",
          "ticks": 66624,
          "time": 57.8332755,
          "velocity": 0.47244094488188976
        },
        {
          "duration": 0.08333325000000258,
          "durationTicks": 96,
          "midi": 36,
          "name": "C2",
          "ticks": 66816,
          "time": 57.999942,
          "velocity": 0.47244094488188976
        },
        {
          "duration": 0.16666650000000516,
          "durationTicks": 192,
          "midi": 48,
          "name": "C3",
          "ticks": 67008,
          "time": 58.166608499999995,
          "velocity": 0.47244094488188976
        },
        {
          "duration": 0.08333324999999547,
          "durationTicks": 96,
          "midi": 36,
          "name": "C2",
          "ticks": 67200,
          "time": 58.333275,
          "velocity": 0.47244094488188976
        },
        {
          "duration": 0.08333325000000258,
          "durationTicks": 96,
          "midi": 36,
          "name": "C2",
          "ticks": 67392,
          "time": 58.4999415,
          "velocity": 0.47244094488188976
        },
        {
          "duration": 0.08333325000000258,
          "durationTicks": 96,
          "midi": 37,
          "name": "C#2",
          "ticks": 67584,
          "time": 58.666608,
          "velocity": 0.47244094488188976
        },
        {
          "duration": 0.08333324999999547,
          "durationTicks": 96,
          "midi": 37,
          "name": "C#2",
          "ticks": 67776,
          "time": 58.8332745,
          "velocity": 0.47244094488188976
        },
        {
          "duration": 0.16666649999999805,
          "durationTicks": 192,
          "midi": 49,
          "name": "C#3",
          "ticks": 67968,
          "time": 58.999941,
          "velocity": 0.47244094488188976
        },
        {
          "duration": 0.08333325000000258,
          "durationTicks": 96,
          "midi": 37,
          "name": "C#2",
          "ticks": 68160,
          "time": 59.1666075,
          "velocity": 0.47244094488188976
        },
        {
          "duration": 0.08333325000000258,
          "durationTicks": 96,
          "midi": 37,
          "name": "C#2",
          "ticks": 68352,
          "time": 59.333273999999996,
          "velocity": 0.47244094488188976
        },
        {
          "duration": 0.16666649999999805,
          "durationTicks": 192,
          "midi": 49,
          "name": "C#3",
          "ticks": 68544,
          "time": 59.4999405,
          "velocity": 0.47244094488188976
        },
        {
          "duration": 0.08333325000000258,
          "durationTicks": 96,
          "midi": 37,
          "name": "C#2",
          "ticks": 68736,
          "time": 59.666607,
          "velocity": 0.47244094488188976
        },
        {
          "duration": 0.08333325000000258,
          "durationTicks": 96,
          "midi": 37,
          "name": "C#2",
          "ticks": 68928,
          "time": 59.8332735,
          "velocity": 0.47244094488188976
        },
        {
          "duration": 0.08333325000000258,
          "durationTicks": 96,
          "midi": 37,
          "name": "C#2",
          "ticks": 69120,
          "time": 59.999939999999995,
          "velocity": 0.47244094488188976
        },
        {
          "duration": 0.08333324999999547,
          "durationTicks": 96,
          "midi": 37,
          "name": "C#2",
          "ticks": 69312,
          "time": 60.1666065,
          "velocity": 0.47244094488188976
        },
        {
          "duration": 0.16666649999999805,
          "durationTicks": 192,
          "midi": 49,
          "name": "C#3",
          "ticks": 69504,
          "time": 60.333273,
          "velocity": 0.47244094488188976
        },
        {
          "duration": 0.08333325000000258,
          "durationTicks": 96,
          "midi": 37,
          "name": "C#2",
          "ticks": 69696,
          "time": 60.499939499999996,
          "velocity": 0.47244094488188976
        },
        {
          "duration": 0.08333324999999547,
          "durationTicks": 96,
          "midi": 37,
          "name": "C#2",
          "ticks": 69888,
          "time": 60.666606,
          "velocity": 0.47244094488188976
        },
        {
          "duration": 0.16666649999999805,
          "durationTicks": 192,
          "midi": 49,
          "name": "C#3",
          "ticks": 70080,
          "time": 60.8332725,
          "velocity": 0.47244094488188976
        },
        {
          "duration": 0.08333325000000258,
          "durationTicks": 96,
          "midi": 37,
          "name": "C#2",
          "ticks": 70272,
          "time": 60.999939,
          "velocity": 0.47244094488188976
        },
        {
          "duration": 0.08333325000000258,
          "durationTicks": 96,
          "midi": 37,
          "name": "C#2",
          "ticks": 70464,
          "time": 61.166605499999996,
          "velocity": 0.47244094488188976
        },
        {
          "duration": 0.16666649999999805,
          "durationTicks": 192,
          "midi": 34,
          "name": "A#1",
          "ticks": 73728,
          "time": 63.999936,
          "velocity": 0.47244094488188976
        },
        {
          "duration": 0.16666650000000516,
          "durationTicks": 192,
          "midi": 41,
          "name": "F2",
          "ticks": 73920,
          "time": 64.1666025,
          "velocity": 0.47244094488188976
        },
        {
          "duration": 0.16666649999999095,
          "durationTicks": 192,
          "midi": 46,
          "name": "A#2",
          "ticks": 74112,
          "time": 64.333269,
          "velocity": 0.47244094488188976
        },
        {
          "duration": 0.16666650000000516,
          "durationTicks": 192,
          "midi": 34,
          "name": "A#1",
          "ticks": 74304,
          "time": 64.49993549999999,
          "velocity": 0.47244094488188976
        },
        {
          "duration": 0.16666650000000516,
          "durationTicks": 192,
          "midi": 29,
          "name": "F1",
          "ticks": 74496,
          "time": 64.666602,
          "velocity": 0.47244094488188976
        },
        {
          "duration": 0.16666649999999095,
          "durationTicks": 192,
          "midi": 34,
          "name": "A#1",
          "ticks": 74688,
          "time": 64.8332685,
          "velocity": 0.47244094488188976
        },
        {
          "duration": 0.16666650000000516,
          "durationTicks": 192,
          "midi": 46,
          "name": "A#2",
          "ticks": 74880,
          "time": 64.999935,
          "velocity": 0.47244094488188976
        },
        {
          "duration": 0.16666650000000516,
          "durationTicks": 192,
          "midi": 41,
          "name": "F2",
          "ticks": 75072,
          "time": 65.1666015,
          "velocity": 0.47244094488188976
        },
        {
          "duration": 0.16666649999999095,
          "durationTicks": 192,
          "midi": 34,
          "name": "A#1",
          "ticks": 75264,
          "time": 65.333268,
          "velocity": 0.47244094488188976
        },
        {
          "duration": 0.16666650000000516,
          "durationTicks": 192,
          "midi": 41,
          "name": "F2",
          "ticks": 75456,
          "time": 65.4999345,
          "velocity": 0.47244094488188976
        },
        {
          "duration": 0.16666650000000516,
          "durationTicks": 192,
          "midi": 46,
          "name": "A#2",
          "ticks": 75648,
          "time": 65.666601,
          "velocity": 0.47244094488188976
        },
        {
          "duration": 0.16666649999999095,
          "durationTicks": 192,
          "midi": 34,
          "name": "A#1",
          "ticks": 75840,
          "time": 65.8332675,
          "velocity": 0.47244094488188976
        },
        {
          "duration": 0.16666650000000516,
          "durationTicks": 192,
          "midi": 29,
          "name": "F1",
          "ticks": 76032,
          "time": 65.999934,
          "velocity": 0.47244094488188976
        },
        {
          "duration": 0.16666649999999095,
          "durationTicks": 192,
          "midi": 34,
          "name": "A#1",
          "ticks": 76224,
          "time": 66.1666005,
          "velocity": 0.47244094488188976
        },
        {
          "duration": 0.16666650000000516,
          "durationTicks": 192,
          "midi": 46,
          "name": "A#2",
          "ticks": 76416,
          "time": 66.33326699999999,
          "velocity": 0.47244094488188976
        },
        {
          "duration": 0.16666650000000516,
          "durationTicks": 192,
          "midi": 41,
          "name": "F2",
          "ticks": 76608,
          "time": 66.4999335,
          "velocity": 0.47244094488188976
        },
        {
          "duration": 0.16666649999999095,
          "durationTicks": 192,
          "midi": 36,
          "name": "C2",
          "ticks": 76800,
          "time": 66.6666,
          "velocity": 0.47244094488188976
        },
        {
          "duration": 0.16666650000000516,
          "durationTicks": 192,
          "midi": 44,
          "name": "G#2",
          "ticks": 76992,
          "time": 66.8332665,
          "velocity": 0.47244094488188976
        },
        {
          "duration": 0.16666650000000516,
          "durationTicks": 192,
          "midi": 51,
          "name": "D#3",
          "ticks": 77184,
          "time": 66.999933,
          "velocity": 0.47244094488188976
        },
        {
          "duration": 0.16666649999999095,
          "durationTicks": 192,
          "midi": 36,
          "name": "C2",
          "ticks": 77376,
          "time": 67.1665995,
          "velocity": 0.47244094488188976
        },
        {
          "duration": 0.16666650000000516,
          "durationTicks": 192,
          "midi": 32,
          "name": "G#1",
          "ticks": 77568,
          "time": 67.333266,
          "velocity": 0.47244094488188976
        },
        {
          "duration": 0.16666650000000516,
          "durationTicks": 192,
          "midi": 36,
          "name": "C2",
          "ticks": 77760,
          "time": 67.4999325,
          "velocity": 0.47244094488188976
        },
        {
          "duration": 0.16666649999999095,
          "durationTicks": 192,
          "midi": 48,
          "name": "C3",
          "ticks": 77952,
          "time": 67.666599,
          "velocity": 0.47244094488188976
        },
        {
          "duration": 0.16666650000000516,
          "durationTicks": 192,
          "midi": 44,
          "name": "G#2",
          "ticks": 78144,
          "time": 67.8332655,
          "velocity": 0.47244094488188976
        },
        {
          "duration": 0.16666649999999095,
          "durationTicks": 192,
          "midi": 36,
          "name": "C2",
          "ticks": 78336,
          "time": 67.999932,
          "velocity": 0.47244094488188976
        },
        {
          "duration": 0.16666650000000516,
          "durationTicks": 192,
          "midi": 44,
          "name": "G#2",
          "ticks": 78528,
          "time": 68.16659849999999,
          "velocity": 0.47244094488188976
        },
        {
          "duration": 0.16666650000000516,
          "durationTicks": 192,
          "midi": 51,
          "name": "D#3",
          "ticks": 78720,
          "time": 68.333265,
          "velocity": 0.47244094488188976
        },
        {
          "duration": 0.16666649999999095,
          "durationTicks": 192,
          "midi": 36,
          "name": "C2",
          "ticks": 78912,
          "time": 68.4999315,
          "velocity": 0.47244094488188976
        },
        {
          "duration": 0.16666650000000516,
          "durationTicks": 192,
          "midi": 32,
          "name": "G#1",
          "ticks": 79104,
          "time": 68.666598,
          "velocity": 0.47244094488188976
        },
        {
          "duration": 0.16666650000000516,
          "durationTicks": 192,
          "midi": 36,
          "name": "C2",
          "ticks": 79296,
          "time": 68.8332645,
          "velocity": 0.47244094488188976
        },
        {
          "duration": 0.16666649999999095,
          "durationTicks": 192,
          "midi": 48,
          "name": "C3",
          "ticks": 79488,
          "time": 68.999931,
          "velocity": 0.47244094488188976
        },
        {
          "duration": 0.16666650000000516,
          "durationTicks": 192,
          "midi": 44,
          "name": "G#2",
          "ticks": 79680,
          "time": 69.1665975,
          "velocity": 0.47244094488188976
        },
        {
          "duration": 0.16666650000000516,
          "durationTicks": 192,
          "midi": 37,
          "name": "C#2",
          "ticks": 79872,
          "time": 69.333264,
          "velocity": 0.47244094488188976
        },
        {
          "duration": 0.16666649999999095,
          "durationTicks": 192,
          "midi": 44,
          "name": "G#2",
          "ticks": 80064,
          "time": 69.4999305,
          "velocity": 0.47244094488188976
        },
        {
          "duration": 0.16666650000000516,
          "durationTicks": 192,
          "midi": 53,
          "name": "F3",
          "ticks": 80256,
          "time": 69.666597,
          "velocity": 0.47244094488188976
        },
        {
          "duration": 0.16666649999999095,
          "durationTicks": 192,
          "midi": 37,
          "name": "C#2",
          "ticks": 80448,
          "time": 69.8332635,
          "velocity": 0.47244094488188976
        },
        {
          "duration": 0.16666650000000516,
          "durationTicks": 192,
          "midi": 32,
          "name": "G#1",
          "ticks": 80640,
          "time": 69.99992999999999,
          "velocity": 0.47244094488188976
        },
        {
          "duration": 0.16666650000000516,
          "durationTicks": 192,
          "midi": 37,
          "name": "C#2",
          "ticks": 80832,
          "time": 70.1665965,
          "velocity": 0.47244094488188976
        },
        {
          "duration": 0.16666649999999095,
          "durationTicks": 192,
          "midi": 49,
          "name": "C#3",
          "ticks": 81024,
          "time": 70.333263,
          "velocity": 0.47244094488188976
        },
        {
          "duration": 0.16666650000000516,
          "durationTicks": 192,
          "midi": 44,
          "name": "G#2",
          "ticks": 81216,
          "time": 70.4999295,
          "velocity": 0.47244094488188976
        },
        {
          "duration": 0.16666650000000516,
          "durationTicks": 192,
          "midi": 37,
          "name": "C#2",
          "ticks": 81408,
          "time": 70.666596,
          "velocity": 0.47244094488188976
        },
        {
          "duration": 0.16666649999999095,
          "durationTicks": 192,
          "midi": 44,
          "name": "G#2",
          "ticks": 81600,
          "time": 70.8332625,
          "velocity": 0.47244094488188976
        },
        {
          "duration": 0.16666650000000516,
          "durationTicks": 192,
          "midi": 53,
          "name": "F3",
          "ticks": 81792,
          "time": 70.999929,
          "velocity": 0.47244094488188976
        },
        {
          "duration": 0.16666650000000516,
          "durationTicks": 192,
          "midi": 37,
          "name": "C#2",
          "ticks": 81984,
          "time": 71.1665955,
          "velocity": 0.47244094488188976
        },
        {
          "duration": 0.16666649999999095,
          "durationTicks": 192,
          "midi": 32,
          "name": "G#1",
          "ticks": 82176,
          "time": 71.333262,
          "velocity": 0.47244094488188976
        },
        {
          "duration": 0.16666650000000516,
          "durationTicks": 192,
          "midi": 37,
          "name": "C#2",
          "ticks": 82368,
          "time": 71.4999285,
          "velocity": 0.47244094488188976
        },
        {
          "duration": 0.16666649999999095,
          "durationTicks": 192,
          "midi": 49,
          "name": "C#3",
          "ticks": 82560,
          "time": 71.666595,
          "velocity": 0.47244094488188976
        },
        {
          "duration": 0.16666650000000516,
          "durationTicks": 192,
          "midi": 44,
          "name": "G#2",
          "ticks": 82752,
          "time": 71.83326149999999,
          "velocity": 0.47244094488188976
        },
        {
          "duration": 0.16666650000000516,
          "durationTicks": 192,
          "midi": 37,
          "name": "C#2",
          "ticks": 82944,
          "time": 71.999928,
          "velocity": 0.47244094488188976
        },
        {
          "duration": 0.16666649999999095,
          "durationTicks": 192,
          "midi": 44,
          "name": "G#2",
          "ticks": 83136,
          "time": 72.1665945,
          "velocity": 0.47244094488188976
        },
        {
          "duration": 0.16666650000000516,
          "durationTicks": 192,
          "midi": 53,
          "name": "F3",
          "ticks": 83328,
          "time": 72.333261,
          "velocity": 0.47244094488188976
        },
        {
          "duration": 0.16666650000000516,
          "durationTicks": 192,
          "midi": 37,
          "name": "C#2",
          "ticks": 83520,
          "time": 72.4999275,
          "velocity": 0.47244094488188976
        },
        {
          "duration": 0.16666649999999095,
          "durationTicks": 192,
          "midi": 32,
          "name": "G#1",
          "ticks": 83712,
          "time": 72.666594,
          "velocity": 0.47244094488188976
        },
        {
          "duration": 0.16666650000000516,
          "durationTicks": 192,
          "midi": 37,
          "name": "C#2",
          "ticks": 83904,
          "time": 72.8332605,
          "velocity": 0.47244094488188976
        },
        {
          "duration": 0.16666650000000516,
          "durationTicks": 192,
          "midi": 49,
          "name": "C#3",
          "ticks": 84096,
          "time": 72.999927,
          "velocity": 0.47244094488188976
        },
        {
          "duration": 0.16666649999999095,
          "durationTicks": 192,
          "midi": 44,
          "name": "G#2",
          "ticks": 84288,
          "time": 73.1665935,
          "velocity": 0.47244094488188976
        },
        {
          "duration": 0.16666650000000516,
          "durationTicks": 192,
          "midi": 36,
          "name": "C2",
          "ticks": 84480,
          "time": 73.33326,
          "velocity": 0.47244094488188976
        },
        {
          "duration": 0.16666649999999095,
          "durationTicks": 192,
          "midi": 43,
          "name": "G2",
          "ticks": 84672,
          "time": 73.4999265,
          "velocity": 0.47244094488188976
        },
        {
          "duration": 0.16666650000000516,
          "durationTicks": 192,
          "midi": 52,
          "name": "E3",
          "ticks": 84864,
          "time": 73.66659299999999,
          "velocity": 0.47244094488188976
        },
        {
          "duration": 0.16666650000000516,
          "durationTicks": 192,
          "midi": 36,
          "name": "C2",
          "ticks": 85056,
          "time": 73.8332595,
          "velocity": 0.47244094488188976
        },
        {
          "duration": 0.16666649999999095,
          "durationTicks": 192,
          "midi": 31,
          "name": "G1",
          "ticks": 85248,
          "time": 73.999926,
          "velocity": 0.47244094488188976
        },
        {
          "duration": 0.16666650000000516,
          "durationTicks": 192,
          "midi": 36,
          "name": "C2",
          "ticks": 85440,
          "time": 74.1665925,
          "velocity": 0.47244094488188976
        },
        {
          "duration": 0.16666650000000516,
          "durationTicks": 192,
          "midi": 48,
          "name": "C3",
          "ticks": 85632,
          "time": 74.333259,
          "velocity": 0.47244094488188976
        },
        {
          "duration": 0.16666649999999095,
          "durationTicks": 192,
          "midi": 43,
          "name": "G2",
          "ticks": 85824,
          "time": 74.4999255,
          "velocity": 0.47244094488188976
        },
        {
          "duration": 0.16666650000000516,
          "durationTicks": 192,
          "midi": 34,
          "name": "A#1",
          "ticks": 86016,
          "time": 74.666592,
          "velocity": 0.47244094488188976
        },
        {
          "duration": 0.16666650000000516,
          "durationTicks": 192,
          "midi": 41,
          "name": "F2",
          "ticks": 86208,
          "time": 74.8332585,
          "velocity": 0.47244094488188976
        },
        {
          "duration": 0.16666649999999095,
          "durationTicks": 192,
          "midi": 46,
          "name": "A#2",
          "ticks": 86400,
          "time": 74.999925,
          "velocity": 0.47244094488188976
        },
        {
          "duration": 0.16666650000000516,
          "durationTicks": 192,
          "midi": 34,
          "name": "A#1",
          "ticks": 86592,
          "time": 75.1665915,
          "velocity": 0.47244094488188976
        },
        {
          "duration": 0.16666649999999095,
          "durationTicks": 192,
          "midi": 29,
          "name": "F1",
          "ticks": 86784,
          "time": 75.333258,
          "velocity": 0.47244094488188976
        },
        {
          "duration": 0.16666650000000516,
          "durationTicks": 192,
          "midi": 34,
          "name": "A#1",
          "ticks": 86976,
          "time": 75.49992449999999,
          "velocity": 0.47244094488188976
        },
        {
          "duration": 0.16666650000000516,
          "durationTicks": 192,
          "midi": 46,
          "name": "A#2",
          "ticks": 87168,
          "time": 75.666591,
          "velocity": 0.47244094488188976
        },
        {
          "duration": 0.16666649999999095,
          "durationTicks": 192,
          "midi": 41,
          "name": "F2",
          "ticks": 87360,
          "time": 75.8332575,
          "velocity": 0.47244094488188976
        },
        {
          "duration": 0.16666650000000516,
          "durationTicks": 192,
          "midi": 34,
          "name": "A#1",
          "ticks": 87552,
          "time": 75.999924,
          "velocity": 0.47244094488188976
        },
        {
          "duration": 0.16666650000000516,
          "durationTicks": 192,
          "midi": 41,
          "name": "F2",
          "ticks": 87744,
          "time": 76.1665905,
          "velocity": 0.47244094488188976
        },
        {
          "duration": 0.16666649999999095,
          "durationTicks": 192,
          "midi": 46,
          "name": "A#2",
          "ticks": 87936,
          "time": 76.333257,
          "velocity": 0.47244094488188976
        },
        {
          "duration": 0.16666650000000516,
          "durationTicks": 192,
          "midi": 34,
          "name": "A#1",
          "ticks": 88128,
          "time": 76.4999235,
          "velocity": 0.47244094488188976
        },
        {
          "duration": 0.16666650000000516,
          "durationTicks": 192,
          "midi": 29,
          "name": "F1",
          "ticks": 88320,
          "time": 76.66659,
          "velocity": 0.47244094488188976
        },
        {
          "duration": 0.16666649999999095,
          "durationTicks": 192,
          "midi": 34,
          "name": "A#1",
          "ticks": 88512,
          "time": 76.8332565,
          "velocity": 0.47244094488188976
        },
        {
          "duration": 0.16666650000000516,
          "durationTicks": 192,
          "midi": 46,
          "name": "A#2",
          "ticks": 88704,
          "time": 76.999923,
          "velocity": 0.47244094488188976
        },
        {
          "duration": 0.16666649999999095,
          "durationTicks": 192,
          "midi": 41,
          "name": "F2",
          "ticks": 88896,
          "time": 77.1665895,
          "velocity": 0.47244094488188976
        },
        {
          "duration": 0.16666650000000516,
          "durationTicks": 192,
          "midi": 36,
          "name": "C2",
          "ticks": 89088,
          "time": 77.33325599999999,
          "velocity": 0.47244094488188976
        },
        {
          "duration": 0.16666650000000516,
          "durationTicks": 192,
          "midi": 44,
          "name": "G#2",
          "ticks": 89280,
          "time": 77.4999225,
          "velocity": 0.47244094488188976
        },
        {
          "duration": 0.16666649999999095,
          "durationTicks": 192,
          "midi": 51,
          "name": "D#3",
          "ticks": 89472,
          "time": 77.666589,
          "velocity": 0.47244094488188976
        },
        {
          "duration": 0.16666650000000516,
          "durationTicks": 192,
          "midi": 36,
          "name": "C2",
          "ticks": 89664,
          "time": 77.83325549999999,
          "velocity": 0.47244094488188976
        },
        {
          "duration": 0.16666650000000516,
          "durationTicks": 192,
          "midi": 32,
          "name": "G#1",
          "ticks": 89856,
          "time": 77.999922,
          "velocity": 0.47244094488188976
        },
        {
          "duration": 0.16666649999999095,
          "durationTicks": 192,
          "midi": 36,
          "name": "C2",
          "ticks": 90048,
          "time": 78.1665885,
          "velocity": 0.47244094488188976
        },
        {
          "duration": 0.16666650000000516,
          "durationTicks": 192,
          "midi": 48,
          "name": "C3",
          "ticks": 90240,
          "time": 78.333255,
          "velocity": 0.47244094488188976
        },
        {
          "duration": 0.16666650000000516,
          "durationTicks": 192,
          "midi": 44,
          "name": "G#2",
          "ticks": 90432,
          "time": 78.4999215,
          "velocity": 0.47244094488188976
        },
        {
          "duration": 0.16666649999999095,
          "durationTicks": 192,
          "midi": 36,
          "name": "C2",
          "ticks": 90624,
          "time": 78.666588,
          "velocity": 0.47244094488188976
        },
        {
          "duration": 0.16666650000000516,
          "durationTicks": 192,
          "midi": 44,
          "name": "G#2",
          "ticks": 90816,
          "time": 78.8332545,
          "velocity": 0.47244094488188976
        },
        {
          "duration": 0.16666649999999095,
          "durationTicks": 192,
          "midi": 51,
          "name": "D#3",
          "ticks": 91008,
          "time": 78.999921,
          "velocity": 0.47244094488188976
        },
        {
          "duration": 0.16666650000000516,
          "durationTicks": 192,
          "midi": 36,
          "name": "C2",
          "ticks": 91200,
          "time": 79.16658749999999,
          "velocity": 0.47244094488188976
        },
        {
          "duration": 0.16666650000000516,
          "durationTicks": 192,
          "midi": 32,
          "name": "G#1",
          "ticks": 91392,
          "time": 79.333254,
          "velocity": 0.47244094488188976
        },
        {
          "duration": 0.16666649999999095,
          "durationTicks": 192,
          "midi": 36,
          "name": "C2",
          "ticks": 91584,
          "time": 79.4999205,
          "velocity": 0.47244094488188976
        },
        {
          "duration": 0.16666650000000516,
          "durationTicks": 192,
          "midi": 48,
          "name": "C3",
          "ticks": 91776,
          "time": 79.66658699999999,
          "velocity": 0.47244094488188976
        },
        {
          "duration": 0.16666650000000516,
          "durationTicks": 192,
          "midi": 44,
          "name": "G#2",
          "ticks": 91968,
          "time": 79.8332535,
          "velocity": 0.47244094488188976
        },
        {
          "duration": 0.16666649999999095,
          "durationTicks": 192,
          "midi": 37,
          "name": "C#2",
          "ticks": 92160,
          "time": 79.99992,
          "velocity": 0.47244094488188976
        },
        {
          "duration": 0.16666650000000516,
          "durationTicks": 192,
          "midi": 44,
          "name": "G#2",
          "ticks": 92352,
          "time": 80.1665865,
          "velocity": 0.47244094488188976
        },
        {
          "duration": 0.16666650000000516,
          "durationTicks": 192,
          "midi": 53,
          "name": "F3",
          "ticks": 92544,
          "time": 80.333253,
          "velocity": 0.47244094488188976
        },
        {
          "duration": 0.16666649999999095,
          "durationTicks": 192,
          "midi": 37,
          "name": "C#2",
          "ticks": 92736,
          "time": 80.4999195,
          "velocity": 0.47244094488188976
        },
        {
          "duration": 0.16666650000000516,
          "durationTicks": 192,
          "midi": 32,
          "name": "G#1",
          "ticks": 92928,
          "time": 80.666586,
          "velocity": 0.47244094488188976
        },
        {
          "duration": 0.16666649999999095,
          "durationTicks": 192,
          "midi": 37,
          "name": "C#2",
          "ticks": 93120,
          "time": 80.8332525,
          "velocity": 0.47244094488188976
        },
        {
          "duration": 0.16666650000000516,
          "durationTicks": 192,
          "midi": 49,
          "name": "C#3",
          "ticks": 93312,
          "time": 80.99991899999999,
          "velocity": 0.47244094488188976
        },
        {
          "duration": 0.16666650000000516,
          "durationTicks": 192,
          "midi": 44,
          "name": "G#2",
          "ticks": 93504,
          "time": 81.1665855,
          "velocity": 0.47244094488188976
        },
        {
          "duration": 0.16666649999999095,
          "durationTicks": 192,
          "midi": 37,
          "name": "C#2",
          "ticks": 93696,
          "time": 81.333252,
          "velocity": 0.47244094488188976
        },
        {
          "duration": 0.16666650000000516,
          "durationTicks": 192,
          "midi": 44,
          "name": "G#2",
          "ticks": 93888,
          "time": 81.49991849999999,
          "velocity": 0.47244094488188976
        },
        {
          "duration": 0.16666650000000516,
          "durationTicks": 192,
          "midi": 53,
          "name": "F3",
          "ticks": 94080,
          "time": 81.666585,
          "velocity": 0.47244094488188976
        },
        {
          "duration": 0.16666649999999095,
          "durationTicks": 192,
          "midi": 37,
          "name": "C#2",
          "ticks": 94272,
          "time": 81.8332515,
          "velocity": 0.47244094488188976
        },
        {
          "duration": 0.16666650000000516,
          "durationTicks": 192,
          "midi": 32,
          "name": "G#1",
          "ticks": 94464,
          "time": 81.999918,
          "velocity": 0.47244094488188976
        },
        {
          "duration": 0.16666650000000516,
          "durationTicks": 192,
          "midi": 37,
          "name": "C#2",
          "ticks": 94656,
          "time": 82.1665845,
          "velocity": 0.47244094488188976
        },
        {
          "duration": 0.16666649999999095,
          "durationTicks": 192,
          "midi": 49,
          "name": "C#3",
          "ticks": 94848,
          "time": 82.333251,
          "velocity": 0.47244094488188976
        },
        {
          "duration": 0.16666650000000516,
          "durationTicks": 192,
          "midi": 44,
          "name": "G#2",
          "ticks": 95040,
          "time": 82.4999175,
          "velocity": 0.47244094488188976
        },
        {
          "duration": 0.16666649999999095,
          "durationTicks": 192,
          "midi": 37,
          "name": "C#2",
          "ticks": 95232,
          "time": 82.666584,
          "velocity": 0.47244094488188976
        },
        {
          "duration": 0.16666650000000516,
          "durationTicks": 192,
          "midi": 44,
          "name": "G#2",
          "ticks": 95424,
          "time": 82.83325049999999,
          "velocity": 0.47244094488188976
        },
        {
          "duration": 0.16666650000000516,
          "durationTicks": 192,
          "midi": 53,
          "name": "F3",
          "ticks": 95616,
          "time": 82.999917,
          "velocity": 0.47244094488188976
        },
        {
          "duration": 0.16666649999999095,
          "durationTicks": 192,
          "midi": 37,
          "name": "C#2",
          "ticks": 95808,
          "time": 83.1665835,
          "velocity": 0.47244094488188976
        },
        {
          "duration": 0.16666650000000516,
          "durationTicks": 192,
          "midi": 32,
          "name": "G#1",
          "ticks": 96000,
          "time": 83.33324999999999,
          "velocity": 0.47244094488188976
        },
        {
          "duration": 0.16666650000000516,
          "durationTicks": 192,
          "midi": 37,
          "name": "C#2",
          "ticks": 96192,
          "time": 83.4999165,
          "velocity": 0.47244094488188976
        },
        {
          "duration": 0.16666649999999095,
          "durationTicks": 192,
          "midi": 49,
          "name": "C#3",
          "ticks": 96384,
          "time": 83.666583,
          "velocity": 0.47244094488188976
        },
        {
          "duration": 0.16666650000000516,
          "durationTicks": 192,
          "midi": 44,
          "name": "G#2",
          "ticks": 96576,
          "time": 83.8332495,
          "velocity": 0.47244094488188976
        },
        {
          "duration": 0.16666650000000516,
          "durationTicks": 192,
          "midi": 36,
          "name": "C2",
          "ticks": 96768,
          "time": 83.999916,
          "velocity": 0.47244094488188976
        },
        {
          "duration": 0.16666649999999095,
          "durationTicks": 192,
          "midi": 43,
          "name": "G2",
          "ticks": 96960,
          "time": 84.1665825,
          "velocity": 0.47244094488188976
        },
        {
          "duration": 0.16666650000000516,
          "durationTicks": 192,
          "midi": 52,
          "name": "E3",
          "ticks": 97152,
          "time": 84.333249,
          "velocity": 0.47244094488188976
        },
        {
          "duration": 0.16666649999999095,
          "durationTicks": 192,
          "midi": 36,
          "name": "C2",
          "ticks": 97344,
          "time": 84.4999155,
          "velocity": 0.47244094488188976
        },
        {
          "duration": 0.16666650000000516,
          "durationTicks": 192,
          "midi": 31,
          "name": "G1",
          "ticks": 97536,
          "time": 84.66658199999999,
          "velocity": 0.47244094488188976
        },
        {
          "duration": 0.16666650000000516,
          "durationTicks": 192,
          "midi": 36,
          "name": "C2",
          "ticks": 97728,
          "time": 84.8332485,
          "velocity": 0.47244094488188976
        },
        {
          "duration": 0.16666649999999095,
          "durationTicks": 192,
          "midi": 48,
          "name": "C3",
          "ticks": 97920,
          "time": 84.999915,
          "velocity": 0.47244094488188976
        },
        {
          "duration": 0.16666650000000516,
          "durationTicks": 192,
          "midi": 43,
          "name": "G2",
          "ticks": 98112,
          "time": 85.16658149999999,
          "velocity": 0.47244094488188976
        },
        {
          "duration": 0.16666650000000516,
          "durationTicks": 192,
          "midi": 34,
          "name": "A#1",
          "ticks": 98304,
          "time": 85.333248,
          "velocity": 0.47244094488188976
        },
        {
          "duration": 0.16666649999999095,
          "durationTicks": 192,
          "midi": 41,
          "name": "F2",
          "ticks": 98496,
          "time": 85.4999145,
          "velocity": 0.47244094488188976
        },
        {
          "duration": 0.16666650000000516,
          "durationTicks": 192,
          "midi": 46,
          "name": "A#2",
          "ticks": 98688,
          "time": 85.666581,
          "velocity": 0.47244094488188976
        },
        {
          "duration": 0.16666650000000516,
          "durationTicks": 192,
          "midi": 34,
          "name": "A#1",
          "ticks": 98880,
          "time": 85.8332475,
          "velocity": 0.47244094488188976
        },
        {
          "duration": 0.16666649999999095,
          "durationTicks": 192,
          "midi": 29,
          "name": "F1",
          "ticks": 99072,
          "time": 85.999914,
          "velocity": 0.47244094488188976
        },
        {
          "duration": 0.16666650000000516,
          "durationTicks": 192,
          "midi": 34,
          "name": "A#1",
          "ticks": 99264,
          "time": 86.1665805,
          "velocity": 0.47244094488188976
        },
        {
          "duration": 0.16666649999999095,
          "durationTicks": 192,
          "midi": 46,
          "name": "A#2",
          "ticks": 99456,
          "time": 86.333247,
          "velocity": 0.47244094488188976
        },
        {
          "duration": 0.16666650000000516,
          "durationTicks": 192,
          "midi": 41,
          "name": "F2",
          "ticks": 99648,
          "time": 86.49991349999999,
          "velocity": 0.47244094488188976
        },
        {
          "duration": 0.16666650000000516,
          "durationTicks": 192,
          "midi": 34,
          "name": "A#1",
          "ticks": 99840,
          "time": 86.66658,
          "velocity": 0.47244094488188976
        },
        {
          "duration": 0.16666649999999095,
          "durationTicks": 192,
          "midi": 41,
          "name": "F2",
          "ticks": 100032,
          "time": 86.8332465,
          "velocity": 0.47244094488188976
        },
        {
          "duration": 0.16666650000000516,
          "durationTicks": 192,
          "midi": 46,
          "name": "A#2",
          "ticks": 100224,
          "time": 86.99991299999999,
          "velocity": 0.47244094488188976
        },
        {
          "duration": 0.16666650000000516,
          "durationTicks": 192,
          "midi": 34,
          "name": "A#1",
          "ticks": 100416,
          "time": 87.1665795,
          "velocity": 0.47244094488188976
        },
        {
          "duration": 0.16666649999999095,
          "durationTicks": 192,
          "midi": 29,
          "name": "F1",
          "ticks": 100608,
          "time": 87.333246,
          "velocity": 0.47244094488188976
        },
        {
          "duration": 0.16666650000000516,
          "durationTicks": 192,
          "midi": 34,
          "name": "A#1",
          "ticks": 100800,
          "time": 87.4999125,
          "velocity": 0.47244094488188976
        },
        {
          "duration": 0.16666650000000516,
          "durationTicks": 192,
          "midi": 46,
          "name": "A#2",
          "ticks": 100992,
          "time": 87.666579,
          "velocity": 0.47244094488188976
        },
        {
          "duration": 0.16666649999999095,
          "durationTicks": 192,
          "midi": 41,
          "name": "F2",
          "ticks": 101184,
          "time": 87.8332455,
          "velocity": 0.47244094488188976
        },
        {
          "duration": 0.16666650000000516,
          "durationTicks": 192,
          "midi": 36,
          "name": "C2",
          "ticks": 101376,
          "time": 87.999912,
          "velocity": 0.47244094488188976
        },
        {
          "duration": 0.16666649999999095,
          "durationTicks": 192,
          "midi": 44,
          "name": "G#2",
          "ticks": 101568,
          "time": 88.1665785,
          "velocity": 0.47244094488188976
        },
        {
          "duration": 0.16666650000000516,
          "durationTicks": 192,
          "midi": 51,
          "name": "D#3",
          "ticks": 101760,
          "time": 88.33324499999999,
          "velocity": 0.47244094488188976
        },
        {
          "duration": 0.16666650000000516,
          "durationTicks": 192,
          "midi": 36,
          "name": "C2",
          "ticks": 101952,
          "time": 88.4999115,
          "velocity": 0.47244094488188976
        },
        {
          "duration": 0.16666649999999095,
          "durationTicks": 192,
          "midi": 32,
          "name": "G#1",
          "ticks": 102144,
          "time": 88.666578,
          "velocity": 0.47244094488188976
        },
        {
          "duration": 0.16666650000000516,
          "durationTicks": 192,
          "midi": 36,
          "name": "C2",
          "ticks": 102336,
          "time": 88.83324449999999,
          "velocity": 0.47244094488188976
        },
        {
          "duration": 0.16666650000000516,
          "durationTicks": 192,
          "midi": 48,
          "name": "C3",
          "ticks": 102528,
          "time": 88.999911,
          "velocity": 0.47244094488188976
        },
        {
          "duration": 0.16666649999999095,
          "durationTicks": 192,
          "midi": 44,
          "name": "G#2",
          "ticks": 102720,
          "time": 89.1665775,
          "velocity": 0.47244094488188976
        },
        {
          "duration": 0.16666650000000516,
          "durationTicks": 192,
          "midi": 36,
          "name": "C2",
          "ticks": 102912,
          "time": 89.333244,
          "velocity": 0.47244094488188976
        },
        {
          "duration": 0.16666650000000516,
          "durationTicks": 192,
          "midi": 44,
          "name": "G#2",
          "ticks": 103104,
          "time": 89.4999105,
          "velocity": 0.47244094488188976
        },
        {
          "duration": 0.16666649999999095,
          "durationTicks": 192,
          "midi": 51,
          "name": "D#3",
          "ticks": 103296,
          "time": 89.666577,
          "velocity": 0.47244094488188976
        },
        {
          "duration": 0.16666650000000516,
          "durationTicks": 192,
          "midi": 36,
          "name": "C2",
          "ticks": 103488,
          "time": 89.8332435,
          "velocity": 0.47244094488188976
        },
        {
          "duration": 0.16666649999999095,
          "durationTicks": 192,
          "midi": 32,
          "name": "G#1",
          "ticks": 103680,
          "time": 89.99991,
          "velocity": 0.47244094488188976
        },
        {
          "duration": 0.16666650000000516,
          "durationTicks": 192,
          "midi": 36,
          "name": "C2",
          "ticks": 103872,
          "time": 90.16657649999999,
          "velocity": 0.47244094488188976
        },
        {
          "duration": 0.16666650000000516,
          "durationTicks": 192,
          "midi": 48,
          "name": "C3",
          "ticks": 104064,
          "time": 90.333243,
          "velocity": 0.47244094488188976
        },
        {
          "duration": 0.16666649999999095,
          "durationTicks": 192,
          "midi": 44,
          "name": "G#2",
          "ticks": 104256,
          "time": 90.4999095,
          "velocity": 0.47244094488188976
        },
        {
          "duration": 0.16666650000000516,
          "durationTicks": 192,
          "midi": 37,
          "name": "C#2",
          "ticks": 104448,
          "time": 90.66657599999999,
          "velocity": 0.47244094488188976
        },
        {
          "duration": 0.16666650000000516,
          "durationTicks": 192,
          "midi": 44,
          "name": "G#2",
          "ticks": 104640,
          "time": 90.8332425,
          "velocity": 0.47244094488188976
        },
        {
          "duration": 0.16666649999999095,
          "durationTicks": 192,
          "midi": 53,
          "name": "F3",
          "ticks": 104832,
          "time": 90.999909,
          "velocity": 0.47244094488188976
        },
        {
          "duration": 0.16666650000000516,
          "durationTicks": 192,
          "midi": 37,
          "name": "C#2",
          "ticks": 105024,
          "time": 91.1665755,
          "velocity": 0.47244094488188976
        },
        {
          "duration": 0.16666650000000516,
          "durationTicks": 192,
          "midi": 32,
          "name": "G#1",
          "ticks": 105216,
          "time": 91.333242,
          "velocity": 0.47244094488188976
        },
        {
          "duration": 0.16666649999999095,
          "durationTicks": 192,
          "midi": 37,
          "name": "C#2",
          "ticks": 105408,
          "time": 91.4999085,
          "velocity": 0.47244094488188976
        },
        {
          "duration": 0.16666650000000516,
          "durationTicks": 192,
          "midi": 49,
          "name": "C#3",
          "ticks": 105600,
          "time": 91.666575,
          "velocity": 0.47244094488188976
        },
        {
          "duration": 0.16666649999999095,
          "durationTicks": 192,
          "midi": 44,
          "name": "G#2",
          "ticks": 105792,
          "time": 91.8332415,
          "velocity": 0.47244094488188976
        },
        {
          "duration": 0.16666650000000516,
          "durationTicks": 192,
          "midi": 37,
          "name": "C#2",
          "ticks": 105984,
          "time": 91.99990799999999,
          "velocity": 0.47244094488188976
        },
        {
          "duration": 0.16666650000000516,
          "durationTicks": 192,
          "midi": 44,
          "name": "G#2",
          "ticks": 106176,
          "time": 92.1665745,
          "velocity": 0.47244094488188976
        },
        {
          "duration": 0.16666649999999095,
          "durationTicks": 192,
          "midi": 53,
          "name": "F3",
          "ticks": 106368,
          "time": 92.333241,
          "velocity": 0.47244094488188976
        },
        {
          "duration": 0.16666650000000516,
          "durationTicks": 192,
          "midi": 37,
          "name": "C#2",
          "ticks": 106560,
          "time": 92.49990749999999,
          "velocity": 0.47244094488188976
        },
        {
          "duration": 0.16666650000000516,
          "durationTicks": 192,
          "midi": 32,
          "name": "G#1",
          "ticks": 106752,
          "time": 92.666574,
          "velocity": 0.47244094488188976
        },
        {
          "duration": 0.16666649999999095,
          "durationTicks": 192,
          "midi": 37,
          "name": "C#2",
          "ticks": 106944,
          "time": 92.8332405,
          "velocity": 0.47244094488188976
        },
        {
          "duration": 0.16666650000000516,
          "durationTicks": 192,
          "midi": 49,
          "name": "C#3",
          "ticks": 107136,
          "time": 92.999907,
          "velocity": 0.47244094488188976
        },
        {
          "duration": 0.16666650000000516,
          "durationTicks": 192,
          "midi": 44,
          "name": "G#2",
          "ticks": 107328,
          "time": 93.1665735,
          "velocity": 0.47244094488188976
        },
        {
          "duration": 0.16666649999999095,
          "durationTicks": 192,
          "midi": 37,
          "name": "C#2",
          "ticks": 107520,
          "time": 93.33324,
          "velocity": 0.47244094488188976
        },
        {
          "duration": 0.16666650000000516,
          "durationTicks": 192,
          "midi": 44,
          "name": "G#2",
          "ticks": 107712,
          "time": 93.4999065,
          "velocity": 0.47244094488188976
        },
        {
          "duration": 0.16666649999999095,
          "durationTicks": 192,
          "midi": 53,
          "name": "F3",
          "ticks": 107904,
          "time": 93.666573,
          "velocity": 0.47244094488188976
        },
        {
          "duration": 0.16666650000000516,
          "durationTicks": 192,
          "midi": 37,
          "name": "C#2",
          "ticks": 108096,
          "time": 93.83323949999999,
          "velocity": 0.47244094488188976
        },
        {
          "duration": 0.16666650000000516,
          "durationTicks": 192,
          "midi": 32,
          "name": "G#1",
          "ticks": 108288,
          "time": 93.999906,
          "velocity": 0.47244094488188976
        },
        {
          "duration": 0.16666649999999095,
          "durationTicks": 192,
          "midi": 37,
          "name": "C#2",
          "ticks": 108480,
          "time": 94.1665725,
          "velocity": 0.47244094488188976
        },
        {
          "duration": 0.16666650000000516,
          "durationTicks": 192,
          "midi": 49,
          "name": "C#3",
          "ticks": 108672,
          "time": 94.33323899999999,
          "velocity": 0.47244094488188976
        },
        {
          "duration": 0.16666650000000516,
          "durationTicks": 192,
          "midi": 44,
          "name": "G#2",
          "ticks": 108864,
          "time": 94.4999055,
          "velocity": 0.47244094488188976
        },
        {
          "duration": 0.16666649999999095,
          "durationTicks": 192,
          "midi": 36,
          "name": "C2",
          "ticks": 109056,
          "time": 94.666572,
          "velocity": 0.47244094488188976
        },
        {
          "duration": 0.16666650000000516,
          "durationTicks": 192,
          "midi": 43,
          "name": "G2",
          "ticks": 109248,
          "time": 94.8332385,
          "velocity": 0.47244094488188976
        },
        {
          "duration": 0.16666650000000516,
          "durationTicks": 192,
          "midi": 52,
          "name": "E3",
          "ticks": 109440,
          "time": 94.999905,
          "velocity": 0.47244094488188976
        },
        {
          "duration": 0.16666649999999095,
          "durationTicks": 192,
          "midi": 36,
          "name": "C2",
          "ticks": 109632,
          "time": 95.1665715,
          "velocity": 0.47244094488188976
        },
        {
          "duration": 0.16666650000000516,
          "durationTicks": 192,
          "midi": 31,
          "name": "G1",
          "ticks": 109824,
          "time": 95.333238,
          "velocity": 0.47244094488188976
        },
        {
          "duration": 0.16666649999999095,
          "durationTicks": 192,
          "midi": 36,
          "name": "C2",
          "ticks": 110016,
          "time": 95.4999045,
          "velocity": 0.47244094488188976
        },
        {
          "duration": 0.16666650000000516,
          "durationTicks": 192,
          "midi": 48,
          "name": "C3",
          "ticks": 110208,
          "time": 95.66657099999999,
          "velocity": 0.47244094488188976
        },
        {
          "duration": 0.16666650000000516,
          "durationTicks": 192,
          "midi": 43,
          "name": "G2",
          "ticks": 110400,
          "time": 95.8332375,
          "velocity": 0.47244094488188976
        },
        {
          "duration": 0.16666649999999095,
          "durationTicks": 192,
          "midi": 34,
          "name": "A#1",
          "ticks": 110592,
          "time": 95.999904,
          "velocity": 0.47244094488188976
        },
        {
          "duration": 0.16666650000000516,
          "durationTicks": 192,
          "midi": 41,
          "name": "F2",
          "ticks": 110784,
          "time": 96.16657049999999,
          "velocity": 0.47244094488188976
        },
        {
          "duration": 0.16666650000000516,
          "durationTicks": 192,
          "midi": 46,
          "name": "A#2",
          "ticks": 110976,
          "time": 96.333237,
          "velocity": 0.47244094488188976
        },
        {
          "duration": 0.16666649999999095,
          "durationTicks": 192,
          "midi": 34,
          "name": "A#1",
          "ticks": 111168,
          "time": 96.4999035,
          "velocity": 0.47244094488188976
        },
        {
          "duration": 0.16666650000000516,
          "durationTicks": 192,
          "midi": 29,
          "name": "F1",
          "ticks": 111360,
          "time": 96.66657,
          "velocity": 0.47244094488188976
        },
        {
          "duration": 0.16666650000000516,
          "durationTicks": 192,
          "midi": 34,
          "name": "A#1",
          "ticks": 111552,
          "time": 96.8332365,
          "velocity": 0.47244094488188976
        },
        {
          "duration": 0.16666649999999095,
          "durationTicks": 192,
          "midi": 46,
          "name": "A#2",
          "ticks": 111744,
          "time": 96.999903,
          "velocity": 0.47244094488188976
        },
        {
          "duration": 0.16666650000000516,
          "durationTicks": 192,
          "midi": 41,
          "name": "F2",
          "ticks": 111936,
          "time": 97.1665695,
          "velocity": 0.47244094488188976
        },
        {
          "duration": 0.16666649999999095,
          "durationTicks": 192,
          "midi": 34,
          "name": "A#1",
          "ticks": 112128,
          "time": 97.333236,
          "velocity": 0.47244094488188976
        },
        {
          "duration": 0.16666650000000516,
          "durationTicks": 192,
          "midi": 41,
          "name": "F2",
          "ticks": 112320,
          "time": 97.49990249999999,
          "velocity": 0.47244094488188976
        },
        {
          "duration": 0.16666650000000516,
          "durationTicks": 192,
          "midi": 46,
          "name": "A#2",
          "ticks": 112512,
          "time": 97.666569,
          "velocity": 0.47244094488188976
        },
        {
          "duration": 0.16666649999999095,
          "durationTicks": 192,
          "midi": 34,
          "name": "A#1",
          "ticks": 112704,
          "time": 97.8332355,
          "velocity": 0.47244094488188976
        },
        {
          "duration": 0.16666650000000516,
          "durationTicks": 192,
          "midi": 29,
          "name": "F1",
          "ticks": 112896,
          "time": 97.99990199999999,
          "velocity": 0.47244094488188976
        },
        {
          "duration": 0.16666650000000516,
          "durationTicks": 192,
          "midi": 34,
          "name": "A#1",
          "ticks": 113088,
          "time": 98.1665685,
          "velocity": 0.47244094488188976
        },
        {
          "duration": 0.16666649999999095,
          "durationTicks": 192,
          "midi": 46,
          "name": "A#2",
          "ticks": 113280,
          "time": 98.333235,
          "velocity": 0.47244094488188976
        },
        {
          "duration": 0.16666650000000516,
          "durationTicks": 192,
          "midi": 41,
          "name": "F2",
          "ticks": 113472,
          "time": 98.49990149999999,
          "velocity": 0.47244094488188976
        },
        {
          "duration": 0.16666650000000516,
          "durationTicks": 192,
          "midi": 36,
          "name": "C2",
          "ticks": 113664,
          "time": 98.666568,
          "velocity": 0.47244094488188976
        },
        {
          "duration": 0.16666649999999095,
          "durationTicks": 192,
          "midi": 44,
          "name": "G#2",
          "ticks": 113856,
          "time": 98.8332345,
          "velocity": 0.47244094488188976
        },
        {
          "duration": 0.16666650000000516,
          "durationTicks": 192,
          "midi": 51,
          "name": "D#3",
          "ticks": 114048,
          "time": 98.999901,
          "velocity": 0.47244094488188976
        },
        {
          "duration": 0.16666649999999095,
          "durationTicks": 192,
          "midi": 36,
          "name": "C2",
          "ticks": 114240,
          "time": 99.1665675,
          "velocity": 0.47244094488188976
        },
        {
          "duration": 0.16666650000000516,
          "durationTicks": 192,
          "midi": 32,
          "name": "G#1",
          "ticks": 114432,
          "time": 99.33323399999999,
          "velocity": 0.47244094488188976
        },
        {
          "duration": 0.16666650000000516,
          "durationTicks": 192,
          "midi": 36,
          "name": "C2",
          "ticks": 114624,
          "time": 99.4999005,
          "velocity": 0.47244094488188976
        },
        {
          "duration": 0.16666649999999095,
          "durationTicks": 192,
          "midi": 48,
          "name": "C3",
          "ticks": 114816,
          "time": 99.666567,
          "velocity": 0.47244094488188976
        },
        {
          "duration": 0.16666650000000516,
          "durationTicks": 192,
          "midi": 44,
          "name": "G#2",
          "ticks": 115008,
          "time": 99.83323349999999,
          "velocity": 0.47244094488188976
        },
        {
          "duration": 0.16666650000000516,
          "durationTicks": 192,
          "midi": 36,
          "name": "C2",
          "ticks": 115200,
          "time": 99.9999,
          "velocity": 0.47244094488188976
        },
        {
          "duration": 0.16666649999999095,
          "durationTicks": 192,
          "midi": 44,
          "name": "G#2",
          "ticks": 115392,
          "time": 100.1665665,
          "velocity": 0.47244094488188976
        },
        {
          "duration": 0.16666650000000516,
          "durationTicks": 192,
          "midi": 51,
          "name": "D#3",
          "ticks": 115584,
          "time": 100.33323299999999,
          "velocity": 0.47244094488188976
        },
        {
          "duration": 0.16666650000000516,
          "durationTicks": 192,
          "midi": 36,
          "name": "C2",
          "ticks": 115776,
          "time": 100.4998995,
          "velocity": 0.47244094488188976
        },
        {
          "duration": 0.16666649999999095,
          "durationTicks": 192,
          "midi": 32,
          "name": "G#1",
          "ticks": 115968,
          "time": 100.666566,
          "velocity": 0.47244094488188976
        },
        {
          "duration": 0.16666650000000516,
          "durationTicks": 192,
          "midi": 36,
          "name": "C2",
          "ticks": 116160,
          "time": 100.8332325,
          "velocity": 0.47244094488188976
        },
        {
          "duration": 0.16666649999999095,
          "durationTicks": 192,
          "midi": 48,
          "name": "C3",
          "ticks": 116352,
          "time": 100.999899,
          "velocity": 0.47244094488188976
        },
        {
          "duration": 0.16666650000000516,
          "durationTicks": 192,
          "midi": 44,
          "name": "G#2",
          "ticks": 116544,
          "time": 101.16656549999999,
          "velocity": 0.47244094488188976
        },
        {
          "duration": 0.16666650000000516,
          "durationTicks": 192,
          "midi": 37,
          "name": "C#2",
          "ticks": 116736,
          "time": 101.333232,
          "velocity": 0.47244094488188976
        },
        {
          "duration": 0.16666649999999095,
          "durationTicks": 192,
          "midi": 44,
          "name": "G#2",
          "ticks": 116928,
          "time": 101.4998985,
          "velocity": 0.47244094488188976
        },
        {
          "duration": 0.16666650000000516,
          "durationTicks": 192,
          "midi": 53,
          "name": "F3",
          "ticks": 117120,
          "time": 101.66656499999999,
          "velocity": 0.47244094488188976
        },
        {
          "duration": 0.16666650000000516,
          "durationTicks": 192,
          "midi": 37,
          "name": "C#2",
          "ticks": 117312,
          "time": 101.8332315,
          "velocity": 0.47244094488188976
        },
        {
          "duration": 0.16666649999999095,
          "durationTicks": 192,
          "midi": 32,
          "name": "G#1",
          "ticks": 117504,
          "time": 101.999898,
          "velocity": 0.47244094488188976
        },
        {
          "duration": 0.16666650000000516,
          "durationTicks": 192,
          "midi": 37,
          "name": "C#2",
          "ticks": 117696,
          "time": 102.16656449999999,
          "velocity": 0.47244094488188976
        },
        {
          "duration": 0.16666650000000516,
          "durationTicks": 192,
          "midi": 49,
          "name": "C#3",
          "ticks": 117888,
          "time": 102.333231,
          "velocity": 0.47244094488188976
        },
        {
          "duration": 0.16666649999999095,
          "durationTicks": 192,
          "midi": 44,
          "name": "G#2",
          "ticks": 118080,
          "time": 102.4998975,
          "velocity": 0.47244094488188976
        },
        {
          "duration": 0.16666650000000516,
          "durationTicks": 192,
          "midi": 37,
          "name": "C#2",
          "ticks": 118272,
          "time": 102.666564,
          "velocity": 0.47244094488188976
        },
        {
          "duration": 0.16666649999999095,
          "durationTicks": 192,
          "midi": 44,
          "name": "G#2",
          "ticks": 118464,
          "time": 102.8332305,
          "velocity": 0.47244094488188976
        },
        {
          "duration": 0.16666650000000516,
          "durationTicks": 192,
          "midi": 53,
          "name": "F3",
          "ticks": 118656,
          "time": 102.99989699999999,
          "velocity": 0.47244094488188976
        },
        {
          "duration": 0.16666650000000516,
          "durationTicks": 192,
          "midi": 37,
          "name": "C#2",
          "ticks": 118848,
          "time": 103.1665635,
          "velocity": 0.47244094488188976
        },
        {
          "duration": 0.16666649999999095,
          "durationTicks": 192,
          "midi": 32,
          "name": "G#1",
          "ticks": 119040,
          "time": 103.33323,
          "velocity": 0.47244094488188976
        },
        {
          "duration": 0.16666650000000516,
          "durationTicks": 192,
          "midi": 37,
          "name": "C#2",
          "ticks": 119232,
          "time": 103.49989649999999,
          "velocity": 0.47244094488188976
        },
        {
          "duration": 0.16666650000000516,
          "durationTicks": 192,
          "midi": 49,
          "name": "C#3",
          "ticks": 119424,
          "time": 103.666563,
          "velocity": 0.47244094488188976
        },
        {
          "duration": 0.16666649999999095,
          "durationTicks": 192,
          "midi": 44,
          "name": "G#2",
          "ticks": 119616,
          "time": 103.8332295,
          "velocity": 0.47244094488188976
        },
        {
          "duration": 0.16666650000000516,
          "durationTicks": 192,
          "midi": 37,
          "name": "C#2",
          "ticks": 119808,
          "time": 103.99989599999999,
          "velocity": 0.47244094488188976
        },
        {
          "duration": 0.16666650000000516,
          "durationTicks": 192,
          "midi": 44,
          "name": "G#2",
          "ticks": 120000,
          "time": 104.1665625,
          "velocity": 0.47244094488188976
        },
        {
          "duration": 0.16666649999999095,
          "durationTicks": 192,
          "midi": 53,
          "name": "F3",
          "ticks": 120192,
          "time": 104.333229,
          "velocity": 0.47244094488188976
        },
        {
          "duration": 0.16666650000000516,
          "durationTicks": 192,
          "midi": 37,
          "name": "C#2",
          "ticks": 120384,
          "time": 104.4998955,
          "velocity": 0.47244094488188976
        },
        {
          "duration": 0.16666649999999095,
          "durationTicks": 192,
          "midi": 32,
          "name": "G#1",
          "ticks": 120576,
          "time": 104.666562,
          "velocity": 0.47244094488188976
        },
        {
          "duration": 0.16666650000000516,
          "durationTicks": 192,
          "midi": 37,
          "name": "C#2",
          "ticks": 120768,
          "time": 104.83322849999999,
          "velocity": 0.47244094488188976
        },
        {
          "duration": 0.16666650000000516,
          "durationTicks": 192,
          "midi": 49,
          "name": "C#3",
          "ticks": 120960,
          "time": 104.999895,
          "velocity": 0.47244094488188976
        },
        {
          "duration": 0.16666649999999095,
          "durationTicks": 192,
          "midi": 44,
          "name": "G#2",
          "ticks": 121152,
          "time": 105.1665615,
          "velocity": 0.47244094488188976
        },
        {
          "duration": 0.16666650000000516,
          "durationTicks": 192,
          "midi": 36,
          "name": "C2",
          "ticks": 121344,
          "time": 105.33322799999999,
          "velocity": 0.47244094488188976
        },
        {
          "duration": 0.16666650000000516,
          "durationTicks": 192,
          "midi": 43,
          "name": "G2",
          "ticks": 121536,
          "time": 105.4998945,
          "velocity": 0.47244094488188976
        },
        {
          "duration": 0.16666649999999095,
          "durationTicks": 192,
          "midi": 52,
          "name": "E3",
          "ticks": 121728,
          "time": 105.666561,
          "velocity": 0.47244094488188976
        },
        {
          "duration": 0.16666650000000516,
          "durationTicks": 192,
          "midi": 36,
          "name": "C2",
          "ticks": 121920,
          "time": 105.83322749999999,
          "velocity": 0.47244094488188976
        },
        {
          "duration": 0.16666650000000516,
          "durationTicks": 192,
          "midi": 31,
          "name": "G1",
          "ticks": 122112,
          "time": 105.999894,
          "velocity": 0.47244094488188976
        },
        {
          "duration": 0.16666649999999095,
          "durationTicks": 192,
          "midi": 36,
          "name": "C2",
          "ticks": 122304,
          "time": 106.1665605,
          "velocity": 0.47244094488188976
        },
        {
          "duration": 0.16666650000000516,
          "durationTicks": 192,
          "midi": 48,
          "name": "C3",
          "ticks": 122496,
          "time": 106.333227,
          "velocity": 0.47244094488188976
        },
        {
          "duration": 0.16666650000000516,
          "durationTicks": 192,
          "midi": 43,
          "name": "G2",
          "ticks": 122688,
          "time": 106.4998935,
          "velocity": 0.47244094488188976
        }
      ],
      "endOfTrackTicks": 122880
    }
  ]
}
