{
  "header": {
    "keySignatures": [],
    "meta": [],
    "name": "",
    "ppq": 384,
    "tempos": [
      {
        "bpm": 135.000135000135,
        "ticks": 0
      }
    ],
    "timeSignatures": [
      {
        "ticks": 0,
        "timeSignature": [
          1,
          4
        ],
        "measures": 0
      }
    ]
  },
  "tracks": [
    {
      "channel": 0,
      "controlChanges": {},
      "pitchBends": [],
      "instrument": {
        "family": "piano",
        "number": 0,
        "name": "acoustic grand piano"
      },
      "name": "Elec. Piano (Classic)",
      "notes": [
        {
          "duration": 0.222222,
          "durationTicks": 192,
          "midi": 61,
          "name": "C#4",
          "ticks": 0,
          "time": 0,
          "velocity": 0.49606299212598426
        },
        {
          "duration": 0.11111099999999999,
          "durationTicks": 96,
          "midi": 56,
          "name": "G#3",
          "ticks": 192,
          "time": 0.222222,
          "velocity": 0.49606299212598426
        },
        {
          "duration": 0.11111100000000002,
          "durationTicks": 96,
          "midi": 57,
          "name": "A3",
          "ticks": 288,
          "time": 0.333333,
          "velocity": 0.49606299212598426
        },
        {
          "duration": 0.22222199999999998,
          "durationTicks": 192,
          "midi": 56,
          "name": "G#3",
          "ticks": 384,
          "time": 0.444444,
          "velocity": 0.49606299212598426
        },
        {
          "duration": 0.11111100000000007,
          "durationTicks": 96,
          "midi": 54,
          "name": "F#3",
          "ticks": 576,
          "time": 0.666666,
          "velocity": 0.49606299212598426
        },
        {
          "duration": 0.11111099999999996,
          "durationTicks": 96,
          "midi": 57,
          "name": "A3",
          "ticks": 672,
          "time": 0.777777,
          "velocity": 0.49606299212598426
        },
        {
          "duration": 0.11111099999999996,
          "durationTicks": 96,
          "midi": 52,
          "name": "E3",
          "ticks": 768,
          "time": 0.888888,
          "velocity": 0.49606299212598426
        },
        {
          "duration": 0.11111100000000007,
          "durationTicks": 96,
          "midi": 56,
          "name": "G#3",
          "ticks": 864,
          "time": 0.999999,
          "velocity": 0.49606299212598426
        },
        {
          "duration": 0.11111099999999996,
          "durationTicks": 96,
          "midi": 61,
          "name": "C#4",
          "ticks": 960,
          "time": 1.11111,
          "velocity": 0.49606299212598426
        },
        {
          "duration": 0.11111099999999996,
          "durationTicks": 96,
          "midi": 56,
          "name": "G#3",
          "ticks": 1152,
          "time": 1.333332,
          "velocity": 0.49606299212598426
        },
        {
          "duration": 0.11111100000000018,
          "durationTicks": 96,
          "midi": 54,
          "name": "F#3",
          "ticks": 1248,
          "time": 1.444443,
          "velocity": 0.49606299212598426
        },
        {
          "duration": 0.22222199999999992,
          "durationTicks": 192,
          "midi": 52,
          "name": "E3",
          "ticks": 1344,
          "time": 1.555554,
          "velocity": 0.49606299212598426
        },
        {
          "duration": 0.11111099999999996,
          "durationTicks": 96,
          "midi": 51,
          "name": "D#3",
          "ticks": 1536,
          "time": 1.777776,
          "velocity": 0.49606299212598426
        },
        {
          "duration": 0.11111099999999996,
          "durationTicks": 96,
          "midi": 52,
          "name": "E3",
          "ticks": 1632,
          "time": 1.888887,
          "velocity": 0.49606299212598426
        },
        {
          "duration": 0.11111099999999996,
          "durationTicks": 96,
          "midi": 51,
          "name": "D#3",
          "ticks": 1728,
          "time": 1.999998,
          "velocity": 0.49606299212598426
        },
        {
          "duration": 0.11111100000000018,
          "durationTicks": 96,
          "midi": 52,
          "name": "E3",
          "ticks": 1824,
          "time": 2.111109,
          "velocity": 0.49606299212598426
        },
        {
          "duration": 0.22222199999999992,
          "durationTicks": 192,
          "midi": 51,
          "name": "D#3",
          "ticks": 1920,
          "time": 2.22222,
          "velocity": 0.49606299212598426
        },
        {
          "duration": 0.11111100000000018,
          "durationTicks": 96,
          "midi": 54,
          "name": "F#3",
          "ticks": 2112,
          "time": 2.444442,
          "velocity": 0.49606299212598426
        },
        {
          "duration": 0.11111099999999974,
          "durationTicks": 96,
          "midi": 56,
          "name": "G#3",
          "ticks": 2208,
          "time": 2.555553,
          "velocity": 0.49606299212598426
        },
        {
          "duration": 0.11111100000000018,
          "durationTicks": 96,
          "midi": 57,
          "name": "A3",
          "ticks": 2304,
          "time": 2.666664,
          "velocity": 0.49606299212598426
        },
        {
          "duration": 0.11111100000000018,
          "durationTicks": 96,
          "midi": 54,
          "name": "F#3",
          "ticks": 2496,
          "time": 2.888886,
          "velocity": 0.49606299212598426
        },
        {
          "duration": 0.11111099999999974,
          "durationTicks": 96,
          "midi": 55,
          "name": "G3",
          "ticks": 2688,
          "time": 3.111108,
          "velocity": 0.49606299212598426
        },
        {
          "duration": 0.3333330000000001,
          "durationTicks": 288,
          "midi": 56,
          "name": "G#3",
          "ticks": 2738,
          "time": 3.1689783124999997,
          "velocity": 0.49606299212598426
        },
        {
          "duration": 0.11111100000000018,
          "durationTicks": 96,
          "midi": 61,
          "name": "C#4",
          "ticks": 3072,
          "time": 3.555552,
          "velocity": 0.49606299212598426
        },
        {
          "duration": 0.11111099999999974,
          "durationTicks": 96,
          "midi": 61,
          "name": "C#4",
          "ticks": 3168,
          "time": 3.6666630000000002,
          "velocity": 0.49606299212598426
        },
        {
          "duration": 0.11111100000000018,
          "durationTicks": 96,
          "midi": 56,
          "name": "G#3",
          "ticks": 3264,
          "time": 3.777774,
          "velocity": 0.49606299212598426
        },
        {
          "duration": 0.11111099999999974,
          "durationTicks": 96,
          "midi": 57,
          "name": "A3",
          "ticks": 3360,
          "time": 3.888885,
          "velocity": 0.49606299212598426
        },
        {
          "duration": 0.11111099999999974,
          "durationTicks": 96,
          "midi": 56,
          "name": "G#3",
          "ticks": 3456,
          "time": 3.999996,
          "velocity": 0.49606299212598426
        },
        {
          "duration": 0.11111100000000018,
          "durationTicks": 96,
          "midi": 57,
          "name": "A3",
          "ticks": 3552,
          "time": 4.111107,
          "velocity": 0.49606299212598426
        },
        {
          "duration": 0.11111100000000018,
          "durationTicks": 96,
          "midi": 54,
          "name": "F#3",
          "ticks": 3648,
          "time": 4.222218,
          "velocity": 0.49606299212598426
        },
        {
          "duration": 0.11111100000000018,
          "durationTicks": 96,
          "midi": 57,
          "name": "A3",
          "ticks": 3744,
          "time": 4.333329,
          "velocity": 0.49606299212598426
        },
        {
          "duration": 0.11111100000000018,
          "durationTicks": 96,
          "midi": 56,
          "name": "G#3",
          "ticks": 3840,
          "time": 4.44444,
          "velocity": 0.49606299212598426
        },
        {
          "duration": 0.11111100000000018,
          "durationTicks": 96,
          "midi": 61,
          "name": "C#4",
          "ticks": 4032,
          "time": 4.666662,
          "velocity": 0.49606299212598426
        },
        {
          "duration": 0.11111100000000018,
          "durationTicks": 96,
          "midi": 56,
          "name": "G#3",
          "ticks": 4128,
          "time": 4.777773,
          "velocity": 0.49606299212598426
        },
        {
          "duration": 0.11111100000000018,
          "durationTicks": 96,
          "midi": 63,
          "name": "D#4",
          "ticks": 4224,
          "time": 4.888884,
          "velocity": 0.49606299212598426
        },
        {
          "duration": 0.11111100000000018,
          "durationTicks": 96,
          "midi": 64,
          "name": "E4",
          "ticks": 4272,
          "time": 4.9444395,
          "velocity": 0.49606299212598426
        },
        {
          "duration": 0.11111100000000018,
          "durationTicks": 96,
          "midi": 63,
          "name": "D#4",
          "ticks": 4320,
          "time": 4.999995,
          "velocity": 0.49606299212598426
        },
        {
          "duration": 0.22222199999999948,
          "durationTicks": 192,
          "midi": 61,
          "name": "C#4",
          "ticks": 4416,
          "time": 5.111106,
          "velocity": 0.49606299212598426
        },
        {
          "duration": 0.11111100000000018,
          "durationTicks": 96,
          "midi": 64,
          "name": "E4",
          "ticks": 4608,
          "time": 5.333328,
          "velocity": 0.49606299212598426
        },
        {
          "duration": 0.11111100000000018,
          "durationTicks": 96,
          "midi": 64,
          "name": "E4",
          "ticks": 4704,
          "time": 5.444439,
          "velocity": 0.49606299212598426
        },
        {
          "duration": 0.11111100000000018,
          "durationTicks": 96,
          "midi": 61,
          "name": "C#4",
          "ticks": 4800,
          "time": 5.55555,
          "velocity": 0.49606299212598426
        },
        {
          "duration": 0.1111109999999993,
          "durationTicks": 96,
          "midi": 61,
          "name": "C#4",
          "ticks": 4896,
          "time": 5.666661,
          "velocity": 0.49606299212598426
        },
        {
          "duration": 0.11111100000000018,
          "durationTicks": 96,
          "midi": 63,
          "name": "D#4",
          "ticks": 4944,
          "time": 5.7222165,
          "velocity": 0.49606299212598426
        },
        {
          "duration": 0.11111100000000018,
          "durationTicks": 96,
          "midi": 61,
          "name": "C#4",
          "ticks": 4992,
          "time": 5.777772,
          "velocity": 0.49606299212598426
        },
        {
          "duration": 0.11111100000000018,
          "durationTicks": 96,
          "midi": 59,
          "name": "B3",
          "ticks": 5088,
          "time": 5.888883,
          "velocity": 0.49606299212598426
        },
        {
          "duration": 0.11111100000000018,
          "durationTicks": 96,
          "midi": 54,
          "name": "F#3",
          "ticks": 5184,
          "time": 5.999994,
          "velocity": 0.49606299212598426
        },
        {
          "duration": 0.11111100000000018,
          "durationTicks": 96,
          "midi": 55,
          "name": "G3",
          "ticks": 5280,
          "time": 6.111105,
          "velocity": 0.49606299212598426
        },
        {
          "duration": 0.1111109999999993,
          "durationTicks": 96,
          "midi": 56,
          "name": "G#3",
          "ticks": 5376,
          "time": 6.222216,
          "velocity": 0.49606299212598426
        },
        {
          "duration": 0.11111100000000018,
          "durationTicks": 96,
          "midi": 57,
          "name": "A3",
          "ticks": 5568,
          "time": 6.444438,
          "velocity": 0.49606299212598426
        },
        {
          "duration": 0.44444399999999984,
          "durationTicks": 384,
          "midi": 56,
          "name": "G#3",
          "ticks": 5760,
          "time": 6.66666,
          "velocity": 0.49606299212598426
        },
        {
          "duration": 0.22222200000000036,
          "durationTicks": 192,
          "midi": 61,
          "name": "C#4",
          "ticks": 6144,
          "time": 7.111104,
          "velocity": 0.49606299212598426
        },
        {
          "duration": 0.1111109999999993,
          "durationTicks": 96,
          "midi": 56,
          "name": "G#3",
          "ticks": 6336,
          "time": 7.3333260000000005,
          "velocity": 0.49606299212598426
        },
        {
          "duration": 0.11111100000000018,
          "durationTicks": 96,
          "midi": 57,
          "name": "A3",
          "ticks": 6432,
          "time": 7.444437,
          "velocity": 0.49606299212598426
        },
        {
          "duration": 0.22222200000000036,
          "durationTicks": 192,
          "midi": 56,
          "name": "G#3",
          "ticks": 6528,
          "time": 7.555548,
          "velocity": 0.49606299212598426
        },
        {
          "duration": 0.11111100000000018,
          "durationTicks": 96,
          "midi": 54,
          "name": "F#3",
          "ticks": 6720,
          "time": 7.77777,
          "velocity": 0.49606299212598426
        },
        {
          "duration": 0.1111109999999993,
          "durationTicks": 96,
          "midi": 57,
          "name": "A3",
          "ticks": 6816,
          "time": 7.8888810000000005,
          "velocity": 0.49606299212598426
        },
        {
          "duration": 0.11111100000000018,
          "durationTicks": 96,
          "midi": 52,
          "name": "E3",
          "ticks": 6912,
          "time": 7.999992,
          "velocity": 0.49606299212598426
        },
        {
          "duration": 0.1111109999999993,
          "durationTicks": 96,
          "midi": 56,
          "name": "G#3",
          "ticks": 7008,
          "time": 8.111103,
          "velocity": 0.49606299212598426
        },
        {
          "duration": 0.11111100000000107,
          "durationTicks": 96,
          "midi": 60,
          "name": "C4",
          "ticks": 7104,
          "time": 8.222214,
          "velocity": 0.49606299212598426
        },
        {
          "duration": 0.1111109999999993,
          "durationTicks": 96,
          "midi": 61,
          "name": "C#4",
          "ticks": 7154,
          "time": 8.2800843125,
          "velocity": 0.49606299212598426
        },
        {
          "duration": 0.11111100000000107,
          "durationTicks": 96,
          "midi": 56,
          "name": "G#3",
          "ticks": 7296,
          "time": 8.444436,
          "velocity": 0.49606299212598426
        },
        {
          "duration": 0.1111109999999993,
          "durationTicks": 96,
          "midi": 54,
          "name": "F#3",
          "ticks": 7392,
          "time": 8.555547,
          "velocity": 0.49606299212598426
        },
        {
          "duration": 0.22222200000000036,
          "durationTicks": 192,
          "midi": 52,
          "name": "E3",
          "ticks": 7488,
          "time": 8.666658,
          "velocity": 0.49606299212598426
        },
        {
          "duration": 0.1111109999999993,
          "durationTicks": 96,
          "midi": 51,
          "name": "D#3",
          "ticks": 7680,
          "time": 8.88888,
          "velocity": 0.49606299212598426
        },
        {
          "duration": 0.11111100000000107,
          "durationTicks": 96,
          "midi": 52,
          "name": "E3",
          "ticks": 7776,
          "time": 8.999991,
          "velocity": 0.49606299212598426
        },
        {
          "duration": 0.1111109999999993,
          "durationTicks": 96,
          "midi": 51,
          "name": "D#3",
          "ticks": 7872,
          "time": 9.111102,
          "velocity": 0.49606299212598426
        },
        {
          "duration": 0.1111109999999993,
          "durationTicks": 96,
          "midi": 52,
          "name": "E3",
          "ticks": 7968,
          "time": 9.222213,
          "velocity": 0.49606299212598426
        },
        {
          "duration": 0.22222200000000036,
          "durationTicks": 192,
          "midi": 51,
          "name": "D#3",
          "ticks": 8064,
          "time": 9.333324,
          "velocity": 0.49606299212598426
        },
        {
          "duration": 0.11111100000000107,
          "durationTicks": 96,
          "midi": 54,
          "name": "F#3",
          "ticks": 8256,
          "time": 9.555546,
          "velocity": 0.49606299212598426
        },
        {
          "duration": 0.1111109999999993,
          "durationTicks": 96,
          "midi": 56,
          "name": "G#3",
          "ticks": 8352,
          "time": 9.666657,
          "velocity": 0.49606299212598426
        },
        {
          "duration": 0.1111109999999993,
          "durationTicks": 96,
          "midi": 56,
          "name": "G#3",
          "ticks": 8448,
          "time": 9.777768,
          "velocity": 0.49606299212598426
        },
        {
          "duration": 0.1111109999999993,
          "durationTicks": 96,
          "midi": 57,
          "name": "A3",
          "ticks": 8498,
          "time": 9.8356383125,
          "velocity": 0.49606299212598426
        },
        {
          "duration": 0.1111109999999993,
          "durationTicks": 96,
          "midi": 54,
          "name": "F#3",
          "ticks": 8640,
          "time": 9.99999,
          "velocity": 0.49606299212598426
        },
        {
          "duration": 0.1111109999999993,
          "durationTicks": 96,
          "midi": 55,
          "name": "G3",
          "ticks": 8832,
          "time": 10.222212,
          "velocity": 0.49606299212598426
        },
        {
          "duration": 0.33333299999999966,
          "durationTicks": 288,
          "midi": 56,
          "name": "G#3",
          "ticks": 8882,
          "time": 10.2800823125,
          "velocity": 0.49606299212598426
        },
        {
          "duration": 0.11111100000000107,
          "durationTicks": 96,
          "midi": 61,
          "name": "C#4",
          "ticks": 9216,
          "time": 10.666656,
          "velocity": 0.49606299212598426
        },
        {
          "duration": 0.1111109999999993,
          "durationTicks": 96,
          "midi": 61,
          "name": "C#4",
          "ticks": 9312,
          "time": 10.777767,
          "velocity": 0.49606299212598426
        },
        {
          "duration": 0.1111109999999993,
          "durationTicks": 96,
          "midi": 56,
          "name": "G#3",
          "ticks": 9408,
          "time": 10.888878,
          "velocity": 0.49606299212598426
        },
        {
          "duration": 0.11111100000000107,
          "durationTicks": 96,
          "midi": 57,
          "name": "A3",
          "ticks": 9504,
          "time": 10.999989,
          "velocity": 0.49606299212598426
        },
        {
          "duration": 0.1111109999999993,
          "durationTicks": 96,
          "midi": 56,
          "name": "G#3",
          "ticks": 9600,
          "time": 11.1111,
          "velocity": 0.49606299212598426
        },
        {
          "duration": 0.11111100000000107,
          "durationTicks": 96,
          "midi": 57,
          "name": "A3",
          "ticks": 9696,
          "time": 11.222211,
          "velocity": 0.49606299212598426
        },
        {
          "duration": 0.1111109999999993,
          "durationTicks": 96,
          "midi": 54,
          "name": "F#3",
          "ticks": 9792,
          "time": 11.333322,
          "velocity": 0.49606299212598426
        },
        {
          "duration": 0.1111109999999993,
          "durationTicks": 96,
          "midi": 57,
          "name": "A3",
          "ticks": 9888,
          "time": 11.444433,
          "velocity": 0.49606299212598426
        },
        {
          "duration": 0.11111100000000107,
          "durationTicks": 96,
          "midi": 56,
          "name": "G#3",
          "ticks": 9984,
          "time": 11.555544,
          "velocity": 0.49606299212598426
        },
        {
          "duration": 0.11111100000000107,
          "durationTicks": 96,
          "midi": 61,
          "name": "C#4",
          "ticks": 10176,
          "time": 11.777766,
          "velocity": 0.49606299212598426
        },
        {
          "duration": 0.1111109999999993,
          "durationTicks": 96,
          "midi": 63,
          "name": "D#4",
          "ticks": 10368,
          "time": 11.999988,
          "velocity": 0.49606299212598426
        },
        {
          "duration": 0.1111109999999993,
          "durationTicks": 96,
          "midi": 64,
          "name": "E4",
          "ticks": 10416,
          "time": 12.0555435,
          "velocity": 0.49606299212598426
        },
        {
          "duration": 0.11111100000000107,
          "durationTicks": 96,
          "midi": 63,
          "name": "D#4",
          "ticks": 10464,
          "time": 12.111099,
          "velocity": 0.49606299212598426
        },
        {
          "duration": 0.22222200000000036,
          "durationTicks": 192,
          "midi": 61,
          "name": "C#4",
          "ticks": 10560,
          "time": 12.22221,
          "velocity": 0.49606299212598426
        },
        {
          "duration": 0.1111109999999993,
          "durationTicks": 96,
          "midi": 64,
          "name": "E4",
          "ticks": 10752,
          "time": 12.444432,
          "velocity": 0.49606299212598426
        },
        {
          "duration": 0.1111109999999993,
          "durationTicks": 96,
          "midi": 64,
          "name": "E4",
          "ticks": 10848,
          "time": 12.555543,
          "velocity": 0.49606299212598426
        },
        {
          "duration": 0.11111100000000107,
          "durationTicks": 96,
          "midi": 61,
          "name": "C#4",
          "ticks": 10944,
          "time": 12.666654,
          "velocity": 0.49606299212598426
        },
        {
          "duration": 0.1111109999999993,
          "durationTicks": 96,
          "midi": 61,
          "name": "C#4",
          "ticks": 11040,
          "time": 12.777765,
          "velocity": 0.49606299212598426
        },
        {
          "duration": 0.1111109999999993,
          "durationTicks": 96,
          "midi": 63,
          "name": "D#4",
          "ticks": 11088,
          "time": 12.833320500000001,
          "velocity": 0.49606299212598426
        },
        {
          "duration": 0.11111100000000107,
          "durationTicks": 96,
          "midi": 61,
          "name": "C#4",
          "ticks": 11136,
          "time": 12.888876,
          "velocity": 0.49606299212598426
        },
        {
          "duration": 0.1111109999999993,
          "durationTicks": 96,
          "midi": 59,
          "name": "B3",
          "ticks": 11232,
          "time": 12.999987,
          "velocity": 0.49606299212598426
        },
        {
          "duration": 0.1111109999999993,
          "durationTicks": 96,
          "midi": 54,
          "name": "F#3",
          "ticks": 11328,
          "time": 13.111098,
          "velocity": 0.49606299212598426
        },
        {
          "duration": 0.11111100000000107,
          "durationTicks": 96,
          "midi": 55,
          "name": "G3",
          "ticks": 11424,
          "time": 13.222209,
          "velocity": 0.49606299212598426
        },
        {
          "duration": 0.1111109999999993,
          "durationTicks": 96,
          "midi": 56,
          "name": "G#3",
          "ticks": 11520,
          "time": 13.33332,
          "velocity": 0.49606299212598426
        },
        {
          "duration": 0.1111109999999993,
          "durationTicks": 96,
          "midi": 57,
          "name": "A3",
          "ticks": 11712,
          "time": 13.555542,
          "velocity": 0.49606299212598426
        },
        {
          "duration": 0.4444440000000007,
          "durationTicks": 384,
          "midi": 56,
          "name": "G#3",
          "ticks": 11904,
          "time": 13.777764,
          "velocity": 0.49606299212598426
        },
        {
          "duration": 0.22222200000000036,
          "durationTicks": 192,
          "midi": 61,
          "name": "C#4",
          "ticks": 12288,
          "time": 14.222208,
          "velocity": 0.49606299212598426
        },
        {
          "duration": 0.22222200000000036,
          "durationTicks": 192,
          "midi": 64,
          "name": "E4",
          "ticks": 12288,
          "time": 14.222208,
          "velocity": 0.49606299212598426
        },
        {
          "duration": 0.1111109999999993,
          "durationTicks": 96,
          "midi": 56,
          "name": "G#3",
          "ticks": 12480,
          "time": 14.44443,
          "velocity": 0.49606299212598426
        },
        {
          "duration": 0.1111109999999993,
          "durationTicks": 96,
          "midi": 61,
          "name": "C#4",
          "ticks": 12480,
          "time": 14.44443,
          "velocity": 0.49606299212598426
        },
        {
          "duration": 0.11111100000000107,
          "durationTicks": 96,
          "midi": 63,
          "name": "D#4",
          "ticks": 12576,
          "time": 14.555541,
          "velocity": 0.49606299212598426
        },
        {
          "duration": 0.11111100000000107,
          "durationTicks": 96,
          "midi": 57,
          "name": "A3",
          "ticks": 12576,
          "time": 14.555541,
          "velocity": 0.49606299212598426
        },
        {
          "duration": 0.2222219999999986,
          "durationTicks": 192,
          "midi": 56,
          "name": "G#3",
          "ticks": 12672,
          "time": 14.666652000000001,
          "velocity": 0.49606299212598426
        },
        {
          "duration": 0.2222219999999986,
          "durationTicks": 192,
          "midi": 61,
          "name": "C#4",
          "ticks": 12672,
          "time": 14.666652000000001,
          "velocity": 0.49606299212598426
        },
        {
          "duration": 0.11111100000000107,
          "durationTicks": 96,
          "midi": 54,
          "name": "F#3",
          "ticks": 12864,
          "time": 14.888874,
          "velocity": 0.49606299212598426
        },
        {
          "duration": 0.11111100000000107,
          "durationTicks": 96,
          "midi": 59,
          "name": "B3",
          "ticks": 12864,
          "time": 14.888874,
          "velocity": 0.49606299212598426
        },
        {
          "duration": 0.1111109999999993,
          "durationTicks": 96,
          "midi": 63,
          "name": "D#4",
          "ticks": 12960,
          "time": 14.999985,
          "velocity": 0.49606299212598426
        },
        {
          "duration": 0.1111109999999993,
          "durationTicks": 96,
          "midi": 57,
          "name": "A3",
          "ticks": 12960,
          "time": 14.999985,
          "velocity": 0.49606299212598426
        },
        {
          "duration": 0.11111100000000107,
          "durationTicks": 96,
          "midi": 52,
          "name": "E3",
          "ticks": 13056,
          "time": 15.111096,
          "velocity": 0.49606299212598426
        },
        {
          "duration": 0.11111100000000107,
          "durationTicks": 96,
          "midi": 56,
          "name": "G#3",
          "ticks": 13056,
          "time": 15.111096,
          "velocity": 0.49606299212598426
        },
        {
          "duration": 0.1111109999999993,
          "durationTicks": 96,
          "midi": 61,
          "name": "C#4",
          "ticks": 13152,
          "time": 15.222207000000001,
          "velocity": 0.49606299212598426
        },
        {
          "duration": 0.1111109999999993,
          "durationTicks": 96,
          "midi": 56,
          "name": "G#3",
          "ticks": 13152,
          "time": 15.222207000000001,
          "velocity": 0.49606299212598426
        },
        {
          "duration": 0.1111109999999993,
          "durationTicks": 96,
          "midi": 64,
          "name": "E4",
          "ticks": 13248,
          "time": 15.333318,
          "velocity": 0.49606299212598426
        },
        {
          "duration": 0.1111109999999993,
          "durationTicks": 96,
          "midi": 61,
          "name": "C#4",
          "ticks": 13248,
          "time": 15.333318,
          "velocity": 0.49606299212598426
        },
        {
          "duration": 0.1111109999999993,
          "durationTicks": 96,
          "midi": 56,
          "name": "G#3",
          "ticks": 13440,
          "time": 15.55554,
          "velocity": 0.49606299212598426
        },
        {
          "duration": 0.1111109999999993,
          "durationTicks": 96,
          "midi": 61,
          "name": "C#4",
          "ticks": 13440,
          "time": 15.55554,
          "velocity": 0.49606299212598426
        },
        {
          "duration": 0.11111100000000107,
          "durationTicks": 96,
          "midi": 54,
          "name": "F#3",
          "ticks": 13536,
          "time": 15.666651,
          "velocity": 0.49606299212598426
        },
        {
          "duration": 0.11111100000000107,
          "durationTicks": 96,
          "midi": 59,
          "name": "B3",
          "ticks": 13536,
          "time": 15.666651,
          "velocity": 0.49606299212598426
        },
        {
          "duration": 0.2222219999999986,
          "durationTicks": 192,
          "midi": 56,
          "name": "G#3",
          "ticks": 13632,
          "time": 15.777762000000001,
          "velocity": 0.49606299212598426
        },
        {
          "duration": 0.2222219999999986,
          "durationTicks": 192,
          "midi": 52,
          "name": "E3",
          "ticks": 13632,
          "time": 15.777762000000001,
          "velocity": 0.49606299212598426
        },
        {
          "duration": 0.1111109999999993,
          "durationTicks": 96,
          "midi": 51,
          "name": "D#3",
          "ticks": 13824,
          "time": 15.999984,
          "velocity": 0.49606299212598426
        },
        {
          "duration": 0.1111109999999993,
          "durationTicks": 96,
          "midi": 54,
          "name": "F#3",
          "ticks": 13824,
          "time": 15.999984,
          "velocity": 0.49606299212598426
        },
        {
          "duration": 0.11111100000000107,
          "durationTicks": 96,
          "midi": 52,
          "name": "E3",
          "ticks": 13920,
          "time": 16.111095,
          "velocity": 0.49606299212598426
        },
        {
          "duration": 0.11111100000000107,
          "durationTicks": 96,
          "midi": 56,
          "name": "G#3",
          "ticks": 13920,
          "time": 16.111095,
          "velocity": 0.49606299212598426
        },
        {
          "duration": 0.11111100000000107,
          "durationTicks": 96,
          "midi": 54,
          "name": "F#3",
          "ticks": 14016,
          "time": 16.222206,
          "velocity": 0.49606299212598426
        },
        {
          "duration": 0.11111100000000107,
          "durationTicks": 96,
          "midi": 51,
          "name": "D#3",
          "ticks": 14016,
          "time": 16.222206,
          "velocity": 0.49606299212598426
        },
        {
          "duration": 0.11111099999999752,
          "durationTicks": 96,
          "midi": 56,
          "name": "G#3",
          "ticks": 14112,
          "time": 16.333317,
          "velocity": 0.49606299212598426
        },
        {
          "duration": 0.11111099999999752,
          "durationTicks": 96,
          "midi": 52,
          "name": "E3",
          "ticks": 14112,
          "time": 16.333317,
          "velocity": 0.49606299212598426
        },
        {
          "duration": 0.22222200000000214,
          "durationTicks": 192,
          "midi": 54,
          "name": "F#3",
          "ticks": 14208,
          "time": 16.444428,
          "velocity": 0.49606299212598426
        },
        {
          "duration": 0.22222200000000214,
          "durationTicks": 192,
          "midi": 51,
          "name": "D#3",
          "ticks": 14208,
          "time": 16.444428,
          "velocity": 0.49606299212598426
        },
        {
          "duration": 0.11111100000000107,
          "durationTicks": 96,
          "midi": 54,
          "name": "F#3",
          "ticks": 14400,
          "time": 16.66665,
          "velocity": 0.49606299212598426
        },
        {
          "duration": 0.11111100000000107,
          "durationTicks": 96,
          "midi": 59,
          "name": "B3",
          "ticks": 14400,
          "time": 16.66665,
          "velocity": 0.49606299212598426
        },
        {
          "duration": 0.11111099999999752,
          "durationTicks": 96,
          "midi": 61,
          "name": "C#4",
          "ticks": 14496,
          "time": 16.777761,
          "velocity": 0.49606299212598426
        },
        {
          "duration": 0.11111099999999752,
          "durationTicks": 96,
          "midi": 56,
          "name": "G#3",
          "ticks": 14496,
          "time": 16.777761,
          "velocity": 0.49606299212598426
        },
        {
          "duration": 0.22222200000000214,
          "durationTicks": 192,
          "midi": 57,
          "name": "A3",
          "ticks": 14592,
          "time": 16.888872,
          "velocity": 0.49606299212598426
        },
        {
          "duration": 0.22222200000000214,
          "durationTicks": 192,
          "midi": 68,
          "name": "G#4",
          "ticks": 14592,
          "time": 16.888872,
          "velocity": 0.49606299212598426
        },
        {
          "duration": 0.2222219999999986,
          "durationTicks": 192,
          "midi": 54,
          "name": "F#3",
          "ticks": 14784,
          "time": 17.111094,
          "velocity": 0.49606299212598426
        },
        {
          "duration": 0.2222219999999986,
          "durationTicks": 192,
          "midi": 66,
          "name": "F#4",
          "ticks": 14784,
          "time": 17.111094,
          "velocity": 0.49606299212598426
        },
        {
          "duration": 0.4444440000000007,
          "durationTicks": 384,
          "midi": 56,
          "name": "G#3",
          "ticks": 14976,
          "time": 17.333316,
          "velocity": 0.49606299212598426
        },
        {
          "duration": 0.4444440000000007,
          "durationTicks": 384,
          "midi": 63,
          "name": "D#4",
          "ticks": 14976,
          "time": 17.333316,
          "velocity": 0.49606299212598426
        },
        {
          "duration": 0.11111100000000107,
          "durationTicks": 96,
          "midi": 61,
          "name": "C#4",
          "ticks": 15360,
          "time": 17.77776,
          "velocity": 0.49606299212598426
        },
        {
          "duration": 0.11111100000000107,
          "durationTicks": 96,
          "midi": 64,
          "name": "E4",
          "ticks": 15360,
          "time": 17.77776,
          "velocity": 0.49606299212598426
        },
        {
          "duration": 0.11111099999999752,
          "durationTicks": 96,
          "midi": 64,
          "name": "E4",
          "ticks": 15456,
          "time": 17.888871,
          "velocity": 0.49606299212598426
        },
        {
          "duration": 0.11111099999999752,
          "durationTicks": 96,
          "midi": 61,
          "name": "C#4",
          "ticks": 15456,
          "time": 17.888871,
          "velocity": 0.49606299212598426
        },
        {
          "duration": 0.11111100000000107,
          "durationTicks": 96,
          "midi": 61,
          "name": "C#4",
          "ticks": 15552,
          "time": 17.999982,
          "velocity": 0.49606299212598426
        },
        {
          "duration": 0.11111100000000107,
          "durationTicks": 96,
          "midi": 56,
          "name": "G#3",
          "ticks": 15552,
          "time": 17.999982,
          "velocity": 0.49606299212598426
        },
        {
          "duration": 0.11111100000000107,
          "durationTicks": 96,
          "midi": 57,
          "name": "A3",
          "ticks": 15648,
          "time": 18.111093,
          "velocity": 0.49606299212598426
        },
        {
          "duration": 0.11111100000000107,
          "durationTicks": 96,
          "midi": 63,
          "name": "D#4",
          "ticks": 15648,
          "time": 18.111093,
          "velocity": 0.49606299212598426
        },
        {
          "duration": 0.11111099999999752,
          "durationTicks": 96,
          "midi": 61,
          "name": "C#4",
          "ticks": 15744,
          "time": 18.222204,
          "velocity": 0.49606299212598426
        },
        {
          "duration": 0.11111099999999752,
          "durationTicks": 96,
          "midi": 56,
          "name": "G#3",
          "ticks": 15744,
          "time": 18.222204,
          "velocity": 0.49606299212598426
        },
        {
          "duration": 0.11111100000000107,
          "durationTicks": 96,
          "midi": 57,
          "name": "A3",
          "ticks": 15840,
          "time": 18.333315,
          "velocity": 0.49606299212598426
        },
        {
          "duration": 0.11111100000000107,
          "durationTicks": 96,
          "midi": 63,
          "name": "D#4",
          "ticks": 15840,
          "time": 18.333315,
          "velocity": 0.49606299212598426
        },
        {
          "duration": 0.11111100000000107,
          "durationTicks": 96,
          "midi": 59,
          "name": "B3",
          "ticks": 15936,
          "time": 18.444426,
          "velocity": 0.49606299212598426
        },
        {
          "duration": 0.11111100000000107,
          "durationTicks": 96,
          "midi": 54,
          "name": "F#3",
          "ticks": 15936,
          "time": 18.444426,
          "velocity": 0.49606299212598426
        },
        {
          "duration": 0.11111099999999752,
          "durationTicks": 96,
          "midi": 57,
          "name": "A3",
          "ticks": 16032,
          "time": 18.555537,
          "velocity": 0.49606299212598426
        },
        {
          "duration": 0.11111099999999752,
          "durationTicks": 96,
          "midi": 63,
          "name": "D#4",
          "ticks": 16032,
          "time": 18.555537,
          "velocity": 0.49606299212598426
        },
        {
          "duration": 0.11111100000000107,
          "durationTicks": 96,
          "midi": 61,
          "name": "C#4",
          "ticks": 16128,
          "time": 18.666648,
          "velocity": 0.49606299212598426
        },
        {
          "duration": 0.11111100000000107,
          "durationTicks": 96,
          "midi": 56,
          "name": "G#3",
          "ticks": 16128,
          "time": 18.666648,
          "velocity": 0.49606299212598426
        },
        {
          "duration": 0.11111100000000107,
          "durationTicks": 96,
          "midi": 61,
          "name": "C#4",
          "ticks": 16320,
          "time": 18.88887,
          "velocity": 0.49606299212598426
        },
        {
          "duration": 0.11111100000000107,
          "durationTicks": 96,
          "midi": 64,
          "name": "E4",
          "ticks": 16320,
          "time": 18.88887,
          "velocity": 0.49606299212598426
        },
        {
          "duration": 0.11111100000000107,
          "durationTicks": 96,
          "midi": 64,
          "name": "E4",
          "ticks": 16512,
          "time": 19.111092,
          "velocity": 0.49606299212598426
        },
        {
          "duration": 0.11111100000000107,
          "durationTicks": 96,
          "midi": 68,
          "name": "G#4",
          "ticks": 16560,
          "time": 19.1666475,
          "velocity": 0.49606299212598426
        },
        {
          "duration": 0.11111100000000107,
          "durationTicks": 96,
          "midi": 64,
          "name": "E4",
          "ticks": 16560,
          "time": 19.1666475,
          "velocity": 0.49606299212598426
        },
        {
          "duration": 0.11111100000000107,
          "durationTicks": 96,
          "midi": 63,
          "name": "D#4",
          "ticks": 16608,
          "time": 19.222203,
          "velocity": 0.49606299212598426
        },
        {
          "duration": 0.11111100000000107,
          "durationTicks": 96,
          "midi": 66,
          "name": "F#4",
          "ticks": 16608,
          "time": 19.222203,
          "velocity": 0.49606299212598426
        },
        {
          "duration": 0.2222219999999986,
          "durationTicks": 192,
          "midi": 61,
          "name": "C#4",
          "ticks": 16704,
          "time": 19.333314,
          "velocity": 0.49606299212598426
        },
        {
          "duration": 0.2222219999999986,
          "durationTicks": 192,
          "midi": 64,
          "name": "E4",
          "ticks": 16704,
          "time": 19.333314,
          "velocity": 0.49606299212598426
        },
        {
          "duration": 0.11111100000000107,
          "durationTicks": 96,
          "midi": 68,
          "name": "G#4",
          "ticks": 16896,
          "time": 19.555536,
          "velocity": 0.49606299212598426
        },
        {
          "duration": 0.11111100000000107,
          "durationTicks": 96,
          "midi": 61,
          "name": "C#4",
          "ticks": 16896,
          "time": 19.555536,
          "velocity": 0.49606299212598426
        },
        {
          "duration": 0.11111099999999752,
          "durationTicks": 96,
          "midi": 68,
          "name": "G#4",
          "ticks": 16992,
          "time": 19.666647,
          "velocity": 0.49606299212598426
        },
        {
          "duration": 0.11111099999999752,
          "durationTicks": 96,
          "midi": 61,
          "name": "C#4",
          "ticks": 16992,
          "time": 19.666647,
          "velocity": 0.49606299212598426
        },
        {
          "duration": 0.11111100000000107,
          "durationTicks": 96,
          "midi": 66,
          "name": "F#4",
          "ticks": 17088,
          "time": 19.777758,
          "velocity": 0.49606299212598426
        },
        {
          "duration": 0.11111100000000107,
          "durationTicks": 96,
          "midi": 59,
          "name": "B3",
          "ticks": 17088,
          "time": 19.777758,
          "velocity": 0.49606299212598426
        },
        {
          "duration": 0.11111100000000107,
          "durationTicks": 96,
          "midi": 61,
          "name": "C#4",
          "ticks": 17136,
          "time": 19.8333135,
          "velocity": 0.49606299212598426
        },
        {
          "duration": 0.11111100000000107,
          "durationTicks": 96,
          "midi": 68,
          "name": "G#4",
          "ticks": 17136,
          "time": 19.8333135,
          "velocity": 0.49606299212598426
        },
        {
          "duration": 0.11111100000000107,
          "durationTicks": 96,
          "midi": 64,
          "name": "E4",
          "ticks": 17184,
          "time": 19.888869,
          "velocity": 0.49606299212598426
        },
        {
          "duration": 0.11111100000000107,
          "durationTicks": 96,
          "midi": 59,
          "name": "B3",
          "ticks": 17184,
          "time": 19.888869,
          "velocity": 0.49606299212598426
        },
        {
          "duration": 0.11111100000000107,
          "durationTicks": 96,
          "midi": 57,
          "name": "A3",
          "ticks": 17280,
          "time": 19.99998,
          "velocity": 0.49606299212598426
        },
        {
          "duration": 0.11111100000000107,
          "durationTicks": 96,
          "midi": 63,
          "name": "D#4",
          "ticks": 17280,
          "time": 19.99998,
          "velocity": 0.49606299212598426
        },
        {
          "duration": 0.11111099999999752,
          "durationTicks": 96,
          "midi": 56,
          "name": "G#3",
          "ticks": 17376,
          "time": 20.111091000000002,
          "velocity": 0.49606299212598426
        },
        {
          "duration": 0.11111099999999752,
          "durationTicks": 96,
          "midi": 61,
          "name": "C#4",
          "ticks": 17376,
          "time": 20.111091000000002,
          "velocity": 0.49606299212598426
        },
        {
          "duration": 0.11111100000000107,
          "durationTicks": 96,
          "midi": 59,
          "name": "B3",
          "ticks": 17472,
          "time": 20.222202,
          "velocity": 0.49606299212598426
        },
        {
          "duration": 0.11111100000000107,
          "durationTicks": 96,
          "midi": 54,
          "name": "F#3",
          "ticks": 17472,
          "time": 20.222202,
          "velocity": 0.49606299212598426
        },
        {
          "duration": 0.11111100000000107,
          "durationTicks": 96,
          "midi": 60,
          "name": "C4",
          "ticks": 17568,
          "time": 20.333313,
          "velocity": 0.49606299212598426
        },
        {
          "duration": 0.11111100000000107,
          "durationTicks": 96,
          "midi": 55,
          "name": "G3",
          "ticks": 17568,
          "time": 20.333313,
          "velocity": 0.49606299212598426
        },
        {
          "duration": 0.2222219999999986,
          "durationTicks": 192,
          "midi": 61,
          "name": "C#4",
          "ticks": 17664,
          "time": 20.444424,
          "velocity": 0.49606299212598426
        },
        {
          "duration": 0.2222219999999986,
          "durationTicks": 192,
          "midi": 56,
          "name": "G#3",
          "ticks": 17664,
          "time": 20.444424,
          "velocity": 0.49606299212598426
        },
        {
          "duration": 0.2222219999999986,
          "durationTicks": 192,
          "midi": 63,
          "name": "D#4",
          "ticks": 17856,
          "time": 20.666646,
          "velocity": 0.49606299212598426
        },
        {
          "duration": 0.2222219999999986,
          "durationTicks": 192,
          "midi": 57,
          "name": "A3",
          "ticks": 17856,
          "time": 20.666646,
          "velocity": 0.49606299212598426
        },
        {
          "duration": 0.22222200000000214,
          "durationTicks": 192,
          "midi": 61,
          "name": "C#4",
          "ticks": 18048,
          "time": 20.888868,
          "velocity": 0.49606299212598426
        },
        {
          "duration": 0.22222200000000214,
          "durationTicks": 192,
          "midi": 56,
          "name": "G#3",
          "ticks": 18048,
          "time": 20.888868,
          "velocity": 0.49606299212598426
        },
        {
          "duration": 0.2222219999999986,
          "durationTicks": 192,
          "midi": 61,
          "name": "C#4",
          "ticks": 18240,
          "time": 21.11109,
          "velocity": 0.49606299212598426
        },
        {
          "duration": 0.22222200000000214,
          "durationTicks": 192,
          "midi": 61,
          "name": "C#4",
          "ticks": 18432,
          "time": 21.333312,
          "velocity": 0.49606299212598426
        },
        {
          "duration": 0.22222200000000214,
          "durationTicks": 192,
          "midi": 49,
          "name": "C#3",
          "ticks": 18432,
          "time": 21.333312,
          "velocity": 0.49606299212598426
        },
        {
          "duration": 0.11111099999999752,
          "durationTicks": 96,
          "midi": 44,
          "name": "G#2",
          "ticks": 18624,
          "time": 21.555534,
          "velocity": 0.49606299212598426
        },
        {
          "duration": 0.11111099999999752,
          "durationTicks": 96,
          "midi": 56,
          "name": "G#3",
          "ticks": 18624,
          "time": 21.555534,
          "velocity": 0.49606299212598426
        },
        {
          "duration": 0.11111100000000107,
          "durationTicks": 96,
          "midi": 57,
          "name": "A3",
          "ticks": 18720,
          "time": 21.666645,
          "velocity": 0.49606299212598426
        },
        {
          "duration": 0.11111100000000107,
          "durationTicks": 96,
          "midi": 45,
          "name": "A2",
          "ticks": 18720,
          "time": 21.666645,
          "velocity": 0.49606299212598426
        },
        {
          "duration": 0.2222219999999986,
          "durationTicks": 192,
          "midi": 56,
          "name": "G#3",
          "ticks": 18816,
          "time": 21.777756,
          "velocity": 0.49606299212598426
        },
        {
          "duration": 0.2222219999999986,
          "durationTicks": 192,
          "midi": 44,
          "name": "G#2",
          "ticks": 18816,
          "time": 21.777756,
          "velocity": 0.49606299212598426
        },
        {
          "duration": 0.11111100000000107,
          "durationTicks": 96,
          "midi": 54,
          "name": "F#3",
          "ticks": 19008,
          "time": 21.999978,
          "velocity": 0.49606299212598426
        },
        {
          "duration": 0.11111100000000107,
          "durationTicks": 96,
          "midi": 42,
          "name": "F#2",
          "ticks": 19008,
          "time": 21.999978,
          "velocity": 0.49606299212598426
        },
        {
          "duration": 0.11111100000000107,
          "durationTicks": 96,
          "midi": 57,
          "name": "A3",
          "ticks": 19104,
          "time": 22.111089,
          "velocity": 0.49606299212598426
        },
        {
          "duration": 0.11111100000000107,
          "durationTicks": 96,
          "midi": 45,
          "name": "A2",
          "ticks": 19104,
          "time": 22.111089,
          "velocity": 0.49606299212598426
        },
        {
          "duration": 0.11111100000000107,
          "durationTicks": 96,
          "midi": 52,
          "name": "E3",
          "ticks": 19200,
          "time": 22.2222,
          "velocity": 0.49606299212598426
        },
        {
          "duration": 0.11111100000000107,
          "durationTicks": 96,
          "midi": 40,
          "name": "E2",
          "ticks": 19200,
          "time": 22.2222,
          "velocity": 0.49606299212598426
        },
        {
          "duration": 0.11111099999999752,
          "durationTicks": 96,
          "midi": 44,
          "name": "G#2",
          "ticks": 19296,
          "time": 22.333311000000002,
          "velocity": 0.49606299212598426
        },
        {
          "duration": 0.11111099999999752,
          "durationTicks": 96,
          "midi": 56,
          "name": "G#3",
          "ticks": 19296,
          "time": 22.333311000000002,
          "velocity": 0.49606299212598426
        },
        {
          "duration": 0.11111100000000107,
          "durationTicks": 96,
          "midi": 60,
          "name": "C4",
          "ticks": 19392,
          "time": 22.444422,
          "velocity": 0.49606299212598426
        },
        {
          "duration": 0.11111100000000107,
          "durationTicks": 96,
          "midi": 49,
          "name": "C#3",
          "ticks": 19442,
          "time": 22.5022923125,
          "velocity": 0.49606299212598426
        },
        {
          "duration": 0.11111100000000107,
          "durationTicks": 96,
          "midi": 61,
          "name": "C#4",
          "ticks": 19442,
          "time": 22.5022923125,
          "velocity": 0.49606299212598426
        },
        {
          "duration": 0.11111099999999752,
          "durationTicks": 96,
          "midi": 44,
          "name": "G#2",
          "ticks": 19584,
          "time": 22.666644,
          "velocity": 0.49606299212598426
        },
        {
          "duration": 0.11111099999999752,
          "durationTicks": 96,
          "midi": 56,
          "name": "G#3",
          "ticks": 19584,
          "time": 22.666644,
          "velocity": 0.49606299212598426
        },
        {
          "duration": 0.11111100000000107,
          "durationTicks": 96,
          "midi": 42,
          "name": "F#2",
          "ticks": 19680,
          "time": 22.777755,
          "velocity": 0.49606299212598426
        },
        {
          "duration": 0.11111100000000107,
          "durationTicks": 96,
          "midi": 54,
          "name": "F#3",
          "ticks": 19680,
          "time": 22.777755,
          "velocity": 0.49606299212598426
        },
        {
          "duration": 0.2222219999999986,
          "durationTicks": 192,
          "midi": 52,
          "name": "E3",
          "ticks": 19776,
          "time": 22.888866,
          "velocity": 0.49606299212598426
        },
        {
          "duration": 0.2222219999999986,
          "durationTicks": 192,
          "midi": 40,
          "name": "E2",
          "ticks": 19776,
          "time": 22.888866,
          "velocity": 0.49606299212598426
        },
        {
          "duration": 0.11111100000000107,
          "durationTicks": 96,
          "midi": 51,
          "name": "D#3",
          "ticks": 19968,
          "time": 23.111088,
          "velocity": 0.49606299212598426
        },
        {
          "duration": 0.11111100000000107,
          "durationTicks": 96,
          "midi": 39,
          "name": "D#2",
          "ticks": 19968,
          "time": 23.111088,
          "velocity": 0.49606299212598426
        },
        {
          "duration": 0.11111100000000107,
          "durationTicks": 96,
          "midi": 40,
          "name": "E2",
          "ticks": 20064,
          "time": 23.222199,
          "velocity": 0.49606299212598426
        },
        {
          "duration": 0.11111100000000107,
          "durationTicks": 96,
          "midi": 52,
          "name": "E3",
          "ticks": 20064,
          "time": 23.222199,
          "velocity": 0.49606299212598426
        },
        {
          "duration": 0.11111100000000107,
          "durationTicks": 96,
          "midi": 51,
          "name": "D#3",
          "ticks": 20160,
          "time": 23.33331,
          "velocity": 0.49606299212598426
        },
        {
          "duration": 0.11111100000000107,
          "durationTicks": 96,
          "midi": 39,
          "name": "D#2",
          "ticks": 20160,
          "time": 23.33331,
          "velocity": 0.49606299212598426
        },
        {
          "duration": 0.11111099999999752,
          "durationTicks": 96,
          "midi": 40,
          "name": "E2",
          "ticks": 20256,
          "time": 23.444421000000002,
          "velocity": 0.49606299212598426
        },
        {
          "duration": 0.11111099999999752,
          "durationTicks": 96,
          "midi": 52,
          "name": "E3",
          "ticks": 20256,
          "time": 23.444421000000002,
          "velocity": 0.49606299212598426
        },
        {
          "duration": 0.22222200000000214,
          "durationTicks": 192,
          "midi": 39,
          "name": "D#2",
          "ticks": 20352,
          "time": 23.555532,
          "velocity": 0.49606299212598426
        },
        {
          "duration": 0.22222200000000214,
          "durationTicks": 192,
          "midi": 51,
          "name": "D#3",
          "ticks": 20352,
          "time": 23.555532,
          "velocity": 0.49606299212598426
        },
        {
          "duration": 0.11111099999999752,
          "durationTicks": 96,
          "midi": 42,
          "name": "F#2",
          "ticks": 20544,
          "time": 23.777754,
          "velocity": 0.49606299212598426
        },
        {
          "duration": 0.11111099999999752,
          "durationTicks": 96,
          "midi": 54,
          "name": "F#3",
          "ticks": 20544,
          "time": 23.777754,
          "velocity": 0.49606299212598426
        },
        {
          "duration": 0.11111100000000107,
          "durationTicks": 96,
          "midi": 56,
          "name": "G#3",
          "ticks": 20640,
          "time": 23.888865,
          "velocity": 0.49606299212598426
        },
        {
          "duration": 0.11111100000000107,
          "durationTicks": 96,
          "midi": 44,
          "name": "G#2",
          "ticks": 20640,
          "time": 23.888865,
          "velocity": 0.49606299212598426
        },
        {
          "duration": 0.11111100000000107,
          "durationTicks": 96,
          "midi": 56,
          "name": "G#3",
          "ticks": 20736,
          "time": 23.999976,
          "velocity": 0.49606299212598426
        },
        {
          "duration": 0.11111100000000107,
          "durationTicks": 96,
          "midi": 57,
          "name": "A3",
          "ticks": 20786,
          "time": 24.0578463125,
          "velocity": 0.49606299212598426
        },
        {
          "duration": 0.11111100000000107,
          "durationTicks": 96,
          "midi": 45,
          "name": "A2",
          "ticks": 20786,
          "time": 24.0578463125,
          "velocity": 0.49606299212598426
        },
        {
          "duration": 0.11111100000000107,
          "durationTicks": 96,
          "midi": 42,
          "name": "F#2",
          "ticks": 20928,
          "time": 24.222198,
          "velocity": 0.49606299212598426
        },
        {
          "duration": 0.11111100000000107,
          "durationTicks": 96,
          "midi": 54,
          "name": "F#3",
          "ticks": 20928,
          "time": 24.222198,
          "velocity": 0.49606299212598426
        },
        {
          "duration": 0.11111100000000107,
          "durationTicks": 96,
          "midi": 55,
          "name": "G3",
          "ticks": 21120,
          "time": 24.44442,
          "velocity": 0.49606299212598426
        },
        {
          "duration": 0.33333299999999966,
          "durationTicks": 288,
          "midi": 56,
          "name": "G#3",
          "ticks": 21170,
          "time": 24.5022903125,
          "velocity": 0.49606299212598426
        },
        {
          "duration": 0.33333299999999966,
          "durationTicks": 288,
          "midi": 44,
          "name": "G#2",
          "ticks": 21170,
          "time": 24.5022903125,
          "velocity": 0.49606299212598426
        },
        {
          "duration": 0.11111099999999752,
          "durationTicks": 96,
          "midi": 49,
          "name": "C#3",
          "ticks": 21504,
          "time": 24.888864,
          "velocity": 0.49606299212598426
        },
        {
          "duration": 0.11111099999999752,
          "durationTicks": 96,
          "midi": 61,
          "name": "C#4",
          "ticks": 21504,
          "time": 24.888864,
          "velocity": 0.49606299212598426
        },
        {
          "duration": 0.11111100000000107,
          "durationTicks": 96,
          "midi": 49,
          "name": "C#3",
          "ticks": 21600,
          "time": 24.999975,
          "velocity": 0.49606299212598426
        },
        {
          "duration": 0.11111100000000107,
          "durationTicks": 96,
          "midi": 61,
          "name": "C#4",
          "ticks": 21600,
          "time": 24.999975,
          "velocity": 0.49606299212598426
        },
        {
          "duration": 0.11111100000000107,
          "durationTicks": 96,
          "midi": 56,
          "name": "G#3",
          "ticks": 21696,
          "time": 25.111086,
          "velocity": 0.49606299212598426
        },
        {
          "duration": 0.11111100000000107,
          "durationTicks": 96,
          "midi": 44,
          "name": "G#2",
          "ticks": 21696,
          "time": 25.111086,
          "velocity": 0.49606299212598426
        },
        {
          "duration": 0.11111099999999752,
          "durationTicks": 96,
          "midi": 57,
          "name": "A3",
          "ticks": 21792,
          "time": 25.222197,
          "velocity": 0.49606299212598426
        },
        {
          "duration": 0.11111099999999752,
          "durationTicks": 96,
          "midi": 45,
          "name": "A2",
          "ticks": 21792,
          "time": 25.222197,
          "velocity": 0.49606299212598426
        },
        {
          "duration": 0.11111100000000107,
          "durationTicks": 96,
          "midi": 56,
          "name": "G#3",
          "ticks": 21888,
          "time": 25.333308,
          "velocity": 0.49606299212598426
        },
        {
          "duration": 0.11111100000000107,
          "durationTicks": 96,
          "midi": 44,
          "name": "G#2",
          "ticks": 21888,
          "time": 25.333308,
          "velocity": 0.49606299212598426
        },
        {
          "duration": 0.11111100000000107,
          "durationTicks": 96,
          "midi": 45,
          "name": "A2",
          "ticks": 21984,
          "time": 25.444419,
          "velocity": 0.49606299212598426
        },
        {
          "duration": 0.11111100000000107,
          "durationTicks": 96,
          "midi": 57,
          "name": "A3",
          "ticks": 21984,
          "time": 25.444419,
          "velocity": 0.49606299212598426
        },
        {
          "duration": 0.11111100000000107,
          "durationTicks": 96,
          "midi": 54,
          "name": "F#3",
          "ticks": 22080,
          "time": 25.55553,
          "velocity": 0.49606299212598426
        },
        {
          "duration": 0.11111100000000107,
          "durationTicks": 96,
          "midi": 42,
          "name": "F#2",
          "ticks": 22080,
          "time": 25.55553,
          "velocity": 0.49606299212598426
        },
        {
          "duration": 0.11111099999999752,
          "durationTicks": 96,
          "midi": 45,
          "name": "A2",
          "ticks": 22176,
          "time": 25.666641000000002,
          "velocity": 0.49606299212598426
        },
        {
          "duration": 0.11111099999999752,
          "durationTicks": 96,
          "midi": 57,
          "name": "A3",
          "ticks": 22176,
          "time": 25.666641000000002,
          "velocity": 0.49606299212598426
        },
        {
          "duration": 0.11111100000000107,
          "durationTicks": 96,
          "midi": 44,
          "name": "G#2",
          "ticks": 22272,
          "time": 25.777752,
          "velocity": 0.49606299212598426
        },
        {
          "duration": 0.11111100000000107,
          "durationTicks": 96,
          "midi": 56,
          "name": "G#3",
          "ticks": 22272,
          "time": 25.777752,
          "velocity": 0.49606299212598426
        },
        {
          "duration": 0.11111099999999752,
          "durationTicks": 96,
          "midi": 49,
          "name": "C#3",
          "ticks": 22464,
          "time": 25.999974,
          "velocity": 0.49606299212598426
        },
        {
          "duration": 0.11111099999999752,
          "durationTicks": 96,
          "midi": 61,
          "name": "C#4",
          "ticks": 22464,
          "time": 25.999974,
          "velocity": 0.49606299212598426
        },
        {
          "duration": 0.11111100000000107,
          "durationTicks": 96,
          "midi": 63,
          "name": "D#4",
          "ticks": 22656,
          "time": 26.222196,
          "velocity": 0.49606299212598426
        },
        {
          "duration": 0.11111100000000107,
          "durationTicks": 96,
          "midi": 64,
          "name": "E4",
          "ticks": 22704,
          "time": 26.2777515,
          "velocity": 0.49606299212598426
        },
        {
          "duration": 0.11111100000000107,
          "durationTicks": 96,
          "midi": 52,
          "name": "E3",
          "ticks": 22704,
          "time": 26.2777515,
          "velocity": 0.49606299212598426
        },
        {
          "duration": 0.11111099999999752,
          "durationTicks": 96,
          "midi": 51,
          "name": "D#3",
          "ticks": 22752,
          "time": 26.333307,
          "velocity": 0.49606299212598426
        },
        {
          "duration": 0.11111099999999752,
          "durationTicks": 96,
          "midi": 63,
          "name": "D#4",
          "ticks": 22752,
          "time": 26.333307,
          "velocity": 0.49606299212598426
        },
        {
          "duration": 0.22222200000000214,
          "durationTicks": 192,
          "midi": 49,
          "name": "C#3",
          "ticks": 22848,
          "time": 26.444418,
          "velocity": 0.49606299212598426
        },
        {
          "duration": 0.22222200000000214,
          "durationTicks": 192,
          "midi": 61,
          "name": "C#4",
          "ticks": 22848,
          "time": 26.444418,
          "velocity": 0.49606299212598426
        },
        {
          "duration": 0.11111100000000107,
          "durationTicks": 96,
          "midi": 64,
          "name": "E4",
          "ticks": 23040,
          "time": 26.66664,
          "velocity": 0.49606299212598426
        },
        {
          "duration": 0.11111100000000107,
          "durationTicks": 96,
          "midi": 52,
          "name": "E3",
          "ticks": 23040,
          "time": 26.66664,
          "velocity": 0.49606299212598426
        },
        {
          "duration": 0.11111099999999752,
          "durationTicks": 96,
          "midi": 52,
          "name": "E3",
          "ticks": 23136,
          "time": 26.777751000000002,
          "velocity": 0.49606299212598426
        },
        {
          "duration": 0.11111099999999752,
          "durationTicks": 96,
          "midi": 64,
          "name": "E4",
          "ticks": 23136,
          "time": 26.777751000000002,
          "velocity": 0.49606299212598426
        },
        {
          "duration": 0.11111100000000107,
          "durationTicks": 96,
          "midi": 61,
          "name": "C#4",
          "ticks": 23232,
          "time": 26.888862,
          "velocity": 0.49606299212598426
        },
        {
          "duration": 0.11111100000000107,
          "durationTicks": 96,
          "midi": 49,
          "name": "C#3",
          "ticks": 23232,
          "time": 26.888862,
          "velocity": 0.49606299212598426
        },
        {
          "duration": 0.11111100000000107,
          "durationTicks": 96,
          "midi": 61,
          "name": "C#4",
          "ticks": 23328,
          "time": 26.999973,
          "velocity": 0.49606299212598426
        },
        {
          "duration": 0.11111100000000107,
          "durationTicks": 96,
          "midi": 49,
          "name": "C#3",
          "ticks": 23328,
          "time": 26.999973,
          "velocity": 0.49606299212598426
        },
        {
          "duration": 0.11111099999999752,
          "durationTicks": 96,
          "midi": 63,
          "name": "D#4",
          "ticks": 23376,
          "time": 27.0555285,
          "velocity": 0.49606299212598426
        },
        {
          "duration": 0.11111099999999752,
          "durationTicks": 96,
          "midi": 51,
          "name": "D#3",
          "ticks": 23376,
          "time": 27.0555285,
          "velocity": 0.49606299212598426
        },
        {
          "duration": 0.11111099999999752,
          "durationTicks": 96,
          "midi": 61,
          "name": "C#4",
          "ticks": 23424,
          "time": 27.111084,
          "velocity": 0.49606299212598426
        },
        {
          "duration": 0.11111099999999752,
          "durationTicks": 96,
          "midi": 49,
          "name": "C#3",
          "ticks": 23424,
          "time": 27.111084,
          "velocity": 0.49606299212598426
        },
        {
          "duration": 0.11111100000000107,
          "durationTicks": 96,
          "midi": 47,
          "name": "B2",
          "ticks": 23520,
          "time": 27.222195,
          "velocity": 0.49606299212598426
        },
        {
          "duration": 0.11111100000000107,
          "durationTicks": 96,
          "midi": 59,
          "name": "B3",
          "ticks": 23520,
          "time": 27.222195,
          "velocity": 0.49606299212598426
        },
        {
          "duration": 0.11111100000000107,
          "durationTicks": 96,
          "midi": 42,
          "name": "F#2",
          "ticks": 23616,
          "time": 27.333306,
          "velocity": 0.49606299212598426
        },
        {
          "duration": 0.11111100000000107,
          "durationTicks": 96,
          "midi": 54,
          "name": "F#3",
          "ticks": 23616,
          "time": 27.333306,
          "velocity": 0.49606299212598426
        },
        {
          "duration": 0.11111099999999752,
          "durationTicks": 96,
          "midi": 43,
          "name": "G2",
          "ticks": 23712,
          "time": 27.444417,
          "velocity": 0.49606299212598426
        },
        {
          "duration": 0.11111099999999752,
          "durationTicks": 96,
          "midi": 55,
          "name": "G3",
          "ticks": 23712,
          "time": 27.444417,
          "velocity": 0.49606299212598426
        },
        {
          "duration": 0.11111100000000107,
          "durationTicks": 96,
          "midi": 56,
          "name": "G#3",
          "ticks": 23808,
          "time": 27.555528,
          "velocity": 0.49606299212598426
        },
        {
          "duration": 0.11111100000000107,
          "durationTicks": 96,
          "midi": 44,
          "name": "G#2",
          "ticks": 23808,
          "time": 27.555528,
          "velocity": 0.49606299212598426
        },
        {
          "duration": 0.11111100000000107,
          "durationTicks": 96,
          "midi": 57,
          "name": "A3",
          "ticks": 24000,
          "time": 27.77775,
          "velocity": 0.49606299212598426
        },
        {
          "duration": 0.11111100000000107,
          "durationTicks": 96,
          "midi": 45,
          "name": "A2",
          "ticks": 24000,
          "time": 27.77775,
          "velocity": 0.49606299212598426
        },
        {
          "duration": 0.4444440000000007,
          "durationTicks": 384,
          "midi": 44,
          "name": "G#2",
          "ticks": 24192,
          "time": 27.999972,
          "velocity": 0.49606299212598426
        },
        {
          "duration": 0.4444440000000007,
          "durationTicks": 384,
          "midi": 56,
          "name": "G#3",
          "ticks": 24192,
          "time": 27.999972,
          "velocity": 0.49606299212598426
        },
        {
          "duration": 0.2222219999999986,
          "durationTicks": 192,
          "midi": 61,
          "name": "C#4",
          "ticks": 24576,
          "time": 28.444416,
          "velocity": 0.49606299212598426
        },
        {
          "duration": 0.2222219999999986,
          "durationTicks": 192,
          "midi": 49,
          "name": "C#3",
          "ticks": 24576,
          "time": 28.444416,
          "velocity": 0.49606299212598426
        },
        {
          "duration": 0.11111100000000107,
          "durationTicks": 96,
          "midi": 44,
          "name": "G#2",
          "ticks": 24768,
          "time": 28.666638,
          "velocity": 0.49606299212598426
        },
        {
          "duration": 0.11111100000000107,
          "durationTicks": 96,
          "midi": 56,
          "name": "G#3",
          "ticks": 24768,
          "time": 28.666638,
          "velocity": 0.49606299212598426
        },
        {
          "duration": 0.11111100000000107,
          "durationTicks": 96,
          "midi": 57,
          "name": "A3",
          "ticks": 24864,
          "time": 28.777749,
          "velocity": 0.49606299212598426
        },
        {
          "duration": 0.11111100000000107,
          "durationTicks": 96,
          "midi": 45,
          "name": "A2",
          "ticks": 24864,
          "time": 28.777749,
          "velocity": 0.49606299212598426
        },
        {
          "duration": 0.2222219999999986,
          "durationTicks": 192,
          "midi": 56,
          "name": "G#3",
          "ticks": 24960,
          "time": 28.88886,
          "velocity": 0.49606299212598426
        },
        {
          "duration": 0.2222219999999986,
          "durationTicks": 192,
          "midi": 44,
          "name": "G#2",
          "ticks": 24960,
          "time": 28.88886,
          "velocity": 0.49606299212598426
        },
        {
          "duration": 0.11111100000000107,
          "durationTicks": 96,
          "midi": 54,
          "name": "F#3",
          "ticks": 25152,
          "time": 29.111082,
          "velocity": 0.49606299212598426
        },
        {
          "duration": 0.11111100000000107,
          "durationTicks": 96,
          "midi": 42,
          "name": "F#2",
          "ticks": 25152,
          "time": 29.111082,
          "velocity": 0.49606299212598426
        },
        {
          "duration": 0.11111100000000107,
          "durationTicks": 96,
          "midi": 57,
          "name": "A3",
          "ticks": 25248,
          "time": 29.222193,
          "velocity": 0.49606299212598426
        },
        {
          "duration": 0.11111100000000107,
          "durationTicks": 96,
          "midi": 45,
          "name": "A2",
          "ticks": 25248,
          "time": 29.222193,
          "velocity": 0.49606299212598426
        },
        {
          "duration": 0.11111099999999752,
          "durationTicks": 96,
          "midi": 40,
          "name": "E2",
          "ticks": 25344,
          "time": 29.333304000000002,
          "velocity": 0.49606299212598426
        },
        {
          "duration": 0.11111099999999752,
          "durationTicks": 96,
          "midi": 52,
          "name": "E3",
          "ticks": 25344,
          "time": 29.333304000000002,
          "velocity": 0.49606299212598426
        },
        {
          "duration": 0.11111100000000107,
          "durationTicks": 96,
          "midi": 44,
          "name": "G#2",
          "ticks": 25440,
          "time": 29.444415,
          "velocity": 0.49606299212598426
        },
        {
          "duration": 0.11111100000000107,
          "durationTicks": 96,
          "midi": 56,
          "name": "G#3",
          "ticks": 25440,
          "time": 29.444415,
          "velocity": 0.49606299212598426
        },
        {
          "duration": 0.11111100000000107,
          "durationTicks": 96,
          "midi": 60,
          "name": "C4",
          "ticks": 25536,
          "time": 29.555526,
          "velocity": 0.49606299212598426
        },
        {
          "duration": 0.11111100000000107,
          "durationTicks": 96,
          "midi": 61,
          "name": "C#4",
          "ticks": 25586,
          "time": 29.613396312499997,
          "velocity": 0.49606299212598426
        },
        {
          "duration": 0.11111100000000107,
          "durationTicks": 96,
          "midi": 49,
          "name": "C#3",
          "ticks": 25586,
          "time": 29.613396312499997,
          "velocity": 0.49606299212598426
        },
        {
          "duration": 0.11111100000000107,
          "durationTicks": 96,
          "midi": 44,
          "name": "G#2",
          "ticks": 25728,
          "time": 29.777748,
          "velocity": 0.49606299212598426
        },
        {
          "duration": 0.11111100000000107,
          "durationTicks": 96,
          "midi": 56,
          "name": "G#3",
          "ticks": 25728,
          "time": 29.777748,
          "velocity": 0.49606299212598426
        },
        {
          "duration": 0.11111100000000107,
          "durationTicks": 96,
          "midi": 54,
          "name": "F#3",
          "ticks": 25824,
          "time": 29.888859,
          "velocity": 0.49606299212598426
        },
        {
          "duration": 0.11111100000000107,
          "durationTicks": 96,
          "midi": 42,
          "name": "F#2",
          "ticks": 25824,
          "time": 29.888859,
          "velocity": 0.49606299212598426
        },
        {
          "duration": 0.2222219999999986,
          "durationTicks": 192,
          "midi": 52,
          "name": "E3",
          "ticks": 25920,
          "time": 29.99997,
          "velocity": 0.49606299212598426
        },
        {
          "duration": 0.2222219999999986,
          "durationTicks": 192,
          "midi": 40,
          "name": "E2",
          "ticks": 25920,
          "time": 29.99997,
          "velocity": 0.49606299212598426
        },
        {
          "duration": 0.11111100000000107,
          "durationTicks": 96,
          "midi": 39,
          "name": "D#2",
          "ticks": 26112,
          "time": 30.222192,
          "velocity": 0.49606299212598426
        },
        {
          "duration": 0.11111100000000107,
          "durationTicks": 96,
          "midi": 51,
          "name": "D#3",
          "ticks": 26112,
          "time": 30.222192,
          "velocity": 0.49606299212598426
        },
        {
          "duration": 0.11111100000000107,
          "durationTicks": 96,
          "midi": 40,
          "name": "E2",
          "ticks": 26208,
          "time": 30.333303,
          "velocity": 0.49606299212598426
        },
        {
          "duration": 0.11111100000000107,
          "durationTicks": 96,
          "midi": 52,
          "name": "E3",
          "ticks": 26208,
          "time": 30.333303,
          "velocity": 0.49606299212598426
        },
        {
          "duration": 0.11111099999999752,
          "durationTicks": 96,
          "midi": 39,
          "name": "D#2",
          "ticks": 26304,
          "time": 30.444414000000002,
          "velocity": 0.49606299212598426
        },
        {
          "duration": 0.11111099999999752,
          "durationTicks": 96,
          "midi": 51,
          "name": "D#3",
          "ticks": 26304,
          "time": 30.444414000000002,
          "velocity": 0.49606299212598426
        },
        {
          "duration": 0.11111100000000107,
          "durationTicks": 96,
          "midi": 52,
          "name": "E3",
          "ticks": 26400,
          "time": 30.555525,
          "velocity": 0.49606299212598426
        },
        {
          "duration": 0.11111100000000107,
          "durationTicks": 96,
          "midi": 40,
          "name": "E2",
          "ticks": 26400,
          "time": 30.555525,
          "velocity": 0.49606299212598426
        },
        {
          "duration": 0.2222219999999986,
          "durationTicks": 192,
          "midi": 51,
          "name": "D#3",
          "ticks": 26496,
          "time": 30.666636,
          "velocity": 0.49606299212598426
        },
        {
          "duration": 0.2222219999999986,
          "durationTicks": 192,
          "midi": 39,
          "name": "D#2",
          "ticks": 26496,
          "time": 30.666636,
          "velocity": 0.49606299212598426
        },
        {
          "duration": 0.11111100000000107,
          "durationTicks": 96,
          "midi": 54,
          "name": "F#3",
          "ticks": 26688,
          "time": 30.888858,
          "velocity": 0.49606299212598426
        },
        {
          "duration": 0.11111100000000107,
          "durationTicks": 96,
          "midi": 42,
          "name": "F#2",
          "ticks": 26688,
          "time": 30.888858,
          "velocity": 0.49606299212598426
        },
        {
          "duration": 0.11111100000000107,
          "durationTicks": 96,
          "midi": 44,
          "name": "G#2",
          "ticks": 26784,
          "time": 30.999969,
          "velocity": 0.49606299212598426
        },
        {
          "duration": 0.11111100000000107,
          "durationTicks": 96,
          "midi": 56,
          "name": "G#3",
          "ticks": 26784,
          "time": 30.999969,
          "velocity": 0.49606299212598426
        },
        {
          "duration": 0.11111099999999752,
          "durationTicks": 96,
          "midi": 56,
          "name": "G#3",
          "ticks": 26880,
          "time": 31.11108,
          "velocity": 0.49606299212598426
        },
        {
          "duration": 0.11111100000000107,
          "durationTicks": 96,
          "midi": 45,
          "name": "A2",
          "ticks": 26930,
          "time": 31.168950312499998,
          "velocity": 0.49606299212598426
        },
        {
          "duration": 0.11111100000000107,
          "durationTicks": 96,
          "midi": 57,
          "name": "A3",
          "ticks": 26930,
          "time": 31.168950312499998,
          "velocity": 0.49606299212598426
        },
        {
          "duration": 0.11111100000000107,
          "durationTicks": 96,
          "midi": 42,
          "name": "F#2",
          "ticks": 27072,
          "time": 31.333302,
          "velocity": 0.49606299212598426
        },
        {
          "duration": 0.11111100000000107,
          "durationTicks": 96,
          "midi": 54,
          "name": "F#3",
          "ticks": 27072,
          "time": 31.333302,
          "velocity": 0.49606299212598426
        },
        {
          "duration": 0.11111099999999752,
          "durationTicks": 96,
          "midi": 55,
          "name": "G3",
          "ticks": 27264,
          "time": 31.555524000000002,
          "velocity": 0.49606299212598426
        },
        {
          "duration": 0.33333299999999966,
          "durationTicks": 288,
          "midi": 56,
          "name": "G#3",
          "ticks": 27314,
          "time": 31.6133943125,
          "velocity": 0.49606299212598426
        },
        {
          "duration": 0.33333299999999966,
          "durationTicks": 288,
          "midi": 44,
          "name": "G#2",
          "ticks": 27314,
          "time": 31.6133943125,
          "velocity": 0.49606299212598426
        },
        {
          "duration": 0.11111100000000462,
          "durationTicks": 96,
          "midi": 49,
          "name": "C#3",
          "ticks": 27648,
          "time": 31.999968,
          "velocity": 0.49606299212598426
        },
        {
          "duration": 0.11111100000000462,
          "durationTicks": 96,
          "midi": 61,
          "name": "C#4",
          "ticks": 27648,
          "time": 31.999968,
          "velocity": 0.49606299212598426
        },
        {
          "duration": 0.11111099999999396,
          "durationTicks": 96,
          "midi": 61,
          "name": "C#4",
          "ticks": 27744,
          "time": 32.111079000000004,
          "velocity": 0.49606299212598426
        },
        {
          "duration": 0.11111099999999396,
          "durationTicks": 96,
          "midi": 49,
          "name": "C#3",
          "ticks": 27744,
          "time": 32.111079000000004,
          "velocity": 0.49606299212598426
        },
        {
          "duration": 0.11111100000000107,
          "durationTicks": 96,
          "midi": 56,
          "name": "G#3",
          "ticks": 27840,
          "time": 32.22219,
          "velocity": 0.49606299212598426
        },
        {
          "duration": 0.11111100000000107,
          "durationTicks": 96,
          "midi": 44,
          "name": "G#2",
          "ticks": 27840,
          "time": 32.22219,
          "velocity": 0.49606299212598426
        },
        {
          "duration": 0.11111100000000107,
          "durationTicks": 96,
          "midi": 45,
          "name": "A2",
          "ticks": 27936,
          "time": 32.333301,
          "velocity": 0.49606299212598426
        },
        {
          "duration": 0.11111100000000107,
          "durationTicks": 96,
          "midi": 57,
          "name": "A3",
          "ticks": 27936,
          "time": 32.333301,
          "velocity": 0.49606299212598426
        },
        {
          "duration": 0.11111100000000107,
          "durationTicks": 96,
          "midi": 56,
          "name": "G#3",
          "ticks": 28032,
          "time": 32.444412,
          "velocity": 0.49606299212598426
        },
        {
          "duration": 0.11111100000000107,
          "durationTicks": 96,
          "midi": 44,
          "name": "G#2",
          "ticks": 28032,
          "time": 32.444412,
          "velocity": 0.49606299212598426
        },
        {
          "duration": 0.11111100000000107,
          "durationTicks": 96,
          "midi": 45,
          "name": "A2",
          "ticks": 28128,
          "time": 32.555523,
          "velocity": 0.49606299212598426
        },
        {
          "duration": 0.11111100000000107,
          "durationTicks": 96,
          "midi": 57,
          "name": "A3",
          "ticks": 28128,
          "time": 32.555523,
          "velocity": 0.49606299212598426
        },
        {
          "duration": 0.11111100000000107,
          "durationTicks": 96,
          "midi": 42,
          "name": "F#2",
          "ticks": 28224,
          "time": 32.666634,
          "velocity": 0.49606299212598426
        },
        {
          "duration": 0.11111100000000107,
          "durationTicks": 96,
          "midi": 54,
          "name": "F#3",
          "ticks": 28224,
          "time": 32.666634,
          "velocity": 0.49606299212598426
        },
        {
          "duration": 0.11111099999999396,
          "durationTicks": 96,
          "midi": 57,
          "name": "A3",
          "ticks": 28320,
          "time": 32.777745,
          "velocity": 0.49606299212598426
        },
        {
          "duration": 0.11111099999999396,
          "durationTicks": 96,
          "midi": 45,
          "name": "A2",
          "ticks": 28320,
          "time": 32.777745,
          "velocity": 0.49606299212598426
        },
        {
          "duration": 0.11111100000000107,
          "durationTicks": 96,
          "midi": 56,
          "name": "G#3",
          "ticks": 28416,
          "time": 32.888856,
          "velocity": 0.49606299212598426
        },
        {
          "duration": 0.11111100000000107,
          "durationTicks": 96,
          "midi": 44,
          "name": "G#2",
          "ticks": 28416,
          "time": 32.888856,
          "velocity": 0.49606299212598426
        },
        {
          "duration": 0.11111100000000107,
          "durationTicks": 96,
          "midi": 61,
          "name": "C#4",
          "ticks": 28608,
          "time": 33.111078,
          "velocity": 0.49606299212598426
        },
        {
          "duration": 0.11111100000000107,
          "durationTicks": 96,
          "midi": 49,
          "name": "C#3",
          "ticks": 28608,
          "time": 33.111078,
          "velocity": 0.49606299212598426
        },
        {
          "duration": 0.11111100000000107,
          "durationTicks": 96,
          "midi": 63,
          "name": "D#4",
          "ticks": 28800,
          "time": 33.3333,
          "velocity": 0.49606299212598426
        },
        {
          "duration": 0.11111100000000107,
          "durationTicks": 96,
          "midi": 64,
          "name": "E4",
          "ticks": 28848,
          "time": 33.3888555,
          "velocity": 0.49606299212598426
        },
        {
          "duration": 0.11111100000000107,
          "durationTicks": 96,
          "midi": 52,
          "name": "E3",
          "ticks": 28848,
          "time": 33.3888555,
          "velocity": 0.49606299212598426
        },
        {
          "duration": 0.11111100000000107,
          "durationTicks": 96,
          "midi": 63,
          "name": "D#4",
          "ticks": 28896,
          "time": 33.444411,
          "velocity": 0.49606299212598426
        },
        {
          "duration": 0.11111100000000107,
          "durationTicks": 96,
          "midi": 51,
          "name": "D#3",
          "ticks": 28896,
          "time": 33.444411,
          "velocity": 0.49606299212598426
        },
        {
          "duration": 0.22222199999999503,
          "durationTicks": 192,
          "midi": 49,
          "name": "C#3",
          "ticks": 28992,
          "time": 33.555522,
          "velocity": 0.49606299212598426
        },
        {
          "duration": 0.22222199999999503,
          "durationTicks": 192,
          "midi": 61,
          "name": "C#4",
          "ticks": 28992,
          "time": 33.555522,
          "velocity": 0.49606299212598426
        },
        {
          "duration": 0.11111100000000107,
          "durationTicks": 96,
          "midi": 64,
          "name": "E4",
          "ticks": 29184,
          "time": 33.777744,
          "velocity": 0.49606299212598426
        },
        {
          "duration": 0.11111100000000107,
          "durationTicks": 96,
          "midi": 52,
          "name": "E3",
          "ticks": 29184,
          "time": 33.777744,
          "velocity": 0.49606299212598426
        },
        {
          "duration": 0.11111100000000107,
          "durationTicks": 96,
          "midi": 52,
          "name": "E3",
          "ticks": 29280,
          "time": 33.888855,
          "velocity": 0.49606299212598426
        },
        {
          "duration": 0.11111100000000107,
          "durationTicks": 96,
          "midi": 64,
          "name": "E4",
          "ticks": 29280,
          "time": 33.888855,
          "velocity": 0.49606299212598426
        },
        {
          "duration": 0.11111100000000107,
          "durationTicks": 96,
          "midi": 49,
          "name": "C#3",
          "ticks": 29376,
          "time": 33.999966,
          "velocity": 0.49606299212598426
        },
        {
          "duration": 0.11111100000000107,
          "durationTicks": 96,
          "midi": 61,
          "name": "C#4",
          "ticks": 29376,
          "time": 33.999966,
          "velocity": 0.49606299212598426
        },
        {
          "duration": 0.11111100000000107,
          "durationTicks": 96,
          "midi": 49,
          "name": "C#3",
          "ticks": 29472,
          "time": 34.111077,
          "velocity": 0.49606299212598426
        },
        {
          "duration": 0.11111100000000107,
          "durationTicks": 96,
          "midi": 61,
          "name": "C#4",
          "ticks": 29472,
          "time": 34.111077,
          "velocity": 0.49606299212598426
        },
        {
          "duration": 0.11111100000000107,
          "durationTicks": 96,
          "midi": 51,
          "name": "D#3",
          "ticks": 29520,
          "time": 34.1666325,
          "velocity": 0.49606299212598426
        },
        {
          "duration": 0.11111100000000107,
          "durationTicks": 96,
          "midi": 63,
          "name": "D#4",
          "ticks": 29520,
          "time": 34.1666325,
          "velocity": 0.49606299212598426
        },
        {
          "duration": 0.11111100000000107,
          "durationTicks": 96,
          "midi": 49,
          "name": "C#3",
          "ticks": 29568,
          "time": 34.222188,
          "velocity": 0.49606299212598426
        },
        {
          "duration": 0.11111100000000107,
          "durationTicks": 96,
          "midi": 61,
          "name": "C#4",
          "ticks": 29568,
          "time": 34.222188,
          "velocity": 0.49606299212598426
        },
        {
          "duration": 0.11111099999999396,
          "durationTicks": 96,
          "midi": 47,
          "name": "B2",
          "ticks": 29664,
          "time": 34.333299000000004,
          "velocity": 0.49606299212598426
        },
        {
          "duration": 0.11111099999999396,
          "durationTicks": 96,
          "midi": 59,
          "name": "B3",
          "ticks": 29664,
          "time": 34.333299000000004,
          "velocity": 0.49606299212598426
        },
        {
          "duration": 0.11111100000000107,
          "durationTicks": 96,
          "midi": 42,
          "name": "F#2",
          "ticks": 29760,
          "time": 34.44441,
          "velocity": 0.49606299212598426
        },
        {
          "duration": 0.11111100000000107,
          "durationTicks": 96,
          "midi": 54,
          "name": "F#3",
          "ticks": 29760,
          "time": 34.44441,
          "velocity": 0.49606299212598426
        },
        {
          "duration": 0.11111100000000107,
          "durationTicks": 96,
          "midi": 55,
          "name": "G3",
          "ticks": 29856,
          "time": 34.555521,
          "velocity": 0.49606299212598426
        },
        {
          "duration": 0.11111100000000107,
          "durationTicks": 96,
          "midi": 43,
          "name": "G2",
          "ticks": 29856,
          "time": 34.555521,
          "velocity": 0.49606299212598426
        },
        {
          "duration": 0.5555549999999982,
          "durationTicks": 480,
          "midi": 56,
          "name": "G#3",
          "ticks": 29952,
          "time": 34.666632,
          "velocity": 0.49606299212598426
        },
        {
          "duration": 0.5555549999999982,
          "durationTicks": 480,
          "midi": 44,
          "name": "G#2",
          "ticks": 29952,
          "time": 34.666632,
          "velocity": 0.49606299212598426
        },
        {
          "duration": 0.22222200000000214,
          "durationTicks": 192,
          "midi": 52,
          "name": "E3",
          "ticks": 29952,
          "time": 34.666632,
          "velocity": 0.49606299212598426
        },
        {
          "duration": 0.11111100000000107,
          "durationTicks": 96,
          "midi": 57,
          "name": "A3",
          "ticks": 30144,
          "time": 34.888854,
          "velocity": 0.49606299212598426
        },
        {
          "duration": 0.11111100000000107,
          "durationTicks": 96,
          "midi": 45,
          "name": "A2",
          "ticks": 30144,
          "time": 34.888854,
          "velocity": 0.49606299212598426
        },
        {
          "duration": 0.22222200000000214,
          "durationTicks": 192,
          "midi": 61,
          "name": "C#4",
          "ticks": 36480,
          "time": 42.22218,
          "velocity": 0.49606299212598426
        },
        {
          "duration": 0.22222199999999503,
          "durationTicks": 192,
          "midi": 64,
          "name": "E4",
          "ticks": 36672,
          "time": 42.444402000000004,
          "velocity": 0.49606299212598426
        },
        {
          "duration": 0.22222200000000214,
          "durationTicks": 192,
          "midi": 68,
          "name": "G#4",
          "ticks": 36864,
          "time": 42.666624,
          "velocity": 0.49606299212598426
        },
        {
          "duration": 0.22222200000000214,
          "durationTicks": 192,
          "midi": 80,
          "name": "G#5",
          "ticks": 36864,
          "time": 42.666624,
          "velocity": 0.49606299212598426
        },
        {
          "duration": 0.22222200000000214,
          "durationTicks": 192,
          "midi": 66,
          "name": "F#4",
          "ticks": 37056,
          "time": 42.888846,
          "velocity": 0.49606299212598426
        },
        {
          "duration": 0.22222200000000214,
          "durationTicks": 192,
          "midi": 78,
          "name": "F#5",
          "ticks": 37056,
          "time": 42.888846,
          "velocity": 0.49606299212598426
        },
        {
          "duration": 0.22222199999999503,
          "durationTicks": 192,
          "midi": 64,
          "name": "E4",
          "ticks": 37248,
          "time": 43.111068,
          "velocity": 0.49606299212598426
        },
        {
          "duration": 0.22222199999999503,
          "durationTicks": 192,
          "midi": 76,
          "name": "E5",
          "ticks": 37248,
          "time": 43.111068,
          "velocity": 0.49606299212598426
        },
        {
          "duration": 0.22222200000000214,
          "durationTicks": 192,
          "midi": 61,
          "name": "C#4",
          "ticks": 37440,
          "time": 43.33329,
          "velocity": 0.49606299212598426
        },
        {
          "duration": 0.22222200000000214,
          "durationTicks": 192,
          "midi": 73,
          "name": "C#5",
          "ticks": 37440,
          "time": 43.33329,
          "velocity": 0.49606299212598426
        },
        {
          "duration": 0.11111100000000107,
          "durationTicks": 96,
          "midi": 76,
          "name": "E5",
          "ticks": 37632,
          "time": 43.555512,
          "velocity": 0.49606299212598426
        },
        {
          "duration": 0.11111100000000107,
          "durationTicks": 96,
          "midi": 64,
          "name": "E4",
          "ticks": 37632,
          "time": 43.555512,
          "velocity": 0.49606299212598426
        },
        {
          "duration": 0.11111100000000107,
          "durationTicks": 96,
          "midi": 76,
          "name": "E5",
          "ticks": 37728,
          "time": 43.666623,
          "velocity": 0.49606299212598426
        },
        {
          "duration": 0.11111100000000107,
          "durationTicks": 96,
          "midi": 64,
          "name": "E4",
          "ticks": 37728,
          "time": 43.666623,
          "velocity": 0.49606299212598426
        },
        {
          "duration": 0.11111100000000107,
          "durationTicks": 96,
          "midi": 66,
          "name": "F#4",
          "ticks": 37824,
          "time": 43.777734,
          "velocity": 0.49606299212598426
        },
        {
          "duration": 0.11111100000000107,
          "durationTicks": 96,
          "midi": 78,
          "name": "F#5",
          "ticks": 37824,
          "time": 43.777734,
          "velocity": 0.49606299212598426
        },
        {
          "duration": 0.11111099999999396,
          "durationTicks": 96,
          "midi": 66,
          "name": "F#4",
          "ticks": 37920,
          "time": 43.888845,
          "velocity": 0.49606299212598426
        },
        {
          "duration": 0.11111099999999396,
          "durationTicks": 96,
          "midi": 78,
          "name": "F#5",
          "ticks": 37920,
          "time": 43.888845,
          "velocity": 0.49606299212598426
        },
        {
          "duration": 0.22222200000000214,
          "durationTicks": 192,
          "midi": 68,
          "name": "G#4",
          "ticks": 38016,
          "time": 43.999956,
          "velocity": 0.49606299212598426
        },
        {
          "duration": 0.22222200000000214,
          "durationTicks": 192,
          "midi": 80,
          "name": "G#5",
          "ticks": 38016,
          "time": 43.999956,
          "velocity": 0.49606299212598426
        },
        {
          "duration": 0.22222200000000214,
          "durationTicks": 192,
          "midi": 78,
          "name": "F#5",
          "ticks": 38208,
          "time": 44.222178,
          "velocity": 0.49606299212598426
        },
        {
          "duration": 0.22222200000000214,
          "durationTicks": 192,
          "midi": 66,
          "name": "F#4",
          "ticks": 38208,
          "time": 44.222178,
          "velocity": 0.49606299212598426
        },
        {
          "duration": 0.4444439999999972,
          "durationTicks": 384,
          "midi": 68,
          "name": "G#4",
          "ticks": 38400,
          "time": 44.4444,
          "velocity": 0.49606299212598426
        },
        {
          "duration": 0.4444439999999972,
          "durationTicks": 384,
          "midi": 80,
          "name": "G#5",
          "ticks": 38400,
          "time": 44.4444,
          "velocity": 0.49606299212598426
        },
        {
          "duration": 0.22222200000000214,
          "durationTicks": 192,
          "midi": 78,
          "name": "F#5",
          "ticks": 38784,
          "time": 44.888844,
          "velocity": 0.49606299212598426
        },
        {
          "duration": 0.22222200000000214,
          "durationTicks": 192,
          "midi": 66,
          "name": "F#4",
          "ticks": 38784,
          "time": 44.888844,
          "velocity": 0.49606299212598426
        },
        {
          "duration": 0.22222200000000214,
          "durationTicks": 192,
          "midi": 76,
          "name": "E5",
          "ticks": 38976,
          "time": 45.111066,
          "velocity": 0.49606299212598426
        },
        {
          "duration": 0.22222200000000214,
          "durationTicks": 192,
          "midi": 64,
          "name": "E4",
          "ticks": 38976,
          "time": 45.111066,
          "velocity": 0.49606299212598426
        },
        {
          "duration": 0.22222199999999503,
          "durationTicks": 192,
          "midi": 81,
          "name": "A5",
          "ticks": 39168,
          "time": 45.333288,
          "velocity": 0.49606299212598426
        },
        {
          "duration": 0.22222199999999503,
          "durationTicks": 192,
          "midi": 69,
          "name": "A4",
          "ticks": 39168,
          "time": 45.333288,
          "velocity": 0.49606299212598426
        },
        {
          "duration": 0.22222200000000214,
          "durationTicks": 192,
          "midi": 66,
          "name": "F#4",
          "ticks": 39360,
          "time": 45.55551,
          "velocity": 0.49606299212598426
        },
        {
          "duration": 0.22222200000000214,
          "durationTicks": 192,
          "midi": 78,
          "name": "F#5",
          "ticks": 39360,
          "time": 45.55551,
          "velocity": 0.49606299212598426
        },
        {
          "duration": 0.22222200000000214,
          "durationTicks": 192,
          "midi": 64,
          "name": "E4",
          "ticks": 39552,
          "time": 45.777732,
          "velocity": 0.49606299212598426
        },
        {
          "duration": 0.22222200000000214,
          "durationTicks": 192,
          "midi": 76,
          "name": "E5",
          "ticks": 39552,
          "time": 45.777732,
          "velocity": 0.49606299212598426
        },
        {
          "duration": 0.22222199999999503,
          "durationTicks": 192,
          "midi": 75,
          "name": "D#5",
          "ticks": 39744,
          "time": 45.999954,
          "velocity": 0.49606299212598426
        },
        {
          "duration": 0.22222199999999503,
          "durationTicks": 192,
          "midi": 63,
          "name": "D#4",
          "ticks": 39744,
          "time": 45.999954,
          "velocity": 0.49606299212598426
        },
        {
          "duration": 0.11111100000000107,
          "durationTicks": 96,
          "midi": 76,
          "name": "E5",
          "ticks": 39936,
          "time": 46.222176,
          "velocity": 0.49606299212598426
        },
        {
          "duration": 0.11111100000000107,
          "durationTicks": 96,
          "midi": 64,
          "name": "E4",
          "ticks": 39936,
          "time": 46.222176,
          "velocity": 0.49606299212598426
        },
        {
          "duration": 0.11111100000000107,
          "durationTicks": 96,
          "midi": 76,
          "name": "E5",
          "ticks": 40032,
          "time": 46.333287,
          "velocity": 0.49606299212598426
        },
        {
          "duration": 0.11111100000000107,
          "durationTicks": 96,
          "midi": 64,
          "name": "E4",
          "ticks": 40032,
          "time": 46.333287,
          "velocity": 0.49606299212598426
        },
        {
          "duration": 0.22222200000000214,
          "durationTicks": 192,
          "midi": 78,
          "name": "F#5",
          "ticks": 40128,
          "time": 46.444398,
          "velocity": 0.49606299212598426
        },
        {
          "duration": 0.22222200000000214,
          "durationTicks": 192,
          "midi": 66,
          "name": "F#4",
          "ticks": 40128,
          "time": 46.444398,
          "velocity": 0.49606299212598426
        },
        {
          "duration": 0.22222200000000214,
          "durationTicks": 192,
          "midi": 64,
          "name": "E4",
          "ticks": 40320,
          "time": 46.66662,
          "velocity": 0.49606299212598426
        },
        {
          "duration": 0.22222200000000214,
          "durationTicks": 192,
          "midi": 76,
          "name": "E5",
          "ticks": 40320,
          "time": 46.66662,
          "velocity": 0.49606299212598426
        },
        {
          "duration": 0.22222199999999503,
          "durationTicks": 192,
          "midi": 75,
          "name": "D#5",
          "ticks": 40512,
          "time": 46.888842000000004,
          "velocity": 0.49606299212598426
        },
        {
          "duration": 0.22222199999999503,
          "durationTicks": 192,
          "midi": 63,
          "name": "D#4",
          "ticks": 40512,
          "time": 46.888842000000004,
          "velocity": 0.49606299212598426
        },
        {
          "duration": 0.11111100000000107,
          "durationTicks": 96,
          "midi": 64,
          "name": "E4",
          "ticks": 40704,
          "time": 47.111064,
          "velocity": 0.49606299212598426
        },
        {
          "duration": 0.11111100000000107,
          "durationTicks": 96,
          "midi": 76,
          "name": "E5",
          "ticks": 40704,
          "time": 47.111064,
          "velocity": 0.49606299212598426
        },
        {
          "duration": 0.11111100000000107,
          "durationTicks": 96,
          "midi": 76,
          "name": "E5",
          "ticks": 40800,
          "time": 47.222175,
          "velocity": 0.49606299212598426
        },
        {
          "duration": 0.11111100000000107,
          "durationTicks": 96,
          "midi": 64,
          "name": "E4",
          "ticks": 40800,
          "time": 47.222175,
          "velocity": 0.49606299212598426
        },
        {
          "duration": 0.11111100000000107,
          "durationTicks": 96,
          "midi": 78,
          "name": "F#5",
          "ticks": 40896,
          "time": 47.333286,
          "velocity": 0.49606299212598426
        },
        {
          "duration": 0.11111100000000107,
          "durationTicks": 96,
          "midi": 66,
          "name": "F#4",
          "ticks": 40896,
          "time": 47.333286,
          "velocity": 0.49606299212598426
        },
        {
          "duration": 0.11111100000000107,
          "durationTicks": 96,
          "midi": 78,
          "name": "F#5",
          "ticks": 40992,
          "time": 47.444397,
          "velocity": 0.49606299212598426
        },
        {
          "duration": 0.11111100000000107,
          "durationTicks": 96,
          "midi": 66,
          "name": "F#4",
          "ticks": 40992,
          "time": 47.444397,
          "velocity": 0.49606299212598426
        },
        {
          "duration": 0.22222199999999503,
          "durationTicks": 192,
          "midi": 68,
          "name": "G#4",
          "ticks": 41088,
          "time": 47.555508,
          "velocity": 0.49606299212598426
        },
        {
          "duration": 0.22222199999999503,
          "durationTicks": 192,
          "midi": 80,
          "name": "G#5",
          "ticks": 41088,
          "time": 47.555508,
          "velocity": 0.49606299212598426
        },
        {
          "duration": 0.22222200000000214,
          "durationTicks": 192,
          "midi": 66,
          "name": "F#4",
          "ticks": 41280,
          "time": 47.77773,
          "velocity": 0.49606299212598426
        },
        {
          "duration": 0.22222200000000214,
          "durationTicks": 192,
          "midi": 78,
          "name": "F#5",
          "ticks": 41280,
          "time": 47.77773,
          "velocity": 0.49606299212598426
        },
        {
          "duration": 0.4444439999999972,
          "durationTicks": 384,
          "midi": 64,
          "name": "E4",
          "ticks": 41472,
          "time": 47.999952,
          "velocity": 0.49606299212598426
        },
        {
          "duration": 0.4444439999999972,
          "durationTicks": 384,
          "midi": 76,
          "name": "E5",
          "ticks": 41472,
          "time": 47.999952,
          "velocity": 0.49606299212598426
        },
        {
          "duration": 0.22222200000000214,
          "durationTicks": 192,
          "midi": 80,
          "name": "G#5",
          "ticks": 41856,
          "time": 48.444396,
          "velocity": 0.49606299212598426
        },
        {
          "duration": 0.22222200000000214,
          "durationTicks": 192,
          "midi": 68,
          "name": "G#4",
          "ticks": 41856,
          "time": 48.444396,
          "velocity": 0.49606299212598426
        },
        {
          "duration": 0.22222200000000214,
          "durationTicks": 192,
          "midi": 76,
          "name": "E5",
          "ticks": 42048,
          "time": 48.666618,
          "velocity": 0.49606299212598426
        },
        {
          "duration": 0.22222200000000214,
          "durationTicks": 192,
          "midi": 64,
          "name": "E4",
          "ticks": 42048,
          "time": 48.666618,
          "velocity": 0.49606299212598426
        },
        {
          "duration": 0.22222200000000214,
          "durationTicks": 192,
          "midi": 81,
          "name": "A5",
          "ticks": 42240,
          "time": 48.88884,
          "velocity": 0.49606299212598426
        },
        {
          "duration": 0.22222200000000214,
          "durationTicks": 192,
          "midi": 69,
          "name": "A4",
          "ticks": 42240,
          "time": 48.88884,
          "velocity": 0.49606299212598426
        },
        {
          "duration": 0.22222199999999503,
          "durationTicks": 192,
          "midi": 68,
          "name": "G#4",
          "ticks": 42432,
          "time": 49.111062000000004,
          "velocity": 0.49606299212598426
        },
        {
          "duration": 0.22222199999999503,
          "durationTicks": 192,
          "midi": 80,
          "name": "G#5",
          "ticks": 42432,
          "time": 49.111062000000004,
          "velocity": 0.49606299212598426
        },
        {
          "duration": 0.22222200000000214,
          "durationTicks": 192,
          "midi": 78,
          "name": "F#5",
          "ticks": 42624,
          "time": 49.333284,
          "velocity": 0.49606299212598426
        },
        {
          "duration": 0.22222200000000214,
          "durationTicks": 192,
          "midi": 66,
          "name": "F#4",
          "ticks": 42624,
          "time": 49.333284,
          "velocity": 0.49606299212598426
        },
        {
          "duration": 0.22222200000000214,
          "durationTicks": 192,
          "midi": 76,
          "name": "E5",
          "ticks": 42816,
          "time": 49.555506,
          "velocity": 0.49606299212598426
        },
        {
          "duration": 0.22222200000000214,
          "durationTicks": 192,
          "midi": 64,
          "name": "E4",
          "ticks": 42816,
          "time": 49.555506,
          "velocity": 0.49606299212598426
        },
        {
          "duration": 0.22222199999999503,
          "durationTicks": 192,
          "midi": 49,
          "name": "C#3",
          "ticks": 43008,
          "time": 49.777728,
          "velocity": 0.49606299212598426
        },
        {
          "duration": 0.22222200000000214,
          "durationTicks": 192,
          "midi": 49,
          "name": "C#3",
          "ticks": 43200,
          "time": 49.99995,
          "velocity": 0.49606299212598426
        },
        {
          "duration": 0.22222200000000214,
          "durationTicks": 192,
          "midi": 61,
          "name": "C#4",
          "ticks": 43392,
          "time": 50.222172,
          "velocity": 0.49606299212598426
        },
        {
          "duration": 0.6666660000000064,
          "durationTicks": 576,
          "midi": 56,
          "name": "G#3",
          "ticks": 43776,
          "time": 50.666616,
          "velocity": 0.49606299212598426
        },
        {
          "duration": 0.4444439999999972,
          "durationTicks": 384,
          "midi": 55,
          "name": "G3",
          "ticks": 44352,
          "time": 51.333282000000004,
          "velocity": 0.49606299212598426
        },
        {
          "duration": 0.4444439999999972,
          "durationTicks": 384,
          "midi": 54,
          "name": "F#3",
          "ticks": 44736,
          "time": 51.777726,
          "velocity": 0.49606299212598426
        },
        {
          "duration": 0.4444440000000043,
          "durationTicks": 384,
          "midi": 52,
          "name": "E3",
          "ticks": 45120,
          "time": 52.22217,
          "velocity": 0.49606299212598426
        },
        {
          "duration": 0.22222199999999503,
          "durationTicks": 192,
          "midi": 49,
          "name": "C#3",
          "ticks": 45504,
          "time": 52.666614,
          "velocity": 0.49606299212598426
        },
        {
          "duration": 0.22222200000000214,
          "durationTicks": 192,
          "midi": 52,
          "name": "E3",
          "ticks": 45696,
          "time": 52.888836,
          "velocity": 0.49606299212598426
        },
        {
          "duration": 0.22222200000000214,
          "durationTicks": 192,
          "midi": 54,
          "name": "F#3",
          "ticks": 45888,
          "time": 53.111058,
          "velocity": 0.49606299212598426
        },
        {
          "duration": 0.22222200000000214,
          "durationTicks": 192,
          "midi": 49,
          "name": "C#3",
          "ticks": 46080,
          "time": 53.33328,
          "velocity": 0.49606299212598426
        },
        {
          "duration": 0.22222199999999503,
          "durationTicks": 192,
          "midi": 49,
          "name": "C#3",
          "ticks": 46272,
          "time": 53.555502000000004,
          "velocity": 0.49606299212598426
        },
        {
          "duration": 0.4444440000000043,
          "durationTicks": 384,
          "midi": 51,
          "name": "D#3",
          "ticks": 46464,
          "time": 53.777724,
          "velocity": 0.49606299212598426
        },
        {
          "duration": 0.4444439999999972,
          "durationTicks": 384,
          "midi": 52,
          "name": "E3",
          "ticks": 46848,
          "time": 54.222168,
          "velocity": 0.49606299212598426
        },
        {
          "duration": 0.22222200000000214,
          "durationTicks": 192,
          "midi": 54,
          "name": "F#3",
          "ticks": 47232,
          "time": 54.666612,
          "velocity": 0.49606299212598426
        },
        {
          "duration": 0.6666659999999993,
          "durationTicks": 576,
          "midi": 56,
          "name": "G#3",
          "ticks": 47424,
          "time": 54.888834,
          "velocity": 0.49606299212598426
        },
        {
          "duration": 0.22222200000000214,
          "durationTicks": 192,
          "midi": 49,
          "name": "C#3",
          "ticks": 48000,
          "time": 55.5555,
          "velocity": 0.49606299212598426
        },
        {
          "duration": 0.22222199999999503,
          "durationTicks": 192,
          "midi": 49,
          "name": "C#3",
          "ticks": 48192,
          "time": 55.777722000000004,
          "velocity": 0.49606299212598426
        },
        {
          "duration": 0.4444440000000043,
          "durationTicks": 384,
          "midi": 52,
          "name": "E3",
          "ticks": 48384,
          "time": 55.999944,
          "velocity": 0.49606299212598426
        },
        {
          "duration": 0.4444439999999972,
          "durationTicks": 384,
          "midi": 54,
          "name": "F#3",
          "ticks": 48768,
          "time": 56.444388000000004,
          "velocity": 0.49606299212598426
        },
        {
          "duration": 0.22222200000000214,
          "durationTicks": 192,
          "midi": 45,
          "name": "A2",
          "ticks": 49152,
          "time": 56.888832,
          "velocity": 0.49606299212598426
        },
        {
          "duration": 0.22222200000000214,
          "durationTicks": 192,
          "midi": 52,
          "name": "E3",
          "ticks": 49536,
          "time": 57.333276,
          "velocity": 0.49606299212598426
        },
        {
          "duration": 0.4444439999999972,
          "durationTicks": 384,
          "midi": 59,
          "name": "B3",
          "ticks": 49920,
          "time": 57.77772,
          "velocity": 0.49606299212598426
        },
        {
          "duration": 0.4444440000000043,
          "durationTicks": 384,
          "midi": 58,
          "name": "A#3",
          "ticks": 50304,
          "time": 58.222164,
          "velocity": 0.49606299212598426
        },
        {
          "duration": 0.22222199999999503,
          "durationTicks": 192,
          "midi": 45,
          "name": "A2",
          "ticks": 50688,
          "time": 58.666608000000004,
          "velocity": 0.49606299212598426
        },
        {
          "duration": 0.22222200000000214,
          "durationTicks": 192,
          "midi": 57,
          "name": "A3",
          "ticks": 50880,
          "time": 58.88883,
          "velocity": 0.49606299212598426
        },
        {
          "duration": 0.4444439999999972,
          "durationTicks": 384,
          "midi": 45,
          "name": "A2",
          "ticks": 51264,
          "time": 59.333274,
          "velocity": 0.49606299212598426
        },
        {
          "duration": 0.22222200000000214,
          "durationTicks": 192,
          "midi": 52,
          "name": "E3",
          "ticks": 51648,
          "time": 59.777718,
          "velocity": 0.49606299212598426
        },
        {
          "duration": 0.22222199999999503,
          "durationTicks": 192,
          "midi": 59,
          "name": "B3",
          "ticks": 51840,
          "time": 59.99994,
          "velocity": 0.49606299212598426
        },
        {
          "duration": 0.22222200000000214,
          "durationTicks": 192,
          "midi": 58,
          "name": "A#3",
          "ticks": 52032,
          "time": 60.222162,
          "velocity": 0.49606299212598426
        },
        {
          "duration": 0.11111100000000107,
          "durationTicks": 96,
          "midi": 57,
          "name": "A3",
          "ticks": 52224,
          "time": 60.444384,
          "velocity": 0.49606299212598426
        },
        {
          "duration": 0.22222199999999503,
          "durationTicks": 192,
          "midi": 54,
          "name": "F#3",
          "ticks": 52608,
          "time": 60.888828000000004,
          "velocity": 0.49606299212598426
        },
        {
          "duration": 0.22222200000000214,
          "durationTicks": 192,
          "midi": 56,
          "name": "G#3",
          "ticks": 52800,
          "time": 61.11105,
          "velocity": 0.49606299212598426
        },
        {
          "duration": 0.22222200000000214,
          "durationTicks": 192,
          "midi": 54,
          "name": "F#3",
          "ticks": 52992,
          "time": 61.333272,
          "velocity": 0.49606299212598426
        },
        {
          "duration": 0.22222199999999503,
          "durationTicks": 192,
          "midi": 52,
          "name": "E3",
          "ticks": 53184,
          "time": 61.555494,
          "velocity": 0.49606299212598426
        },
        {
          "duration": 0.22222200000000214,
          "durationTicks": 192,
          "midi": 49,
          "name": "C#3",
          "ticks": 53376,
          "time": 61.777716,
          "velocity": 0.49606299212598426
        },
        {
          "duration": 0.22222200000000214,
          "durationTicks": 192,
          "midi": 52,
          "name": "E3",
          "ticks": 53568,
          "time": 61.999938,
          "velocity": 0.49606299212598426
        },
        {
          "duration": 0.11111100000000107,
          "durationTicks": 96,
          "midi": 57,
          "name": "A3",
          "ticks": 53760,
          "time": 62.22216,
          "velocity": 0.49606299212598426
        },
        {
          "duration": 0.4444440000000043,
          "durationTicks": 384,
          "midi": 54,
          "name": "F#3",
          "ticks": 54144,
          "time": 62.666604,
          "velocity": 0.49606299212598426
        },
        {
          "duration": 0.4444439999999972,
          "durationTicks": 384,
          "midi": 52,
          "name": "E3",
          "ticks": 54528,
          "time": 63.111048000000004,
          "velocity": 0.49606299212598426
        },
        {
          "duration": 0.4444439999999972,
          "durationTicks": 384,
          "midi": 49,
          "name": "C#3",
          "ticks": 54912,
          "time": 63.555492,
          "velocity": 0.49606299212598426
        },
        {
          "duration": 0.22222200000000925,
          "durationTicks": 192,
          "midi": 49,
          "name": "C#3",
          "ticks": 55296,
          "time": 63.999936,
          "velocity": 0.49606299212598426
        },
        {
          "duration": 0.22222199999998793,
          "durationTicks": 192,
          "midi": 49,
          "name": "C#3",
          "ticks": 55488,
          "time": 64.22215800000001,
          "velocity": 0.49606299212598426
        },
        {
          "duration": 0.22222200000000214,
          "durationTicks": 192,
          "midi": 61,
          "name": "C#4",
          "ticks": 55680,
          "time": 64.44438,
          "velocity": 0.49606299212598426
        },
        {
          "duration": 0.6666660000000064,
          "durationTicks": 576,
          "midi": 56,
          "name": "G#3",
          "ticks": 56064,
          "time": 64.888824,
          "velocity": 0.49606299212598426
        },
        {
          "duration": 0.44444399999999007,
          "durationTicks": 384,
          "midi": 55,
          "name": "G3",
          "ticks": 56640,
          "time": 65.55549,
          "velocity": 0.49606299212598426
        },
        {
          "duration": 0.4444440000000043,
          "durationTicks": 384,
          "midi": 54,
          "name": "F#3",
          "ticks": 57024,
          "time": 65.999934,
          "velocity": 0.49606299212598426
        },
        {
          "duration": 0.4444440000000043,
          "durationTicks": 384,
          "midi": 52,
          "name": "E3",
          "ticks": 57408,
          "time": 66.444378,
          "velocity": 0.49606299212598426
        },
        {
          "duration": 0.22222200000000214,
          "durationTicks": 192,
          "midi": 49,
          "name": "C#3",
          "ticks": 57792,
          "time": 66.888822,
          "velocity": 0.49606299212598426
        },
        {
          "duration": 0.22222200000000214,
          "durationTicks": 192,
          "midi": 61,
          "name": "C#4",
          "ticks": 57792,
          "time": 66.888822,
          "velocity": 0.49606299212598426
        },
        {
          "duration": 0.22222199999998793,
          "durationTicks": 192,
          "midi": 52,
          "name": "E3",
          "ticks": 57984,
          "time": 67.111044,
          "velocity": 0.49606299212598426
        },
        {
          "duration": 0.22222199999998793,
          "durationTicks": 192,
          "midi": 64,
          "name": "E4",
          "ticks": 57984,
          "time": 67.111044,
          "velocity": 0.49606299212598426
        },
        {
          "duration": 0.22222200000000214,
          "durationTicks": 192,
          "midi": 66,
          "name": "F#4",
          "ticks": 58176,
          "time": 67.333266,
          "velocity": 0.49606299212598426
        },
        {
          "duration": 0.22222200000000214,
          "durationTicks": 192,
          "midi": 54,
          "name": "F#3",
          "ticks": 58176,
          "time": 67.333266,
          "velocity": 0.49606299212598426
        },
        {
          "duration": 0.22222200000000214,
          "durationTicks": 192,
          "midi": 49,
          "name": "C#3",
          "ticks": 58368,
          "time": 67.555488,
          "velocity": 0.49606299212598426
        },
        {
          "duration": 0.22222200000000214,
          "durationTicks": 192,
          "midi": 49,
          "name": "C#3",
          "ticks": 58560,
          "time": 67.77771,
          "velocity": 0.49606299212598426
        },
        {
          "duration": 0.4444440000000043,
          "durationTicks": 384,
          "midi": 51,
          "name": "D#3",
          "ticks": 58752,
          "time": 67.999932,
          "velocity": 0.49606299212598426
        },
        {
          "duration": 0.44444399999999007,
          "durationTicks": 384,
          "midi": 52,
          "name": "E3",
          "ticks": 59136,
          "time": 68.444376,
          "velocity": 0.49606299212598426
        },
        {
          "duration": 0.22222200000000214,
          "durationTicks": 192,
          "midi": 54,
          "name": "F#3",
          "ticks": 59520,
          "time": 68.88882,
          "velocity": 0.49606299212598426
        },
        {
          "duration": 0.6666660000000064,
          "durationTicks": 576,
          "midi": 55,
          "name": "G3",
          "ticks": 59712,
          "time": 69.111042,
          "velocity": 0.49606299212598426
        },
        {
          "duration": 0.22222200000000214,
          "durationTicks": 192,
          "midi": 49,
          "name": "C#3",
          "ticks": 60288,
          "time": 69.777708,
          "velocity": 0.49606299212598426
        },
        {
          "duration": 0.22222199999998793,
          "durationTicks": 192,
          "midi": 49,
          "name": "C#3",
          "ticks": 60480,
          "time": 69.99993,
          "velocity": 0.49606299212598426
        },
        {
          "duration": 0.4444440000000043,
          "durationTicks": 384,
          "midi": 52,
          "name": "E3",
          "ticks": 60672,
          "time": 70.222152,
          "velocity": 0.49606299212598426
        },
        {
          "duration": 0.4444440000000043,
          "durationTicks": 384,
          "midi": 54,
          "name": "F#3",
          "ticks": 61056,
          "time": 70.666596,
          "velocity": 0.49606299212598426
        },
        {
          "duration": 0.22222200000000214,
          "durationTicks": 192,
          "midi": 45,
          "name": "A2",
          "ticks": 61440,
          "time": 71.11104,
          "velocity": 0.49606299212598426
        },
        {
          "duration": 0.22222199999998793,
          "durationTicks": 192,
          "midi": 52,
          "name": "E3",
          "ticks": 61824,
          "time": 71.555484,
          "velocity": 0.49606299212598426
        },
        {
          "duration": 0.4444440000000043,
          "durationTicks": 384,
          "midi": 59,
          "name": "B3",
          "ticks": 62208,
          "time": 71.999928,
          "velocity": 0.49606299212598426
        },
        {
          "duration": 0.4444440000000043,
          "durationTicks": 384,
          "midi": 58,
          "name": "A#3",
          "ticks": 62592,
          "time": 72.444372,
          "velocity": 0.49606299212598426
        },
        {
          "duration": 0.22222200000000214,
          "durationTicks": 192,
          "midi": 45,
          "name": "A2",
          "ticks": 62976,
          "time": 72.888816,
          "velocity": 0.49606299212598426
        },
        {
          "duration": 0.11111099999999396,
          "durationTicks": 96,
          "midi": 45,
          "name": "A2",
          "ticks": 63168,
          "time": 73.11103800000001,
          "velocity": 0.49606299212598426
        },
        {
          "duration": 0.11111099999999396,
          "durationTicks": 96,
          "midi": 45,
          "name": "A2",
          "ticks": 63264,
          "time": 73.222149,
          "velocity": 0.49606299212598426
        },
        {
          "duration": 0.4444440000000043,
          "durationTicks": 384,
          "midi": 45,
          "name": "A2",
          "ticks": 63552,
          "time": 73.555482,
          "velocity": 0.49606299212598426
        },
        {
          "duration": 0.22222200000000214,
          "durationTicks": 192,
          "midi": 52,
          "name": "E3",
          "ticks": 63936,
          "time": 73.999926,
          "velocity": 0.49606299212598426
        },
        {
          "duration": 0.22222200000000214,
          "durationTicks": 192,
          "midi": 59,
          "name": "B3",
          "ticks": 64128,
          "time": 74.222148,
          "velocity": 0.49606299212598426
        },
        {
          "duration": 0.22222199999998793,
          "durationTicks": 192,
          "midi": 58,
          "name": "A#3",
          "ticks": 64320,
          "time": 74.44437,
          "velocity": 0.49606299212598426
        },
        {
          "duration": 0.11111100000000818,
          "durationTicks": 96,
          "midi": 57,
          "name": "A3",
          "ticks": 64512,
          "time": 74.666592,
          "velocity": 0.49606299212598426
        },
        {
          "duration": 0.4444440000000043,
          "durationTicks": 384,
          "midi": 56,
          "name": "G#3",
          "ticks": 64512,
          "time": 74.666592,
          "velocity": 0.49606299212598426
        },
        {
          "duration": 0.22222200000000214,
          "durationTicks": 192,
          "midi": 54,
          "name": "F#3",
          "ticks": 64896,
          "time": 75.111036,
          "velocity": 0.49606299212598426
        },
        {
          "duration": 0.22222200000000214,
          "durationTicks": 192,
          "midi": 56,
          "name": "G#3",
          "ticks": 65088,
          "time": 75.333258,
          "velocity": 0.49606299212598426
        },
        {
          "duration": 0.22222200000000214,
          "durationTicks": 192,
          "midi": 54,
          "name": "F#3",
          "ticks": 65280,
          "time": 75.55548,
          "velocity": 0.49606299212598426
        },
        {
          "duration": 0.22222200000000214,
          "durationTicks": 192,
          "midi": 52,
          "name": "E3",
          "ticks": 65472,
          "time": 75.777702,
          "velocity": 0.49606299212598426
        },
        {
          "duration": 0.22222199999998793,
          "durationTicks": 192,
          "midi": 49,
          "name": "C#3",
          "ticks": 65664,
          "time": 75.99992400000001,
          "velocity": 0.49606299212598426
        },
        {
          "duration": 0.22222200000000214,
          "durationTicks": 192,
          "midi": 52,
          "name": "E3",
          "ticks": 65856,
          "time": 76.222146,
          "velocity": 0.49606299212598426
        },
        {
          "duration": 0.11111100000000818,
          "durationTicks": 96,
          "midi": 57,
          "name": "A3",
          "ticks": 66048,
          "time": 76.444368,
          "velocity": 0.49606299212598426
        },
        {
          "duration": 0.4444440000000043,
          "durationTicks": 384,
          "midi": 56,
          "name": "G#3",
          "ticks": 66048,
          "time": 76.444368,
          "velocity": 0.49606299212598426
        },
        {
          "duration": 0.4444440000000043,
          "durationTicks": 384,
          "midi": 54,
          "name": "F#3",
          "ticks": 66432,
          "time": 76.888812,
          "velocity": 0.49606299212598426
        },
        {
          "duration": 0.4444440000000043,
          "durationTicks": 384,
          "midi": 66,
          "name": "F#4",
          "ticks": 66432,
          "time": 76.888812,
          "velocity": 0.49606299212598426
        },
        {
          "duration": 0.44444399999999007,
          "durationTicks": 384,
          "midi": 64,
          "name": "E4",
          "ticks": 66816,
          "time": 77.333256,
          "velocity": 0.49606299212598426
        },
        {
          "duration": 0.44444399999999007,
          "durationTicks": 384,
          "midi": 52,
          "name": "E3",
          "ticks": 66816,
          "time": 77.333256,
          "velocity": 0.49606299212598426
        },
        {
          "duration": 0.4444440000000043,
          "durationTicks": 384,
          "midi": 61,
          "name": "C#4",
          "ticks": 67200,
          "time": 77.7777,
          "velocity": 0.49606299212598426
        },
        {
          "duration": 0.4444440000000043,
          "durationTicks": 384,
          "midi": 49,
          "name": "C#3",
          "ticks": 67200,
          "time": 77.7777,
          "velocity": 0.49606299212598426
        },
        {
          "duration": 0.6666660000000064,
          "durationTicks": 576,
          "midi": 52,
          "name": "E3",
          "ticks": 67584,
          "time": 78.222144,
          "velocity": 0.49606299212598426
        },
        {
          "duration": 0.6666660000000064,
          "durationTicks": 576,
          "midi": 64,
          "name": "E4",
          "ticks": 67584,
          "time": 78.222144,
          "velocity": 0.49606299212598426
        },
        {
          "duration": 0.22222199999998793,
          "durationTicks": 192,
          "midi": 66,
          "name": "F#4",
          "ticks": 68160,
          "time": 78.88881,
          "velocity": 0.49606299212598426
        },
        {
          "duration": 0.22222199999998793,
          "durationTicks": 192,
          "midi": 54,
          "name": "F#3",
          "ticks": 68160,
          "time": 78.88881,
          "velocity": 0.49606299212598426
        },
        {
          "duration": 0.4444440000000043,
          "durationTicks": 384,
          "midi": 52,
          "name": "E3",
          "ticks": 68352,
          "time": 79.111032,
          "velocity": 0.49606299212598426
        },
        {
          "duration": 0.4444440000000043,
          "durationTicks": 384,
          "midi": 64,
          "name": "E4",
          "ticks": 68352,
          "time": 79.111032,
          "velocity": 0.49606299212598426
        },
        {
          "duration": 0.22222200000000214,
          "durationTicks": 192,
          "midi": 63,
          "name": "D#4",
          "ticks": 68736,
          "time": 79.555476,
          "velocity": 0.49606299212598426
        },
        {
          "duration": 0.22222200000000214,
          "durationTicks": 192,
          "midi": 51,
          "name": "D#3",
          "ticks": 68736,
          "time": 79.555476,
          "velocity": 0.49606299212598426
        },
        {
          "duration": 0.22222200000000214,
          "durationTicks": 192,
          "midi": 52,
          "name": "E3",
          "ticks": 68928,
          "time": 79.777698,
          "velocity": 0.49606299212598426
        },
        {
          "duration": 0.22222200000000214,
          "durationTicks": 192,
          "midi": 64,
          "name": "E4",
          "ticks": 68928,
          "time": 79.777698,
          "velocity": 0.49606299212598426
        },
        {
          "duration": 0.4444440000000043,
          "durationTicks": 384,
          "midi": 68,
          "name": "G#4",
          "ticks": 69120,
          "time": 79.99992,
          "velocity": 0.49606299212598426
        },
        {
          "duration": 0.4444440000000043,
          "durationTicks": 384,
          "midi": 56,
          "name": "G#3",
          "ticks": 69120,
          "time": 79.99992,
          "velocity": 0.49606299212598426
        },
        {
          "duration": 0.44444399999999007,
          "durationTicks": 384,
          "midi": 66,
          "name": "F#4",
          "ticks": 69504,
          "time": 80.44436400000001,
          "velocity": 0.49606299212598426
        },
        {
          "duration": 0.44444399999999007,
          "durationTicks": 384,
          "midi": 54,
          "name": "F#3",
          "ticks": 69504,
          "time": 80.44436400000001,
          "velocity": 0.49606299212598426
        },
        {
          "duration": 0.4444440000000043,
          "durationTicks": 384,
          "midi": 52,
          "name": "E3",
          "ticks": 69888,
          "time": 80.888808,
          "velocity": 0.49606299212598426
        },
        {
          "duration": 0.4444440000000043,
          "durationTicks": 384,
          "midi": 64,
          "name": "E4",
          "ticks": 69888,
          "time": 80.888808,
          "velocity": 0.49606299212598426
        },
        {
          "duration": 0.4444440000000043,
          "durationTicks": 384,
          "midi": 63,
          "name": "D#4",
          "ticks": 70272,
          "time": 81.333252,
          "velocity": 0.49606299212598426
        },
        {
          "duration": 0.4444440000000043,
          "durationTicks": 384,
          "midi": 51,
          "name": "D#3",
          "ticks": 70272,
          "time": 81.333252,
          "velocity": 0.49606299212598426
        },
        {
          "duration": 0.11111099999999396,
          "durationTicks": 96,
          "midi": 61,
          "name": "C#4",
          "ticks": 70656,
          "time": 81.777696,
          "velocity": 0.49606299212598426
        },
        {
          "duration": 0.11111099999999396,
          "durationTicks": 96,
          "midi": 49,
          "name": "C#3",
          "ticks": 70656,
          "time": 81.777696,
          "velocity": 0.49606299212598426
        },
        {
          "duration": 0.11111100000000818,
          "durationTicks": 96,
          "midi": 49,
          "name": "C#3",
          "ticks": 70752,
          "time": 81.888807,
          "velocity": 0.49606299212598426
        },
        {
          "duration": 0.11111100000000818,
          "durationTicks": 96,
          "midi": 61,
          "name": "C#4",
          "ticks": 70752,
          "time": 81.888807,
          "velocity": 0.49606299212598426
        },
        {
          "duration": 0.11111099999999396,
          "durationTicks": 96,
          "midi": 57,
          "name": "A3",
          "ticks": 70848,
          "time": 81.99991800000001,
          "velocity": 0.49606299212598426
        },
        {
          "duration": 0.11111099999999396,
          "durationTicks": 96,
          "midi": 45,
          "name": "A2",
          "ticks": 70848,
          "time": 81.99991800000001,
          "velocity": 0.49606299212598426
        },
        {
          "duration": 0.11111099999999396,
          "durationTicks": 96,
          "midi": 45,
          "name": "A2",
          "ticks": 70944,
          "time": 82.111029,
          "velocity": 0.49606299212598426
        },
        {
          "duration": 0.11111099999999396,
          "durationTicks": 96,
          "midi": 57,
          "name": "A3",
          "ticks": 70944,
          "time": 82.111029,
          "velocity": 0.49606299212598426
        },
        {
          "duration": 0.11111100000000818,
          "durationTicks": 96,
          "midi": 61,
          "name": "C#4",
          "ticks": 71040,
          "time": 82.22214,
          "velocity": 0.49606299212598426
        },
        {
          "duration": 0.11111100000000818,
          "durationTicks": 96,
          "midi": 49,
          "name": "C#3",
          "ticks": 71040,
          "time": 82.22214,
          "velocity": 0.49606299212598426
        },
        {
          "duration": 0.11111099999999396,
          "durationTicks": 96,
          "midi": 61,
          "name": "C#4",
          "ticks": 71136,
          "time": 82.333251,
          "velocity": 0.49606299212598426
        },
        {
          "duration": 0.11111099999999396,
          "durationTicks": 96,
          "midi": 49,
          "name": "C#3",
          "ticks": 71136,
          "time": 82.333251,
          "velocity": 0.49606299212598426
        },
        {
          "duration": 0.11111100000000818,
          "durationTicks": 96,
          "midi": 51,
          "name": "D#3",
          "ticks": 71232,
          "time": 82.444362,
          "velocity": 0.49606299212598426
        },
        {
          "duration": 0.11111100000000818,
          "durationTicks": 96,
          "midi": 63,
          "name": "D#4",
          "ticks": 71232,
          "time": 82.444362,
          "velocity": 0.49606299212598426
        },
        {
          "duration": 0.11111099999999396,
          "durationTicks": 96,
          "midi": 63,
          "name": "D#4",
          "ticks": 71328,
          "time": 82.555473,
          "velocity": 0.49606299212598426
        },
        {
          "duration": 0.11111099999999396,
          "durationTicks": 96,
          "midi": 51,
          "name": "D#3",
          "ticks": 71328,
          "time": 82.555473,
          "velocity": 0.49606299212598426
        },
        {
          "duration": 0.11111099999999396,
          "durationTicks": 96,
          "midi": 61,
          "name": "C#4",
          "ticks": 71424,
          "time": 82.666584,
          "velocity": 0.49606299212598426
        },
        {
          "duration": 0.11111099999999396,
          "durationTicks": 96,
          "midi": 49,
          "name": "C#3",
          "ticks": 71424,
          "time": 82.666584,
          "velocity": 0.49606299212598426
        },
        {
          "duration": 0.11111100000000818,
          "durationTicks": 96,
          "midi": 57,
          "name": "A3",
          "ticks": 71520,
          "time": 82.777695,
          "velocity": 0.49606299212598426
        },
        {
          "duration": 0.11111100000000818,
          "durationTicks": 96,
          "midi": 45,
          "name": "A2",
          "ticks": 71520,
          "time": 82.777695,
          "velocity": 0.49606299212598426
        },
        {
          "duration": 0.11111099999999396,
          "durationTicks": 96,
          "midi": 61,
          "name": "C#4",
          "ticks": 71616,
          "time": 82.888806,
          "velocity": 0.49606299212598426
        },
        {
          "duration": 0.11111099999999396,
          "durationTicks": 96,
          "midi": 49,
          "name": "C#3",
          "ticks": 71616,
          "time": 82.888806,
          "velocity": 0.49606299212598426
        },
        {
          "duration": 0.11111100000000818,
          "durationTicks": 96,
          "midi": 63,
          "name": "D#4",
          "ticks": 71712,
          "time": 82.999917,
          "velocity": 0.49606299212598426
        },
        {
          "duration": 0.11111100000000818,
          "durationTicks": 96,
          "midi": 51,
          "name": "D#3",
          "ticks": 71712,
          "time": 82.999917,
          "velocity": 0.49606299212598426
        },
        {
          "duration": 0.11111099999999396,
          "durationTicks": 96,
          "midi": 64,
          "name": "E4",
          "ticks": 71808,
          "time": 83.111028,
          "velocity": 0.49606299212598426
        },
        {
          "duration": 0.11111099999999396,
          "durationTicks": 96,
          "midi": 52,
          "name": "E3",
          "ticks": 71808,
          "time": 83.111028,
          "velocity": 0.49606299212598426
        },
        {
          "duration": 0.11111100000000818,
          "durationTicks": 96,
          "midi": 61,
          "name": "C#4",
          "ticks": 71904,
          "time": 83.222139,
          "velocity": 0.49606299212598426
        },
        {
          "duration": 0.11111100000000818,
          "durationTicks": 96,
          "midi": 49,
          "name": "C#3",
          "ticks": 71904,
          "time": 83.222139,
          "velocity": 0.49606299212598426
        },
        {
          "duration": 0.11111099999999396,
          "durationTicks": 96,
          "midi": 52,
          "name": "E3",
          "ticks": 72000,
          "time": 83.33325,
          "velocity": 0.49606299212598426
        },
        {
          "duration": 0.11111099999999396,
          "durationTicks": 96,
          "midi": 64,
          "name": "E4",
          "ticks": 72000,
          "time": 83.33325,
          "velocity": 0.49606299212598426
        },
        {
          "duration": 0.11111099999999396,
          "durationTicks": 96,
          "midi": 54,
          "name": "F#3",
          "ticks": 72096,
          "time": 83.444361,
          "velocity": 0.49606299212598426
        },
        {
          "duration": 0.11111099999999396,
          "durationTicks": 96,
          "midi": 66,
          "name": "F#4",
          "ticks": 72096,
          "time": 83.444361,
          "velocity": 0.49606299212598426
        },
        {
          "duration": 0.11111100000000818,
          "durationTicks": 96,
          "midi": 61,
          "name": "C#4",
          "ticks": 72192,
          "time": 83.555472,
          "velocity": 0.49606299212598426
        },
        {
          "duration": 0.11111100000000818,
          "durationTicks": 96,
          "midi": 49,
          "name": "C#3",
          "ticks": 72192,
          "time": 83.555472,
          "velocity": 0.49606299212598426
        },
        {
          "duration": 0.11111099999999396,
          "durationTicks": 96,
          "midi": 59,
          "name": "B3",
          "ticks": 72288,
          "time": 83.666583,
          "velocity": 0.49606299212598426
        },
        {
          "duration": 0.11111099999999396,
          "durationTicks": 96,
          "midi": 47,
          "name": "B2",
          "ticks": 72288,
          "time": 83.666583,
          "velocity": 0.49606299212598426
        },
        {
          "duration": 0.22222200000000214,
          "durationTicks": 192,
          "midi": 61,
          "name": "C#4",
          "ticks": 72384,
          "time": 83.777694,
          "velocity": 0.49606299212598426
        },
        {
          "duration": 0.11111100000000818,
          "durationTicks": 96,
          "midi": 49,
          "name": "C#3",
          "ticks": 72384,
          "time": 83.777694,
          "velocity": 0.49606299212598426
        },
        {
          "duration": 0.11111100000000818,
          "durationTicks": 96,
          "midi": 63,
          "name": "D#4",
          "ticks": 72576,
          "time": 83.999916,
          "velocity": 0.49606299212598426
        },
        {
          "duration": 0.11111100000000818,
          "durationTicks": 96,
          "midi": 51,
          "name": "D#3",
          "ticks": 72576,
          "time": 83.999916,
          "velocity": 0.49606299212598426
        },
        {
          "duration": 0.11111099999999396,
          "durationTicks": 96,
          "midi": 61,
          "name": "C#4",
          "ticks": 72672,
          "time": 84.111027,
          "velocity": 0.49606299212598426
        },
        {
          "duration": 0.11111099999999396,
          "durationTicks": 96,
          "midi": 49,
          "name": "C#3",
          "ticks": 72672,
          "time": 84.111027,
          "velocity": 0.49606299212598426
        },
        {
          "duration": 0.22222200000000214,
          "durationTicks": 192,
          "midi": 63,
          "name": "D#4",
          "ticks": 72768,
          "time": 84.222138,
          "velocity": 0.49606299212598426
        },
        {
          "duration": 0.22222200000000214,
          "durationTicks": 192,
          "midi": 51,
          "name": "D#3",
          "ticks": 72768,
          "time": 84.222138,
          "velocity": 0.49606299212598426
        },
        {
          "duration": 0.22222200000000214,
          "durationTicks": 192,
          "midi": 49,
          "name": "C#3",
          "ticks": 72960,
          "time": 84.44436,
          "velocity": 0.49606299212598426
        },
        {
          "duration": 0.4444440000000043,
          "durationTicks": 384,
          "midi": 64,
          "name": "E4",
          "ticks": 72960,
          "time": 84.44436,
          "velocity": 0.49606299212598426
        },
        {
          "duration": 0.4444440000000043,
          "durationTicks": 384,
          "midi": 52,
          "name": "E3",
          "ticks": 72960,
          "time": 84.44436,
          "velocity": 0.49606299212598426
        },
        {
          "duration": 0.11111099999999396,
          "durationTicks": 96,
          "midi": 54,
          "name": "F#3",
          "ticks": 73344,
          "time": 84.88880400000001,
          "velocity": 0.49606299212598426
        },
        {
          "duration": 0.11111099999999396,
          "durationTicks": 96,
          "midi": 66,
          "name": "F#4",
          "ticks": 73344,
          "time": 84.88880400000001,
          "velocity": 0.49606299212598426
        },
        {
          "duration": 0.11111099999999396,
          "durationTicks": 96,
          "midi": 64,
          "name": "E4",
          "ticks": 73440,
          "time": 84.999915,
          "velocity": 0.49606299212598426
        },
        {
          "duration": 0.11111099999999396,
          "durationTicks": 96,
          "midi": 52,
          "name": "E3",
          "ticks": 73440,
          "time": 84.999915,
          "velocity": 0.49606299212598426
        },
        {
          "duration": 0.11111100000000818,
          "durationTicks": 96,
          "midi": 63,
          "name": "D#4",
          "ticks": 73536,
          "time": 85.111026,
          "velocity": 0.49606299212598426
        },
        {
          "duration": 0.11111100000000818,
          "durationTicks": 96,
          "midi": 51,
          "name": "D#3",
          "ticks": 73536,
          "time": 85.111026,
          "velocity": 0.49606299212598426
        },
        {
          "duration": 0.11111099999999396,
          "durationTicks": 96,
          "midi": 49,
          "name": "C#3",
          "ticks": 73632,
          "time": 85.222137,
          "velocity": 0.49606299212598426
        },
        {
          "duration": 0.11111099999999396,
          "durationTicks": 96,
          "midi": 61,
          "name": "C#4",
          "ticks": 73632,
          "time": 85.222137,
          "velocity": 0.49606299212598426
        },
        {
          "duration": 0.6666660000000064,
          "durationTicks": 576,
          "midi": 52,
          "name": "E3",
          "ticks": 73728,
          "time": 85.333248,
          "velocity": 0.49606299212598426
        },
        {
          "duration": 0.6666660000000064,
          "durationTicks": 576,
          "midi": 64,
          "name": "E4",
          "ticks": 73728,
          "time": 85.333248,
          "velocity": 0.49606299212598426
        },
        {
          "duration": 0.22222200000000214,
          "durationTicks": 192,
          "midi": 54,
          "name": "F#3",
          "ticks": 74304,
          "time": 85.999914,
          "velocity": 0.49606299212598426
        },
        {
          "duration": 0.22222200000000214,
          "durationTicks": 192,
          "midi": 66,
          "name": "F#4",
          "ticks": 74304,
          "time": 85.999914,
          "velocity": 0.49606299212598426
        },
        {
          "duration": 0.44444399999999007,
          "durationTicks": 384,
          "midi": 52,
          "name": "E3",
          "ticks": 74496,
          "time": 86.222136,
          "velocity": 0.49606299212598426
        },
        {
          "duration": 0.44444399999999007,
          "durationTicks": 384,
          "midi": 64,
          "name": "E4",
          "ticks": 74496,
          "time": 86.222136,
          "velocity": 0.49606299212598426
        },
        {
          "duration": 0.22222200000000214,
          "durationTicks": 192,
          "midi": 63,
          "name": "D#4",
          "ticks": 74880,
          "time": 86.66658,
          "velocity": 0.49606299212598426
        },
        {
          "duration": 0.22222200000000214,
          "durationTicks": 192,
          "midi": 51,
          "name": "D#3",
          "ticks": 74880,
          "time": 86.66658,
          "velocity": 0.49606299212598426
        },
        {
          "duration": 0.22222200000000214,
          "durationTicks": 192,
          "midi": 64,
          "name": "E4",
          "ticks": 75072,
          "time": 86.888802,
          "velocity": 0.49606299212598426
        },
        {
          "duration": 0.22222200000000214,
          "durationTicks": 192,
          "midi": 52,
          "name": "E3",
          "ticks": 75072,
          "time": 86.888802,
          "velocity": 0.49606299212598426
        },
        {
          "duration": 0.4444440000000043,
          "durationTicks": 384,
          "midi": 56,
          "name": "G#3",
          "ticks": 75264,
          "time": 87.111024,
          "velocity": 0.49606299212598426
        },
        {
          "duration": 0.4444440000000043,
          "durationTicks": 384,
          "midi": 68,
          "name": "G#4",
          "ticks": 75264,
          "time": 87.111024,
          "velocity": 0.49606299212598426
        },
        {
          "duration": 0.44444399999999007,
          "durationTicks": 384,
          "midi": 66,
          "name": "F#4",
          "ticks": 75648,
          "time": 87.555468,
          "velocity": 0.49606299212598426
        },
        {
          "duration": 0.44444399999999007,
          "durationTicks": 384,
          "midi": 54,
          "name": "F#3",
          "ticks": 75648,
          "time": 87.555468,
          "velocity": 0.49606299212598426
        },
        {
          "duration": 0.4444440000000043,
          "durationTicks": 384,
          "midi": 52,
          "name": "E3",
          "ticks": 76032,
          "time": 87.999912,
          "velocity": 0.49606299212598426
        },
        {
          "duration": 0.4444440000000043,
          "durationTicks": 384,
          "midi": 64,
          "name": "E4",
          "ticks": 76032,
          "time": 87.999912,
          "velocity": 0.49606299212598426
        },
        {
          "duration": 0.4444440000000043,
          "durationTicks": 384,
          "midi": 63,
          "name": "D#4",
          "ticks": 76416,
          "time": 88.444356,
          "velocity": 0.49606299212598426
        },
        {
          "duration": 0.4444440000000043,
          "durationTicks": 384,
          "midi": 51,
          "name": "D#3",
          "ticks": 76416,
          "time": 88.444356,
          "velocity": 0.49606299212598426
        },
        {
          "duration": 0.11111099999999396,
          "durationTicks": 96,
          "midi": 61,
          "name": "C#4",
          "ticks": 76800,
          "time": 88.8888,
          "velocity": 0.49606299212598426
        },
        {
          "duration": 0.11111099999999396,
          "durationTicks": 96,
          "midi": 49,
          "name": "C#3",
          "ticks": 76800,
          "time": 88.8888,
          "velocity": 0.49606299212598426
        },
        {
          "duration": 0.11111100000000818,
          "durationTicks": 96,
          "midi": 49,
          "name": "C#3",
          "ticks": 76896,
          "time": 88.999911,
          "velocity": 0.49606299212598426
        },
        {
          "duration": 0.11111100000000818,
          "durationTicks": 96,
          "midi": 61,
          "name": "C#4",
          "ticks": 76896,
          "time": 88.999911,
          "velocity": 0.49606299212598426
        },
        {
          "duration": 0.11111099999999396,
          "durationTicks": 96,
          "midi": 57,
          "name": "A3",
          "ticks": 76992,
          "time": 89.111022,
          "velocity": 0.49606299212598426
        },
        {
          "duration": 0.11111099999999396,
          "durationTicks": 96,
          "midi": 45,
          "name": "A2",
          "ticks": 76992,
          "time": 89.111022,
          "velocity": 0.49606299212598426
        },
        {
          "duration": 0.11111100000000818,
          "durationTicks": 96,
          "midi": 57,
          "name": "A3",
          "ticks": 77088,
          "time": 89.222133,
          "velocity": 0.49606299212598426
        },
        {
          "duration": 0.11111100000000818,
          "durationTicks": 96,
          "midi": 45,
          "name": "A2",
          "ticks": 77088,
          "time": 89.222133,
          "velocity": 0.49606299212598426
        },
        {
          "duration": 0.11111099999999396,
          "durationTicks": 96,
          "midi": 49,
          "name": "C#3",
          "ticks": 77184,
          "time": 89.33324400000001,
          "velocity": 0.49606299212598426
        },
        {
          "duration": 0.11111099999999396,
          "durationTicks": 96,
          "midi": 61,
          "name": "C#4",
          "ticks": 77184,
          "time": 89.33324400000001,
          "velocity": 0.49606299212598426
        },
        {
          "duration": 0.11111099999999396,
          "durationTicks": 96,
          "midi": 49,
          "name": "C#3",
          "ticks": 77280,
          "time": 89.444355,
          "velocity": 0.49606299212598426
        },
        {
          "duration": 0.11111099999999396,
          "durationTicks": 96,
          "midi": 61,
          "name": "C#4",
          "ticks": 77280,
          "time": 89.444355,
          "velocity": 0.49606299212598426
        },
        {
          "duration": 0.11111100000000818,
          "durationTicks": 96,
          "midi": 51,
          "name": "D#3",
          "ticks": 77376,
          "time": 89.555466,
          "velocity": 0.49606299212598426
        },
        {
          "duration": 0.11111100000000818,
          "durationTicks": 96,
          "midi": 63,
          "name": "D#4",
          "ticks": 77376,
          "time": 89.555466,
          "velocity": 0.49606299212598426
        },
        {
          "duration": 0.11111099999999396,
          "durationTicks": 96,
          "midi": 63,
          "name": "D#4",
          "ticks": 77472,
          "time": 89.666577,
          "velocity": 0.49606299212598426
        },
        {
          "duration": 0.11111099999999396,
          "durationTicks": 96,
          "midi": 51,
          "name": "D#3",
          "ticks": 77472,
          "time": 89.666577,
          "velocity": 0.49606299212598426
        },
        {
          "duration": 0.11111100000000818,
          "durationTicks": 96,
          "midi": 49,
          "name": "C#3",
          "ticks": 77568,
          "time": 89.777688,
          "velocity": 0.49606299212598426
        },
        {
          "duration": 0.11111100000000818,
          "durationTicks": 96,
          "midi": 61,
          "name": "C#4",
          "ticks": 77568,
          "time": 89.777688,
          "velocity": 0.49606299212598426
        },
        {
          "duration": 0.11111099999999396,
          "durationTicks": 96,
          "midi": 57,
          "name": "A3",
          "ticks": 77664,
          "time": 89.888799,
          "velocity": 0.49606299212598426
        },
        {
          "duration": 0.11111099999999396,
          "durationTicks": 96,
          "midi": 45,
          "name": "A2",
          "ticks": 77664,
          "time": 89.888799,
          "velocity": 0.49606299212598426
        },
        {
          "duration": 0.11111100000000818,
          "durationTicks": 96,
          "midi": 49,
          "name": "C#3",
          "ticks": 77760,
          "time": 89.99991,
          "velocity": 0.49606299212598426
        },
        {
          "duration": 0.11111100000000818,
          "durationTicks": 96,
          "midi": 61,
          "name": "C#4",
          "ticks": 77760,
          "time": 89.99991,
          "velocity": 0.49606299212598426
        },
        {
          "duration": 0.11111099999999396,
          "durationTicks": 96,
          "midi": 63,
          "name": "D#4",
          "ticks": 77856,
          "time": 90.11102100000001,
          "velocity": 0.49606299212598426
        },
        {
          "duration": 0.11111099999999396,
          "durationTicks": 96,
          "midi": 51,
          "name": "D#3",
          "ticks": 77856,
          "time": 90.11102100000001,
          "velocity": 0.49606299212598426
        },
        {
          "duration": 0.11111099999999396,
          "durationTicks": 96,
          "midi": 52,
          "name": "E3",
          "ticks": 77952,
          "time": 90.222132,
          "velocity": 0.49606299212598426
        },
        {
          "duration": 0.11111099999999396,
          "durationTicks": 96,
          "midi": 64,
          "name": "E4",
          "ticks": 77952,
          "time": 90.222132,
          "velocity": 0.49606299212598426
        },
        {
          "duration": 0.11111100000000818,
          "durationTicks": 96,
          "midi": 61,
          "name": "C#4",
          "ticks": 78048,
          "time": 90.333243,
          "velocity": 0.49606299212598426
        },
        {
          "duration": 0.11111100000000818,
          "durationTicks": 96,
          "midi": 49,
          "name": "C#3",
          "ticks": 78048,
          "time": 90.333243,
          "velocity": 0.49606299212598426
        },
        {
          "duration": 0.11111099999999396,
          "durationTicks": 96,
          "midi": 64,
          "name": "E4",
          "ticks": 78144,
          "time": 90.444354,
          "velocity": 0.49606299212598426
        },
        {
          "duration": 0.11111099999999396,
          "durationTicks": 96,
          "midi": 52,
          "name": "E3",
          "ticks": 78144,
          "time": 90.444354,
          "velocity": 0.49606299212598426
        },
        {
          "duration": 0.11111100000000818,
          "durationTicks": 96,
          "midi": 66,
          "name": "F#4",
          "ticks": 78240,
          "time": 90.555465,
          "velocity": 0.49606299212598426
        },
        {
          "duration": 0.11111100000000818,
          "durationTicks": 96,
          "midi": 54,
          "name": "F#3",
          "ticks": 78240,
          "time": 90.555465,
          "velocity": 0.49606299212598426
        },
        {
          "duration": 0.11111099999999396,
          "durationTicks": 96,
          "midi": 49,
          "name": "C#3",
          "ticks": 78336,
          "time": 90.666576,
          "velocity": 0.49606299212598426
        },
        {
          "duration": 0.11111099999999396,
          "durationTicks": 96,
          "midi": 61,
          "name": "C#4",
          "ticks": 78336,
          "time": 90.666576,
          "velocity": 0.49606299212598426
        },
        {
          "duration": 0.11111099999999396,
          "durationTicks": 96,
          "midi": 59,
          "name": "B3",
          "ticks": 78432,
          "time": 90.777687,
          "velocity": 0.49606299212598426
        },
        {
          "duration": 0.11111099999999396,
          "durationTicks": 96,
          "midi": 47,
          "name": "B2",
          "ticks": 78432,
          "time": 90.777687,
          "velocity": 0.49606299212598426
        },
        {
          "duration": 0.22222200000000214,
          "durationTicks": 192,
          "midi": 61,
          "name": "C#4",
          "ticks": 78528,
          "time": 90.888798,
          "velocity": 0.49606299212598426
        },
        {
          "duration": 0.11111100000000818,
          "durationTicks": 96,
          "midi": 49,
          "name": "C#3",
          "ticks": 78528,
          "time": 90.888798,
          "velocity": 0.49606299212598426
        },
        {
          "duration": 0.11111100000000818,
          "durationTicks": 96,
          "midi": 63,
          "name": "D#4",
          "ticks": 78720,
          "time": 91.11102,
          "velocity": 0.49606299212598426
        },
        {
          "duration": 0.11111100000000818,
          "durationTicks": 96,
          "midi": 51,
          "name": "D#3",
          "ticks": 78720,
          "time": 91.11102,
          "velocity": 0.49606299212598426
        },
        {
          "duration": 0.11111099999999396,
          "durationTicks": 96,
          "midi": 49,
          "name": "C#3",
          "ticks": 78816,
          "time": 91.222131,
          "velocity": 0.49606299212598426
        },
        {
          "duration": 0.11111099999999396,
          "durationTicks": 96,
          "midi": 61,
          "name": "C#4",
          "ticks": 78816,
          "time": 91.222131,
          "velocity": 0.49606299212598426
        },
        {
          "duration": 0.22222200000000214,
          "durationTicks": 192,
          "midi": 63,
          "name": "D#4",
          "ticks": 78912,
          "time": 91.333242,
          "velocity": 0.49606299212598426
        },
        {
          "duration": 0.22222200000000214,
          "durationTicks": 192,
          "midi": 51,
          "name": "D#3",
          "ticks": 78912,
          "time": 91.333242,
          "velocity": 0.49606299212598426
        },
        {
          "duration": 0.4444440000000043,
          "durationTicks": 384,
          "midi": 64,
          "name": "E4",
          "ticks": 79104,
          "time": 91.555464,
          "velocity": 0.49606299212598426
        },
        {
          "duration": 0.22222200000000214,
          "durationTicks": 192,
          "midi": 49,
          "name": "C#3",
          "ticks": 79104,
          "time": 91.555464,
          "velocity": 0.49606299212598426
        },
        {
          "duration": 0.4444440000000043,
          "durationTicks": 384,
          "midi": 52,
          "name": "E3",
          "ticks": 79104,
          "time": 91.555464,
          "velocity": 0.49606299212598426
        },
        {
          "duration": 0.11111099999999396,
          "durationTicks": 96,
          "midi": 66,
          "name": "F#4",
          "ticks": 79488,
          "time": 91.999908,
          "velocity": 0.49606299212598426
        },
        {
          "duration": 0.11111099999999396,
          "durationTicks": 96,
          "midi": 54,
          "name": "F#3",
          "ticks": 79488,
          "time": 91.999908,
          "velocity": 0.49606299212598426
        },
        {
          "duration": 0.11111100000000818,
          "durationTicks": 96,
          "midi": 52,
          "name": "E3",
          "ticks": 79584,
          "time": 92.111019,
          "velocity": 0.49606299212598426
        },
        {
          "duration": 0.11111100000000818,
          "durationTicks": 96,
          "midi": 64,
          "name": "E4",
          "ticks": 79584,
          "time": 92.111019,
          "velocity": 0.49606299212598426
        },
        {
          "duration": 0.11111099999999396,
          "durationTicks": 96,
          "midi": 51,
          "name": "D#3",
          "ticks": 79680,
          "time": 92.22213,
          "velocity": 0.49606299212598426
        },
        {
          "duration": 0.11111099999999396,
          "durationTicks": 96,
          "midi": 63,
          "name": "D#4",
          "ticks": 79680,
          "time": 92.22213,
          "velocity": 0.49606299212598426
        },
        {
          "duration": 0.11111099999999396,
          "durationTicks": 96,
          "midi": 49,
          "name": "C#3",
          "ticks": 79776,
          "time": 92.333241,
          "velocity": 0.49606299212598426
        },
        {
          "duration": 0.11111099999999396,
          "durationTicks": 96,
          "midi": 61,
          "name": "C#4",
          "ticks": 79776,
          "time": 92.333241,
          "velocity": 0.49606299212598426
        },
        {
          "duration": 0.22222200000000214,
          "durationTicks": 192,
          "midi": 64,
          "name": "E4",
          "ticks": 79872,
          "time": 92.444352,
          "velocity": 0.49606299212598426
        },
        {
          "duration": 0.22222200000000214,
          "durationTicks": 192,
          "midi": 52,
          "name": "E3",
          "ticks": 79872,
          "time": 92.444352,
          "velocity": 0.49606299212598426
        },
        {
          "duration": 0.22222200000000214,
          "durationTicks": 192,
          "midi": 61,
          "name": "C#4",
          "ticks": 80064,
          "time": 92.666574,
          "velocity": 0.49606299212598426
        },
        {
          "duration": 0.11111100000000818,
          "durationTicks": 96,
          "midi": 73,
          "name": "C#5",
          "ticks": 80256,
          "time": 92.888796,
          "velocity": 0.49606299212598426
        },
        {
          "duration": 0.11111099999999396,
          "durationTicks": 96,
          "midi": 71,
          "name": "B4",
          "ticks": 80352,
          "time": 92.99990700000001,
          "velocity": 0.49606299212598426
        },
        {
          "duration": 0.11111099999999396,
          "durationTicks": 96,
          "midi": 54,
          "name": "F#3",
          "ticks": 80448,
          "time": 93.111018,
          "velocity": 0.49606299212598426
        },
        {
          "duration": 0.11111099999999396,
          "durationTicks": 96,
          "midi": 66,
          "name": "F#4",
          "ticks": 80448,
          "time": 93.111018,
          "velocity": 0.49606299212598426
        },
        {
          "duration": 0.11111099999999396,
          "durationTicks": 96,
          "midi": 70,
          "name": "A#4",
          "ticks": 80448,
          "time": 93.111018,
          "velocity": 0.49606299212598426
        },
        {
          "duration": 0.11111100000000818,
          "durationTicks": 96,
          "midi": 68,
          "name": "G#4",
          "ticks": 80544,
          "time": 93.222129,
          "velocity": 0.49606299212598426
        },
        {
          "duration": 0.22222200000000214,
          "durationTicks": 192,
          "midi": 64,
          "name": "E4",
          "ticks": 80640,
          "time": 93.33324,
          "velocity": 0.49606299212598426
        },
        {
          "duration": 0.22222200000000214,
          "durationTicks": 192,
          "midi": 52,
          "name": "E3",
          "ticks": 80640,
          "time": 93.33324,
          "velocity": 0.49606299212598426
        },
        {
          "duration": 0.22222200000000214,
          "durationTicks": 192,
          "midi": 61,
          "name": "C#4",
          "ticks": 80832,
          "time": 93.555462,
          "velocity": 0.49606299212598426
        },
        {
          "duration": 0.11111099999999396,
          "durationTicks": 96,
          "midi": 51,
          "name": "D#3",
          "ticks": 81024,
          "time": 93.77768400000001,
          "velocity": 0.49606299212598426
        },
        {
          "duration": 0.11111099999999396,
          "durationTicks": 96,
          "midi": 63,
          "name": "D#4",
          "ticks": 81024,
          "time": 93.77768400000001,
          "velocity": 0.49606299212598426
        },
        {
          "duration": 0.11111099999999396,
          "durationTicks": 96,
          "midi": 73,
          "name": "C#5",
          "ticks": 81024,
          "time": 93.77768400000001,
          "velocity": 0.49606299212598426
        },
        {
          "duration": 0.11111099999999396,
          "durationTicks": 96,
          "midi": 71,
          "name": "B4",
          "ticks": 81120,
          "time": 93.888795,
          "velocity": 0.49606299212598426
        },
        {
          "duration": 0.11111100000000818,
          "durationTicks": 96,
          "midi": 52,
          "name": "E3",
          "ticks": 81216,
          "time": 93.999906,
          "velocity": 0.49606299212598426
        },
        {
          "duration": 0.11111100000000818,
          "durationTicks": 96,
          "midi": 70,
          "name": "A#4",
          "ticks": 81216,
          "time": 93.999906,
          "velocity": 0.49606299212598426
        },
        {
          "duration": 0.11111100000000818,
          "durationTicks": 96,
          "midi": 64,
          "name": "E4",
          "ticks": 81216,
          "time": 93.999906,
          "velocity": 0.49606299212598426
        },
        {
          "duration": 0.11111099999999396,
          "durationTicks": 96,
          "midi": 68,
          "name": "G#4",
          "ticks": 81312,
          "time": 94.111017,
          "velocity": 0.49606299212598426
        },
        {
          "duration": 0.22222200000000214,
          "durationTicks": 192,
          "midi": 68,
          "name": "G#4",
          "ticks": 81408,
          "time": 94.222128,
          "velocity": 0.49606299212598426
        },
        {
          "duration": 0.22222200000000214,
          "durationTicks": 192,
          "midi": 56,
          "name": "G#3",
          "ticks": 81408,
          "time": 94.222128,
          "velocity": 0.49606299212598426
        },
        {
          "duration": 0.22222200000000214,
          "durationTicks": 192,
          "midi": 59,
          "name": "B3",
          "ticks": 81600,
          "time": 94.44435,
          "velocity": 0.49606299212598426
        },
        {
          "duration": 0.11111099999999396,
          "durationTicks": 96,
          "midi": 66,
          "name": "F#4",
          "ticks": 81792,
          "time": 94.666572,
          "velocity": 0.49606299212598426
        },
        {
          "duration": 0.11111099999999396,
          "durationTicks": 96,
          "midi": 71,
          "name": "B4",
          "ticks": 81792,
          "time": 94.666572,
          "velocity": 0.49606299212598426
        },
        {
          "duration": 0.11111099999999396,
          "durationTicks": 96,
          "midi": 54,
          "name": "F#3",
          "ticks": 81792,
          "time": 94.666572,
          "velocity": 0.49606299212598426
        },
        {
          "duration": 0.11111100000000818,
          "durationTicks": 96,
          "midi": 69,
          "name": "A4",
          "ticks": 81888,
          "time": 94.777683,
          "velocity": 0.49606299212598426
        },
        {
          "duration": 0.11111099999999396,
          "durationTicks": 96,
          "midi": 68,
          "name": "G#4",
          "ticks": 81984,
          "time": 94.888794,
          "velocity": 0.49606299212598426
        },
        {
          "duration": 0.11111100000000818,
          "durationTicks": 96,
          "midi": 66,
          "name": "F#4",
          "ticks": 82080,
          "time": 94.999905,
          "velocity": 0.49606299212598426
        },
        {
          "duration": 0.22222199999998793,
          "durationTicks": 192,
          "midi": 52,
          "name": "E3",
          "ticks": 82176,
          "time": 95.111016,
          "velocity": 0.49606299212598426
        },
        {
          "duration": 0.22222199999998793,
          "durationTicks": 192,
          "midi": 64,
          "name": "E4",
          "ticks": 82176,
          "time": 95.111016,
          "velocity": 0.49606299212598426
        },
        {
          "duration": 0.22222200000000214,
          "durationTicks": 192,
          "midi": 59,
          "name": "B3",
          "ticks": 82368,
          "time": 95.333238,
          "velocity": 0.49606299212598426
        },
        {
          "duration": 0.11111100000000818,
          "durationTicks": 96,
          "midi": 63,
          "name": "D#4",
          "ticks": 82560,
          "time": 95.55546,
          "velocity": 0.49606299212598426
        },
        {
          "duration": 0.11111100000000818,
          "durationTicks": 96,
          "midi": 51,
          "name": "D#3",
          "ticks": 82560,
          "time": 95.55546,
          "velocity": 0.49606299212598426
        },
        {
          "duration": 0.11111100000000818,
          "durationTicks": 96,
          "midi": 71,
          "name": "B4",
          "ticks": 82560,
          "time": 95.55546,
          "velocity": 0.49606299212598426
        },
        {
          "duration": 0.11111099999999396,
          "durationTicks": 96,
          "midi": 69,
          "name": "A4",
          "ticks": 82656,
          "time": 95.666571,
          "velocity": 0.49606299212598426
        },
        {
          "duration": 0.11111100000000818,
          "durationTicks": 96,
          "midi": 68,
          "name": "G#4",
          "ticks": 82752,
          "time": 95.777682,
          "velocity": 0.49606299212598426
        },
        {
          "duration": 0.11111099999999396,
          "durationTicks": 96,
          "midi": 66,
          "name": "F#4",
          "ticks": 82848,
          "time": 95.888793,
          "velocity": 0.49606299212598426
        },
        {
          "duration": 0.11111099999999396,
          "durationTicks": 96,
          "midi": 61,
          "name": "C#4",
          "ticks": 82944,
          "time": 95.999904,
          "velocity": 0.49606299212598426
        },
        {
          "duration": 0.11111099999999396,
          "durationTicks": 96,
          "midi": 49,
          "name": "C#3",
          "ticks": 82944,
          "time": 95.999904,
          "velocity": 0.49606299212598426
        },
        {
          "duration": 0.11111100000000818,
          "durationTicks": 96,
          "midi": 49,
          "name": "C#3",
          "ticks": 83040,
          "time": 96.111015,
          "velocity": 0.49606299212598426
        },
        {
          "duration": 0.11111100000000818,
          "durationTicks": 96,
          "midi": 61,
          "name": "C#4",
          "ticks": 83040,
          "time": 96.111015,
          "velocity": 0.49606299212598426
        },
        {
          "duration": 0.11111099999999396,
          "durationTicks": 96,
          "midi": 57,
          "name": "A3",
          "ticks": 83136,
          "time": 96.222126,
          "velocity": 0.49606299212598426
        },
        {
          "duration": 0.11111099999999396,
          "durationTicks": 96,
          "midi": 45,
          "name": "A2",
          "ticks": 83136,
          "time": 96.222126,
          "velocity": 0.49606299212598426
        },
        {
          "duration": 0.11111100000000818,
          "durationTicks": 96,
          "midi": 57,
          "name": "A3",
          "ticks": 83232,
          "time": 96.333237,
          "velocity": 0.49606299212598426
        },
        {
          "duration": 0.11111100000000818,
          "durationTicks": 96,
          "midi": 45,
          "name": "A2",
          "ticks": 83232,
          "time": 96.333237,
          "velocity": 0.49606299212598426
        },
        {
          "duration": 0.11111099999999396,
          "durationTicks": 96,
          "midi": 49,
          "name": "C#3",
          "ticks": 83328,
          "time": 96.444348,
          "velocity": 0.49606299212598426
        },
        {
          "duration": 0.11111099999999396,
          "durationTicks": 96,
          "midi": 61,
          "name": "C#4",
          "ticks": 83328,
          "time": 96.444348,
          "velocity": 0.49606299212598426
        },
        {
          "duration": 0.11111100000000818,
          "durationTicks": 96,
          "midi": 61,
          "name": "C#4",
          "ticks": 83424,
          "time": 96.555459,
          "velocity": 0.49606299212598426
        },
        {
          "duration": 0.11111100000000818,
          "durationTicks": 96,
          "midi": 49,
          "name": "C#3",
          "ticks": 83424,
          "time": 96.555459,
          "velocity": 0.49606299212598426
        },
        {
          "duration": 0.11111099999999396,
          "durationTicks": 96,
          "midi": 51,
          "name": "D#3",
          "ticks": 83520,
          "time": 96.66657000000001,
          "velocity": 0.49606299212598426
        },
        {
          "duration": 0.11111099999999396,
          "durationTicks": 96,
          "midi": 63,
          "name": "D#4",
          "ticks": 83520,
          "time": 96.66657000000001,
          "velocity": 0.49606299212598426
        },
        {
          "duration": 0.11111099999999396,
          "durationTicks": 96,
          "midi": 51,
          "name": "D#3",
          "ticks": 83616,
          "time": 96.777681,
          "velocity": 0.49606299212598426
        },
        {
          "duration": 0.11111099999999396,
          "durationTicks": 96,
          "midi": 63,
          "name": "D#4",
          "ticks": 83616,
          "time": 96.777681,
          "velocity": 0.49606299212598426
        },
        {
          "duration": 0.11111100000000818,
          "durationTicks": 96,
          "midi": 61,
          "name": "C#4",
          "ticks": 83712,
          "time": 96.888792,
          "velocity": 0.49606299212598426
        },
        {
          "duration": 0.11111100000000818,
          "durationTicks": 96,
          "midi": 49,
          "name": "C#3",
          "ticks": 83712,
          "time": 96.888792,
          "velocity": 0.49606299212598426
        },
        {
          "duration": 0.11111099999999396,
          "durationTicks": 96,
          "midi": 57,
          "name": "A3",
          "ticks": 83808,
          "time": 96.999903,
          "velocity": 0.49606299212598426
        },
        {
          "duration": 0.11111099999999396,
          "durationTicks": 96,
          "midi": 45,
          "name": "A2",
          "ticks": 83808,
          "time": 96.999903,
          "velocity": 0.49606299212598426
        },
        {
          "duration": 0.11111100000000818,
          "durationTicks": 96,
          "midi": 49,
          "name": "C#3",
          "ticks": 83904,
          "time": 97.111014,
          "velocity": 0.49606299212598426
        },
        {
          "duration": 0.11111100000000818,
          "durationTicks": 96,
          "midi": 61,
          "name": "C#4",
          "ticks": 83904,
          "time": 97.111014,
          "velocity": 0.49606299212598426
        },
        {
          "duration": 0.11111099999999396,
          "durationTicks": 96,
          "midi": 63,
          "name": "D#4",
          "ticks": 84000,
          "time": 97.222125,
          "velocity": 0.49606299212598426
        },
        {
          "duration": 0.11111099999999396,
          "durationTicks": 96,
          "midi": 51,
          "name": "D#3",
          "ticks": 84000,
          "time": 97.222125,
          "velocity": 0.49606299212598426
        },
        {
          "duration": 0.11111100000000818,
          "durationTicks": 96,
          "midi": 64,
          "name": "E4",
          "ticks": 84096,
          "time": 97.333236,
          "velocity": 0.49606299212598426
        },
        {
          "duration": 0.11111100000000818,
          "durationTicks": 96,
          "midi": 52,
          "name": "E3",
          "ticks": 84096,
          "time": 97.333236,
          "velocity": 0.49606299212598426
        },
        {
          "duration": 0.11111099999999396,
          "durationTicks": 96,
          "midi": 49,
          "name": "C#3",
          "ticks": 84192,
          "time": 97.44434700000001,
          "velocity": 0.49606299212598426
        },
        {
          "duration": 0.11111099999999396,
          "durationTicks": 96,
          "midi": 61,
          "name": "C#4",
          "ticks": 84192,
          "time": 97.44434700000001,
          "velocity": 0.49606299212598426
        },
        {
          "duration": 0.11111099999999396,
          "durationTicks": 96,
          "midi": 64,
          "name": "E4",
          "ticks": 84288,
          "time": 97.555458,
          "velocity": 0.49606299212598426
        },
        {
          "duration": 0.11111099999999396,
          "durationTicks": 96,
          "midi": 52,
          "name": "E3",
          "ticks": 84288,
          "time": 97.555458,
          "velocity": 0.49606299212598426
        },
        {
          "duration": 0.11111100000000818,
          "durationTicks": 96,
          "midi": 66,
          "name": "F#4",
          "ticks": 84384,
          "time": 97.666569,
          "velocity": 0.49606299212598426
        },
        {
          "duration": 0.11111100000000818,
          "durationTicks": 96,
          "midi": 54,
          "name": "F#3",
          "ticks": 84384,
          "time": 97.666569,
          "velocity": 0.49606299212598426
        },
        {
          "duration": 0.11111099999999396,
          "durationTicks": 96,
          "midi": 49,
          "name": "C#3",
          "ticks": 84480,
          "time": 97.77768,
          "velocity": 0.49606299212598426
        },
        {
          "duration": 0.11111099999999396,
          "durationTicks": 96,
          "midi": 61,
          "name": "C#4",
          "ticks": 84480,
          "time": 97.77768,
          "velocity": 0.49606299212598426
        },
        {
          "duration": 0.11111100000000818,
          "durationTicks": 96,
          "midi": 47,
          "name": "B2",
          "ticks": 84576,
          "time": 97.888791,
          "velocity": 0.49606299212598426
        },
        {
          "duration": 0.11111100000000818,
          "durationTicks": 96,
          "midi": 59,
          "name": "B3",
          "ticks": 84576,
          "time": 97.888791,
          "velocity": 0.49606299212598426
        },
        {
          "duration": 0.11111099999999396,
          "durationTicks": 96,
          "midi": 49,
          "name": "C#3",
          "ticks": 84672,
          "time": 97.999902,
          "velocity": 0.49606299212598426
        },
        {
          "duration": 0.22222200000000214,
          "durationTicks": 192,
          "midi": 61,
          "name": "C#4",
          "ticks": 84672,
          "time": 97.999902,
          "velocity": 0.49606299212598426
        },
        {
          "duration": 0.11111099999999396,
          "durationTicks": 96,
          "midi": 51,
          "name": "D#3",
          "ticks": 84864,
          "time": 98.22212400000001,
          "velocity": 0.49606299212598426
        },
        {
          "duration": 0.11111099999999396,
          "durationTicks": 96,
          "midi": 63,
          "name": "D#4",
          "ticks": 84864,
          "time": 98.22212400000001,
          "velocity": 0.49606299212598426
        },
        {
          "duration": 0.11111099999999396,
          "durationTicks": 96,
          "midi": 49,
          "name": "C#3",
          "ticks": 84960,
          "time": 98.333235,
          "velocity": 0.49606299212598426
        },
        {
          "duration": 0.11111099999999396,
          "durationTicks": 96,
          "midi": 61,
          "name": "C#4",
          "ticks": 84960,
          "time": 98.333235,
          "velocity": 0.49606299212598426
        },
        {
          "duration": 0.22222200000000214,
          "durationTicks": 192,
          "midi": 63,
          "name": "D#4",
          "ticks": 85056,
          "time": 98.444346,
          "velocity": 0.49606299212598426
        },
        {
          "duration": 0.22222200000000214,
          "durationTicks": 192,
          "midi": 51,
          "name": "D#3",
          "ticks": 85056,
          "time": 98.444346,
          "velocity": 0.49606299212598426
        },
        {
          "duration": 0.22222200000000214,
          "durationTicks": 192,
          "midi": 49,
          "name": "C#3",
          "ticks": 85248,
          "time": 98.666568,
          "velocity": 0.49606299212598426
        },
        {
          "duration": 0.4444440000000043,
          "durationTicks": 384,
          "midi": 52,
          "name": "E3",
          "ticks": 85248,
          "time": 98.666568,
          "velocity": 0.49606299212598426
        },
        {
          "duration": 0.4444440000000043,
          "durationTicks": 384,
          "midi": 64,
          "name": "E4",
          "ticks": 85248,
          "time": 98.666568,
          "velocity": 0.49606299212598426
        },
        {
          "duration": 0.11111099999999396,
          "durationTicks": 96,
          "midi": 66,
          "name": "F#4",
          "ticks": 85632,
          "time": 99.111012,
          "velocity": 0.49606299212598426
        },
        {
          "duration": 0.11111099999999396,
          "durationTicks": 96,
          "midi": 54,
          "name": "F#3",
          "ticks": 85632,
          "time": 99.111012,
          "velocity": 0.49606299212598426
        },
        {
          "duration": 0.11111100000000818,
          "durationTicks": 96,
          "midi": 52,
          "name": "E3",
          "ticks": 85728,
          "time": 99.222123,
          "velocity": 0.49606299212598426
        },
        {
          "duration": 0.11111100000000818,
          "durationTicks": 96,
          "midi": 64,
          "name": "E4",
          "ticks": 85728,
          "time": 99.222123,
          "velocity": 0.49606299212598426
        },
        {
          "duration": 0.11111099999999396,
          "durationTicks": 96,
          "midi": 51,
          "name": "D#3",
          "ticks": 85824,
          "time": 99.333234,
          "velocity": 0.49606299212598426
        },
        {
          "duration": 0.11111099999999396,
          "durationTicks": 96,
          "midi": 63,
          "name": "D#4",
          "ticks": 85824,
          "time": 99.333234,
          "velocity": 0.49606299212598426
        },
        {
          "duration": 0.11111100000000818,
          "durationTicks": 96,
          "midi": 61,
          "name": "C#4",
          "ticks": 85920,
          "time": 99.444345,
          "velocity": 0.49606299212598426
        },
        {
          "duration": 0.11111100000000818,
          "durationTicks": 96,
          "midi": 49,
          "name": "C#3",
          "ticks": 85920,
          "time": 99.444345,
          "velocity": 0.49606299212598426
        },
        {
          "duration": 0.22222199999998793,
          "durationTicks": 192,
          "midi": 64,
          "name": "E4",
          "ticks": 86016,
          "time": 99.555456,
          "velocity": 0.49606299212598426
        },
        {
          "duration": 0.22222199999998793,
          "durationTicks": 192,
          "midi": 52,
          "name": "E3",
          "ticks": 86016,
          "time": 99.555456,
          "velocity": 0.49606299212598426
        },
        {
          "duration": 0.22222200000000214,
          "durationTicks": 192,
          "midi": 61,
          "name": "C#4",
          "ticks": 86208,
          "time": 99.777678,
          "velocity": 0.49606299212598426
        },
        {
          "duration": 0.11111100000000818,
          "durationTicks": 96,
          "midi": 73,
          "name": "C#5",
          "ticks": 86400,
          "time": 99.9999,
          "velocity": 0.49606299212598426
        },
        {
          "duration": 0.11111099999999396,
          "durationTicks": 96,
          "midi": 71,
          "name": "B4",
          "ticks": 86496,
          "time": 100.111011,
          "velocity": 0.49606299212598426
        },
        {
          "duration": 0.11111100000000818,
          "durationTicks": 96,
          "midi": 54,
          "name": "F#3",
          "ticks": 86592,
          "time": 100.222122,
          "velocity": 0.49606299212598426
        },
        {
          "duration": 0.11111100000000818,
          "durationTicks": 96,
          "midi": 68,
          "name": "G#4",
          "ticks": 86592,
          "time": 100.222122,
          "velocity": 0.49606299212598426
        },
        {
          "duration": 0.11111100000000818,
          "durationTicks": 96,
          "midi": 66,
          "name": "F#4",
          "ticks": 86592,
          "time": 100.222122,
          "velocity": 0.49606299212598426
        },
        {
          "duration": 0.11111099999999396,
          "durationTicks": 96,
          "midi": 64,
          "name": "E4",
          "ticks": 86688,
          "time": 100.333233,
          "velocity": 0.49606299212598426
        },
        {
          "duration": 0.22222200000000214,
          "durationTicks": 192,
          "midi": 64,
          "name": "E4",
          "ticks": 86784,
          "time": 100.444344,
          "velocity": 0.49606299212598426
        },
        {
          "duration": 0.22222200000000214,
          "durationTicks": 192,
          "midi": 52,
          "name": "E3",
          "ticks": 86784,
          "time": 100.444344,
          "velocity": 0.49606299212598426
        },
        {
          "duration": 0.22222200000000214,
          "durationTicks": 192,
          "midi": 61,
          "name": "C#4",
          "ticks": 86976,
          "time": 100.666566,
          "velocity": 0.49606299212598426
        },
        {
          "duration": 0.11111099999999396,
          "durationTicks": 96,
          "midi": 63,
          "name": "D#4",
          "ticks": 87168,
          "time": 100.888788,
          "velocity": 0.49606299212598426
        },
        {
          "duration": 0.11111099999999396,
          "durationTicks": 96,
          "midi": 51,
          "name": "D#3",
          "ticks": 87168,
          "time": 100.888788,
          "velocity": 0.49606299212598426
        },
        {
          "duration": 0.11111099999999396,
          "durationTicks": 96,
          "midi": 73,
          "name": "C#5",
          "ticks": 87168,
          "time": 100.888788,
          "velocity": 0.49606299212598426
        },
        {
          "duration": 0.11111100000000818,
          "durationTicks": 96,
          "midi": 71,
          "name": "B4",
          "ticks": 87264,
          "time": 100.999899,
          "velocity": 0.49606299212598426
        },
        {
          "duration": 0.11111099999999396,
          "durationTicks": 96,
          "midi": 52,
          "name": "E3",
          "ticks": 87360,
          "time": 101.11101000000001,
          "velocity": 0.49606299212598426
        },
        {
          "duration": 0.11111099999999396,
          "durationTicks": 96,
          "midi": 64,
          "name": "E4",
          "ticks": 87360,
          "time": 101.11101000000001,
          "velocity": 0.49606299212598426
        },
        {
          "duration": 0.11111099999999396,
          "durationTicks": 96,
          "midi": 68,
          "name": "G#4",
          "ticks": 87360,
          "time": 101.11101000000001,
          "velocity": 0.49606299212598426
        },
        {
          "duration": 0.11111099999999396,
          "durationTicks": 96,
          "midi": 64,
          "name": "E4",
          "ticks": 87456,
          "time": 101.222121,
          "velocity": 0.49606299212598426
        },
        {
          "duration": 0.22222200000000214,
          "durationTicks": 192,
          "midi": 71,
          "name": "B4",
          "ticks": 87552,
          "time": 101.333232,
          "velocity": 0.49606299212598426
        },
        {
          "duration": 0.22222200000000214,
          "durationTicks": 192,
          "midi": 59,
          "name": "B3",
          "ticks": 87552,
          "time": 101.333232,
          "velocity": 0.49606299212598426
        },
        {
          "duration": 0.22222200000000214,
          "durationTicks": 192,
          "midi": 59,
          "name": "B3",
          "ticks": 87744,
          "time": 101.555454,
          "velocity": 0.49606299212598426
        },
        {
          "duration": 0.11111100000000818,
          "durationTicks": 96,
          "midi": 66,
          "name": "F#4",
          "ticks": 87936,
          "time": 101.777676,
          "velocity": 0.49606299212598426
        },
        {
          "duration": 0.11111100000000818,
          "durationTicks": 96,
          "midi": 71,
          "name": "B4",
          "ticks": 87936,
          "time": 101.777676,
          "velocity": 0.49606299212598426
        },
        {
          "duration": 0.11111100000000818,
          "durationTicks": 96,
          "midi": 54,
          "name": "F#3",
          "ticks": 87936,
          "time": 101.777676,
          "velocity": 0.49606299212598426
        },
        {
          "duration": 0.11111099999999396,
          "durationTicks": 96,
          "midi": 69,
          "name": "A4",
          "ticks": 88032,
          "time": 101.88878700000001,
          "velocity": 0.49606299212598426
        },
        {
          "duration": 0.11111099999999396,
          "durationTicks": 96,
          "midi": 68,
          "name": "G#4",
          "ticks": 88128,
          "time": 101.999898,
          "velocity": 0.49606299212598426
        },
        {
          "duration": 0.11111100000000818,
          "durationTicks": 96,
          "midi": 66,
          "name": "F#4",
          "ticks": 88224,
          "time": 102.111009,
          "velocity": 0.49606299212598426
        },
        {
          "duration": 0.22222200000000214,
          "durationTicks": 192,
          "midi": 52,
          "name": "E3",
          "ticks": 88320,
          "time": 102.22212,
          "velocity": 0.49606299212598426
        },
        {
          "duration": 0.22222200000000214,
          "durationTicks": 192,
          "midi": 64,
          "name": "E4",
          "ticks": 88320,
          "time": 102.22212,
          "velocity": 0.49606299212598426
        },
        {
          "duration": 0.22222200000000214,
          "durationTicks": 192,
          "midi": 59,
          "name": "B3",
          "ticks": 88512,
          "time": 102.444342,
          "velocity": 0.49606299212598426
        },
        {
          "duration": 0.11111099999999396,
          "durationTicks": 96,
          "midi": 71,
          "name": "B4",
          "ticks": 88704,
          "time": 102.66656400000001,
          "velocity": 0.49606299212598426
        },
        {
          "duration": 0.11111099999999396,
          "durationTicks": 96,
          "midi": 63,
          "name": "D#4",
          "ticks": 88704,
          "time": 102.66656400000001,
          "velocity": 0.49606299212598426
        },
        {
          "duration": 0.11111099999999396,
          "durationTicks": 96,
          "midi": 51,
          "name": "D#3",
          "ticks": 88704,
          "time": 102.66656400000001,
          "velocity": 0.49606299212598426
        },
        {
          "duration": 0.11111099999999396,
          "durationTicks": 96,
          "midi": 69,
          "name": "A4",
          "ticks": 88800,
          "time": 102.777675,
          "velocity": 0.49606299212598426
        },
        {
          "duration": 0.11111100000000818,
          "durationTicks": 96,
          "midi": 68,
          "name": "G#4",
          "ticks": 88896,
          "time": 102.888786,
          "velocity": 0.49606299212598426
        },
        {
          "duration": 0.11111099999999396,
          "durationTicks": 96,
          "midi": 66,
          "name": "F#4",
          "ticks": 88992,
          "time": 102.999897,
          "velocity": 0.49606299212598426
        },
        {
          "duration": 0.11111100000000818,
          "durationTicks": 96,
          "midi": 73,
          "name": "C#5",
          "ticks": 89088,
          "time": 103.111008,
          "velocity": 0.49606299212598426
        },
        {
          "duration": 0.11111100000000818,
          "durationTicks": 96,
          "midi": 49,
          "name": "C#3",
          "ticks": 89088,
          "time": 103.111008,
          "velocity": 0.49606299212598426
        },
        {
          "duration": 0.11111100000000818,
          "durationTicks": 96,
          "midi": 61,
          "name": "C#4",
          "ticks": 89088,
          "time": 103.111008,
          "velocity": 0.49606299212598426
        },
        {
          "duration": 0.11111099999999396,
          "durationTicks": 96,
          "midi": 61,
          "name": "C#4",
          "ticks": 89184,
          "time": 103.222119,
          "velocity": 0.49606299212598426
        },
        {
          "duration": 0.11111099999999396,
          "durationTicks": 96,
          "midi": 73,
          "name": "C#5",
          "ticks": 89184,
          "time": 103.222119,
          "velocity": 0.49606299212598426
        },
        {
          "duration": 0.11111099999999396,
          "durationTicks": 96,
          "midi": 49,
          "name": "C#3",
          "ticks": 89184,
          "time": 103.222119,
          "velocity": 0.49606299212598426
        },
        {
          "duration": 0.11111099999999396,
          "durationTicks": 96,
          "midi": 45,
          "name": "A2",
          "ticks": 89280,
          "time": 103.33323,
          "velocity": 0.49606299212598426
        },
        {
          "duration": 0.11111099999999396,
          "durationTicks": 96,
          "midi": 69,
          "name": "A4",
          "ticks": 89280,
          "time": 103.33323,
          "velocity": 0.49606299212598426
        },
        {
          "duration": 0.11111099999999396,
          "durationTicks": 96,
          "midi": 57,
          "name": "A3",
          "ticks": 89280,
          "time": 103.33323,
          "velocity": 0.49606299212598426
        },
        {
          "duration": 0.11111100000000818,
          "durationTicks": 96,
          "midi": 69,
          "name": "A4",
          "ticks": 89376,
          "time": 103.444341,
          "velocity": 0.49606299212598426
        },
        {
          "duration": 0.11111100000000818,
          "durationTicks": 96,
          "midi": 57,
          "name": "A3",
          "ticks": 89376,
          "time": 103.444341,
          "velocity": 0.49606299212598426
        },
        {
          "duration": 0.11111100000000818,
          "durationTicks": 96,
          "midi": 45,
          "name": "A2",
          "ticks": 89376,
          "time": 103.444341,
          "velocity": 0.49606299212598426
        },
        {
          "duration": 0.11111099999999396,
          "durationTicks": 96,
          "midi": 49,
          "name": "C#3",
          "ticks": 89472,
          "time": 103.555452,
          "velocity": 0.49606299212598426
        },
        {
          "duration": 0.11111099999999396,
          "durationTicks": 96,
          "midi": 61,
          "name": "C#4",
          "ticks": 89472,
          "time": 103.555452,
          "velocity": 0.49606299212598426
        },
        {
          "duration": 0.11111099999999396,
          "durationTicks": 96,
          "midi": 73,
          "name": "C#5",
          "ticks": 89472,
          "time": 103.555452,
          "velocity": 0.49606299212598426
        },
        {
          "duration": 0.11111100000000818,
          "durationTicks": 96,
          "midi": 61,
          "name": "C#4",
          "ticks": 89568,
          "time": 103.666563,
          "velocity": 0.49606299212598426
        },
        {
          "duration": 0.11111100000000818,
          "durationTicks": 96,
          "midi": 49,
          "name": "C#3",
          "ticks": 89568,
          "time": 103.666563,
          "velocity": 0.49606299212598426
        },
        {
          "duration": 0.11111100000000818,
          "durationTicks": 96,
          "midi": 73,
          "name": "C#5",
          "ticks": 89568,
          "time": 103.666563,
          "velocity": 0.49606299212598426
        },
        {
          "duration": 0.11111099999999396,
          "durationTicks": 96,
          "midi": 69,
          "name": "A4",
          "ticks": 89664,
          "time": 103.777674,
          "velocity": 0.49606299212598426
        },
        {
          "duration": 0.11111099999999396,
          "durationTicks": 96,
          "midi": 51,
          "name": "D#3",
          "ticks": 89664,
          "time": 103.777674,
          "velocity": 0.49606299212598426
        },
        {
          "duration": 0.11111099999999396,
          "durationTicks": 96,
          "midi": 63,
          "name": "D#4",
          "ticks": 89664,
          "time": 103.777674,
          "velocity": 0.49606299212598426
        },
        {
          "duration": 0.11111100000000818,
          "durationTicks": 96,
          "midi": 51,
          "name": "D#3",
          "ticks": 89760,
          "time": 103.888785,
          "velocity": 0.49606299212598426
        },
        {
          "duration": 0.11111100000000818,
          "durationTicks": 96,
          "midi": 63,
          "name": "D#4",
          "ticks": 89760,
          "time": 103.888785,
          "velocity": 0.49606299212598426
        },
        {
          "duration": 0.11111100000000818,
          "durationTicks": 96,
          "midi": 69,
          "name": "A4",
          "ticks": 89760,
          "time": 103.888785,
          "velocity": 0.49606299212598426
        },
        {
          "duration": 0.11111099999999396,
          "durationTicks": 96,
          "midi": 73,
          "name": "C#5",
          "ticks": 89856,
          "time": 103.999896,
          "velocity": 0.49606299212598426
        },
        {
          "duration": 0.11111099999999396,
          "durationTicks": 96,
          "midi": 61,
          "name": "C#4",
          "ticks": 89856,
          "time": 103.999896,
          "velocity": 0.49606299212598426
        },
        {
          "duration": 0.11111099999999396,
          "durationTicks": 96,
          "midi": 49,
          "name": "C#3",
          "ticks": 89856,
          "time": 103.999896,
          "velocity": 0.49606299212598426
        },
        {
          "duration": 0.11111099999999396,
          "durationTicks": 96,
          "midi": 69,
          "name": "A4",
          "ticks": 89952,
          "time": 104.111007,
          "velocity": 0.49606299212598426
        },
        {
          "duration": 0.11111099999999396,
          "durationTicks": 96,
          "midi": 45,
          "name": "A2",
          "ticks": 89952,
          "time": 104.111007,
          "velocity": 0.49606299212598426
        },
        {
          "duration": 0.11111099999999396,
          "durationTicks": 96,
          "midi": 57,
          "name": "A3",
          "ticks": 89952,
          "time": 104.111007,
          "velocity": 0.49606299212598426
        },
        {
          "duration": 0.11111100000000818,
          "durationTicks": 96,
          "midi": 73,
          "name": "C#5",
          "ticks": 90048,
          "time": 104.222118,
          "velocity": 0.49606299212598426
        },
        {
          "duration": 0.11111100000000818,
          "durationTicks": 96,
          "midi": 61,
          "name": "C#4",
          "ticks": 90048,
          "time": 104.222118,
          "velocity": 0.49606299212598426
        },
        {
          "duration": 0.11111100000000818,
          "durationTicks": 96,
          "midi": 49,
          "name": "C#3",
          "ticks": 90048,
          "time": 104.222118,
          "velocity": 0.49606299212598426
        },
        {
          "duration": 0.11111099999999396,
          "durationTicks": 96,
          "midi": 75,
          "name": "D#5",
          "ticks": 90144,
          "time": 104.333229,
          "velocity": 0.49606299212598426
        },
        {
          "duration": 0.11111099999999396,
          "durationTicks": 96,
          "midi": 51,
          "name": "D#3",
          "ticks": 90144,
          "time": 104.333229,
          "velocity": 0.49606299212598426
        },
        {
          "duration": 0.11111099999999396,
          "durationTicks": 96,
          "midi": 63,
          "name": "D#4",
          "ticks": 90144,
          "time": 104.333229,
          "velocity": 0.49606299212598426
        },
        {
          "duration": 0.11111100000000818,
          "durationTicks": 96,
          "midi": 64,
          "name": "E4",
          "ticks": 90240,
          "time": 104.44434,
          "velocity": 0.49606299212598426
        },
        {
          "duration": 0.11111100000000818,
          "durationTicks": 96,
          "midi": 76,
          "name": "E5",
          "ticks": 90240,
          "time": 104.44434,
          "velocity": 0.49606299212598426
        },
        {
          "duration": 0.11111100000000818,
          "durationTicks": 96,
          "midi": 52,
          "name": "E3",
          "ticks": 90240,
          "time": 104.44434,
          "velocity": 0.49606299212598426
        },
        {
          "duration": 0.11111099999999396,
          "durationTicks": 96,
          "midi": 61,
          "name": "C#4",
          "ticks": 90336,
          "time": 104.555451,
          "velocity": 0.49606299212598426
        },
        {
          "duration": 0.11111099999999396,
          "durationTicks": 96,
          "midi": 73,
          "name": "C#5",
          "ticks": 90336,
          "time": 104.555451,
          "velocity": 0.49606299212598426
        },
        {
          "duration": 0.11111099999999396,
          "durationTicks": 96,
          "midi": 49,
          "name": "C#3",
          "ticks": 90336,
          "time": 104.555451,
          "velocity": 0.49606299212598426
        },
        {
          "duration": 0.11111100000000818,
          "durationTicks": 96,
          "midi": 64,
          "name": "E4",
          "ticks": 90432,
          "time": 104.666562,
          "velocity": 0.49606299212598426
        },
        {
          "duration": 0.11111100000000818,
          "durationTicks": 96,
          "midi": 52,
          "name": "E3",
          "ticks": 90432,
          "time": 104.666562,
          "velocity": 0.49606299212598426
        },
        {
          "duration": 0.11111100000000818,
          "durationTicks": 96,
          "midi": 76,
          "name": "E5",
          "ticks": 90432,
          "time": 104.666562,
          "velocity": 0.49606299212598426
        },
        {
          "duration": 0.11111099999999396,
          "durationTicks": 96,
          "midi": 54,
          "name": "F#3",
          "ticks": 90528,
          "time": 104.77767300000001,
          "velocity": 0.49606299212598426
        },
        {
          "duration": 0.11111099999999396,
          "durationTicks": 96,
          "midi": 66,
          "name": "F#4",
          "ticks": 90528,
          "time": 104.77767300000001,
          "velocity": 0.49606299212598426
        },
        {
          "duration": 0.11111099999999396,
          "durationTicks": 96,
          "midi": 78,
          "name": "F#5",
          "ticks": 90528,
          "time": 104.77767300000001,
          "velocity": 0.49606299212598426
        },
        {
          "duration": 0.11111099999999396,
          "durationTicks": 96,
          "midi": 61,
          "name": "C#4",
          "ticks": 90624,
          "time": 104.888784,
          "velocity": 0.49606299212598426
        },
        {
          "duration": 0.11111099999999396,
          "durationTicks": 96,
          "midi": 49,
          "name": "C#3",
          "ticks": 90624,
          "time": 104.888784,
          "velocity": 0.49606299212598426
        },
        {
          "duration": 0.11111100000000818,
          "durationTicks": 96,
          "midi": 59,
          "name": "B3",
          "ticks": 90720,
          "time": 104.999895,
          "velocity": 0.49606299212598426
        },
        {
          "duration": 0.11111100000000818,
          "durationTicks": 96,
          "midi": 47,
          "name": "B2",
          "ticks": 90720,
          "time": 104.999895,
          "velocity": 0.49606299212598426
        },
        {
          "duration": 0.11111099999999396,
          "durationTicks": 96,
          "midi": 49,
          "name": "C#3",
          "ticks": 90816,
          "time": 105.111006,
          "velocity": 0.49606299212598426
        },
        {
          "duration": 0.22222200000000214,
          "durationTicks": 192,
          "midi": 61,
          "name": "C#4",
          "ticks": 90816,
          "time": 105.111006,
          "velocity": 0.49606299212598426
        },
        {
          "duration": 0.11111099999999396,
          "durationTicks": 96,
          "midi": 63,
          "name": "D#4",
          "ticks": 91008,
          "time": 105.333228,
          "velocity": 0.49606299212598426
        },
        {
          "duration": 0.11111099999999396,
          "durationTicks": 96,
          "midi": 51,
          "name": "D#3",
          "ticks": 91008,
          "time": 105.333228,
          "velocity": 0.49606299212598426
        },
        {
          "duration": 0.11111100000000818,
          "durationTicks": 96,
          "midi": 61,
          "name": "C#4",
          "ticks": 91104,
          "time": 105.444339,
          "velocity": 0.49606299212598426
        },
        {
          "duration": 0.11111100000000818,
          "durationTicks": 96,
          "midi": 49,
          "name": "C#3",
          "ticks": 91104,
          "time": 105.444339,
          "velocity": 0.49606299212598426
        },
        {
          "duration": 0.22222199999998793,
          "durationTicks": 192,
          "midi": 51,
          "name": "D#3",
          "ticks": 91200,
          "time": 105.55545000000001,
          "velocity": 0.49606299212598426
        },
        {
          "duration": 0.22222199999998793,
          "durationTicks": 192,
          "midi": 63,
          "name": "D#4",
          "ticks": 91200,
          "time": 105.55545000000001,
          "velocity": 0.49606299212598426
        },
        {
          "duration": 0.4444440000000043,
          "durationTicks": 384,
          "midi": 52,
          "name": "E3",
          "ticks": 91392,
          "time": 105.777672,
          "velocity": 0.49606299212598426
        },
        {
          "duration": 0.22222200000000214,
          "durationTicks": 192,
          "midi": 49,
          "name": "C#3",
          "ticks": 91392,
          "time": 105.777672,
          "velocity": 0.49606299212598426
        },
        {
          "duration": 0.11111100000000818,
          "durationTicks": 96,
          "midi": 54,
          "name": "F#3",
          "ticks": 91776,
          "time": 106.222116,
          "velocity": 0.49606299212598426
        },
        {
          "duration": 0.11111100000000818,
          "durationTicks": 96,
          "midi": 66,
          "name": "F#4",
          "ticks": 91776,
          "time": 106.222116,
          "velocity": 0.49606299212598426
        },
        {
          "duration": 0.11111099999999396,
          "durationTicks": 96,
          "midi": 52,
          "name": "E3",
          "ticks": 91872,
          "time": 106.33322700000001,
          "velocity": 0.49606299212598426
        },
        {
          "duration": 0.11111099999999396,
          "durationTicks": 96,
          "midi": 64,
          "name": "E4",
          "ticks": 91872,
          "time": 106.33322700000001,
          "velocity": 0.49606299212598426
        },
        {
          "duration": 0.11111099999999396,
          "durationTicks": 96,
          "midi": 63,
          "name": "D#4",
          "ticks": 91968,
          "time": 106.444338,
          "velocity": 0.49606299212598426
        },
        {
          "duration": 0.11111099999999396,
          "durationTicks": 96,
          "midi": 51,
          "name": "D#3",
          "ticks": 91968,
          "time": 106.444338,
          "velocity": 0.49606299212598426
        },
        {
          "duration": 0.11111100000000818,
          "durationTicks": 96,
          "midi": 61,
          "name": "C#4",
          "ticks": 92064,
          "time": 106.555449,
          "velocity": 0.49606299212598426
        },
        {
          "duration": 0.11111100000000818,
          "durationTicks": 96,
          "midi": 49,
          "name": "C#3",
          "ticks": 92064,
          "time": 106.555449,
          "velocity": 0.49606299212598426
        },
        {
          "duration": 0.8888879999999943,
          "durationTicks": 768,
          "midi": 52,
          "name": "E3",
          "ticks": 92160,
          "time": 106.66656,
          "velocity": 0.49606299212598426
        },
        {
          "duration": 0.8888879999999943,
          "durationTicks": 768,
          "midi": 64,
          "name": "E4",
          "ticks": 92160,
          "time": 106.66656,
          "velocity": 0.49606299212598426
        },
        {
          "duration": 0.8888879999999943,
          "durationTicks": 768,
          "midi": 51,
          "name": "D#3",
          "ticks": 93696,
          "time": 108.444336,
          "velocity": 0.49606299212598426
        },
        {
          "duration": 0.8888879999999943,
          "durationTicks": 768,
          "midi": 63,
          "name": "D#4",
          "ticks": 93696,
          "time": 108.444336,
          "velocity": 0.49606299212598426
        },
        {
          "duration": 0.8888880000000086,
          "durationTicks": 768,
          "midi": 52,
          "name": "E3",
          "ticks": 95232,
          "time": 110.222112,
          "velocity": 0.49606299212598426
        },
        {
          "duration": 0.8888880000000086,
          "durationTicks": 768,
          "midi": 64,
          "name": "E4",
          "ticks": 95232,
          "time": 110.222112,
          "velocity": 0.49606299212598426
        },
        {
          "duration": 0.8888880000000086,
          "durationTicks": 768,
          "midi": 66,
          "name": "F#4",
          "ticks": 96768,
          "time": 111.999888,
          "velocity": 0.49606299212598426
        },
        {
          "duration": 0.8888880000000086,
          "durationTicks": 768,
          "midi": 54,
          "name": "F#3",
          "ticks": 96768,
          "time": 111.999888,
          "velocity": 0.49606299212598426
        },
        {
          "duration": 1.2222210000000047,
          "durationTicks": 1056,
          "midi": 45,
          "name": "A2",
          "ticks": 98304,
          "time": 113.777664,
          "velocity": 0.49606299212598426
        },
        {
          "duration": 0.4444440000000043,
          "durationTicks": 384,
          "midi": 52,
          "name": "E3",
          "ticks": 99456,
          "time": 115.110996,
          "velocity": 0.49606299212598426
        },
        {
          "duration": 0.8888879999999943,
          "durationTicks": 768,
          "midi": 51,
          "name": "D#3",
          "ticks": 99840,
          "time": 115.55544,
          "velocity": 0.49606299212598426
        },
        {
          "duration": 0.8888880000000086,
          "durationTicks": 768,
          "midi": 49,
          "name": "C#3",
          "ticks": 100608,
          "time": 116.444328,
          "velocity": 0.49606299212598426
        },
        {
          "duration": 3.3333299999999895,
          "durationTicks": 2880,
          "midi": 52,
          "name": "E3",
          "ticks": 101376,
          "time": 117.33321600000001,
          "velocity": 0.49606299212598426
        },
        {
          "duration": 1.2222210000000047,
          "durationTicks": 1056,
          "midi": 45,
          "name": "A2",
          "ticks": 104448,
          "time": 120.888768,
          "velocity": 0.49606299212598426
        },
        {
          "duration": 0.4444440000000043,
          "durationTicks": 384,
          "midi": 52,
          "name": "E3",
          "ticks": 105600,
          "time": 122.2221,
          "velocity": 0.49606299212598426
        },
        {
          "duration": 0.8888879999999943,
          "durationTicks": 768,
          "midi": 51,
          "name": "D#3",
          "ticks": 105984,
          "time": 122.666544,
          "velocity": 0.49606299212598426
        },
        {
          "duration": 0.8888880000000086,
          "durationTicks": 768,
          "midi": 49,
          "name": "C#3",
          "ticks": 106752,
          "time": 123.555432,
          "velocity": 0.49606299212598426
        },
        {
          "duration": 3.3333300000000037,
          "durationTicks": 2880,
          "midi": 49,
          "name": "C#3",
          "ticks": 107520,
          "time": 124.44432,
          "velocity": 0.49606299212598426
        },
        {
          "duration": 0.11111100000000818,
          "durationTicks": 96,
          "midi": 48,
          "name": "C3",
          "ticks": 107904,
          "time": 124.888764,
          "velocity": 0.49606299212598426
        },
        {
          "duration": 0.11111099999999396,
          "durationTicks": 96,
          "midi": 47,
          "name": "B2",
          "ticks": 108000,
          "time": 124.999875,
          "velocity": 0.49606299212598426
        },
        {
          "duration": 0.11111100000000818,
          "durationTicks": 96,
          "midi": 46,
          "name": "A#2",
          "ticks": 108096,
          "time": 125.110986,
          "velocity": 0.49606299212598426
        },
        {
          "duration": 0.11111099999999396,
          "durationTicks": 96,
          "midi": 45,
          "name": "A2",
          "ticks": 108192,
          "time": 125.222097,
          "velocity": 0.49606299212598426
        },
        {
          "duration": 0.11111100000000818,
          "durationTicks": 96,
          "midi": 44,
          "name": "G#2",
          "ticks": 108288,
          "time": 125.333208,
          "velocity": 0.49606299212598426
        },
        {
          "duration": 0.11111099999999396,
          "durationTicks": 96,
          "midi": 43,
          "name": "G2",
          "ticks": 108384,
          "time": 125.44431900000001,
          "velocity": 0.49606299212598426
        },
        {
          "duration": 0.11111099999999396,
          "durationTicks": 96,
          "midi": 42,
          "name": "F#2",
          "ticks": 108480,
          "time": 125.55543,
          "velocity": 0.49606299212598426
        },
        {
          "duration": 0.11111100000000818,
          "durationTicks": 96,
          "midi": 41,
          "name": "F2",
          "ticks": 108576,
          "time": 125.666541,
          "velocity": 0.49606299212598426
        },
        {
          "duration": 0.11111099999999396,
          "durationTicks": 96,
          "midi": 40,
          "name": "E2",
          "ticks": 108672,
          "time": 125.777652,
          "velocity": 0.49606299212598426
        },
        {
          "duration": 0.11111100000000818,
          "durationTicks": 96,
          "midi": 39,
          "name": "D#2",
          "ticks": 108768,
          "time": 125.888763,
          "velocity": 0.49606299212598426
        },
        {
          "duration": 0.11111099999999396,
          "durationTicks": 96,
          "midi": 38,
          "name": "D2",
          "ticks": 108864,
          "time": 125.999874,
          "velocity": 0.49606299212598426
        },
        {
          "duration": 0.11111100000000818,
          "durationTicks": 96,
          "midi": 37,
          "name": "C#2",
          "ticks": 108960,
          "time": 126.110985,
          "velocity": 0.49606299212598426
        },
        {
          "duration": 0.11111099999999396,
          "durationTicks": 96,
          "midi": 36,
          "name": "C2",
          "ticks": 109056,
          "time": 126.22209600000001,
          "velocity": 0.49606299212598426
        },
        {
          "duration": 0.11111099999999396,
          "durationTicks": 96,
          "midi": 35,
          "name": "B1",
          "ticks": 109152,
          "time": 126.333207,
          "velocity": 0.49606299212598426
        },
        {
          "duration": 0.11111100000000818,
          "durationTicks": 96,
          "midi": 34,
          "name": "A#1",
          "ticks": 109248,
          "time": 126.444318,
          "velocity": 0.49606299212598426
        },
        {
          "duration": 0.11111099999999396,
          "durationTicks": 96,
          "midi": 33,
          "name": "A1",
          "ticks": 109344,
          "time": 126.555429,
          "velocity": 0.49606299212598426
        },
        {
          "duration": 0.11111100000000818,
          "durationTicks": 96,
          "midi": 32,
          "name": "G#1",
          "ticks": 109440,
          "time": 126.66654,
          "velocity": 0.49606299212598426
        },
        {
          "duration": 0.11111099999999396,
          "durationTicks": 96,
          "midi": 31,
          "name": "G1",
          "ticks": 109536,
          "time": 126.777651,
          "velocity": 0.49606299212598426
        },
        {
          "duration": 0.11111100000000818,
          "durationTicks": 96,
          "midi": 30,
          "name": "F#1",
          "ticks": 109632,
          "time": 126.888762,
          "velocity": 0.49606299212598426
        },
        {
          "duration": 0.11111099999999396,
          "durationTicks": 96,
          "midi": 29,
          "name": "F1",
          "ticks": 109728,
          "time": 126.99987300000001,
          "velocity": 0.49606299212598426
        },
        {
          "duration": 0.11111099999999396,
          "durationTicks": 96,
          "midi": 28,
          "name": "E1",
          "ticks": 109824,
          "time": 127.110984,
          "velocity": 0.49606299212598426
        },
        {
          "duration": 0.11111100000000818,
          "durationTicks": 96,
          "midi": 27,
          "name": "D#1",
          "ticks": 109920,
          "time": 127.222095,
          "velocity": 0.49606299212598426
        },
        {
          "duration": 0.11111099999999396,
          "durationTicks": 96,
          "midi": 26,
          "name": "D1",
          "ticks": 110016,
          "time": 127.333206,
          "velocity": 0.49606299212598426
        },
        {
          "duration": 0.11111100000000818,
          "durationTicks": 96,
          "midi": 25,
          "name": "C#1",
          "ticks": 110112,
          "time": 127.444317,
          "velocity": 0.49606299212598426
        },
        {
          "duration": 1.1111100000000107,
          "durationTicks": 960,
          "midi": 45,
          "name": "A2",
          "ticks": 110592,
          "time": 127.999872,
          "velocity": 0.49606299212598426
        },
        {
          "duration": 0.22222200000000214,
          "durationTicks": 192,
          "midi": 61,
          "name": "C#4",
          "ticks": 110592,
          "time": 127.999872,
          "velocity": 0.49606299212598426
        },
        {
          "duration": 0.11111099999999396,
          "durationTicks": 96,
          "midi": 56,
          "name": "G#3",
          "ticks": 110784,
          "time": 128.222094,
          "velocity": 0.49606299212598426
        },
        {
          "duration": 0.11111100000002239,
          "durationTicks": 96,
          "midi": 57,
          "name": "A3",
          "ticks": 110880,
          "time": 128.333205,
          "velocity": 0.49606299212598426
        },
        {
          "duration": 0.22222199999998793,
          "durationTicks": 192,
          "midi": 56,
          "name": "G#3",
          "ticks": 110976,
          "time": 128.44431600000001,
          "velocity": 0.49606299212598426
        },
        {
          "duration": 0.11111099999999396,
          "durationTicks": 96,
          "midi": 54,
          "name": "F#3",
          "ticks": 111168,
          "time": 128.666538,
          "velocity": 0.49606299212598426
        },
        {
          "duration": 0.11111099999999396,
          "durationTicks": 96,
          "midi": 57,
          "name": "A3",
          "ticks": 111264,
          "time": 128.777649,
          "velocity": 0.49606299212598426
        },
        {
          "duration": 0.11111100000002239,
          "durationTicks": 96,
          "midi": 52,
          "name": "E3",
          "ticks": 111360,
          "time": 128.88876,
          "velocity": 0.49606299212598426
        },
        {
          "duration": 0.11111099999999396,
          "durationTicks": 96,
          "midi": 56,
          "name": "G#3",
          "ticks": 111456,
          "time": 128.999871,
          "velocity": 0.49606299212598426
        },
        {
          "duration": 0.11111099999999396,
          "durationTicks": 96,
          "midi": 60,
          "name": "C4",
          "ticks": 111552,
          "time": 129.110982,
          "velocity": 0.49606299212598426
        },
        {
          "duration": 0.11111099999999396,
          "durationTicks": 96,
          "midi": 61,
          "name": "C#4",
          "ticks": 111602,
          "time": 129.1688523125,
          "velocity": 0.49606299212598426
        },
        {
          "duration": 0.11111099999999396,
          "durationTicks": 96,
          "midi": 56,
          "name": "G#3",
          "ticks": 111744,
          "time": 129.333204,
          "velocity": 0.49606299212598426
        },
        {
          "duration": 0.22222200000001635,
          "durationTicks": 192,
          "midi": 52,
          "name": "E3",
          "ticks": 111744,
          "time": 129.333204,
          "velocity": 0.49606299212598426
        },
        {
          "duration": 0.11111100000002239,
          "durationTicks": 96,
          "midi": 54,
          "name": "F#3",
          "ticks": 111840,
          "time": 129.444315,
          "velocity": 0.49606299212598426
        },
        {
          "duration": 0.22222199999998793,
          "durationTicks": 192,
          "midi": 52,
          "name": "E3",
          "ticks": 111936,
          "time": 129.555426,
          "velocity": 0.49606299212598426
        },
        {
          "duration": 0.11111099999999396,
          "durationTicks": 96,
          "midi": 51,
          "name": "D#3",
          "ticks": 112128,
          "time": 129.777648,
          "velocity": 0.49606299212598426
        },
        {
          "duration": 0.22222200000001635,
          "durationTicks": 192,
          "midi": 51,
          "name": "D#3",
          "ticks": 112128,
          "time": 129.777648,
          "velocity": 0.49606299212598426
        },
        {
          "duration": 0.11111100000002239,
          "durationTicks": 96,
          "midi": 52,
          "name": "E3",
          "ticks": 112224,
          "time": 129.888759,
          "velocity": 0.49606299212598426
        },
        {
          "duration": 0.22222199999998793,
          "durationTicks": 192,
          "midi": 51,
          "name": "D#3",
          "ticks": 112320,
          "time": 129.99987000000002,
          "velocity": 0.49606299212598426
        },
        {
          "duration": 0.11111099999999396,
          "durationTicks": 96,
          "midi": 52,
          "name": "E3",
          "ticks": 112416,
          "time": 130.110981,
          "velocity": 0.49606299212598426
        },
        {
          "duration": 0.4444440000000043,
          "durationTicks": 384,
          "midi": 51,
          "name": "D#3",
          "ticks": 112512,
          "time": 130.222092,
          "velocity": 0.49606299212598426
        },
        {
          "duration": 0.11111100000002239,
          "durationTicks": 96,
          "midi": 54,
          "name": "F#3",
          "ticks": 112704,
          "time": 130.444314,
          "velocity": 0.49606299212598426
        },
        {
          "duration": 0.11111099999999396,
          "durationTicks": 96,
          "midi": 56,
          "name": "G#3",
          "ticks": 112800,
          "time": 130.555425,
          "velocity": 0.49606299212598426
        },
        {
          "duration": 0.11111099999999396,
          "durationTicks": 96,
          "midi": 56,
          "name": "G#3",
          "ticks": 112896,
          "time": 130.666536,
          "velocity": 0.49606299212598426
        },
        {
          "duration": 0.11111100000002239,
          "durationTicks": 96,
          "midi": 57,
          "name": "A3",
          "ticks": 112946,
          "time": 130.72440631249998,
          "velocity": 0.49606299212598426
        },
        {
          "duration": 0.6666660000000206,
          "durationTicks": 576,
          "midi": 49,
          "name": "C#3",
          "ticks": 112946,
          "time": 130.72440631249998,
          "velocity": 0.49606299212598426
        },
        {
          "duration": 0.11111099999999396,
          "durationTicks": 96,
          "midi": 54,
          "name": "F#3",
          "ticks": 113088,
          "time": 130.888758,
          "velocity": 0.49606299212598426
        },
        {
          "duration": 0.44444399999997586,
          "durationTicks": 384,
          "midi": 56,
          "name": "G#3",
          "ticks": 113280,
          "time": 131.11098,
          "velocity": 0.49606299212598426
        },
        {
          "duration": 0.11111100000002239,
          "durationTicks": 96,
          "midi": 61,
          "name": "C#4",
          "ticks": 113664,
          "time": 131.555424,
          "velocity": 0.49606299212598426
        },
        {
          "duration": 2.8888860000000136,
          "durationTicks": 2496,
          "midi": 52,
          "name": "E3",
          "ticks": 113664,
          "time": 131.555424,
          "velocity": 0.49606299212598426
        },
        {
          "duration": 0.11111099999999396,
          "durationTicks": 96,
          "midi": 61,
          "name": "C#4",
          "ticks": 113760,
          "time": 131.666535,
          "velocity": 0.49606299212598426
        },
        {
          "duration": 0.11111099999999396,
          "durationTicks": 96,
          "midi": 56,
          "name": "G#3",
          "ticks": 113856,
          "time": 131.777646,
          "velocity": 0.49606299212598426
        },
        {
          "duration": 0.11111099999999396,
          "durationTicks": 96,
          "midi": 57,
          "name": "A3",
          "ticks": 113952,
          "time": 131.888757,
          "velocity": 0.49606299212598426
        },
        {
          "duration": 0.11111100000002239,
          "durationTicks": 96,
          "midi": 56,
          "name": "G#3",
          "ticks": 114048,
          "time": 131.999868,
          "velocity": 0.49606299212598426
        },
        {
          "duration": 0.11111099999999396,
          "durationTicks": 96,
          "midi": 57,
          "name": "A3",
          "ticks": 114144,
          "time": 132.11097900000001,
          "velocity": 0.49606299212598426
        },
        {
          "duration": 0.11111099999999396,
          "durationTicks": 96,
          "midi": 54,
          "name": "F#3",
          "ticks": 114240,
          "time": 132.22209,
          "velocity": 0.49606299212598426
        },
        {
          "duration": 0.11111099999999396,
          "durationTicks": 96,
          "midi": 57,
          "name": "A3",
          "ticks": 114336,
          "time": 132.333201,
          "velocity": 0.49606299212598426
        },
        {
          "duration": 0.11111099999999396,
          "durationTicks": 96,
          "midi": 56,
          "name": "G#3",
          "ticks": 114432,
          "time": 132.444312,
          "velocity": 0.49606299212598426
        },
        {
          "duration": 0.11111099999999396,
          "durationTicks": 96,
          "midi": 61,
          "name": "C#4",
          "ticks": 114624,
          "time": 132.666534,
          "velocity": 0.49606299212598426
        },
        {
          "duration": 0.11111099999999396,
          "durationTicks": 96,
          "midi": 63,
          "name": "D#4",
          "ticks": 114816,
          "time": 132.888756,
          "velocity": 0.49606299212598426
        },
        {
          "duration": 0.11111099999999396,
          "durationTicks": 96,
          "midi": 64,
          "name": "E4",
          "ticks": 114864,
          "time": 132.9443115,
          "velocity": 0.49606299212598426
        },
        {
          "duration": 0.11111099999999396,
          "durationTicks": 96,
          "midi": 63,
          "name": "D#4",
          "ticks": 114912,
          "time": 132.999867,
          "velocity": 0.49606299212598426
        },
        {
          "duration": 0.22222200000001635,
          "durationTicks": 192,
          "midi": 61,
          "name": "C#4",
          "ticks": 115008,
          "time": 133.110978,
          "velocity": 0.49606299212598426
        },
        {
          "duration": 0.11111099999999396,
          "durationTicks": 96,
          "midi": 64,
          "name": "E4",
          "ticks": 115200,
          "time": 133.3332,
          "velocity": 0.49606299212598426
        },
        {
          "duration": 0.11111099999999396,
          "durationTicks": 96,
          "midi": 64,
          "name": "E4",
          "ticks": 115296,
          "time": 133.444311,
          "velocity": 0.49606299212598426
        },
        {
          "duration": 0.11111100000002239,
          "durationTicks": 96,
          "midi": 61,
          "name": "C#4",
          "ticks": 115392,
          "time": 133.555422,
          "velocity": 0.49606299212598426
        },
        {
          "duration": 0.11111099999999396,
          "durationTicks": 96,
          "midi": 61,
          "name": "C#4",
          "ticks": 115488,
          "time": 133.66653300000002,
          "velocity": 0.49606299212598426
        },
        {
          "duration": 0.11111099999999396,
          "durationTicks": 96,
          "midi": 63,
          "name": "D#4",
          "ticks": 115536,
          "time": 133.7220885,
          "velocity": 0.49606299212598426
        },
        {
          "duration": 0.11111099999999396,
          "durationTicks": 96,
          "midi": 61,
          "name": "C#4",
          "ticks": 115584,
          "time": 133.777644,
          "velocity": 0.49606299212598426
        },
        {
          "duration": 0.11111099999999396,
          "durationTicks": 96,
          "midi": 59,
          "name": "B3",
          "ticks": 115680,
          "time": 133.888755,
          "velocity": 0.49606299212598426
        },
        {
          "duration": 0.11111099999999396,
          "durationTicks": 96,
          "midi": 54,
          "name": "F#3",
          "ticks": 115776,
          "time": 133.999866,
          "velocity": 0.49606299212598426
        },
        {
          "duration": 0.11111100000002239,
          "durationTicks": 96,
          "midi": 55,
          "name": "G3",
          "ticks": 115872,
          "time": 134.110977,
          "velocity": 0.49606299212598426
        },
        {
          "duration": 0.11111099999999396,
          "durationTicks": 96,
          "midi": 56,
          "name": "G#3",
          "ticks": 115968,
          "time": 134.222088,
          "velocity": 0.49606299212598426
        },
        {
          "duration": 0.11111099999999396,
          "durationTicks": 96,
          "midi": 57,
          "name": "A3",
          "ticks": 116160,
          "time": 134.44431,
          "velocity": 0.49606299212598426
        },
        {
          "duration": 0.4444440000000043,
          "durationTicks": 384,
          "midi": 56,
          "name": "G#3",
          "ticks": 116352,
          "time": 134.666532,
          "velocity": 0.49606299212598426
        },
        {
          "duration": 1.1111099999999965,
          "durationTicks": 960,
          "midi": 45,
          "name": "A2",
          "ticks": 116736,
          "time": 135.110976,
          "velocity": 0.49606299212598426
        },
        {
          "duration": 0.22222200000001635,
          "durationTicks": 192,
          "midi": 61,
          "name": "C#4",
          "ticks": 116736,
          "time": 135.110976,
          "velocity": 0.49606299212598426
        },
        {
          "duration": 0.11111099999999396,
          "durationTicks": 96,
          "midi": 56,
          "name": "G#3",
          "ticks": 116928,
          "time": 135.333198,
          "velocity": 0.49606299212598426
        },
        {
          "duration": 0.11111099999999396,
          "durationTicks": 96,
          "midi": 57,
          "name": "A3",
          "ticks": 117024,
          "time": 135.444309,
          "velocity": 0.49606299212598426
        },
        {
          "duration": 0.22222200000001635,
          "durationTicks": 192,
          "midi": 56,
          "name": "G#3",
          "ticks": 117120,
          "time": 135.55542,
          "velocity": 0.49606299212598426
        },
        {
          "duration": 0.11111099999999396,
          "durationTicks": 96,
          "midi": 54,
          "name": "F#3",
          "ticks": 117312,
          "time": 135.77764200000001,
          "velocity": 0.49606299212598426
        },
        {
          "duration": 0.11111099999999396,
          "durationTicks": 96,
          "midi": 57,
          "name": "A3",
          "ticks": 117408,
          "time": 135.888753,
          "velocity": 0.49606299212598426
        },
        {
          "duration": 0.11111099999999396,
          "durationTicks": 96,
          "midi": 52,
          "name": "E3",
          "ticks": 117504,
          "time": 135.999864,
          "velocity": 0.49606299212598426
        },
        {
          "duration": 0.11111099999999396,
          "durationTicks": 96,
          "midi": 56,
          "name": "G#3",
          "ticks": 117600,
          "time": 136.110975,
          "velocity": 0.49606299212598426
        },
        {
          "duration": 0.11111100000002239,
          "durationTicks": 96,
          "midi": 60,
          "name": "C4",
          "ticks": 117696,
          "time": 136.222086,
          "velocity": 0.49606299212598426
        },
        {
          "duration": 0.11111099999999396,
          "durationTicks": 96,
          "midi": 61,
          "name": "C#4",
          "ticks": 117746,
          "time": 136.2799563125,
          "velocity": 0.49606299212598426
        },
        {
          "duration": 0.11111099999999396,
          "durationTicks": 96,
          "midi": 56,
          "name": "G#3",
          "ticks": 117888,
          "time": 136.444308,
          "velocity": 0.49606299212598426
        },
        {
          "duration": 0.22222199999998793,
          "durationTicks": 192,
          "midi": 52,
          "name": "E3",
          "ticks": 117888,
          "time": 136.444308,
          "velocity": 0.49606299212598426
        },
        {
          "duration": 0.11111099999999396,
          "durationTicks": 96,
          "midi": 54,
          "name": "F#3",
          "ticks": 117984,
          "time": 136.555419,
          "velocity": 0.49606299212598426
        },
        {
          "duration": 0.22222200000001635,
          "durationTicks": 192,
          "midi": 52,
          "name": "E3",
          "ticks": 118080,
          "time": 136.66653,
          "velocity": 0.49606299212598426
        },
        {
          "duration": 0.11111099999999396,
          "durationTicks": 96,
          "midi": 51,
          "name": "D#3",
          "ticks": 118272,
          "time": 136.888752,
          "velocity": 0.49606299212598426
        },
        {
          "duration": 0.22222199999998793,
          "durationTicks": 192,
          "midi": 51,
          "name": "D#3",
          "ticks": 118272,
          "time": 136.888752,
          "velocity": 0.49606299212598426
        },
        {
          "duration": 0.11111099999999396,
          "durationTicks": 96,
          "midi": 52,
          "name": "E3",
          "ticks": 118368,
          "time": 136.999863,
          "velocity": 0.49606299212598426
        },
        {
          "duration": 0.22222200000001635,
          "durationTicks": 192,
          "midi": 51,
          "name": "D#3",
          "ticks": 118464,
          "time": 137.110974,
          "velocity": 0.49606299212598426
        },
        {
          "duration": 0.11111100000002239,
          "durationTicks": 96,
          "midi": 52,
          "name": "E3",
          "ticks": 118560,
          "time": 137.222085,
          "velocity": 0.49606299212598426
        },
        {
          "duration": 0.44444399999997586,
          "durationTicks": 384,
          "midi": 51,
          "name": "D#3",
          "ticks": 118656,
          "time": 137.33319600000002,
          "velocity": 0.49606299212598426
        },
        {
          "duration": 0.11111099999999396,
          "durationTicks": 96,
          "midi": 54,
          "name": "F#3",
          "ticks": 118848,
          "time": 137.555418,
          "velocity": 0.49606299212598426
        },
        {
          "duration": 0.11111099999999396,
          "durationTicks": 96,
          "midi": 56,
          "name": "G#3",
          "ticks": 118944,
          "time": 137.666529,
          "velocity": 0.49606299212598426
        },
        {
          "duration": 0.11111100000002239,
          "durationTicks": 96,
          "midi": 56,
          "name": "G#3",
          "ticks": 119040,
          "time": 137.77764,
          "velocity": 0.49606299212598426
        },
        {
          "duration": 0.11111099999999396,
          "durationTicks": 96,
          "midi": 57,
          "name": "A3",
          "ticks": 119090,
          "time": 137.8355103125,
          "velocity": 0.49606299212598426
        },
        {
          "duration": 0.6666659999999922,
          "durationTicks": 576,
          "midi": 49,
          "name": "C#3",
          "ticks": 119090,
          "time": 137.8355103125,
          "velocity": 0.49606299212598426
        },
        {
          "duration": 0.11111099999999396,
          "durationTicks": 96,
          "midi": 54,
          "name": "F#3",
          "ticks": 119232,
          "time": 137.999862,
          "velocity": 0.49606299212598426
        },
        {
          "duration": 0.4444440000000043,
          "durationTicks": 384,
          "midi": 56,
          "name": "G#3",
          "ticks": 119424,
          "time": 138.222084,
          "velocity": 0.49606299212598426
        },
        {
          "duration": 0.11111099999999396,
          "durationTicks": 96,
          "midi": 61,
          "name": "C#4",
          "ticks": 119808,
          "time": 138.666528,
          "velocity": 0.49606299212598426
        },
        {
          "duration": 1.888887000000011,
          "durationTicks": 1632,
          "midi": 49,
          "name": "C#3",
          "ticks": 119808,
          "time": 138.666528,
          "velocity": 0.49606299212598426
        },
        {
          "duration": 0.11111100000002239,
          "durationTicks": 96,
          "midi": 61,
          "name": "C#4",
          "ticks": 119904,
          "time": 138.777639,
          "velocity": 0.49606299212598426
        },
        {
          "duration": 0.11111099999999396,
          "durationTicks": 96,
          "midi": 56,
          "name": "G#3",
          "ticks": 120000,
          "time": 138.88875000000002,
          "velocity": 0.49606299212598426
        },
        {
          "duration": 0.11111099999999396,
          "durationTicks": 96,
          "midi": 57,
          "name": "A3",
          "ticks": 120096,
          "time": 138.999861,
          "velocity": 0.49606299212598426
        },
        {
          "duration": 0.11111099999999396,
          "durationTicks": 96,
          "midi": 56,
          "name": "G#3",
          "ticks": 120192,
          "time": 139.110972,
          "velocity": 0.49606299212598426
        },
        {
          "duration": 0.11111099999999396,
          "durationTicks": 96,
          "midi": 57,
          "name": "A3",
          "ticks": 120288,
          "time": 139.222083,
          "velocity": 0.49606299212598426
        },
        {
          "duration": 0.11111100000002239,
          "durationTicks": 96,
          "midi": 54,
          "name": "F#3",
          "ticks": 120384,
          "time": 139.333194,
          "velocity": 0.49606299212598426
        },
        {
          "duration": 0.11111099999999396,
          "durationTicks": 96,
          "midi": 57,
          "name": "A3",
          "ticks": 120480,
          "time": 139.444305,
          "velocity": 0.49606299212598426
        },
        {
          "duration": 0.11111099999999396,
          "durationTicks": 96,
          "midi": 56,
          "name": "G#3",
          "ticks": 120576,
          "time": 139.555416,
          "velocity": 0.49606299212598426
        },
        {
          "duration": 0.11111099999999396,
          "durationTicks": 96,
          "midi": 61,
          "name": "C#4",
          "ticks": 120768,
          "time": 139.777638,
          "velocity": 0.49606299212598426
        },
        {
          "duration": 0.11111099999999396,
          "durationTicks": 96,
          "midi": 63,
          "name": "D#4",
          "ticks": 120960,
          "time": 139.99986,
          "velocity": 0.49606299212598426
        },
        {
          "duration": 0.11111099999999396,
          "durationTicks": 96,
          "midi": 64,
          "name": "E4",
          "ticks": 121008,
          "time": 140.0554155,
          "velocity": 0.49606299212598426
        },
        {
          "duration": 0.11111099999999396,
          "durationTicks": 96,
          "midi": 63,
          "name": "D#4",
          "ticks": 121056,
          "time": 140.110971,
          "velocity": 0.49606299212598426
        },
        {
          "duration": 0.22222199999998793,
          "durationTicks": 192,
          "midi": 61,
          "name": "C#4",
          "ticks": 121152,
          "time": 140.222082,
          "velocity": 0.49606299212598426
        },
        {
          "duration": 0.11111100000002239,
          "durationTicks": 96,
          "midi": 57,
          "name": "A3",
          "ticks": 121344,
          "time": 140.444304,
          "velocity": 0.49606299212598426
        },
        {
          "duration": 0.11111099999999396,
          "durationTicks": 96,
          "midi": 57,
          "name": "A3",
          "ticks": 121440,
          "time": 140.555415,
          "velocity": 0.49606299212598426
        },
        {
          "duration": 0.11111099999999396,
          "durationTicks": 96,
          "midi": 54,
          "name": "F#3",
          "ticks": 121536,
          "time": 140.666526,
          "velocity": 0.49606299212598426
        },
        {
          "duration": 0.11111099999999396,
          "durationTicks": 96,
          "midi": 52,
          "name": "E3",
          "ticks": 121632,
          "time": 140.777637,
          "velocity": 0.49606299212598426
        },
        {
          "duration": 1.1111099999999965,
          "durationTicks": 960,
          "midi": 49,
          "name": "C#3",
          "ticks": 121728,
          "time": 140.888748,
          "velocity": 0.49606299212598426
        },
        {
          "duration": 0.11111100000002239,
          "durationTicks": 96,
          "midi": 56,
          "name": "G#3",
          "ticks": 121728,
          "time": 140.888748,
          "velocity": 0.49606299212598426
        },
        {
          "duration": 0.11111099999999396,
          "durationTicks": 96,
          "midi": 59,
          "name": "B3",
          "ticks": 121824,
          "time": 140.99985900000001,
          "velocity": 0.49606299212598426
        },
        {
          "duration": 0.11111099999999396,
          "durationTicks": 96,
          "midi": 54,
          "name": "F#3",
          "ticks": 121920,
          "time": 141.11097,
          "velocity": 0.49606299212598426
        },
        {
          "duration": 0.11111099999999396,
          "durationTicks": 96,
          "midi": 59,
          "name": "B3",
          "ticks": 122016,
          "time": 141.222081,
          "velocity": 0.49606299212598426
        },
        {
          "duration": 0.11111099999999396,
          "durationTicks": 96,
          "midi": 52,
          "name": "E3",
          "ticks": 122112,
          "time": 141.333192,
          "velocity": 0.49606299212598426
        },
        {
          "duration": 0.11111099999999396,
          "durationTicks": 96,
          "midi": 56,
          "name": "G#3",
          "ticks": 122304,
          "time": 141.555414,
          "velocity": 0.49606299212598426
        },
        {
          "duration": 0.4444440000000043,
          "durationTicks": 384,
          "midi": 52,
          "name": "E3",
          "ticks": 122496,
          "time": 141.777636,
          "velocity": 0.49606299212598426
        },
        {
          "duration": 0.4444440000000043,
          "durationTicks": 384,
          "midi": 61,
          "name": "C#4",
          "ticks": 122880,
          "time": 142.22208,
          "velocity": 0.49606299212598426
        },
        {
          "duration": 0.4444440000000043,
          "durationTicks": 384,
          "midi": 49,
          "name": "C#3",
          "ticks": 122880,
          "time": 142.22208,
          "velocity": 0.49606299212598426
        },
        {
          "duration": 0.4444440000000043,
          "durationTicks": 384,
          "midi": 61,
          "name": "C#4",
          "ticks": 123264,
          "time": 142.666524,
          "velocity": 0.49606299212598426
        },
        {
          "duration": 0.4444440000000043,
          "durationTicks": 384,
          "midi": 49,
          "name": "C#3",
          "ticks": 123264,
          "time": 142.666524,
          "velocity": 0.49606299212598426
        },
        {
          "duration": 0.44444399999997586,
          "durationTicks": 384,
          "midi": 61,
          "name": "C#4",
          "ticks": 123648,
          "time": 143.110968,
          "velocity": 0.49606299212598426
        },
        {
          "duration": 0.44444399999997586,
          "durationTicks": 384,
          "midi": 49,
          "name": "C#3",
          "ticks": 123648,
          "time": 143.110968,
          "velocity": 0.49606299212598426
        },
        {
          "duration": 0.4444440000000043,
          "durationTicks": 384,
          "midi": 61,
          "name": "C#4",
          "ticks": 124032,
          "time": 143.555412,
          "velocity": 0.49606299212598426
        },
        {
          "duration": 0.22222200000001635,
          "durationTicks": 192,
          "midi": 49,
          "name": "C#3",
          "ticks": 124032,
          "time": 143.555412,
          "velocity": 0.49606299212598426
        },
        {
          "duration": 0.4444440000000043,
          "durationTicks": 384,
          "midi": 49,
          "name": "C#3",
          "ticks": 124416,
          "time": 143.999856,
          "velocity": 0.49606299212598426
        },
        {
          "duration": 0.4444440000000043,
          "durationTicks": 384,
          "midi": 61,
          "name": "C#4",
          "ticks": 124416,
          "time": 143.999856,
          "velocity": 0.49606299212598426
        },
        {
          "duration": 0.4444440000000043,
          "durationTicks": 384,
          "midi": 61,
          "name": "C#4",
          "ticks": 124800,
          "time": 144.4443,
          "velocity": 0.49606299212598426
        },
        {
          "duration": 0.4444440000000043,
          "durationTicks": 384,
          "midi": 49,
          "name": "C#3",
          "ticks": 124800,
          "time": 144.4443,
          "velocity": 0.49606299212598426
        },
        {
          "duration": 0.22222199999998793,
          "durationTicks": 192,
          "midi": 61,
          "name": "C#4",
          "ticks": 125184,
          "time": 144.888744,
          "velocity": 0.49606299212598426
        },
        {
          "duration": 0.22222199999998793,
          "durationTicks": 192,
          "midi": 49,
          "name": "C#3",
          "ticks": 125184,
          "time": 144.888744,
          "velocity": 0.49606299212598426
        },
        {
          "duration": 0.22222200000001635,
          "durationTicks": 192,
          "midi": 57,
          "name": "A3",
          "ticks": 125376,
          "time": 145.110966,
          "velocity": 0.49606299212598426
        },
        {
          "duration": 0.22222199999998793,
          "durationTicks": 192,
          "midi": 56,
          "name": "G#3",
          "ticks": 125568,
          "time": 145.333188,
          "velocity": 0.49606299212598426
        },
        {
          "duration": 0.22222200000001635,
          "durationTicks": 192,
          "midi": 54,
          "name": "F#3",
          "ticks": 125760,
          "time": 145.55541,
          "velocity": 0.49606299212598426
        },
        {
          "duration": 0.4444440000000043,
          "durationTicks": 384,
          "midi": 54,
          "name": "F#3",
          "ticks": 125952,
          "time": 145.777632,
          "velocity": 0.49606299212598426
        },
        {
          "duration": 0.44444399999997586,
          "durationTicks": 384,
          "midi": 54,
          "name": "F#3",
          "ticks": 126336,
          "time": 146.22207600000002,
          "velocity": 0.49606299212598426
        },
        {
          "duration": 0.4444440000000043,
          "durationTicks": 384,
          "midi": 54,
          "name": "F#3",
          "ticks": 126720,
          "time": 146.66652,
          "velocity": 0.49606299212598426
        },
        {
          "duration": 0.22222200000001635,
          "durationTicks": 192,
          "midi": 54,
          "name": "F#3",
          "ticks": 127104,
          "time": 147.110964,
          "velocity": 0.49606299212598426
        },
        {
          "duration": 0.4444440000000043,
          "durationTicks": 384,
          "midi": 54,
          "name": "F#3",
          "ticks": 127488,
          "time": 147.555408,
          "velocity": 0.49606299212598426
        },
        {
          "duration": 0.4444440000000043,
          "durationTicks": 384,
          "midi": 54,
          "name": "F#3",
          "ticks": 127872,
          "time": 147.999852,
          "velocity": 0.49606299212598426
        },
        {
          "duration": 0.4444440000000043,
          "durationTicks": 384,
          "midi": 54,
          "name": "F#3",
          "ticks": 128256,
          "time": 148.444296,
          "velocity": 0.49606299212598426
        },
        {
          "duration": 0.22222199999998793,
          "durationTicks": 192,
          "midi": 54,
          "name": "F#3",
          "ticks": 128640,
          "time": 148.88874,
          "velocity": 0.49606299212598426
        },
        {
          "duration": 0.4444440000000043,
          "durationTicks": 384,
          "midi": 52,
          "name": "E3",
          "ticks": 129024,
          "time": 149.333184,
          "velocity": 0.49606299212598426
        },
        {
          "duration": 0.4444440000000043,
          "durationTicks": 384,
          "midi": 52,
          "name": "E3",
          "ticks": 129408,
          "time": 149.777628,
          "velocity": 0.49606299212598426
        },
        {
          "duration": 0.4444440000000043,
          "durationTicks": 384,
          "midi": 52,
          "name": "E3",
          "ticks": 129792,
          "time": 150.222072,
          "velocity": 0.49606299212598426
        },
        {
          "duration": 0.22222199999998793,
          "durationTicks": 192,
          "midi": 52,
          "name": "E3",
          "ticks": 130176,
          "time": 150.666516,
          "velocity": 0.49606299212598426
        },
        {
          "duration": 0.4444440000000043,
          "durationTicks": 384,
          "midi": 51,
          "name": "D#3",
          "ticks": 130560,
          "time": 151.11096,
          "velocity": 0.49606299212598426
        },
        {
          "duration": 0.4444440000000043,
          "durationTicks": 384,
          "midi": 51,
          "name": "D#3",
          "ticks": 130944,
          "time": 151.555404,
          "velocity": 0.49606299212598426
        },
        {
          "duration": 0.44444399999997586,
          "durationTicks": 384,
          "midi": 51,
          "name": "D#3",
          "ticks": 131328,
          "time": 151.99984800000001,
          "velocity": 0.49606299212598426
        },
        {
          "duration": 0.22222200000001635,
          "durationTicks": 192,
          "midi": 51,
          "name": "D#3",
          "ticks": 131712,
          "time": 152.444292,
          "velocity": 0.49606299212598426
        },
        {
          "duration": 0.4444440000000043,
          "durationTicks": 384,
          "midi": 52,
          "name": "E3",
          "ticks": 132096,
          "time": 152.888736,
          "velocity": 0.49606299212598426
        },
        {
          "duration": 0.4444440000000043,
          "durationTicks": 384,
          "midi": 52,
          "name": "E3",
          "ticks": 132480,
          "time": 153.33318,
          "velocity": 0.49606299212598426
        },
        {
          "duration": 0.4444440000000043,
          "durationTicks": 384,
          "midi": 52,
          "name": "E3",
          "ticks": 132864,
          "time": 153.777624,
          "velocity": 0.49606299212598426
        },
        {
          "duration": 0.22222199999998793,
          "durationTicks": 192,
          "midi": 52,
          "name": "E3",
          "ticks": 133248,
          "time": 154.222068,
          "velocity": 0.49606299212598426
        },
        {
          "duration": 0.44444399999997586,
          "durationTicks": 384,
          "midi": 56,
          "name": "G#3",
          "ticks": 134016,
          "time": 155.11095600000002,
          "velocity": 0.49606299212598426
        },
        {
          "duration": 0.4444440000000043,
          "durationTicks": 384,
          "midi": 56,
          "name": "G#3",
          "ticks": 134400,
          "time": 155.5554,
          "velocity": 0.49606299212598426
        },
        {
          "duration": 0.22222200000001635,
          "durationTicks": 192,
          "midi": 56,
          "name": "G#3",
          "ticks": 134784,
          "time": 155.999844,
          "velocity": 0.49606299212598426
        },
        {
          "duration": 0.4444440000000043,
          "durationTicks": 384,
          "midi": 60,
          "name": "C4",
          "ticks": 135168,
          "time": 156.444288,
          "velocity": 0.49606299212598426
        },
        {
          "duration": 0.4444440000000043,
          "durationTicks": 384,
          "midi": 60,
          "name": "C4",
          "ticks": 135552,
          "time": 156.888732,
          "velocity": 0.49606299212598426
        },
        {
          "duration": 0.4444440000000043,
          "durationTicks": 384,
          "midi": 60,
          "name": "C4",
          "ticks": 135936,
          "time": 157.333176,
          "velocity": 0.49606299212598426
        },
        {
          "duration": 0.22222199999998793,
          "durationTicks": 192,
          "midi": 60,
          "name": "C4",
          "ticks": 136320,
          "time": 157.77762,
          "velocity": 0.49606299212598426
        },
        {
          "duration": 0.4444440000000043,
          "durationTicks": 384,
          "midi": 57,
          "name": "A3",
          "ticks": 138240,
          "time": 159.99984,
          "velocity": 0.49606299212598426
        },
        {
          "duration": 0.4444440000000043,
          "durationTicks": 384,
          "midi": 57,
          "name": "A3",
          "ticks": 138624,
          "time": 160.444284,
          "velocity": 0.49606299212598426
        },
        {
          "duration": 0.44444399999997586,
          "durationTicks": 384,
          "midi": 57,
          "name": "A3",
          "ticks": 139008,
          "time": 160.88872800000001,
          "velocity": 0.49606299212598426
        },
        {
          "duration": 0.22222200000001635,
          "durationTicks": 192,
          "midi": 57,
          "name": "A3",
          "ticks": 139392,
          "time": 161.333172,
          "velocity": 0.49606299212598426
        },
        {
          "duration": 0.4444440000000043,
          "durationTicks": 384,
          "midi": 59,
          "name": "B3",
          "ticks": 139776,
          "time": 161.777616,
          "velocity": 0.49606299212598426
        },
        {
          "duration": 0.4444440000000043,
          "durationTicks": 384,
          "midi": 59,
          "name": "B3",
          "ticks": 140160,
          "time": 162.22206,
          "velocity": 0.49606299212598426
        },
        {
          "duration": 0.4444440000000043,
          "durationTicks": 384,
          "midi": 59,
          "name": "B3",
          "ticks": 140544,
          "time": 162.666504,
          "velocity": 0.49606299212598426
        },
        {
          "duration": 0.22222199999998793,
          "durationTicks": 192,
          "midi": 59,
          "name": "B3",
          "ticks": 140928,
          "time": 163.110948,
          "velocity": 0.49606299212598426
        },
        {
          "duration": 0.4444440000000043,
          "durationTicks": 384,
          "midi": 61,
          "name": "C#4",
          "ticks": 141312,
          "time": 163.555392,
          "velocity": 0.49606299212598426
        },
        {
          "duration": 0.44444399999997586,
          "durationTicks": 384,
          "midi": 61,
          "name": "C#4",
          "ticks": 141696,
          "time": 163.99983600000002,
          "velocity": 0.49606299212598426
        },
        {
          "duration": 0.4444440000000043,
          "durationTicks": 384,
          "midi": 60,
          "name": "C4",
          "ticks": 142080,
          "time": 164.44428,
          "velocity": 0.49606299212598426
        },
        {
          "duration": 0.22222200000001635,
          "durationTicks": 192,
          "midi": 60,
          "name": "C4",
          "ticks": 142464,
          "time": 164.888724,
          "velocity": 0.49606299212598426
        },
        {
          "duration": 0.4444440000000043,
          "durationTicks": 384,
          "midi": 59,
          "name": "B3",
          "ticks": 142848,
          "time": 165.333168,
          "velocity": 0.49606299212598426
        },
        {
          "duration": 0.4444440000000043,
          "durationTicks": 384,
          "midi": 59,
          "name": "B3",
          "ticks": 143232,
          "time": 165.777612,
          "velocity": 0.49606299212598426
        },
        {
          "duration": 0.4444440000000043,
          "durationTicks": 384,
          "midi": 58,
          "name": "A#3",
          "ticks": 143616,
          "time": 166.222056,
          "velocity": 0.49606299212598426
        },
        {
          "duration": 0.22222199999998793,
          "durationTicks": 192,
          "midi": 58,
          "name": "A#3",
          "ticks": 144000,
          "time": 166.6665,
          "velocity": 0.49606299212598426
        },
        {
          "duration": 0.4444440000000043,
          "durationTicks": 384,
          "midi": 57,
          "name": "A3",
          "ticks": 144384,
          "time": 167.110944,
          "velocity": 0.49606299212598426
        },
        {
          "duration": 0.4444440000000043,
          "durationTicks": 384,
          "midi": 57,
          "name": "A3",
          "ticks": 144768,
          "time": 167.555388,
          "velocity": 0.49606299212598426
        },
        {
          "duration": 0.4444440000000043,
          "durationTicks": 384,
          "midi": 57,
          "name": "A3",
          "ticks": 145152,
          "time": 167.999832,
          "velocity": 0.49606299212598426
        },
        {
          "duration": 0.22222199999998793,
          "durationTicks": 192,
          "midi": 57,
          "name": "A3",
          "ticks": 145536,
          "time": 168.444276,
          "velocity": 0.49606299212598426
        },
        {
          "duration": 0.4444440000000043,
          "durationTicks": 384,
          "midi": 59,
          "name": "B3",
          "ticks": 145920,
          "time": 168.88872,
          "velocity": 0.49606299212598426
        },
        {
          "duration": 0.4444440000000043,
          "durationTicks": 384,
          "midi": 59,
          "name": "B3",
          "ticks": 146304,
          "time": 169.333164,
          "velocity": 0.49606299212598426
        },
        {
          "duration": 0.44444399999997586,
          "durationTicks": 384,
          "midi": 59,
          "name": "B3",
          "ticks": 146688,
          "time": 169.77760800000001,
          "velocity": 0.49606299212598426
        },
        {
          "duration": 0.22222200000001635,
          "durationTicks": 192,
          "midi": 59,
          "name": "B3",
          "ticks": 147072,
          "time": 170.222052,
          "velocity": 0.49606299212598426
        },
        {
          "duration": 0.4444440000000043,
          "durationTicks": 384,
          "midi": 61,
          "name": "C#4",
          "ticks": 147456,
          "time": 170.666496,
          "velocity": 0.49606299212598426
        },
        {
          "duration": 0.4444440000000043,
          "durationTicks": 384,
          "midi": 61,
          "name": "C#4",
          "ticks": 147840,
          "time": 171.11094,
          "velocity": 0.49606299212598426
        },
        {
          "duration": 0.4444440000000043,
          "durationTicks": 384,
          "midi": 61,
          "name": "C#4",
          "ticks": 148224,
          "time": 171.555384,
          "velocity": 0.49606299212598426
        },
        {
          "duration": 0.22222199999998793,
          "durationTicks": 192,
          "midi": 61,
          "name": "C#4",
          "ticks": 148608,
          "time": 171.999828,
          "velocity": 0.49606299212598426
        },
        {
          "duration": 0.44444399999997586,
          "durationTicks": 384,
          "midi": 61,
          "name": "C#4",
          "ticks": 148992,
          "time": 172.444272,
          "velocity": 0.49606299212598426
        },
        {
          "duration": 0.4444440000000043,
          "durationTicks": 384,
          "midi": 61,
          "name": "C#4",
          "ticks": 149376,
          "time": 172.888716,
          "velocity": 0.49606299212598426
        },
        {
          "duration": 0.4444440000000043,
          "durationTicks": 384,
          "midi": 61,
          "name": "C#4",
          "ticks": 149760,
          "time": 173.33316,
          "velocity": 0.49606299212598426
        },
        {
          "duration": 0.22222200000001635,
          "durationTicks": 192,
          "midi": 61,
          "name": "C#4",
          "ticks": 150144,
          "time": 173.777604,
          "velocity": 0.49606299212598426
        },
        {
          "duration": 0.22222199999998793,
          "durationTicks": 192,
          "midi": 61,
          "name": "C#4",
          "ticks": 150528,
          "time": 174.222048,
          "velocity": 0.49606299212598426
        },
        {
          "duration": 0.11111100000002239,
          "durationTicks": 96,
          "midi": 56,
          "name": "G#3",
          "ticks": 150720,
          "time": 174.44427,
          "velocity": 0.49606299212598426
        },
        {
          "duration": 0.11111099999999396,
          "durationTicks": 96,
          "midi": 57,
          "name": "A3",
          "ticks": 150816,
          "time": 174.555381,
          "velocity": 0.49606299212598426
        },
        {
          "duration": 0.22222199999998793,
          "durationTicks": 192,
          "midi": 56,
          "name": "G#3",
          "ticks": 150912,
          "time": 174.666492,
          "velocity": 0.49606299212598426
        },
        {
          "duration": 0.11111100000002239,
          "durationTicks": 96,
          "midi": 54,
          "name": "F#3",
          "ticks": 151104,
          "time": 174.888714,
          "velocity": 0.49606299212598426
        },
        {
          "duration": 0.11111099999999396,
          "durationTicks": 96,
          "midi": 57,
          "name": "A3",
          "ticks": 151200,
          "time": 174.99982500000002,
          "velocity": 0.49606299212598426
        },
        {
          "duration": 0.11111099999999396,
          "durationTicks": 96,
          "midi": 52,
          "name": "E3",
          "ticks": 151296,
          "time": 175.110936,
          "velocity": 0.49606299212598426
        },
        {
          "duration": 0.11111099999999396,
          "durationTicks": 96,
          "midi": 56,
          "name": "G#3",
          "ticks": 151392,
          "time": 175.222047,
          "velocity": 0.49606299212598426
        },
        {
          "duration": 0.11111099999999396,
          "durationTicks": 96,
          "midi": 60,
          "name": "C4",
          "ticks": 151488,
          "time": 175.333158,
          "velocity": 0.49606299212598426
        },
        {
          "duration": 0.11111099999999396,
          "durationTicks": 96,
          "midi": 61,
          "name": "C#4",
          "ticks": 151538,
          "time": 175.3910283125,
          "velocity": 0.49606299212598426
        },
        {
          "duration": 0.11111099999999396,
          "durationTicks": 96,
          "midi": 56,
          "name": "G#3",
          "ticks": 151680,
          "time": 175.55538,
          "velocity": 0.49606299212598426
        },
        {
          "duration": 0.11111099999999396,
          "durationTicks": 96,
          "midi": 54,
          "name": "F#3",
          "ticks": 151776,
          "time": 175.666491,
          "velocity": 0.49606299212598426
        },
        {
          "duration": 0.22222199999998793,
          "durationTicks": 192,
          "midi": 52,
          "name": "E3",
          "ticks": 151872,
          "time": 175.777602,
          "velocity": 0.49606299212598426
        },
        {
          "duration": 0.11111100000002239,
          "durationTicks": 96,
          "midi": 51,
          "name": "D#3",
          "ticks": 152064,
          "time": 175.999824,
          "velocity": 0.49606299212598426
        },
        {
          "duration": 0.11111099999999396,
          "durationTicks": 96,
          "midi": 52,
          "name": "E3",
          "ticks": 152160,
          "time": 176.110935,
          "velocity": 0.49606299212598426
        },
        {
          "duration": 0.11111099999999396,
          "durationTicks": 96,
          "midi": 51,
          "name": "D#3",
          "ticks": 152256,
          "time": 176.222046,
          "velocity": 0.49606299212598426
        },
        {
          "duration": 0.11111099999999396,
          "durationTicks": 96,
          "midi": 52,
          "name": "E3",
          "ticks": 152352,
          "time": 176.333157,
          "velocity": 0.49606299212598426
        },
        {
          "duration": 0.22222200000001635,
          "durationTicks": 192,
          "midi": 51,
          "name": "D#3",
          "ticks": 152448,
          "time": 176.444268,
          "velocity": 0.49606299212598426
        },
        {
          "duration": 0.11111099999999396,
          "durationTicks": 96,
          "midi": 54,
          "name": "F#3",
          "ticks": 152640,
          "time": 176.66649,
          "velocity": 0.49606299212598426
        },
        {
          "duration": 0.11111099999999396,
          "durationTicks": 96,
          "midi": 56,
          "name": "G#3",
          "ticks": 152736,
          "time": 176.777601,
          "velocity": 0.49606299212598426
        },
        {
          "duration": 0.11111099999999396,
          "durationTicks": 96,
          "midi": 56,
          "name": "G#3",
          "ticks": 152832,
          "time": 176.888712,
          "velocity": 0.49606299212598426
        },
        {
          "duration": 0.11111099999999396,
          "durationTicks": 96,
          "midi": 57,
          "name": "A3",
          "ticks": 152882,
          "time": 176.9465823125,
          "velocity": 0.49606299212598426
        },
        {
          "duration": 0.11111099999999396,
          "durationTicks": 96,
          "midi": 54,
          "name": "F#3",
          "ticks": 153024,
          "time": 177.11093400000001,
          "velocity": 0.49606299212598426
        },
        {
          "duration": 0.11111099999999396,
          "durationTicks": 96,
          "midi": 55,
          "name": "G3",
          "ticks": 153216,
          "time": 177.333156,
          "velocity": 0.49606299212598426
        },
        {
          "duration": 0.3333329999999819,
          "durationTicks": 288,
          "midi": 56,
          "name": "G#3",
          "ticks": 153266,
          "time": 177.3910263125,
          "velocity": 0.49606299212598426
        },
        {
          "duration": 0.11111099999999396,
          "durationTicks": 96,
          "midi": 61,
          "name": "C#4",
          "ticks": 153600,
          "time": 177.7776,
          "velocity": 0.49606299212598426
        },
        {
          "duration": 0.11111099999999396,
          "durationTicks": 96,
          "midi": 61,
          "name": "C#4",
          "ticks": 153696,
          "time": 177.888711,
          "velocity": 0.49606299212598426
        },
        {
          "duration": 0.11111099999999396,
          "durationTicks": 96,
          "midi": 56,
          "name": "G#3",
          "ticks": 153792,
          "time": 177.999822,
          "velocity": 0.49606299212598426
        },
        {
          "duration": 0.11111100000002239,
          "durationTicks": 96,
          "midi": 57,
          "name": "A3",
          "ticks": 153888,
          "time": 178.110933,
          "velocity": 0.49606299212598426
        },
        {
          "duration": 0.11111099999999396,
          "durationTicks": 96,
          "midi": 56,
          "name": "G#3",
          "ticks": 153984,
          "time": 178.222044,
          "velocity": 0.49606299212598426
        },
        {
          "duration": 0.11111099999999396,
          "durationTicks": 96,
          "midi": 57,
          "name": "A3",
          "ticks": 154080,
          "time": 178.333155,
          "velocity": 0.49606299212598426
        },
        {
          "duration": 0.11111099999999396,
          "durationTicks": 96,
          "midi": 54,
          "name": "F#3",
          "ticks": 154176,
          "time": 178.444266,
          "velocity": 0.49606299212598426
        },
        {
          "duration": 0.11111100000002239,
          "durationTicks": 96,
          "midi": 57,
          "name": "A3",
          "ticks": 154272,
          "time": 178.555377,
          "velocity": 0.49606299212598426
        },
        {
          "duration": 0.11111099999999396,
          "durationTicks": 96,
          "midi": 56,
          "name": "G#3",
          "ticks": 154368,
          "time": 178.66648800000002,
          "velocity": 0.49606299212598426
        },
        {
          "duration": 0.11111099999999396,
          "durationTicks": 96,
          "midi": 61,
          "name": "C#4",
          "ticks": 154560,
          "time": 178.88871,
          "velocity": 0.49606299212598426
        },
        {
          "duration": 0.11111100000002239,
          "durationTicks": 96,
          "midi": 63,
          "name": "D#4",
          "ticks": 154752,
          "time": 179.110932,
          "velocity": 0.49606299212598426
        },
        {
          "duration": 0.11111100000002239,
          "durationTicks": 96,
          "midi": 64,
          "name": "E4",
          "ticks": 154800,
          "time": 179.1664875,
          "velocity": 0.49606299212598426
        },
        {
          "duration": 0.11111099999999396,
          "durationTicks": 96,
          "midi": 63,
          "name": "D#4",
          "ticks": 154848,
          "time": 179.222043,
          "velocity": 0.49606299212598426
        },
        {
          "duration": 0.22222199999998793,
          "durationTicks": 192,
          "midi": 61,
          "name": "C#4",
          "ticks": 154944,
          "time": 179.333154,
          "velocity": 0.49606299212598426
        },
        {
          "duration": 0.11111099999999396,
          "durationTicks": 96,
          "midi": 64,
          "name": "E4",
          "ticks": 155136,
          "time": 179.555376,
          "velocity": 0.49606299212598426
        },
        {
          "duration": 0.11111100000002239,
          "durationTicks": 96,
          "midi": 64,
          "name": "E4",
          "ticks": 155232,
          "time": 179.666487,
          "velocity": 0.49606299212598426
        },
        {
          "duration": 0.11111099999999396,
          "durationTicks": 96,
          "midi": 61,
          "name": "C#4",
          "ticks": 155328,
          "time": 179.777598,
          "velocity": 0.49606299212598426
        },
        {
          "duration": 0.11111099999999396,
          "durationTicks": 96,
          "midi": 61,
          "name": "C#4",
          "ticks": 155424,
          "time": 179.888709,
          "velocity": 0.49606299212598426
        },
        {
          "duration": 0.11111099999999396,
          "durationTicks": 96,
          "midi": 63,
          "name": "D#4",
          "ticks": 155472,
          "time": 179.9442645,
          "velocity": 0.49606299212598426
        },
        {
          "duration": 0.11111099999999396,
          "durationTicks": 96,
          "midi": 61,
          "name": "C#4",
          "ticks": 155520,
          "time": 179.99982,
          "velocity": 0.49606299212598426
        },
        {
          "duration": 0.11111100000002239,
          "durationTicks": 96,
          "midi": 59,
          "name": "B3",
          "ticks": 155616,
          "time": 180.110931,
          "velocity": 0.49606299212598426
        },
        {
          "duration": 0.11111099999999396,
          "durationTicks": 96,
          "midi": 54,
          "name": "F#3",
          "ticks": 155712,
          "time": 180.22204200000002,
          "velocity": 0.49606299212598426
        },
        {
          "duration": 0.11111099999999396,
          "durationTicks": 96,
          "midi": 55,
          "name": "G3",
          "ticks": 155808,
          "time": 180.333153,
          "velocity": 0.49606299212598426
        },
        {
          "duration": 0.11111099999999396,
          "durationTicks": 96,
          "midi": 56,
          "name": "G#3",
          "ticks": 155904,
          "time": 180.444264,
          "velocity": 0.49606299212598426
        },
        {
          "duration": 0.11111100000002239,
          "durationTicks": 96,
          "midi": 57,
          "name": "A3",
          "ticks": 156096,
          "time": 180.666486,
          "velocity": 0.49606299212598426
        },
        {
          "duration": 0.4444440000000043,
          "durationTicks": 384,
          "midi": 56,
          "name": "G#3",
          "ticks": 156288,
          "time": 180.888708,
          "velocity": 0.49606299212598426
        },
        {
          "duration": 0.22222199999998793,
          "durationTicks": 192,
          "midi": 61,
          "name": "C#4",
          "ticks": 156672,
          "time": 181.333152,
          "velocity": 0.49606299212598426
        },
        {
          "duration": 0.11111099999999396,
          "durationTicks": 96,
          "midi": 56,
          "name": "G#3",
          "ticks": 156864,
          "time": 181.555374,
          "velocity": 0.49606299212598426
        },
        {
          "duration": 0.11111099999999396,
          "durationTicks": 96,
          "midi": 57,
          "name": "A3",
          "ticks": 156960,
          "time": 181.666485,
          "velocity": 0.49606299212598426
        },
        {
          "duration": 0.22222200000001635,
          "durationTicks": 192,
          "midi": 56,
          "name": "G#3",
          "ticks": 157056,
          "time": 181.777596,
          "velocity": 0.49606299212598426
        },
        {
          "duration": 0.11111099999999396,
          "durationTicks": 96,
          "midi": 54,
          "name": "F#3",
          "ticks": 157248,
          "time": 181.999818,
          "velocity": 0.49606299212598426
        },
        {
          "duration": 0.11111099999999396,
          "durationTicks": 96,
          "midi": 57,
          "name": "A3",
          "ticks": 157344,
          "time": 182.110929,
          "velocity": 0.49606299212598426
        },
        {
          "duration": 0.11111100000002239,
          "durationTicks": 96,
          "midi": 52,
          "name": "E3",
          "ticks": 157440,
          "time": 182.22204,
          "velocity": 0.49606299212598426
        },
        {
          "duration": 0.11111099999999396,
          "durationTicks": 96,
          "midi": 56,
          "name": "G#3",
          "ticks": 157536,
          "time": 182.33315100000002,
          "velocity": 0.49606299212598426
        },
        {
          "duration": 0.11111099999999396,
          "durationTicks": 96,
          "midi": 60,
          "name": "C4",
          "ticks": 157632,
          "time": 182.444262,
          "velocity": 0.49606299212598426
        },
        {
          "duration": 0.11111100000002239,
          "durationTicks": 96,
          "midi": 61,
          "name": "C#4",
          "ticks": 157682,
          "time": 182.50213231249998,
          "velocity": 0.49606299212598426
        },
        {
          "duration": 0.11111099999999396,
          "durationTicks": 96,
          "midi": 56,
          "name": "G#3",
          "ticks": 157824,
          "time": 182.666484,
          "velocity": 0.49606299212598426
        },
        {
          "duration": 0.11111100000002239,
          "durationTicks": 96,
          "midi": 54,
          "name": "F#3",
          "ticks": 157920,
          "time": 182.777595,
          "velocity": 0.49606299212598426
        },
        {
          "duration": 0.22222199999998793,
          "durationTicks": 192,
          "midi": 52,
          "name": "E3",
          "ticks": 158016,
          "time": 182.888706,
          "velocity": 0.49606299212598426
        },
        {
          "duration": 0.11111099999999396,
          "durationTicks": 96,
          "midi": 51,
          "name": "D#3",
          "ticks": 158208,
          "time": 183.110928,
          "velocity": 0.49606299212598426
        },
        {
          "duration": 0.11111099999999396,
          "durationTicks": 96,
          "midi": 52,
          "name": "E3",
          "ticks": 158304,
          "time": 183.222039,
          "velocity": 0.49606299212598426
        },
        {
          "duration": 0.11111100000002239,
          "durationTicks": 96,
          "midi": 51,
          "name": "D#3",
          "ticks": 158400,
          "time": 183.33315,
          "velocity": 0.49606299212598426
        },
        {
          "duration": 0.11111099999999396,
          "durationTicks": 96,
          "midi": 52,
          "name": "E3",
          "ticks": 158496,
          "time": 183.444261,
          "velocity": 0.49606299212598426
        },
        {
          "duration": 0.22222199999998793,
          "durationTicks": 192,
          "midi": 51,
          "name": "D#3",
          "ticks": 158592,
          "time": 183.555372,
          "velocity": 0.49606299212598426
        },
        {
          "duration": 0.11111100000002239,
          "durationTicks": 96,
          "midi": 54,
          "name": "F#3",
          "ticks": 158784,
          "time": 183.777594,
          "velocity": 0.49606299212598426
        },
        {
          "duration": 0.11111099999999396,
          "durationTicks": 96,
          "midi": 56,
          "name": "G#3",
          "ticks": 158880,
          "time": 183.88870500000002,
          "velocity": 0.49606299212598426
        },
        {
          "duration": 0.11111099999999396,
          "durationTicks": 96,
          "midi": 56,
          "name": "G#3",
          "ticks": 158976,
          "time": 183.999816,
          "velocity": 0.49606299212598426
        },
        {
          "duration": 0.11111100000002239,
          "durationTicks": 96,
          "midi": 57,
          "name": "A3",
          "ticks": 159026,
          "time": 184.05768631249998,
          "velocity": 0.49606299212598426
        },
        {
          "duration": 0.11111099999999396,
          "durationTicks": 96,
          "midi": 54,
          "name": "F#3",
          "ticks": 159168,
          "time": 184.222038,
          "velocity": 0.49606299212598426
        },
        {
          "duration": 0.44444399999997586,
          "durationTicks": 384,
          "midi": 56,
          "name": "G#3",
          "ticks": 159360,
          "time": 184.44426,
          "velocity": 0.49606299212598426
        },
        {
          "duration": 0.11111100000002239,
          "durationTicks": 96,
          "midi": 61,
          "name": "C#4",
          "ticks": 159744,
          "time": 184.888704,
          "velocity": 0.49606299212598426
        },
        {
          "duration": 0.11111099999999396,
          "durationTicks": 96,
          "midi": 61,
          "name": "C#4",
          "ticks": 159840,
          "time": 184.999815,
          "velocity": 0.49606299212598426
        },
        {
          "duration": 0.11111099999999396,
          "durationTicks": 96,
          "midi": 56,
          "name": "G#3",
          "ticks": 159936,
          "time": 185.110926,
          "velocity": 0.49606299212598426
        },
        {
          "duration": 0.11111099999999396,
          "durationTicks": 96,
          "midi": 57,
          "name": "A3",
          "ticks": 160032,
          "time": 185.222037,
          "velocity": 0.49606299212598426
        },
        {
          "duration": 0.11111099999999396,
          "durationTicks": 96,
          "midi": 56,
          "name": "G#3",
          "ticks": 160128,
          "time": 185.333148,
          "velocity": 0.49606299212598426
        },
        {
          "duration": 0.11111100000002239,
          "durationTicks": 96,
          "midi": 57,
          "name": "A3",
          "ticks": 160224,
          "time": 185.444259,
          "velocity": 0.49606299212598426
        },
        {
          "duration": 0.11111099999999396,
          "durationTicks": 96,
          "midi": 54,
          "name": "F#3",
          "ticks": 160320,
          "time": 185.55537,
          "velocity": 0.49606299212598426
        },
        {
          "duration": 0.11111099999999396,
          "durationTicks": 96,
          "midi": 57,
          "name": "A3",
          "ticks": 160416,
          "time": 185.666481,
          "velocity": 0.49606299212598426
        },
        {
          "duration": 0.11111099999999396,
          "durationTicks": 96,
          "midi": 56,
          "name": "G#3",
          "ticks": 160512,
          "time": 185.777592,
          "velocity": 0.49606299212598426
        },
        {
          "duration": 0.11111099999999396,
          "durationTicks": 96,
          "midi": 61,
          "name": "C#4",
          "ticks": 160704,
          "time": 185.99981400000001,
          "velocity": 0.49606299212598426
        },
        {
          "duration": 0.11111099999999396,
          "durationTicks": 96,
          "midi": 63,
          "name": "D#4",
          "ticks": 160896,
          "time": 186.222036,
          "velocity": 0.49606299212598426
        },
        {
          "duration": 0.11111099999999396,
          "durationTicks": 96,
          "midi": 64,
          "name": "E4",
          "ticks": 160944,
          "time": 186.2775915,
          "velocity": 0.49606299212598426
        },
        {
          "duration": 0.11111099999999396,
          "durationTicks": 96,
          "midi": 63,
          "name": "D#4",
          "ticks": 160992,
          "time": 186.333147,
          "velocity": 0.49606299212598426
        },
        {
          "duration": 0.11111100000002239,
          "durationTicks": 96,
          "midi": 61,
          "name": "C#4",
          "ticks": 161088,
          "time": 186.444258,
          "velocity": 0.49606299212598426
        },
        {
          "duration": 0.11111099999999396,
          "durationTicks": 96,
          "midi": 57,
          "name": "A3",
          "ticks": 161280,
          "time": 186.66648,
          "velocity": 0.49606299212598426
        },
        {
          "duration": 0.11111099999999396,
          "durationTicks": 96,
          "midi": 57,
          "name": "A3",
          "ticks": 161376,
          "time": 186.777591,
          "velocity": 0.49606299212598426
        },
        {
          "duration": 0.11111099999999396,
          "durationTicks": 96,
          "midi": 54,
          "name": "F#3",
          "ticks": 161472,
          "time": 186.888702,
          "velocity": 0.49606299212598426
        },
        {
          "duration": 0.11111100000002239,
          "durationTicks": 96,
          "midi": 52,
          "name": "E3",
          "ticks": 161568,
          "time": 186.999813,
          "velocity": 0.49606299212598426
        },
        {
          "duration": 0.11111099999999396,
          "durationTicks": 96,
          "midi": 56,
          "name": "G#3",
          "ticks": 161664,
          "time": 187.110924,
          "velocity": 0.49606299212598426
        },
        {
          "duration": 0.11111099999999396,
          "durationTicks": 96,
          "midi": 59,
          "name": "B3",
          "ticks": 161760,
          "time": 187.222035,
          "velocity": 0.49606299212598426
        },
        {
          "duration": 0.11111099999999396,
          "durationTicks": 96,
          "midi": 54,
          "name": "F#3",
          "ticks": 161856,
          "time": 187.333146,
          "velocity": 0.49606299212598426
        },
        {
          "duration": 0.11111100000002239,
          "durationTicks": 96,
          "midi": 59,
          "name": "B3",
          "ticks": 161952,
          "time": 187.444257,
          "velocity": 0.49606299212598426
        },
        {
          "duration": 0.11111099999999396,
          "durationTicks": 96,
          "midi": 52,
          "name": "E3",
          "ticks": 162048,
          "time": 187.55536800000002,
          "velocity": 0.49606299212598426
        },
        {
          "duration": 0.11111099999999396,
          "durationTicks": 96,
          "midi": 56,
          "name": "G#3",
          "ticks": 162240,
          "time": 187.77759,
          "velocity": 0.49606299212598426
        },
        {
          "duration": 0.4444440000000043,
          "durationTicks": 384,
          "midi": 52,
          "name": "E3",
          "ticks": 162432,
          "time": 187.999812,
          "velocity": 0.49606299212598426
        },
        {
          "duration": 0.22222200000001635,
          "durationTicks": 192,
          "midi": 61,
          "name": "C#4",
          "ticks": 164736,
          "time": 190.666476,
          "velocity": 0.49606299212598426
        },
        {
          "duration": 0.22222199999998793,
          "durationTicks": 192,
          "midi": 59,
          "name": "B3",
          "ticks": 164928,
          "time": 190.888698,
          "velocity": 0.49606299212598426
        },
        {
          "duration": 0.4444440000000043,
          "durationTicks": 384,
          "midi": 61,
          "name": "C#4",
          "ticks": 165120,
          "time": 191.11092,
          "velocity": 0.49606299212598426
        },
        {
          "duration": 0.22222200000001635,
          "durationTicks": 192,
          "midi": 49,
          "name": "C#3",
          "ticks": 165504,
          "time": 191.555364,
          "velocity": 0.49606299212598426
        },
        {
          "duration": 0.22222199999998793,
          "durationTicks": 192,
          "midi": 51,
          "name": "D#3",
          "ticks": 165696,
          "time": 191.777586,
          "velocity": 0.49606299212598426
        },
        {
          "duration": 0.22222199999998793,
          "durationTicks": 192,
          "midi": 52,
          "name": "E3",
          "ticks": 165888,
          "time": 191.999808,
          "velocity": 0.49606299212598426
        },
        {
          "duration": 0.22222200000001635,
          "durationTicks": 192,
          "midi": 61,
          "name": "C#4",
          "ticks": 166080,
          "time": 192.22203,
          "velocity": 0.49606299212598426
        },
        {
          "duration": 0.22222199999998793,
          "durationTicks": 192,
          "midi": 59,
          "name": "B3",
          "ticks": 166272,
          "time": 192.444252,
          "velocity": 0.49606299212598426
        },
        {
          "duration": 0.4444440000000043,
          "durationTicks": 384,
          "midi": 56,
          "name": "G#3",
          "ticks": 166464,
          "time": 192.666474,
          "velocity": 0.49606299212598426
        },
        {
          "duration": 0.22222200000001635,
          "durationTicks": 192,
          "midi": 54,
          "name": "F#3",
          "ticks": 166848,
          "time": 193.110918,
          "velocity": 0.49606299212598426
        },
        {
          "duration": 0.44444399999997586,
          "durationTicks": 384,
          "midi": 52,
          "name": "E3",
          "ticks": 167040,
          "time": 193.33314000000001,
          "velocity": 0.49606299212598426
        },
        {
          "duration": 0.6666660000000206,
          "durationTicks": 576,
          "midi": 54,
          "name": "F#3",
          "ticks": 167424,
          "time": 193.777584,
          "velocity": 0.49606299212598426
        },
        {
          "duration": 0.22222199999998793,
          "durationTicks": 192,
          "midi": 52,
          "name": "E3",
          "ticks": 168000,
          "time": 194.44425,
          "velocity": 0.49606299212598426
        },
        {
          "duration": 0.6666659999999922,
          "durationTicks": 576,
          "midi": 54,
          "name": "F#3",
          "ticks": 168192,
          "time": 194.666472,
          "velocity": 0.49606299212598426
        },
        {
          "duration": 0.22222200000001635,
          "durationTicks": 192,
          "midi": 52,
          "name": "E3",
          "ticks": 168768,
          "time": 195.333138,
          "velocity": 0.49606299212598426
        },
        {
          "duration": 0.22222199999998793,
          "durationTicks": 192,
          "midi": 54,
          "name": "F#3",
          "ticks": 168960,
          "time": 195.55536,
          "velocity": 0.49606299212598426
        },
        {
          "duration": 0.22222200000001635,
          "durationTicks": 192,
          "midi": 52,
          "name": "E3",
          "ticks": 169152,
          "time": 195.777582,
          "velocity": 0.49606299212598426
        },
        {
          "duration": 0.22222199999998793,
          "durationTicks": 192,
          "midi": 56,
          "name": "G#3",
          "ticks": 169344,
          "time": 195.999804,
          "velocity": 0.49606299212598426
        },
        {
          "duration": 0.4444440000000043,
          "durationTicks": 384,
          "midi": 54,
          "name": "F#3",
          "ticks": 169536,
          "time": 196.222026,
          "velocity": 0.49606299212598426
        },
        {
          "duration": 0.22222199999998793,
          "durationTicks": 192,
          "midi": 54,
          "name": "F#3",
          "ticks": 169920,
          "time": 196.66647,
          "velocity": 0.49606299212598426
        },
        {
          "duration": 0.4444440000000043,
          "durationTicks": 384,
          "midi": 52,
          "name": "E3",
          "ticks": 170112,
          "time": 196.888692,
          "velocity": 0.49606299212598426
        },
        {
          "duration": 0.22222199999998793,
          "durationTicks": 192,
          "midi": 52,
          "name": "E3",
          "ticks": 170688,
          "time": 197.555358,
          "velocity": 0.49606299212598426
        },
        {
          "duration": 0.22222200000001635,
          "durationTicks": 192,
          "midi": 56,
          "name": "G#3",
          "ticks": 170880,
          "time": 197.77758,
          "velocity": 0.49606299212598426
        },
        {
          "duration": 0.22222199999998793,
          "durationTicks": 192,
          "midi": 61,
          "name": "C#4",
          "ticks": 171072,
          "time": 197.99980200000002,
          "velocity": 0.49606299212598426
        },
        {
          "duration": 0.4444440000000043,
          "durationTicks": 384,
          "midi": 64,
          "name": "E4",
          "ticks": 171264,
          "time": 198.222024,
          "velocity": 0.49606299212598426
        },
        {
          "duration": 0.05555549999999698,
          "durationTicks": 48,
          "midi": 63,
          "name": "D#4",
          "ticks": 171552,
          "time": 198.55535700000001,
          "velocity": 0.49606299212598426
        },
        {
          "duration": 0.05555549999999698,
          "durationTicks": 48,
          "midi": 62,
          "name": "D4",
          "ticks": 171600,
          "time": 198.6109125,
          "velocity": 0.49606299212598426
        },
        {
          "duration": 0.4444440000000043,
          "durationTicks": 384,
          "midi": 61,
          "name": "C#4",
          "ticks": 171648,
          "time": 198.666468,
          "velocity": 0.49606299212598426
        },
        {
          "duration": 0.22222199999998793,
          "durationTicks": 192,
          "midi": 60,
          "name": "C4",
          "ticks": 172032,
          "time": 199.110912,
          "velocity": 0.49606299212598426
        },
        {
          "duration": 0.22222199999998793,
          "durationTicks": 192,
          "midi": 61,
          "name": "C#4",
          "ticks": 172224,
          "time": 199.333134,
          "velocity": 0.49606299212598426
        },
        {
          "duration": 0.4444440000000043,
          "durationTicks": 384,
          "midi": 63,
          "name": "D#4",
          "ticks": 172416,
          "time": 199.555356,
          "velocity": 0.49606299212598426
        },
        {
          "duration": 0.4444440000000043,
          "durationTicks": 384,
          "midi": 64,
          "name": "E4",
          "ticks": 172800,
          "time": 199.9998,
          "velocity": 0.49606299212598426
        },
        {
          "duration": 0.4444440000000043,
          "durationTicks": 384,
          "midi": 61,
          "name": "C#4",
          "ticks": 173184,
          "time": 200.444244,
          "velocity": 0.49606299212598426
        },
        {
          "duration": 0.22222200000001635,
          "durationTicks": 192,
          "midi": 52,
          "name": "E3",
          "ticks": 173760,
          "time": 201.11091,
          "velocity": 0.49606299212598426
        },
        {
          "duration": 0.22222199999998793,
          "durationTicks": 192,
          "midi": 56,
          "name": "G#3",
          "ticks": 173952,
          "time": 201.333132,
          "velocity": 0.49606299212598426
        },
        {
          "duration": 0.22222200000001635,
          "durationTicks": 192,
          "midi": 61,
          "name": "C#4",
          "ticks": 174144,
          "time": 201.555354,
          "velocity": 0.49606299212598426
        },
        {
          "duration": 0.4444440000000043,
          "durationTicks": 384,
          "midi": 66,
          "name": "F#4",
          "ticks": 174336,
          "time": 201.777576,
          "velocity": 0.49606299212598426
        },
        {
          "duration": 0.44444399999997586,
          "durationTicks": 384,
          "midi": 61,
          "name": "C#4",
          "ticks": 174720,
          "time": 202.22202000000001,
          "velocity": 0.49606299212598426
        },
        {
          "duration": 0.22222200000001635,
          "durationTicks": 192,
          "midi": 59,
          "name": "B3",
          "ticks": 175104,
          "time": 202.666464,
          "velocity": 0.49606299212598426
        },
        {
          "duration": 0.22222199999998793,
          "durationTicks": 192,
          "midi": 61,
          "name": "C#4",
          "ticks": 175296,
          "time": 202.888686,
          "velocity": 0.49606299212598426
        },
        {
          "duration": 0.22222200000001635,
          "durationTicks": 192,
          "midi": 63,
          "name": "D#4",
          "ticks": 175488,
          "time": 203.110908,
          "velocity": 0.49606299212598426
        },
        {
          "duration": 0.22222199999998793,
          "durationTicks": 192,
          "midi": 64,
          "name": "E4",
          "ticks": 175680,
          "time": 203.33313,
          "velocity": 0.49606299212598426
        },
        {
          "duration": 0.22222200000001635,
          "durationTicks": 192,
          "midi": 63,
          "name": "D#4",
          "ticks": 175872,
          "time": 203.555352,
          "velocity": 0.49606299212598426
        },
        {
          "duration": 0.22222199999998793,
          "durationTicks": 192,
          "midi": 61,
          "name": "C#4",
          "ticks": 176064,
          "time": 203.77757400000002,
          "velocity": 0.49606299212598426
        },
        {
          "duration": 0.4444440000000043,
          "durationTicks": 384,
          "midi": 61,
          "name": "C#4",
          "ticks": 176256,
          "time": 203.999796,
          "velocity": 0.49606299212598426
        },
        {
          "duration": 0.22222199999998793,
          "durationTicks": 192,
          "midi": 57,
          "name": "A3",
          "ticks": 176640,
          "time": 204.44424,
          "velocity": 0.49606299212598426
        },
        {
          "duration": 0.22222200000001635,
          "durationTicks": 192,
          "midi": 57,
          "name": "A3",
          "ticks": 176832,
          "time": 204.666462,
          "velocity": 0.49606299212598426
        },
        {
          "duration": 0.22222199999998793,
          "durationTicks": 192,
          "midi": 73,
          "name": "C#5",
          "ticks": 177024,
          "time": 204.888684,
          "velocity": 0.49606299212598426
        },
        {
          "duration": 0.6666659999999922,
          "durationTicks": 576,
          "midi": 68,
          "name": "G#4",
          "ticks": 177408,
          "time": 205.33312800000002,
          "velocity": 0.49606299212598426
        },
        {
          "duration": 0.4444440000000043,
          "durationTicks": 384,
          "midi": 67,
          "name": "G4",
          "ticks": 177984,
          "time": 205.999794,
          "velocity": 0.49606299212598426
        },
        {
          "duration": 0.44444399999997586,
          "durationTicks": 384,
          "midi": 66,
          "name": "F#4",
          "ticks": 178368,
          "time": 206.444238,
          "velocity": 0.49606299212598426
        },
        {
          "duration": 0.4444440000000043,
          "durationTicks": 384,
          "midi": 64,
          "name": "E4",
          "ticks": 178752,
          "time": 206.888682,
          "velocity": 0.49606299212598426
        },
        {
          "duration": 0.22222200000001635,
          "durationTicks": 192,
          "midi": 61,
          "name": "C#4",
          "ticks": 179136,
          "time": 207.333126,
          "velocity": 0.49606299212598426
        },
        {
          "duration": 0.22222199999998793,
          "durationTicks": 192,
          "midi": 64,
          "name": "E4",
          "ticks": 179328,
          "time": 207.555348,
          "velocity": 0.49606299212598426
        },
        {
          "duration": 0.22222200000001635,
          "durationTicks": 192,
          "midi": 66,
          "name": "F#4",
          "ticks": 179520,
          "time": 207.77757,
          "velocity": 0.49606299212598426
        },
        {
          "duration": 0.22222199999998793,
          "durationTicks": 192,
          "midi": 61,
          "name": "C#4",
          "ticks": 179712,
          "time": 207.999792,
          "velocity": 0.49606299212598426
        },
        {
          "duration": 0.22222199999998793,
          "durationTicks": 192,
          "midi": 61,
          "name": "C#4",
          "ticks": 179904,
          "time": 208.222014,
          "velocity": 0.49606299212598426
        },
        {
          "duration": 0.22222200000001635,
          "durationTicks": 192,
          "midi": 73,
          "name": "C#5",
          "ticks": 180096,
          "time": 208.444236,
          "velocity": 0.49606299212598426
        },
        {
          "duration": 0.6666660000000206,
          "durationTicks": 576,
          "midi": 68,
          "name": "G#4",
          "ticks": 180480,
          "time": 208.88868,
          "velocity": 0.49606299212598426
        },
        {
          "duration": 0.44444399999997586,
          "durationTicks": 384,
          "midi": 67,
          "name": "G4",
          "ticks": 181056,
          "time": 209.55534600000001,
          "velocity": 0.49606299212598426
        },
        {
          "duration": 0.4444440000000043,
          "durationTicks": 384,
          "midi": 66,
          "name": "F#4",
          "ticks": 181440,
          "time": 209.99979,
          "velocity": 0.49606299212598426
        },
        {
          "duration": 0.4444440000000043,
          "durationTicks": 384,
          "midi": 64,
          "name": "E4",
          "ticks": 181824,
          "time": 210.444234,
          "velocity": 0.49606299212598426
        },
        {
          "duration": 0.22222200000001635,
          "durationTicks": 192,
          "midi": 61,
          "name": "C#4",
          "ticks": 182208,
          "time": 210.888678,
          "velocity": 0.49606299212598426
        },
        {
          "duration": 0.22222199999998793,
          "durationTicks": 192,
          "midi": 64,
          "name": "E4",
          "ticks": 182400,
          "time": 211.11090000000002,
          "velocity": 0.49606299212598426
        },
        {
          "duration": 0.22222199999998793,
          "durationTicks": 192,
          "midi": 66,
          "name": "F#4",
          "ticks": 182592,
          "time": 211.333122,
          "velocity": 0.49606299212598426
        },
        {
          "duration": 0.4444440000000043,
          "durationTicks": 384,
          "midi": 73,
          "name": "C#5",
          "ticks": 182784,
          "time": 211.555344,
          "velocity": 0.49606299212598426
        },
        {
          "duration": 0.4444440000000043,
          "durationTicks": 384,
          "midi": 68,
          "name": "G#4",
          "ticks": 183168,
          "time": 211.999788,
          "velocity": 0.49606299212598426
        },
        {
          "duration": 0.4444440000000043,
          "durationTicks": 384,
          "midi": 69,
          "name": "A4",
          "ticks": 183552,
          "time": 212.444232,
          "velocity": 0.49606299212598426
        },
        {
          "duration": 0.4444440000000043,
          "durationTicks": 384,
          "midi": 66,
          "name": "F#4",
          "ticks": 183936,
          "time": 212.888676,
          "velocity": 0.49606299212598426
        },
        {
          "duration": 0.4444440000000043,
          "durationTicks": 384,
          "midi": 68,
          "name": "G#4",
          "ticks": 184320,
          "time": 213.33312,
          "velocity": 0.49606299212598426
        },
        {
          "duration": 0.4444440000000043,
          "durationTicks": 384,
          "midi": 73,
          "name": "C#5",
          "ticks": 184704,
          "time": 213.777564,
          "velocity": 0.49606299212598426
        },
        {
          "duration": 0.22222199999998793,
          "durationTicks": 192,
          "midi": 68,
          "name": "G#4",
          "ticks": 185088,
          "time": 214.22200800000002,
          "velocity": 0.49606299212598426
        },
        {
          "duration": 0.22222199999998793,
          "durationTicks": 192,
          "midi": 66,
          "name": "F#4",
          "ticks": 185280,
          "time": 214.44423,
          "velocity": 0.49606299212598426
        },
        {
          "duration": 0.4444440000000043,
          "durationTicks": 384,
          "midi": 64,
          "name": "E4",
          "ticks": 185472,
          "time": 214.666452,
          "velocity": 0.49606299212598426
        },
        {
          "duration": 0.4444440000000043,
          "durationTicks": 384,
          "midi": 69,
          "name": "A4",
          "ticks": 185856,
          "time": 215.110896,
          "velocity": 0.49606299212598426
        },
        {
          "duration": 0.22222199999998793,
          "durationTicks": 192,
          "midi": 68,
          "name": "G#4",
          "ticks": 186240,
          "time": 215.55534,
          "velocity": 0.49606299212598426
        },
        {
          "duration": 0.11111100000002239,
          "durationTicks": 96,
          "midi": 68,
          "name": "G#4",
          "ticks": 186432,
          "time": 215.777562,
          "velocity": 0.49606299212598426
        },
        {
          "duration": 0.11111099999999396,
          "durationTicks": 96,
          "midi": 69,
          "name": "A4",
          "ticks": 186528,
          "time": 215.888673,
          "velocity": 0.49606299212598426
        },
        {
          "duration": 0.22222199999998793,
          "durationTicks": 192,
          "midi": 68,
          "name": "G#4",
          "ticks": 186624,
          "time": 215.999784,
          "velocity": 0.49606299212598426
        },
        {
          "duration": 0.22222200000001635,
          "durationTicks": 192,
          "midi": 66,
          "name": "F#4",
          "ticks": 186816,
          "time": 216.222006,
          "velocity": 0.49606299212598426
        },
        {
          "duration": 0.22222199999998793,
          "durationTicks": 192,
          "midi": 64,
          "name": "E4",
          "ticks": 187008,
          "time": 216.444228,
          "velocity": 0.49606299212598426
        },
        {
          "duration": 0.22222200000001635,
          "durationTicks": 192,
          "midi": 66,
          "name": "F#4",
          "ticks": 187200,
          "time": 216.66645,
          "velocity": 0.49606299212598426
        },
        {
          "duration": 0.44444399999997586,
          "durationTicks": 384,
          "midi": 63,
          "name": "D#4",
          "ticks": 187392,
          "time": 216.888672,
          "velocity": 0.49606299212598426
        },
        {
          "duration": 0.4444440000000043,
          "durationTicks": 384,
          "midi": 68,
          "name": "G#4",
          "ticks": 187776,
          "time": 217.333116,
          "velocity": 0.49606299212598426
        },
        {
          "duration": 2.5555530000000033,
          "durationTicks": 2208,
          "midi": 61,
          "name": "C#4",
          "ticks": 188160,
          "time": 217.77756,
          "velocity": 0.49606299212598426
        }
      ],
      "endOfTrackTicks": 190368
    },
    {
      "channel": 1,
      "controlChanges": {},
      "pitchBends": [],
      "instrument": {
        "family": "piano",
        "number": 0,
        "name": "acoustic grand piano"
      },
      "name": "Grand Piano (Classic)",
      "notes": [
        {
          "duration": 0.11111100000000107,
          "durationTicks": 96,
          "midi": 73,
          "name": "C#5",
          "ticks": 36864,
          "time": 42.666624,
          "velocity": 0.3937007874015748
        },
        {
          "duration": 0.11111100000000107,
          "durationTicks": 96,
          "midi": 73,
          "name": "C#5",
          "ticks": 37056,
          "time": 42.888846,
          "velocity": 0.3937007874015748
        },
        {
          "duration": 0.11111099999999396,
          "durationTicks": 96,
          "midi": 73,
          "name": "C#5",
          "ticks": 37248,
          "time": 43.111068,
          "velocity": 0.3937007874015748
        },
        {
          "duration": 0.11111100000000107,
          "durationTicks": 96,
          "midi": 73,
          "name": "C#5",
          "ticks": 37440,
          "time": 43.33329,
          "velocity": 0.3937007874015748
        },
        {
          "duration": 0.11111100000000107,
          "durationTicks": 96,
          "midi": 73,
          "name": "C#5",
          "ticks": 37632,
          "time": 43.555512,
          "velocity": 0.3937007874015748
        },
        {
          "duration": 0.11111100000000107,
          "durationTicks": 96,
          "midi": 73,
          "name": "C#5",
          "ticks": 37824,
          "time": 43.777734,
          "velocity": 0.3937007874015748
        },
        {
          "duration": 0.11111100000000107,
          "durationTicks": 96,
          "midi": 73,
          "name": "C#5",
          "ticks": 38016,
          "time": 43.999956,
          "velocity": 0.3937007874015748
        },
        {
          "duration": 0.11111100000000107,
          "durationTicks": 96,
          "midi": 73,
          "name": "C#5",
          "ticks": 38208,
          "time": 44.222178,
          "velocity": 0.3937007874015748
        },
        {
          "duration": 0.11111100000000107,
          "durationTicks": 96,
          "midi": 73,
          "name": "C#5",
          "ticks": 38400,
          "time": 44.4444,
          "velocity": 0.3937007874015748
        },
        {
          "duration": 0.11111099999999396,
          "durationTicks": 96,
          "midi": 73,
          "name": "C#5",
          "ticks": 38592,
          "time": 44.666622000000004,
          "velocity": 0.3937007874015748
        },
        {
          "duration": 0.11111100000000107,
          "durationTicks": 96,
          "midi": 73,
          "name": "C#5",
          "ticks": 38784,
          "time": 44.888844,
          "velocity": 0.3937007874015748
        },
        {
          "duration": 0.11111100000000107,
          "durationTicks": 96,
          "midi": 73,
          "name": "C#5",
          "ticks": 38976,
          "time": 45.111066,
          "velocity": 0.3937007874015748
        },
        {
          "duration": 0.11111099999999396,
          "durationTicks": 96,
          "midi": 73,
          "name": "C#5",
          "ticks": 39168,
          "time": 45.333288,
          "velocity": 0.3937007874015748
        },
        {
          "duration": 0.11111100000000107,
          "durationTicks": 96,
          "midi": 73,
          "name": "C#5",
          "ticks": 39360,
          "time": 45.55551,
          "velocity": 0.3937007874015748
        },
        {
          "duration": 0.11111100000000107,
          "durationTicks": 96,
          "midi": 73,
          "name": "C#5",
          "ticks": 39552,
          "time": 45.777732,
          "velocity": 0.3937007874015748
        },
        {
          "duration": 0.11111100000000107,
          "durationTicks": 96,
          "midi": 75,
          "name": "D#5",
          "ticks": 39744,
          "time": 45.999954,
          "velocity": 0.3937007874015748
        },
        {
          "duration": 0.11111100000000107,
          "durationTicks": 96,
          "midi": 73,
          "name": "C#5",
          "ticks": 39936,
          "time": 46.222176,
          "velocity": 0.3937007874015748
        },
        {
          "duration": 0.11111100000000107,
          "durationTicks": 96,
          "midi": 73,
          "name": "C#5",
          "ticks": 40128,
          "time": 46.444398,
          "velocity": 0.3937007874015748
        },
        {
          "duration": 0.11111100000000107,
          "durationTicks": 96,
          "midi": 73,
          "name": "C#5",
          "ticks": 40320,
          "time": 46.66662,
          "velocity": 0.3937007874015748
        },
        {
          "duration": 0.11111099999999396,
          "durationTicks": 96,
          "midi": 75,
          "name": "D#5",
          "ticks": 40512,
          "time": 46.888842000000004,
          "velocity": 0.3937007874015748
        },
        {
          "duration": 0.11111100000000107,
          "durationTicks": 96,
          "midi": 73,
          "name": "C#5",
          "ticks": 40704,
          "time": 47.111064,
          "velocity": 0.3937007874015748
        },
        {
          "duration": 0.11111100000000107,
          "durationTicks": 96,
          "midi": 73,
          "name": "C#5",
          "ticks": 40896,
          "time": 47.333286,
          "velocity": 0.3937007874015748
        },
        {
          "duration": 0.11111099999999396,
          "durationTicks": 96,
          "midi": 73,
          "name": "C#5",
          "ticks": 41088,
          "time": 47.555508,
          "velocity": 0.3937007874015748
        },
        {
          "duration": 0.11111100000000107,
          "durationTicks": 96,
          "midi": 73,
          "name": "C#5",
          "ticks": 41280,
          "time": 47.77773,
          "velocity": 0.3937007874015748
        },
        {
          "duration": 0.11111100000000107,
          "durationTicks": 96,
          "midi": 73,
          "name": "C#5",
          "ticks": 41472,
          "time": 47.999952,
          "velocity": 0.3937007874015748
        },
        {
          "duration": 0.11111100000000107,
          "durationTicks": 96,
          "midi": 73,
          "name": "C#5",
          "ticks": 41664,
          "time": 48.222174,
          "velocity": 0.3937007874015748
        },
        {
          "duration": 0.11111100000000107,
          "durationTicks": 96,
          "midi": 73,
          "name": "C#5",
          "ticks": 41856,
          "time": 48.444396,
          "velocity": 0.3937007874015748
        },
        {
          "duration": 0.11111100000000107,
          "durationTicks": 96,
          "midi": 73,
          "name": "C#5",
          "ticks": 42048,
          "time": 48.666618,
          "velocity": 0.3937007874015748
        },
        {
          "duration": 0.11111100000000107,
          "durationTicks": 96,
          "midi": 73,
          "name": "C#5",
          "ticks": 42240,
          "time": 48.88884,
          "velocity": 0.3937007874015748
        },
        {
          "duration": 0.11111099999999396,
          "durationTicks": 96,
          "midi": 73,
          "name": "C#5",
          "ticks": 42432,
          "time": 49.111062000000004,
          "velocity": 0.3937007874015748
        },
        {
          "duration": 0.11111100000000107,
          "durationTicks": 96,
          "midi": 73,
          "name": "C#5",
          "ticks": 42624,
          "time": 49.333284,
          "velocity": 0.3937007874015748
        },
        {
          "duration": 0.11111100000000107,
          "durationTicks": 96,
          "midi": 73,
          "name": "C#5",
          "ticks": 42816,
          "time": 49.555506,
          "velocity": 0.3937007874015748
        },
        {
          "duration": 0.22222199999998793,
          "durationTicks": 192,
          "midi": 47,
          "name": "B2",
          "ticks": 128832,
          "time": 149.110962,
          "velocity": 0.3937007874015748
        },
        {
          "duration": 0.22222199999998793,
          "durationTicks": 192,
          "midi": 47,
          "name": "B2",
          "ticks": 128832,
          "time": 149.110962,
          "velocity": 0.3937007874015748
        },
        {
          "duration": 0.22222200000001635,
          "durationTicks": 192,
          "midi": 64,
          "name": "E4",
          "ticks": 130368,
          "time": 150.888738,
          "velocity": 0.3937007874015748
        },
        {
          "duration": 0.22222200000001635,
          "durationTicks": 192,
          "midi": 64,
          "name": "E4",
          "ticks": 130368,
          "time": 150.888738,
          "velocity": 0.3937007874015748
        },
        {
          "duration": 0.22222199999998793,
          "durationTicks": 192,
          "midi": 27,
          "name": "D#1",
          "ticks": 131904,
          "time": 152.666514,
          "velocity": 0.3937007874015748
        },
        {
          "duration": 0.22222199999998793,
          "durationTicks": 192,
          "midi": 27,
          "name": "D#1",
          "ticks": 131904,
          "time": 152.666514,
          "velocity": 0.3937007874015748
        },
        {
          "duration": 0.22222200000001635,
          "durationTicks": 192,
          "midi": 40,
          "name": "E2",
          "ticks": 133440,
          "time": 154.44429,
          "velocity": 0.3937007874015748
        },
        {
          "duration": 0.22222200000001635,
          "durationTicks": 192,
          "midi": 40,
          "name": "E2",
          "ticks": 133440,
          "time": 154.44429,
          "velocity": 0.3937007874015748
        },
        {
          "duration": 0.22222199999998793,
          "durationTicks": 192,
          "midi": 56,
          "name": "G#3",
          "ticks": 133632,
          "time": 154.666512,
          "velocity": 0.3937007874015748
        },
        {
          "duration": 0.22222199999998793,
          "durationTicks": 192,
          "midi": 56,
          "name": "G#3",
          "ticks": 133632,
          "time": 154.666512,
          "velocity": 0.3937007874015748
        },
        {
          "duration": 0.4444440000000043,
          "durationTicks": 384,
          "midi": 56,
          "name": "G#3",
          "ticks": 133632,
          "time": 154.666512,
          "velocity": 0.3937007874015748
        },
        {
          "duration": 0.11111099999999396,
          "durationTicks": 96,
          "midi": 47,
          "name": "B2",
          "ticks": 136896,
          "time": 158.444286,
          "velocity": 0.3937007874015748
        },
        {
          "duration": 0.22222199999998793,
          "durationTicks": 192,
          "midi": 74,
          "name": "D5",
          "ticks": 136896,
          "time": 158.444286,
          "velocity": 0.3937007874015748
        },
        {
          "duration": 0.11111100000002239,
          "durationTicks": 96,
          "midi": 46,
          "name": "A#2",
          "ticks": 137088,
          "time": 158.666508,
          "velocity": 0.3937007874015748
        },
        {
          "duration": 0.22222200000001635,
          "durationTicks": 192,
          "midi": 69,
          "name": "A4",
          "ticks": 137088,
          "time": 158.666508,
          "velocity": 0.3937007874015748
        },
        {
          "duration": 0.11111099999999396,
          "durationTicks": 96,
          "midi": 45,
          "name": "A2",
          "ticks": 137280,
          "time": 158.88873,
          "velocity": 0.3937007874015748
        },
        {
          "duration": 0.22222199999998793,
          "durationTicks": 192,
          "midi": 68,
          "name": "G#4",
          "ticks": 137376,
          "time": 158.999841,
          "velocity": 0.3937007874015748
        },
        {
          "duration": 0.11111099999999396,
          "durationTicks": 96,
          "midi": 44,
          "name": "G#2",
          "ticks": 137472,
          "time": 159.110952,
          "velocity": 0.3937007874015748
        },
        {
          "duration": 0.22222200000001635,
          "durationTicks": 192,
          "midi": 67,
          "name": "G4",
          "ticks": 137568,
          "time": 159.222063,
          "velocity": 0.3937007874015748
        },
        {
          "duration": 0.11111099999999396,
          "durationTicks": 96,
          "midi": 43,
          "name": "G2",
          "ticks": 137664,
          "time": 159.333174,
          "velocity": 0.3937007874015748
        },
        {
          "duration": 0.22222199999998793,
          "durationTicks": 192,
          "midi": 65,
          "name": "F4",
          "ticks": 137760,
          "time": 159.444285,
          "velocity": 0.3937007874015748
        },
        {
          "duration": 0.11111099999999396,
          "durationTicks": 96,
          "midi": 42,
          "name": "F#2",
          "ticks": 137856,
          "time": 159.555396,
          "velocity": 0.3937007874015748
        },
        {
          "duration": 0.11111099999999396,
          "durationTicks": 96,
          "midi": 62,
          "name": "D4",
          "ticks": 137952,
          "time": 159.666507,
          "velocity": 0.3937007874015748
        },
        {
          "duration": 0.11111100000002239,
          "durationTicks": 96,
          "midi": 65,
          "name": "F4",
          "ticks": 138048,
          "time": 159.777618,
          "velocity": 0.3937007874015748
        },
        {
          "duration": 0.11111100000002239,
          "durationTicks": 96,
          "midi": 41,
          "name": "F2",
          "ticks": 138048,
          "time": 159.777618,
          "velocity": 0.3937007874015748
        },
        {
          "duration": 0.11111099999999396,
          "durationTicks": 96,
          "midi": 67,
          "name": "G4",
          "ticks": 138144,
          "time": 159.888729,
          "velocity": 0.3937007874015748
        },
        {
          "duration": 0.22222200000001635,
          "durationTicks": 192,
          "midi": 63,
          "name": "D#4",
          "ticks": 145152,
          "time": 167.999832,
          "velocity": 0.3937007874015748
        },
        {
          "duration": 0.11111099999999396,
          "durationTicks": 96,
          "midi": 61,
          "name": "C#4",
          "ticks": 145344,
          "time": 168.222054,
          "velocity": 0.3937007874015748
        },
        {
          "duration": 0.11111099999999396,
          "durationTicks": 96,
          "midi": 59,
          "name": "B3",
          "ticks": 145536,
          "time": 168.444276,
          "velocity": 0.3937007874015748
        },
        {
          "duration": 0.11111099999999396,
          "durationTicks": 96,
          "midi": 59,
          "name": "B3",
          "ticks": 146880,
          "time": 169.99983,
          "velocity": 0.3937007874015748
        },
        {
          "duration": 0.11111100000002239,
          "durationTicks": 96,
          "midi": 61,
          "name": "C#4",
          "ticks": 147072,
          "time": 170.222052,
          "velocity": 0.3937007874015748
        },
        {
          "duration": 0.11111099999999396,
          "durationTicks": 96,
          "midi": 63,
          "name": "D#4",
          "ticks": 147168,
          "time": 170.333163,
          "velocity": 0.3937007874015748
        },
        {
          "duration": 0.11111099999999396,
          "durationTicks": 96,
          "midi": 64,
          "name": "E4",
          "ticks": 147264,
          "time": 170.444274,
          "velocity": 0.3937007874015748
        },
        {
          "duration": 0.11111100000002239,
          "durationTicks": 96,
          "midi": 64,
          "name": "E4",
          "ticks": 149376,
          "time": 172.888716,
          "velocity": 0.3937007874015748
        },
        {
          "duration": 0.11111100000002239,
          "durationTicks": 96,
          "midi": 63,
          "name": "D#4",
          "ticks": 149760,
          "time": 173.33316,
          "velocity": 0.3937007874015748
        },
        {
          "duration": 0.11111099999999396,
          "durationTicks": 96,
          "midi": 61,
          "name": "C#4",
          "ticks": 150144,
          "time": 173.777604,
          "velocity": 0.3937007874015748
        },
        {
          "duration": 0.3333329999999819,
          "durationTicks": 288,
          "midi": 69,
          "name": "A4",
          "ticks": 162048,
          "time": 187.55536800000002,
          "velocity": 0.3937007874015748
        },
        {
          "duration": 0.22222200000001635,
          "durationTicks": 192,
          "midi": 68,
          "name": "G#4",
          "ticks": 162432,
          "time": 187.999812,
          "velocity": 0.3937007874015748
        },
        {
          "duration": 0.22222199999998793,
          "durationTicks": 192,
          "midi": 65,
          "name": "F4",
          "ticks": 162624,
          "time": 188.222034,
          "velocity": 0.3937007874015748
        },
        {
          "duration": 1.7777760000000171,
          "durationTicks": 1536,
          "midi": 61,
          "name": "C#4",
          "ticks": 162816,
          "time": 188.444256,
          "velocity": 0.3937007874015748
        },
        {
          "duration": 0.11111099999999396,
          "durationTicks": 96,
          "midi": 66,
          "name": "F#4",
          "ticks": 167808,
          "time": 194.222028,
          "velocity": 0.3937007874015748
        },
        {
          "duration": 0.11111099999999396,
          "durationTicks": 96,
          "midi": 54,
          "name": "F#3",
          "ticks": 167808,
          "time": 194.222028,
          "velocity": 0.3937007874015748
        },
        {
          "duration": 0.11111099999999396,
          "durationTicks": 96,
          "midi": 66,
          "name": "F#4",
          "ticks": 168576,
          "time": 195.110916,
          "velocity": 0.3937007874015748
        },
        {
          "duration": 0.11111099999999396,
          "durationTicks": 96,
          "midi": 54,
          "name": "F#3",
          "ticks": 168576,
          "time": 195.110916,
          "velocity": 0.3937007874015748
        },
        {
          "duration": 0.11111099999999396,
          "durationTicks": 96,
          "midi": 56,
          "name": "G#3",
          "ticks": 177600,
          "time": 205.55535,
          "velocity": 0.3937007874015748
        },
        {
          "duration": 0.11111099999999396,
          "durationTicks": 96,
          "midi": 68,
          "name": "G#4",
          "ticks": 177600,
          "time": 205.55535,
          "velocity": 0.3937007874015748
        },
        {
          "duration": 0.11111099999999396,
          "durationTicks": 96,
          "midi": 68,
          "name": "G#4",
          "ticks": 180864,
          "time": 209.333124,
          "velocity": 0.3937007874015748
        },
        {
          "duration": 0.11111099999999396,
          "durationTicks": 96,
          "midi": 56,
          "name": "G#3",
          "ticks": 180864,
          "time": 209.333124,
          "velocity": 0.3937007874015748
        },
        {
          "duration": 0.8888880000000086,
          "durationTicks": 768,
          "midi": 73,
          "name": "C#5",
          "ticks": 182784,
          "time": 211.555344,
          "velocity": 0.3937007874015748
        },
        {
          "duration": 0.4444440000000043,
          "durationTicks": 384,
          "midi": 69,
          "name": "A4",
          "ticks": 183552,
          "time": 212.444232,
          "velocity": 0.3937007874015748
        },
        {
          "duration": 0.4444440000000043,
          "durationTicks": 384,
          "midi": 73,
          "name": "C#5",
          "ticks": 183936,
          "time": 212.888676,
          "velocity": 0.3937007874015748
        },
        {
          "duration": 0.4444440000000043,
          "durationTicks": 384,
          "midi": 73,
          "name": "C#5",
          "ticks": 184320,
          "time": 213.33312,
          "velocity": 0.3937007874015748
        },
        {
          "duration": 0.4444440000000043,
          "durationTicks": 384,
          "midi": 68,
          "name": "G#4",
          "ticks": 184704,
          "time": 213.777564,
          "velocity": 0.3937007874015748
        },
        {
          "duration": 0.11111099999999396,
          "durationTicks": 96,
          "midi": 80,
          "name": "G#5",
          "ticks": 185088,
          "time": 214.22200800000002,
          "velocity": 0.3937007874015748
        },
        {
          "duration": 0.11111099999999396,
          "durationTicks": 96,
          "midi": 78,
          "name": "F#5",
          "ticks": 185280,
          "time": 214.44423,
          "velocity": 0.3937007874015748
        },
        {
          "duration": 0.11111100000002239,
          "durationTicks": 96,
          "midi": 76,
          "name": "E5",
          "ticks": 185472,
          "time": 214.666452,
          "velocity": 0.3937007874015748
        },
        {
          "duration": 0.3333330000000103,
          "durationTicks": 288,
          "midi": 81,
          "name": "A5",
          "ticks": 185856,
          "time": 215.110896,
          "velocity": 0.3937007874015748
        },
        {
          "duration": 0.11111099999999396,
          "durationTicks": 96,
          "midi": 80,
          "name": "G#5",
          "ticks": 186240,
          "time": 215.55534,
          "velocity": 0.3937007874015748
        },
        {
          "duration": 0.11111100000002239,
          "durationTicks": 96,
          "midi": 80,
          "name": "G#5",
          "ticks": 186432,
          "time": 215.777562,
          "velocity": 0.3937007874015748
        },
        {
          "duration": 0.11111099999999396,
          "durationTicks": 96,
          "midi": 81,
          "name": "A5",
          "ticks": 186528,
          "time": 215.888673,
          "velocity": 0.3937007874015748
        },
        {
          "duration": 0.11111099999999396,
          "durationTicks": 96,
          "midi": 80,
          "name": "G#5",
          "ticks": 186624,
          "time": 215.999784,
          "velocity": 0.3937007874015748
        },
        {
          "duration": 0.11111100000002239,
          "durationTicks": 96,
          "midi": 78,
          "name": "F#5",
          "ticks": 186816,
          "time": 216.222006,
          "velocity": 0.3937007874015748
        },
        {
          "duration": 0.11111099999999396,
          "durationTicks": 96,
          "midi": 76,
          "name": "E5",
          "ticks": 187008,
          "time": 216.444228,
          "velocity": 0.3937007874015748
        },
        {
          "duration": 0.11111099999999396,
          "durationTicks": 96,
          "midi": 78,
          "name": "F#5",
          "ticks": 187200,
          "time": 216.66645,
          "velocity": 0.3937007874015748
        },
        {
          "duration": 0.11111099999999396,
          "durationTicks": 96,
          "midi": 75,
          "name": "D#5",
          "ticks": 187392,
          "time": 216.888672,
          "velocity": 0.3937007874015748
        },
        {
          "duration": 0.11111100000002239,
          "durationTicks": 96,
          "midi": 80,
          "name": "G#5",
          "ticks": 187776,
          "time": 217.333116,
          "velocity": 0.3937007874015748
        }
      ],
      "endOfTrackTicks": 187872
    },
    {
      "channel": 2,
      "controlChanges": {},
      "pitchBends": [],
      "instrument": {
        "family": "strings",
        "number": 42,
        "name": "cello"
      },
      "name": "Cello",
      "notes": [
        {
          "duration": 0.44444399999999984,
          "durationTicks": 384,
          "midi": 61,
          "name": "C#4",
          "ticks": 5376,
          "time": 6.222216,
          "velocity": 0.6692913385826772
        },
        {
          "duration": 0.11111100000000018,
          "durationTicks": 96,
          "midi": 59,
          "name": "B3",
          "ticks": 5760,
          "time": 6.66666,
          "velocity": 0.6692913385826772
        },
        {
          "duration": 0.1111109999999993,
          "durationTicks": 96,
          "midi": 56,
          "name": "G#3",
          "ticks": 5856,
          "time": 6.777771,
          "velocity": 0.6692913385826772
        },
        {
          "duration": 0.11111100000000018,
          "durationTicks": 96,
          "midi": 54,
          "name": "F#3",
          "ticks": 5952,
          "time": 6.888882,
          "velocity": 0.6692913385826772
        },
        {
          "duration": 0.11111100000000018,
          "durationTicks": 96,
          "midi": 51,
          "name": "D#3",
          "ticks": 6048,
          "time": 6.999993,
          "velocity": 0.6692913385826772
        },
        {
          "duration": 0.11111100000000018,
          "durationTicks": 96,
          "midi": 49,
          "name": "C#3",
          "ticks": 6144,
          "time": 7.111104,
          "velocity": 0.6692913385826772
        },
        {
          "duration": 0.1111109999999993,
          "durationTicks": 96,
          "midi": 61,
          "name": "C#4",
          "ticks": 6336,
          "time": 7.3333260000000005,
          "velocity": 0.6692913385826772
        },
        {
          "duration": 0.11111100000000018,
          "durationTicks": 96,
          "midi": 49,
          "name": "C#3",
          "ticks": 6528,
          "time": 7.555548,
          "velocity": 0.6692913385826772
        },
        {
          "duration": 0.11111100000000018,
          "durationTicks": 96,
          "midi": 61,
          "name": "C#4",
          "ticks": 6720,
          "time": 7.77777,
          "velocity": 0.6692913385826772
        },
        {
          "duration": 0.11111100000000018,
          "durationTicks": 96,
          "midi": 49,
          "name": "C#3",
          "ticks": 6912,
          "time": 7.999992,
          "velocity": 0.6692913385826772
        },
        {
          "duration": 0.11111100000000107,
          "durationTicks": 96,
          "midi": 61,
          "name": "C#4",
          "ticks": 7104,
          "time": 8.222214,
          "velocity": 0.6692913385826772
        },
        {
          "duration": 0.11111100000000107,
          "durationTicks": 96,
          "midi": 49,
          "name": "C#3",
          "ticks": 7296,
          "time": 8.444436,
          "velocity": 0.6692913385826772
        },
        {
          "duration": 0.1111109999999993,
          "durationTicks": 96,
          "midi": 61,
          "name": "C#4",
          "ticks": 7488,
          "time": 8.666658,
          "velocity": 0.6692913385826772
        },
        {
          "duration": 0.1111109999999993,
          "durationTicks": 96,
          "midi": 47,
          "name": "B2",
          "ticks": 7680,
          "time": 8.88888,
          "velocity": 0.6692913385826772
        },
        {
          "duration": 0.1111109999999993,
          "durationTicks": 96,
          "midi": 59,
          "name": "B3",
          "ticks": 7872,
          "time": 9.111102,
          "velocity": 0.6692913385826772
        },
        {
          "duration": 0.11111100000000107,
          "durationTicks": 96,
          "midi": 47,
          "name": "B2",
          "ticks": 8064,
          "time": 9.333324,
          "velocity": 0.6692913385826772
        },
        {
          "duration": 0.11111100000000107,
          "durationTicks": 96,
          "midi": 59,
          "name": "B3",
          "ticks": 8256,
          "time": 9.555546,
          "velocity": 0.6692913385826772
        },
        {
          "duration": 0.1111109999999993,
          "durationTicks": 96,
          "midi": 48,
          "name": "C3",
          "ticks": 8448,
          "time": 9.777768,
          "velocity": 0.6692913385826772
        },
        {
          "duration": 0.1111109999999993,
          "durationTicks": 96,
          "midi": 60,
          "name": "C4",
          "ticks": 8640,
          "time": 9.99999,
          "velocity": 0.6692913385826772
        },
        {
          "duration": 0.1111109999999993,
          "durationTicks": 96,
          "midi": 48,
          "name": "C3",
          "ticks": 8832,
          "time": 10.222212,
          "velocity": 0.6692913385826772
        },
        {
          "duration": 0.11111100000000107,
          "durationTicks": 96,
          "midi": 60,
          "name": "C4",
          "ticks": 9024,
          "time": 10.444434,
          "velocity": 0.6692913385826772
        },
        {
          "duration": 0.11111100000000107,
          "durationTicks": 96,
          "midi": 45,
          "name": "A2",
          "ticks": 9216,
          "time": 10.666656,
          "velocity": 0.6692913385826772
        },
        {
          "duration": 0.1111109999999993,
          "durationTicks": 96,
          "midi": 57,
          "name": "A3",
          "ticks": 9408,
          "time": 10.888878,
          "velocity": 0.6692913385826772
        },
        {
          "duration": 0.1111109999999993,
          "durationTicks": 96,
          "midi": 45,
          "name": "A2",
          "ticks": 9600,
          "time": 11.1111,
          "velocity": 0.6692913385826772
        },
        {
          "duration": 0.1111109999999993,
          "durationTicks": 96,
          "midi": 57,
          "name": "A3",
          "ticks": 9792,
          "time": 11.333322,
          "velocity": 0.6692913385826772
        },
        {
          "duration": 0.11111100000000107,
          "durationTicks": 96,
          "midi": 45,
          "name": "A2",
          "ticks": 9984,
          "time": 11.555544,
          "velocity": 0.6692913385826772
        },
        {
          "duration": 0.11111100000000107,
          "durationTicks": 96,
          "midi": 57,
          "name": "A3",
          "ticks": 10176,
          "time": 11.777766,
          "velocity": 0.6692913385826772
        },
        {
          "duration": 0.1111109999999993,
          "durationTicks": 96,
          "midi": 45,
          "name": "A2",
          "ticks": 10368,
          "time": 11.999988,
          "velocity": 0.6692913385826772
        },
        {
          "duration": 0.1111109999999993,
          "durationTicks": 96,
          "midi": 57,
          "name": "A3",
          "ticks": 10560,
          "time": 12.22221,
          "velocity": 0.6692913385826772
        },
        {
          "duration": 0.1111109999999993,
          "durationTicks": 96,
          "midi": 45,
          "name": "A2",
          "ticks": 10752,
          "time": 12.444432,
          "velocity": 0.6692913385826772
        },
        {
          "duration": 0.11111100000000107,
          "durationTicks": 96,
          "midi": 57,
          "name": "A3",
          "ticks": 10944,
          "time": 12.666654,
          "velocity": 0.6692913385826772
        },
        {
          "duration": 0.11111100000000107,
          "durationTicks": 96,
          "midi": 45,
          "name": "A2",
          "ticks": 11136,
          "time": 12.888876,
          "velocity": 0.6692913385826772
        },
        {
          "duration": 0.1111109999999993,
          "durationTicks": 96,
          "midi": 57,
          "name": "A3",
          "ticks": 11328,
          "time": 13.111098,
          "velocity": 0.6692913385826772
        },
        {
          "duration": 0.1111109999999993,
          "durationTicks": 96,
          "midi": 47,
          "name": "B2",
          "ticks": 11520,
          "time": 13.33332,
          "velocity": 0.6692913385826772
        },
        {
          "duration": 0.1111109999999993,
          "durationTicks": 96,
          "midi": 59,
          "name": "B3",
          "ticks": 11712,
          "time": 13.555542,
          "velocity": 0.6692913385826772
        },
        {
          "duration": 0.1111109999999993,
          "durationTicks": 96,
          "midi": 49,
          "name": "C#3",
          "ticks": 12288,
          "time": 14.222208,
          "velocity": 0.6692913385826772
        },
        {
          "duration": 0.1111109999999993,
          "durationTicks": 96,
          "midi": 61,
          "name": "C#4",
          "ticks": 12480,
          "time": 14.44443,
          "velocity": 0.6692913385826772
        },
        {
          "duration": 0.1111109999999993,
          "durationTicks": 96,
          "midi": 49,
          "name": "C#3",
          "ticks": 12672,
          "time": 14.666652000000001,
          "velocity": 0.6692913385826772
        },
        {
          "duration": 0.11111100000000107,
          "durationTicks": 96,
          "midi": 61,
          "name": "C#4",
          "ticks": 12864,
          "time": 14.888874,
          "velocity": 0.6692913385826772
        },
        {
          "duration": 0.11111100000000107,
          "durationTicks": 96,
          "midi": 49,
          "name": "C#3",
          "ticks": 13056,
          "time": 15.111096,
          "velocity": 0.6692913385826772
        },
        {
          "duration": 0.1111109999999993,
          "durationTicks": 96,
          "midi": 61,
          "name": "C#4",
          "ticks": 13248,
          "time": 15.333318,
          "velocity": 0.6692913385826772
        },
        {
          "duration": 0.1111109999999993,
          "durationTicks": 96,
          "midi": 49,
          "name": "C#3",
          "ticks": 13440,
          "time": 15.55554,
          "velocity": 0.6692913385826772
        },
        {
          "duration": 0.1111109999999993,
          "durationTicks": 96,
          "midi": 61,
          "name": "C#4",
          "ticks": 13632,
          "time": 15.777762000000001,
          "velocity": 0.6692913385826772
        },
        {
          "duration": 0.1111109999999993,
          "durationTicks": 96,
          "midi": 47,
          "name": "B2",
          "ticks": 13824,
          "time": 15.999984,
          "velocity": 0.6692913385826772
        },
        {
          "duration": 0.11111100000000107,
          "durationTicks": 96,
          "midi": 59,
          "name": "B3",
          "ticks": 14016,
          "time": 16.222206,
          "velocity": 0.6692913385826772
        },
        {
          "duration": 0.11111100000000107,
          "durationTicks": 96,
          "midi": 47,
          "name": "B2",
          "ticks": 14208,
          "time": 16.444428,
          "velocity": 0.6692913385826772
        },
        {
          "duration": 0.11111100000000107,
          "durationTicks": 96,
          "midi": 59,
          "name": "B3",
          "ticks": 14400,
          "time": 16.66665,
          "velocity": 0.6692913385826772
        },
        {
          "duration": 0.11111100000000107,
          "durationTicks": 96,
          "midi": 48,
          "name": "C3",
          "ticks": 14592,
          "time": 16.888872,
          "velocity": 0.6692913385826772
        },
        {
          "duration": 0.11111099999999752,
          "durationTicks": 96,
          "midi": 60,
          "name": "C4",
          "ticks": 14784,
          "time": 17.111094,
          "velocity": 0.6692913385826772
        },
        {
          "duration": 0.11111100000000107,
          "durationTicks": 96,
          "midi": 48,
          "name": "C3",
          "ticks": 14976,
          "time": 17.333316,
          "velocity": 0.6692913385826772
        },
        {
          "duration": 0.11111100000000107,
          "durationTicks": 96,
          "midi": 60,
          "name": "C4",
          "ticks": 15168,
          "time": 17.555538,
          "velocity": 0.6692913385826772
        },
        {
          "duration": 0.11111100000000107,
          "durationTicks": 96,
          "midi": 45,
          "name": "A2",
          "ticks": 15360,
          "time": 17.77776,
          "velocity": 0.6692913385826772
        },
        {
          "duration": 0.11111100000000107,
          "durationTicks": 96,
          "midi": 57,
          "name": "A3",
          "ticks": 15552,
          "time": 17.999982,
          "velocity": 0.6692913385826772
        },
        {
          "duration": 0.11111099999999752,
          "durationTicks": 96,
          "midi": 45,
          "name": "A2",
          "ticks": 15744,
          "time": 18.222204,
          "velocity": 0.6692913385826772
        },
        {
          "duration": 0.11111100000000107,
          "durationTicks": 96,
          "midi": 57,
          "name": "A3",
          "ticks": 15936,
          "time": 18.444426,
          "velocity": 0.6692913385826772
        },
        {
          "duration": 0.11111100000000107,
          "durationTicks": 96,
          "midi": 45,
          "name": "A2",
          "ticks": 16128,
          "time": 18.666648,
          "velocity": 0.6692913385826772
        },
        {
          "duration": 0.11111100000000107,
          "durationTicks": 96,
          "midi": 57,
          "name": "A3",
          "ticks": 16320,
          "time": 18.88887,
          "velocity": 0.6692913385826772
        },
        {
          "duration": 0.11111100000000107,
          "durationTicks": 96,
          "midi": 45,
          "name": "A2",
          "ticks": 16512,
          "time": 19.111092,
          "velocity": 0.6692913385826772
        },
        {
          "duration": 0.11111099999999752,
          "durationTicks": 96,
          "midi": 57,
          "name": "A3",
          "ticks": 16704,
          "time": 19.333314,
          "velocity": 0.6692913385826772
        },
        {
          "duration": 0.11111100000000107,
          "durationTicks": 96,
          "midi": 45,
          "name": "A2",
          "ticks": 16896,
          "time": 19.555536,
          "velocity": 0.6692913385826772
        },
        {
          "duration": 0.11111100000000107,
          "durationTicks": 96,
          "midi": 57,
          "name": "A3",
          "ticks": 17088,
          "time": 19.777758,
          "velocity": 0.6692913385826772
        },
        {
          "duration": 0.11111100000000107,
          "durationTicks": 96,
          "midi": 45,
          "name": "A2",
          "ticks": 17280,
          "time": 19.99998,
          "velocity": 0.6692913385826772
        },
        {
          "duration": 0.11111100000000107,
          "durationTicks": 96,
          "midi": 57,
          "name": "A3",
          "ticks": 17472,
          "time": 20.222202,
          "velocity": 0.6692913385826772
        },
        {
          "duration": 0.11111099999999752,
          "durationTicks": 96,
          "midi": 47,
          "name": "B2",
          "ticks": 17664,
          "time": 20.444424,
          "velocity": 0.6692913385826772
        },
        {
          "duration": 0.11111100000000107,
          "durationTicks": 96,
          "midi": 59,
          "name": "B3",
          "ticks": 17856,
          "time": 20.666646,
          "velocity": 0.6692913385826772
        },
        {
          "duration": 0.11111100000000107,
          "durationTicks": 96,
          "midi": 48,
          "name": "C3",
          "ticks": 18048,
          "time": 20.888868,
          "velocity": 0.6692913385826772
        },
        {
          "duration": 0.11111100000000107,
          "durationTicks": 96,
          "midi": 60,
          "name": "C4",
          "ticks": 18240,
          "time": 21.11109,
          "velocity": 0.6692913385826772
        },
        {
          "duration": 0.11111100000000107,
          "durationTicks": 96,
          "midi": 49,
          "name": "C#3",
          "ticks": 18432,
          "time": 21.333312,
          "velocity": 0.6692913385826772
        },
        {
          "duration": 0.11111100000000107,
          "durationTicks": 96,
          "midi": 37,
          "name": "C#2",
          "ticks": 18432,
          "time": 21.333312,
          "velocity": 0.6692913385826772
        },
        {
          "duration": 0.11111099999999752,
          "durationTicks": 96,
          "midi": 49,
          "name": "C#3",
          "ticks": 18624,
          "time": 21.555534,
          "velocity": 0.6692913385826772
        },
        {
          "duration": 0.11111099999999752,
          "durationTicks": 96,
          "midi": 61,
          "name": "C#4",
          "ticks": 18624,
          "time": 21.555534,
          "velocity": 0.6692913385826772
        },
        {
          "duration": 0.11111100000000107,
          "durationTicks": 96,
          "midi": 49,
          "name": "C#3",
          "ticks": 18816,
          "time": 21.777756,
          "velocity": 0.6692913385826772
        },
        {
          "duration": 0.11111100000000107,
          "durationTicks": 96,
          "midi": 37,
          "name": "C#2",
          "ticks": 18816,
          "time": 21.777756,
          "velocity": 0.6692913385826772
        },
        {
          "duration": 0.11111100000000107,
          "durationTicks": 96,
          "midi": 49,
          "name": "C#3",
          "ticks": 19008,
          "time": 21.999978,
          "velocity": 0.6692913385826772
        },
        {
          "duration": 0.11111100000000107,
          "durationTicks": 96,
          "midi": 61,
          "name": "C#4",
          "ticks": 19008,
          "time": 21.999978,
          "velocity": 0.6692913385826772
        },
        {
          "duration": 0.11111100000000107,
          "durationTicks": 96,
          "midi": 37,
          "name": "C#2",
          "ticks": 19200,
          "time": 22.2222,
          "velocity": 0.6692913385826772
        },
        {
          "duration": 0.11111100000000107,
          "durationTicks": 96,
          "midi": 49,
          "name": "C#3",
          "ticks": 19200,
          "time": 22.2222,
          "velocity": 0.6692913385826772
        },
        {
          "duration": 0.11111100000000107,
          "durationTicks": 96,
          "midi": 49,
          "name": "C#3",
          "ticks": 19392,
          "time": 22.444422,
          "velocity": 0.6692913385826772
        },
        {
          "duration": 0.11111100000000107,
          "durationTicks": 96,
          "midi": 61,
          "name": "C#4",
          "ticks": 19392,
          "time": 22.444422,
          "velocity": 0.6692913385826772
        },
        {
          "duration": 0.11111099999999752,
          "durationTicks": 96,
          "midi": 49,
          "name": "C#3",
          "ticks": 19584,
          "time": 22.666644,
          "velocity": 0.6692913385826772
        },
        {
          "duration": 0.11111099999999752,
          "durationTicks": 96,
          "midi": 37,
          "name": "C#2",
          "ticks": 19584,
          "time": 22.666644,
          "velocity": 0.6692913385826772
        },
        {
          "duration": 0.11111100000000107,
          "durationTicks": 96,
          "midi": 49,
          "name": "C#3",
          "ticks": 19776,
          "time": 22.888866,
          "velocity": 0.6692913385826772
        },
        {
          "duration": 0.11111100000000107,
          "durationTicks": 96,
          "midi": 61,
          "name": "C#4",
          "ticks": 19776,
          "time": 22.888866,
          "velocity": 0.6692913385826772
        },
        {
          "duration": 0.11111100000000107,
          "durationTicks": 96,
          "midi": 47,
          "name": "B2",
          "ticks": 19968,
          "time": 23.111088,
          "velocity": 0.6692913385826772
        },
        {
          "duration": 0.11111100000000107,
          "durationTicks": 96,
          "midi": 47,
          "name": "B2",
          "ticks": 19968,
          "time": 23.111088,
          "velocity": 0.6692913385826772
        },
        {
          "duration": 0.11111100000000107,
          "durationTicks": 96,
          "midi": 47,
          "name": "B2",
          "ticks": 20160,
          "time": 23.33331,
          "velocity": 0.6692913385826772
        },
        {
          "duration": 0.11111100000000107,
          "durationTicks": 96,
          "midi": 59,
          "name": "B3",
          "ticks": 20160,
          "time": 23.33331,
          "velocity": 0.6692913385826772
        },
        {
          "duration": 0.11111100000000107,
          "durationTicks": 96,
          "midi": 47,
          "name": "B2",
          "ticks": 20352,
          "time": 23.555532,
          "velocity": 0.6692913385826772
        },
        {
          "duration": 0.11111100000000107,
          "durationTicks": 96,
          "midi": 47,
          "name": "B2",
          "ticks": 20352,
          "time": 23.555532,
          "velocity": 0.6692913385826772
        },
        {
          "duration": 0.11111099999999752,
          "durationTicks": 96,
          "midi": 59,
          "name": "B3",
          "ticks": 20544,
          "time": 23.777754,
          "velocity": 0.6692913385826772
        },
        {
          "duration": 0.11111099999999752,
          "durationTicks": 96,
          "midi": 47,
          "name": "B2",
          "ticks": 20544,
          "time": 23.777754,
          "velocity": 0.6692913385826772
        },
        {
          "duration": 0.11111100000000107,
          "durationTicks": 96,
          "midi": 36,
          "name": "C2",
          "ticks": 20736,
          "time": 23.999976,
          "velocity": 0.6692913385826772
        },
        {
          "duration": 0.11111100000000107,
          "durationTicks": 96,
          "midi": 48,
          "name": "C3",
          "ticks": 20736,
          "time": 23.999976,
          "velocity": 0.6692913385826772
        },
        {
          "duration": 0.11111100000000107,
          "durationTicks": 96,
          "midi": 60,
          "name": "C4",
          "ticks": 20928,
          "time": 24.222198,
          "velocity": 0.6692913385826772
        },
        {
          "duration": 0.11111100000000107,
          "durationTicks": 96,
          "midi": 48,
          "name": "C3",
          "ticks": 20928,
          "time": 24.222198,
          "velocity": 0.6692913385826772
        },
        {
          "duration": 0.11111100000000107,
          "durationTicks": 96,
          "midi": 36,
          "name": "C2",
          "ticks": 21120,
          "time": 24.44442,
          "velocity": 0.6692913385826772
        },
        {
          "duration": 0.11111100000000107,
          "durationTicks": 96,
          "midi": 48,
          "name": "C3",
          "ticks": 21120,
          "time": 24.44442,
          "velocity": 0.6692913385826772
        },
        {
          "duration": 0.11111100000000107,
          "durationTicks": 96,
          "midi": 60,
          "name": "C4",
          "ticks": 21312,
          "time": 24.666642,
          "velocity": 0.6692913385826772
        },
        {
          "duration": 0.11111100000000107,
          "durationTicks": 96,
          "midi": 48,
          "name": "C3",
          "ticks": 21312,
          "time": 24.666642,
          "velocity": 0.6692913385826772
        },
        {
          "duration": 0.11111099999999752,
          "durationTicks": 96,
          "midi": 45,
          "name": "A2",
          "ticks": 21504,
          "time": 24.888864,
          "velocity": 0.6692913385826772
        },
        {
          "duration": 0.11111099999999752,
          "durationTicks": 96,
          "midi": 45,
          "name": "A2",
          "ticks": 21504,
          "time": 24.888864,
          "velocity": 0.6692913385826772
        },
        {
          "duration": 0.11111100000000107,
          "durationTicks": 96,
          "midi": 57,
          "name": "A3",
          "ticks": 21696,
          "time": 25.111086,
          "velocity": 0.6692913385826772
        },
        {
          "duration": 0.11111100000000107,
          "durationTicks": 96,
          "midi": 45,
          "name": "A2",
          "ticks": 21696,
          "time": 25.111086,
          "velocity": 0.6692913385826772
        },
        {
          "duration": 0.11111100000000107,
          "durationTicks": 96,
          "midi": 45,
          "name": "A2",
          "ticks": 21888,
          "time": 25.333308,
          "velocity": 0.6692913385826772
        },
        {
          "duration": 0.11111100000000107,
          "durationTicks": 96,
          "midi": 45,
          "name": "A2",
          "ticks": 21888,
          "time": 25.333308,
          "velocity": 0.6692913385826772
        },
        {
          "duration": 0.11111100000000107,
          "durationTicks": 96,
          "midi": 45,
          "name": "A2",
          "ticks": 22080,
          "time": 25.55553,
          "velocity": 0.6692913385826772
        },
        {
          "duration": 0.11111100000000107,
          "durationTicks": 96,
          "midi": 57,
          "name": "A3",
          "ticks": 22080,
          "time": 25.55553,
          "velocity": 0.6692913385826772
        },
        {
          "duration": 0.11111100000000107,
          "durationTicks": 96,
          "midi": 45,
          "name": "A2",
          "ticks": 22272,
          "time": 25.777752,
          "velocity": 0.6692913385826772
        },
        {
          "duration": 0.11111100000000107,
          "durationTicks": 96,
          "midi": 45,
          "name": "A2",
          "ticks": 22272,
          "time": 25.777752,
          "velocity": 0.6692913385826772
        },
        {
          "duration": 0.11111099999999752,
          "durationTicks": 96,
          "midi": 45,
          "name": "A2",
          "ticks": 22464,
          "time": 25.999974,
          "velocity": 0.6692913385826772
        },
        {
          "duration": 0.11111099999999752,
          "durationTicks": 96,
          "midi": 57,
          "name": "A3",
          "ticks": 22464,
          "time": 25.999974,
          "velocity": 0.6692913385826772
        },
        {
          "duration": 0.11111100000000107,
          "durationTicks": 96,
          "midi": 45,
          "name": "A2",
          "ticks": 22656,
          "time": 26.222196,
          "velocity": 0.6692913385826772
        },
        {
          "duration": 0.11111100000000107,
          "durationTicks": 96,
          "midi": 45,
          "name": "A2",
          "ticks": 22656,
          "time": 26.222196,
          "velocity": 0.6692913385826772
        },
        {
          "duration": 0.11111100000000107,
          "durationTicks": 96,
          "midi": 45,
          "name": "A2",
          "ticks": 22848,
          "time": 26.444418,
          "velocity": 0.6692913385826772
        },
        {
          "duration": 0.11111100000000107,
          "durationTicks": 96,
          "midi": 57,
          "name": "A3",
          "ticks": 22848,
          "time": 26.444418,
          "velocity": 0.6692913385826772
        },
        {
          "duration": 0.11111100000000107,
          "durationTicks": 96,
          "midi": 45,
          "name": "A2",
          "ticks": 23040,
          "time": 26.66664,
          "velocity": 0.6692913385826772
        },
        {
          "duration": 0.11111100000000107,
          "durationTicks": 96,
          "midi": 45,
          "name": "A2",
          "ticks": 23040,
          "time": 26.66664,
          "velocity": 0.6692913385826772
        },
        {
          "duration": 0.11111100000000107,
          "durationTicks": 96,
          "midi": 57,
          "name": "A3",
          "ticks": 23232,
          "time": 26.888862,
          "velocity": 0.6692913385826772
        },
        {
          "duration": 0.11111100000000107,
          "durationTicks": 96,
          "midi": 45,
          "name": "A2",
          "ticks": 23232,
          "time": 26.888862,
          "velocity": 0.6692913385826772
        },
        {
          "duration": 0.11111099999999752,
          "durationTicks": 96,
          "midi": 45,
          "name": "A2",
          "ticks": 23424,
          "time": 27.111084,
          "velocity": 0.6692913385826772
        },
        {
          "duration": 0.11111099999999752,
          "durationTicks": 96,
          "midi": 45,
          "name": "A2",
          "ticks": 23424,
          "time": 27.111084,
          "velocity": 0.6692913385826772
        },
        {
          "duration": 0.11111100000000107,
          "durationTicks": 96,
          "midi": 57,
          "name": "A3",
          "ticks": 23616,
          "time": 27.333306,
          "velocity": 0.6692913385826772
        },
        {
          "duration": 0.11111100000000107,
          "durationTicks": 96,
          "midi": 45,
          "name": "A2",
          "ticks": 23616,
          "time": 27.333306,
          "velocity": 0.6692913385826772
        },
        {
          "duration": 0.11111100000000107,
          "durationTicks": 96,
          "midi": 47,
          "name": "B2",
          "ticks": 23808,
          "time": 27.555528,
          "velocity": 0.6692913385826772
        },
        {
          "duration": 0.11111100000000107,
          "durationTicks": 96,
          "midi": 47,
          "name": "B2",
          "ticks": 23808,
          "time": 27.555528,
          "velocity": 0.6692913385826772
        },
        {
          "duration": 0.11111100000000107,
          "durationTicks": 96,
          "midi": 59,
          "name": "B3",
          "ticks": 24000,
          "time": 27.77775,
          "velocity": 0.6692913385826772
        },
        {
          "duration": 0.11111100000000107,
          "durationTicks": 96,
          "midi": 47,
          "name": "B2",
          "ticks": 24000,
          "time": 27.77775,
          "velocity": 0.6692913385826772
        },
        {
          "duration": 0.11111100000000107,
          "durationTicks": 96,
          "midi": 47,
          "name": "B2",
          "ticks": 24192,
          "time": 27.999972,
          "velocity": 0.6692913385826772
        },
        {
          "duration": 0.11111100000000107,
          "durationTicks": 96,
          "midi": 47,
          "name": "B2",
          "ticks": 24192,
          "time": 27.999972,
          "velocity": 0.6692913385826772
        },
        {
          "duration": 0.11111099999999752,
          "durationTicks": 96,
          "midi": 59,
          "name": "B3",
          "ticks": 24384,
          "time": 28.222194000000002,
          "velocity": 0.6692913385826772
        },
        {
          "duration": 0.11111099999999752,
          "durationTicks": 96,
          "midi": 47,
          "name": "B2",
          "ticks": 24384,
          "time": 28.222194000000002,
          "velocity": 0.6692913385826772
        },
        {
          "duration": 0.11111100000000107,
          "durationTicks": 96,
          "midi": 49,
          "name": "C#3",
          "ticks": 24576,
          "time": 28.444416,
          "velocity": 0.6692913385826772
        },
        {
          "duration": 0.11111100000000107,
          "durationTicks": 96,
          "midi": 37,
          "name": "C#2",
          "ticks": 24576,
          "time": 28.444416,
          "velocity": 0.6692913385826772
        },
        {
          "duration": 0.11111100000000107,
          "durationTicks": 96,
          "midi": 49,
          "name": "C#3",
          "ticks": 24768,
          "time": 28.666638,
          "velocity": 0.6692913385826772
        },
        {
          "duration": 0.11111100000000107,
          "durationTicks": 96,
          "midi": 61,
          "name": "C#4",
          "ticks": 24768,
          "time": 28.666638,
          "velocity": 0.6692913385826772
        },
        {
          "duration": 0.11111099999999752,
          "durationTicks": 96,
          "midi": 37,
          "name": "C#2",
          "ticks": 24960,
          "time": 28.88886,
          "velocity": 0.6692913385826772
        },
        {
          "duration": 0.11111099999999752,
          "durationTicks": 96,
          "midi": 49,
          "name": "C#3",
          "ticks": 24960,
          "time": 28.88886,
          "velocity": 0.6692913385826772
        },
        {
          "duration": 0.11111100000000107,
          "durationTicks": 96,
          "midi": 61,
          "name": "C#4",
          "ticks": 25152,
          "time": 29.111082,
          "velocity": 0.6692913385826772
        },
        {
          "duration": 0.11111100000000107,
          "durationTicks": 96,
          "midi": 49,
          "name": "C#3",
          "ticks": 25152,
          "time": 29.111082,
          "velocity": 0.6692913385826772
        },
        {
          "duration": 0.11111099999999752,
          "durationTicks": 96,
          "midi": 37,
          "name": "C#2",
          "ticks": 25344,
          "time": 29.333304000000002,
          "velocity": 0.6692913385826772
        },
        {
          "duration": 0.11111099999999752,
          "durationTicks": 96,
          "midi": 49,
          "name": "C#3",
          "ticks": 25344,
          "time": 29.333304000000002,
          "velocity": 0.6692913385826772
        },
        {
          "duration": 0.11111100000000107,
          "durationTicks": 96,
          "midi": 61,
          "name": "C#4",
          "ticks": 25536,
          "time": 29.555526,
          "velocity": 0.6692913385826772
        },
        {
          "duration": 0.11111100000000107,
          "durationTicks": 96,
          "midi": 49,
          "name": "C#3",
          "ticks": 25536,
          "time": 29.555526,
          "velocity": 0.6692913385826772
        },
        {
          "duration": 0.11111100000000107,
          "durationTicks": 96,
          "midi": 37,
          "name": "C#2",
          "ticks": 25728,
          "time": 29.777748,
          "velocity": 0.6692913385826772
        },
        {
          "duration": 0.11111100000000107,
          "durationTicks": 96,
          "midi": 49,
          "name": "C#3",
          "ticks": 25728,
          "time": 29.777748,
          "velocity": 0.6692913385826772
        },
        {
          "duration": 0.11111099999999752,
          "durationTicks": 96,
          "midi": 49,
          "name": "C#3",
          "ticks": 25920,
          "time": 29.99997,
          "velocity": 0.6692913385826772
        },
        {
          "duration": 0.11111099999999752,
          "durationTicks": 96,
          "midi": 61,
          "name": "C#4",
          "ticks": 25920,
          "time": 29.99997,
          "velocity": 0.6692913385826772
        },
        {
          "duration": 0.11111100000000107,
          "durationTicks": 96,
          "midi": 47,
          "name": "B2",
          "ticks": 26112,
          "time": 30.222192,
          "velocity": 0.6692913385826772
        },
        {
          "duration": 0.11111100000000107,
          "durationTicks": 96,
          "midi": 47,
          "name": "B2",
          "ticks": 26112,
          "time": 30.222192,
          "velocity": 0.6692913385826772
        },
        {
          "duration": 0.11111099999999752,
          "durationTicks": 96,
          "midi": 47,
          "name": "B2",
          "ticks": 26304,
          "time": 30.444414000000002,
          "velocity": 0.6692913385826772
        },
        {
          "duration": 0.11111099999999752,
          "durationTicks": 96,
          "midi": 59,
          "name": "B3",
          "ticks": 26304,
          "time": 30.444414000000002,
          "velocity": 0.6692913385826772
        },
        {
          "duration": 0.11111100000000107,
          "durationTicks": 96,
          "midi": 47,
          "name": "B2",
          "ticks": 26496,
          "time": 30.666636,
          "velocity": 0.6692913385826772
        },
        {
          "duration": 0.11111100000000107,
          "durationTicks": 96,
          "midi": 47,
          "name": "B2",
          "ticks": 26496,
          "time": 30.666636,
          "velocity": 0.6692913385826772
        },
        {
          "duration": 0.11111100000000107,
          "durationTicks": 96,
          "midi": 59,
          "name": "B3",
          "ticks": 26688,
          "time": 30.888858,
          "velocity": 0.6692913385826772
        },
        {
          "duration": 0.11111100000000107,
          "durationTicks": 96,
          "midi": 47,
          "name": "B2",
          "ticks": 26688,
          "time": 30.888858,
          "velocity": 0.6692913385826772
        },
        {
          "duration": 0.11111099999999752,
          "durationTicks": 96,
          "midi": 36,
          "name": "C2",
          "ticks": 26880,
          "time": 31.11108,
          "velocity": 0.6692913385826772
        },
        {
          "duration": 0.11111099999999752,
          "durationTicks": 96,
          "midi": 48,
          "name": "C3",
          "ticks": 26880,
          "time": 31.11108,
          "velocity": 0.6692913385826772
        },
        {
          "duration": 0.11111100000000107,
          "durationTicks": 96,
          "midi": 48,
          "name": "C3",
          "ticks": 27072,
          "time": 31.333302,
          "velocity": 0.6692913385826772
        },
        {
          "duration": 0.11111100000000107,
          "durationTicks": 96,
          "midi": 60,
          "name": "C4",
          "ticks": 27072,
          "time": 31.333302,
          "velocity": 0.6692913385826772
        },
        {
          "duration": 0.11111099999999752,
          "durationTicks": 96,
          "midi": 48,
          "name": "C3",
          "ticks": 27264,
          "time": 31.555524000000002,
          "velocity": 0.6692913385826772
        },
        {
          "duration": 0.11111099999999752,
          "durationTicks": 96,
          "midi": 36,
          "name": "C2",
          "ticks": 27264,
          "time": 31.555524000000002,
          "velocity": 0.6692913385826772
        },
        {
          "duration": 0.11111100000000107,
          "durationTicks": 96,
          "midi": 60,
          "name": "C4",
          "ticks": 27456,
          "time": 31.777746,
          "velocity": 0.6692913385826772
        },
        {
          "duration": 0.11111100000000107,
          "durationTicks": 96,
          "midi": 48,
          "name": "C3",
          "ticks": 27456,
          "time": 31.777746,
          "velocity": 0.6692913385826772
        },
        {
          "duration": 0.11111100000000462,
          "durationTicks": 96,
          "midi": 45,
          "name": "A2",
          "ticks": 27648,
          "time": 31.999968,
          "velocity": 0.6692913385826772
        },
        {
          "duration": 0.11111100000000462,
          "durationTicks": 96,
          "midi": 45,
          "name": "A2",
          "ticks": 27648,
          "time": 31.999968,
          "velocity": 0.6692913385826772
        },
        {
          "duration": 0.11111100000000107,
          "durationTicks": 96,
          "midi": 57,
          "name": "A3",
          "ticks": 27840,
          "time": 32.22219,
          "velocity": 0.6692913385826772
        },
        {
          "duration": 0.11111100000000107,
          "durationTicks": 96,
          "midi": 45,
          "name": "A2",
          "ticks": 27840,
          "time": 32.22219,
          "velocity": 0.6692913385826772
        },
        {
          "duration": 0.11111100000000107,
          "durationTicks": 96,
          "midi": 45,
          "name": "A2",
          "ticks": 28032,
          "time": 32.444412,
          "velocity": 0.6692913385826772
        },
        {
          "duration": 0.11111100000000107,
          "durationTicks": 96,
          "midi": 45,
          "name": "A2",
          "ticks": 28032,
          "time": 32.444412,
          "velocity": 0.6692913385826772
        },
        {
          "duration": 0.11111100000000107,
          "durationTicks": 96,
          "midi": 57,
          "name": "A3",
          "ticks": 28224,
          "time": 32.666634,
          "velocity": 0.6692913385826772
        },
        {
          "duration": 0.11111100000000107,
          "durationTicks": 96,
          "midi": 45,
          "name": "A2",
          "ticks": 28224,
          "time": 32.666634,
          "velocity": 0.6692913385826772
        },
        {
          "duration": 0.11111100000000107,
          "durationTicks": 96,
          "midi": 45,
          "name": "A2",
          "ticks": 28416,
          "time": 32.888856,
          "velocity": 0.6692913385826772
        },
        {
          "duration": 0.11111100000000107,
          "durationTicks": 96,
          "midi": 45,
          "name": "A2",
          "ticks": 28416,
          "time": 32.888856,
          "velocity": 0.6692913385826772
        },
        {
          "duration": 0.11111100000000107,
          "durationTicks": 96,
          "midi": 57,
          "name": "A3",
          "ticks": 28608,
          "time": 33.111078,
          "velocity": 0.6692913385826772
        },
        {
          "duration": 0.11111100000000107,
          "durationTicks": 96,
          "midi": 45,
          "name": "A2",
          "ticks": 28608,
          "time": 33.111078,
          "velocity": 0.6692913385826772
        },
        {
          "duration": 0.11111100000000107,
          "durationTicks": 96,
          "midi": 45,
          "name": "A2",
          "ticks": 28800,
          "time": 33.3333,
          "velocity": 0.6692913385826772
        },
        {
          "duration": 0.11111100000000107,
          "durationTicks": 96,
          "midi": 45,
          "name": "A2",
          "ticks": 28800,
          "time": 33.3333,
          "velocity": 0.6692913385826772
        },
        {
          "duration": 0.11111099999999396,
          "durationTicks": 96,
          "midi": 45,
          "name": "A2",
          "ticks": 28992,
          "time": 33.555522,
          "velocity": 0.6692913385826772
        },
        {
          "duration": 0.11111099999999396,
          "durationTicks": 96,
          "midi": 57,
          "name": "A3",
          "ticks": 28992,
          "time": 33.555522,
          "velocity": 0.6692913385826772
        },
        {
          "duration": 0.11111100000000107,
          "durationTicks": 96,
          "midi": 45,
          "name": "A2",
          "ticks": 29184,
          "time": 33.777744,
          "velocity": 0.6692913385826772
        },
        {
          "duration": 0.11111100000000107,
          "durationTicks": 96,
          "midi": 45,
          "name": "A2",
          "ticks": 29184,
          "time": 33.777744,
          "velocity": 0.6692913385826772
        },
        {
          "duration": 0.11111100000000107,
          "durationTicks": 96,
          "midi": 45,
          "name": "A2",
          "ticks": 29376,
          "time": 33.999966,
          "velocity": 0.6692913385826772
        },
        {
          "duration": 0.11111100000000107,
          "durationTicks": 96,
          "midi": 57,
          "name": "A3",
          "ticks": 29376,
          "time": 33.999966,
          "velocity": 0.6692913385826772
        },
        {
          "duration": 0.11111100000000107,
          "durationTicks": 96,
          "midi": 45,
          "name": "A2",
          "ticks": 29568,
          "time": 34.222188,
          "velocity": 0.6692913385826772
        },
        {
          "duration": 0.11111100000000107,
          "durationTicks": 96,
          "midi": 45,
          "name": "A2",
          "ticks": 29568,
          "time": 34.222188,
          "velocity": 0.6692913385826772
        },
        {
          "duration": 0.11111100000000107,
          "durationTicks": 96,
          "midi": 57,
          "name": "A3",
          "ticks": 29760,
          "time": 34.44441,
          "velocity": 0.6692913385826772
        },
        {
          "duration": 0.11111100000000107,
          "durationTicks": 96,
          "midi": 45,
          "name": "A2",
          "ticks": 29760,
          "time": 34.44441,
          "velocity": 0.6692913385826772
        },
        {
          "duration": 0.11111100000000107,
          "durationTicks": 96,
          "midi": 47,
          "name": "B2",
          "ticks": 29952,
          "time": 34.666632,
          "velocity": 0.6692913385826772
        },
        {
          "duration": 0.11111100000000107,
          "durationTicks": 96,
          "midi": 47,
          "name": "B2",
          "ticks": 29952,
          "time": 34.666632,
          "velocity": 0.6692913385826772
        },
        {
          "duration": 0.11111100000000107,
          "durationTicks": 96,
          "midi": 59,
          "name": "B3",
          "ticks": 30144,
          "time": 34.888854,
          "velocity": 0.6692913385826772
        },
        {
          "duration": 0.11111100000000107,
          "durationTicks": 96,
          "midi": 47,
          "name": "B2",
          "ticks": 30144,
          "time": 34.888854,
          "velocity": 0.6692913385826772
        },
        {
          "duration": 0.11111100000000107,
          "durationTicks": 96,
          "midi": 47,
          "name": "B2",
          "ticks": 30336,
          "time": 35.111076,
          "velocity": 0.6692913385826772
        },
        {
          "duration": 0.11111100000000107,
          "durationTicks": 96,
          "midi": 47,
          "name": "B2",
          "ticks": 30336,
          "time": 35.111076,
          "velocity": 0.6692913385826772
        },
        {
          "duration": 0.11111100000000107,
          "durationTicks": 96,
          "midi": 59,
          "name": "B3",
          "ticks": 30528,
          "time": 35.333298,
          "velocity": 0.6692913385826772
        },
        {
          "duration": 0.11111100000000107,
          "durationTicks": 96,
          "midi": 47,
          "name": "B2",
          "ticks": 30528,
          "time": 35.333298,
          "velocity": 0.6692913385826772
        },
        {
          "duration": 0.22222200000000214,
          "durationTicks": 192,
          "midi": 49,
          "name": "C#3",
          "ticks": 30720,
          "time": 35.55552,
          "velocity": 0.6692913385826772
        },
        {
          "duration": 0.22222200000000214,
          "durationTicks": 192,
          "midi": 37,
          "name": "C#2",
          "ticks": 30720,
          "time": 35.55552,
          "velocity": 0.6692913385826772
        },
        {
          "duration": 0.22222200000000214,
          "durationTicks": 192,
          "midi": 61,
          "name": "C#4",
          "ticks": 30720,
          "time": 35.55552,
          "velocity": 0.6692913385826772
        },
        {
          "duration": 0.22222199999999503,
          "durationTicks": 192,
          "midi": 49,
          "name": "C#3",
          "ticks": 30912,
          "time": 35.777742,
          "velocity": 0.6692913385826772
        },
        {
          "duration": 0.22222199999999503,
          "durationTicks": 192,
          "midi": 37,
          "name": "C#2",
          "ticks": 30912,
          "time": 35.777742,
          "velocity": 0.6692913385826772
        },
        {
          "duration": 0.22222200000000214,
          "durationTicks": 192,
          "midi": 37,
          "name": "C#2",
          "ticks": 31104,
          "time": 35.999964,
          "velocity": 0.6692913385826772
        },
        {
          "duration": 0.22222200000000214,
          "durationTicks": 192,
          "midi": 49,
          "name": "C#3",
          "ticks": 31104,
          "time": 35.999964,
          "velocity": 0.6692913385826772
        },
        {
          "duration": 0.22222200000000214,
          "durationTicks": 192,
          "midi": 61,
          "name": "C#4",
          "ticks": 31104,
          "time": 35.999964,
          "velocity": 0.6692913385826772
        },
        {
          "duration": 0.22222200000000214,
          "durationTicks": 192,
          "midi": 49,
          "name": "C#3",
          "ticks": 31296,
          "time": 36.222186,
          "velocity": 0.6692913385826772
        },
        {
          "duration": 0.22222200000000214,
          "durationTicks": 192,
          "midi": 37,
          "name": "C#2",
          "ticks": 31296,
          "time": 36.222186,
          "velocity": 0.6692913385826772
        },
        {
          "duration": 0.22222199999999503,
          "durationTicks": 192,
          "midi": 37,
          "name": "C#2",
          "ticks": 31488,
          "time": 36.444408,
          "velocity": 0.6692913385826772
        },
        {
          "duration": 0.22222199999999503,
          "durationTicks": 192,
          "midi": 61,
          "name": "C#4",
          "ticks": 31488,
          "time": 36.444408,
          "velocity": 0.6692913385826772
        },
        {
          "duration": 0.22222199999999503,
          "durationTicks": 192,
          "midi": 49,
          "name": "C#3",
          "ticks": 31488,
          "time": 36.444408,
          "velocity": 0.6692913385826772
        },
        {
          "duration": 0.22222200000000214,
          "durationTicks": 192,
          "midi": 37,
          "name": "C#2",
          "ticks": 31680,
          "time": 36.66663,
          "velocity": 0.6692913385826772
        },
        {
          "duration": 0.22222200000000214,
          "durationTicks": 192,
          "midi": 49,
          "name": "C#3",
          "ticks": 31680,
          "time": 36.66663,
          "velocity": 0.6692913385826772
        },
        {
          "duration": 0.22222200000000214,
          "durationTicks": 192,
          "midi": 61,
          "name": "C#4",
          "ticks": 31872,
          "time": 36.888852,
          "velocity": 0.6692913385826772
        },
        {
          "duration": 0.22222200000000214,
          "durationTicks": 192,
          "midi": 37,
          "name": "C#2",
          "ticks": 31872,
          "time": 36.888852,
          "velocity": 0.6692913385826772
        },
        {
          "duration": 0.22222200000000214,
          "durationTicks": 192,
          "midi": 49,
          "name": "C#3",
          "ticks": 31872,
          "time": 36.888852,
          "velocity": 0.6692913385826772
        },
        {
          "duration": 0.22222199999999503,
          "durationTicks": 192,
          "midi": 49,
          "name": "C#3",
          "ticks": 32064,
          "time": 37.111074,
          "velocity": 0.6692913385826772
        },
        {
          "duration": 0.22222199999999503,
          "durationTicks": 192,
          "midi": 37,
          "name": "C#2",
          "ticks": 32064,
          "time": 37.111074,
          "velocity": 0.6692913385826772
        },
        {
          "duration": 0.22222200000000214,
          "durationTicks": 192,
          "midi": 47,
          "name": "B2",
          "ticks": 32256,
          "time": 37.333296,
          "velocity": 0.6692913385826772
        },
        {
          "duration": 0.22222200000000214,
          "durationTicks": 192,
          "midi": 59,
          "name": "B3",
          "ticks": 32256,
          "time": 37.333296,
          "velocity": 0.6692913385826772
        },
        {
          "duration": 0.22222200000000214,
          "durationTicks": 192,
          "midi": 47,
          "name": "B2",
          "ticks": 32256,
          "time": 37.333296,
          "velocity": 0.6692913385826772
        },
        {
          "duration": 0.22222200000000214,
          "durationTicks": 192,
          "midi": 47,
          "name": "B2",
          "ticks": 32448,
          "time": 37.555518,
          "velocity": 0.6692913385826772
        },
        {
          "duration": 0.22222200000000214,
          "durationTicks": 192,
          "midi": 47,
          "name": "B2",
          "ticks": 32448,
          "time": 37.555518,
          "velocity": 0.6692913385826772
        },
        {
          "duration": 0.22222200000000214,
          "durationTicks": 192,
          "midi": 47,
          "name": "B2",
          "ticks": 32640,
          "time": 37.77774,
          "velocity": 0.6692913385826772
        },
        {
          "duration": 0.22222200000000214,
          "durationTicks": 192,
          "midi": 47,
          "name": "B2",
          "ticks": 32640,
          "time": 37.77774,
          "velocity": 0.6692913385826772
        },
        {
          "duration": 0.22222200000000214,
          "durationTicks": 192,
          "midi": 59,
          "name": "B3",
          "ticks": 32640,
          "time": 37.77774,
          "velocity": 0.6692913385826772
        },
        {
          "duration": 0.22222199999999503,
          "durationTicks": 192,
          "midi": 47,
          "name": "B2",
          "ticks": 32832,
          "time": 37.999962000000004,
          "velocity": 0.6692913385826772
        },
        {
          "duration": 0.22222199999999503,
          "durationTicks": 192,
          "midi": 47,
          "name": "B2",
          "ticks": 32832,
          "time": 37.999962000000004,
          "velocity": 0.6692913385826772
        },
        {
          "duration": 0.22222200000000214,
          "durationTicks": 192,
          "midi": 48,
          "name": "C3",
          "ticks": 33024,
          "time": 38.222184,
          "velocity": 0.6692913385826772
        },
        {
          "duration": 0.22222200000000214,
          "durationTicks": 192,
          "midi": 60,
          "name": "C4",
          "ticks": 33024,
          "time": 38.222184,
          "velocity": 0.6692913385826772
        },
        {
          "duration": 0.22222200000000214,
          "durationTicks": 192,
          "midi": 36,
          "name": "C2",
          "ticks": 33024,
          "time": 38.222184,
          "velocity": 0.6692913385826772
        },
        {
          "duration": 0.22222200000000214,
          "durationTicks": 192,
          "midi": 36,
          "name": "C2",
          "ticks": 33216,
          "time": 38.444406,
          "velocity": 0.6692913385826772
        },
        {
          "duration": 0.22222200000000214,
          "durationTicks": 192,
          "midi": 48,
          "name": "C3",
          "ticks": 33216,
          "time": 38.444406,
          "velocity": 0.6692913385826772
        },
        {
          "duration": 0.22222199999999503,
          "durationTicks": 192,
          "midi": 36,
          "name": "C2",
          "ticks": 33408,
          "time": 38.666628,
          "velocity": 0.6692913385826772
        },
        {
          "duration": 0.22222199999999503,
          "durationTicks": 192,
          "midi": 48,
          "name": "C3",
          "ticks": 33408,
          "time": 38.666628,
          "velocity": 0.6692913385826772
        },
        {
          "duration": 0.22222199999999503,
          "durationTicks": 192,
          "midi": 60,
          "name": "C4",
          "ticks": 33408,
          "time": 38.666628,
          "velocity": 0.6692913385826772
        },
        {
          "duration": 0.22222200000000214,
          "durationTicks": 192,
          "midi": 48,
          "name": "C3",
          "ticks": 33600,
          "time": 38.88885,
          "velocity": 0.6692913385826772
        },
        {
          "duration": 0.22222200000000214,
          "durationTicks": 192,
          "midi": 36,
          "name": "C2",
          "ticks": 33600,
          "time": 38.88885,
          "velocity": 0.6692913385826772
        },
        {
          "duration": 0.22222200000000214,
          "durationTicks": 192,
          "midi": 45,
          "name": "A2",
          "ticks": 33792,
          "time": 39.111072,
          "velocity": 0.6692913385826772
        },
        {
          "duration": 0.22222200000000214,
          "durationTicks": 192,
          "midi": 57,
          "name": "A3",
          "ticks": 33792,
          "time": 39.111072,
          "velocity": 0.6692913385826772
        },
        {
          "duration": 0.22222200000000214,
          "durationTicks": 192,
          "midi": 45,
          "name": "A2",
          "ticks": 33792,
          "time": 39.111072,
          "velocity": 0.6692913385826772
        },
        {
          "duration": 0.22222199999999503,
          "durationTicks": 192,
          "midi": 45,
          "name": "A2",
          "ticks": 33984,
          "time": 39.333294,
          "velocity": 0.6692913385826772
        },
        {
          "duration": 0.22222199999999503,
          "durationTicks": 192,
          "midi": 45,
          "name": "A2",
          "ticks": 33984,
          "time": 39.333294,
          "velocity": 0.6692913385826772
        },
        {
          "duration": 0.22222200000000214,
          "durationTicks": 192,
          "midi": 45,
          "name": "A2",
          "ticks": 34176,
          "time": 39.555516,
          "velocity": 0.6692913385826772
        },
        {
          "duration": 0.22222200000000214,
          "durationTicks": 192,
          "midi": 45,
          "name": "A2",
          "ticks": 34176,
          "time": 39.555516,
          "velocity": 0.6692913385826772
        },
        {
          "duration": 0.22222200000000214,
          "durationTicks": 192,
          "midi": 57,
          "name": "A3",
          "ticks": 34176,
          "time": 39.555516,
          "velocity": 0.6692913385826772
        },
        {
          "duration": 0.22222200000000214,
          "durationTicks": 192,
          "midi": 45,
          "name": "A2",
          "ticks": 34368,
          "time": 39.777738,
          "velocity": 0.6692913385826772
        },
        {
          "duration": 0.22222200000000214,
          "durationTicks": 192,
          "midi": 45,
          "name": "A2",
          "ticks": 34368,
          "time": 39.777738,
          "velocity": 0.6692913385826772
        },
        {
          "duration": 0.22222200000000214,
          "durationTicks": 192,
          "midi": 45,
          "name": "A2",
          "ticks": 34560,
          "time": 39.99996,
          "velocity": 0.6692913385826772
        },
        {
          "duration": 0.22222200000000214,
          "durationTicks": 192,
          "midi": 57,
          "name": "A3",
          "ticks": 34560,
          "time": 39.99996,
          "velocity": 0.6692913385826772
        },
        {
          "duration": 0.22222200000000214,
          "durationTicks": 192,
          "midi": 45,
          "name": "A2",
          "ticks": 34560,
          "time": 39.99996,
          "velocity": 0.6692913385826772
        },
        {
          "duration": 0.22222199999999503,
          "durationTicks": 192,
          "midi": 45,
          "name": "A2",
          "ticks": 34752,
          "time": 40.222182000000004,
          "velocity": 0.6692913385826772
        },
        {
          "duration": 0.22222199999999503,
          "durationTicks": 192,
          "midi": 45,
          "name": "A2",
          "ticks": 34752,
          "time": 40.222182000000004,
          "velocity": 0.6692913385826772
        },
        {
          "duration": 0.22222200000000214,
          "durationTicks": 192,
          "midi": 45,
          "name": "A2",
          "ticks": 34944,
          "time": 40.444404,
          "velocity": 0.6692913385826772
        },
        {
          "duration": 0.22222200000000214,
          "durationTicks": 192,
          "midi": 45,
          "name": "A2",
          "ticks": 34944,
          "time": 40.444404,
          "velocity": 0.6692913385826772
        },
        {
          "duration": 0.22222200000000214,
          "durationTicks": 192,
          "midi": 57,
          "name": "A3",
          "ticks": 34944,
          "time": 40.444404,
          "velocity": 0.6692913385826772
        },
        {
          "duration": 0.22222200000000214,
          "durationTicks": 192,
          "midi": 45,
          "name": "A2",
          "ticks": 35136,
          "time": 40.666626,
          "velocity": 0.6692913385826772
        },
        {
          "duration": 0.22222200000000214,
          "durationTicks": 192,
          "midi": 45,
          "name": "A2",
          "ticks": 35136,
          "time": 40.666626,
          "velocity": 0.6692913385826772
        },
        {
          "duration": 0.22222199999999503,
          "durationTicks": 192,
          "midi": 45,
          "name": "A2",
          "ticks": 35328,
          "time": 40.888848,
          "velocity": 0.6692913385826772
        },
        {
          "duration": 0.22222199999999503,
          "durationTicks": 192,
          "midi": 45,
          "name": "A2",
          "ticks": 35328,
          "time": 40.888848,
          "velocity": 0.6692913385826772
        },
        {
          "duration": 0.22222199999999503,
          "durationTicks": 192,
          "midi": 57,
          "name": "A3",
          "ticks": 35328,
          "time": 40.888848,
          "velocity": 0.6692913385826772
        },
        {
          "duration": 0.22222200000000214,
          "durationTicks": 192,
          "midi": 45,
          "name": "A2",
          "ticks": 35520,
          "time": 41.11107,
          "velocity": 0.6692913385826772
        },
        {
          "duration": 0.22222200000000214,
          "durationTicks": 192,
          "midi": 45,
          "name": "A2",
          "ticks": 35520,
          "time": 41.11107,
          "velocity": 0.6692913385826772
        },
        {
          "duration": 0.22222200000000214,
          "durationTicks": 192,
          "midi": 45,
          "name": "A2",
          "ticks": 35712,
          "time": 41.333292,
          "velocity": 0.6692913385826772
        },
        {
          "duration": 0.22222200000000214,
          "durationTicks": 192,
          "midi": 45,
          "name": "A2",
          "ticks": 35712,
          "time": 41.333292,
          "velocity": 0.6692913385826772
        },
        {
          "duration": 0.22222200000000214,
          "durationTicks": 192,
          "midi": 57,
          "name": "A3",
          "ticks": 35712,
          "time": 41.333292,
          "velocity": 0.6692913385826772
        },
        {
          "duration": 0.22222199999999503,
          "durationTicks": 192,
          "midi": 45,
          "name": "A2",
          "ticks": 35904,
          "time": 41.555514,
          "velocity": 0.6692913385826772
        },
        {
          "duration": 0.22222199999999503,
          "durationTicks": 192,
          "midi": 45,
          "name": "A2",
          "ticks": 35904,
          "time": 41.555514,
          "velocity": 0.6692913385826772
        },
        {
          "duration": 0.22222200000000214,
          "durationTicks": 192,
          "midi": 45,
          "name": "A2",
          "ticks": 36096,
          "time": 41.777736,
          "velocity": 0.6692913385826772
        },
        {
          "duration": 0.22222200000000214,
          "durationTicks": 192,
          "midi": 57,
          "name": "A3",
          "ticks": 36096,
          "time": 41.777736,
          "velocity": 0.6692913385826772
        },
        {
          "duration": 0.22222200000000214,
          "durationTicks": 192,
          "midi": 45,
          "name": "A2",
          "ticks": 36096,
          "time": 41.777736,
          "velocity": 0.6692913385826772
        },
        {
          "duration": 0.22222200000000214,
          "durationTicks": 192,
          "midi": 45,
          "name": "A2",
          "ticks": 36288,
          "time": 41.999958,
          "velocity": 0.6692913385826772
        },
        {
          "duration": 0.22222200000000214,
          "durationTicks": 192,
          "midi": 45,
          "name": "A2",
          "ticks": 36288,
          "time": 41.999958,
          "velocity": 0.6692913385826772
        },
        {
          "duration": 0.22222200000000214,
          "durationTicks": 192,
          "midi": 45,
          "name": "A2",
          "ticks": 36480,
          "time": 42.22218,
          "velocity": 0.6692913385826772
        },
        {
          "duration": 0.22222200000000214,
          "durationTicks": 192,
          "midi": 45,
          "name": "A2",
          "ticks": 36480,
          "time": 42.22218,
          "velocity": 0.6692913385826772
        },
        {
          "duration": 0.22222200000000214,
          "durationTicks": 192,
          "midi": 57,
          "name": "A3",
          "ticks": 36480,
          "time": 42.22218,
          "velocity": 0.6692913385826772
        },
        {
          "duration": 0.22222199999999503,
          "durationTicks": 192,
          "midi": 45,
          "name": "A2",
          "ticks": 36672,
          "time": 42.444402000000004,
          "velocity": 0.6692913385826772
        },
        {
          "duration": 0.22222199999999503,
          "durationTicks": 192,
          "midi": 45,
          "name": "A2",
          "ticks": 36672,
          "time": 42.444402000000004,
          "velocity": 0.6692913385826772
        },
        {
          "duration": 0.22222200000000214,
          "durationTicks": 192,
          "midi": 61,
          "name": "C#4",
          "ticks": 36864,
          "time": 42.666624,
          "velocity": 0.6692913385826772
        },
        {
          "duration": 0.22222200000000214,
          "durationTicks": 192,
          "midi": 37,
          "name": "C#2",
          "ticks": 36864,
          "time": 42.666624,
          "velocity": 0.6692913385826772
        },
        {
          "duration": 0.22222200000000214,
          "durationTicks": 192,
          "midi": 49,
          "name": "C#3",
          "ticks": 36864,
          "time": 42.666624,
          "velocity": 0.6692913385826772
        },
        {
          "duration": 0.22222200000000214,
          "durationTicks": 192,
          "midi": 49,
          "name": "C#3",
          "ticks": 37056,
          "time": 42.888846,
          "velocity": 0.6692913385826772
        },
        {
          "duration": 0.22222200000000214,
          "durationTicks": 192,
          "midi": 37,
          "name": "C#2",
          "ticks": 37056,
          "time": 42.888846,
          "velocity": 0.6692913385826772
        },
        {
          "duration": 0.22222199999999503,
          "durationTicks": 192,
          "midi": 37,
          "name": "C#2",
          "ticks": 37248,
          "time": 43.111068,
          "velocity": 0.6692913385826772
        },
        {
          "duration": 0.22222199999999503,
          "durationTicks": 192,
          "midi": 49,
          "name": "C#3",
          "ticks": 37248,
          "time": 43.111068,
          "velocity": 0.6692913385826772
        },
        {
          "duration": 0.22222199999999503,
          "durationTicks": 192,
          "midi": 61,
          "name": "C#4",
          "ticks": 37248,
          "time": 43.111068,
          "velocity": 0.6692913385826772
        },
        {
          "duration": 0.22222200000000214,
          "durationTicks": 192,
          "midi": 49,
          "name": "C#3",
          "ticks": 37440,
          "time": 43.33329,
          "velocity": 0.6692913385826772
        },
        {
          "duration": 0.22222200000000214,
          "durationTicks": 192,
          "midi": 37,
          "name": "C#2",
          "ticks": 37440,
          "time": 43.33329,
          "velocity": 0.6692913385826772
        },
        {
          "duration": 0.22222200000000214,
          "durationTicks": 192,
          "midi": 61,
          "name": "C#4",
          "ticks": 37632,
          "time": 43.555512,
          "velocity": 0.6692913385826772
        },
        {
          "duration": 0.22222200000000214,
          "durationTicks": 192,
          "midi": 37,
          "name": "C#2",
          "ticks": 37632,
          "time": 43.555512,
          "velocity": 0.6692913385826772
        },
        {
          "duration": 0.22222200000000214,
          "durationTicks": 192,
          "midi": 49,
          "name": "C#3",
          "ticks": 37632,
          "time": 43.555512,
          "velocity": 0.6692913385826772
        },
        {
          "duration": 0.22222199999999503,
          "durationTicks": 192,
          "midi": 37,
          "name": "C#2",
          "ticks": 37824,
          "time": 43.777734,
          "velocity": 0.6692913385826772
        },
        {
          "duration": 0.22222199999999503,
          "durationTicks": 192,
          "midi": 49,
          "name": "C#3",
          "ticks": 37824,
          "time": 43.777734,
          "velocity": 0.6692913385826772
        },
        {
          "duration": 0.22222200000000214,
          "durationTicks": 192,
          "midi": 49,
          "name": "C#3",
          "ticks": 38016,
          "time": 43.999956,
          "velocity": 0.6692913385826772
        },
        {
          "duration": 0.22222200000000214,
          "durationTicks": 192,
          "midi": 37,
          "name": "C#2",
          "ticks": 38016,
          "time": 43.999956,
          "velocity": 0.6692913385826772
        },
        {
          "duration": 0.22222200000000214,
          "durationTicks": 192,
          "midi": 61,
          "name": "C#4",
          "ticks": 38016,
          "time": 43.999956,
          "velocity": 0.6692913385826772
        },
        {
          "duration": 0.22222200000000214,
          "durationTicks": 192,
          "midi": 49,
          "name": "C#3",
          "ticks": 38208,
          "time": 44.222178,
          "velocity": 0.6692913385826772
        },
        {
          "duration": 0.22222200000000214,
          "durationTicks": 192,
          "midi": 37,
          "name": "C#2",
          "ticks": 38208,
          "time": 44.222178,
          "velocity": 0.6692913385826772
        },
        {
          "duration": 0.22222200000000214,
          "durationTicks": 192,
          "midi": 59,
          "name": "B3",
          "ticks": 38400,
          "time": 44.4444,
          "velocity": 0.6692913385826772
        },
        {
          "duration": 0.22222200000000214,
          "durationTicks": 192,
          "midi": 47,
          "name": "B2",
          "ticks": 38400,
          "time": 44.4444,
          "velocity": 0.6692913385826772
        },
        {
          "duration": 0.22222200000000214,
          "durationTicks": 192,
          "midi": 47,
          "name": "B2",
          "ticks": 38400,
          "time": 44.4444,
          "velocity": 0.6692913385826772
        },
        {
          "duration": 0.22222199999999503,
          "durationTicks": 192,
          "midi": 47,
          "name": "B2",
          "ticks": 38592,
          "time": 44.666622000000004,
          "velocity": 0.6692913385826772
        },
        {
          "duration": 0.22222199999999503,
          "durationTicks": 192,
          "midi": 47,
          "name": "B2",
          "ticks": 38592,
          "time": 44.666622000000004,
          "velocity": 0.6692913385826772
        },
        {
          "duration": 0.22222200000000214,
          "durationTicks": 192,
          "midi": 59,
          "name": "B3",
          "ticks": 38784,
          "time": 44.888844,
          "velocity": 0.6692913385826772
        },
        {
          "duration": 0.22222200000000214,
          "durationTicks": 192,
          "midi": 47,
          "name": "B2",
          "ticks": 38784,
          "time": 44.888844,
          "velocity": 0.6692913385826772
        },
        {
          "duration": 0.22222200000000214,
          "durationTicks": 192,
          "midi": 47,
          "name": "B2",
          "ticks": 38784,
          "time": 44.888844,
          "velocity": 0.6692913385826772
        },
        {
          "duration": 0.22222200000000214,
          "durationTicks": 192,
          "midi": 47,
          "name": "B2",
          "ticks": 38976,
          "time": 45.111066,
          "velocity": 0.6692913385826772
        },
        {
          "duration": 0.22222200000000214,
          "durationTicks": 192,
          "midi": 47,
          "name": "B2",
          "ticks": 38976,
          "time": 45.111066,
          "velocity": 0.6692913385826772
        },
        {
          "duration": 0.22222199999999503,
          "durationTicks": 192,
          "midi": 60,
          "name": "C4",
          "ticks": 39168,
          "time": 45.333288,
          "velocity": 0.6692913385826772
        },
        {
          "duration": 0.22222199999999503,
          "durationTicks": 192,
          "midi": 36,
          "name": "C2",
          "ticks": 39168,
          "time": 45.333288,
          "velocity": 0.6692913385826772
        },
        {
          "duration": 0.22222199999999503,
          "durationTicks": 192,
          "midi": 48,
          "name": "C3",
          "ticks": 39168,
          "time": 45.333288,
          "velocity": 0.6692913385826772
        },
        {
          "duration": 0.22222200000000214,
          "durationTicks": 192,
          "midi": 48,
          "name": "C3",
          "ticks": 39360,
          "time": 45.55551,
          "velocity": 0.6692913385826772
        },
        {
          "duration": 0.22222200000000214,
          "durationTicks": 192,
          "midi": 36,
          "name": "C2",
          "ticks": 39360,
          "time": 45.55551,
          "velocity": 0.6692913385826772
        },
        {
          "duration": 0.22222200000000214,
          "durationTicks": 192,
          "midi": 60,
          "name": "C4",
          "ticks": 39552,
          "time": 45.777732,
          "velocity": 0.6692913385826772
        },
        {
          "duration": 0.22222200000000214,
          "durationTicks": 192,
          "midi": 36,
          "name": "C2",
          "ticks": 39552,
          "time": 45.777732,
          "velocity": 0.6692913385826772
        },
        {
          "duration": 0.22222200000000214,
          "durationTicks": 192,
          "midi": 48,
          "name": "C3",
          "ticks": 39552,
          "time": 45.777732,
          "velocity": 0.6692913385826772
        },
        {
          "duration": 0.22222199999999503,
          "durationTicks": 192,
          "midi": 36,
          "name": "C2",
          "ticks": 39744,
          "time": 45.999954,
          "velocity": 0.6692913385826772
        },
        {
          "duration": 0.22222199999999503,
          "durationTicks": 192,
          "midi": 48,
          "name": "C3",
          "ticks": 39744,
          "time": 45.999954,
          "velocity": 0.6692913385826772
        },
        {
          "duration": 0.22222200000000214,
          "durationTicks": 192,
          "midi": 45,
          "name": "A2",
          "ticks": 39936,
          "time": 46.222176,
          "velocity": 0.6692913385826772
        },
        {
          "duration": 0.22222200000000214,
          "durationTicks": 192,
          "midi": 57,
          "name": "A3",
          "ticks": 39936,
          "time": 46.222176,
          "velocity": 0.6692913385826772
        },
        {
          "duration": 0.22222200000000214,
          "durationTicks": 192,
          "midi": 45,
          "name": "A2",
          "ticks": 39936,
          "time": 46.222176,
          "velocity": 0.6692913385826772
        },
        {
          "duration": 0.22222200000000214,
          "durationTicks": 192,
          "midi": 45,
          "name": "A2",
          "ticks": 40128,
          "time": 46.444398,
          "velocity": 0.6692913385826772
        },
        {
          "duration": 0.22222200000000214,
          "durationTicks": 192,
          "midi": 45,
          "name": "A2",
          "ticks": 40128,
          "time": 46.444398,
          "velocity": 0.6692913385826772
        },
        {
          "duration": 0.22222200000000214,
          "durationTicks": 192,
          "midi": 45,
          "name": "A2",
          "ticks": 40320,
          "time": 46.66662,
          "velocity": 0.6692913385826772
        },
        {
          "duration": 0.22222200000000214,
          "durationTicks": 192,
          "midi": 45,
          "name": "A2",
          "ticks": 40320,
          "time": 46.66662,
          "velocity": 0.6692913385826772
        },
        {
          "duration": 0.22222200000000214,
          "durationTicks": 192,
          "midi": 57,
          "name": "A3",
          "ticks": 40320,
          "time": 46.66662,
          "velocity": 0.6692913385826772
        },
        {
          "duration": 0.22222199999999503,
          "durationTicks": 192,
          "midi": 45,
          "name": "A2",
          "ticks": 40512,
          "time": 46.888842000000004,
          "velocity": 0.6692913385826772
        },
        {
          "duration": 0.22222199999999503,
          "durationTicks": 192,
          "midi": 45,
          "name": "A2",
          "ticks": 40512,
          "time": 46.888842000000004,
          "velocity": 0.6692913385826772
        },
        {
          "duration": 0.22222200000000214,
          "durationTicks": 192,
          "midi": 45,
          "name": "A2",
          "ticks": 40704,
          "time": 47.111064,
          "velocity": 0.6692913385826772
        },
        {
          "duration": 0.22222200000000214,
          "durationTicks": 192,
          "midi": 45,
          "name": "A2",
          "ticks": 40704,
          "time": 47.111064,
          "velocity": 0.6692913385826772
        },
        {
          "duration": 0.22222200000000214,
          "durationTicks": 192,
          "midi": 57,
          "name": "A3",
          "ticks": 40704,
          "time": 47.111064,
          "velocity": 0.6692913385826772
        },
        {
          "duration": 0.22222200000000214,
          "durationTicks": 192,
          "midi": 45,
          "name": "A2",
          "ticks": 40896,
          "time": 47.333286,
          "velocity": 0.6692913385826772
        },
        {
          "duration": 0.22222200000000214,
          "durationTicks": 192,
          "midi": 45,
          "name": "A2",
          "ticks": 40896,
          "time": 47.333286,
          "velocity": 0.6692913385826772
        },
        {
          "duration": 0.22222199999999503,
          "durationTicks": 192,
          "midi": 57,
          "name": "A3",
          "ticks": 41088,
          "time": 47.555508,
          "velocity": 0.6692913385826772
        },
        {
          "duration": 0.22222199999999503,
          "durationTicks": 192,
          "midi": 45,
          "name": "A2",
          "ticks": 41088,
          "time": 47.555508,
          "velocity": 0.6692913385826772
        },
        {
          "duration": 0.22222199999999503,
          "durationTicks": 192,
          "midi": 45,
          "name": "A2",
          "ticks": 41088,
          "time": 47.555508,
          "velocity": 0.6692913385826772
        },
        {
          "duration": 0.22222200000000214,
          "durationTicks": 192,
          "midi": 45,
          "name": "A2",
          "ticks": 41280,
          "time": 47.77773,
          "velocity": 0.6692913385826772
        },
        {
          "duration": 0.22222200000000214,
          "durationTicks": 192,
          "midi": 45,
          "name": "A2",
          "ticks": 41280,
          "time": 47.77773,
          "velocity": 0.6692913385826772
        },
        {
          "duration": 0.22222200000000214,
          "durationTicks": 192,
          "midi": 45,
          "name": "A2",
          "ticks": 41472,
          "time": 47.999952,
          "velocity": 0.6692913385826772
        },
        {
          "duration": 0.22222200000000214,
          "durationTicks": 192,
          "midi": 45,
          "name": "A2",
          "ticks": 41472,
          "time": 47.999952,
          "velocity": 0.6692913385826772
        },
        {
          "duration": 0.22222200000000214,
          "durationTicks": 192,
          "midi": 57,
          "name": "A3",
          "ticks": 41472,
          "time": 47.999952,
          "velocity": 0.6692913385826772
        },
        {
          "duration": 0.22222199999999503,
          "durationTicks": 192,
          "midi": 45,
          "name": "A2",
          "ticks": 41664,
          "time": 48.222174,
          "velocity": 0.6692913385826772
        },
        {
          "duration": 0.22222199999999503,
          "durationTicks": 192,
          "midi": 45,
          "name": "A2",
          "ticks": 41664,
          "time": 48.222174,
          "velocity": 0.6692913385826772
        },
        {
          "duration": 0.22222200000000214,
          "durationTicks": 192,
          "midi": 45,
          "name": "A2",
          "ticks": 41856,
          "time": 48.444396,
          "velocity": 0.6692913385826772
        },
        {
          "duration": 0.22222200000000214,
          "durationTicks": 192,
          "midi": 57,
          "name": "A3",
          "ticks": 41856,
          "time": 48.444396,
          "velocity": 0.6692913385826772
        },
        {
          "duration": 0.22222200000000214,
          "durationTicks": 192,
          "midi": 45,
          "name": "A2",
          "ticks": 41856,
          "time": 48.444396,
          "velocity": 0.6692913385826772
        },
        {
          "duration": 0.22222200000000214,
          "durationTicks": 192,
          "midi": 45,
          "name": "A2",
          "ticks": 42048,
          "time": 48.666618,
          "velocity": 0.6692913385826772
        },
        {
          "duration": 0.22222200000000214,
          "durationTicks": 192,
          "midi": 45,
          "name": "A2",
          "ticks": 42048,
          "time": 48.666618,
          "velocity": 0.6692913385826772
        },
        {
          "duration": 0.22222200000000214,
          "durationTicks": 192,
          "midi": 57,
          "name": "A3",
          "ticks": 42240,
          "time": 48.88884,
          "velocity": 0.6692913385826772
        },
        {
          "duration": 0.22222200000000214,
          "durationTicks": 192,
          "midi": 45,
          "name": "A2",
          "ticks": 42240,
          "time": 48.88884,
          "velocity": 0.6692913385826772
        },
        {
          "duration": 0.22222200000000214,
          "durationTicks": 192,
          "midi": 45,
          "name": "A2",
          "ticks": 42240,
          "time": 48.88884,
          "velocity": 0.6692913385826772
        },
        {
          "duration": 0.22222199999999503,
          "durationTicks": 192,
          "midi": 45,
          "name": "A2",
          "ticks": 42432,
          "time": 49.111062000000004,
          "velocity": 0.6692913385826772
        },
        {
          "duration": 0.22222199999999503,
          "durationTicks": 192,
          "midi": 45,
          "name": "A2",
          "ticks": 42432,
          "time": 49.111062000000004,
          "velocity": 0.6692913385826772
        },
        {
          "duration": 0.22222200000000214,
          "durationTicks": 192,
          "midi": 45,
          "name": "A2",
          "ticks": 42624,
          "time": 49.333284,
          "velocity": 0.6692913385826772
        },
        {
          "duration": 0.22222200000000214,
          "durationTicks": 192,
          "midi": 45,
          "name": "A2",
          "ticks": 42624,
          "time": 49.333284,
          "velocity": 0.6692913385826772
        },
        {
          "duration": 0.22222200000000214,
          "durationTicks": 192,
          "midi": 57,
          "name": "A3",
          "ticks": 42624,
          "time": 49.333284,
          "velocity": 0.6692913385826772
        },
        {
          "duration": 0.22222200000000214,
          "durationTicks": 192,
          "midi": 45,
          "name": "A2",
          "ticks": 42816,
          "time": 49.555506,
          "velocity": 0.6692913385826772
        },
        {
          "duration": 0.22222200000000214,
          "durationTicks": 192,
          "midi": 45,
          "name": "A2",
          "ticks": 42816,
          "time": 49.555506,
          "velocity": 0.6692913385826772
        },
        {
          "duration": 0.22222199999999503,
          "durationTicks": 192,
          "midi": 49,
          "name": "C#3",
          "ticks": 43008,
          "time": 49.777728,
          "velocity": 0.6692913385826772
        },
        {
          "duration": 0.22222199999999503,
          "durationTicks": 192,
          "midi": 37,
          "name": "C#2",
          "ticks": 43008,
          "time": 49.777728,
          "velocity": 0.6692913385826772
        },
        {
          "duration": 0.22222199999999503,
          "durationTicks": 192,
          "midi": 61,
          "name": "C#4",
          "ticks": 43008,
          "time": 49.777728,
          "velocity": 0.6692913385826772
        },
        {
          "duration": 0.22222200000000214,
          "durationTicks": 192,
          "midi": 61,
          "name": "C#4",
          "ticks": 43392,
          "time": 50.222172,
          "velocity": 0.6692913385826772
        },
        {
          "duration": 0.22222200000000214,
          "durationTicks": 192,
          "midi": 37,
          "name": "C#2",
          "ticks": 43392,
          "time": 50.222172,
          "velocity": 0.6692913385826772
        },
        {
          "duration": 0.22222200000000214,
          "durationTicks": 192,
          "midi": 49,
          "name": "C#3",
          "ticks": 43392,
          "time": 50.222172,
          "velocity": 0.6692913385826772
        },
        {
          "duration": 0.22222200000000214,
          "durationTicks": 192,
          "midi": 49,
          "name": "C#3",
          "ticks": 43776,
          "time": 50.666616,
          "velocity": 0.6692913385826772
        },
        {
          "duration": 0.22222200000000214,
          "durationTicks": 192,
          "midi": 37,
          "name": "C#2",
          "ticks": 43776,
          "time": 50.666616,
          "velocity": 0.6692913385826772
        },
        {
          "duration": 0.22222200000000214,
          "durationTicks": 192,
          "midi": 61,
          "name": "C#4",
          "ticks": 43776,
          "time": 50.666616,
          "velocity": 0.6692913385826772
        },
        {
          "duration": 0.22222200000000214,
          "durationTicks": 192,
          "midi": 49,
          "name": "C#3",
          "ticks": 44160,
          "time": 51.11106,
          "velocity": 0.6692913385826772
        },
        {
          "duration": 0.22222200000000214,
          "durationTicks": 192,
          "midi": 61,
          "name": "C#4",
          "ticks": 44160,
          "time": 51.11106,
          "velocity": 0.6692913385826772
        },
        {
          "duration": 0.22222200000000214,
          "durationTicks": 192,
          "midi": 37,
          "name": "C#2",
          "ticks": 44160,
          "time": 51.11106,
          "velocity": 0.6692913385826772
        },
        {
          "duration": 0.22222200000000214,
          "durationTicks": 192,
          "midi": 49,
          "name": "C#3",
          "ticks": 44544,
          "time": 51.555504,
          "velocity": 0.6692913385826772
        },
        {
          "duration": 0.22222200000000214,
          "durationTicks": 192,
          "midi": 61,
          "name": "C#4",
          "ticks": 44544,
          "time": 51.555504,
          "velocity": 0.6692913385826772
        },
        {
          "duration": 0.22222200000000214,
          "durationTicks": 192,
          "midi": 37,
          "name": "C#2",
          "ticks": 44544,
          "time": 51.555504,
          "velocity": 0.6692913385826772
        },
        {
          "duration": 0.22222199999999503,
          "durationTicks": 192,
          "midi": 37,
          "name": "C#2",
          "ticks": 44928,
          "time": 51.999948,
          "velocity": 0.6692913385826772
        },
        {
          "duration": 0.22222199999999503,
          "durationTicks": 192,
          "midi": 49,
          "name": "C#3",
          "ticks": 44928,
          "time": 51.999948,
          "velocity": 0.6692913385826772
        },
        {
          "duration": 0.22222199999999503,
          "durationTicks": 192,
          "midi": 61,
          "name": "C#4",
          "ticks": 44928,
          "time": 51.999948,
          "velocity": 0.6692913385826772
        },
        {
          "duration": 0.22222200000000214,
          "durationTicks": 192,
          "midi": 37,
          "name": "C#2",
          "ticks": 45312,
          "time": 52.444392,
          "velocity": 0.6692913385826772
        },
        {
          "duration": 0.22222200000000214,
          "durationTicks": 192,
          "midi": 61,
          "name": "C#4",
          "ticks": 45312,
          "time": 52.444392,
          "velocity": 0.6692913385826772
        },
        {
          "duration": 0.22222200000000214,
          "durationTicks": 192,
          "midi": 49,
          "name": "C#3",
          "ticks": 45312,
          "time": 52.444392,
          "velocity": 0.6692913385826772
        },
        {
          "duration": 0.22222200000000214,
          "durationTicks": 192,
          "midi": 37,
          "name": "C#2",
          "ticks": 45696,
          "time": 52.888836,
          "velocity": 0.6692913385826772
        },
        {
          "duration": 0.22222200000000214,
          "durationTicks": 192,
          "midi": 61,
          "name": "C#4",
          "ticks": 45696,
          "time": 52.888836,
          "velocity": 0.6692913385826772
        },
        {
          "duration": 0.22222200000000214,
          "durationTicks": 192,
          "midi": 49,
          "name": "C#3",
          "ticks": 45696,
          "time": 52.888836,
          "velocity": 0.6692913385826772
        },
        {
          "duration": 0.22222200000000214,
          "durationTicks": 192,
          "midi": 37,
          "name": "C#2",
          "ticks": 46080,
          "time": 53.33328,
          "velocity": 0.6692913385826772
        },
        {
          "duration": 0.22222200000000214,
          "durationTicks": 192,
          "midi": 49,
          "name": "C#3",
          "ticks": 46080,
          "time": 53.33328,
          "velocity": 0.6692913385826772
        },
        {
          "duration": 0.22222200000000214,
          "durationTicks": 192,
          "midi": 61,
          "name": "C#4",
          "ticks": 46080,
          "time": 53.33328,
          "velocity": 0.6692913385826772
        },
        {
          "duration": 0.22222200000000214,
          "durationTicks": 192,
          "midi": 61,
          "name": "C#4",
          "ticks": 46464,
          "time": 53.777724,
          "velocity": 0.6692913385826772
        },
        {
          "duration": 0.22222200000000214,
          "durationTicks": 192,
          "midi": 49,
          "name": "C#3",
          "ticks": 46464,
          "time": 53.777724,
          "velocity": 0.6692913385826772
        },
        {
          "duration": 0.22222200000000214,
          "durationTicks": 192,
          "midi": 37,
          "name": "C#2",
          "ticks": 46464,
          "time": 53.777724,
          "velocity": 0.6692913385826772
        },
        {
          "duration": 0.22222199999999503,
          "durationTicks": 192,
          "midi": 37,
          "name": "C#2",
          "ticks": 46848,
          "time": 54.222168,
          "velocity": 0.6692913385826772
        },
        {
          "duration": 0.22222199999999503,
          "durationTicks": 192,
          "midi": 49,
          "name": "C#3",
          "ticks": 46848,
          "time": 54.222168,
          "velocity": 0.6692913385826772
        },
        {
          "duration": 0.22222199999999503,
          "durationTicks": 192,
          "midi": 61,
          "name": "C#4",
          "ticks": 46848,
          "time": 54.222168,
          "velocity": 0.6692913385826772
        },
        {
          "duration": 0.22222200000000214,
          "durationTicks": 192,
          "midi": 49,
          "name": "C#3",
          "ticks": 47232,
          "time": 54.666612,
          "velocity": 0.6692913385826772
        },
        {
          "duration": 0.22222200000000214,
          "durationTicks": 192,
          "midi": 37,
          "name": "C#2",
          "ticks": 47232,
          "time": 54.666612,
          "velocity": 0.6692913385826772
        },
        {
          "duration": 0.22222200000000214,
          "durationTicks": 192,
          "midi": 61,
          "name": "C#4",
          "ticks": 47232,
          "time": 54.666612,
          "velocity": 0.6692913385826772
        },
        {
          "duration": 0.22222200000000214,
          "durationTicks": 192,
          "midi": 61,
          "name": "C#4",
          "ticks": 47616,
          "time": 55.111056,
          "velocity": 0.6692913385826772
        },
        {
          "duration": 0.22222200000000214,
          "durationTicks": 192,
          "midi": 49,
          "name": "C#3",
          "ticks": 47616,
          "time": 55.111056,
          "velocity": 0.6692913385826772
        },
        {
          "duration": 0.22222200000000214,
          "durationTicks": 192,
          "midi": 37,
          "name": "C#2",
          "ticks": 47616,
          "time": 55.111056,
          "velocity": 0.6692913385826772
        },
        {
          "duration": 0.22222200000000214,
          "durationTicks": 192,
          "midi": 61,
          "name": "C#4",
          "ticks": 48000,
          "time": 55.5555,
          "velocity": 0.6692913385826772
        },
        {
          "duration": 0.22222200000000214,
          "durationTicks": 192,
          "midi": 37,
          "name": "C#2",
          "ticks": 48000,
          "time": 55.5555,
          "velocity": 0.6692913385826772
        },
        {
          "duration": 0.22222200000000214,
          "durationTicks": 192,
          "midi": 49,
          "name": "C#3",
          "ticks": 48000,
          "time": 55.5555,
          "velocity": 0.6692913385826772
        },
        {
          "duration": 0.22222200000000214,
          "durationTicks": 192,
          "midi": 49,
          "name": "C#3",
          "ticks": 48384,
          "time": 55.999944,
          "velocity": 0.6692913385826772
        },
        {
          "duration": 0.22222200000000214,
          "durationTicks": 192,
          "midi": 37,
          "name": "C#2",
          "ticks": 48384,
          "time": 55.999944,
          "velocity": 0.6692913385826772
        },
        {
          "duration": 0.22222200000000214,
          "durationTicks": 192,
          "midi": 61,
          "name": "C#4",
          "ticks": 48384,
          "time": 55.999944,
          "velocity": 0.6692913385826772
        },
        {
          "duration": 0.22222199999999503,
          "durationTicks": 192,
          "midi": 61,
          "name": "C#4",
          "ticks": 48768,
          "time": 56.444388000000004,
          "velocity": 0.6692913385826772
        },
        {
          "duration": 0.22222199999999503,
          "durationTicks": 192,
          "midi": 37,
          "name": "C#2",
          "ticks": 48768,
          "time": 56.444388000000004,
          "velocity": 0.6692913385826772
        },
        {
          "duration": 0.22222199999999503,
          "durationTicks": 192,
          "midi": 49,
          "name": "C#3",
          "ticks": 48768,
          "time": 56.444388000000004,
          "velocity": 0.6692913385826772
        },
        {
          "duration": 0.22222200000000214,
          "durationTicks": 192,
          "midi": 45,
          "name": "A2",
          "ticks": 49152,
          "time": 56.888832,
          "velocity": 0.6692913385826772
        },
        {
          "duration": 0.22222200000000214,
          "durationTicks": 192,
          "midi": 45,
          "name": "A2",
          "ticks": 49152,
          "time": 56.888832,
          "velocity": 0.6692913385826772
        },
        {
          "duration": 0.22222200000000214,
          "durationTicks": 192,
          "midi": 57,
          "name": "A3",
          "ticks": 49152,
          "time": 56.888832,
          "velocity": 0.6692913385826772
        },
        {
          "duration": 0.22222200000000214,
          "durationTicks": 192,
          "midi": 57,
          "name": "A3",
          "ticks": 49536,
          "time": 57.333276,
          "velocity": 0.6692913385826772
        },
        {
          "duration": 0.22222200000000214,
          "durationTicks": 192,
          "midi": 45,
          "name": "A2",
          "ticks": 49536,
          "time": 57.333276,
          "velocity": 0.6692913385826772
        },
        {
          "duration": 0.22222200000000214,
          "durationTicks": 192,
          "midi": 45,
          "name": "A2",
          "ticks": 49536,
          "time": 57.333276,
          "velocity": 0.6692913385826772
        },
        {
          "duration": 0.22222199999999503,
          "durationTicks": 192,
          "midi": 57,
          "name": "A3",
          "ticks": 49920,
          "time": 57.77772,
          "velocity": 0.6692913385826772
        },
        {
          "duration": 0.22222199999999503,
          "durationTicks": 192,
          "midi": 45,
          "name": "A2",
          "ticks": 49920,
          "time": 57.77772,
          "velocity": 0.6692913385826772
        },
        {
          "duration": 0.22222199999999503,
          "durationTicks": 192,
          "midi": 45,
          "name": "A2",
          "ticks": 49920,
          "time": 57.77772,
          "velocity": 0.6692913385826772
        },
        {
          "duration": 0.22222200000000214,
          "durationTicks": 192,
          "midi": 45,
          "name": "A2",
          "ticks": 50304,
          "time": 58.222164,
          "velocity": 0.6692913385826772
        },
        {
          "duration": 0.22222200000000214,
          "durationTicks": 192,
          "midi": 45,
          "name": "A2",
          "ticks": 50304,
          "time": 58.222164,
          "velocity": 0.6692913385826772
        },
        {
          "duration": 0.22222200000000214,
          "durationTicks": 192,
          "midi": 57,
          "name": "A3",
          "ticks": 50304,
          "time": 58.222164,
          "velocity": 0.6692913385826772
        },
        {
          "duration": 0.22222199999999503,
          "durationTicks": 192,
          "midi": 45,
          "name": "A2",
          "ticks": 50688,
          "time": 58.666608000000004,
          "velocity": 0.6692913385826772
        },
        {
          "duration": 0.22222199999999503,
          "durationTicks": 192,
          "midi": 57,
          "name": "A3",
          "ticks": 50688,
          "time": 58.666608000000004,
          "velocity": 0.6692913385826772
        },
        {
          "duration": 0.22222199999999503,
          "durationTicks": 192,
          "midi": 45,
          "name": "A2",
          "ticks": 50688,
          "time": 58.666608000000004,
          "velocity": 0.6692913385826772
        },
        {
          "duration": 0.22222200000000214,
          "durationTicks": 192,
          "midi": 45,
          "name": "A2",
          "ticks": 51072,
          "time": 59.111052,
          "velocity": 0.6692913385826772
        },
        {
          "duration": 0.22222200000000214,
          "durationTicks": 192,
          "midi": 57,
          "name": "A3",
          "ticks": 51072,
          "time": 59.111052,
          "velocity": 0.6692913385826772
        },
        {
          "duration": 0.22222200000000214,
          "durationTicks": 192,
          "midi": 45,
          "name": "A2",
          "ticks": 51072,
          "time": 59.111052,
          "velocity": 0.6692913385826772
        },
        {
          "duration": 0.22222200000000214,
          "durationTicks": 192,
          "midi": 57,
          "name": "A3",
          "ticks": 51456,
          "time": 59.555496,
          "velocity": 0.6692913385826772
        },
        {
          "duration": 0.22222200000000214,
          "durationTicks": 192,
          "midi": 45,
          "name": "A2",
          "ticks": 51456,
          "time": 59.555496,
          "velocity": 0.6692913385826772
        },
        {
          "duration": 0.22222200000000214,
          "durationTicks": 192,
          "midi": 45,
          "name": "A2",
          "ticks": 51456,
          "time": 59.555496,
          "velocity": 0.6692913385826772
        },
        {
          "duration": 0.22222199999999503,
          "durationTicks": 192,
          "midi": 45,
          "name": "A2",
          "ticks": 51840,
          "time": 59.99994,
          "velocity": 0.6692913385826772
        },
        {
          "duration": 0.22222199999999503,
          "durationTicks": 192,
          "midi": 57,
          "name": "A3",
          "ticks": 51840,
          "time": 59.99994,
          "velocity": 0.6692913385826772
        },
        {
          "duration": 0.22222199999999503,
          "durationTicks": 192,
          "midi": 45,
          "name": "A2",
          "ticks": 51840,
          "time": 59.99994,
          "velocity": 0.6692913385826772
        },
        {
          "duration": 0.22222200000000214,
          "durationTicks": 192,
          "midi": 59,
          "name": "B3",
          "ticks": 52224,
          "time": 60.444384,
          "velocity": 0.6692913385826772
        },
        {
          "duration": 0.22222200000000214,
          "durationTicks": 192,
          "midi": 47,
          "name": "B2",
          "ticks": 52224,
          "time": 60.444384,
          "velocity": 0.6692913385826772
        },
        {
          "duration": 0.22222200000000214,
          "durationTicks": 192,
          "midi": 47,
          "name": "B2",
          "ticks": 52224,
          "time": 60.444384,
          "velocity": 0.6692913385826772
        },
        {
          "duration": 0.22222199999999503,
          "durationTicks": 192,
          "midi": 47,
          "name": "B2",
          "ticks": 52608,
          "time": 60.888828000000004,
          "velocity": 0.6692913385826772
        },
        {
          "duration": 0.22222199999999503,
          "durationTicks": 192,
          "midi": 59,
          "name": "B3",
          "ticks": 52608,
          "time": 60.888828000000004,
          "velocity": 0.6692913385826772
        },
        {
          "duration": 0.22222199999999503,
          "durationTicks": 192,
          "midi": 47,
          "name": "B2",
          "ticks": 52608,
          "time": 60.888828000000004,
          "velocity": 0.6692913385826772
        },
        {
          "duration": 0.22222200000000214,
          "durationTicks": 192,
          "midi": 59,
          "name": "B3",
          "ticks": 52992,
          "time": 61.333272,
          "velocity": 0.6692913385826772
        },
        {
          "duration": 0.22222200000000214,
          "durationTicks": 192,
          "midi": 47,
          "name": "B2",
          "ticks": 52992,
          "time": 61.333272,
          "velocity": 0.6692913385826772
        },
        {
          "duration": 0.22222200000000214,
          "durationTicks": 192,
          "midi": 47,
          "name": "B2",
          "ticks": 52992,
          "time": 61.333272,
          "velocity": 0.6692913385826772
        },
        {
          "duration": 0.22222200000000214,
          "durationTicks": 192,
          "midi": 47,
          "name": "B2",
          "ticks": 53376,
          "time": 61.777716,
          "velocity": 0.6692913385826772
        },
        {
          "duration": 0.22222200000000214,
          "durationTicks": 192,
          "midi": 59,
          "name": "B3",
          "ticks": 53376,
          "time": 61.777716,
          "velocity": 0.6692913385826772
        },
        {
          "duration": 0.22222200000000214,
          "durationTicks": 192,
          "midi": 47,
          "name": "B2",
          "ticks": 53376,
          "time": 61.777716,
          "velocity": 0.6692913385826772
        },
        {
          "duration": 0.22222199999999503,
          "durationTicks": 192,
          "midi": 40,
          "name": "E2",
          "ticks": 53760,
          "time": 62.22216,
          "velocity": 0.6692913385826772
        },
        {
          "duration": 0.22222199999999503,
          "durationTicks": 192,
          "midi": 64,
          "name": "E4",
          "ticks": 53760,
          "time": 62.22216,
          "velocity": 0.6692913385826772
        },
        {
          "duration": 0.22222199999999503,
          "durationTicks": 192,
          "midi": 52,
          "name": "E3",
          "ticks": 53760,
          "time": 62.22216,
          "velocity": 0.6692913385826772
        },
        {
          "duration": 0.22222200000000214,
          "durationTicks": 192,
          "midi": 64,
          "name": "E4",
          "ticks": 54144,
          "time": 62.666604,
          "velocity": 0.6692913385826772
        },
        {
          "duration": 0.22222200000000214,
          "durationTicks": 192,
          "midi": 52,
          "name": "E3",
          "ticks": 54144,
          "time": 62.666604,
          "velocity": 0.6692913385826772
        },
        {
          "duration": 0.22222200000000214,
          "durationTicks": 192,
          "midi": 40,
          "name": "E2",
          "ticks": 54144,
          "time": 62.666604,
          "velocity": 0.6692913385826772
        },
        {
          "duration": 0.22222199999999503,
          "durationTicks": 192,
          "midi": 52,
          "name": "E3",
          "ticks": 54528,
          "time": 63.111048000000004,
          "velocity": 0.6692913385826772
        },
        {
          "duration": 0.22222199999999503,
          "durationTicks": 192,
          "midi": 64,
          "name": "E4",
          "ticks": 54528,
          "time": 63.111048000000004,
          "velocity": 0.6692913385826772
        },
        {
          "duration": 0.22222199999999503,
          "durationTicks": 192,
          "midi": 40,
          "name": "E2",
          "ticks": 54528,
          "time": 63.111048000000004,
          "velocity": 0.6692913385826772
        },
        {
          "duration": 0.22222200000000214,
          "durationTicks": 192,
          "midi": 52,
          "name": "E3",
          "ticks": 54912,
          "time": 63.555492,
          "velocity": 0.6692913385826772
        },
        {
          "duration": 0.22222200000000214,
          "durationTicks": 192,
          "midi": 64,
          "name": "E4",
          "ticks": 54912,
          "time": 63.555492,
          "velocity": 0.6692913385826772
        },
        {
          "duration": 0.22222200000000214,
          "durationTicks": 192,
          "midi": 40,
          "name": "E2",
          "ticks": 54912,
          "time": 63.555492,
          "velocity": 0.6692913385826772
        },
        {
          "duration": 0.22222200000000925,
          "durationTicks": 192,
          "midi": 61,
          "name": "C#4",
          "ticks": 55296,
          "time": 63.999936,
          "velocity": 0.6692913385826772
        },
        {
          "duration": 0.22222200000000925,
          "durationTicks": 192,
          "midi": 37,
          "name": "C#2",
          "ticks": 55296,
          "time": 63.999936,
          "velocity": 0.6692913385826772
        },
        {
          "duration": 0.22222200000000925,
          "durationTicks": 192,
          "midi": 49,
          "name": "C#3",
          "ticks": 55296,
          "time": 63.999936,
          "velocity": 0.6692913385826772
        },
        {
          "duration": 0.22222200000000214,
          "durationTicks": 192,
          "midi": 61,
          "name": "C#4",
          "ticks": 55680,
          "time": 64.44438,
          "velocity": 0.6692913385826772
        },
        {
          "duration": 0.22222200000000214,
          "durationTicks": 192,
          "midi": 37,
          "name": "C#2",
          "ticks": 55680,
          "time": 64.44438,
          "velocity": 0.6692913385826772
        },
        {
          "duration": 0.22222200000000214,
          "durationTicks": 192,
          "midi": 49,
          "name": "C#3",
          "ticks": 55680,
          "time": 64.44438,
          "velocity": 0.6692913385826772
        },
        {
          "duration": 0.22222200000000214,
          "durationTicks": 192,
          "midi": 61,
          "name": "C#4",
          "ticks": 56064,
          "time": 64.888824,
          "velocity": 0.6692913385826772
        },
        {
          "duration": 0.22222200000000214,
          "durationTicks": 192,
          "midi": 49,
          "name": "C#3",
          "ticks": 56064,
          "time": 64.888824,
          "velocity": 0.6692913385826772
        },
        {
          "duration": 0.22222200000000214,
          "durationTicks": 192,
          "midi": 37,
          "name": "C#2",
          "ticks": 56064,
          "time": 64.888824,
          "velocity": 0.6692913385826772
        },
        {
          "duration": 0.22222200000000214,
          "durationTicks": 192,
          "midi": 37,
          "name": "C#2",
          "ticks": 56448,
          "time": 65.333268,
          "velocity": 0.6692913385826772
        },
        {
          "duration": 0.22222200000000214,
          "durationTicks": 192,
          "midi": 49,
          "name": "C#3",
          "ticks": 56448,
          "time": 65.333268,
          "velocity": 0.6692913385826772
        },
        {
          "duration": 0.22222200000000214,
          "durationTicks": 192,
          "midi": 61,
          "name": "C#4",
          "ticks": 56448,
          "time": 65.333268,
          "velocity": 0.6692913385826772
        },
        {
          "duration": 0.22222200000000214,
          "durationTicks": 192,
          "midi": 49,
          "name": "C#3",
          "ticks": 56832,
          "time": 65.777712,
          "velocity": 0.6692913385826772
        },
        {
          "duration": 0.22222200000000214,
          "durationTicks": 192,
          "midi": 37,
          "name": "C#2",
          "ticks": 56832,
          "time": 65.777712,
          "velocity": 0.6692913385826772
        },
        {
          "duration": 0.22222200000000214,
          "durationTicks": 192,
          "midi": 61,
          "name": "C#4",
          "ticks": 56832,
          "time": 65.777712,
          "velocity": 0.6692913385826772
        },
        {
          "duration": 0.22222200000000214,
          "durationTicks": 192,
          "midi": 49,
          "name": "C#3",
          "ticks": 57216,
          "time": 66.222156,
          "velocity": 0.6692913385826772
        },
        {
          "duration": 0.22222200000000214,
          "durationTicks": 192,
          "midi": 37,
          "name": "C#2",
          "ticks": 57216,
          "time": 66.222156,
          "velocity": 0.6692913385826772
        },
        {
          "duration": 0.22222200000000214,
          "durationTicks": 192,
          "midi": 61,
          "name": "C#4",
          "ticks": 57216,
          "time": 66.222156,
          "velocity": 0.6692913385826772
        },
        {
          "duration": 0.22222200000000214,
          "durationTicks": 192,
          "midi": 37,
          "name": "C#2",
          "ticks": 57600,
          "time": 66.6666,
          "velocity": 0.6692913385826772
        },
        {
          "duration": 0.22222200000000214,
          "durationTicks": 192,
          "midi": 49,
          "name": "C#3",
          "ticks": 57600,
          "time": 66.6666,
          "velocity": 0.6692913385826772
        },
        {
          "duration": 0.22222200000000214,
          "durationTicks": 192,
          "midi": 61,
          "name": "C#4",
          "ticks": 57600,
          "time": 66.6666,
          "velocity": 0.6692913385826772
        },
        {
          "duration": 0.22222199999998793,
          "durationTicks": 192,
          "midi": 61,
          "name": "C#4",
          "ticks": 57984,
          "time": 67.111044,
          "velocity": 0.6692913385826772
        },
        {
          "duration": 0.22222199999998793,
          "durationTicks": 192,
          "midi": 37,
          "name": "C#2",
          "ticks": 57984,
          "time": 67.111044,
          "velocity": 0.6692913385826772
        },
        {
          "duration": 0.22222199999998793,
          "durationTicks": 192,
          "midi": 49,
          "name": "C#3",
          "ticks": 57984,
          "time": 67.111044,
          "velocity": 0.6692913385826772
        },
        {
          "duration": 0.22222200000000214,
          "durationTicks": 192,
          "midi": 61,
          "name": "C#4",
          "ticks": 58368,
          "time": 67.555488,
          "velocity": 0.6692913385826772
        },
        {
          "duration": 0.22222200000000214,
          "durationTicks": 192,
          "midi": 49,
          "name": "C#3",
          "ticks": 58368,
          "time": 67.555488,
          "velocity": 0.6692913385826772
        },
        {
          "duration": 0.22222200000000214,
          "durationTicks": 192,
          "midi": 37,
          "name": "C#2",
          "ticks": 58368,
          "time": 67.555488,
          "velocity": 0.6692913385826772
        },
        {
          "duration": 0.22222200000000214,
          "durationTicks": 192,
          "midi": 49,
          "name": "C#3",
          "ticks": 58752,
          "time": 67.999932,
          "velocity": 0.6692913385826772
        },
        {
          "duration": 0.22222200000000214,
          "durationTicks": 192,
          "midi": 61,
          "name": "C#4",
          "ticks": 58752,
          "time": 67.999932,
          "velocity": 0.6692913385826772
        },
        {
          "duration": 0.22222200000000214,
          "durationTicks": 192,
          "midi": 37,
          "name": "C#2",
          "ticks": 58752,
          "time": 67.999932,
          "velocity": 0.6692913385826772
        },
        {
          "duration": 0.22222200000000214,
          "durationTicks": 192,
          "midi": 37,
          "name": "C#2",
          "ticks": 59136,
          "time": 68.444376,
          "velocity": 0.6692913385826772
        },
        {
          "duration": 0.22222200000000214,
          "durationTicks": 192,
          "midi": 49,
          "name": "C#3",
          "ticks": 59136,
          "time": 68.444376,
          "velocity": 0.6692913385826772
        },
        {
          "duration": 0.22222200000000214,
          "durationTicks": 192,
          "midi": 61,
          "name": "C#4",
          "ticks": 59136,
          "time": 68.444376,
          "velocity": 0.6692913385826772
        },
        {
          "duration": 0.22222200000000214,
          "durationTicks": 192,
          "midi": 49,
          "name": "C#3",
          "ticks": 59520,
          "time": 68.88882,
          "velocity": 0.6692913385826772
        },
        {
          "duration": 0.22222200000000214,
          "durationTicks": 192,
          "midi": 61,
          "name": "C#4",
          "ticks": 59520,
          "time": 68.88882,
          "velocity": 0.6692913385826772
        },
        {
          "duration": 0.22222200000000214,
          "durationTicks": 192,
          "midi": 37,
          "name": "C#2",
          "ticks": 59520,
          "time": 68.88882,
          "velocity": 0.6692913385826772
        },
        {
          "duration": 0.22222200000000214,
          "durationTicks": 192,
          "midi": 37,
          "name": "C#2",
          "ticks": 59904,
          "time": 69.333264,
          "velocity": 0.6692913385826772
        },
        {
          "duration": 0.22222200000000214,
          "durationTicks": 192,
          "midi": 61,
          "name": "C#4",
          "ticks": 59904,
          "time": 69.333264,
          "velocity": 0.6692913385826772
        },
        {
          "duration": 0.22222200000000214,
          "durationTicks": 192,
          "midi": 49,
          "name": "C#3",
          "ticks": 59904,
          "time": 69.333264,
          "velocity": 0.6692913385826772
        },
        {
          "duration": 0.22222200000000214,
          "durationTicks": 192,
          "midi": 37,
          "name": "C#2",
          "ticks": 60288,
          "time": 69.777708,
          "velocity": 0.6692913385826772
        },
        {
          "duration": 0.22222200000000214,
          "durationTicks": 192,
          "midi": 61,
          "name": "C#4",
          "ticks": 60288,
          "time": 69.777708,
          "velocity": 0.6692913385826772
        },
        {
          "duration": 0.22222200000000214,
          "durationTicks": 192,
          "midi": 49,
          "name": "C#3",
          "ticks": 60288,
          "time": 69.777708,
          "velocity": 0.6692913385826772
        },
        {
          "duration": 0.22222200000000214,
          "durationTicks": 192,
          "midi": 37,
          "name": "C#2",
          "ticks": 60672,
          "time": 70.222152,
          "velocity": 0.6692913385826772
        },
        {
          "duration": 0.22222200000000214,
          "durationTicks": 192,
          "midi": 49,
          "name": "C#3",
          "ticks": 60672,
          "time": 70.222152,
          "velocity": 0.6692913385826772
        },
        {
          "duration": 0.22222200000000214,
          "durationTicks": 192,
          "midi": 61,
          "name": "C#4",
          "ticks": 60672,
          "time": 70.222152,
          "velocity": 0.6692913385826772
        },
        {
          "duration": 0.22222200000000214,
          "durationTicks": 192,
          "midi": 49,
          "name": "C#3",
          "ticks": 61056,
          "time": 70.666596,
          "velocity": 0.6692913385826772
        },
        {
          "duration": 0.22222200000000214,
          "durationTicks": 192,
          "midi": 37,
          "name": "C#2",
          "ticks": 61056,
          "time": 70.666596,
          "velocity": 0.6692913385826772
        },
        {
          "duration": 0.22222200000000214,
          "durationTicks": 192,
          "midi": 61,
          "name": "C#4",
          "ticks": 61056,
          "time": 70.666596,
          "velocity": 0.6692913385826772
        },
        {
          "duration": 0.22222200000000214,
          "durationTicks": 192,
          "midi": 57,
          "name": "A3",
          "ticks": 61440,
          "time": 71.11104,
          "velocity": 0.6692913385826772
        },
        {
          "duration": 0.22222200000000214,
          "durationTicks": 192,
          "midi": 45,
          "name": "A2",
          "ticks": 61440,
          "time": 71.11104,
          "velocity": 0.6692913385826772
        },
        {
          "duration": 0.22222200000000214,
          "durationTicks": 192,
          "midi": 45,
          "name": "A2",
          "ticks": 61440,
          "time": 71.11104,
          "velocity": 0.6692913385826772
        },
        {
          "duration": 0.22222199999998793,
          "durationTicks": 192,
          "midi": 57,
          "name": "A3",
          "ticks": 61824,
          "time": 71.555484,
          "velocity": 0.6692913385826772
        },
        {
          "duration": 0.22222199999998793,
          "durationTicks": 192,
          "midi": 45,
          "name": "A2",
          "ticks": 61824,
          "time": 71.555484,
          "velocity": 0.6692913385826772
        },
        {
          "duration": 0.22222199999998793,
          "durationTicks": 192,
          "midi": 45,
          "name": "A2",
          "ticks": 61824,
          "time": 71.555484,
          "velocity": 0.6692913385826772
        },
        {
          "duration": 0.22222200000000214,
          "durationTicks": 192,
          "midi": 45,
          "name": "A2",
          "ticks": 62208,
          "time": 71.999928,
          "velocity": 0.6692913385826772
        },
        {
          "duration": 0.22222200000000214,
          "durationTicks": 192,
          "midi": 45,
          "name": "A2",
          "ticks": 62208,
          "time": 71.999928,
          "velocity": 0.6692913385826772
        },
        {
          "duration": 0.22222200000000214,
          "durationTicks": 192,
          "midi": 57,
          "name": "A3",
          "ticks": 62208,
          "time": 71.999928,
          "velocity": 0.6692913385826772
        },
        {
          "duration": 0.22222200000000214,
          "durationTicks": 192,
          "midi": 57,
          "name": "A3",
          "ticks": 62592,
          "time": 72.444372,
          "velocity": 0.6692913385826772
        },
        {
          "duration": 0.22222200000000214,
          "durationTicks": 192,
          "midi": 45,
          "name": "A2",
          "ticks": 62592,
          "time": 72.444372,
          "velocity": 0.6692913385826772
        },
        {
          "duration": 0.22222200000000214,
          "durationTicks": 192,
          "midi": 45,
          "name": "A2",
          "ticks": 62592,
          "time": 72.444372,
          "velocity": 0.6692913385826772
        },
        {
          "duration": 0.22222200000000214,
          "durationTicks": 192,
          "midi": 45,
          "name": "A2",
          "ticks": 62976,
          "time": 72.888816,
          "velocity": 0.6692913385826772
        },
        {
          "duration": 0.22222200000000214,
          "durationTicks": 192,
          "midi": 45,
          "name": "A2",
          "ticks": 62976,
          "time": 72.888816,
          "velocity": 0.6692913385826772
        },
        {
          "duration": 0.22222200000000214,
          "durationTicks": 192,
          "midi": 57,
          "name": "A3",
          "ticks": 62976,
          "time": 72.888816,
          "velocity": 0.6692913385826772
        },
        {
          "duration": 0.22222200000000214,
          "durationTicks": 192,
          "midi": 45,
          "name": "A2",
          "ticks": 63360,
          "time": 73.33326,
          "velocity": 0.6692913385826772
        },
        {
          "duration": 0.22222200000000214,
          "durationTicks": 192,
          "midi": 57,
          "name": "A3",
          "ticks": 63360,
          "time": 73.33326,
          "velocity": 0.6692913385826772
        },
        {
          "duration": 0.22222200000000214,
          "durationTicks": 192,
          "midi": 45,
          "name": "A2",
          "ticks": 63360,
          "time": 73.33326,
          "velocity": 0.6692913385826772
        },
        {
          "duration": 0.22222200000000214,
          "durationTicks": 192,
          "midi": 57,
          "name": "A3",
          "ticks": 63744,
          "time": 73.777704,
          "velocity": 0.6692913385826772
        },
        {
          "duration": 0.22222200000000214,
          "durationTicks": 192,
          "midi": 45,
          "name": "A2",
          "ticks": 63744,
          "time": 73.777704,
          "velocity": 0.6692913385826772
        },
        {
          "duration": 0.22222200000000214,
          "durationTicks": 192,
          "midi": 45,
          "name": "A2",
          "ticks": 63744,
          "time": 73.777704,
          "velocity": 0.6692913385826772
        },
        {
          "duration": 0.22222200000000214,
          "durationTicks": 192,
          "midi": 45,
          "name": "A2",
          "ticks": 64128,
          "time": 74.222148,
          "velocity": 0.6692913385826772
        },
        {
          "duration": 0.22222200000000214,
          "durationTicks": 192,
          "midi": 45,
          "name": "A2",
          "ticks": 64128,
          "time": 74.222148,
          "velocity": 0.6692913385826772
        },
        {
          "duration": 0.22222200000000214,
          "durationTicks": 192,
          "midi": 57,
          "name": "A3",
          "ticks": 64128,
          "time": 74.222148,
          "velocity": 0.6692913385826772
        },
        {
          "duration": 0.22222200000000214,
          "durationTicks": 192,
          "midi": 47,
          "name": "B2",
          "ticks": 64512,
          "time": 74.666592,
          "velocity": 0.6692913385826772
        },
        {
          "duration": 0.22222200000000214,
          "durationTicks": 192,
          "midi": 59,
          "name": "B3",
          "ticks": 64512,
          "time": 74.666592,
          "velocity": 0.6692913385826772
        },
        {
          "duration": 0.22222200000000214,
          "durationTicks": 192,
          "midi": 47,
          "name": "B2",
          "ticks": 64512,
          "time": 74.666592,
          "velocity": 0.6692913385826772
        },
        {
          "duration": 0.22222200000000214,
          "durationTicks": 192,
          "midi": 59,
          "name": "B3",
          "ticks": 64896,
          "time": 75.111036,
          "velocity": 0.6692913385826772
        },
        {
          "duration": 0.22222200000000214,
          "durationTicks": 192,
          "midi": 47,
          "name": "B2",
          "ticks": 64896,
          "time": 75.111036,
          "velocity": 0.6692913385826772
        },
        {
          "duration": 0.22222200000000214,
          "durationTicks": 192,
          "midi": 47,
          "name": "B2",
          "ticks": 64896,
          "time": 75.111036,
          "velocity": 0.6692913385826772
        },
        {
          "duration": 0.22222200000000214,
          "durationTicks": 192,
          "midi": 59,
          "name": "B3",
          "ticks": 65280,
          "time": 75.55548,
          "velocity": 0.6692913385826772
        },
        {
          "duration": 0.22222200000000214,
          "durationTicks": 192,
          "midi": 47,
          "name": "B2",
          "ticks": 65280,
          "time": 75.55548,
          "velocity": 0.6692913385826772
        },
        {
          "duration": 0.22222200000000214,
          "durationTicks": 192,
          "midi": 47,
          "name": "B2",
          "ticks": 65280,
          "time": 75.55548,
          "velocity": 0.6692913385826772
        },
        {
          "duration": 0.22222199999998793,
          "durationTicks": 192,
          "midi": 47,
          "name": "B2",
          "ticks": 65664,
          "time": 75.99992400000001,
          "velocity": 0.6692913385826772
        },
        {
          "duration": 0.22222199999998793,
          "durationTicks": 192,
          "midi": 59,
          "name": "B3",
          "ticks": 65664,
          "time": 75.99992400000001,
          "velocity": 0.6692913385826772
        },
        {
          "duration": 0.22222199999998793,
          "durationTicks": 192,
          "midi": 47,
          "name": "B2",
          "ticks": 65664,
          "time": 75.99992400000001,
          "velocity": 0.6692913385826772
        },
        {
          "duration": 0.22222200000000214,
          "durationTicks": 192,
          "midi": 36,
          "name": "C2",
          "ticks": 66048,
          "time": 76.444368,
          "velocity": 0.6692913385826772
        },
        {
          "duration": 0.22222200000000214,
          "durationTicks": 192,
          "midi": 48,
          "name": "C3",
          "ticks": 66048,
          "time": 76.444368,
          "velocity": 0.6692913385826772
        },
        {
          "duration": 0.22222200000000214,
          "durationTicks": 192,
          "midi": 60,
          "name": "C4",
          "ticks": 66048,
          "time": 76.444368,
          "velocity": 0.6692913385826772
        },
        {
          "duration": 0.22222200000000214,
          "durationTicks": 192,
          "midi": 60,
          "name": "C4",
          "ticks": 66432,
          "time": 76.888812,
          "velocity": 0.6692913385826772
        },
        {
          "duration": 0.22222200000000214,
          "durationTicks": 192,
          "midi": 36,
          "name": "C2",
          "ticks": 66432,
          "time": 76.888812,
          "velocity": 0.6692913385826772
        },
        {
          "duration": 0.22222200000000214,
          "durationTicks": 192,
          "midi": 48,
          "name": "C3",
          "ticks": 66432,
          "time": 76.888812,
          "velocity": 0.6692913385826772
        },
        {
          "duration": 0.22222200000000214,
          "durationTicks": 192,
          "midi": 60,
          "name": "C4",
          "ticks": 66816,
          "time": 77.333256,
          "velocity": 0.6692913385826772
        },
        {
          "duration": 0.22222200000000214,
          "durationTicks": 192,
          "midi": 36,
          "name": "C2",
          "ticks": 66816,
          "time": 77.333256,
          "velocity": 0.6692913385826772
        },
        {
          "duration": 0.22222200000000214,
          "durationTicks": 192,
          "midi": 48,
          "name": "C3",
          "ticks": 66816,
          "time": 77.333256,
          "velocity": 0.6692913385826772
        },
        {
          "duration": 0.22222200000000214,
          "durationTicks": 192,
          "midi": 36,
          "name": "C2",
          "ticks": 67200,
          "time": 77.7777,
          "velocity": 0.6692913385826772
        },
        {
          "duration": 0.22222200000000214,
          "durationTicks": 192,
          "midi": 48,
          "name": "C3",
          "ticks": 67200,
          "time": 77.7777,
          "velocity": 0.6692913385826772
        },
        {
          "duration": 0.22222200000000214,
          "durationTicks": 192,
          "midi": 60,
          "name": "C4",
          "ticks": 67200,
          "time": 77.7777,
          "velocity": 0.6692913385826772
        },
        {
          "duration": 0.22222200000000214,
          "durationTicks": 192,
          "midi": 45,
          "name": "A2",
          "ticks": 67584,
          "time": 78.222144,
          "velocity": 0.6692913385826772
        },
        {
          "duration": 0.22222200000000214,
          "durationTicks": 192,
          "midi": 57,
          "name": "A3",
          "ticks": 67584,
          "time": 78.222144,
          "velocity": 0.6692913385826772
        },
        {
          "duration": 0.22222200000000214,
          "durationTicks": 192,
          "midi": 50,
          "name": "D3",
          "ticks": 67584,
          "time": 78.222144,
          "velocity": 0.6692913385826772
        },
        {
          "duration": 0.22222200000000214,
          "durationTicks": 192,
          "midi": 45,
          "name": "A2",
          "ticks": 67776,
          "time": 78.444366,
          "velocity": 0.6692913385826772
        },
        {
          "duration": 0.11111099999999396,
          "durationTicks": 96,
          "midi": 50,
          "name": "D3",
          "ticks": 67968,
          "time": 78.666588,
          "velocity": 0.6692913385826772
        },
        {
          "duration": 0.11111099999999396,
          "durationTicks": 96,
          "midi": 57,
          "name": "A3",
          "ticks": 67968,
          "time": 78.666588,
          "velocity": 0.6692913385826772
        },
        {
          "duration": 0.11111100000000818,
          "durationTicks": 96,
          "midi": 50,
          "name": "D3",
          "ticks": 68064,
          "time": 78.777699,
          "velocity": 0.6692913385826772
        },
        {
          "duration": 0.11111100000000818,
          "durationTicks": 96,
          "midi": 57,
          "name": "A3",
          "ticks": 68064,
          "time": 78.777699,
          "velocity": 0.6692913385826772
        },
        {
          "duration": 0.22222199999998793,
          "durationTicks": 192,
          "midi": 45,
          "name": "A2",
          "ticks": 68160,
          "time": 78.88881,
          "velocity": 0.6692913385826772
        },
        {
          "duration": 0.11111100000000818,
          "durationTicks": 96,
          "midi": 50,
          "name": "D3",
          "ticks": 68352,
          "time": 79.111032,
          "velocity": 0.6692913385826772
        },
        {
          "duration": 0.22222200000000214,
          "durationTicks": 192,
          "midi": 45,
          "name": "A2",
          "ticks": 68352,
          "time": 79.111032,
          "velocity": 0.6692913385826772
        },
        {
          "duration": 0.22222200000000214,
          "durationTicks": 192,
          "midi": 57,
          "name": "A3",
          "ticks": 68352,
          "time": 79.111032,
          "velocity": 0.6692913385826772
        },
        {
          "duration": 0.22222200000000214,
          "durationTicks": 192,
          "midi": 45,
          "name": "A2",
          "ticks": 68544,
          "time": 79.333254,
          "velocity": 0.6692913385826772
        },
        {
          "duration": 0.11111100000000818,
          "durationTicks": 96,
          "midi": 50,
          "name": "D3",
          "ticks": 68736,
          "time": 79.555476,
          "velocity": 0.6692913385826772
        },
        {
          "duration": 0.11111100000000818,
          "durationTicks": 96,
          "midi": 57,
          "name": "A3",
          "ticks": 68736,
          "time": 79.555476,
          "velocity": 0.6692913385826772
        },
        {
          "duration": 0.11111099999999396,
          "durationTicks": 96,
          "midi": 57,
          "name": "A3",
          "ticks": 68832,
          "time": 79.666587,
          "velocity": 0.6692913385826772
        },
        {
          "duration": 0.11111099999999396,
          "durationTicks": 96,
          "midi": 50,
          "name": "D3",
          "ticks": 68832,
          "time": 79.666587,
          "velocity": 0.6692913385826772
        },
        {
          "duration": 0.22222200000000214,
          "durationTicks": 192,
          "midi": 45,
          "name": "A2",
          "ticks": 68928,
          "time": 79.777698,
          "velocity": 0.6692913385826772
        },
        {
          "duration": 0.22222200000000214,
          "durationTicks": 192,
          "midi": 49,
          "name": "C#3",
          "ticks": 69120,
          "time": 79.99992,
          "velocity": 0.6692913385826772
        },
        {
          "duration": 0.11111099999999396,
          "durationTicks": 96,
          "midi": 54,
          "name": "F#3",
          "ticks": 69120,
          "time": 79.99992,
          "velocity": 0.6692913385826772
        },
        {
          "duration": 0.22222200000000214,
          "durationTicks": 192,
          "midi": 61,
          "name": "C#4",
          "ticks": 69120,
          "time": 79.99992,
          "velocity": 0.6692913385826772
        },
        {
          "duration": 0.22222200000000214,
          "durationTicks": 192,
          "midi": 49,
          "name": "C#3",
          "ticks": 69312,
          "time": 80.222142,
          "velocity": 0.6692913385826772
        },
        {
          "duration": 0.11111099999999396,
          "durationTicks": 96,
          "midi": 54,
          "name": "F#3",
          "ticks": 69504,
          "time": 80.44436400000001,
          "velocity": 0.6692913385826772
        },
        {
          "duration": 0.11111099999999396,
          "durationTicks": 96,
          "midi": 61,
          "name": "C#4",
          "ticks": 69504,
          "time": 80.44436400000001,
          "velocity": 0.6692913385826772
        },
        {
          "duration": 0.11111099999999396,
          "durationTicks": 96,
          "midi": 61,
          "name": "C#4",
          "ticks": 69600,
          "time": 80.555475,
          "velocity": 0.6692913385826772
        },
        {
          "duration": 0.11111099999999396,
          "durationTicks": 96,
          "midi": 54,
          "name": "F#3",
          "ticks": 69600,
          "time": 80.555475,
          "velocity": 0.6692913385826772
        },
        {
          "duration": 0.22222200000000214,
          "durationTicks": 192,
          "midi": 49,
          "name": "C#3",
          "ticks": 69696,
          "time": 80.666586,
          "velocity": 0.6692913385826772
        },
        {
          "duration": 0.11111100000000818,
          "durationTicks": 96,
          "midi": 54,
          "name": "F#3",
          "ticks": 69888,
          "time": 80.888808,
          "velocity": 0.6692913385826772
        },
        {
          "duration": 0.22222200000000214,
          "durationTicks": 192,
          "midi": 61,
          "name": "C#4",
          "ticks": 69888,
          "time": 80.888808,
          "velocity": 0.6692913385826772
        },
        {
          "duration": 0.22222200000000214,
          "durationTicks": 192,
          "midi": 49,
          "name": "C#3",
          "ticks": 69888,
          "time": 80.888808,
          "velocity": 0.6692913385826772
        },
        {
          "duration": 0.22222200000000214,
          "durationTicks": 192,
          "midi": 49,
          "name": "C#3",
          "ticks": 70080,
          "time": 81.11103,
          "velocity": 0.6692913385826772
        },
        {
          "duration": 0.11111099999999396,
          "durationTicks": 96,
          "midi": 61,
          "name": "C#4",
          "ticks": 70272,
          "time": 81.333252,
          "velocity": 0.6692913385826772
        },
        {
          "duration": 0.11111099999999396,
          "durationTicks": 96,
          "midi": 54,
          "name": "F#3",
          "ticks": 70272,
          "time": 81.333252,
          "velocity": 0.6692913385826772
        },
        {
          "duration": 0.11111100000000818,
          "durationTicks": 96,
          "midi": 54,
          "name": "F#3",
          "ticks": 70368,
          "time": 81.444363,
          "velocity": 0.6692913385826772
        },
        {
          "duration": 0.11111100000000818,
          "durationTicks": 96,
          "midi": 61,
          "name": "C#4",
          "ticks": 70368,
          "time": 81.444363,
          "velocity": 0.6692913385826772
        },
        {
          "duration": 0.22222200000000214,
          "durationTicks": 192,
          "midi": 49,
          "name": "C#3",
          "ticks": 70464,
          "time": 81.555474,
          "velocity": 0.6692913385826772
        },
        {
          "duration": 0.11111099999999396,
          "durationTicks": 96,
          "midi": 50,
          "name": "D3",
          "ticks": 70656,
          "time": 81.777696,
          "velocity": 0.6692913385826772
        },
        {
          "duration": 0.22222200000000214,
          "durationTicks": 192,
          "midi": 57,
          "name": "A3",
          "ticks": 70656,
          "time": 81.777696,
          "velocity": 0.6692913385826772
        },
        {
          "duration": 0.22222200000000214,
          "durationTicks": 192,
          "midi": 45,
          "name": "A2",
          "ticks": 70656,
          "time": 81.777696,
          "velocity": 0.6692913385826772
        },
        {
          "duration": 0.22222199999998793,
          "durationTicks": 192,
          "midi": 45,
          "name": "A2",
          "ticks": 70848,
          "time": 81.99991800000001,
          "velocity": 0.6692913385826772
        },
        {
          "duration": 0.11111100000000818,
          "durationTicks": 96,
          "midi": 57,
          "name": "A3",
          "ticks": 71040,
          "time": 82.22214,
          "velocity": 0.6692913385826772
        },
        {
          "duration": 0.11111100000000818,
          "durationTicks": 96,
          "midi": 50,
          "name": "D3",
          "ticks": 71040,
          "time": 82.22214,
          "velocity": 0.6692913385826772
        },
        {
          "duration": 0.11111099999999396,
          "durationTicks": 96,
          "midi": 57,
          "name": "A3",
          "ticks": 71136,
          "time": 82.333251,
          "velocity": 0.6692913385826772
        },
        {
          "duration": 0.11111099999999396,
          "durationTicks": 96,
          "midi": 50,
          "name": "D3",
          "ticks": 71136,
          "time": 82.333251,
          "velocity": 0.6692913385826772
        },
        {
          "duration": 0.22222200000000214,
          "durationTicks": 192,
          "midi": 45,
          "name": "A2",
          "ticks": 71232,
          "time": 82.444362,
          "velocity": 0.6692913385826772
        },
        {
          "duration": 0.11111099999999396,
          "durationTicks": 96,
          "midi": 50,
          "name": "D3",
          "ticks": 71424,
          "time": 82.666584,
          "velocity": 0.6692913385826772
        },
        {
          "duration": 0.22222200000000214,
          "durationTicks": 192,
          "midi": 57,
          "name": "A3",
          "ticks": 71424,
          "time": 82.666584,
          "velocity": 0.6692913385826772
        },
        {
          "duration": 0.22222200000000214,
          "durationTicks": 192,
          "midi": 45,
          "name": "A2",
          "ticks": 71424,
          "time": 82.666584,
          "velocity": 0.6692913385826772
        },
        {
          "duration": 0.22222200000000214,
          "durationTicks": 192,
          "midi": 45,
          "name": "A2",
          "ticks": 71616,
          "time": 82.888806,
          "velocity": 0.6692913385826772
        },
        {
          "duration": 0.11111099999999396,
          "durationTicks": 96,
          "midi": 50,
          "name": "D3",
          "ticks": 71808,
          "time": 83.111028,
          "velocity": 0.6692913385826772
        },
        {
          "duration": 0.11111099999999396,
          "durationTicks": 96,
          "midi": 57,
          "name": "A3",
          "ticks": 71808,
          "time": 83.111028,
          "velocity": 0.6692913385826772
        },
        {
          "duration": 0.11111100000000818,
          "durationTicks": 96,
          "midi": 50,
          "name": "D3",
          "ticks": 71904,
          "time": 83.222139,
          "velocity": 0.6692913385826772
        },
        {
          "duration": 0.11111100000000818,
          "durationTicks": 96,
          "midi": 57,
          "name": "A3",
          "ticks": 71904,
          "time": 83.222139,
          "velocity": 0.6692913385826772
        },
        {
          "duration": 0.22222199999998793,
          "durationTicks": 192,
          "midi": 45,
          "name": "A2",
          "ticks": 72000,
          "time": 83.33325,
          "velocity": 0.6692913385826772
        },
        {
          "duration": 0.11111100000000818,
          "durationTicks": 96,
          "midi": 54,
          "name": "F#3",
          "ticks": 72192,
          "time": 83.555472,
          "velocity": 0.6692913385826772
        },
        {
          "duration": 0.22222200000000214,
          "durationTicks": 192,
          "midi": 49,
          "name": "C#3",
          "ticks": 72192,
          "time": 83.555472,
          "velocity": 0.6692913385826772
        },
        {
          "duration": 0.22222200000000214,
          "durationTicks": 192,
          "midi": 61,
          "name": "C#4",
          "ticks": 72192,
          "time": 83.555472,
          "velocity": 0.6692913385826772
        },
        {
          "duration": 0.22222200000000214,
          "durationTicks": 192,
          "midi": 49,
          "name": "C#3",
          "ticks": 72384,
          "time": 83.777694,
          "velocity": 0.6692913385826772
        },
        {
          "duration": 0.11111100000000818,
          "durationTicks": 96,
          "midi": 61,
          "name": "C#4",
          "ticks": 72576,
          "time": 83.999916,
          "velocity": 0.6692913385826772
        },
        {
          "duration": 0.11111100000000818,
          "durationTicks": 96,
          "midi": 54,
          "name": "F#3",
          "ticks": 72576,
          "time": 83.999916,
          "velocity": 0.6692913385826772
        },
        {
          "duration": 0.11111099999999396,
          "durationTicks": 96,
          "midi": 54,
          "name": "F#3",
          "ticks": 72672,
          "time": 84.111027,
          "velocity": 0.6692913385826772
        },
        {
          "duration": 0.11111099999999396,
          "durationTicks": 96,
          "midi": 61,
          "name": "C#4",
          "ticks": 72672,
          "time": 84.111027,
          "velocity": 0.6692913385826772
        },
        {
          "duration": 0.22222200000000214,
          "durationTicks": 192,
          "midi": 49,
          "name": "C#3",
          "ticks": 72768,
          "time": 84.222138,
          "velocity": 0.6692913385826772
        },
        {
          "duration": 0.11111099999999396,
          "durationTicks": 96,
          "midi": 54,
          "name": "F#3",
          "ticks": 72960,
          "time": 84.44436,
          "velocity": 0.6692913385826772
        },
        {
          "duration": 0.22222200000000214,
          "durationTicks": 192,
          "midi": 49,
          "name": "C#3",
          "ticks": 72960,
          "time": 84.44436,
          "velocity": 0.6692913385826772
        },
        {
          "duration": 0.22222200000000214,
          "durationTicks": 192,
          "midi": 61,
          "name": "C#4",
          "ticks": 72960,
          "time": 84.44436,
          "velocity": 0.6692913385826772
        },
        {
          "duration": 0.22222200000000214,
          "durationTicks": 192,
          "midi": 49,
          "name": "C#3",
          "ticks": 73152,
          "time": 84.666582,
          "velocity": 0.6692913385826772
        },
        {
          "duration": 0.11111099999999396,
          "durationTicks": 96,
          "midi": 61,
          "name": "C#4",
          "ticks": 73344,
          "time": 84.88880400000001,
          "velocity": 0.6692913385826772
        },
        {
          "duration": 0.11111099999999396,
          "durationTicks": 96,
          "midi": 54,
          "name": "F#3",
          "ticks": 73344,
          "time": 84.88880400000001,
          "velocity": 0.6692913385826772
        },
        {
          "duration": 0.11111099999999396,
          "durationTicks": 96,
          "midi": 54,
          "name": "F#3",
          "ticks": 73440,
          "time": 84.999915,
          "velocity": 0.6692913385826772
        },
        {
          "duration": 0.11111099999999396,
          "durationTicks": 96,
          "midi": 61,
          "name": "C#4",
          "ticks": 73440,
          "time": 84.999915,
          "velocity": 0.6692913385826772
        },
        {
          "duration": 0.22222200000000214,
          "durationTicks": 192,
          "midi": 49,
          "name": "C#3",
          "ticks": 73536,
          "time": 85.111026,
          "velocity": 0.6692913385826772
        },
        {
          "duration": 0.22222200000000214,
          "durationTicks": 192,
          "midi": 45,
          "name": "A2",
          "ticks": 73728,
          "time": 85.333248,
          "velocity": 0.6692913385826772
        },
        {
          "duration": 0.22222200000000214,
          "durationTicks": 192,
          "midi": 57,
          "name": "A3",
          "ticks": 73728,
          "time": 85.333248,
          "velocity": 0.6692913385826772
        },
        {
          "duration": 0.11111100000000818,
          "durationTicks": 96,
          "midi": 50,
          "name": "D3",
          "ticks": 73728,
          "time": 85.333248,
          "velocity": 0.6692913385826772
        },
        {
          "duration": 0.22222200000000214,
          "durationTicks": 192,
          "midi": 45,
          "name": "A2",
          "ticks": 73920,
          "time": 85.55547,
          "velocity": 0.6692913385826772
        },
        {
          "duration": 0.11111099999999396,
          "durationTicks": 96,
          "midi": 50,
          "name": "D3",
          "ticks": 74112,
          "time": 85.777692,
          "velocity": 0.6692913385826772
        },
        {
          "duration": 0.11111099999999396,
          "durationTicks": 96,
          "midi": 57,
          "name": "A3",
          "ticks": 74112,
          "time": 85.777692,
          "velocity": 0.6692913385826772
        },
        {
          "duration": 0.11111100000000818,
          "durationTicks": 96,
          "midi": 57,
          "name": "A3",
          "ticks": 74208,
          "time": 85.888803,
          "velocity": 0.6692913385826772
        },
        {
          "duration": 0.11111100000000818,
          "durationTicks": 96,
          "midi": 50,
          "name": "D3",
          "ticks": 74208,
          "time": 85.888803,
          "velocity": 0.6692913385826772
        },
        {
          "duration": 0.22222200000000214,
          "durationTicks": 192,
          "midi": 45,
          "name": "A2",
          "ticks": 74304,
          "time": 85.999914,
          "velocity": 0.6692913385826772
        },
        {
          "duration": 0.11111099999999396,
          "durationTicks": 96,
          "midi": 50,
          "name": "D3",
          "ticks": 74496,
          "time": 86.222136,
          "velocity": 0.6692913385826772
        },
        {
          "duration": 0.22222199999998793,
          "durationTicks": 192,
          "midi": 45,
          "name": "A2",
          "ticks": 74496,
          "time": 86.222136,
          "velocity": 0.6692913385826772
        },
        {
          "duration": 0.22222199999998793,
          "durationTicks": 192,
          "midi": 57,
          "name": "A3",
          "ticks": 74496,
          "time": 86.222136,
          "velocity": 0.6692913385826772
        },
        {
          "duration": 0.22222200000000214,
          "durationTicks": 192,
          "midi": 45,
          "name": "A2",
          "ticks": 74688,
          "time": 86.444358,
          "velocity": 0.6692913385826772
        },
        {
          "duration": 0.11111100000000818,
          "durationTicks": 96,
          "midi": 50,
          "name": "D3",
          "ticks": 74880,
          "time": 86.66658,
          "velocity": 0.6692913385826772
        },
        {
          "duration": 0.11111100000000818,
          "durationTicks": 96,
          "midi": 57,
          "name": "A3",
          "ticks": 74880,
          "time": 86.66658,
          "velocity": 0.6692913385826772
        },
        {
          "duration": 0.11111099999999396,
          "durationTicks": 96,
          "midi": 57,
          "name": "A3",
          "ticks": 74976,
          "time": 86.777691,
          "velocity": 0.6692913385826772
        },
        {
          "duration": 0.11111099999999396,
          "durationTicks": 96,
          "midi": 50,
          "name": "D3",
          "ticks": 74976,
          "time": 86.777691,
          "velocity": 0.6692913385826772
        },
        {
          "duration": 0.22222200000000214,
          "durationTicks": 192,
          "midi": 45,
          "name": "A2",
          "ticks": 75072,
          "time": 86.888802,
          "velocity": 0.6692913385826772
        },
        {
          "duration": 0.22222200000000214,
          "durationTicks": 192,
          "midi": 49,
          "name": "C#3",
          "ticks": 75264,
          "time": 87.111024,
          "velocity": 0.6692913385826772
        },
        {
          "duration": 0.22222200000000214,
          "durationTicks": 192,
          "midi": 61,
          "name": "C#4",
          "ticks": 75264,
          "time": 87.111024,
          "velocity": 0.6692913385826772
        },
        {
          "duration": 0.11111099999999396,
          "durationTicks": 96,
          "midi": 54,
          "name": "F#3",
          "ticks": 75264,
          "time": 87.111024,
          "velocity": 0.6692913385826772
        },
        {
          "duration": 0.22222200000000214,
          "durationTicks": 192,
          "midi": 49,
          "name": "C#3",
          "ticks": 75456,
          "time": 87.333246,
          "velocity": 0.6692913385826772
        },
        {
          "duration": 0.11111099999999396,
          "durationTicks": 96,
          "midi": 54,
          "name": "F#3",
          "ticks": 75648,
          "time": 87.555468,
          "velocity": 0.6692913385826772
        },
        {
          "duration": 0.11111099999999396,
          "durationTicks": 96,
          "midi": 61,
          "name": "C#4",
          "ticks": 75648,
          "time": 87.555468,
          "velocity": 0.6692913385826772
        },
        {
          "duration": 0.11111100000000818,
          "durationTicks": 96,
          "midi": 61,
          "name": "C#4",
          "ticks": 75744,
          "time": 87.666579,
          "velocity": 0.6692913385826772
        },
        {
          "duration": 0.11111100000000818,
          "durationTicks": 96,
          "midi": 54,
          "name": "F#3",
          "ticks": 75744,
          "time": 87.666579,
          "velocity": 0.6692913385826772
        },
        {
          "duration": 0.22222199999998793,
          "durationTicks": 192,
          "midi": 49,
          "name": "C#3",
          "ticks": 75840,
          "time": 87.77769,
          "velocity": 0.6692913385826772
        },
        {
          "duration": 0.22222200000000214,
          "durationTicks": 192,
          "midi": 61,
          "name": "C#4",
          "ticks": 76032,
          "time": 87.999912,
          "velocity": 0.6692913385826772
        },
        {
          "duration": 0.11111100000000818,
          "durationTicks": 96,
          "midi": 54,
          "name": "F#3",
          "ticks": 76032,
          "time": 87.999912,
          "velocity": 0.6692913385826772
        },
        {
          "duration": 0.22222200000000214,
          "durationTicks": 192,
          "midi": 49,
          "name": "C#3",
          "ticks": 76032,
          "time": 87.999912,
          "velocity": 0.6692913385826772
        },
        {
          "duration": 0.22222200000000214,
          "durationTicks": 192,
          "midi": 49,
          "name": "C#3",
          "ticks": 76224,
          "time": 88.222134,
          "velocity": 0.6692913385826772
        },
        {
          "duration": 0.11111100000000818,
          "durationTicks": 96,
          "midi": 54,
          "name": "F#3",
          "ticks": 76416,
          "time": 88.444356,
          "velocity": 0.6692913385826772
        },
        {
          "duration": 0.11111100000000818,
          "durationTicks": 96,
          "midi": 61,
          "name": "C#4",
          "ticks": 76416,
          "time": 88.444356,
          "velocity": 0.6692913385826772
        },
        {
          "duration": 0.11111099999999396,
          "durationTicks": 96,
          "midi": 61,
          "name": "C#4",
          "ticks": 76512,
          "time": 88.55546700000001,
          "velocity": 0.6692913385826772
        },
        {
          "duration": 0.11111099999999396,
          "durationTicks": 96,
          "midi": 54,
          "name": "F#3",
          "ticks": 76512,
          "time": 88.55546700000001,
          "velocity": 0.6692913385826772
        },
        {
          "duration": 0.22222200000000214,
          "durationTicks": 192,
          "midi": 49,
          "name": "C#3",
          "ticks": 76608,
          "time": 88.666578,
          "velocity": 0.6692913385826772
        },
        {
          "duration": 0.11111099999999396,
          "durationTicks": 96,
          "midi": 50,
          "name": "D3",
          "ticks": 76800,
          "time": 88.8888,
          "velocity": 0.6692913385826772
        },
        {
          "duration": 0.22222200000000214,
          "durationTicks": 192,
          "midi": 45,
          "name": "A2",
          "ticks": 76800,
          "time": 88.8888,
          "velocity": 0.6692913385826772
        },
        {
          "duration": 0.22222200000000214,
          "durationTicks": 192,
          "midi": 57,
          "name": "A3",
          "ticks": 76800,
          "time": 88.8888,
          "velocity": 0.6692913385826772
        },
        {
          "duration": 0.22222200000000214,
          "durationTicks": 192,
          "midi": 45,
          "name": "A2",
          "ticks": 76992,
          "time": 89.111022,
          "velocity": 0.6692913385826772
        },
        {
          "duration": 0.11111099999999396,
          "durationTicks": 96,
          "midi": 57,
          "name": "A3",
          "ticks": 77184,
          "time": 89.33324400000001,
          "velocity": 0.6692913385826772
        },
        {
          "duration": 0.11111099999999396,
          "durationTicks": 96,
          "midi": 50,
          "name": "D3",
          "ticks": 77184,
          "time": 89.33324400000001,
          "velocity": 0.6692913385826772
        },
        {
          "duration": 0.11111099999999396,
          "durationTicks": 96,
          "midi": 50,
          "name": "D3",
          "ticks": 77280,
          "time": 89.444355,
          "velocity": 0.6692913385826772
        },
        {
          "duration": 0.11111099999999396,
          "durationTicks": 96,
          "midi": 57,
          "name": "A3",
          "ticks": 77280,
          "time": 89.444355,
          "velocity": 0.6692913385826772
        },
        {
          "duration": 0.22222200000000214,
          "durationTicks": 192,
          "midi": 45,
          "name": "A2",
          "ticks": 77376,
          "time": 89.555466,
          "velocity": 0.6692913385826772
        },
        {
          "duration": 0.22222200000000214,
          "durationTicks": 192,
          "midi": 45,
          "name": "A2",
          "ticks": 77568,
          "time": 89.777688,
          "velocity": 0.6692913385826772
        },
        {
          "duration": 0.11111100000000818,
          "durationTicks": 96,
          "midi": 50,
          "name": "D3",
          "ticks": 77568,
          "time": 89.777688,
          "velocity": 0.6692913385826772
        },
        {
          "duration": 0.22222200000000214,
          "durationTicks": 192,
          "midi": 57,
          "name": "A3",
          "ticks": 77568,
          "time": 89.777688,
          "velocity": 0.6692913385826772
        },
        {
          "duration": 0.22222200000000214,
          "durationTicks": 192,
          "midi": 45,
          "name": "A2",
          "ticks": 77760,
          "time": 89.99991,
          "velocity": 0.6692913385826772
        },
        {
          "duration": 0.11111099999999396,
          "durationTicks": 96,
          "midi": 57,
          "name": "A3",
          "ticks": 77952,
          "time": 90.222132,
          "velocity": 0.6692913385826772
        },
        {
          "duration": 0.11111099999999396,
          "durationTicks": 96,
          "midi": 50,
          "name": "D3",
          "ticks": 77952,
          "time": 90.222132,
          "velocity": 0.6692913385826772
        },
        {
          "duration": 0.11111100000000818,
          "durationTicks": 96,
          "midi": 57,
          "name": "A3",
          "ticks": 78048,
          "time": 90.333243,
          "velocity": 0.6692913385826772
        },
        {
          "duration": 0.11111100000000818,
          "durationTicks": 96,
          "midi": 50,
          "name": "D3",
          "ticks": 78048,
          "time": 90.333243,
          "velocity": 0.6692913385826772
        },
        {
          "duration": 0.22222200000000214,
          "durationTicks": 192,
          "midi": 45,
          "name": "A2",
          "ticks": 78144,
          "time": 90.444354,
          "velocity": 0.6692913385826772
        },
        {
          "duration": 0.22222199999998793,
          "durationTicks": 192,
          "midi": 61,
          "name": "C#4",
          "ticks": 78336,
          "time": 90.666576,
          "velocity": 0.6692913385826772
        },
        {
          "duration": 0.11111099999999396,
          "durationTicks": 96,
          "midi": 54,
          "name": "F#3",
          "ticks": 78336,
          "time": 90.666576,
          "velocity": 0.6692913385826772
        },
        {
          "duration": 0.22222199999998793,
          "durationTicks": 192,
          "midi": 49,
          "name": "C#3",
          "ticks": 78336,
          "time": 90.666576,
          "velocity": 0.6692913385826772
        },
        {
          "duration": 0.22222200000000214,
          "durationTicks": 192,
          "midi": 49,
          "name": "C#3",
          "ticks": 78528,
          "time": 90.888798,
          "velocity": 0.6692913385826772
        },
        {
          "duration": 0.11111100000000818,
          "durationTicks": 96,
          "midi": 61,
          "name": "C#4",
          "ticks": 78720,
          "time": 91.11102,
          "velocity": 0.6692913385826772
        },
        {
          "duration": 0.11111100000000818,
          "durationTicks": 96,
          "midi": 54,
          "name": "F#3",
          "ticks": 78720,
          "time": 91.11102,
          "velocity": 0.6692913385826772
        },
        {
          "duration": 0.11111099999999396,
          "durationTicks": 96,
          "midi": 54,
          "name": "F#3",
          "ticks": 78816,
          "time": 91.222131,
          "velocity": 0.6692913385826772
        },
        {
          "duration": 0.11111099999999396,
          "durationTicks": 96,
          "midi": 61,
          "name": "C#4",
          "ticks": 78816,
          "time": 91.222131,
          "velocity": 0.6692913385826772
        },
        {
          "duration": 0.22222200000000214,
          "durationTicks": 192,
          "midi": 49,
          "name": "C#3",
          "ticks": 78912,
          "time": 91.333242,
          "velocity": 0.6692913385826772
        },
        {
          "duration": 0.11111099999999396,
          "durationTicks": 96,
          "midi": 54,
          "name": "F#3",
          "ticks": 79104,
          "time": 91.555464,
          "velocity": 0.6692913385826772
        },
        {
          "duration": 0.22222200000000214,
          "durationTicks": 192,
          "midi": 61,
          "name": "C#4",
          "ticks": 79104,
          "time": 91.555464,
          "velocity": 0.6692913385826772
        },
        {
          "duration": 0.22222200000000214,
          "durationTicks": 192,
          "midi": 49,
          "name": "C#3",
          "ticks": 79104,
          "time": 91.555464,
          "velocity": 0.6692913385826772
        },
        {
          "duration": 0.22222200000000214,
          "durationTicks": 192,
          "midi": 49,
          "name": "C#3",
          "ticks": 79296,
          "time": 91.777686,
          "velocity": 0.6692913385826772
        },
        {
          "duration": 0.11111099999999396,
          "durationTicks": 96,
          "midi": 61,
          "name": "C#4",
          "ticks": 79488,
          "time": 91.999908,
          "velocity": 0.6692913385826772
        },
        {
          "duration": 0.11111099999999396,
          "durationTicks": 96,
          "midi": 54,
          "name": "F#3",
          "ticks": 79488,
          "time": 91.999908,
          "velocity": 0.6692913385826772
        },
        {
          "duration": 0.11111100000000818,
          "durationTicks": 96,
          "midi": 54,
          "name": "F#3",
          "ticks": 79584,
          "time": 92.111019,
          "velocity": 0.6692913385826772
        },
        {
          "duration": 0.11111100000000818,
          "durationTicks": 96,
          "midi": 61,
          "name": "C#4",
          "ticks": 79584,
          "time": 92.111019,
          "velocity": 0.6692913385826772
        },
        {
          "duration": 0.22222199999998793,
          "durationTicks": 192,
          "midi": 49,
          "name": "C#3",
          "ticks": 79680,
          "time": 92.22213,
          "velocity": 0.6692913385826772
        },
        {
          "duration": 0.22222200000000214,
          "durationTicks": 192,
          "midi": 57,
          "name": "A3",
          "ticks": 79872,
          "time": 92.444352,
          "velocity": 0.6692913385826772
        },
        {
          "duration": 0.11111100000000818,
          "durationTicks": 96,
          "midi": 50,
          "name": "D3",
          "ticks": 79872,
          "time": 92.444352,
          "velocity": 0.6692913385826772
        },
        {
          "duration": 0.22222200000000214,
          "durationTicks": 192,
          "midi": 45,
          "name": "A2",
          "ticks": 79872,
          "time": 92.444352,
          "velocity": 0.6692913385826772
        },
        {
          "duration": 0.22222200000000214,
          "durationTicks": 192,
          "midi": 45,
          "name": "A2",
          "ticks": 80064,
          "time": 92.666574,
          "velocity": 0.6692913385826772
        },
        {
          "duration": 0.11111100000000818,
          "durationTicks": 96,
          "midi": 50,
          "name": "D3",
          "ticks": 80256,
          "time": 92.888796,
          "velocity": 0.6692913385826772
        },
        {
          "duration": 0.11111100000000818,
          "durationTicks": 96,
          "midi": 57,
          "name": "A3",
          "ticks": 80256,
          "time": 92.888796,
          "velocity": 0.6692913385826772
        },
        {
          "duration": 0.11111099999999396,
          "durationTicks": 96,
          "midi": 50,
          "name": "D3",
          "ticks": 80352,
          "time": 92.99990700000001,
          "velocity": 0.6692913385826772
        },
        {
          "duration": 0.11111099999999396,
          "durationTicks": 96,
          "midi": 57,
          "name": "A3",
          "ticks": 80352,
          "time": 92.99990700000001,
          "velocity": 0.6692913385826772
        },
        {
          "duration": 0.22222200000000214,
          "durationTicks": 192,
          "midi": 45,
          "name": "A2",
          "ticks": 80448,
          "time": 93.111018,
          "velocity": 0.6692913385826772
        },
        {
          "duration": 0.22222200000000214,
          "durationTicks": 192,
          "midi": 45,
          "name": "A2",
          "ticks": 80640,
          "time": 93.33324,
          "velocity": 0.6692913385826772
        },
        {
          "duration": 0.22222200000000214,
          "durationTicks": 192,
          "midi": 57,
          "name": "A3",
          "ticks": 80640,
          "time": 93.33324,
          "velocity": 0.6692913385826772
        },
        {
          "duration": 0.11111099999999396,
          "durationTicks": 96,
          "midi": 50,
          "name": "D3",
          "ticks": 80640,
          "time": 93.33324,
          "velocity": 0.6692913385826772
        },
        {
          "duration": 0.22222200000000214,
          "durationTicks": 192,
          "midi": 45,
          "name": "A2",
          "ticks": 80832,
          "time": 93.555462,
          "velocity": 0.6692913385826772
        },
        {
          "duration": 0.11111099999999396,
          "durationTicks": 96,
          "midi": 57,
          "name": "A3",
          "ticks": 81024,
          "time": 93.77768400000001,
          "velocity": 0.6692913385826772
        },
        {
          "duration": 0.11111099999999396,
          "durationTicks": 96,
          "midi": 50,
          "name": "D3",
          "ticks": 81024,
          "time": 93.77768400000001,
          "velocity": 0.6692913385826772
        },
        {
          "duration": 0.11111099999999396,
          "durationTicks": 96,
          "midi": 50,
          "name": "D3",
          "ticks": 81120,
          "time": 93.888795,
          "velocity": 0.6692913385826772
        },
        {
          "duration": 0.11111099999999396,
          "durationTicks": 96,
          "midi": 57,
          "name": "A3",
          "ticks": 81120,
          "time": 93.888795,
          "velocity": 0.6692913385826772
        },
        {
          "duration": 0.22222200000000214,
          "durationTicks": 192,
          "midi": 45,
          "name": "A2",
          "ticks": 81216,
          "time": 93.999906,
          "velocity": 0.6692913385826772
        },
        {
          "duration": 0.11111100000000818,
          "durationTicks": 96,
          "midi": 54,
          "name": "F#3",
          "ticks": 81408,
          "time": 94.222128,
          "velocity": 0.6692913385826772
        },
        {
          "duration": 0.22222200000000214,
          "durationTicks": 192,
          "midi": 61,
          "name": "C#4",
          "ticks": 81408,
          "time": 94.222128,
          "velocity": 0.6692913385826772
        },
        {
          "duration": 0.22222200000000214,
          "durationTicks": 192,
          "midi": 49,
          "name": "C#3",
          "ticks": 81408,
          "time": 94.222128,
          "velocity": 0.6692913385826772
        },
        {
          "duration": 0.22222200000000214,
          "durationTicks": 192,
          "midi": 49,
          "name": "C#3",
          "ticks": 81600,
          "time": 94.44435,
          "velocity": 0.6692913385826772
        },
        {
          "duration": 0.11111099999999396,
          "durationTicks": 96,
          "midi": 54,
          "name": "F#3",
          "ticks": 81792,
          "time": 94.666572,
          "velocity": 0.6692913385826772
        },
        {
          "duration": 0.11111099999999396,
          "durationTicks": 96,
          "midi": 61,
          "name": "C#4",
          "ticks": 81792,
          "time": 94.666572,
          "velocity": 0.6692913385826772
        },
        {
          "duration": 0.11111100000000818,
          "durationTicks": 96,
          "midi": 61,
          "name": "C#4",
          "ticks": 81888,
          "time": 94.777683,
          "velocity": 0.6692913385826772
        },
        {
          "duration": 0.11111100000000818,
          "durationTicks": 96,
          "midi": 54,
          "name": "F#3",
          "ticks": 81888,
          "time": 94.777683,
          "velocity": 0.6692913385826772
        },
        {
          "duration": 0.22222200000000214,
          "durationTicks": 192,
          "midi": 49,
          "name": "C#3",
          "ticks": 81984,
          "time": 94.888794,
          "velocity": 0.6692913385826772
        },
        {
          "duration": 0.22222199999998793,
          "durationTicks": 192,
          "midi": 61,
          "name": "C#4",
          "ticks": 82176,
          "time": 95.111016,
          "velocity": 0.6692913385826772
        },
        {
          "duration": 0.22222199999998793,
          "durationTicks": 192,
          "midi": 49,
          "name": "C#3",
          "ticks": 82176,
          "time": 95.111016,
          "velocity": 0.6692913385826772
        },
        {
          "duration": 0.11111099999999396,
          "durationTicks": 96,
          "midi": 54,
          "name": "F#3",
          "ticks": 82176,
          "time": 95.111016,
          "velocity": 0.6692913385826772
        },
        {
          "duration": 0.22222200000000214,
          "durationTicks": 192,
          "midi": 49,
          "name": "C#3",
          "ticks": 82368,
          "time": 95.333238,
          "velocity": 0.6692913385826772
        },
        {
          "duration": 0.11111100000000818,
          "durationTicks": 96,
          "midi": 54,
          "name": "F#3",
          "ticks": 82560,
          "time": 95.55546,
          "velocity": 0.6692913385826772
        },
        {
          "duration": 0.11111100000000818,
          "durationTicks": 96,
          "midi": 61,
          "name": "C#4",
          "ticks": 82560,
          "time": 95.55546,
          "velocity": 0.6692913385826772
        },
        {
          "duration": 0.11111099999999396,
          "durationTicks": 96,
          "midi": 54,
          "name": "F#3",
          "ticks": 82656,
          "time": 95.666571,
          "velocity": 0.6692913385826772
        },
        {
          "duration": 0.11111099999999396,
          "durationTicks": 96,
          "midi": 61,
          "name": "C#4",
          "ticks": 82656,
          "time": 95.666571,
          "velocity": 0.6692913385826772
        },
        {
          "duration": 0.22222200000000214,
          "durationTicks": 192,
          "midi": 49,
          "name": "C#3",
          "ticks": 82752,
          "time": 95.777682,
          "velocity": 0.6692913385826772
        },
        {
          "duration": 0.11111099999999396,
          "durationTicks": 96,
          "midi": 50,
          "name": "D3",
          "ticks": 82944,
          "time": 95.999904,
          "velocity": 0.6692913385826772
        },
        {
          "duration": 0.22222200000000214,
          "durationTicks": 192,
          "midi": 57,
          "name": "A3",
          "ticks": 82944,
          "time": 95.999904,
          "velocity": 0.6692913385826772
        },
        {
          "duration": 0.22222200000000214,
          "durationTicks": 192,
          "midi": 45,
          "name": "A2",
          "ticks": 82944,
          "time": 95.999904,
          "velocity": 0.6692913385826772
        },
        {
          "duration": 0.22222200000000214,
          "durationTicks": 192,
          "midi": 45,
          "name": "A2",
          "ticks": 83136,
          "time": 96.222126,
          "velocity": 0.6692913385826772
        },
        {
          "duration": 0.11111099999999396,
          "durationTicks": 96,
          "midi": 50,
          "name": "D3",
          "ticks": 83328,
          "time": 96.444348,
          "velocity": 0.6692913385826772
        },
        {
          "duration": 0.11111099999999396,
          "durationTicks": 96,
          "midi": 57,
          "name": "A3",
          "ticks": 83328,
          "time": 96.444348,
          "velocity": 0.6692913385826772
        },
        {
          "duration": 0.11111100000000818,
          "durationTicks": 96,
          "midi": 50,
          "name": "D3",
          "ticks": 83424,
          "time": 96.555459,
          "velocity": 0.6692913385826772
        },
        {
          "duration": 0.11111100000000818,
          "durationTicks": 96,
          "midi": 57,
          "name": "A3",
          "ticks": 83424,
          "time": 96.555459,
          "velocity": 0.6692913385826772
        },
        {
          "duration": 0.22222199999998793,
          "durationTicks": 192,
          "midi": 45,
          "name": "A2",
          "ticks": 83520,
          "time": 96.66657000000001,
          "velocity": 0.6692913385826772
        },
        {
          "duration": 0.22222200000000214,
          "durationTicks": 192,
          "midi": 45,
          "name": "A2",
          "ticks": 83712,
          "time": 96.888792,
          "velocity": 0.6692913385826772
        },
        {
          "duration": 0.11111100000000818,
          "durationTicks": 96,
          "midi": 50,
          "name": "D3",
          "ticks": 83712,
          "time": 96.888792,
          "velocity": 0.6692913385826772
        },
        {
          "duration": 0.22222200000000214,
          "durationTicks": 192,
          "midi": 57,
          "name": "A3",
          "ticks": 83712,
          "time": 96.888792,
          "velocity": 0.6692913385826772
        },
        {
          "duration": 0.22222200000000214,
          "durationTicks": 192,
          "midi": 45,
          "name": "A2",
          "ticks": 83904,
          "time": 97.111014,
          "velocity": 0.6692913385826772
        },
        {
          "duration": 0.11111100000000818,
          "durationTicks": 96,
          "midi": 57,
          "name": "A3",
          "ticks": 84096,
          "time": 97.333236,
          "velocity": 0.6692913385826772
        },
        {
          "duration": 0.11111100000000818,
          "durationTicks": 96,
          "midi": 50,
          "name": "D3",
          "ticks": 84096,
          "time": 97.333236,
          "velocity": 0.6692913385826772
        },
        {
          "duration": 0.11111099999999396,
          "durationTicks": 96,
          "midi": 50,
          "name": "D3",
          "ticks": 84192,
          "time": 97.44434700000001,
          "velocity": 0.6692913385826772
        },
        {
          "duration": 0.11111099999999396,
          "durationTicks": 96,
          "midi": 57,
          "name": "A3",
          "ticks": 84192,
          "time": 97.44434700000001,
          "velocity": 0.6692913385826772
        },
        {
          "duration": 0.22222200000000214,
          "durationTicks": 192,
          "midi": 45,
          "name": "A2",
          "ticks": 84288,
          "time": 97.555458,
          "velocity": 0.6692913385826772
        },
        {
          "duration": 0.11111099999999396,
          "durationTicks": 96,
          "midi": 54,
          "name": "F#3",
          "ticks": 84480,
          "time": 97.77768,
          "velocity": 0.6692913385826772
        },
        {
          "duration": 0.22222200000000214,
          "durationTicks": 192,
          "midi": 61,
          "name": "C#4",
          "ticks": 84480,
          "time": 97.77768,
          "velocity": 0.6692913385826772
        },
        {
          "duration": 0.22222200000000214,
          "durationTicks": 192,
          "midi": 49,
          "name": "C#3",
          "ticks": 84480,
          "time": 97.77768,
          "velocity": 0.6692913385826772
        },
        {
          "duration": 0.22222200000000214,
          "durationTicks": 192,
          "midi": 49,
          "name": "C#3",
          "ticks": 84672,
          "time": 97.999902,
          "velocity": 0.6692913385826772
        },
        {
          "duration": 0.11111099999999396,
          "durationTicks": 96,
          "midi": 54,
          "name": "F#3",
          "ticks": 84864,
          "time": 98.22212400000001,
          "velocity": 0.6692913385826772
        },
        {
          "duration": 0.11111099999999396,
          "durationTicks": 96,
          "midi": 61,
          "name": "C#4",
          "ticks": 84864,
          "time": 98.22212400000001,
          "velocity": 0.6692913385826772
        },
        {
          "duration": 0.11111099999999396,
          "durationTicks": 96,
          "midi": 61,
          "name": "C#4",
          "ticks": 84960,
          "time": 98.333235,
          "velocity": 0.6692913385826772
        },
        {
          "duration": 0.11111099999999396,
          "durationTicks": 96,
          "midi": 54,
          "name": "F#3",
          "ticks": 84960,
          "time": 98.333235,
          "velocity": 0.6692913385826772
        },
        {
          "duration": 0.22222200000000214,
          "durationTicks": 192,
          "midi": 49,
          "name": "C#3",
          "ticks": 85056,
          "time": 98.444346,
          "velocity": 0.6692913385826772
        },
        {
          "duration": 0.11111100000000818,
          "durationTicks": 96,
          "midi": 54,
          "name": "F#3",
          "ticks": 85248,
          "time": 98.666568,
          "velocity": 0.6692913385826772
        },
        {
          "duration": 0.22222200000000214,
          "durationTicks": 192,
          "midi": 49,
          "name": "C#3",
          "ticks": 85248,
          "time": 98.666568,
          "velocity": 0.6692913385826772
        },
        {
          "duration": 0.22222200000000214,
          "durationTicks": 192,
          "midi": 61,
          "name": "C#4",
          "ticks": 85248,
          "time": 98.666568,
          "velocity": 0.6692913385826772
        },
        {
          "duration": 0.22222200000000214,
          "durationTicks": 192,
          "midi": 49,
          "name": "C#3",
          "ticks": 85440,
          "time": 98.88879,
          "velocity": 0.6692913385826772
        },
        {
          "duration": 0.11111099999999396,
          "durationTicks": 96,
          "midi": 61,
          "name": "C#4",
          "ticks": 85632,
          "time": 99.111012,
          "velocity": 0.6692913385826772
        },
        {
          "duration": 0.11111099999999396,
          "durationTicks": 96,
          "midi": 54,
          "name": "F#3",
          "ticks": 85632,
          "time": 99.111012,
          "velocity": 0.6692913385826772
        },
        {
          "duration": 0.11111100000000818,
          "durationTicks": 96,
          "midi": 54,
          "name": "F#3",
          "ticks": 85728,
          "time": 99.222123,
          "velocity": 0.6692913385826772
        },
        {
          "duration": 0.11111100000000818,
          "durationTicks": 96,
          "midi": 61,
          "name": "C#4",
          "ticks": 85728,
          "time": 99.222123,
          "velocity": 0.6692913385826772
        },
        {
          "duration": 0.22222200000000214,
          "durationTicks": 192,
          "midi": 49,
          "name": "C#3",
          "ticks": 85824,
          "time": 99.333234,
          "velocity": 0.6692913385826772
        },
        {
          "duration": 0.22222199999998793,
          "durationTicks": 192,
          "midi": 57,
          "name": "A3",
          "ticks": 86016,
          "time": 99.555456,
          "velocity": 0.6692913385826772
        },
        {
          "duration": 0.22222199999998793,
          "durationTicks": 192,
          "midi": 45,
          "name": "A2",
          "ticks": 86016,
          "time": 99.555456,
          "velocity": 0.6692913385826772
        },
        {
          "duration": 0.22222200000000214,
          "durationTicks": 192,
          "midi": 45,
          "name": "A2",
          "ticks": 86208,
          "time": 99.777678,
          "velocity": 0.6692913385826772
        },
        {
          "duration": 0.11111100000000818,
          "durationTicks": 96,
          "midi": 57,
          "name": "A3",
          "ticks": 86400,
          "time": 99.9999,
          "velocity": 0.6692913385826772
        },
        {
          "duration": 0.11111099999999396,
          "durationTicks": 96,
          "midi": 57,
          "name": "A3",
          "ticks": 86496,
          "time": 100.111011,
          "velocity": 0.6692913385826772
        },
        {
          "duration": 0.22222200000000214,
          "durationTicks": 192,
          "midi": 45,
          "name": "A2",
          "ticks": 86592,
          "time": 100.222122,
          "velocity": 0.6692913385826772
        },
        {
          "duration": 0.22222200000000214,
          "durationTicks": 192,
          "midi": 57,
          "name": "A3",
          "ticks": 86784,
          "time": 100.444344,
          "velocity": 0.6692913385826772
        },
        {
          "duration": 0.22222200000000214,
          "durationTicks": 192,
          "midi": 45,
          "name": "A2",
          "ticks": 86784,
          "time": 100.444344,
          "velocity": 0.6692913385826772
        },
        {
          "duration": 0.22222200000000214,
          "durationTicks": 192,
          "midi": 45,
          "name": "A2",
          "ticks": 86976,
          "time": 100.666566,
          "velocity": 0.6692913385826772
        },
        {
          "duration": 0.11111099999999396,
          "durationTicks": 96,
          "midi": 57,
          "name": "A3",
          "ticks": 87168,
          "time": 100.888788,
          "velocity": 0.6692913385826772
        },
        {
          "duration": 0.11111100000000818,
          "durationTicks": 96,
          "midi": 57,
          "name": "A3",
          "ticks": 87264,
          "time": 100.999899,
          "velocity": 0.6692913385826772
        },
        {
          "duration": 0.22222199999998793,
          "durationTicks": 192,
          "midi": 45,
          "name": "A2",
          "ticks": 87360,
          "time": 101.11101000000001,
          "velocity": 0.6692913385826772
        },
        {
          "duration": 0.22222200000000214,
          "durationTicks": 192,
          "midi": 49,
          "name": "C#3",
          "ticks": 87552,
          "time": 101.333232,
          "velocity": 0.6692913385826772
        },
        {
          "duration": 0.22222200000000214,
          "durationTicks": 192,
          "midi": 61,
          "name": "C#4",
          "ticks": 87552,
          "time": 101.333232,
          "velocity": 0.6692913385826772
        },
        {
          "duration": 0.22222200000000214,
          "durationTicks": 192,
          "midi": 49,
          "name": "C#3",
          "ticks": 87744,
          "time": 101.555454,
          "velocity": 0.6692913385826772
        },
        {
          "duration": 0.11111100000000818,
          "durationTicks": 96,
          "midi": 61,
          "name": "C#4",
          "ticks": 87936,
          "time": 101.777676,
          "velocity": 0.6692913385826772
        },
        {
          "duration": 0.11111099999999396,
          "durationTicks": 96,
          "midi": 61,
          "name": "C#4",
          "ticks": 88032,
          "time": 101.88878700000001,
          "velocity": 0.6692913385826772
        },
        {
          "duration": 0.22222200000000214,
          "durationTicks": 192,
          "midi": 49,
          "name": "C#3",
          "ticks": 88128,
          "time": 101.999898,
          "velocity": 0.6692913385826772
        },
        {
          "duration": 0.22222200000000214,
          "durationTicks": 192,
          "midi": 61,
          "name": "C#4",
          "ticks": 88320,
          "time": 102.22212,
          "velocity": 0.6692913385826772
        },
        {
          "duration": 0.22222200000000214,
          "durationTicks": 192,
          "midi": 49,
          "name": "C#3",
          "ticks": 88320,
          "time": 102.22212,
          "velocity": 0.6692913385826772
        },
        {
          "duration": 0.22222200000000214,
          "durationTicks": 192,
          "midi": 49,
          "name": "C#3",
          "ticks": 88512,
          "time": 102.444342,
          "velocity": 0.6692913385826772
        },
        {
          "duration": 0.11111099999999396,
          "durationTicks": 96,
          "midi": 61,
          "name": "C#4",
          "ticks": 88704,
          "time": 102.66656400000001,
          "velocity": 0.6692913385826772
        },
        {
          "duration": 0.11111099999999396,
          "durationTicks": 96,
          "midi": 61,
          "name": "C#4",
          "ticks": 88800,
          "time": 102.777675,
          "velocity": 0.6692913385826772
        },
        {
          "duration": 0.22222200000000214,
          "durationTicks": 192,
          "midi": 49,
          "name": "C#3",
          "ticks": 88896,
          "time": 102.888786,
          "velocity": 0.6692913385826772
        },
        {
          "duration": 0.22222200000000214,
          "durationTicks": 192,
          "midi": 57,
          "name": "A3",
          "ticks": 89088,
          "time": 103.111008,
          "velocity": 0.6692913385826772
        },
        {
          "duration": 0.22222200000000214,
          "durationTicks": 192,
          "midi": 45,
          "name": "A2",
          "ticks": 89088,
          "time": 103.111008,
          "velocity": 0.6692913385826772
        },
        {
          "duration": 0.22222200000000214,
          "durationTicks": 192,
          "midi": 45,
          "name": "A2",
          "ticks": 89280,
          "time": 103.33323,
          "velocity": 0.6692913385826772
        },
        {
          "duration": 0.11111099999999396,
          "durationTicks": 96,
          "midi": 57,
          "name": "A3",
          "ticks": 89472,
          "time": 103.555452,
          "velocity": 0.6692913385826772
        },
        {
          "duration": 0.11111100000000818,
          "durationTicks": 96,
          "midi": 57,
          "name": "A3",
          "ticks": 89568,
          "time": 103.666563,
          "velocity": 0.6692913385826772
        },
        {
          "duration": 0.22222200000000214,
          "durationTicks": 192,
          "midi": 45,
          "name": "A2",
          "ticks": 89664,
          "time": 103.777674,
          "velocity": 0.6692913385826772
        },
        {
          "duration": 0.22222199999998793,
          "durationTicks": 192,
          "midi": 57,
          "name": "A3",
          "ticks": 89856,
          "time": 103.999896,
          "velocity": 0.6692913385826772
        },
        {
          "duration": 0.22222199999998793,
          "durationTicks": 192,
          "midi": 45,
          "name": "A2",
          "ticks": 89856,
          "time": 103.999896,
          "velocity": 0.6692913385826772
        },
        {
          "duration": 0.22222200000000214,
          "durationTicks": 192,
          "midi": 45,
          "name": "A2",
          "ticks": 90048,
          "time": 104.222118,
          "velocity": 0.6692913385826772
        },
        {
          "duration": 0.11111100000000818,
          "durationTicks": 96,
          "midi": 57,
          "name": "A3",
          "ticks": 90240,
          "time": 104.44434,
          "velocity": 0.6692913385826772
        },
        {
          "duration": 0.11111099999999396,
          "durationTicks": 96,
          "midi": 57,
          "name": "A3",
          "ticks": 90336,
          "time": 104.555451,
          "velocity": 0.6692913385826772
        },
        {
          "duration": 0.22222200000000214,
          "durationTicks": 192,
          "midi": 45,
          "name": "A2",
          "ticks": 90432,
          "time": 104.666562,
          "velocity": 0.6692913385826772
        },
        {
          "duration": 0.22222200000000214,
          "durationTicks": 192,
          "midi": 61,
          "name": "C#4",
          "ticks": 90624,
          "time": 104.888784,
          "velocity": 0.6692913385826772
        },
        {
          "duration": 0.22222200000000214,
          "durationTicks": 192,
          "midi": 49,
          "name": "C#3",
          "ticks": 90624,
          "time": 104.888784,
          "velocity": 0.6692913385826772
        },
        {
          "duration": 0.22222200000000214,
          "durationTicks": 192,
          "midi": 49,
          "name": "C#3",
          "ticks": 90816,
          "time": 105.111006,
          "velocity": 0.6692913385826772
        },
        {
          "duration": 0.11111099999999396,
          "durationTicks": 96,
          "midi": 61,
          "name": "C#4",
          "ticks": 91008,
          "time": 105.333228,
          "velocity": 0.6692913385826772
        },
        {
          "duration": 0.11111100000000818,
          "durationTicks": 96,
          "midi": 61,
          "name": "C#4",
          "ticks": 91104,
          "time": 105.444339,
          "velocity": 0.6692913385826772
        },
        {
          "duration": 0.22222199999998793,
          "durationTicks": 192,
          "midi": 49,
          "name": "C#3",
          "ticks": 91200,
          "time": 105.55545000000001,
          "velocity": 0.6692913385826772
        },
        {
          "duration": 0.22222200000000214,
          "durationTicks": 192,
          "midi": 61,
          "name": "C#4",
          "ticks": 91392,
          "time": 105.777672,
          "velocity": 0.6692913385826772
        },
        {
          "duration": 0.22222200000000214,
          "durationTicks": 192,
          "midi": 49,
          "name": "C#3",
          "ticks": 91392,
          "time": 105.777672,
          "velocity": 0.6692913385826772
        },
        {
          "duration": 0.22222200000000214,
          "durationTicks": 192,
          "midi": 49,
          "name": "C#3",
          "ticks": 91584,
          "time": 105.999894,
          "velocity": 0.6692913385826772
        },
        {
          "duration": 0.11111100000000818,
          "durationTicks": 96,
          "midi": 61,
          "name": "C#4",
          "ticks": 91776,
          "time": 106.222116,
          "velocity": 0.6692913385826772
        },
        {
          "duration": 0.11111099999999396,
          "durationTicks": 96,
          "midi": 61,
          "name": "C#4",
          "ticks": 91872,
          "time": 106.33322700000001,
          "velocity": 0.6692913385826772
        },
        {
          "duration": 0.22222200000000214,
          "durationTicks": 192,
          "midi": 49,
          "name": "C#3",
          "ticks": 91968,
          "time": 106.444338,
          "velocity": 0.6692913385826772
        },
        {
          "duration": 0.8888879999999943,
          "durationTicks": 768,
          "midi": 52,
          "name": "E3",
          "ticks": 92160,
          "time": 106.66656,
          "velocity": 0.6692913385826772
        },
        {
          "duration": 0.4444440000000043,
          "durationTicks": 384,
          "midi": 40,
          "name": "E2",
          "ticks": 92160,
          "time": 106.66656,
          "velocity": 0.6692913385826772
        },
        {
          "duration": 0.8888879999999943,
          "durationTicks": 768,
          "midi": 64,
          "name": "E4",
          "ticks": 92160,
          "time": 106.66656,
          "velocity": 0.6692913385826772
        },
        {
          "duration": 0.44444399999999007,
          "durationTicks": 384,
          "midi": 40,
          "name": "E2",
          "ticks": 92544,
          "time": 107.11100400000001,
          "velocity": 0.6692913385826772
        },
        {
          "duration": 0.8888879999999943,
          "durationTicks": 768,
          "midi": 51,
          "name": "D#3",
          "ticks": 93696,
          "time": 108.444336,
          "velocity": 0.6692913385826772
        },
        {
          "duration": 0.44444399999999007,
          "durationTicks": 384,
          "midi": 39,
          "name": "D#2",
          "ticks": 93696,
          "time": 108.444336,
          "velocity": 0.6692913385826772
        },
        {
          "duration": 0.8888879999999943,
          "durationTicks": 768,
          "midi": 63,
          "name": "D#4",
          "ticks": 93696,
          "time": 108.444336,
          "velocity": 0.6692913385826772
        },
        {
          "duration": 0.4444440000000043,
          "durationTicks": 384,
          "midi": 39,
          "name": "D#2",
          "ticks": 94080,
          "time": 108.88878,
          "velocity": 0.6692913385826772
        },
        {
          "duration": 0.8888880000000086,
          "durationTicks": 768,
          "midi": 52,
          "name": "E3",
          "ticks": 95232,
          "time": 110.222112,
          "velocity": 0.6692913385826772
        },
        {
          "duration": 0.8888880000000086,
          "durationTicks": 768,
          "midi": 64,
          "name": "E4",
          "ticks": 95232,
          "time": 110.222112,
          "velocity": 0.6692913385826772
        },
        {
          "duration": 0.4444440000000043,
          "durationTicks": 384,
          "midi": 40,
          "name": "E2",
          "ticks": 95232,
          "time": 110.222112,
          "velocity": 0.6692913385826772
        },
        {
          "duration": 0.4444440000000043,
          "durationTicks": 384,
          "midi": 40,
          "name": "E2",
          "ticks": 95616,
          "time": 110.666556,
          "velocity": 0.6692913385826772
        },
        {
          "duration": 0.4444440000000043,
          "durationTicks": 384,
          "midi": 42,
          "name": "F#2",
          "ticks": 96768,
          "time": 111.999888,
          "velocity": 0.6692913385826772
        },
        {
          "duration": 0.8888880000000086,
          "durationTicks": 768,
          "midi": 66,
          "name": "F#4",
          "ticks": 96768,
          "time": 111.999888,
          "velocity": 0.6692913385826772
        },
        {
          "duration": 0.8888880000000086,
          "durationTicks": 768,
          "midi": 54,
          "name": "F#3",
          "ticks": 96768,
          "time": 111.999888,
          "velocity": 0.6692913385826772
        },
        {
          "duration": 0.4444440000000043,
          "durationTicks": 384,
          "midi": 42,
          "name": "F#2",
          "ticks": 97152,
          "time": 112.444332,
          "velocity": 0.6692913385826772
        },
        {
          "duration": 1.6666649999999947,
          "durationTicks": 1440,
          "midi": 57,
          "name": "A3",
          "ticks": 98304,
          "time": 113.777664,
          "velocity": 0.6692913385826772
        },
        {
          "duration": 1.6666649999999947,
          "durationTicks": 1440,
          "midi": 59,
          "name": "B3",
          "ticks": 99840,
          "time": 115.55544,
          "velocity": 0.6692913385826772
        },
        {
          "duration": 3.3333299999999895,
          "durationTicks": 2880,
          "midi": 58,
          "name": "A#3",
          "ticks": 101376,
          "time": 117.33321600000001,
          "velocity": 0.6692913385826772
        },
        {
          "duration": 1.666665000000009,
          "durationTicks": 1440,
          "midi": 57,
          "name": "A3",
          "ticks": 104448,
          "time": 120.888768,
          "velocity": 0.6692913385826772
        },
        {
          "duration": 1.6666649999999947,
          "durationTicks": 1440,
          "midi": 59,
          "name": "B3",
          "ticks": 105984,
          "time": 122.666544,
          "velocity": 0.6692913385826772
        },
        {
          "duration": 2.5555530000000033,
          "durationTicks": 2208,
          "midi": 61,
          "name": "C#4",
          "ticks": 107520,
          "time": 124.44432,
          "velocity": 0.6692913385826772
        },
        {
          "duration": 0.4444440000000043,
          "durationTicks": 384,
          "midi": 61,
          "name": "C#4",
          "ticks": 109824,
          "time": 127.110984,
          "velocity": 0.6692913385826772
        },
        {
          "duration": 0.22222200000000214,
          "durationTicks": 192,
          "midi": 61,
          "name": "C#4",
          "ticks": 110208,
          "time": 127.555428,
          "velocity": 0.6692913385826772
        },
        {
          "duration": 0.11111099999999396,
          "durationTicks": 96,
          "midi": 61,
          "name": "C#4",
          "ticks": 110400,
          "time": 127.77765000000001,
          "velocity": 0.6692913385826772
        },
        {
          "duration": 0.11111099999999396,
          "durationTicks": 96,
          "midi": 61,
          "name": "C#4",
          "ticks": 110496,
          "time": 127.888761,
          "velocity": 0.6692913385826772
        },
        {
          "duration": 0.4444440000000185,
          "durationTicks": 384,
          "midi": 57,
          "name": "A3",
          "ticks": 110592,
          "time": 127.999872,
          "velocity": 0.6692913385826772
        },
        {
          "duration": 0.44444399999997586,
          "durationTicks": 384,
          "midi": 57,
          "name": "A3",
          "ticks": 110976,
          "time": 128.44431600000001,
          "velocity": 0.6692913385826772
        },
        {
          "duration": 0.4444440000000043,
          "durationTicks": 384,
          "midi": 57,
          "name": "A3",
          "ticks": 111360,
          "time": 128.88876,
          "velocity": 0.6692913385826772
        },
        {
          "duration": 0.4444440000000043,
          "durationTicks": 384,
          "midi": 57,
          "name": "A3",
          "ticks": 111744,
          "time": 129.333204,
          "velocity": 0.6692913385826772
        },
        {
          "duration": 0.4444440000000043,
          "durationTicks": 384,
          "midi": 59,
          "name": "B3",
          "ticks": 112128,
          "time": 129.777648,
          "velocity": 0.6692913385826772
        },
        {
          "duration": 0.4444440000000043,
          "durationTicks": 384,
          "midi": 59,
          "name": "B3",
          "ticks": 112512,
          "time": 130.222092,
          "velocity": 0.6692913385826772
        },
        {
          "duration": 0.4444440000000043,
          "durationTicks": 384,
          "midi": 59,
          "name": "B3",
          "ticks": 112896,
          "time": 130.666536,
          "velocity": 0.6692913385826772
        },
        {
          "duration": 0.44444399999997586,
          "durationTicks": 384,
          "midi": 59,
          "name": "B3",
          "ticks": 113280,
          "time": 131.11098,
          "velocity": 0.6692913385826772
        },
        {
          "duration": 0.4444440000000043,
          "durationTicks": 384,
          "midi": 58,
          "name": "A#3",
          "ticks": 113664,
          "time": 131.555424,
          "velocity": 0.6692913385826772
        },
        {
          "duration": 0.4444440000000043,
          "durationTicks": 384,
          "midi": 58,
          "name": "A#3",
          "ticks": 114048,
          "time": 131.999868,
          "velocity": 0.6692913385826772
        },
        {
          "duration": 0.4444440000000043,
          "durationTicks": 384,
          "midi": 58,
          "name": "A#3",
          "ticks": 114432,
          "time": 132.444312,
          "velocity": 0.6692913385826772
        },
        {
          "duration": 0.4444440000000043,
          "durationTicks": 384,
          "midi": 58,
          "name": "A#3",
          "ticks": 114816,
          "time": 132.888756,
          "velocity": 0.6692913385826772
        },
        {
          "duration": 0.4444440000000043,
          "durationTicks": 384,
          "midi": 58,
          "name": "A#3",
          "ticks": 115200,
          "time": 133.3332,
          "velocity": 0.6692913385826772
        },
        {
          "duration": 0.4444440000000043,
          "durationTicks": 384,
          "midi": 58,
          "name": "A#3",
          "ticks": 115584,
          "time": 133.777644,
          "velocity": 0.6692913385826772
        },
        {
          "duration": 0.44444399999997586,
          "durationTicks": 384,
          "midi": 58,
          "name": "A#3",
          "ticks": 115968,
          "time": 134.222088,
          "velocity": 0.6692913385826772
        },
        {
          "duration": 0.4444440000000043,
          "durationTicks": 384,
          "midi": 58,
          "name": "A#3",
          "ticks": 116352,
          "time": 134.666532,
          "velocity": 0.6692913385826772
        },
        {
          "duration": 0.4444440000000043,
          "durationTicks": 384,
          "midi": 57,
          "name": "A3",
          "ticks": 116736,
          "time": 135.110976,
          "velocity": 0.6692913385826772
        },
        {
          "duration": 0.4444440000000043,
          "durationTicks": 384,
          "midi": 57,
          "name": "A3",
          "ticks": 117120,
          "time": 135.55542,
          "velocity": 0.6692913385826772
        },
        {
          "duration": 0.4444440000000043,
          "durationTicks": 384,
          "midi": 57,
          "name": "A3",
          "ticks": 117504,
          "time": 135.999864,
          "velocity": 0.6692913385826772
        },
        {
          "duration": 0.4444440000000043,
          "durationTicks": 384,
          "midi": 57,
          "name": "A3",
          "ticks": 117888,
          "time": 136.444308,
          "velocity": 0.6692913385826772
        },
        {
          "duration": 0.4444440000000043,
          "durationTicks": 384,
          "midi": 59,
          "name": "B3",
          "ticks": 118272,
          "time": 136.888752,
          "velocity": 0.6692913385826772
        },
        {
          "duration": 0.44444399999997586,
          "durationTicks": 384,
          "midi": 59,
          "name": "B3",
          "ticks": 118656,
          "time": 137.33319600000002,
          "velocity": 0.6692913385826772
        },
        {
          "duration": 0.4444440000000043,
          "durationTicks": 384,
          "midi": 59,
          "name": "B3",
          "ticks": 119040,
          "time": 137.77764,
          "velocity": 0.6692913385826772
        },
        {
          "duration": 0.4444440000000043,
          "durationTicks": 384,
          "midi": 59,
          "name": "B3",
          "ticks": 119424,
          "time": 138.222084,
          "velocity": 0.6692913385826772
        },
        {
          "duration": 0.4444440000000043,
          "durationTicks": 384,
          "midi": 61,
          "name": "C#4",
          "ticks": 119808,
          "time": 138.666528,
          "velocity": 0.6692913385826772
        },
        {
          "duration": 0.4444440000000043,
          "durationTicks": 384,
          "midi": 61,
          "name": "C#4",
          "ticks": 120192,
          "time": 139.110972,
          "velocity": 0.6692913385826772
        },
        {
          "duration": 0.4444440000000043,
          "durationTicks": 384,
          "midi": 61,
          "name": "C#4",
          "ticks": 120576,
          "time": 139.555416,
          "velocity": 0.6692913385826772
        },
        {
          "duration": 0.44444399999997586,
          "durationTicks": 384,
          "midi": 61,
          "name": "C#4",
          "ticks": 120960,
          "time": 139.99986,
          "velocity": 0.6692913385826772
        },
        {
          "duration": 0.4444440000000043,
          "durationTicks": 384,
          "midi": 61,
          "name": "C#4",
          "ticks": 121344,
          "time": 140.444304,
          "velocity": 0.6692913385826772
        },
        {
          "duration": 0.4444440000000043,
          "durationTicks": 384,
          "midi": 61,
          "name": "C#4",
          "ticks": 121728,
          "time": 140.888748,
          "velocity": 0.6692913385826772
        },
        {
          "duration": 0.22222200000001635,
          "durationTicks": 192,
          "midi": 61,
          "name": "C#4",
          "ticks": 122112,
          "time": 141.333192,
          "velocity": 0.6692913385826772
        },
        {
          "duration": 0.22222199999998793,
          "durationTicks": 192,
          "midi": 61,
          "name": "C#4",
          "ticks": 122304,
          "time": 141.555414,
          "velocity": 0.6692913385826772
        },
        {
          "duration": 0.11111099999999396,
          "durationTicks": 96,
          "midi": 61,
          "name": "C#4",
          "ticks": 122496,
          "time": 141.777636,
          "velocity": 0.6692913385826772
        },
        {
          "duration": 0.11111099999999396,
          "durationTicks": 96,
          "midi": 61,
          "name": "C#4",
          "ticks": 122592,
          "time": 141.888747,
          "velocity": 0.6692913385826772
        },
        {
          "duration": 0.11111100000002239,
          "durationTicks": 96,
          "midi": 61,
          "name": "C#4",
          "ticks": 122688,
          "time": 141.999858,
          "velocity": 0.6692913385826772
        },
        {
          "duration": 0.11111099999999396,
          "durationTicks": 96,
          "midi": 61,
          "name": "C#4",
          "ticks": 122784,
          "time": 142.110969,
          "velocity": 0.6692913385826772
        },
        {
          "duration": 0.22222199999998793,
          "durationTicks": 192,
          "midi": 37,
          "name": "C#2",
          "ticks": 122880,
          "time": 142.22208,
          "velocity": 0.6692913385826772
        },
        {
          "duration": 0.22222199999998793,
          "durationTicks": 192,
          "midi": 49,
          "name": "C#3",
          "ticks": 122880,
          "time": 142.22208,
          "velocity": 0.6692913385826772
        },
        {
          "duration": 0.22222199999998793,
          "durationTicks": 192,
          "midi": 61,
          "name": "C#4",
          "ticks": 122880,
          "time": 142.22208,
          "velocity": 0.6692913385826772
        },
        {
          "duration": 0.22222200000001635,
          "durationTicks": 192,
          "midi": 49,
          "name": "C#3",
          "ticks": 123072,
          "time": 142.444302,
          "velocity": 0.6692913385826772
        },
        {
          "duration": 0.22222200000001635,
          "durationTicks": 192,
          "midi": 61,
          "name": "C#4",
          "ticks": 123072,
          "time": 142.444302,
          "velocity": 0.6692913385826772
        },
        {
          "duration": 0.22222200000001635,
          "durationTicks": 192,
          "midi": 37,
          "name": "C#2",
          "ticks": 123072,
          "time": 142.444302,
          "velocity": 0.6692913385826772
        },
        {
          "duration": 0.11111099999999396,
          "durationTicks": 96,
          "midi": 61,
          "name": "C#4",
          "ticks": 123264,
          "time": 142.666524,
          "velocity": 0.6692913385826772
        },
        {
          "duration": 0.11111099999999396,
          "durationTicks": 96,
          "midi": 37,
          "name": "C#2",
          "ticks": 123264,
          "time": 142.666524,
          "velocity": 0.6692913385826772
        },
        {
          "duration": 0.11111099999999396,
          "durationTicks": 96,
          "midi": 49,
          "name": "C#3",
          "ticks": 123264,
          "time": 142.666524,
          "velocity": 0.6692913385826772
        },
        {
          "duration": 0.11111099999999396,
          "durationTicks": 96,
          "midi": 37,
          "name": "C#2",
          "ticks": 123360,
          "time": 142.777635,
          "velocity": 0.6692913385826772
        },
        {
          "duration": 0.11111099999999396,
          "durationTicks": 96,
          "midi": 49,
          "name": "C#3",
          "ticks": 123360,
          "time": 142.777635,
          "velocity": 0.6692913385826772
        },
        {
          "duration": 0.11111099999999396,
          "durationTicks": 96,
          "midi": 61,
          "name": "C#4",
          "ticks": 123360,
          "time": 142.777635,
          "velocity": 0.6692913385826772
        },
        {
          "duration": 0.11111099999999396,
          "durationTicks": 96,
          "midi": 49,
          "name": "C#3",
          "ticks": 123456,
          "time": 142.888746,
          "velocity": 0.6692913385826772
        },
        {
          "duration": 0.11111099999999396,
          "durationTicks": 96,
          "midi": 37,
          "name": "C#2",
          "ticks": 123456,
          "time": 142.888746,
          "velocity": 0.6692913385826772
        },
        {
          "duration": 0.11111099999999396,
          "durationTicks": 96,
          "midi": 61,
          "name": "C#4",
          "ticks": 123456,
          "time": 142.888746,
          "velocity": 0.6692913385826772
        },
        {
          "duration": 0.22222200000001635,
          "durationTicks": 192,
          "midi": 61,
          "name": "C#4",
          "ticks": 123552,
          "time": 142.999857,
          "velocity": 0.6692913385826772
        },
        {
          "duration": 0.22222200000001635,
          "durationTicks": 192,
          "midi": 37,
          "name": "C#2",
          "ticks": 123552,
          "time": 142.999857,
          "velocity": 0.6692913385826772
        },
        {
          "duration": 0.22222200000001635,
          "durationTicks": 192,
          "midi": 49,
          "name": "C#3",
          "ticks": 123552,
          "time": 142.999857,
          "velocity": 0.6692913385826772
        },
        {
          "duration": 0.22222199999998793,
          "durationTicks": 192,
          "midi": 61,
          "name": "C#4",
          "ticks": 123744,
          "time": 143.222079,
          "velocity": 0.6692913385826772
        },
        {
          "duration": 0.22222199999998793,
          "durationTicks": 192,
          "midi": 49,
          "name": "C#3",
          "ticks": 123744,
          "time": 143.222079,
          "velocity": 0.6692913385826772
        },
        {
          "duration": 0.22222199999998793,
          "durationTicks": 192,
          "midi": 37,
          "name": "C#2",
          "ticks": 123744,
          "time": 143.222079,
          "velocity": 0.6692913385826772
        },
        {
          "duration": 0.11111099999999396,
          "durationTicks": 96,
          "midi": 37,
          "name": "C#2",
          "ticks": 123936,
          "time": 143.444301,
          "velocity": 0.6692913385826772
        },
        {
          "duration": 0.11111099999999396,
          "durationTicks": 96,
          "midi": 49,
          "name": "C#3",
          "ticks": 123936,
          "time": 143.444301,
          "velocity": 0.6692913385826772
        },
        {
          "duration": 0.11111099999999396,
          "durationTicks": 96,
          "midi": 61,
          "name": "C#4",
          "ticks": 123936,
          "time": 143.444301,
          "velocity": 0.6692913385826772
        },
        {
          "duration": 0.22222200000001635,
          "durationTicks": 192,
          "midi": 49,
          "name": "C#3",
          "ticks": 124032,
          "time": 143.555412,
          "velocity": 0.6692913385826772
        },
        {
          "duration": 0.22222200000001635,
          "durationTicks": 192,
          "midi": 37,
          "name": "C#2",
          "ticks": 124032,
          "time": 143.555412,
          "velocity": 0.6692913385826772
        },
        {
          "duration": 0.22222200000001635,
          "durationTicks": 192,
          "midi": 61,
          "name": "C#4",
          "ticks": 124032,
          "time": 143.555412,
          "velocity": 0.6692913385826772
        },
        {
          "duration": 0.22222199999998793,
          "durationTicks": 192,
          "midi": 61,
          "name": "C#4",
          "ticks": 124224,
          "time": 143.777634,
          "velocity": 0.6692913385826772
        },
        {
          "duration": 0.22222199999998793,
          "durationTicks": 192,
          "midi": 61,
          "name": "C#4",
          "ticks": 124224,
          "time": 143.777634,
          "velocity": 0.6692913385826772
        },
        {
          "duration": 0.22222199999998793,
          "durationTicks": 192,
          "midi": 37,
          "name": "C#2",
          "ticks": 124224,
          "time": 143.777634,
          "velocity": 0.6692913385826772
        },
        {
          "duration": 0.22222200000001635,
          "durationTicks": 192,
          "midi": 61,
          "name": "C#4",
          "ticks": 124416,
          "time": 143.999856,
          "velocity": 0.6692913385826772
        },
        {
          "duration": 0.22222200000001635,
          "durationTicks": 192,
          "midi": 49,
          "name": "C#3",
          "ticks": 124416,
          "time": 143.999856,
          "velocity": 0.6692913385826772
        },
        {
          "duration": 0.22222200000001635,
          "durationTicks": 192,
          "midi": 37,
          "name": "C#2",
          "ticks": 124416,
          "time": 143.999856,
          "velocity": 0.6692913385826772
        },
        {
          "duration": 0.22222199999998793,
          "durationTicks": 192,
          "midi": 61,
          "name": "C#4",
          "ticks": 124608,
          "time": 144.222078,
          "velocity": 0.6692913385826772
        },
        {
          "duration": 0.22222199999998793,
          "durationTicks": 192,
          "midi": 49,
          "name": "C#3",
          "ticks": 124608,
          "time": 144.222078,
          "velocity": 0.6692913385826772
        },
        {
          "duration": 0.22222199999998793,
          "durationTicks": 192,
          "midi": 37,
          "name": "C#2",
          "ticks": 124608,
          "time": 144.222078,
          "velocity": 0.6692913385826772
        },
        {
          "duration": 0.11111099999999396,
          "durationTicks": 96,
          "midi": 61,
          "name": "C#4",
          "ticks": 124800,
          "time": 144.4443,
          "velocity": 0.6692913385826772
        },
        {
          "duration": 0.11111099999999396,
          "durationTicks": 96,
          "midi": 49,
          "name": "C#3",
          "ticks": 124800,
          "time": 144.4443,
          "velocity": 0.6692913385826772
        },
        {
          "duration": 0.11111099999999396,
          "durationTicks": 96,
          "midi": 37,
          "name": "C#2",
          "ticks": 124800,
          "time": 144.4443,
          "velocity": 0.6692913385826772
        },
        {
          "duration": 0.11111100000002239,
          "durationTicks": 96,
          "midi": 37,
          "name": "C#2",
          "ticks": 124896,
          "time": 144.555411,
          "velocity": 0.6692913385826772
        },
        {
          "duration": 0.11111100000002239,
          "durationTicks": 96,
          "midi": 49,
          "name": "C#3",
          "ticks": 124896,
          "time": 144.555411,
          "velocity": 0.6692913385826772
        },
        {
          "duration": 0.11111100000002239,
          "durationTicks": 96,
          "midi": 61,
          "name": "C#4",
          "ticks": 124896,
          "time": 144.555411,
          "velocity": 0.6692913385826772
        },
        {
          "duration": 0.11111099999999396,
          "durationTicks": 96,
          "midi": 49,
          "name": "C#3",
          "ticks": 124992,
          "time": 144.66652200000001,
          "velocity": 0.6692913385826772
        },
        {
          "duration": 0.11111099999999396,
          "durationTicks": 96,
          "midi": 37,
          "name": "C#2",
          "ticks": 124992,
          "time": 144.66652200000001,
          "velocity": 0.6692913385826772
        },
        {
          "duration": 0.11111099999999396,
          "durationTicks": 96,
          "midi": 61,
          "name": "C#4",
          "ticks": 124992,
          "time": 144.66652200000001,
          "velocity": 0.6692913385826772
        },
        {
          "duration": 0.3333329999999819,
          "durationTicks": 288,
          "midi": 49,
          "name": "C#3",
          "ticks": 125088,
          "time": 144.777633,
          "velocity": 0.6692913385826772
        },
        {
          "duration": 0.3333329999999819,
          "durationTicks": 288,
          "midi": 61,
          "name": "C#4",
          "ticks": 125088,
          "time": 144.777633,
          "velocity": 0.6692913385826772
        },
        {
          "duration": 0.3333329999999819,
          "durationTicks": 288,
          "midi": 37,
          "name": "C#2",
          "ticks": 125088,
          "time": 144.777633,
          "velocity": 0.6692913385826772
        },
        {
          "duration": 0.22222200000001635,
          "durationTicks": 192,
          "midi": 57,
          "name": "A3",
          "ticks": 125376,
          "time": 145.110966,
          "velocity": 0.6692913385826772
        },
        {
          "duration": 0.22222200000001635,
          "durationTicks": 192,
          "midi": 45,
          "name": "A2",
          "ticks": 125376,
          "time": 145.110966,
          "velocity": 0.6692913385826772
        },
        {
          "duration": 0.22222200000001635,
          "durationTicks": 192,
          "midi": 69,
          "name": "A4",
          "ticks": 125376,
          "time": 145.110966,
          "velocity": 0.6692913385826772
        },
        {
          "duration": 0.22222199999998793,
          "durationTicks": 192,
          "midi": 56,
          "name": "G#3",
          "ticks": 125568,
          "time": 145.333188,
          "velocity": 0.6692913385826772
        },
        {
          "duration": 0.22222199999998793,
          "durationTicks": 192,
          "midi": 68,
          "name": "G#4",
          "ticks": 125568,
          "time": 145.333188,
          "velocity": 0.6692913385826772
        },
        {
          "duration": 0.22222199999998793,
          "durationTicks": 192,
          "midi": 44,
          "name": "G#2",
          "ticks": 125568,
          "time": 145.333188,
          "velocity": 0.6692913385826772
        },
        {
          "duration": 0.4444440000000043,
          "durationTicks": 384,
          "midi": 54,
          "name": "F#3",
          "ticks": 125760,
          "time": 145.55541,
          "velocity": 0.6692913385826772
        },
        {
          "duration": 0.4444440000000043,
          "durationTicks": 384,
          "midi": 66,
          "name": "F#4",
          "ticks": 125760,
          "time": 145.55541,
          "velocity": 0.6692913385826772
        },
        {
          "duration": 0.4444440000000043,
          "durationTicks": 384,
          "midi": 42,
          "name": "F#2",
          "ticks": 125760,
          "time": 145.55541,
          "velocity": 0.6692913385826772
        },
        {
          "duration": 0.22222200000001635,
          "durationTicks": 192,
          "midi": 54,
          "name": "F#3",
          "ticks": 126144,
          "time": 145.999854,
          "velocity": 0.6692913385826772
        },
        {
          "duration": 0.22222200000001635,
          "durationTicks": 192,
          "midi": 42,
          "name": "F#2",
          "ticks": 126144,
          "time": 145.999854,
          "velocity": 0.6692913385826772
        },
        {
          "duration": 0.22222200000001635,
          "durationTicks": 192,
          "midi": 66,
          "name": "F#4",
          "ticks": 126144,
          "time": 145.999854,
          "velocity": 0.6692913385826772
        },
        {
          "duration": 0.11111099999999396,
          "durationTicks": 96,
          "midi": 66,
          "name": "F#4",
          "ticks": 126336,
          "time": 146.22207600000002,
          "velocity": 0.6692913385826772
        },
        {
          "duration": 0.11111099999999396,
          "durationTicks": 96,
          "midi": 54,
          "name": "F#3",
          "ticks": 126336,
          "time": 146.22207600000002,
          "velocity": 0.6692913385826772
        },
        {
          "duration": 0.11111099999999396,
          "durationTicks": 96,
          "midi": 42,
          "name": "F#2",
          "ticks": 126336,
          "time": 146.22207600000002,
          "velocity": 0.6692913385826772
        },
        {
          "duration": 0.11111099999999396,
          "durationTicks": 96,
          "midi": 42,
          "name": "F#2",
          "ticks": 126432,
          "time": 146.333187,
          "velocity": 0.6692913385826772
        },
        {
          "duration": 0.11111099999999396,
          "durationTicks": 96,
          "midi": 54,
          "name": "F#3",
          "ticks": 126432,
          "time": 146.333187,
          "velocity": 0.6692913385826772
        },
        {
          "duration": 0.11111099999999396,
          "durationTicks": 96,
          "midi": 66,
          "name": "F#4",
          "ticks": 126432,
          "time": 146.333187,
          "velocity": 0.6692913385826772
        },
        {
          "duration": 0.11111099999999396,
          "durationTicks": 96,
          "midi": 66,
          "name": "F#4",
          "ticks": 126528,
          "time": 146.444298,
          "velocity": 0.6692913385826772
        },
        {
          "duration": 0.11111099999999396,
          "durationTicks": 96,
          "midi": 54,
          "name": "F#3",
          "ticks": 126528,
          "time": 146.444298,
          "velocity": 0.6692913385826772
        },
        {
          "duration": 0.11111099999999396,
          "durationTicks": 96,
          "midi": 42,
          "name": "F#2",
          "ticks": 126528,
          "time": 146.444298,
          "velocity": 0.6692913385826772
        },
        {
          "duration": 0.22222200000001635,
          "durationTicks": 192,
          "midi": 54,
          "name": "F#3",
          "ticks": 126624,
          "time": 146.555409,
          "velocity": 0.6692913385826772
        },
        {
          "duration": 0.22222200000001635,
          "durationTicks": 192,
          "midi": 42,
          "name": "F#2",
          "ticks": 126624,
          "time": 146.555409,
          "velocity": 0.6692913385826772
        },
        {
          "duration": 0.22222200000001635,
          "durationTicks": 192,
          "midi": 66,
          "name": "F#4",
          "ticks": 126624,
          "time": 146.555409,
          "velocity": 0.6692913385826772
        },
        {
          "duration": 0.22222199999998793,
          "durationTicks": 192,
          "midi": 54,
          "name": "F#3",
          "ticks": 126816,
          "time": 146.777631,
          "velocity": 0.6692913385826772
        },
        {
          "duration": 0.22222199999998793,
          "durationTicks": 192,
          "midi": 66,
          "name": "F#4",
          "ticks": 126816,
          "time": 146.777631,
          "velocity": 0.6692913385826772
        },
        {
          "duration": 0.22222199999998793,
          "durationTicks": 192,
          "midi": 42,
          "name": "F#2",
          "ticks": 126816,
          "time": 146.777631,
          "velocity": 0.6692913385826772
        },
        {
          "duration": 0.11111099999999396,
          "durationTicks": 96,
          "midi": 54,
          "name": "F#3",
          "ticks": 127008,
          "time": 146.999853,
          "velocity": 0.6692913385826772
        },
        {
          "duration": 0.11111099999999396,
          "durationTicks": 96,
          "midi": 42,
          "name": "F#2",
          "ticks": 127008,
          "time": 146.999853,
          "velocity": 0.6692913385826772
        },
        {
          "duration": 0.11111099999999396,
          "durationTicks": 96,
          "midi": 66,
          "name": "F#4",
          "ticks": 127008,
          "time": 146.999853,
          "velocity": 0.6692913385826772
        },
        {
          "duration": 0.22222200000001635,
          "durationTicks": 192,
          "midi": 42,
          "name": "F#2",
          "ticks": 127104,
          "time": 147.110964,
          "velocity": 0.6692913385826772
        },
        {
          "duration": 0.22222200000001635,
          "durationTicks": 192,
          "midi": 54,
          "name": "F#3",
          "ticks": 127104,
          "time": 147.110964,
          "velocity": 0.6692913385826772
        },
        {
          "duration": 0.22222200000001635,
          "durationTicks": 192,
          "midi": 66,
          "name": "F#4",
          "ticks": 127104,
          "time": 147.110964,
          "velocity": 0.6692913385826772
        },
        {
          "duration": 0.22222199999998793,
          "durationTicks": 192,
          "midi": 66,
          "name": "F#4",
          "ticks": 127296,
          "time": 147.333186,
          "velocity": 0.6692913385826772
        },
        {
          "duration": 0.22222199999998793,
          "durationTicks": 192,
          "midi": 54,
          "name": "F#3",
          "ticks": 127296,
          "time": 147.333186,
          "velocity": 0.6692913385826772
        },
        {
          "duration": 0.22222199999998793,
          "durationTicks": 192,
          "midi": 42,
          "name": "F#2",
          "ticks": 127488,
          "time": 147.555408,
          "velocity": 0.6692913385826772
        },
        {
          "duration": 0.22222199999998793,
          "durationTicks": 192,
          "midi": 54,
          "name": "F#3",
          "ticks": 127488,
          "time": 147.555408,
          "velocity": 0.6692913385826772
        },
        {
          "duration": 0.22222199999998793,
          "durationTicks": 192,
          "midi": 66,
          "name": "F#4",
          "ticks": 127488,
          "time": 147.555408,
          "velocity": 0.6692913385826772
        },
        {
          "duration": 0.22222200000001635,
          "durationTicks": 192,
          "midi": 42,
          "name": "F#2",
          "ticks": 127680,
          "time": 147.77763,
          "velocity": 0.6692913385826772
        },
        {
          "duration": 0.22222200000001635,
          "durationTicks": 192,
          "midi": 54,
          "name": "F#3",
          "ticks": 127680,
          "time": 147.77763,
          "velocity": 0.6692913385826772
        },
        {
          "duration": 0.22222200000001635,
          "durationTicks": 192,
          "midi": 66,
          "name": "F#4",
          "ticks": 127680,
          "time": 147.77763,
          "velocity": 0.6692913385826772
        },
        {
          "duration": 0.11111099999999396,
          "durationTicks": 96,
          "midi": 66,
          "name": "F#4",
          "ticks": 127872,
          "time": 147.999852,
          "velocity": 0.6692913385826772
        },
        {
          "duration": 0.11111099999999396,
          "durationTicks": 96,
          "midi": 42,
          "name": "F#2",
          "ticks": 127872,
          "time": 147.999852,
          "velocity": 0.6692913385826772
        },
        {
          "duration": 0.11111099999999396,
          "durationTicks": 96,
          "midi": 54,
          "name": "F#3",
          "ticks": 127872,
          "time": 147.999852,
          "velocity": 0.6692913385826772
        },
        {
          "duration": 0.11111099999999396,
          "durationTicks": 96,
          "midi": 66,
          "name": "F#4",
          "ticks": 127968,
          "time": 148.110963,
          "velocity": 0.6692913385826772
        },
        {
          "duration": 0.11111099999999396,
          "durationTicks": 96,
          "midi": 54,
          "name": "F#3",
          "ticks": 127968,
          "time": 148.110963,
          "velocity": 0.6692913385826772
        },
        {
          "duration": 0.11111099999999396,
          "durationTicks": 96,
          "midi": 42,
          "name": "F#2",
          "ticks": 127968,
          "time": 148.110963,
          "velocity": 0.6692913385826772
        },
        {
          "duration": 0.11111100000002239,
          "durationTicks": 96,
          "midi": 66,
          "name": "F#4",
          "ticks": 128064,
          "time": 148.222074,
          "velocity": 0.6692913385826772
        },
        {
          "duration": 0.11111100000002239,
          "durationTicks": 96,
          "midi": 42,
          "name": "F#2",
          "ticks": 128064,
          "time": 148.222074,
          "velocity": 0.6692913385826772
        },
        {
          "duration": 0.11111100000002239,
          "durationTicks": 96,
          "midi": 54,
          "name": "F#3",
          "ticks": 128064,
          "time": 148.222074,
          "velocity": 0.6692913385826772
        },
        {
          "duration": 0.22222199999998793,
          "durationTicks": 192,
          "midi": 42,
          "name": "F#2",
          "ticks": 128160,
          "time": 148.33318500000001,
          "velocity": 0.6692913385826772
        },
        {
          "duration": 0.22222199999998793,
          "durationTicks": 192,
          "midi": 54,
          "name": "F#3",
          "ticks": 128160,
          "time": 148.33318500000001,
          "velocity": 0.6692913385826772
        },
        {
          "duration": 0.22222199999998793,
          "durationTicks": 192,
          "midi": 66,
          "name": "F#4",
          "ticks": 128160,
          "time": 148.33318500000001,
          "velocity": 0.6692913385826772
        },
        {
          "duration": 0.22222199999998793,
          "durationTicks": 192,
          "midi": 42,
          "name": "F#2",
          "ticks": 128352,
          "time": 148.555407,
          "velocity": 0.6692913385826772
        },
        {
          "duration": 0.22222199999998793,
          "durationTicks": 192,
          "midi": 66,
          "name": "F#4",
          "ticks": 128352,
          "time": 148.555407,
          "velocity": 0.6692913385826772
        },
        {
          "duration": 0.22222199999998793,
          "durationTicks": 192,
          "midi": 54,
          "name": "F#3",
          "ticks": 128352,
          "time": 148.555407,
          "velocity": 0.6692913385826772
        },
        {
          "duration": 0.11111100000002239,
          "durationTicks": 96,
          "midi": 54,
          "name": "F#3",
          "ticks": 128544,
          "time": 148.777629,
          "velocity": 0.6692913385826772
        },
        {
          "duration": 0.11111100000002239,
          "durationTicks": 96,
          "midi": 42,
          "name": "F#2",
          "ticks": 128544,
          "time": 148.777629,
          "velocity": 0.6692913385826772
        },
        {
          "duration": 0.11111100000002239,
          "durationTicks": 96,
          "midi": 66,
          "name": "F#4",
          "ticks": 128544,
          "time": 148.777629,
          "velocity": 0.6692913385826772
        },
        {
          "duration": 0.22222199999998793,
          "durationTicks": 192,
          "midi": 66,
          "name": "F#4",
          "ticks": 128640,
          "time": 148.88874,
          "velocity": 0.6692913385826772
        },
        {
          "duration": 0.22222199999998793,
          "durationTicks": 192,
          "midi": 54,
          "name": "F#3",
          "ticks": 128640,
          "time": 148.88874,
          "velocity": 0.6692913385826772
        },
        {
          "duration": 0.22222199999998793,
          "durationTicks": 192,
          "midi": 42,
          "name": "F#2",
          "ticks": 128640,
          "time": 148.88874,
          "velocity": 0.6692913385826772
        },
        {
          "duration": 0.22222199999998793,
          "durationTicks": 192,
          "midi": 54,
          "name": "F#3",
          "ticks": 128832,
          "time": 149.110962,
          "velocity": 0.6692913385826772
        },
        {
          "duration": 0.22222199999998793,
          "durationTicks": 192,
          "midi": 66,
          "name": "F#4",
          "ticks": 128832,
          "time": 149.110962,
          "velocity": 0.6692913385826772
        },
        {
          "duration": 0.22222200000001635,
          "durationTicks": 192,
          "midi": 64,
          "name": "E4",
          "ticks": 129024,
          "time": 149.333184,
          "velocity": 0.6692913385826772
        },
        {
          "duration": 0.22222200000001635,
          "durationTicks": 192,
          "midi": 52,
          "name": "E3",
          "ticks": 129024,
          "time": 149.333184,
          "velocity": 0.6692913385826772
        },
        {
          "duration": 0.22222200000001635,
          "durationTicks": 192,
          "midi": 40,
          "name": "E2",
          "ticks": 129024,
          "time": 149.333184,
          "velocity": 0.6692913385826772
        },
        {
          "duration": 0.22222199999998793,
          "durationTicks": 192,
          "midi": 52,
          "name": "E3",
          "ticks": 129216,
          "time": 149.555406,
          "velocity": 0.6692913385826772
        },
        {
          "duration": 0.22222199999998793,
          "durationTicks": 192,
          "midi": 64,
          "name": "E4",
          "ticks": 129216,
          "time": 149.555406,
          "velocity": 0.6692913385826772
        },
        {
          "duration": 0.22222199999998793,
          "durationTicks": 192,
          "midi": 40,
          "name": "E2",
          "ticks": 129216,
          "time": 149.555406,
          "velocity": 0.6692913385826772
        },
        {
          "duration": 0.11111100000002239,
          "durationTicks": 96,
          "midi": 64,
          "name": "E4",
          "ticks": 129408,
          "time": 149.777628,
          "velocity": 0.6692913385826772
        },
        {
          "duration": 0.11111100000002239,
          "durationTicks": 96,
          "midi": 52,
          "name": "E3",
          "ticks": 129408,
          "time": 149.777628,
          "velocity": 0.6692913385826772
        },
        {
          "duration": 0.11111100000002239,
          "durationTicks": 96,
          "midi": 40,
          "name": "E2",
          "ticks": 129408,
          "time": 149.777628,
          "velocity": 0.6692913385826772
        },
        {
          "duration": 0.11111099999999396,
          "durationTicks": 96,
          "midi": 40,
          "name": "E2",
          "ticks": 129504,
          "time": 149.88873900000002,
          "velocity": 0.6692913385826772
        },
        {
          "duration": 0.11111099999999396,
          "durationTicks": 96,
          "midi": 52,
          "name": "E3",
          "ticks": 129504,
          "time": 149.88873900000002,
          "velocity": 0.6692913385826772
        },
        {
          "duration": 0.11111099999999396,
          "durationTicks": 96,
          "midi": 64,
          "name": "E4",
          "ticks": 129504,
          "time": 149.88873900000002,
          "velocity": 0.6692913385826772
        },
        {
          "duration": 0.11111099999999396,
          "durationTicks": 96,
          "midi": 40,
          "name": "E2",
          "ticks": 129600,
          "time": 149.99985,
          "velocity": 0.6692913385826772
        },
        {
          "duration": 0.11111099999999396,
          "durationTicks": 96,
          "midi": 52,
          "name": "E3",
          "ticks": 129600,
          "time": 149.99985,
          "velocity": 0.6692913385826772
        },
        {
          "duration": 0.11111099999999396,
          "durationTicks": 96,
          "midi": 64,
          "name": "E4",
          "ticks": 129600,
          "time": 149.99985,
          "velocity": 0.6692913385826772
        },
        {
          "duration": 0.22222199999998793,
          "durationTicks": 192,
          "midi": 40,
          "name": "E2",
          "ticks": 129696,
          "time": 150.110961,
          "velocity": 0.6692913385826772
        },
        {
          "duration": 0.22222199999998793,
          "durationTicks": 192,
          "midi": 64,
          "name": "E4",
          "ticks": 129696,
          "time": 150.110961,
          "velocity": 0.6692913385826772
        },
        {
          "duration": 0.22222199999998793,
          "durationTicks": 192,
          "midi": 52,
          "name": "E3",
          "ticks": 129696,
          "time": 150.110961,
          "velocity": 0.6692913385826772
        },
        {
          "duration": 0.22222200000001635,
          "durationTicks": 192,
          "midi": 64,
          "name": "E4",
          "ticks": 129888,
          "time": 150.333183,
          "velocity": 0.6692913385826772
        },
        {
          "duration": 0.22222200000001635,
          "durationTicks": 192,
          "midi": 52,
          "name": "E3",
          "ticks": 129888,
          "time": 150.333183,
          "velocity": 0.6692913385826772
        },
        {
          "duration": 0.22222200000001635,
          "durationTicks": 192,
          "midi": 40,
          "name": "E2",
          "ticks": 129888,
          "time": 150.333183,
          "velocity": 0.6692913385826772
        },
        {
          "duration": 0.11111099999999396,
          "durationTicks": 96,
          "midi": 40,
          "name": "E2",
          "ticks": 130080,
          "time": 150.555405,
          "velocity": 0.6692913385826772
        },
        {
          "duration": 0.11111099999999396,
          "durationTicks": 96,
          "midi": 52,
          "name": "E3",
          "ticks": 130080,
          "time": 150.555405,
          "velocity": 0.6692913385826772
        },
        {
          "duration": 0.11111099999999396,
          "durationTicks": 96,
          "midi": 64,
          "name": "E4",
          "ticks": 130080,
          "time": 150.555405,
          "velocity": 0.6692913385826772
        },
        {
          "duration": 0.22222199999998793,
          "durationTicks": 192,
          "midi": 52,
          "name": "E3",
          "ticks": 130176,
          "time": 150.666516,
          "velocity": 0.6692913385826772
        },
        {
          "duration": 0.22222199999998793,
          "durationTicks": 192,
          "midi": 64,
          "name": "E4",
          "ticks": 130176,
          "time": 150.666516,
          "velocity": 0.6692913385826772
        },
        {
          "duration": 0.22222199999998793,
          "durationTicks": 192,
          "midi": 40,
          "name": "E2",
          "ticks": 130176,
          "time": 150.666516,
          "velocity": 0.6692913385826772
        },
        {
          "duration": 0.22222200000001635,
          "durationTicks": 192,
          "midi": 52,
          "name": "E3",
          "ticks": 130368,
          "time": 150.888738,
          "velocity": 0.6692913385826772
        },
        {
          "duration": 0.22222200000001635,
          "durationTicks": 192,
          "midi": 64,
          "name": "E4",
          "ticks": 130368,
          "time": 150.888738,
          "velocity": 0.6692913385826772
        },
        {
          "duration": 0.22222199999998793,
          "durationTicks": 192,
          "midi": 39,
          "name": "D#2",
          "ticks": 130560,
          "time": 151.11096,
          "velocity": 0.6692913385826772
        },
        {
          "duration": 0.22222199999998793,
          "durationTicks": 192,
          "midi": 51,
          "name": "D#3",
          "ticks": 130560,
          "time": 151.11096,
          "velocity": 0.6692913385826772
        },
        {
          "duration": 0.22222199999998793,
          "durationTicks": 192,
          "midi": 63,
          "name": "D#4",
          "ticks": 130560,
          "time": 151.11096,
          "velocity": 0.6692913385826772
        },
        {
          "duration": 0.22222200000001635,
          "durationTicks": 192,
          "midi": 51,
          "name": "D#3",
          "ticks": 130752,
          "time": 151.333182,
          "velocity": 0.6692913385826772
        },
        {
          "duration": 0.22222200000001635,
          "durationTicks": 192,
          "midi": 39,
          "name": "D#2",
          "ticks": 130752,
          "time": 151.333182,
          "velocity": 0.6692913385826772
        },
        {
          "duration": 0.22222200000001635,
          "durationTicks": 192,
          "midi": 63,
          "name": "D#4",
          "ticks": 130752,
          "time": 151.333182,
          "velocity": 0.6692913385826772
        },
        {
          "duration": 0.11111099999999396,
          "durationTicks": 96,
          "midi": 39,
          "name": "D#2",
          "ticks": 130944,
          "time": 151.555404,
          "velocity": 0.6692913385826772
        },
        {
          "duration": 0.11111099999999396,
          "durationTicks": 96,
          "midi": 51,
          "name": "D#3",
          "ticks": 130944,
          "time": 151.555404,
          "velocity": 0.6692913385826772
        },
        {
          "duration": 0.11111099999999396,
          "durationTicks": 96,
          "midi": 63,
          "name": "D#4",
          "ticks": 130944,
          "time": 151.555404,
          "velocity": 0.6692913385826772
        },
        {
          "duration": 0.11111099999999396,
          "durationTicks": 96,
          "midi": 63,
          "name": "D#4",
          "ticks": 131040,
          "time": 151.666515,
          "velocity": 0.6692913385826772
        },
        {
          "duration": 0.11111099999999396,
          "durationTicks": 96,
          "midi": 51,
          "name": "D#3",
          "ticks": 131040,
          "time": 151.666515,
          "velocity": 0.6692913385826772
        },
        {
          "duration": 0.11111099999999396,
          "durationTicks": 96,
          "midi": 39,
          "name": "D#2",
          "ticks": 131040,
          "time": 151.666515,
          "velocity": 0.6692913385826772
        },
        {
          "duration": 0.11111099999999396,
          "durationTicks": 96,
          "midi": 63,
          "name": "D#4",
          "ticks": 131136,
          "time": 151.777626,
          "velocity": 0.6692913385826772
        },
        {
          "duration": 0.11111099999999396,
          "durationTicks": 96,
          "midi": 39,
          "name": "D#2",
          "ticks": 131136,
          "time": 151.777626,
          "velocity": 0.6692913385826772
        },
        {
          "duration": 0.11111099999999396,
          "durationTicks": 96,
          "midi": 51,
          "name": "D#3",
          "ticks": 131136,
          "time": 151.777626,
          "velocity": 0.6692913385826772
        },
        {
          "duration": 0.22222200000001635,
          "durationTicks": 192,
          "midi": 63,
          "name": "D#4",
          "ticks": 131232,
          "time": 151.888737,
          "velocity": 0.6692913385826772
        },
        {
          "duration": 0.22222200000001635,
          "durationTicks": 192,
          "midi": 51,
          "name": "D#3",
          "ticks": 131232,
          "time": 151.888737,
          "velocity": 0.6692913385826772
        },
        {
          "duration": 0.22222200000001635,
          "durationTicks": 192,
          "midi": 39,
          "name": "D#2",
          "ticks": 131232,
          "time": 151.888737,
          "velocity": 0.6692913385826772
        },
        {
          "duration": 0.22222199999998793,
          "durationTicks": 192,
          "midi": 39,
          "name": "D#2",
          "ticks": 131424,
          "time": 152.110959,
          "velocity": 0.6692913385826772
        },
        {
          "duration": 0.22222199999998793,
          "durationTicks": 192,
          "midi": 51,
          "name": "D#3",
          "ticks": 131424,
          "time": 152.110959,
          "velocity": 0.6692913385826772
        },
        {
          "duration": 0.22222199999998793,
          "durationTicks": 192,
          "midi": 63,
          "name": "D#4",
          "ticks": 131424,
          "time": 152.110959,
          "velocity": 0.6692913385826772
        },
        {
          "duration": 0.11111099999999396,
          "durationTicks": 96,
          "midi": 51,
          "name": "D#3",
          "ticks": 131616,
          "time": 152.333181,
          "velocity": 0.6692913385826772
        },
        {
          "duration": 0.11111099999999396,
          "durationTicks": 96,
          "midi": 39,
          "name": "D#2",
          "ticks": 131616,
          "time": 152.333181,
          "velocity": 0.6692913385826772
        },
        {
          "duration": 0.11111099999999396,
          "durationTicks": 96,
          "midi": 63,
          "name": "D#4",
          "ticks": 131616,
          "time": 152.333181,
          "velocity": 0.6692913385826772
        },
        {
          "duration": 0.22222200000001635,
          "durationTicks": 192,
          "midi": 39,
          "name": "D#2",
          "ticks": 131712,
          "time": 152.444292,
          "velocity": 0.6692913385826772
        },
        {
          "duration": 0.22222200000001635,
          "durationTicks": 192,
          "midi": 51,
          "name": "D#3",
          "ticks": 131712,
          "time": 152.444292,
          "velocity": 0.6692913385826772
        },
        {
          "duration": 0.22222200000001635,
          "durationTicks": 192,
          "midi": 63,
          "name": "D#4",
          "ticks": 131712,
          "time": 152.444292,
          "velocity": 0.6692913385826772
        },
        {
          "duration": 0.22222199999998793,
          "durationTicks": 192,
          "midi": 51,
          "name": "D#3",
          "ticks": 131904,
          "time": 152.666514,
          "velocity": 0.6692913385826772
        },
        {
          "duration": 0.22222199999998793,
          "durationTicks": 192,
          "midi": 63,
          "name": "D#4",
          "ticks": 131904,
          "time": 152.666514,
          "velocity": 0.6692913385826772
        },
        {
          "duration": 0.22222200000001635,
          "durationTicks": 192,
          "midi": 64,
          "name": "E4",
          "ticks": 132096,
          "time": 152.888736,
          "velocity": 0.6692913385826772
        },
        {
          "duration": 0.22222200000001635,
          "durationTicks": 192,
          "midi": 40,
          "name": "E2",
          "ticks": 132096,
          "time": 152.888736,
          "velocity": 0.6692913385826772
        },
        {
          "duration": 0.22222200000001635,
          "durationTicks": 192,
          "midi": 52,
          "name": "E3",
          "ticks": 132096,
          "time": 152.888736,
          "velocity": 0.6692913385826772
        },
        {
          "duration": 0.22222199999998793,
          "durationTicks": 192,
          "midi": 40,
          "name": "E2",
          "ticks": 132288,
          "time": 153.110958,
          "velocity": 0.6692913385826772
        },
        {
          "duration": 0.22222199999998793,
          "durationTicks": 192,
          "midi": 64,
          "name": "E4",
          "ticks": 132288,
          "time": 153.110958,
          "velocity": 0.6692913385826772
        },
        {
          "duration": 0.22222199999998793,
          "durationTicks": 192,
          "midi": 52,
          "name": "E3",
          "ticks": 132288,
          "time": 153.110958,
          "velocity": 0.6692913385826772
        },
        {
          "duration": 0.11111099999999396,
          "durationTicks": 96,
          "midi": 64,
          "name": "E4",
          "ticks": 132480,
          "time": 153.33318,
          "velocity": 0.6692913385826772
        },
        {
          "duration": 0.11111099999999396,
          "durationTicks": 96,
          "midi": 52,
          "name": "E3",
          "ticks": 132480,
          "time": 153.33318,
          "velocity": 0.6692913385826772
        },
        {
          "duration": 0.11111099999999396,
          "durationTicks": 96,
          "midi": 40,
          "name": "E2",
          "ticks": 132480,
          "time": 153.33318,
          "velocity": 0.6692913385826772
        },
        {
          "duration": 0.11111100000002239,
          "durationTicks": 96,
          "midi": 40,
          "name": "E2",
          "ticks": 132576,
          "time": 153.444291,
          "velocity": 0.6692913385826772
        },
        {
          "duration": 0.11111100000002239,
          "durationTicks": 96,
          "midi": 52,
          "name": "E3",
          "ticks": 132576,
          "time": 153.444291,
          "velocity": 0.6692913385826772
        },
        {
          "duration": 0.11111100000002239,
          "durationTicks": 96,
          "midi": 64,
          "name": "E4",
          "ticks": 132576,
          "time": 153.444291,
          "velocity": 0.6692913385826772
        },
        {
          "duration": 0.11111099999999396,
          "durationTicks": 96,
          "midi": 40,
          "name": "E2",
          "ticks": 132672,
          "time": 153.55540200000002,
          "velocity": 0.6692913385826772
        },
        {
          "duration": 0.11111099999999396,
          "durationTicks": 96,
          "midi": 52,
          "name": "E3",
          "ticks": 132672,
          "time": 153.55540200000002,
          "velocity": 0.6692913385826772
        },
        {
          "duration": 0.11111099999999396,
          "durationTicks": 96,
          "midi": 64,
          "name": "E4",
          "ticks": 132672,
          "time": 153.55540200000002,
          "velocity": 0.6692913385826772
        },
        {
          "duration": 0.22222199999998793,
          "durationTicks": 192,
          "midi": 40,
          "name": "E2",
          "ticks": 132768,
          "time": 153.666513,
          "velocity": 0.6692913385826772
        },
        {
          "duration": 0.22222199999998793,
          "durationTicks": 192,
          "midi": 52,
          "name": "E3",
          "ticks": 132768,
          "time": 153.666513,
          "velocity": 0.6692913385826772
        },
        {
          "duration": 0.22222199999998793,
          "durationTicks": 192,
          "midi": 64,
          "name": "E4",
          "ticks": 132768,
          "time": 153.666513,
          "velocity": 0.6692913385826772
        },
        {
          "duration": 0.22222200000001635,
          "durationTicks": 192,
          "midi": 52,
          "name": "E3",
          "ticks": 132960,
          "time": 153.888735,
          "velocity": 0.6692913385826772
        },
        {
          "duration": 0.22222200000001635,
          "durationTicks": 192,
          "midi": 64,
          "name": "E4",
          "ticks": 132960,
          "time": 153.888735,
          "velocity": 0.6692913385826772
        },
        {
          "duration": 0.22222200000001635,
          "durationTicks": 192,
          "midi": 40,
          "name": "E2",
          "ticks": 132960,
          "time": 153.888735,
          "velocity": 0.6692913385826772
        },
        {
          "duration": 0.11111099999999396,
          "durationTicks": 96,
          "midi": 52,
          "name": "E3",
          "ticks": 133152,
          "time": 154.110957,
          "velocity": 0.6692913385826772
        },
        {
          "duration": 0.11111099999999396,
          "durationTicks": 96,
          "midi": 64,
          "name": "E4",
          "ticks": 133152,
          "time": 154.110957,
          "velocity": 0.6692913385826772
        },
        {
          "duration": 0.11111099999999396,
          "durationTicks": 96,
          "midi": 40,
          "name": "E2",
          "ticks": 133152,
          "time": 154.110957,
          "velocity": 0.6692913385826772
        },
        {
          "duration": 0.22222199999998793,
          "durationTicks": 192,
          "midi": 64,
          "name": "E4",
          "ticks": 133248,
          "time": 154.222068,
          "velocity": 0.6692913385826772
        },
        {
          "duration": 0.22222199999998793,
          "durationTicks": 192,
          "midi": 52,
          "name": "E3",
          "ticks": 133248,
          "time": 154.222068,
          "velocity": 0.6692913385826772
        },
        {
          "duration": 0.22222199999998793,
          "durationTicks": 192,
          "midi": 40,
          "name": "E2",
          "ticks": 133248,
          "time": 154.222068,
          "velocity": 0.6692913385826772
        },
        {
          "duration": 0.22222200000001635,
          "durationTicks": 192,
          "midi": 52,
          "name": "E3",
          "ticks": 133440,
          "time": 154.44429,
          "velocity": 0.6692913385826772
        },
        {
          "duration": 0.22222200000001635,
          "durationTicks": 192,
          "midi": 64,
          "name": "E4",
          "ticks": 133440,
          "time": 154.44429,
          "velocity": 0.6692913385826772
        },
        {
          "duration": 0.22222199999998793,
          "durationTicks": 192,
          "midi": 44,
          "name": "G#2",
          "ticks": 133632,
          "time": 154.666512,
          "velocity": 0.6692913385826772
        },
        {
          "duration": 0.22222199999998793,
          "durationTicks": 192,
          "midi": 56,
          "name": "G#3",
          "ticks": 133632,
          "time": 154.666512,
          "velocity": 0.6692913385826772
        },
        {
          "duration": 0.22222200000001635,
          "durationTicks": 192,
          "midi": 44,
          "name": "G#2",
          "ticks": 133824,
          "time": 154.888734,
          "velocity": 0.6692913385826772
        },
        {
          "duration": 0.22222200000001635,
          "durationTicks": 192,
          "midi": 68,
          "name": "G#4",
          "ticks": 133824,
          "time": 154.888734,
          "velocity": 0.6692913385826772
        },
        {
          "duration": 0.22222200000001635,
          "durationTicks": 192,
          "midi": 56,
          "name": "G#3",
          "ticks": 133824,
          "time": 154.888734,
          "velocity": 0.6692913385826772
        },
        {
          "duration": 0.11111099999999396,
          "durationTicks": 96,
          "midi": 44,
          "name": "G#2",
          "ticks": 134016,
          "time": 155.11095600000002,
          "velocity": 0.6692913385826772
        },
        {
          "duration": 0.11111099999999396,
          "durationTicks": 96,
          "midi": 56,
          "name": "G#3",
          "ticks": 134016,
          "time": 155.11095600000002,
          "velocity": 0.6692913385826772
        },
        {
          "duration": 0.11111099999999396,
          "durationTicks": 96,
          "midi": 68,
          "name": "G#4",
          "ticks": 134016,
          "time": 155.11095600000002,
          "velocity": 0.6692913385826772
        },
        {
          "duration": 0.11111099999999396,
          "durationTicks": 96,
          "midi": 56,
          "name": "G#3",
          "ticks": 134112,
          "time": 155.222067,
          "velocity": 0.6692913385826772
        },
        {
          "duration": 0.11111099999999396,
          "durationTicks": 96,
          "midi": 68,
          "name": "G#4",
          "ticks": 134112,
          "time": 155.222067,
          "velocity": 0.6692913385826772
        },
        {
          "duration": 0.11111099999999396,
          "durationTicks": 96,
          "midi": 44,
          "name": "G#2",
          "ticks": 134112,
          "time": 155.222067,
          "velocity": 0.6692913385826772
        },
        {
          "duration": 0.11111099999999396,
          "durationTicks": 96,
          "midi": 44,
          "name": "G#2",
          "ticks": 134208,
          "time": 155.333178,
          "velocity": 0.6692913385826772
        },
        {
          "duration": 0.11111099999999396,
          "durationTicks": 96,
          "midi": 56,
          "name": "G#3",
          "ticks": 134208,
          "time": 155.333178,
          "velocity": 0.6692913385826772
        },
        {
          "duration": 0.11111099999999396,
          "durationTicks": 96,
          "midi": 68,
          "name": "G#4",
          "ticks": 134208,
          "time": 155.333178,
          "velocity": 0.6692913385826772
        },
        {
          "duration": 0.22222200000001635,
          "durationTicks": 192,
          "midi": 56,
          "name": "G#3",
          "ticks": 134304,
          "time": 155.444289,
          "velocity": 0.6692913385826772
        },
        {
          "duration": 0.22222200000001635,
          "durationTicks": 192,
          "midi": 68,
          "name": "G#4",
          "ticks": 134304,
          "time": 155.444289,
          "velocity": 0.6692913385826772
        },
        {
          "duration": 0.22222200000001635,
          "durationTicks": 192,
          "midi": 44,
          "name": "G#2",
          "ticks": 134304,
          "time": 155.444289,
          "velocity": 0.6692913385826772
        },
        {
          "duration": 0.22222199999998793,
          "durationTicks": 192,
          "midi": 68,
          "name": "G#4",
          "ticks": 134496,
          "time": 155.666511,
          "velocity": 0.6692913385826772
        },
        {
          "duration": 0.22222199999998793,
          "durationTicks": 192,
          "midi": 56,
          "name": "G#3",
          "ticks": 134496,
          "time": 155.666511,
          "velocity": 0.6692913385826772
        },
        {
          "duration": 0.22222199999998793,
          "durationTicks": 192,
          "midi": 44,
          "name": "G#2",
          "ticks": 134496,
          "time": 155.666511,
          "velocity": 0.6692913385826772
        },
        {
          "duration": 0.11111099999999396,
          "durationTicks": 96,
          "midi": 56,
          "name": "G#3",
          "ticks": 134688,
          "time": 155.888733,
          "velocity": 0.6692913385826772
        },
        {
          "duration": 0.11111099999999396,
          "durationTicks": 96,
          "midi": 44,
          "name": "G#2",
          "ticks": 134688,
          "time": 155.888733,
          "velocity": 0.6692913385826772
        },
        {
          "duration": 0.11111099999999396,
          "durationTicks": 96,
          "midi": 68,
          "name": "G#4",
          "ticks": 134688,
          "time": 155.888733,
          "velocity": 0.6692913385826772
        },
        {
          "duration": 0.22222200000001635,
          "durationTicks": 192,
          "midi": 44,
          "name": "G#2",
          "ticks": 134784,
          "time": 155.999844,
          "velocity": 0.6692913385826772
        },
        {
          "duration": 0.22222200000001635,
          "durationTicks": 192,
          "midi": 56,
          "name": "G#3",
          "ticks": 134784,
          "time": 155.999844,
          "velocity": 0.6692913385826772
        },
        {
          "duration": 0.22222200000001635,
          "durationTicks": 192,
          "midi": 68,
          "name": "G#4",
          "ticks": 134784,
          "time": 155.999844,
          "velocity": 0.6692913385826772
        },
        {
          "duration": 0.22222199999998793,
          "durationTicks": 192,
          "midi": 56,
          "name": "G#3",
          "ticks": 134976,
          "time": 156.222066,
          "velocity": 0.6692913385826772
        },
        {
          "duration": 0.22222199999998793,
          "durationTicks": 192,
          "midi": 68,
          "name": "G#4",
          "ticks": 134976,
          "time": 156.222066,
          "velocity": 0.6692913385826772
        },
        {
          "duration": 0.22222199999998793,
          "durationTicks": 192,
          "midi": 72,
          "name": "C5",
          "ticks": 134976,
          "time": 156.222066,
          "velocity": 0.6692913385826772
        },
        {
          "duration": 0.22222199999998793,
          "durationTicks": 192,
          "midi": 72,
          "name": "C5",
          "ticks": 135168,
          "time": 156.444288,
          "velocity": 0.6692913385826772
        },
        {
          "duration": 0.22222199999998793,
          "durationTicks": 192,
          "midi": 60,
          "name": "C4",
          "ticks": 135168,
          "time": 156.444288,
          "velocity": 0.6692913385826772
        },
        {
          "duration": 0.22222199999998793,
          "durationTicks": 192,
          "midi": 48,
          "name": "C3",
          "ticks": 135168,
          "time": 156.444288,
          "velocity": 0.6692913385826772
        },
        {
          "duration": 0.22222200000001635,
          "durationTicks": 192,
          "midi": 72,
          "name": "C5",
          "ticks": 135360,
          "time": 156.66651,
          "velocity": 0.6692913385826772
        },
        {
          "duration": 0.22222200000001635,
          "durationTicks": 192,
          "midi": 48,
          "name": "C3",
          "ticks": 135360,
          "time": 156.66651,
          "velocity": 0.6692913385826772
        },
        {
          "duration": 0.22222200000001635,
          "durationTicks": 192,
          "midi": 60,
          "name": "C4",
          "ticks": 135360,
          "time": 156.66651,
          "velocity": 0.6692913385826772
        },
        {
          "duration": 0.11111099999999396,
          "durationTicks": 96,
          "midi": 48,
          "name": "C3",
          "ticks": 135552,
          "time": 156.888732,
          "velocity": 0.6692913385826772
        },
        {
          "duration": 0.11111099999999396,
          "durationTicks": 96,
          "midi": 60,
          "name": "C4",
          "ticks": 135552,
          "time": 156.888732,
          "velocity": 0.6692913385826772
        },
        {
          "duration": 0.11111099999999396,
          "durationTicks": 96,
          "midi": 72,
          "name": "C5",
          "ticks": 135552,
          "time": 156.888732,
          "velocity": 0.6692913385826772
        },
        {
          "duration": 0.11111099999999396,
          "durationTicks": 96,
          "midi": 48,
          "name": "C3",
          "ticks": 135648,
          "time": 156.999843,
          "velocity": 0.6692913385826772
        },
        {
          "duration": 0.11111099999999396,
          "durationTicks": 96,
          "midi": 60,
          "name": "C4",
          "ticks": 135648,
          "time": 156.999843,
          "velocity": 0.6692913385826772
        },
        {
          "duration": 0.11111099999999396,
          "durationTicks": 96,
          "midi": 72,
          "name": "C5",
          "ticks": 135648,
          "time": 156.999843,
          "velocity": 0.6692913385826772
        },
        {
          "duration": 0.11111100000002239,
          "durationTicks": 96,
          "midi": 72,
          "name": "C5",
          "ticks": 135744,
          "time": 157.110954,
          "velocity": 0.6692913385826772
        },
        {
          "duration": 0.11111100000002239,
          "durationTicks": 96,
          "midi": 60,
          "name": "C4",
          "ticks": 135744,
          "time": 157.110954,
          "velocity": 0.6692913385826772
        },
        {
          "duration": 0.11111100000002239,
          "durationTicks": 96,
          "midi": 48,
          "name": "C3",
          "ticks": 135744,
          "time": 157.110954,
          "velocity": 0.6692913385826772
        },
        {
          "duration": 0.22222199999998793,
          "durationTicks": 192,
          "midi": 48,
          "name": "C3",
          "ticks": 135840,
          "time": 157.22206500000001,
          "velocity": 0.6692913385826772
        },
        {
          "duration": 0.22222199999998793,
          "durationTicks": 192,
          "midi": 60,
          "name": "C4",
          "ticks": 135840,
          "time": 157.22206500000001,
          "velocity": 0.6692913385826772
        },
        {
          "duration": 0.22222199999998793,
          "durationTicks": 192,
          "midi": 72,
          "name": "C5",
          "ticks": 135840,
          "time": 157.22206500000001,
          "velocity": 0.6692913385826772
        },
        {
          "duration": 0.22222199999998793,
          "durationTicks": 192,
          "midi": 60,
          "name": "C4",
          "ticks": 136032,
          "time": 157.444287,
          "velocity": 0.6692913385826772
        },
        {
          "duration": 0.22222199999998793,
          "durationTicks": 192,
          "midi": 48,
          "name": "C3",
          "ticks": 136032,
          "time": 157.444287,
          "velocity": 0.6692913385826772
        },
        {
          "duration": 0.22222199999998793,
          "durationTicks": 192,
          "midi": 72,
          "name": "C5",
          "ticks": 136032,
          "time": 157.444287,
          "velocity": 0.6692913385826772
        },
        {
          "duration": 0.11111100000002239,
          "durationTicks": 96,
          "midi": 72,
          "name": "C5",
          "ticks": 136224,
          "time": 157.666509,
          "velocity": 0.6692913385826772
        },
        {
          "duration": 0.11111100000002239,
          "durationTicks": 96,
          "midi": 48,
          "name": "C3",
          "ticks": 136224,
          "time": 157.666509,
          "velocity": 0.6692913385826772
        },
        {
          "duration": 0.11111100000002239,
          "durationTicks": 96,
          "midi": 60,
          "name": "C4",
          "ticks": 136224,
          "time": 157.666509,
          "velocity": 0.6692913385826772
        },
        {
          "duration": 0.22222199999998793,
          "durationTicks": 192,
          "midi": 60,
          "name": "C4",
          "ticks": 136320,
          "time": 157.77762,
          "velocity": 0.6692913385826772
        },
        {
          "duration": 0.22222199999998793,
          "durationTicks": 192,
          "midi": 72,
          "name": "C5",
          "ticks": 136320,
          "time": 157.77762,
          "velocity": 0.6692913385826772
        },
        {
          "duration": 0.22222199999998793,
          "durationTicks": 192,
          "midi": 48,
          "name": "C3",
          "ticks": 136320,
          "time": 157.77762,
          "velocity": 0.6692913385826772
        },
        {
          "duration": 0.22222199999998793,
          "durationTicks": 192,
          "midi": 72,
          "name": "C5",
          "ticks": 136512,
          "time": 157.999842,
          "velocity": 0.6692913385826772
        },
        {
          "duration": 0.22222199999998793,
          "durationTicks": 192,
          "midi": 84,
          "name": "C6",
          "ticks": 136512,
          "time": 157.999842,
          "velocity": 0.6692913385826772
        },
        {
          "duration": 0.22222199999998793,
          "durationTicks": 192,
          "midi": 60,
          "name": "C4",
          "ticks": 136512,
          "time": 157.999842,
          "velocity": 0.6692913385826772
        },
        {
          "duration": 1.2222210000000189,
          "durationTicks": 1056,
          "midi": 61,
          "name": "C#4",
          "ticks": 136704,
          "time": 158.222064,
          "velocity": 0.6692913385826772
        },
        {
          "duration": 1.2222210000000189,
          "durationTicks": 1056,
          "midi": 73,
          "name": "C#5",
          "ticks": 136704,
          "time": 158.222064,
          "velocity": 0.6692913385826772
        },
        {
          "duration": 0.4444440000000043,
          "durationTicks": 384,
          "midi": 60,
          "name": "C4",
          "ticks": 137856,
          "time": 159.555396,
          "velocity": 0.6692913385826772
        },
        {
          "duration": 0.4444440000000043,
          "durationTicks": 384,
          "midi": 72,
          "name": "C5",
          "ticks": 137856,
          "time": 159.555396,
          "velocity": 0.6692913385826772
        },
        {
          "duration": 0.22222199999998793,
          "durationTicks": 192,
          "midi": 57,
          "name": "A3",
          "ticks": 138240,
          "time": 159.99984,
          "velocity": 0.6692913385826772
        },
        {
          "duration": 0.22222199999998793,
          "durationTicks": 192,
          "midi": 69,
          "name": "A4",
          "ticks": 138240,
          "time": 159.99984,
          "velocity": 0.6692913385826772
        },
        {
          "duration": 0.22222199999998793,
          "durationTicks": 192,
          "midi": 45,
          "name": "A2",
          "ticks": 138240,
          "time": 159.99984,
          "velocity": 0.6692913385826772
        },
        {
          "duration": 0.22222200000001635,
          "durationTicks": 192,
          "midi": 45,
          "name": "A2",
          "ticks": 138432,
          "time": 160.222062,
          "velocity": 0.6692913385826772
        },
        {
          "duration": 0.22222200000001635,
          "durationTicks": 192,
          "midi": 57,
          "name": "A3",
          "ticks": 138432,
          "time": 160.222062,
          "velocity": 0.6692913385826772
        },
        {
          "duration": 0.22222200000001635,
          "durationTicks": 192,
          "midi": 69,
          "name": "A4",
          "ticks": 138432,
          "time": 160.222062,
          "velocity": 0.6692913385826772
        },
        {
          "duration": 0.11111099999999396,
          "durationTicks": 96,
          "midi": 57,
          "name": "A3",
          "ticks": 138624,
          "time": 160.444284,
          "velocity": 0.6692913385826772
        },
        {
          "duration": 0.11111099999999396,
          "durationTicks": 96,
          "midi": 45,
          "name": "A2",
          "ticks": 138624,
          "time": 160.444284,
          "velocity": 0.6692913385826772
        },
        {
          "duration": 0.11111099999999396,
          "durationTicks": 96,
          "midi": 69,
          "name": "A4",
          "ticks": 138624,
          "time": 160.444284,
          "velocity": 0.6692913385826772
        },
        {
          "duration": 0.11111099999999396,
          "durationTicks": 96,
          "midi": 69,
          "name": "A4",
          "ticks": 138720,
          "time": 160.555395,
          "velocity": 0.6692913385826772
        },
        {
          "duration": 0.11111099999999396,
          "durationTicks": 96,
          "midi": 45,
          "name": "A2",
          "ticks": 138720,
          "time": 160.555395,
          "velocity": 0.6692913385826772
        },
        {
          "duration": 0.11111099999999396,
          "durationTicks": 96,
          "midi": 57,
          "name": "A3",
          "ticks": 138720,
          "time": 160.555395,
          "velocity": 0.6692913385826772
        },
        {
          "duration": 0.11111099999999396,
          "durationTicks": 96,
          "midi": 45,
          "name": "A2",
          "ticks": 138816,
          "time": 160.666506,
          "velocity": 0.6692913385826772
        },
        {
          "duration": 0.11111099999999396,
          "durationTicks": 96,
          "midi": 69,
          "name": "A4",
          "ticks": 138816,
          "time": 160.666506,
          "velocity": 0.6692913385826772
        },
        {
          "duration": 0.11111099999999396,
          "durationTicks": 96,
          "midi": 57,
          "name": "A3",
          "ticks": 138816,
          "time": 160.666506,
          "velocity": 0.6692913385826772
        },
        {
          "duration": 0.22222200000001635,
          "durationTicks": 192,
          "midi": 57,
          "name": "A3",
          "ticks": 138912,
          "time": 160.777617,
          "velocity": 0.6692913385826772
        },
        {
          "duration": 0.22222200000001635,
          "durationTicks": 192,
          "midi": 69,
          "name": "A4",
          "ticks": 138912,
          "time": 160.777617,
          "velocity": 0.6692913385826772
        },
        {
          "duration": 0.22222200000001635,
          "durationTicks": 192,
          "midi": 45,
          "name": "A2",
          "ticks": 138912,
          "time": 160.777617,
          "velocity": 0.6692913385826772
        },
        {
          "duration": 0.22222199999998793,
          "durationTicks": 192,
          "midi": 57,
          "name": "A3",
          "ticks": 139104,
          "time": 160.999839,
          "velocity": 0.6692913385826772
        },
        {
          "duration": 0.22222199999998793,
          "durationTicks": 192,
          "midi": 45,
          "name": "A2",
          "ticks": 139104,
          "time": 160.999839,
          "velocity": 0.6692913385826772
        },
        {
          "duration": 0.22222199999998793,
          "durationTicks": 192,
          "midi": 69,
          "name": "A4",
          "ticks": 139104,
          "time": 160.999839,
          "velocity": 0.6692913385826772
        },
        {
          "duration": 0.11111099999999396,
          "durationTicks": 96,
          "midi": 69,
          "name": "A4",
          "ticks": 139296,
          "time": 161.222061,
          "velocity": 0.6692913385826772
        },
        {
          "duration": 0.11111099999999396,
          "durationTicks": 96,
          "midi": 45,
          "name": "A2",
          "ticks": 139296,
          "time": 161.222061,
          "velocity": 0.6692913385826772
        },
        {
          "duration": 0.11111099999999396,
          "durationTicks": 96,
          "midi": 57,
          "name": "A3",
          "ticks": 139296,
          "time": 161.222061,
          "velocity": 0.6692913385826772
        },
        {
          "duration": 0.22222200000001635,
          "durationTicks": 192,
          "midi": 69,
          "name": "A4",
          "ticks": 139392,
          "time": 161.333172,
          "velocity": 0.6692913385826772
        },
        {
          "duration": 0.22222200000001635,
          "durationTicks": 192,
          "midi": 57,
          "name": "A3",
          "ticks": 139392,
          "time": 161.333172,
          "velocity": 0.6692913385826772
        },
        {
          "duration": 0.22222200000001635,
          "durationTicks": 192,
          "midi": 45,
          "name": "A2",
          "ticks": 139392,
          "time": 161.333172,
          "velocity": 0.6692913385826772
        },
        {
          "duration": 0.22222199999998793,
          "durationTicks": 192,
          "midi": 81,
          "name": "A5",
          "ticks": 139584,
          "time": 161.555394,
          "velocity": 0.6692913385826772
        },
        {
          "duration": 0.22222199999998793,
          "durationTicks": 192,
          "midi": 57,
          "name": "A3",
          "ticks": 139584,
          "time": 161.555394,
          "velocity": 0.6692913385826772
        },
        {
          "duration": 0.22222199999998793,
          "durationTicks": 192,
          "midi": 69,
          "name": "A4",
          "ticks": 139584,
          "time": 161.555394,
          "velocity": 0.6692913385826772
        },
        {
          "duration": 0.22222200000001635,
          "durationTicks": 192,
          "midi": 59,
          "name": "B3",
          "ticks": 139776,
          "time": 161.777616,
          "velocity": 0.6692913385826772
        },
        {
          "duration": 0.22222200000001635,
          "durationTicks": 192,
          "midi": 47,
          "name": "B2",
          "ticks": 139776,
          "time": 161.777616,
          "velocity": 0.6692913385826772
        },
        {
          "duration": 0.22222200000001635,
          "durationTicks": 192,
          "midi": 71,
          "name": "B4",
          "ticks": 139776,
          "time": 161.777616,
          "velocity": 0.6692913385826772
        },
        {
          "duration": 0.22222199999998793,
          "durationTicks": 192,
          "midi": 47,
          "name": "B2",
          "ticks": 139968,
          "time": 161.999838,
          "velocity": 0.6692913385826772
        },
        {
          "duration": 0.22222199999998793,
          "durationTicks": 192,
          "midi": 71,
          "name": "B4",
          "ticks": 139968,
          "time": 161.999838,
          "velocity": 0.6692913385826772
        },
        {
          "duration": 0.22222199999998793,
          "durationTicks": 192,
          "midi": 59,
          "name": "B3",
          "ticks": 139968,
          "time": 161.999838,
          "velocity": 0.6692913385826772
        },
        {
          "duration": 0.11111099999999396,
          "durationTicks": 96,
          "midi": 59,
          "name": "B3",
          "ticks": 140160,
          "time": 162.22206,
          "velocity": 0.6692913385826772
        },
        {
          "duration": 0.11111099999999396,
          "durationTicks": 96,
          "midi": 71,
          "name": "B4",
          "ticks": 140160,
          "time": 162.22206,
          "velocity": 0.6692913385826772
        },
        {
          "duration": 0.11111099999999396,
          "durationTicks": 96,
          "midi": 47,
          "name": "B2",
          "ticks": 140160,
          "time": 162.22206,
          "velocity": 0.6692913385826772
        },
        {
          "duration": 0.11111100000002239,
          "durationTicks": 96,
          "midi": 47,
          "name": "B2",
          "ticks": 140256,
          "time": 162.333171,
          "velocity": 0.6692913385826772
        },
        {
          "duration": 0.11111100000002239,
          "durationTicks": 96,
          "midi": 59,
          "name": "B3",
          "ticks": 140256,
          "time": 162.333171,
          "velocity": 0.6692913385826772
        },
        {
          "duration": 0.11111100000002239,
          "durationTicks": 96,
          "midi": 71,
          "name": "B4",
          "ticks": 140256,
          "time": 162.333171,
          "velocity": 0.6692913385826772
        },
        {
          "duration": 0.11111099999999396,
          "durationTicks": 96,
          "midi": 59,
          "name": "B3",
          "ticks": 140352,
          "time": 162.44428200000002,
          "velocity": 0.6692913385826772
        },
        {
          "duration": 0.11111099999999396,
          "durationTicks": 96,
          "midi": 47,
          "name": "B2",
          "ticks": 140352,
          "time": 162.44428200000002,
          "velocity": 0.6692913385826772
        },
        {
          "duration": 0.11111099999999396,
          "durationTicks": 96,
          "midi": 71,
          "name": "B4",
          "ticks": 140352,
          "time": 162.44428200000002,
          "velocity": 0.6692913385826772
        },
        {
          "duration": 0.22222199999998793,
          "durationTicks": 192,
          "midi": 47,
          "name": "B2",
          "ticks": 140448,
          "time": 162.555393,
          "velocity": 0.6692913385826772
        },
        {
          "duration": 0.22222199999998793,
          "durationTicks": 192,
          "midi": 59,
          "name": "B3",
          "ticks": 140448,
          "time": 162.555393,
          "velocity": 0.6692913385826772
        },
        {
          "duration": 0.22222199999998793,
          "durationTicks": 192,
          "midi": 71,
          "name": "B4",
          "ticks": 140448,
          "time": 162.555393,
          "velocity": 0.6692913385826772
        },
        {
          "duration": 0.22222200000001635,
          "durationTicks": 192,
          "midi": 47,
          "name": "B2",
          "ticks": 140640,
          "time": 162.777615,
          "velocity": 0.6692913385826772
        },
        {
          "duration": 0.22222200000001635,
          "durationTicks": 192,
          "midi": 59,
          "name": "B3",
          "ticks": 140640,
          "time": 162.777615,
          "velocity": 0.6692913385826772
        },
        {
          "duration": 0.22222200000001635,
          "durationTicks": 192,
          "midi": 71,
          "name": "B4",
          "ticks": 140640,
          "time": 162.777615,
          "velocity": 0.6692913385826772
        },
        {
          "duration": 0.11111099999999396,
          "durationTicks": 96,
          "midi": 59,
          "name": "B3",
          "ticks": 140832,
          "time": 162.999837,
          "velocity": 0.6692913385826772
        },
        {
          "duration": 0.11111099999999396,
          "durationTicks": 96,
          "midi": 71,
          "name": "B4",
          "ticks": 140832,
          "time": 162.999837,
          "velocity": 0.6692913385826772
        },
        {
          "duration": 0.11111099999999396,
          "durationTicks": 96,
          "midi": 47,
          "name": "B2",
          "ticks": 140832,
          "time": 162.999837,
          "velocity": 0.6692913385826772
        },
        {
          "duration": 0.22222199999998793,
          "durationTicks": 192,
          "midi": 59,
          "name": "B3",
          "ticks": 140928,
          "time": 163.110948,
          "velocity": 0.6692913385826772
        },
        {
          "duration": 0.22222199999998793,
          "durationTicks": 192,
          "midi": 71,
          "name": "B4",
          "ticks": 140928,
          "time": 163.110948,
          "velocity": 0.6692913385826772
        },
        {
          "duration": 0.22222199999998793,
          "durationTicks": 192,
          "midi": 47,
          "name": "B2",
          "ticks": 140928,
          "time": 163.110948,
          "velocity": 0.6692913385826772
        },
        {
          "duration": 0.22222200000001635,
          "durationTicks": 192,
          "midi": 59,
          "name": "B3",
          "ticks": 141120,
          "time": 163.33317,
          "velocity": 0.6692913385826772
        },
        {
          "duration": 0.22222200000001635,
          "durationTicks": 192,
          "midi": 71,
          "name": "B4",
          "ticks": 141120,
          "time": 163.33317,
          "velocity": 0.6692913385826772
        },
        {
          "duration": 0.22222200000001635,
          "durationTicks": 192,
          "midi": 83,
          "name": "B5",
          "ticks": 141120,
          "time": 163.33317,
          "velocity": 0.6692913385826772
        },
        {
          "duration": 0.22222199999998793,
          "durationTicks": 192,
          "midi": 61,
          "name": "C#4",
          "ticks": 141312,
          "time": 163.555392,
          "velocity": 0.6692913385826772
        },
        {
          "duration": 0.22222199999998793,
          "durationTicks": 192,
          "midi": 73,
          "name": "C#5",
          "ticks": 141312,
          "time": 163.555392,
          "velocity": 0.6692913385826772
        },
        {
          "duration": 0.22222199999998793,
          "durationTicks": 192,
          "midi": 49,
          "name": "C#3",
          "ticks": 141312,
          "time": 163.555392,
          "velocity": 0.6692913385826772
        },
        {
          "duration": 0.22222200000001635,
          "durationTicks": 192,
          "midi": 73,
          "name": "C#5",
          "ticks": 141504,
          "time": 163.777614,
          "velocity": 0.6692913385826772
        },
        {
          "duration": 0.22222200000001635,
          "durationTicks": 192,
          "midi": 49,
          "name": "C#3",
          "ticks": 141504,
          "time": 163.777614,
          "velocity": 0.6692913385826772
        },
        {
          "duration": 0.22222200000001635,
          "durationTicks": 192,
          "midi": 61,
          "name": "C#4",
          "ticks": 141504,
          "time": 163.777614,
          "velocity": 0.6692913385826772
        },
        {
          "duration": 0.11111099999999396,
          "durationTicks": 96,
          "midi": 61,
          "name": "C#4",
          "ticks": 141696,
          "time": 163.99983600000002,
          "velocity": 0.6692913385826772
        },
        {
          "duration": 0.11111099999999396,
          "durationTicks": 96,
          "midi": 49,
          "name": "C#3",
          "ticks": 141696,
          "time": 163.99983600000002,
          "velocity": 0.6692913385826772
        },
        {
          "duration": 0.11111099999999396,
          "durationTicks": 96,
          "midi": 73,
          "name": "C#5",
          "ticks": 141696,
          "time": 163.99983600000002,
          "velocity": 0.6692913385826772
        },
        {
          "duration": 0.11111099999999396,
          "durationTicks": 96,
          "midi": 73,
          "name": "C#5",
          "ticks": 141792,
          "time": 164.110947,
          "velocity": 0.6692913385826772
        },
        {
          "duration": 0.11111099999999396,
          "durationTicks": 96,
          "midi": 61,
          "name": "C#4",
          "ticks": 141792,
          "time": 164.110947,
          "velocity": 0.6692913385826772
        },
        {
          "duration": 0.11111099999999396,
          "durationTicks": 96,
          "midi": 49,
          "name": "C#3",
          "ticks": 141792,
          "time": 164.110947,
          "velocity": 0.6692913385826772
        },
        {
          "duration": 0.11111099999999396,
          "durationTicks": 96,
          "midi": 49,
          "name": "C#3",
          "ticks": 141888,
          "time": 164.222058,
          "velocity": 0.6692913385826772
        },
        {
          "duration": 0.11111099999999396,
          "durationTicks": 96,
          "midi": 61,
          "name": "C#4",
          "ticks": 141888,
          "time": 164.222058,
          "velocity": 0.6692913385826772
        },
        {
          "duration": 0.11111099999999396,
          "durationTicks": 96,
          "midi": 73,
          "name": "C#5",
          "ticks": 141888,
          "time": 164.222058,
          "velocity": 0.6692913385826772
        },
        {
          "duration": 0.22222200000001635,
          "durationTicks": 192,
          "midi": 72,
          "name": "C5",
          "ticks": 141984,
          "time": 164.333169,
          "velocity": 0.6692913385826772
        },
        {
          "duration": 0.22222200000001635,
          "durationTicks": 192,
          "midi": 60,
          "name": "C4",
          "ticks": 141984,
          "time": 164.333169,
          "velocity": 0.6692913385826772
        },
        {
          "duration": 0.22222200000001635,
          "durationTicks": 192,
          "midi": 48,
          "name": "C3",
          "ticks": 141984,
          "time": 164.333169,
          "velocity": 0.6692913385826772
        },
        {
          "duration": 0.22222199999998793,
          "durationTicks": 192,
          "midi": 48,
          "name": "C3",
          "ticks": 142176,
          "time": 164.55539100000001,
          "velocity": 0.6692913385826772
        },
        {
          "duration": 0.22222199999998793,
          "durationTicks": 192,
          "midi": 60,
          "name": "C4",
          "ticks": 142176,
          "time": 164.55539100000001,
          "velocity": 0.6692913385826772
        },
        {
          "duration": 0.22222199999998793,
          "durationTicks": 192,
          "midi": 72,
          "name": "C5",
          "ticks": 142176,
          "time": 164.55539100000001,
          "velocity": 0.6692913385826772
        },
        {
          "duration": 0.11111099999999396,
          "durationTicks": 96,
          "midi": 60,
          "name": "C4",
          "ticks": 142368,
          "time": 164.777613,
          "velocity": 0.6692913385826772
        },
        {
          "duration": 0.11111099999999396,
          "durationTicks": 96,
          "midi": 48,
          "name": "C3",
          "ticks": 142368,
          "time": 164.777613,
          "velocity": 0.6692913385826772
        },
        {
          "duration": 0.11111099999999396,
          "durationTicks": 96,
          "midi": 72,
          "name": "C5",
          "ticks": 142368,
          "time": 164.777613,
          "velocity": 0.6692913385826772
        },
        {
          "duration": 0.22222200000001635,
          "durationTicks": 192,
          "midi": 72,
          "name": "C5",
          "ticks": 142464,
          "time": 164.888724,
          "velocity": 0.6692913385826772
        },
        {
          "duration": 0.22222200000001635,
          "durationTicks": 192,
          "midi": 60,
          "name": "C4",
          "ticks": 142464,
          "time": 164.888724,
          "velocity": 0.6692913385826772
        },
        {
          "duration": 0.22222200000001635,
          "durationTicks": 192,
          "midi": 48,
          "name": "C3",
          "ticks": 142464,
          "time": 164.888724,
          "velocity": 0.6692913385826772
        },
        {
          "duration": 0.22222199999998793,
          "durationTicks": 192,
          "midi": 84,
          "name": "C6",
          "ticks": 142656,
          "time": 165.110946,
          "velocity": 0.6692913385826772
        },
        {
          "duration": 0.22222199999998793,
          "durationTicks": 192,
          "midi": 72,
          "name": "C5",
          "ticks": 142656,
          "time": 165.110946,
          "velocity": 0.6692913385826772
        },
        {
          "duration": 0.22222199999998793,
          "durationTicks": 192,
          "midi": 60,
          "name": "C4",
          "ticks": 142656,
          "time": 165.110946,
          "velocity": 0.6692913385826772
        },
        {
          "duration": 0.22222199999998793,
          "durationTicks": 192,
          "midi": 71,
          "name": "B4",
          "ticks": 142848,
          "time": 165.333168,
          "velocity": 0.6692913385826772
        },
        {
          "duration": 0.22222199999998793,
          "durationTicks": 192,
          "midi": 47,
          "name": "B2",
          "ticks": 142848,
          "time": 165.333168,
          "velocity": 0.6692913385826772
        },
        {
          "duration": 0.22222199999998793,
          "durationTicks": 192,
          "midi": 59,
          "name": "B3",
          "ticks": 142848,
          "time": 165.333168,
          "velocity": 0.6692913385826772
        },
        {
          "duration": 0.22222200000001635,
          "durationTicks": 192,
          "midi": 47,
          "name": "B2",
          "ticks": 143040,
          "time": 165.55539,
          "velocity": 0.6692913385826772
        },
        {
          "duration": 0.22222200000001635,
          "durationTicks": 192,
          "midi": 59,
          "name": "B3",
          "ticks": 143040,
          "time": 165.55539,
          "velocity": 0.6692913385826772
        },
        {
          "duration": 0.22222200000001635,
          "durationTicks": 192,
          "midi": 71,
          "name": "B4",
          "ticks": 143040,
          "time": 165.55539,
          "velocity": 0.6692913385826772
        },
        {
          "duration": 0.11111099999999396,
          "durationTicks": 96,
          "midi": 47,
          "name": "B2",
          "ticks": 143232,
          "time": 165.777612,
          "velocity": 0.6692913385826772
        },
        {
          "duration": 0.11111099999999396,
          "durationTicks": 96,
          "midi": 59,
          "name": "B3",
          "ticks": 143232,
          "time": 165.777612,
          "velocity": 0.6692913385826772
        },
        {
          "duration": 0.11111099999999396,
          "durationTicks": 96,
          "midi": 71,
          "name": "B4",
          "ticks": 143232,
          "time": 165.777612,
          "velocity": 0.6692913385826772
        },
        {
          "duration": 0.11111099999999396,
          "durationTicks": 96,
          "midi": 59,
          "name": "B3",
          "ticks": 143328,
          "time": 165.888723,
          "velocity": 0.6692913385826772
        },
        {
          "duration": 0.11111099999999396,
          "durationTicks": 96,
          "midi": 71,
          "name": "B4",
          "ticks": 143328,
          "time": 165.888723,
          "velocity": 0.6692913385826772
        },
        {
          "duration": 0.11111099999999396,
          "durationTicks": 96,
          "midi": 47,
          "name": "B2",
          "ticks": 143328,
          "time": 165.888723,
          "velocity": 0.6692913385826772
        },
        {
          "duration": 0.11111100000002239,
          "durationTicks": 96,
          "midi": 59,
          "name": "B3",
          "ticks": 143424,
          "time": 165.999834,
          "velocity": 0.6692913385826772
        },
        {
          "duration": 0.11111100000002239,
          "durationTicks": 96,
          "midi": 71,
          "name": "B4",
          "ticks": 143424,
          "time": 165.999834,
          "velocity": 0.6692913385826772
        },
        {
          "duration": 0.11111100000002239,
          "durationTicks": 96,
          "midi": 47,
          "name": "B2",
          "ticks": 143424,
          "time": 165.999834,
          "velocity": 0.6692913385826772
        },
        {
          "duration": 0.22222199999998793,
          "durationTicks": 192,
          "midi": 46,
          "name": "A#2",
          "ticks": 143520,
          "time": 166.11094500000002,
          "velocity": 0.6692913385826772
        },
        {
          "duration": 0.22222199999998793,
          "durationTicks": 192,
          "midi": 70,
          "name": "A#4",
          "ticks": 143520,
          "time": 166.11094500000002,
          "velocity": 0.6692913385826772
        },
        {
          "duration": 0.22222199999998793,
          "durationTicks": 192,
          "midi": 58,
          "name": "A#3",
          "ticks": 143520,
          "time": 166.11094500000002,
          "velocity": 0.6692913385826772
        },
        {
          "duration": 0.22222199999998793,
          "durationTicks": 192,
          "midi": 46,
          "name": "A#2",
          "ticks": 143712,
          "time": 166.333167,
          "velocity": 0.6692913385826772
        },
        {
          "duration": 0.22222199999998793,
          "durationTicks": 192,
          "midi": 58,
          "name": "A#3",
          "ticks": 143712,
          "time": 166.333167,
          "velocity": 0.6692913385826772
        },
        {
          "duration": 0.22222199999998793,
          "durationTicks": 192,
          "midi": 70,
          "name": "A#4",
          "ticks": 143712,
          "time": 166.333167,
          "velocity": 0.6692913385826772
        },
        {
          "duration": 0.11111100000002239,
          "durationTicks": 96,
          "midi": 46,
          "name": "A#2",
          "ticks": 143904,
          "time": 166.555389,
          "velocity": 0.6692913385826772
        },
        {
          "duration": 0.11111100000002239,
          "durationTicks": 96,
          "midi": 58,
          "name": "A#3",
          "ticks": 143904,
          "time": 166.555389,
          "velocity": 0.6692913385826772
        },
        {
          "duration": 0.11111100000002239,
          "durationTicks": 96,
          "midi": 70,
          "name": "A#4",
          "ticks": 143904,
          "time": 166.555389,
          "velocity": 0.6692913385826772
        },
        {
          "duration": 0.22222199999998793,
          "durationTicks": 192,
          "midi": 70,
          "name": "A#4",
          "ticks": 144000,
          "time": 166.6665,
          "velocity": 0.6692913385826772
        },
        {
          "duration": 0.22222199999998793,
          "durationTicks": 192,
          "midi": 46,
          "name": "A#2",
          "ticks": 144000,
          "time": 166.6665,
          "velocity": 0.6692913385826772
        },
        {
          "duration": 0.22222199999998793,
          "durationTicks": 192,
          "midi": 58,
          "name": "A#3",
          "ticks": 144000,
          "time": 166.6665,
          "velocity": 0.6692913385826772
        },
        {
          "duration": 0.22222199999998793,
          "durationTicks": 192,
          "midi": 82,
          "name": "A#5",
          "ticks": 144192,
          "time": 166.888722,
          "velocity": 0.6692913385826772
        },
        {
          "duration": 0.22222199999998793,
          "durationTicks": 192,
          "midi": 70,
          "name": "A#4",
          "ticks": 144192,
          "time": 166.888722,
          "velocity": 0.6692913385826772
        },
        {
          "duration": 0.22222199999998793,
          "durationTicks": 192,
          "midi": 58,
          "name": "A#3",
          "ticks": 144192,
          "time": 166.888722,
          "velocity": 0.6692913385826772
        },
        {
          "duration": 0.22222200000001635,
          "durationTicks": 192,
          "midi": 69,
          "name": "A4",
          "ticks": 144384,
          "time": 167.110944,
          "velocity": 0.6692913385826772
        },
        {
          "duration": 0.22222200000001635,
          "durationTicks": 192,
          "midi": 45,
          "name": "A2",
          "ticks": 144384,
          "time": 167.110944,
          "velocity": 0.6692913385826772
        },
        {
          "duration": 0.22222200000001635,
          "durationTicks": 192,
          "midi": 57,
          "name": "A3",
          "ticks": 144384,
          "time": 167.110944,
          "velocity": 0.6692913385826772
        },
        {
          "duration": 0.22222199999998793,
          "durationTicks": 192,
          "midi": 69,
          "name": "A4",
          "ticks": 144576,
          "time": 167.333166,
          "velocity": 0.6692913385826772
        },
        {
          "duration": 0.22222199999998793,
          "durationTicks": 192,
          "midi": 45,
          "name": "A2",
          "ticks": 144576,
          "time": 167.333166,
          "velocity": 0.6692913385826772
        },
        {
          "duration": 0.22222199999998793,
          "durationTicks": 192,
          "midi": 57,
          "name": "A3",
          "ticks": 144576,
          "time": 167.333166,
          "velocity": 0.6692913385826772
        },
        {
          "duration": 0.11111100000002239,
          "durationTicks": 96,
          "midi": 69,
          "name": "A4",
          "ticks": 144768,
          "time": 167.555388,
          "velocity": 0.6692913385826772
        },
        {
          "duration": 0.11111100000002239,
          "durationTicks": 96,
          "midi": 45,
          "name": "A2",
          "ticks": 144768,
          "time": 167.555388,
          "velocity": 0.6692913385826772
        },
        {
          "duration": 0.11111100000002239,
          "durationTicks": 96,
          "midi": 57,
          "name": "A3",
          "ticks": 144768,
          "time": 167.555388,
          "velocity": 0.6692913385826772
        },
        {
          "duration": 0.11111099999999396,
          "durationTicks": 96,
          "midi": 69,
          "name": "A4",
          "ticks": 144864,
          "time": 167.66649900000002,
          "velocity": 0.6692913385826772
        },
        {
          "duration": 0.11111099999999396,
          "durationTicks": 96,
          "midi": 57,
          "name": "A3",
          "ticks": 144864,
          "time": 167.66649900000002,
          "velocity": 0.6692913385826772
        },
        {
          "duration": 0.11111099999999396,
          "durationTicks": 96,
          "midi": 45,
          "name": "A2",
          "ticks": 144864,
          "time": 167.66649900000002,
          "velocity": 0.6692913385826772
        },
        {
          "duration": 0.11111099999999396,
          "durationTicks": 96,
          "midi": 45,
          "name": "A2",
          "ticks": 144960,
          "time": 167.77761,
          "velocity": 0.6692913385826772
        },
        {
          "duration": 0.11111099999999396,
          "durationTicks": 96,
          "midi": 57,
          "name": "A3",
          "ticks": 144960,
          "time": 167.77761,
          "velocity": 0.6692913385826772
        },
        {
          "duration": 0.11111099999999396,
          "durationTicks": 96,
          "midi": 69,
          "name": "A4",
          "ticks": 144960,
          "time": 167.77761,
          "velocity": 0.6692913385826772
        },
        {
          "duration": 0.22222199999998793,
          "durationTicks": 192,
          "midi": 57,
          "name": "A3",
          "ticks": 145056,
          "time": 167.888721,
          "velocity": 0.6692913385826772
        },
        {
          "duration": 0.22222199999998793,
          "durationTicks": 192,
          "midi": 69,
          "name": "A4",
          "ticks": 145056,
          "time": 167.888721,
          "velocity": 0.6692913385826772
        },
        {
          "duration": 0.22222199999998793,
          "durationTicks": 192,
          "midi": 45,
          "name": "A2",
          "ticks": 145056,
          "time": 167.888721,
          "velocity": 0.6692913385826772
        },
        {
          "duration": 0.22222200000001635,
          "durationTicks": 192,
          "midi": 45,
          "name": "A2",
          "ticks": 145248,
          "time": 168.110943,
          "velocity": 0.6692913385826772
        },
        {
          "duration": 0.22222200000001635,
          "durationTicks": 192,
          "midi": 69,
          "name": "A4",
          "ticks": 145248,
          "time": 168.110943,
          "velocity": 0.6692913385826772
        },
        {
          "duration": 0.22222200000001635,
          "durationTicks": 192,
          "midi": 57,
          "name": "A3",
          "ticks": 145248,
          "time": 168.110943,
          "velocity": 0.6692913385826772
        },
        {
          "duration": 0.11111099999999396,
          "durationTicks": 96,
          "midi": 69,
          "name": "A4",
          "ticks": 145440,
          "time": 168.333165,
          "velocity": 0.6692913385826772
        },
        {
          "duration": 0.11111099999999396,
          "durationTicks": 96,
          "midi": 57,
          "name": "A3",
          "ticks": 145440,
          "time": 168.333165,
          "velocity": 0.6692913385826772
        },
        {
          "duration": 0.11111099999999396,
          "durationTicks": 96,
          "midi": 45,
          "name": "A2",
          "ticks": 145440,
          "time": 168.333165,
          "velocity": 0.6692913385826772
        },
        {
          "duration": 0.22222199999998793,
          "durationTicks": 192,
          "midi": 69,
          "name": "A4",
          "ticks": 145536,
          "time": 168.444276,
          "velocity": 0.6692913385826772
        },
        {
          "duration": 0.22222199999998793,
          "durationTicks": 192,
          "midi": 45,
          "name": "A2",
          "ticks": 145536,
          "time": 168.444276,
          "velocity": 0.6692913385826772
        },
        {
          "duration": 0.22222199999998793,
          "durationTicks": 192,
          "midi": 57,
          "name": "A3",
          "ticks": 145536,
          "time": 168.444276,
          "velocity": 0.6692913385826772
        },
        {
          "duration": 0.22222200000001635,
          "durationTicks": 192,
          "midi": 81,
          "name": "A5",
          "ticks": 145728,
          "time": 168.666498,
          "velocity": 0.6692913385826772
        },
        {
          "duration": 0.22222200000001635,
          "durationTicks": 192,
          "midi": 57,
          "name": "A3",
          "ticks": 145728,
          "time": 168.666498,
          "velocity": 0.6692913385826772
        },
        {
          "duration": 0.22222200000001635,
          "durationTicks": 192,
          "midi": 69,
          "name": "A4",
          "ticks": 145728,
          "time": 168.666498,
          "velocity": 0.6692913385826772
        },
        {
          "duration": 0.22222199999998793,
          "durationTicks": 192,
          "midi": 71,
          "name": "B4",
          "ticks": 145920,
          "time": 168.88872,
          "velocity": 0.6692913385826772
        },
        {
          "duration": 0.22222199999998793,
          "durationTicks": 192,
          "midi": 47,
          "name": "B2",
          "ticks": 145920,
          "time": 168.88872,
          "velocity": 0.6692913385826772
        },
        {
          "duration": 0.22222199999998793,
          "durationTicks": 192,
          "midi": 59,
          "name": "B3",
          "ticks": 145920,
          "time": 168.88872,
          "velocity": 0.6692913385826772
        },
        {
          "duration": 0.22222200000001635,
          "durationTicks": 192,
          "midi": 71,
          "name": "B4",
          "ticks": 146112,
          "time": 169.110942,
          "velocity": 0.6692913385826772
        },
        {
          "duration": 0.22222200000001635,
          "durationTicks": 192,
          "midi": 59,
          "name": "B3",
          "ticks": 146112,
          "time": 169.110942,
          "velocity": 0.6692913385826772
        },
        {
          "duration": 0.22222200000001635,
          "durationTicks": 192,
          "midi": 47,
          "name": "B2",
          "ticks": 146112,
          "time": 169.110942,
          "velocity": 0.6692913385826772
        },
        {
          "duration": 0.11111099999999396,
          "durationTicks": 96,
          "midi": 47,
          "name": "B2",
          "ticks": 146304,
          "time": 169.333164,
          "velocity": 0.6692913385826772
        },
        {
          "duration": 0.11111099999999396,
          "durationTicks": 96,
          "midi": 59,
          "name": "B3",
          "ticks": 146304,
          "time": 169.333164,
          "velocity": 0.6692913385826772
        },
        {
          "duration": 0.11111099999999396,
          "durationTicks": 96,
          "midi": 71,
          "name": "B4",
          "ticks": 146304,
          "time": 169.333164,
          "velocity": 0.6692913385826772
        },
        {
          "duration": 0.11111099999999396,
          "durationTicks": 96,
          "midi": 59,
          "name": "B3",
          "ticks": 146400,
          "time": 169.444275,
          "velocity": 0.6692913385826772
        },
        {
          "duration": 0.11111099999999396,
          "durationTicks": 96,
          "midi": 47,
          "name": "B2",
          "ticks": 146400,
          "time": 169.444275,
          "velocity": 0.6692913385826772
        },
        {
          "duration": 0.11111099999999396,
          "durationTicks": 96,
          "midi": 71,
          "name": "B4",
          "ticks": 146400,
          "time": 169.444275,
          "velocity": 0.6692913385826772
        },
        {
          "duration": 0.11111099999999396,
          "durationTicks": 96,
          "midi": 47,
          "name": "B2",
          "ticks": 146496,
          "time": 169.555386,
          "velocity": 0.6692913385826772
        },
        {
          "duration": 0.11111099999999396,
          "durationTicks": 96,
          "midi": 71,
          "name": "B4",
          "ticks": 146496,
          "time": 169.555386,
          "velocity": 0.6692913385826772
        },
        {
          "duration": 0.11111099999999396,
          "durationTicks": 96,
          "midi": 59,
          "name": "B3",
          "ticks": 146496,
          "time": 169.555386,
          "velocity": 0.6692913385826772
        },
        {
          "duration": 0.22222200000001635,
          "durationTicks": 192,
          "midi": 59,
          "name": "B3",
          "ticks": 146592,
          "time": 169.666497,
          "velocity": 0.6692913385826772
        },
        {
          "duration": 0.22222200000001635,
          "durationTicks": 192,
          "midi": 71,
          "name": "B4",
          "ticks": 146592,
          "time": 169.666497,
          "velocity": 0.6692913385826772
        },
        {
          "duration": 0.22222200000001635,
          "durationTicks": 192,
          "midi": 47,
          "name": "B2",
          "ticks": 146592,
          "time": 169.666497,
          "velocity": 0.6692913385826772
        },
        {
          "duration": 0.22222199999998793,
          "durationTicks": 192,
          "midi": 47,
          "name": "B2",
          "ticks": 146784,
          "time": 169.888719,
          "velocity": 0.6692913385826772
        },
        {
          "duration": 0.22222199999998793,
          "durationTicks": 192,
          "midi": 59,
          "name": "B3",
          "ticks": 146784,
          "time": 169.888719,
          "velocity": 0.6692913385826772
        },
        {
          "duration": 0.22222199999998793,
          "durationTicks": 192,
          "midi": 71,
          "name": "B4",
          "ticks": 146784,
          "time": 169.888719,
          "velocity": 0.6692913385826772
        },
        {
          "duration": 0.11111099999999396,
          "durationTicks": 96,
          "midi": 47,
          "name": "B2",
          "ticks": 146976,
          "time": 170.110941,
          "velocity": 0.6692913385826772
        },
        {
          "duration": 0.11111099999999396,
          "durationTicks": 96,
          "midi": 59,
          "name": "B3",
          "ticks": 146976,
          "time": 170.110941,
          "velocity": 0.6692913385826772
        },
        {
          "duration": 0.11111099999999396,
          "durationTicks": 96,
          "midi": 71,
          "name": "B4",
          "ticks": 146976,
          "time": 170.110941,
          "velocity": 0.6692913385826772
        },
        {
          "duration": 0.22222200000001635,
          "durationTicks": 192,
          "midi": 71,
          "name": "B4",
          "ticks": 147072,
          "time": 170.222052,
          "velocity": 0.6692913385826772
        },
        {
          "duration": 0.22222200000001635,
          "durationTicks": 192,
          "midi": 47,
          "name": "B2",
          "ticks": 147072,
          "time": 170.222052,
          "velocity": 0.6692913385826772
        },
        {
          "duration": 0.22222200000001635,
          "durationTicks": 192,
          "midi": 59,
          "name": "B3",
          "ticks": 147072,
          "time": 170.222052,
          "velocity": 0.6692913385826772
        },
        {
          "duration": 0.22222199999998793,
          "durationTicks": 192,
          "midi": 71,
          "name": "B4",
          "ticks": 147264,
          "time": 170.444274,
          "velocity": 0.6692913385826772
        },
        {
          "duration": 0.22222199999998793,
          "durationTicks": 192,
          "midi": 59,
          "name": "B3",
          "ticks": 147264,
          "time": 170.444274,
          "velocity": 0.6692913385826772
        },
        {
          "duration": 0.22222199999998793,
          "durationTicks": 192,
          "midi": 83,
          "name": "B5",
          "ticks": 147264,
          "time": 170.444274,
          "velocity": 0.6692913385826772
        },
        {
          "duration": 0.22222200000001635,
          "durationTicks": 192,
          "midi": 61,
          "name": "C#4",
          "ticks": 147456,
          "time": 170.666496,
          "velocity": 0.6692913385826772
        },
        {
          "duration": 0.22222200000001635,
          "durationTicks": 192,
          "midi": 49,
          "name": "C#3",
          "ticks": 147456,
          "time": 170.666496,
          "velocity": 0.6692913385826772
        },
        {
          "duration": 0.22222200000001635,
          "durationTicks": 192,
          "midi": 73,
          "name": "C#5",
          "ticks": 147456,
          "time": 170.666496,
          "velocity": 0.6692913385826772
        },
        {
          "duration": 0.22222199999998793,
          "durationTicks": 192,
          "midi": 49,
          "name": "C#3",
          "ticks": 147648,
          "time": 170.888718,
          "velocity": 0.6692913385826772
        },
        {
          "duration": 0.22222199999998793,
          "durationTicks": 192,
          "midi": 61,
          "name": "C#4",
          "ticks": 147648,
          "time": 170.888718,
          "velocity": 0.6692913385826772
        },
        {
          "duration": 0.22222199999998793,
          "durationTicks": 192,
          "midi": 73,
          "name": "C#5",
          "ticks": 147648,
          "time": 170.888718,
          "velocity": 0.6692913385826772
        },
        {
          "duration": 0.11111099999999396,
          "durationTicks": 96,
          "midi": 73,
          "name": "C#5",
          "ticks": 147840,
          "time": 171.11094,
          "velocity": 0.6692913385826772
        },
        {
          "duration": 0.11111099999999396,
          "durationTicks": 96,
          "midi": 61,
          "name": "C#4",
          "ticks": 147840,
          "time": 171.11094,
          "velocity": 0.6692913385826772
        },
        {
          "duration": 0.11111099999999396,
          "durationTicks": 96,
          "midi": 49,
          "name": "C#3",
          "ticks": 147840,
          "time": 171.11094,
          "velocity": 0.6692913385826772
        },
        {
          "duration": 0.11111100000002239,
          "durationTicks": 96,
          "midi": 49,
          "name": "C#3",
          "ticks": 147936,
          "time": 171.222051,
          "velocity": 0.6692913385826772
        },
        {
          "duration": 0.11111100000002239,
          "durationTicks": 96,
          "midi": 61,
          "name": "C#4",
          "ticks": 147936,
          "time": 171.222051,
          "velocity": 0.6692913385826772
        },
        {
          "duration": 0.11111100000002239,
          "durationTicks": 96,
          "midi": 73,
          "name": "C#5",
          "ticks": 147936,
          "time": 171.222051,
          "velocity": 0.6692913385826772
        },
        {
          "duration": 0.11111099999999396,
          "durationTicks": 96,
          "midi": 61,
          "name": "C#4",
          "ticks": 148032,
          "time": 171.33316200000002,
          "velocity": 0.6692913385826772
        },
        {
          "duration": 0.11111099999999396,
          "durationTicks": 96,
          "midi": 49,
          "name": "C#3",
          "ticks": 148032,
          "time": 171.33316200000002,
          "velocity": 0.6692913385826772
        },
        {
          "duration": 0.11111099999999396,
          "durationTicks": 96,
          "midi": 73,
          "name": "C#5",
          "ticks": 148032,
          "time": 171.33316200000002,
          "velocity": 0.6692913385826772
        },
        {
          "duration": 0.22222199999998793,
          "durationTicks": 192,
          "midi": 49,
          "name": "C#3",
          "ticks": 148128,
          "time": 171.444273,
          "velocity": 0.6692913385826772
        },
        {
          "duration": 0.22222199999998793,
          "durationTicks": 192,
          "midi": 61,
          "name": "C#4",
          "ticks": 148128,
          "time": 171.444273,
          "velocity": 0.6692913385826772
        },
        {
          "duration": 0.22222199999998793,
          "durationTicks": 192,
          "midi": 73,
          "name": "C#5",
          "ticks": 148128,
          "time": 171.444273,
          "velocity": 0.6692913385826772
        },
        {
          "duration": 0.22222200000001635,
          "durationTicks": 192,
          "midi": 49,
          "name": "C#3",
          "ticks": 148320,
          "time": 171.666495,
          "velocity": 0.6692913385826772
        },
        {
          "duration": 0.22222200000001635,
          "durationTicks": 192,
          "midi": 61,
          "name": "C#4",
          "ticks": 148320,
          "time": 171.666495,
          "velocity": 0.6692913385826772
        },
        {
          "duration": 0.22222200000001635,
          "durationTicks": 192,
          "midi": 73,
          "name": "C#5",
          "ticks": 148320,
          "time": 171.666495,
          "velocity": 0.6692913385826772
        },
        {
          "duration": 0.11111099999999396,
          "durationTicks": 96,
          "midi": 73,
          "name": "C#5",
          "ticks": 148512,
          "time": 171.888717,
          "velocity": 0.6692913385826772
        },
        {
          "duration": 0.11111099999999396,
          "durationTicks": 96,
          "midi": 49,
          "name": "C#3",
          "ticks": 148512,
          "time": 171.888717,
          "velocity": 0.6692913385826772
        },
        {
          "duration": 0.11111099999999396,
          "durationTicks": 96,
          "midi": 61,
          "name": "C#4",
          "ticks": 148512,
          "time": 171.888717,
          "velocity": 0.6692913385826772
        },
        {
          "duration": 0.22222199999998793,
          "durationTicks": 192,
          "midi": 49,
          "name": "C#3",
          "ticks": 148608,
          "time": 171.999828,
          "velocity": 0.6692913385826772
        },
        {
          "duration": 0.22222199999998793,
          "durationTicks": 192,
          "midi": 61,
          "name": "C#4",
          "ticks": 148608,
          "time": 171.999828,
          "velocity": 0.6692913385826772
        },
        {
          "duration": 0.22222199999998793,
          "durationTicks": 192,
          "midi": 73,
          "name": "C#5",
          "ticks": 148608,
          "time": 171.999828,
          "velocity": 0.6692913385826772
        },
        {
          "duration": 0.22222200000001635,
          "durationTicks": 192,
          "midi": 61,
          "name": "C#4",
          "ticks": 148800,
          "time": 172.22205,
          "velocity": 0.6692913385826772
        },
        {
          "duration": 0.22222200000001635,
          "durationTicks": 192,
          "midi": 85,
          "name": "C#6",
          "ticks": 148800,
          "time": 172.22205,
          "velocity": 0.6692913385826772
        },
        {
          "duration": 0.22222200000001635,
          "durationTicks": 192,
          "midi": 73,
          "name": "C#5",
          "ticks": 148800,
          "time": 172.22205,
          "velocity": 0.6692913385826772
        },
        {
          "duration": 0.22222199999998793,
          "durationTicks": 192,
          "midi": 61,
          "name": "C#4",
          "ticks": 148992,
          "time": 172.444272,
          "velocity": 0.6692913385826772
        },
        {
          "duration": 0.22222199999998793,
          "durationTicks": 192,
          "midi": 49,
          "name": "C#3",
          "ticks": 148992,
          "time": 172.444272,
          "velocity": 0.6692913385826772
        },
        {
          "duration": 0.22222199999998793,
          "durationTicks": 192,
          "midi": 73,
          "name": "C#5",
          "ticks": 148992,
          "time": 172.444272,
          "velocity": 0.6692913385826772
        },
        {
          "duration": 0.22222199999998793,
          "durationTicks": 192,
          "midi": 73,
          "name": "C#5",
          "ticks": 149184,
          "time": 172.666494,
          "velocity": 0.6692913385826772
        },
        {
          "duration": 0.22222199999998793,
          "durationTicks": 192,
          "midi": 61,
          "name": "C#4",
          "ticks": 149184,
          "time": 172.666494,
          "velocity": 0.6692913385826772
        },
        {
          "duration": 0.22222199999998793,
          "durationTicks": 192,
          "midi": 49,
          "name": "C#3",
          "ticks": 149184,
          "time": 172.666494,
          "velocity": 0.6692913385826772
        },
        {
          "duration": 0.11111100000002239,
          "durationTicks": 96,
          "midi": 73,
          "name": "C#5",
          "ticks": 149376,
          "time": 172.888716,
          "velocity": 0.6692913385826772
        },
        {
          "duration": 0.11111100000002239,
          "durationTicks": 96,
          "midi": 61,
          "name": "C#4",
          "ticks": 149376,
          "time": 172.888716,
          "velocity": 0.6692913385826772
        },
        {
          "duration": 0.11111100000002239,
          "durationTicks": 96,
          "midi": 49,
          "name": "C#3",
          "ticks": 149376,
          "time": 172.888716,
          "velocity": 0.6692913385826772
        },
        {
          "duration": 0.11111099999999396,
          "durationTicks": 96,
          "midi": 61,
          "name": "C#4",
          "ticks": 149472,
          "time": 172.999827,
          "velocity": 0.6692913385826772
        },
        {
          "duration": 0.11111099999999396,
          "durationTicks": 96,
          "midi": 73,
          "name": "C#5",
          "ticks": 149472,
          "time": 172.999827,
          "velocity": 0.6692913385826772
        },
        {
          "duration": 0.11111099999999396,
          "durationTicks": 96,
          "midi": 49,
          "name": "C#3",
          "ticks": 149472,
          "time": 172.999827,
          "velocity": 0.6692913385826772
        },
        {
          "duration": 0.11111099999999396,
          "durationTicks": 96,
          "midi": 49,
          "name": "C#3",
          "ticks": 149568,
          "time": 173.110938,
          "velocity": 0.6692913385826772
        },
        {
          "duration": 0.11111099999999396,
          "durationTicks": 96,
          "midi": 61,
          "name": "C#4",
          "ticks": 149568,
          "time": 173.110938,
          "velocity": 0.6692913385826772
        },
        {
          "duration": 0.11111099999999396,
          "durationTicks": 96,
          "midi": 73,
          "name": "C#5",
          "ticks": 149568,
          "time": 173.110938,
          "velocity": 0.6692913385826772
        },
        {
          "duration": 0.22222200000001635,
          "durationTicks": 192,
          "midi": 49,
          "name": "C#3",
          "ticks": 149664,
          "time": 173.222049,
          "velocity": 0.6692913385826772
        },
        {
          "duration": 0.22222200000001635,
          "durationTicks": 192,
          "midi": 73,
          "name": "C#5",
          "ticks": 149664,
          "time": 173.222049,
          "velocity": 0.6692913385826772
        },
        {
          "duration": 0.22222200000001635,
          "durationTicks": 192,
          "midi": 61,
          "name": "C#4",
          "ticks": 149664,
          "time": 173.222049,
          "velocity": 0.6692913385826772
        },
        {
          "duration": 0.22222199999998793,
          "durationTicks": 192,
          "midi": 73,
          "name": "C#5",
          "ticks": 149856,
          "time": 173.44427100000001,
          "velocity": 0.6692913385826772
        },
        {
          "duration": 0.22222199999998793,
          "durationTicks": 192,
          "midi": 49,
          "name": "C#3",
          "ticks": 149856,
          "time": 173.44427100000001,
          "velocity": 0.6692913385826772
        },
        {
          "duration": 0.22222199999998793,
          "durationTicks": 192,
          "midi": 61,
          "name": "C#4",
          "ticks": 149856,
          "time": 173.44427100000001,
          "velocity": 0.6692913385826772
        },
        {
          "duration": 0.11111099999999396,
          "durationTicks": 96,
          "midi": 73,
          "name": "C#5",
          "ticks": 150048,
          "time": 173.666493,
          "velocity": 0.6692913385826772
        },
        {
          "duration": 0.11111099999999396,
          "durationTicks": 96,
          "midi": 61,
          "name": "C#4",
          "ticks": 150048,
          "time": 173.666493,
          "velocity": 0.6692913385826772
        },
        {
          "duration": 0.11111099999999396,
          "durationTicks": 96,
          "midi": 49,
          "name": "C#3",
          "ticks": 150048,
          "time": 173.666493,
          "velocity": 0.6692913385826772
        },
        {
          "duration": 0.22222200000001635,
          "durationTicks": 192,
          "midi": 49,
          "name": "C#3",
          "ticks": 150144,
          "time": 173.777604,
          "velocity": 0.6692913385826772
        },
        {
          "duration": 0.22222200000001635,
          "durationTicks": 192,
          "midi": 73,
          "name": "C#5",
          "ticks": 150144,
          "time": 173.777604,
          "velocity": 0.6692913385826772
        },
        {
          "duration": 0.22222200000001635,
          "durationTicks": 192,
          "midi": 61,
          "name": "C#4",
          "ticks": 150144,
          "time": 173.777604,
          "velocity": 0.6692913385826772
        },
        {
          "duration": 0.22222199999998793,
          "durationTicks": 192,
          "midi": 73,
          "name": "C#5",
          "ticks": 150336,
          "time": 173.999826,
          "velocity": 0.6692913385826772
        },
        {
          "duration": 0.22222199999998793,
          "durationTicks": 192,
          "midi": 85,
          "name": "C#6",
          "ticks": 150336,
          "time": 173.999826,
          "velocity": 0.6692913385826772
        },
        {
          "duration": 0.22222199999998793,
          "durationTicks": 192,
          "midi": 61,
          "name": "C#4",
          "ticks": 150336,
          "time": 173.999826,
          "velocity": 0.6692913385826772
        },
        {
          "duration": 0.22222199999998793,
          "durationTicks": 192,
          "midi": 69,
          "name": "A4",
          "ticks": 150528,
          "time": 174.222048,
          "velocity": 0.6692913385826772
        },
        {
          "duration": 0.22222199999998793,
          "durationTicks": 192,
          "midi": 45,
          "name": "A2",
          "ticks": 150528,
          "time": 174.222048,
          "velocity": 0.6692913385826772
        },
        {
          "duration": 0.22222199999998793,
          "durationTicks": 192,
          "midi": 57,
          "name": "A3",
          "ticks": 150528,
          "time": 174.222048,
          "velocity": 0.6692913385826772
        },
        {
          "duration": 0.22222200000001635,
          "durationTicks": 192,
          "midi": 69,
          "name": "A4",
          "ticks": 150720,
          "time": 174.44427,
          "velocity": 0.6692913385826772
        },
        {
          "duration": 0.22222200000001635,
          "durationTicks": 192,
          "midi": 57,
          "name": "A3",
          "ticks": 150720,
          "time": 174.44427,
          "velocity": 0.6692913385826772
        },
        {
          "duration": 0.22222200000001635,
          "durationTicks": 192,
          "midi": 45,
          "name": "A2",
          "ticks": 150720,
          "time": 174.44427,
          "velocity": 0.6692913385826772
        },
        {
          "duration": 0.11111099999999396,
          "durationTicks": 96,
          "midi": 45,
          "name": "A2",
          "ticks": 150912,
          "time": 174.666492,
          "velocity": 0.6692913385826772
        },
        {
          "duration": 0.11111099999999396,
          "durationTicks": 96,
          "midi": 57,
          "name": "A3",
          "ticks": 150912,
          "time": 174.666492,
          "velocity": 0.6692913385826772
        },
        {
          "duration": 0.11111099999999396,
          "durationTicks": 96,
          "midi": 69,
          "name": "A4",
          "ticks": 150912,
          "time": 174.666492,
          "velocity": 0.6692913385826772
        },
        {
          "duration": 0.11111099999999396,
          "durationTicks": 96,
          "midi": 45,
          "name": "A2",
          "ticks": 151008,
          "time": 174.777603,
          "velocity": 0.6692913385826772
        },
        {
          "duration": 0.11111099999999396,
          "durationTicks": 96,
          "midi": 57,
          "name": "A3",
          "ticks": 151008,
          "time": 174.777603,
          "velocity": 0.6692913385826772
        },
        {
          "duration": 0.11111099999999396,
          "durationTicks": 96,
          "midi": 69,
          "name": "A4",
          "ticks": 151008,
          "time": 174.777603,
          "velocity": 0.6692913385826772
        },
        {
          "duration": 0.11111100000002239,
          "durationTicks": 96,
          "midi": 69,
          "name": "A4",
          "ticks": 151104,
          "time": 174.888714,
          "velocity": 0.6692913385826772
        },
        {
          "duration": 0.11111100000002239,
          "durationTicks": 96,
          "midi": 57,
          "name": "A3",
          "ticks": 151104,
          "time": 174.888714,
          "velocity": 0.6692913385826772
        },
        {
          "duration": 0.11111100000002239,
          "durationTicks": 96,
          "midi": 45,
          "name": "A2",
          "ticks": 151104,
          "time": 174.888714,
          "velocity": 0.6692913385826772
        },
        {
          "duration": 0.22222199999998793,
          "durationTicks": 192,
          "midi": 57,
          "name": "A3",
          "ticks": 151200,
          "time": 174.99982500000002,
          "velocity": 0.6692913385826772
        },
        {
          "duration": 0.22222199999998793,
          "durationTicks": 192,
          "midi": 69,
          "name": "A4",
          "ticks": 151200,
          "time": 174.99982500000002,
          "velocity": 0.6692913385826772
        },
        {
          "duration": 0.22222199999998793,
          "durationTicks": 192,
          "midi": 45,
          "name": "A2",
          "ticks": 151200,
          "time": 174.99982500000002,
          "velocity": 0.6692913385826772
        },
        {
          "duration": 0.22222199999998793,
          "durationTicks": 192,
          "midi": 45,
          "name": "A2",
          "ticks": 151392,
          "time": 175.222047,
          "velocity": 0.6692913385826772
        },
        {
          "duration": 0.22222199999998793,
          "durationTicks": 192,
          "midi": 57,
          "name": "A3",
          "ticks": 151392,
          "time": 175.222047,
          "velocity": 0.6692913385826772
        },
        {
          "duration": 0.22222199999998793,
          "durationTicks": 192,
          "midi": 69,
          "name": "A4",
          "ticks": 151392,
          "time": 175.222047,
          "velocity": 0.6692913385826772
        },
        {
          "duration": 0.11111100000002239,
          "durationTicks": 96,
          "midi": 69,
          "name": "A4",
          "ticks": 151584,
          "time": 175.444269,
          "velocity": 0.6692913385826772
        },
        {
          "duration": 0.11111100000002239,
          "durationTicks": 96,
          "midi": 45,
          "name": "A2",
          "ticks": 151584,
          "time": 175.444269,
          "velocity": 0.6692913385826772
        },
        {
          "duration": 0.11111100000002239,
          "durationTicks": 96,
          "midi": 57,
          "name": "A3",
          "ticks": 151584,
          "time": 175.444269,
          "velocity": 0.6692913385826772
        },
        {
          "duration": 0.22222199999998793,
          "durationTicks": 192,
          "midi": 45,
          "name": "A2",
          "ticks": 151680,
          "time": 175.55538,
          "velocity": 0.6692913385826772
        },
        {
          "duration": 0.22222199999998793,
          "durationTicks": 192,
          "midi": 57,
          "name": "A3",
          "ticks": 151680,
          "time": 175.55538,
          "velocity": 0.6692913385826772
        },
        {
          "duration": 0.22222199999998793,
          "durationTicks": 192,
          "midi": 69,
          "name": "A4",
          "ticks": 151680,
          "time": 175.55538,
          "velocity": 0.6692913385826772
        },
        {
          "duration": 0.22222199999998793,
          "durationTicks": 192,
          "midi": 69,
          "name": "A4",
          "ticks": 151872,
          "time": 175.777602,
          "velocity": 0.6692913385826772
        },
        {
          "duration": 0.22222199999998793,
          "durationTicks": 192,
          "midi": 81,
          "name": "A5",
          "ticks": 151872,
          "time": 175.777602,
          "velocity": 0.6692913385826772
        },
        {
          "duration": 0.22222199999998793,
          "durationTicks": 192,
          "midi": 57,
          "name": "A3",
          "ticks": 151872,
          "time": 175.777602,
          "velocity": 0.6692913385826772
        },
        {
          "duration": 0.22222200000001635,
          "durationTicks": 192,
          "midi": 71,
          "name": "B4",
          "ticks": 152064,
          "time": 175.999824,
          "velocity": 0.6692913385826772
        },
        {
          "duration": 0.22222200000001635,
          "durationTicks": 192,
          "midi": 47,
          "name": "B2",
          "ticks": 152064,
          "time": 175.999824,
          "velocity": 0.6692913385826772
        },
        {
          "duration": 0.22222200000001635,
          "durationTicks": 192,
          "midi": 59,
          "name": "B3",
          "ticks": 152064,
          "time": 175.999824,
          "velocity": 0.6692913385826772
        },
        {
          "duration": 0.22222199999998793,
          "durationTicks": 192,
          "midi": 47,
          "name": "B2",
          "ticks": 152256,
          "time": 176.222046,
          "velocity": 0.6692913385826772
        },
        {
          "duration": 0.22222199999998793,
          "durationTicks": 192,
          "midi": 71,
          "name": "B4",
          "ticks": 152256,
          "time": 176.222046,
          "velocity": 0.6692913385826772
        },
        {
          "duration": 0.22222199999998793,
          "durationTicks": 192,
          "midi": 59,
          "name": "B3",
          "ticks": 152256,
          "time": 176.222046,
          "velocity": 0.6692913385826772
        },
        {
          "duration": 0.11111100000002239,
          "durationTicks": 96,
          "midi": 71,
          "name": "B4",
          "ticks": 152448,
          "time": 176.444268,
          "velocity": 0.6692913385826772
        },
        {
          "duration": 0.11111100000002239,
          "durationTicks": 96,
          "midi": 47,
          "name": "B2",
          "ticks": 152448,
          "time": 176.444268,
          "velocity": 0.6692913385826772
        },
        {
          "duration": 0.11111100000002239,
          "durationTicks": 96,
          "midi": 59,
          "name": "B3",
          "ticks": 152448,
          "time": 176.444268,
          "velocity": 0.6692913385826772
        },
        {
          "duration": 0.11111099999999396,
          "durationTicks": 96,
          "midi": 47,
          "name": "B2",
          "ticks": 152544,
          "time": 176.55537900000002,
          "velocity": 0.6692913385826772
        },
        {
          "duration": 0.11111099999999396,
          "durationTicks": 96,
          "midi": 59,
          "name": "B3",
          "ticks": 152544,
          "time": 176.55537900000002,
          "velocity": 0.6692913385826772
        },
        {
          "duration": 0.11111099999999396,
          "durationTicks": 96,
          "midi": 71,
          "name": "B4",
          "ticks": 152544,
          "time": 176.55537900000002,
          "velocity": 0.6692913385826772
        },
        {
          "duration": 0.11111099999999396,
          "durationTicks": 96,
          "midi": 59,
          "name": "B3",
          "ticks": 152640,
          "time": 176.66649,
          "velocity": 0.6692913385826772
        },
        {
          "duration": 0.11111099999999396,
          "durationTicks": 96,
          "midi": 71,
          "name": "B4",
          "ticks": 152640,
          "time": 176.66649,
          "velocity": 0.6692913385826772
        },
        {
          "duration": 0.11111099999999396,
          "durationTicks": 96,
          "midi": 47,
          "name": "B2",
          "ticks": 152640,
          "time": 176.66649,
          "velocity": 0.6692913385826772
        },
        {
          "duration": 0.22222199999998793,
          "durationTicks": 192,
          "midi": 47,
          "name": "B2",
          "ticks": 152736,
          "time": 176.777601,
          "velocity": 0.6692913385826772
        },
        {
          "duration": 0.22222199999998793,
          "durationTicks": 192,
          "midi": 59,
          "name": "B3",
          "ticks": 152736,
          "time": 176.777601,
          "velocity": 0.6692913385826772
        },
        {
          "duration": 0.22222199999998793,
          "durationTicks": 192,
          "midi": 71,
          "name": "B4",
          "ticks": 152736,
          "time": 176.777601,
          "velocity": 0.6692913385826772
        },
        {
          "duration": 0.22222200000001635,
          "durationTicks": 192,
          "midi": 59,
          "name": "B3",
          "ticks": 152928,
          "time": 176.999823,
          "velocity": 0.6692913385826772
        },
        {
          "duration": 0.22222200000001635,
          "durationTicks": 192,
          "midi": 71,
          "name": "B4",
          "ticks": 152928,
          "time": 176.999823,
          "velocity": 0.6692913385826772
        },
        {
          "duration": 0.22222200000001635,
          "durationTicks": 192,
          "midi": 47,
          "name": "B2",
          "ticks": 152928,
          "time": 176.999823,
          "velocity": 0.6692913385826772
        },
        {
          "duration": 0.11111099999999396,
          "durationTicks": 96,
          "midi": 47,
          "name": "B2",
          "ticks": 153120,
          "time": 177.222045,
          "velocity": 0.6692913385826772
        },
        {
          "duration": 0.11111099999999396,
          "durationTicks": 96,
          "midi": 59,
          "name": "B3",
          "ticks": 153120,
          "time": 177.222045,
          "velocity": 0.6692913385826772
        },
        {
          "duration": 0.11111099999999396,
          "durationTicks": 96,
          "midi": 71,
          "name": "B4",
          "ticks": 153120,
          "time": 177.222045,
          "velocity": 0.6692913385826772
        },
        {
          "duration": 0.22222199999998793,
          "durationTicks": 192,
          "midi": 59,
          "name": "B3",
          "ticks": 153216,
          "time": 177.333156,
          "velocity": 0.6692913385826772
        },
        {
          "duration": 0.22222199999998793,
          "durationTicks": 192,
          "midi": 71,
          "name": "B4",
          "ticks": 153216,
          "time": 177.333156,
          "velocity": 0.6692913385826772
        },
        {
          "duration": 0.22222199999998793,
          "durationTicks": 192,
          "midi": 47,
          "name": "B2",
          "ticks": 153216,
          "time": 177.333156,
          "velocity": 0.6692913385826772
        },
        {
          "duration": 0.22222200000001635,
          "durationTicks": 192,
          "midi": 59,
          "name": "B3",
          "ticks": 153408,
          "time": 177.555378,
          "velocity": 0.6692913385826772
        },
        {
          "duration": 0.22222200000001635,
          "durationTicks": 192,
          "midi": 71,
          "name": "B4",
          "ticks": 153408,
          "time": 177.555378,
          "velocity": 0.6692913385826772
        },
        {
          "duration": 0.22222200000001635,
          "durationTicks": 192,
          "midi": 83,
          "name": "B5",
          "ticks": 153408,
          "time": 177.555378,
          "velocity": 0.6692913385826772
        },
        {
          "duration": 0.22222199999998793,
          "durationTicks": 192,
          "midi": 61,
          "name": "C#4",
          "ticks": 153600,
          "time": 177.7776,
          "velocity": 0.6692913385826772
        },
        {
          "duration": 0.22222199999998793,
          "durationTicks": 192,
          "midi": 73,
          "name": "C#5",
          "ticks": 153600,
          "time": 177.7776,
          "velocity": 0.6692913385826772
        },
        {
          "duration": 0.22222200000001635,
          "durationTicks": 192,
          "midi": 61,
          "name": "C#4",
          "ticks": 153792,
          "time": 177.999822,
          "velocity": 0.6692913385826772
        },
        {
          "duration": 0.22222200000001635,
          "durationTicks": 192,
          "midi": 73,
          "name": "C#5",
          "ticks": 153792,
          "time": 177.999822,
          "velocity": 0.6692913385826772
        },
        {
          "duration": 0.11111099999999396,
          "durationTicks": 96,
          "midi": 73,
          "name": "C#5",
          "ticks": 153984,
          "time": 178.222044,
          "velocity": 0.6692913385826772
        },
        {
          "duration": 0.11111099999999396,
          "durationTicks": 96,
          "midi": 61,
          "name": "C#4",
          "ticks": 153984,
          "time": 178.222044,
          "velocity": 0.6692913385826772
        },
        {
          "duration": 0.11111099999999396,
          "durationTicks": 96,
          "midi": 73,
          "name": "C#5",
          "ticks": 154080,
          "time": 178.333155,
          "velocity": 0.6692913385826772
        },
        {
          "duration": 0.11111099999999396,
          "durationTicks": 96,
          "midi": 61,
          "name": "C#4",
          "ticks": 154080,
          "time": 178.333155,
          "velocity": 0.6692913385826772
        },
        {
          "duration": 0.11111099999999396,
          "durationTicks": 96,
          "midi": 73,
          "name": "C#5",
          "ticks": 154176,
          "time": 178.444266,
          "velocity": 0.6692913385826772
        },
        {
          "duration": 0.11111099999999396,
          "durationTicks": 96,
          "midi": 61,
          "name": "C#4",
          "ticks": 154176,
          "time": 178.444266,
          "velocity": 0.6692913385826772
        },
        {
          "duration": 0.22222200000001635,
          "durationTicks": 192,
          "midi": 48,
          "name": "C3",
          "ticks": 154272,
          "time": 178.555377,
          "velocity": 0.6692913385826772
        },
        {
          "duration": 0.22222200000001635,
          "durationTicks": 192,
          "midi": 60,
          "name": "C4",
          "ticks": 154272,
          "time": 178.555377,
          "velocity": 0.6692913385826772
        },
        {
          "duration": 0.22222200000001635,
          "durationTicks": 192,
          "midi": 72,
          "name": "C5",
          "ticks": 154272,
          "time": 178.555377,
          "velocity": 0.6692913385826772
        },
        {
          "duration": 0.22222199999998793,
          "durationTicks": 192,
          "midi": 72,
          "name": "C5",
          "ticks": 154464,
          "time": 178.777599,
          "velocity": 0.6692913385826772
        },
        {
          "duration": 0.22222199999998793,
          "durationTicks": 192,
          "midi": 60,
          "name": "C4",
          "ticks": 154464,
          "time": 178.777599,
          "velocity": 0.6692913385826772
        },
        {
          "duration": 0.22222199999998793,
          "durationTicks": 192,
          "midi": 48,
          "name": "C3",
          "ticks": 154464,
          "time": 178.777599,
          "velocity": 0.6692913385826772
        },
        {
          "duration": 0.11111099999999396,
          "durationTicks": 96,
          "midi": 48,
          "name": "C3",
          "ticks": 154656,
          "time": 178.999821,
          "velocity": 0.6692913385826772
        },
        {
          "duration": 0.11111099999999396,
          "durationTicks": 96,
          "midi": 72,
          "name": "C5",
          "ticks": 154656,
          "time": 178.999821,
          "velocity": 0.6692913385826772
        },
        {
          "duration": 0.11111099999999396,
          "durationTicks": 96,
          "midi": 60,
          "name": "C4",
          "ticks": 154656,
          "time": 178.999821,
          "velocity": 0.6692913385826772
        },
        {
          "duration": 0.22222200000001635,
          "durationTicks": 192,
          "midi": 72,
          "name": "C5",
          "ticks": 154752,
          "time": 179.110932,
          "velocity": 0.6692913385826772
        },
        {
          "duration": 0.22222200000001635,
          "durationTicks": 192,
          "midi": 48,
          "name": "C3",
          "ticks": 154752,
          "time": 179.110932,
          "velocity": 0.6692913385826772
        },
        {
          "duration": 0.22222200000001635,
          "durationTicks": 192,
          "midi": 60,
          "name": "C4",
          "ticks": 154752,
          "time": 179.110932,
          "velocity": 0.6692913385826772
        },
        {
          "duration": 0.22222199999998793,
          "durationTicks": 192,
          "midi": 60,
          "name": "C4",
          "ticks": 154944,
          "time": 179.333154,
          "velocity": 0.6692913385826772
        },
        {
          "duration": 0.22222199999998793,
          "durationTicks": 192,
          "midi": 72,
          "name": "C5",
          "ticks": 154944,
          "time": 179.333154,
          "velocity": 0.6692913385826772
        },
        {
          "duration": 0.22222199999998793,
          "durationTicks": 192,
          "midi": 84,
          "name": "C6",
          "ticks": 154944,
          "time": 179.333154,
          "velocity": 0.6692913385826772
        },
        {
          "duration": 0.22222200000001635,
          "durationTicks": 192,
          "midi": 71,
          "name": "B4",
          "ticks": 155136,
          "time": 179.555376,
          "velocity": 0.6692913385826772
        },
        {
          "duration": 0.22222200000001635,
          "durationTicks": 192,
          "midi": 59,
          "name": "B3",
          "ticks": 155136,
          "time": 179.555376,
          "velocity": 0.6692913385826772
        },
        {
          "duration": 0.22222200000001635,
          "durationTicks": 192,
          "midi": 47,
          "name": "B2",
          "ticks": 155136,
          "time": 179.555376,
          "velocity": 0.6692913385826772
        },
        {
          "duration": 0.22222199999998793,
          "durationTicks": 192,
          "midi": 59,
          "name": "B3",
          "ticks": 155328,
          "time": 179.777598,
          "velocity": 0.6692913385826772
        },
        {
          "duration": 0.22222199999998793,
          "durationTicks": 192,
          "midi": 71,
          "name": "B4",
          "ticks": 155328,
          "time": 179.777598,
          "velocity": 0.6692913385826772
        },
        {
          "duration": 0.22222199999998793,
          "durationTicks": 192,
          "midi": 47,
          "name": "B2",
          "ticks": 155328,
          "time": 179.777598,
          "velocity": 0.6692913385826772
        },
        {
          "duration": 0.11111099999999396,
          "durationTicks": 96,
          "midi": 59,
          "name": "B3",
          "ticks": 155520,
          "time": 179.99982,
          "velocity": 0.6692913385826772
        },
        {
          "duration": 0.11111099999999396,
          "durationTicks": 96,
          "midi": 71,
          "name": "B4",
          "ticks": 155520,
          "time": 179.99982,
          "velocity": 0.6692913385826772
        },
        {
          "duration": 0.11111099999999396,
          "durationTicks": 96,
          "midi": 47,
          "name": "B2",
          "ticks": 155520,
          "time": 179.99982,
          "velocity": 0.6692913385826772
        },
        {
          "duration": 0.11111100000002239,
          "durationTicks": 96,
          "midi": 59,
          "name": "B3",
          "ticks": 155616,
          "time": 180.110931,
          "velocity": 0.6692913385826772
        },
        {
          "duration": 0.11111100000002239,
          "durationTicks": 96,
          "midi": 47,
          "name": "B2",
          "ticks": 155616,
          "time": 180.110931,
          "velocity": 0.6692913385826772
        },
        {
          "duration": 0.11111100000002239,
          "durationTicks": 96,
          "midi": 71,
          "name": "B4",
          "ticks": 155616,
          "time": 180.110931,
          "velocity": 0.6692913385826772
        },
        {
          "duration": 0.11111099999999396,
          "durationTicks": 96,
          "midi": 59,
          "name": "B3",
          "ticks": 155712,
          "time": 180.22204200000002,
          "velocity": 0.6692913385826772
        },
        {
          "duration": 0.11111099999999396,
          "durationTicks": 96,
          "midi": 47,
          "name": "B2",
          "ticks": 155712,
          "time": 180.22204200000002,
          "velocity": 0.6692913385826772
        },
        {
          "duration": 0.11111099999999396,
          "durationTicks": 96,
          "midi": 71,
          "name": "B4",
          "ticks": 155712,
          "time": 180.22204200000002,
          "velocity": 0.6692913385826772
        },
        {
          "duration": 0.22222199999998793,
          "durationTicks": 192,
          "midi": 58,
          "name": "A#3",
          "ticks": 155808,
          "time": 180.333153,
          "velocity": 0.6692913385826772
        },
        {
          "duration": 0.22222199999998793,
          "durationTicks": 192,
          "midi": 46,
          "name": "A#2",
          "ticks": 155808,
          "time": 180.333153,
          "velocity": 0.6692913385826772
        },
        {
          "duration": 0.22222199999998793,
          "durationTicks": 192,
          "midi": 70,
          "name": "A#4",
          "ticks": 155808,
          "time": 180.333153,
          "velocity": 0.6692913385826772
        },
        {
          "duration": 0.22222200000001635,
          "durationTicks": 192,
          "midi": 46,
          "name": "A#2",
          "ticks": 156000,
          "time": 180.555375,
          "velocity": 0.6692913385826772
        },
        {
          "duration": 0.22222200000001635,
          "durationTicks": 192,
          "midi": 58,
          "name": "A#3",
          "ticks": 156000,
          "time": 180.555375,
          "velocity": 0.6692913385826772
        },
        {
          "duration": 0.22222200000001635,
          "durationTicks": 192,
          "midi": 70,
          "name": "A#4",
          "ticks": 156000,
          "time": 180.555375,
          "velocity": 0.6692913385826772
        },
        {
          "duration": 0.11111099999999396,
          "durationTicks": 96,
          "midi": 58,
          "name": "A#3",
          "ticks": 156192,
          "time": 180.77759700000001,
          "velocity": 0.6692913385826772
        },
        {
          "duration": 0.11111099999999396,
          "durationTicks": 96,
          "midi": 70,
          "name": "A#4",
          "ticks": 156192,
          "time": 180.77759700000001,
          "velocity": 0.6692913385826772
        },
        {
          "duration": 0.11111099999999396,
          "durationTicks": 96,
          "midi": 46,
          "name": "A#2",
          "ticks": 156192,
          "time": 180.77759700000001,
          "velocity": 0.6692913385826772
        },
        {
          "duration": 0.22222199999998793,
          "durationTicks": 192,
          "midi": 46,
          "name": "A#2",
          "ticks": 156288,
          "time": 180.888708,
          "velocity": 0.6692913385826772
        },
        {
          "duration": 0.22222199999998793,
          "durationTicks": 192,
          "midi": 58,
          "name": "A#3",
          "ticks": 156288,
          "time": 180.888708,
          "velocity": 0.6692913385826772
        },
        {
          "duration": 0.22222199999998793,
          "durationTicks": 192,
          "midi": 70,
          "name": "A#4",
          "ticks": 156288,
          "time": 180.888708,
          "velocity": 0.6692913385826772
        },
        {
          "duration": 0.22222200000001635,
          "durationTicks": 192,
          "midi": 70,
          "name": "A#4",
          "ticks": 156480,
          "time": 181.11093,
          "velocity": 0.6692913385826772
        },
        {
          "duration": 0.22222200000001635,
          "durationTicks": 192,
          "midi": 58,
          "name": "A#3",
          "ticks": 156480,
          "time": 181.11093,
          "velocity": 0.6692913385826772
        },
        {
          "duration": 0.22222200000001635,
          "durationTicks": 192,
          "midi": 82,
          "name": "A#5",
          "ticks": 156480,
          "time": 181.11093,
          "velocity": 0.6692913385826772
        },
        {
          "duration": 0.22222199999998793,
          "durationTicks": 192,
          "midi": 45,
          "name": "A2",
          "ticks": 156672,
          "time": 181.333152,
          "velocity": 0.6692913385826772
        },
        {
          "duration": 0.22222199999998793,
          "durationTicks": 192,
          "midi": 57,
          "name": "A3",
          "ticks": 156672,
          "time": 181.333152,
          "velocity": 0.6692913385826772
        },
        {
          "duration": 0.22222199999998793,
          "durationTicks": 192,
          "midi": 69,
          "name": "A4",
          "ticks": 156672,
          "time": 181.333152,
          "velocity": 0.6692913385826772
        },
        {
          "duration": 0.22222199999998793,
          "durationTicks": 192,
          "midi": 69,
          "name": "A4",
          "ticks": 156864,
          "time": 181.555374,
          "velocity": 0.6692913385826772
        },
        {
          "duration": 0.22222199999998793,
          "durationTicks": 192,
          "midi": 57,
          "name": "A3",
          "ticks": 156864,
          "time": 181.555374,
          "velocity": 0.6692913385826772
        },
        {
          "duration": 0.22222199999998793,
          "durationTicks": 192,
          "midi": 45,
          "name": "A2",
          "ticks": 156864,
          "time": 181.555374,
          "velocity": 0.6692913385826772
        },
        {
          "duration": 0.11111100000002239,
          "durationTicks": 96,
          "midi": 45,
          "name": "A2",
          "ticks": 157056,
          "time": 181.777596,
          "velocity": 0.6692913385826772
        },
        {
          "duration": 0.11111100000002239,
          "durationTicks": 96,
          "midi": 57,
          "name": "A3",
          "ticks": 157056,
          "time": 181.777596,
          "velocity": 0.6692913385826772
        },
        {
          "duration": 0.11111100000002239,
          "durationTicks": 96,
          "midi": 69,
          "name": "A4",
          "ticks": 157056,
          "time": 181.777596,
          "velocity": 0.6692913385826772
        },
        {
          "duration": 0.11111099999999396,
          "durationTicks": 96,
          "midi": 57,
          "name": "A3",
          "ticks": 157152,
          "time": 181.888707,
          "velocity": 0.6692913385826772
        },
        {
          "duration": 0.11111099999999396,
          "durationTicks": 96,
          "midi": 69,
          "name": "A4",
          "ticks": 157152,
          "time": 181.888707,
          "velocity": 0.6692913385826772
        },
        {
          "duration": 0.11111099999999396,
          "durationTicks": 96,
          "midi": 45,
          "name": "A2",
          "ticks": 157152,
          "time": 181.888707,
          "velocity": 0.6692913385826772
        },
        {
          "duration": 0.11111099999999396,
          "durationTicks": 96,
          "midi": 45,
          "name": "A2",
          "ticks": 157248,
          "time": 181.999818,
          "velocity": 0.6692913385826772
        },
        {
          "duration": 0.11111099999999396,
          "durationTicks": 96,
          "midi": 57,
          "name": "A3",
          "ticks": 157248,
          "time": 181.999818,
          "velocity": 0.6692913385826772
        },
        {
          "duration": 0.11111099999999396,
          "durationTicks": 96,
          "midi": 69,
          "name": "A4",
          "ticks": 157248,
          "time": 181.999818,
          "velocity": 0.6692913385826772
        },
        {
          "duration": 0.22222200000001635,
          "durationTicks": 192,
          "midi": 69,
          "name": "A4",
          "ticks": 157344,
          "time": 182.110929,
          "velocity": 0.6692913385826772
        },
        {
          "duration": 0.22222200000001635,
          "durationTicks": 192,
          "midi": 57,
          "name": "A3",
          "ticks": 157344,
          "time": 182.110929,
          "velocity": 0.6692913385826772
        },
        {
          "duration": 0.22222200000001635,
          "durationTicks": 192,
          "midi": 45,
          "name": "A2",
          "ticks": 157344,
          "time": 182.110929,
          "velocity": 0.6692913385826772
        },
        {
          "duration": 0.22222199999998793,
          "durationTicks": 192,
          "midi": 57,
          "name": "A3",
          "ticks": 157536,
          "time": 182.33315100000002,
          "velocity": 0.6692913385826772
        },
        {
          "duration": 0.22222199999998793,
          "durationTicks": 192,
          "midi": 69,
          "name": "A4",
          "ticks": 157536,
          "time": 182.33315100000002,
          "velocity": 0.6692913385826772
        },
        {
          "duration": 0.22222199999998793,
          "durationTicks": 192,
          "midi": 45,
          "name": "A2",
          "ticks": 157536,
          "time": 182.33315100000002,
          "velocity": 0.6692913385826772
        },
        {
          "duration": 0.11111099999999396,
          "durationTicks": 96,
          "midi": 45,
          "name": "A2",
          "ticks": 157728,
          "time": 182.555373,
          "velocity": 0.6692913385826772
        },
        {
          "duration": 0.11111099999999396,
          "durationTicks": 96,
          "midi": 69,
          "name": "A4",
          "ticks": 157728,
          "time": 182.555373,
          "velocity": 0.6692913385826772
        },
        {
          "duration": 0.11111099999999396,
          "durationTicks": 96,
          "midi": 57,
          "name": "A3",
          "ticks": 157728,
          "time": 182.555373,
          "velocity": 0.6692913385826772
        },
        {
          "duration": 0.22222200000001635,
          "durationTicks": 192,
          "midi": 45,
          "name": "A2",
          "ticks": 157824,
          "time": 182.666484,
          "velocity": 0.6692913385826772
        },
        {
          "duration": 0.22222200000001635,
          "durationTicks": 192,
          "midi": 69,
          "name": "A4",
          "ticks": 157824,
          "time": 182.666484,
          "velocity": 0.6692913385826772
        },
        {
          "duration": 0.22222200000001635,
          "durationTicks": 192,
          "midi": 57,
          "name": "A3",
          "ticks": 157824,
          "time": 182.666484,
          "velocity": 0.6692913385826772
        },
        {
          "duration": 0.22222199999998793,
          "durationTicks": 192,
          "midi": 69,
          "name": "A4",
          "ticks": 158016,
          "time": 182.888706,
          "velocity": 0.6692913385826772
        },
        {
          "duration": 0.22222199999998793,
          "durationTicks": 192,
          "midi": 81,
          "name": "A5",
          "ticks": 158016,
          "time": 182.888706,
          "velocity": 0.6692913385826772
        },
        {
          "duration": 0.22222199999998793,
          "durationTicks": 192,
          "midi": 57,
          "name": "A3",
          "ticks": 158016,
          "time": 182.888706,
          "velocity": 0.6692913385826772
        },
        {
          "duration": 0.22222199999998793,
          "durationTicks": 192,
          "midi": 71,
          "name": "B4",
          "ticks": 158208,
          "time": 183.110928,
          "velocity": 0.6692913385826772
        },
        {
          "duration": 0.22222199999998793,
          "durationTicks": 192,
          "midi": 59,
          "name": "B3",
          "ticks": 158208,
          "time": 183.110928,
          "velocity": 0.6692913385826772
        },
        {
          "duration": 0.22222199999998793,
          "durationTicks": 192,
          "midi": 47,
          "name": "B2",
          "ticks": 158208,
          "time": 183.110928,
          "velocity": 0.6692913385826772
        },
        {
          "duration": 0.22222200000001635,
          "durationTicks": 192,
          "midi": 47,
          "name": "B2",
          "ticks": 158400,
          "time": 183.33315,
          "velocity": 0.6692913385826772
        },
        {
          "duration": 0.22222200000001635,
          "durationTicks": 192,
          "midi": 59,
          "name": "B3",
          "ticks": 158400,
          "time": 183.33315,
          "velocity": 0.6692913385826772
        },
        {
          "duration": 0.22222200000001635,
          "durationTicks": 192,
          "midi": 71,
          "name": "B4",
          "ticks": 158400,
          "time": 183.33315,
          "velocity": 0.6692913385826772
        },
        {
          "duration": 0.11111099999999396,
          "durationTicks": 96,
          "midi": 59,
          "name": "B3",
          "ticks": 158592,
          "time": 183.555372,
          "velocity": 0.6692913385826772
        },
        {
          "duration": 0.11111099999999396,
          "durationTicks": 96,
          "midi": 71,
          "name": "B4",
          "ticks": 158592,
          "time": 183.555372,
          "velocity": 0.6692913385826772
        },
        {
          "duration": 0.11111099999999396,
          "durationTicks": 96,
          "midi": 47,
          "name": "B2",
          "ticks": 158592,
          "time": 183.555372,
          "velocity": 0.6692913385826772
        },
        {
          "duration": 0.11111099999999396,
          "durationTicks": 96,
          "midi": 47,
          "name": "B2",
          "ticks": 158688,
          "time": 183.666483,
          "velocity": 0.6692913385826772
        },
        {
          "duration": 0.11111099999999396,
          "durationTicks": 96,
          "midi": 71,
          "name": "B4",
          "ticks": 158688,
          "time": 183.666483,
          "velocity": 0.6692913385826772
        },
        {
          "duration": 0.11111099999999396,
          "durationTicks": 96,
          "midi": 59,
          "name": "B3",
          "ticks": 158688,
          "time": 183.666483,
          "velocity": 0.6692913385826772
        },
        {
          "duration": 0.11111100000002239,
          "durationTicks": 96,
          "midi": 59,
          "name": "B3",
          "ticks": 158784,
          "time": 183.777594,
          "velocity": 0.6692913385826772
        },
        {
          "duration": 0.11111100000002239,
          "durationTicks": 96,
          "midi": 71,
          "name": "B4",
          "ticks": 158784,
          "time": 183.777594,
          "velocity": 0.6692913385826772
        },
        {
          "duration": 0.11111100000002239,
          "durationTicks": 96,
          "midi": 47,
          "name": "B2",
          "ticks": 158784,
          "time": 183.777594,
          "velocity": 0.6692913385826772
        },
        {
          "duration": 0.22222199999998793,
          "durationTicks": 192,
          "midi": 47,
          "name": "B2",
          "ticks": 158880,
          "time": 183.88870500000002,
          "velocity": 0.6692913385826772
        },
        {
          "duration": 0.22222199999998793,
          "durationTicks": 192,
          "midi": 59,
          "name": "B3",
          "ticks": 158880,
          "time": 183.88870500000002,
          "velocity": 0.6692913385826772
        },
        {
          "duration": 0.22222199999998793,
          "durationTicks": 192,
          "midi": 71,
          "name": "B4",
          "ticks": 158880,
          "time": 183.88870500000002,
          "velocity": 0.6692913385826772
        },
        {
          "duration": 0.22222199999998793,
          "durationTicks": 192,
          "midi": 71,
          "name": "B4",
          "ticks": 159072,
          "time": 184.110927,
          "velocity": 0.6692913385826772
        },
        {
          "duration": 0.22222199999998793,
          "durationTicks": 192,
          "midi": 59,
          "name": "B3",
          "ticks": 159072,
          "time": 184.110927,
          "velocity": 0.6692913385826772
        },
        {
          "duration": 0.22222199999998793,
          "durationTicks": 192,
          "midi": 47,
          "name": "B2",
          "ticks": 159072,
          "time": 184.110927,
          "velocity": 0.6692913385826772
        },
        {
          "duration": 0.11111100000002239,
          "durationTicks": 96,
          "midi": 59,
          "name": "B3",
          "ticks": 159264,
          "time": 184.333149,
          "velocity": 0.6692913385826772
        },
        {
          "duration": 0.11111100000002239,
          "durationTicks": 96,
          "midi": 71,
          "name": "B4",
          "ticks": 159264,
          "time": 184.333149,
          "velocity": 0.6692913385826772
        },
        {
          "duration": 0.11111100000002239,
          "durationTicks": 96,
          "midi": 47,
          "name": "B2",
          "ticks": 159264,
          "time": 184.333149,
          "velocity": 0.6692913385826772
        },
        {
          "duration": 0.22222199999998793,
          "durationTicks": 192,
          "midi": 71,
          "name": "B4",
          "ticks": 159360,
          "time": 184.44426,
          "velocity": 0.6692913385826772
        },
        {
          "duration": 0.22222199999998793,
          "durationTicks": 192,
          "midi": 47,
          "name": "B2",
          "ticks": 159360,
          "time": 184.44426,
          "velocity": 0.6692913385826772
        },
        {
          "duration": 0.22222199999998793,
          "durationTicks": 192,
          "midi": 59,
          "name": "B3",
          "ticks": 159360,
          "time": 184.44426,
          "velocity": 0.6692913385826772
        },
        {
          "duration": 0.22222199999998793,
          "durationTicks": 192,
          "midi": 71,
          "name": "B4",
          "ticks": 159552,
          "time": 184.666482,
          "velocity": 0.6692913385826772
        },
        {
          "duration": 0.22222199999998793,
          "durationTicks": 192,
          "midi": 59,
          "name": "B3",
          "ticks": 159552,
          "time": 184.666482,
          "velocity": 0.6692913385826772
        },
        {
          "duration": 0.22222199999998793,
          "durationTicks": 192,
          "midi": 83,
          "name": "B5",
          "ticks": 159552,
          "time": 184.666482,
          "velocity": 0.6692913385826772
        },
        {
          "duration": 0.22222200000001635,
          "durationTicks": 192,
          "midi": 61,
          "name": "C#4",
          "ticks": 159744,
          "time": 184.888704,
          "velocity": 0.6692913385826772
        },
        {
          "duration": 0.22222200000001635,
          "durationTicks": 192,
          "midi": 73,
          "name": "C#5",
          "ticks": 159744,
          "time": 184.888704,
          "velocity": 0.6692913385826772
        },
        {
          "duration": 0.22222200000001635,
          "durationTicks": 192,
          "midi": 49,
          "name": "C#3",
          "ticks": 159744,
          "time": 184.888704,
          "velocity": 0.6692913385826772
        },
        {
          "duration": 0.22222199999998793,
          "durationTicks": 192,
          "midi": 49,
          "name": "C#3",
          "ticks": 159936,
          "time": 185.110926,
          "velocity": 0.6692913385826772
        },
        {
          "duration": 0.22222199999998793,
          "durationTicks": 192,
          "midi": 61,
          "name": "C#4",
          "ticks": 159936,
          "time": 185.110926,
          "velocity": 0.6692913385826772
        },
        {
          "duration": 0.22222199999998793,
          "durationTicks": 192,
          "midi": 73,
          "name": "C#5",
          "ticks": 159936,
          "time": 185.110926,
          "velocity": 0.6692913385826772
        },
        {
          "duration": 0.11111099999999396,
          "durationTicks": 96,
          "midi": 61,
          "name": "C#4",
          "ticks": 160128,
          "time": 185.333148,
          "velocity": 0.6692913385826772
        },
        {
          "duration": 0.11111099999999396,
          "durationTicks": 96,
          "midi": 49,
          "name": "C#3",
          "ticks": 160128,
          "time": 185.333148,
          "velocity": 0.6692913385826772
        },
        {
          "duration": 0.11111099999999396,
          "durationTicks": 96,
          "midi": 73,
          "name": "C#5",
          "ticks": 160128,
          "time": 185.333148,
          "velocity": 0.6692913385826772
        },
        {
          "duration": 0.11111100000002239,
          "durationTicks": 96,
          "midi": 61,
          "name": "C#4",
          "ticks": 160224,
          "time": 185.444259,
          "velocity": 0.6692913385826772
        },
        {
          "duration": 0.11111100000002239,
          "durationTicks": 96,
          "midi": 73,
          "name": "C#5",
          "ticks": 160224,
          "time": 185.444259,
          "velocity": 0.6692913385826772
        },
        {
          "duration": 0.11111100000002239,
          "durationTicks": 96,
          "midi": 49,
          "name": "C#3",
          "ticks": 160224,
          "time": 185.444259,
          "velocity": 0.6692913385826772
        },
        {
          "duration": 0.11111099999999396,
          "durationTicks": 96,
          "midi": 49,
          "name": "C#3",
          "ticks": 160320,
          "time": 185.55537,
          "velocity": 0.6692913385826772
        },
        {
          "duration": 0.11111099999999396,
          "durationTicks": 96,
          "midi": 61,
          "name": "C#4",
          "ticks": 160320,
          "time": 185.55537,
          "velocity": 0.6692913385826772
        },
        {
          "duration": 0.11111099999999396,
          "durationTicks": 96,
          "midi": 73,
          "name": "C#5",
          "ticks": 160320,
          "time": 185.55537,
          "velocity": 0.6692913385826772
        },
        {
          "duration": 0.22222199999998793,
          "durationTicks": 192,
          "midi": 73,
          "name": "C#5",
          "ticks": 160416,
          "time": 185.666481,
          "velocity": 0.6692913385826772
        },
        {
          "duration": 0.22222199999998793,
          "durationTicks": 192,
          "midi": 49,
          "name": "C#3",
          "ticks": 160416,
          "time": 185.666481,
          "velocity": 0.6692913385826772
        },
        {
          "duration": 0.22222199999998793,
          "durationTicks": 192,
          "midi": 61,
          "name": "C#4",
          "ticks": 160416,
          "time": 185.666481,
          "velocity": 0.6692913385826772
        },
        {
          "duration": 0.22222200000001635,
          "durationTicks": 192,
          "midi": 73,
          "name": "C#5",
          "ticks": 160608,
          "time": 185.888703,
          "velocity": 0.6692913385826772
        },
        {
          "duration": 0.22222200000001635,
          "durationTicks": 192,
          "midi": 49,
          "name": "C#3",
          "ticks": 160608,
          "time": 185.888703,
          "velocity": 0.6692913385826772
        },
        {
          "duration": 0.22222200000001635,
          "durationTicks": 192,
          "midi": 61,
          "name": "C#4",
          "ticks": 160608,
          "time": 185.888703,
          "velocity": 0.6692913385826772
        },
        {
          "duration": 0.11111099999999396,
          "durationTicks": 96,
          "midi": 49,
          "name": "C#3",
          "ticks": 160800,
          "time": 186.110925,
          "velocity": 0.6692913385826772
        },
        {
          "duration": 0.11111099999999396,
          "durationTicks": 96,
          "midi": 73,
          "name": "C#5",
          "ticks": 160800,
          "time": 186.110925,
          "velocity": 0.6692913385826772
        },
        {
          "duration": 0.11111099999999396,
          "durationTicks": 96,
          "midi": 61,
          "name": "C#4",
          "ticks": 160800,
          "time": 186.110925,
          "velocity": 0.6692913385826772
        },
        {
          "duration": 0.22222199999998793,
          "durationTicks": 192,
          "midi": 61,
          "name": "C#4",
          "ticks": 160896,
          "time": 186.222036,
          "velocity": 0.6692913385826772
        },
        {
          "duration": 0.22222199999998793,
          "durationTicks": 192,
          "midi": 73,
          "name": "C#5",
          "ticks": 160896,
          "time": 186.222036,
          "velocity": 0.6692913385826772
        },
        {
          "duration": 0.22222199999998793,
          "durationTicks": 192,
          "midi": 49,
          "name": "C#3",
          "ticks": 160896,
          "time": 186.222036,
          "velocity": 0.6692913385826772
        },
        {
          "duration": 0.22222200000001635,
          "durationTicks": 192,
          "midi": 73,
          "name": "C#5",
          "ticks": 161088,
          "time": 186.444258,
          "velocity": 0.6692913385826772
        },
        {
          "duration": 0.22222200000001635,
          "durationTicks": 192,
          "midi": 61,
          "name": "C#4",
          "ticks": 161088,
          "time": 186.444258,
          "velocity": 0.6692913385826772
        },
        {
          "duration": 0.22222200000001635,
          "durationTicks": 192,
          "midi": 85,
          "name": "C#6",
          "ticks": 161088,
          "time": 186.444258,
          "velocity": 0.6692913385826772
        },
        {
          "duration": 0.22222199999998793,
          "durationTicks": 192,
          "midi": 49,
          "name": "C#3",
          "ticks": 161280,
          "time": 186.66648,
          "velocity": 0.6692913385826772
        },
        {
          "duration": 0.22222199999998793,
          "durationTicks": 192,
          "midi": 73,
          "name": "C#5",
          "ticks": 161280,
          "time": 186.66648,
          "velocity": 0.6692913385826772
        },
        {
          "duration": 0.22222199999998793,
          "durationTicks": 192,
          "midi": 61,
          "name": "C#4",
          "ticks": 161280,
          "time": 186.66648,
          "velocity": 0.6692913385826772
        },
        {
          "duration": 0.22222200000001635,
          "durationTicks": 192,
          "midi": 61,
          "name": "C#4",
          "ticks": 161472,
          "time": 186.888702,
          "velocity": 0.6692913385826772
        },
        {
          "duration": 0.22222200000001635,
          "durationTicks": 192,
          "midi": 73,
          "name": "C#5",
          "ticks": 161472,
          "time": 186.888702,
          "velocity": 0.6692913385826772
        },
        {
          "duration": 0.22222200000001635,
          "durationTicks": 192,
          "midi": 49,
          "name": "C#3",
          "ticks": 161472,
          "time": 186.888702,
          "velocity": 0.6692913385826772
        },
        {
          "duration": 0.11111099999999396,
          "durationTicks": 96,
          "midi": 49,
          "name": "C#3",
          "ticks": 161664,
          "time": 187.110924,
          "velocity": 0.6692913385826772
        },
        {
          "duration": 0.11111099999999396,
          "durationTicks": 96,
          "midi": 61,
          "name": "C#4",
          "ticks": 161664,
          "time": 187.110924,
          "velocity": 0.6692913385826772
        },
        {
          "duration": 0.11111099999999396,
          "durationTicks": 96,
          "midi": 73,
          "name": "C#5",
          "ticks": 161664,
          "time": 187.110924,
          "velocity": 0.6692913385826772
        },
        {
          "duration": 0.11111099999999396,
          "durationTicks": 96,
          "midi": 49,
          "name": "C#3",
          "ticks": 161760,
          "time": 187.222035,
          "velocity": 0.6692913385826772
        },
        {
          "duration": 0.11111099999999396,
          "durationTicks": 96,
          "midi": 61,
          "name": "C#4",
          "ticks": 161760,
          "time": 187.222035,
          "velocity": 0.6692913385826772
        },
        {
          "duration": 0.11111099999999396,
          "durationTicks": 96,
          "midi": 73,
          "name": "C#5",
          "ticks": 161760,
          "time": 187.222035,
          "velocity": 0.6692913385826772
        },
        {
          "duration": 0.11111099999999396,
          "durationTicks": 96,
          "midi": 73,
          "name": "C#5",
          "ticks": 161856,
          "time": 187.333146,
          "velocity": 0.6692913385826772
        },
        {
          "duration": 0.11111099999999396,
          "durationTicks": 96,
          "midi": 49,
          "name": "C#3",
          "ticks": 161856,
          "time": 187.333146,
          "velocity": 0.6692913385826772
        },
        {
          "duration": 0.11111099999999396,
          "durationTicks": 96,
          "midi": 61,
          "name": "C#4",
          "ticks": 161856,
          "time": 187.333146,
          "velocity": 0.6692913385826772
        },
        {
          "duration": 0.22222200000001635,
          "durationTicks": 192,
          "midi": 49,
          "name": "C#3",
          "ticks": 161952,
          "time": 187.444257,
          "velocity": 0.6692913385826772
        },
        {
          "duration": 0.22222200000001635,
          "durationTicks": 192,
          "midi": 61,
          "name": "C#4",
          "ticks": 161952,
          "time": 187.444257,
          "velocity": 0.6692913385826772
        },
        {
          "duration": 0.22222200000001635,
          "durationTicks": 192,
          "midi": 73,
          "name": "C#5",
          "ticks": 161952,
          "time": 187.444257,
          "velocity": 0.6692913385826772
        },
        {
          "duration": 0.22222199999998793,
          "durationTicks": 192,
          "midi": 49,
          "name": "C#3",
          "ticks": 162144,
          "time": 187.666479,
          "velocity": 0.6692913385826772
        },
        {
          "duration": 0.22222199999998793,
          "durationTicks": 192,
          "midi": 61,
          "name": "C#4",
          "ticks": 162144,
          "time": 187.666479,
          "velocity": 0.6692913385826772
        },
        {
          "duration": 0.11111099999999396,
          "durationTicks": 96,
          "midi": 49,
          "name": "C#3",
          "ticks": 162336,
          "time": 187.888701,
          "velocity": 0.6692913385826772
        },
        {
          "duration": 0.11111099999999396,
          "durationTicks": 96,
          "midi": 61,
          "name": "C#4",
          "ticks": 162336,
          "time": 187.888701,
          "velocity": 0.6692913385826772
        },
        {
          "duration": 0.22222200000001635,
          "durationTicks": 192,
          "midi": 49,
          "name": "C#3",
          "ticks": 162432,
          "time": 187.999812,
          "velocity": 0.6692913385826772
        },
        {
          "duration": 0.22222200000001635,
          "durationTicks": 192,
          "midi": 61,
          "name": "C#4",
          "ticks": 162432,
          "time": 187.999812,
          "velocity": 0.6692913385826772
        },
        {
          "duration": 0.22222199999998793,
          "durationTicks": 192,
          "midi": 85,
          "name": "C#6",
          "ticks": 162624,
          "time": 188.222034,
          "velocity": 0.6692913385826772
        },
        {
          "duration": 0.22222199999998793,
          "durationTicks": 192,
          "midi": 61,
          "name": "C#4",
          "ticks": 162624,
          "time": 188.222034,
          "velocity": 0.6692913385826772
        },
        {
          "duration": 1.6666649999999947,
          "durationTicks": 1440,
          "midi": 45,
          "name": "A2",
          "ticks": 164352,
          "time": 190.222032,
          "velocity": 0.6692913385826772
        },
        {
          "duration": 1.6666649999999947,
          "durationTicks": 1440,
          "midi": 57,
          "name": "A3",
          "ticks": 164352,
          "time": 190.222032,
          "velocity": 0.6692913385826772
        },
        {
          "duration": 1.6666649999999947,
          "durationTicks": 1440,
          "midi": 59,
          "name": "B3",
          "ticks": 165888,
          "time": 191.999808,
          "velocity": 0.6692913385826772
        },
        {
          "duration": 1.6666649999999947,
          "durationTicks": 1440,
          "midi": 47,
          "name": "B2",
          "ticks": 165888,
          "time": 191.999808,
          "velocity": 0.6692913385826772
        },
        {
          "duration": 0.8888880000000086,
          "durationTicks": 768,
          "midi": 61,
          "name": "C#4",
          "ticks": 167424,
          "time": 193.777584,
          "velocity": 0.6692913385826772
        },
        {
          "duration": 0.8888880000000086,
          "durationTicks": 768,
          "midi": 49,
          "name": "C#3",
          "ticks": 167424,
          "time": 193.777584,
          "velocity": 0.6692913385826772
        },
        {
          "duration": 0.8888880000000086,
          "durationTicks": 768,
          "midi": 60,
          "name": "C4",
          "ticks": 168192,
          "time": 194.666472,
          "velocity": 0.6692913385826772
        },
        {
          "duration": 0.8888880000000086,
          "durationTicks": 768,
          "midi": 48,
          "name": "C3",
          "ticks": 168192,
          "time": 194.666472,
          "velocity": 0.6692913385826772
        },
        {
          "duration": 0.8888880000000086,
          "durationTicks": 768,
          "midi": 59,
          "name": "B3",
          "ticks": 168960,
          "time": 195.55536,
          "velocity": 0.6692913385826772
        },
        {
          "duration": 0.8888880000000086,
          "durationTicks": 768,
          "midi": 47,
          "name": "B2",
          "ticks": 168960,
          "time": 195.55536,
          "velocity": 0.6692913385826772
        },
        {
          "duration": 0.8888879999999801,
          "durationTicks": 768,
          "midi": 58,
          "name": "A#3",
          "ticks": 169728,
          "time": 196.44424800000002,
          "velocity": 0.6692913385826772
        },
        {
          "duration": 0.8888879999999801,
          "durationTicks": 768,
          "midi": 46,
          "name": "A#2",
          "ticks": 169728,
          "time": 196.44424800000002,
          "velocity": 0.6692913385826772
        },
        {
          "duration": 1.6666649999999947,
          "durationTicks": 1440,
          "midi": 45,
          "name": "A2",
          "ticks": 170496,
          "time": 197.333136,
          "velocity": 0.6692913385826772
        },
        {
          "duration": 1.6666649999999947,
          "durationTicks": 1440,
          "midi": 57,
          "name": "A3",
          "ticks": 170496,
          "time": 197.333136,
          "velocity": 0.6692913385826772
        },
        {
          "duration": 1.6666649999999947,
          "durationTicks": 1440,
          "midi": 47,
          "name": "B2",
          "ticks": 172032,
          "time": 199.110912,
          "velocity": 0.6692913385826772
        },
        {
          "duration": 1.6666649999999947,
          "durationTicks": 1440,
          "midi": 59,
          "name": "B3",
          "ticks": 172032,
          "time": 199.110912,
          "velocity": 0.6692913385826772
        },
        {
          "duration": 3.3333299999999895,
          "durationTicks": 2880,
          "midi": 49,
          "name": "C#3",
          "ticks": 173568,
          "time": 200.888688,
          "velocity": 0.6692913385826772
        },
        {
          "duration": 3.3333299999999895,
          "durationTicks": 2880,
          "midi": 61,
          "name": "C#4",
          "ticks": 173568,
          "time": 200.888688,
          "velocity": 0.6692913385826772
        },
        {
          "duration": 1.6666649999999947,
          "durationTicks": 1440,
          "midi": 57,
          "name": "A3",
          "ticks": 176640,
          "time": 204.44424,
          "velocity": 0.6692913385826772
        },
        {
          "duration": 1.6666649999999947,
          "durationTicks": 1440,
          "midi": 45,
          "name": "A2",
          "ticks": 176640,
          "time": 204.44424,
          "velocity": 0.6692913385826772
        },
        {
          "duration": 1.6666649999999947,
          "durationTicks": 1440,
          "midi": 47,
          "name": "B2",
          "ticks": 178176,
          "time": 206.222016,
          "velocity": 0.6692913385826772
        },
        {
          "duration": 1.6666649999999947,
          "durationTicks": 1440,
          "midi": 59,
          "name": "B3",
          "ticks": 178176,
          "time": 206.222016,
          "velocity": 0.6692913385826772
        },
        {
          "duration": 0.8888879999999801,
          "durationTicks": 768,
          "midi": 49,
          "name": "C#3",
          "ticks": 179712,
          "time": 207.999792,
          "velocity": 0.6692913385826772
        },
        {
          "duration": 0.8888879999999801,
          "durationTicks": 768,
          "midi": 61,
          "name": "C#4",
          "ticks": 179712,
          "time": 207.999792,
          "velocity": 0.6692913385826772
        },
        {
          "duration": 0.8888880000000086,
          "durationTicks": 768,
          "midi": 48,
          "name": "C3",
          "ticks": 180480,
          "time": 208.88868,
          "velocity": 0.6692913385826772
        },
        {
          "duration": 0.8888880000000086,
          "durationTicks": 768,
          "midi": 60,
          "name": "C4",
          "ticks": 180480,
          "time": 208.88868,
          "velocity": 0.6692913385826772
        },
        {
          "duration": 0.8888880000000086,
          "durationTicks": 768,
          "midi": 59,
          "name": "B3",
          "ticks": 181248,
          "time": 209.777568,
          "velocity": 0.6692913385826772
        },
        {
          "duration": 0.8888880000000086,
          "durationTicks": 768,
          "midi": 47,
          "name": "B2",
          "ticks": 181248,
          "time": 209.777568,
          "velocity": 0.6692913385826772
        },
        {
          "duration": 0.8888879999999801,
          "durationTicks": 768,
          "midi": 46,
          "name": "A#2",
          "ticks": 182016,
          "time": 210.666456,
          "velocity": 0.6692913385826772
        },
        {
          "duration": 0.8888879999999801,
          "durationTicks": 768,
          "midi": 58,
          "name": "A#3",
          "ticks": 182016,
          "time": 210.666456,
          "velocity": 0.6692913385826772
        },
        {
          "duration": 1.6666650000000232,
          "durationTicks": 1440,
          "midi": 57,
          "name": "A3",
          "ticks": 182784,
          "time": 211.555344,
          "velocity": 0.6692913385826772
        },
        {
          "duration": 1.6666650000000232,
          "durationTicks": 1440,
          "midi": 45,
          "name": "A2",
          "ticks": 182784,
          "time": 211.555344,
          "velocity": 0.6692913385826772
        },
        {
          "duration": 1.6666649999999947,
          "durationTicks": 1440,
          "midi": 47,
          "name": "B2",
          "ticks": 184320,
          "time": 213.33312,
          "velocity": 0.6692913385826772
        },
        {
          "duration": 1.6666649999999947,
          "durationTicks": 1440,
          "midi": 59,
          "name": "B3",
          "ticks": 184320,
          "time": 213.33312,
          "velocity": 0.6692913385826772
        },
        {
          "duration": 5.111106000000007,
          "durationTicks": 4416,
          "midi": 49,
          "name": "C#3",
          "ticks": 185856,
          "time": 215.110896,
          "velocity": 0.6692913385826772
        },
        {
          "duration": 5.111106000000007,
          "durationTicks": 4416,
          "midi": 61,
          "name": "C#4",
          "ticks": 185856,
          "time": 215.110896,
          "velocity": 0.6692913385826772
        }
      ],
      "endOfTrackTicks": 190272
    },
    {
      "channel": 3,
      "controlChanges": {},
      "pitchBends": [],
      "instrument": {
        "family": "synth lead",
        "number": 82,
        "name": "lead 3 (calliope)"
      },
      "name": "8-Bit Sine",
      "notes": [
        {
          "duration": 0.16666650000000516,
          "durationTicks": 144,
          "midi": 72,
          "name": "C5",
          "ticks": 92928,
          "time": 107.555448,
          "velocity": 0.3937007874015748
        },
        {
          "duration": 0.16666650000000516,
          "durationTicks": 144,
          "midi": 73,
          "name": "C#5",
          "ticks": 93120,
          "time": 107.77767,
          "velocity": 0.3937007874015748
        },
        {
          "duration": 0.16666650000000516,
          "durationTicks": 144,
          "midi": 73,
          "name": "C#5",
          "ticks": 93312,
          "time": 107.999892,
          "velocity": 0.3937007874015748
        },
        {
          "duration": 0.16666649999999095,
          "durationTicks": 144,
          "midi": 73,
          "name": "C#5",
          "ticks": 93504,
          "time": 108.222114,
          "velocity": 0.3937007874015748
        },
        {
          "duration": 0.16666650000000516,
          "durationTicks": 144,
          "midi": 71,
          "name": "B4",
          "ticks": 94464,
          "time": 109.333224,
          "velocity": 0.3937007874015748
        },
        {
          "duration": 0.16666649999999095,
          "durationTicks": 144,
          "midi": 72,
          "name": "C5",
          "ticks": 94656,
          "time": 109.555446,
          "velocity": 0.3937007874015748
        },
        {
          "duration": 0.16666649999999095,
          "durationTicks": 144,
          "midi": 72,
          "name": "C5",
          "ticks": 94848,
          "time": 109.777668,
          "velocity": 0.3937007874015748
        },
        {
          "duration": 0.16666649999999095,
          "durationTicks": 144,
          "midi": 72,
          "name": "C5",
          "ticks": 95040,
          "time": 109.99989000000001,
          "velocity": 0.3937007874015748
        },
        {
          "duration": 0.16666649999999095,
          "durationTicks": 144,
          "midi": 73,
          "name": "C#5",
          "ticks": 96000,
          "time": 111.111,
          "velocity": 0.3937007874015748
        },
        {
          "duration": 0.16666649999999095,
          "durationTicks": 144,
          "midi": 73,
          "name": "C#5",
          "ticks": 96192,
          "time": 111.333222,
          "velocity": 0.3937007874015748
        },
        {
          "duration": 0.16666649999999095,
          "durationTicks": 144,
          "midi": 73,
          "name": "C#5",
          "ticks": 96384,
          "time": 111.55544400000001,
          "velocity": 0.3937007874015748
        },
        {
          "duration": 0.16666650000000516,
          "durationTicks": 144,
          "midi": 73,
          "name": "C#5",
          "ticks": 96576,
          "time": 111.777666,
          "velocity": 0.3937007874015748
        },
        {
          "duration": 0.16666649999999095,
          "durationTicks": 144,
          "midi": 73,
          "name": "C#5",
          "ticks": 97536,
          "time": 112.88877600000001,
          "velocity": 0.3937007874015748
        },
        {
          "duration": 0.16666650000000516,
          "durationTicks": 144,
          "midi": 75,
          "name": "D#5",
          "ticks": 97728,
          "time": 113.110998,
          "velocity": 0.3937007874015748
        },
        {
          "duration": 0.16666650000000516,
          "durationTicks": 144,
          "midi": 75,
          "name": "D#5",
          "ticks": 97920,
          "time": 113.33322,
          "velocity": 0.3937007874015748
        },
        {
          "duration": 0.16666650000000516,
          "durationTicks": 144,
          "midi": 75,
          "name": "D#5",
          "ticks": 98112,
          "time": 113.555442,
          "velocity": 0.3937007874015748
        },
        {
          "duration": 0.4444440000000043,
          "durationTicks": 384,
          "midi": 76,
          "name": "E5",
          "ticks": 99456,
          "time": 115.110996,
          "velocity": 0.3937007874015748
        },
        {
          "duration": 0.8888879999999943,
          "durationTicks": 768,
          "midi": 75,
          "name": "D#5",
          "ticks": 99840,
          "time": 115.55544,
          "velocity": 0.3937007874015748
        },
        {
          "duration": 0.8888880000000086,
          "durationTicks": 768,
          "midi": 73,
          "name": "C#5",
          "ticks": 100608,
          "time": 116.444328,
          "velocity": 0.3937007874015748
        },
        {
          "duration": 3.3333299999999895,
          "durationTicks": 2880,
          "midi": 76,
          "name": "E5",
          "ticks": 101376,
          "time": 117.33321600000001,
          "velocity": 0.3937007874015748
        },
        {
          "duration": 0.4444440000000043,
          "durationTicks": 384,
          "midi": 76,
          "name": "E5",
          "ticks": 105600,
          "time": 122.2221,
          "velocity": 0.3937007874015748
        },
        {
          "duration": 0.8888879999999943,
          "durationTicks": 768,
          "midi": 75,
          "name": "D#5",
          "ticks": 105984,
          "time": 122.666544,
          "velocity": 0.3937007874015748
        },
        {
          "duration": 0.8888880000000086,
          "durationTicks": 768,
          "midi": 73,
          "name": "C#5",
          "ticks": 106752,
          "time": 123.555432,
          "velocity": 0.3937007874015748
        },
        {
          "duration": 0.44444399999999007,
          "durationTicks": 384,
          "midi": 73,
          "name": "C#5",
          "ticks": 107520,
          "time": 124.44432,
          "velocity": 0.3937007874015748
        },
        {
          "duration": 0.11111100000000818,
          "durationTicks": 96,
          "midi": 72,
          "name": "C5",
          "ticks": 107904,
          "time": 124.888764,
          "velocity": 0.3937007874015748
        },
        {
          "duration": 0.11111099999999396,
          "durationTicks": 96,
          "midi": 71,
          "name": "B4",
          "ticks": 108000,
          "time": 124.999875,
          "velocity": 0.3937007874015748
        },
        {
          "duration": 0.11111100000000818,
          "durationTicks": 96,
          "midi": 70,
          "name": "A#4",
          "ticks": 108096,
          "time": 125.110986,
          "velocity": 0.3937007874015748
        },
        {
          "duration": 0.11111099999999396,
          "durationTicks": 96,
          "midi": 69,
          "name": "A4",
          "ticks": 108192,
          "time": 125.222097,
          "velocity": 0.3937007874015748
        },
        {
          "duration": 0.11111100000000818,
          "durationTicks": 96,
          "midi": 68,
          "name": "G#4",
          "ticks": 108288,
          "time": 125.333208,
          "velocity": 0.3937007874015748
        },
        {
          "duration": 0.11111099999999396,
          "durationTicks": 96,
          "midi": 67,
          "name": "G4",
          "ticks": 108384,
          "time": 125.44431900000001,
          "velocity": 0.3937007874015748
        },
        {
          "duration": 0.11111099999999396,
          "durationTicks": 96,
          "midi": 66,
          "name": "F#4",
          "ticks": 108480,
          "time": 125.55543,
          "velocity": 0.3937007874015748
        },
        {
          "duration": 0.11111100000000818,
          "durationTicks": 96,
          "midi": 65,
          "name": "F4",
          "ticks": 108576,
          "time": 125.666541,
          "velocity": 0.3937007874015748
        },
        {
          "duration": 0.11111099999999396,
          "durationTicks": 96,
          "midi": 64,
          "name": "E4",
          "ticks": 108672,
          "time": 125.777652,
          "velocity": 0.3937007874015748
        },
        {
          "duration": 0.11111100000000818,
          "durationTicks": 96,
          "midi": 63,
          "name": "D#4",
          "ticks": 108768,
          "time": 125.888763,
          "velocity": 0.3937007874015748
        },
        {
          "duration": 0.11111099999999396,
          "durationTicks": 96,
          "midi": 62,
          "name": "D4",
          "ticks": 108864,
          "time": 125.999874,
          "velocity": 0.3937007874015748
        },
        {
          "duration": 0.11111100000000818,
          "durationTicks": 96,
          "midi": 61,
          "name": "C#4",
          "ticks": 108960,
          "time": 126.110985,
          "velocity": 0.3937007874015748
        },
        {
          "duration": 0.11111099999999396,
          "durationTicks": 96,
          "midi": 60,
          "name": "C4",
          "ticks": 109056,
          "time": 126.22209600000001,
          "velocity": 0.3937007874015748
        },
        {
          "duration": 0.11111099999999396,
          "durationTicks": 96,
          "midi": 59,
          "name": "B3",
          "ticks": 109152,
          "time": 126.333207,
          "velocity": 0.3937007874015748
        },
        {
          "duration": 0.11111100000000818,
          "durationTicks": 96,
          "midi": 58,
          "name": "A#3",
          "ticks": 109248,
          "time": 126.444318,
          "velocity": 0.3937007874015748
        },
        {
          "duration": 0.11111099999999396,
          "durationTicks": 96,
          "midi": 57,
          "name": "A3",
          "ticks": 109344,
          "time": 126.555429,
          "velocity": 0.3937007874015748
        },
        {
          "duration": 0.11111100000000818,
          "durationTicks": 96,
          "midi": 56,
          "name": "G#3",
          "ticks": 109440,
          "time": 126.66654,
          "velocity": 0.3937007874015748
        },
        {
          "duration": 0.11111099999999396,
          "durationTicks": 96,
          "midi": 55,
          "name": "G3",
          "ticks": 109536,
          "time": 126.777651,
          "velocity": 0.3937007874015748
        },
        {
          "duration": 0.11111100000000818,
          "durationTicks": 96,
          "midi": 54,
          "name": "F#3",
          "ticks": 109632,
          "time": 126.888762,
          "velocity": 0.3937007874015748
        },
        {
          "duration": 0.11111099999999396,
          "durationTicks": 96,
          "midi": 53,
          "name": "F3",
          "ticks": 109728,
          "time": 126.99987300000001,
          "velocity": 0.3937007874015748
        },
        {
          "duration": 0.11111099999999396,
          "durationTicks": 96,
          "midi": 52,
          "name": "E3",
          "ticks": 109824,
          "time": 127.110984,
          "velocity": 0.3937007874015748
        },
        {
          "duration": 0.11111100000000818,
          "durationTicks": 96,
          "midi": 51,
          "name": "D#3",
          "ticks": 109920,
          "time": 127.222095,
          "velocity": 0.3937007874015748
        },
        {
          "duration": 0.11111099999999396,
          "durationTicks": 96,
          "midi": 50,
          "name": "D3",
          "ticks": 110016,
          "time": 127.333206,
          "velocity": 0.3937007874015748
        },
        {
          "duration": 0.11111100000000818,
          "durationTicks": 96,
          "midi": 49,
          "name": "C#3",
          "ticks": 110112,
          "time": 127.444317,
          "velocity": 0.3937007874015748
        }
      ],
      "endOfTrackTicks": 110208
    },
    {
      "channel": 4,
      "controlChanges": {},
      "pitchBends": [],
      "instrument": {
        "family": "synth lead",
        "number": 80,
        "name": "lead 1 (square)"
      },
      "name": "8-Bit Square",
      "notes": [
        {
          "duration": 0.11111100000000107,
          "durationTicks": 96,
          "midi": 52,
          "name": "E3",
          "ticks": 30336,
          "time": 35.111076,
          "velocity": 0.3937007874015748
        },
        {
          "duration": 0.11111100000000107,
          "durationTicks": 96,
          "midi": 56,
          "name": "G#3",
          "ticks": 30432,
          "time": 35.222187,
          "velocity": 0.3937007874015748
        },
        {
          "duration": 0.11111100000000107,
          "durationTicks": 96,
          "midi": 59,
          "name": "B3",
          "ticks": 30528,
          "time": 35.333298,
          "velocity": 0.3937007874015748
        },
        {
          "duration": 0.11111100000000107,
          "durationTicks": 96,
          "midi": 61,
          "name": "C#4",
          "ticks": 30624,
          "time": 35.444409,
          "velocity": 0.3937007874015748
        },
        {
          "duration": 0.22222200000000214,
          "durationTicks": 192,
          "midi": 61,
          "name": "C#4",
          "ticks": 30720,
          "time": 35.55552,
          "velocity": 0.3937007874015748
        },
        {
          "duration": 0.22222199999999503,
          "durationTicks": 192,
          "midi": 56,
          "name": "G#3",
          "ticks": 30912,
          "time": 35.777742,
          "velocity": 0.3937007874015748
        },
        {
          "duration": 0.22222200000000214,
          "durationTicks": 192,
          "midi": 63,
          "name": "D#4",
          "ticks": 31104,
          "time": 35.999964,
          "velocity": 0.3937007874015748
        },
        {
          "duration": 0.22222200000000214,
          "durationTicks": 192,
          "midi": 56,
          "name": "G#3",
          "ticks": 31296,
          "time": 36.222186,
          "velocity": 0.3937007874015748
        },
        {
          "duration": 0.22222199999999503,
          "durationTicks": 192,
          "midi": 64,
          "name": "E4",
          "ticks": 31488,
          "time": 36.444408,
          "velocity": 0.3937007874015748
        },
        {
          "duration": 0.22222200000000214,
          "durationTicks": 192,
          "midi": 59,
          "name": "B3",
          "ticks": 31680,
          "time": 36.66663,
          "velocity": 0.3937007874015748
        },
        {
          "duration": 0.22222200000000214,
          "durationTicks": 192,
          "midi": 64,
          "name": "E4",
          "ticks": 31872,
          "time": 36.888852,
          "velocity": 0.3937007874015748
        },
        {
          "duration": 0.22222199999999503,
          "durationTicks": 192,
          "midi": 66,
          "name": "F#4",
          "ticks": 32064,
          "time": 37.111074,
          "velocity": 0.3937007874015748
        },
        {
          "duration": 0.4444440000000043,
          "durationTicks": 384,
          "midi": 63,
          "name": "D#4",
          "ticks": 32256,
          "time": 37.333296,
          "velocity": 0.3937007874015748
        },
        {
          "duration": 0.22222200000000214,
          "durationTicks": 192,
          "midi": 61,
          "name": "C#4",
          "ticks": 32640,
          "time": 37.77774,
          "velocity": 0.3937007874015748
        },
        {
          "duration": 0.22222199999999503,
          "durationTicks": 192,
          "midi": 56,
          "name": "G#3",
          "ticks": 32832,
          "time": 37.999962000000004,
          "velocity": 0.3937007874015748
        },
        {
          "duration": 0.22222200000000214,
          "durationTicks": 192,
          "midi": 61,
          "name": "C#4",
          "ticks": 33024,
          "time": 38.222184,
          "velocity": 0.3937007874015748
        },
        {
          "duration": 0.22222200000000214,
          "durationTicks": 192,
          "midi": 59,
          "name": "B3",
          "ticks": 33216,
          "time": 38.444406,
          "velocity": 0.3937007874015748
        },
        {
          "duration": 0.22222199999999503,
          "durationTicks": 192,
          "midi": 57,
          "name": "A3",
          "ticks": 33408,
          "time": 38.666628,
          "velocity": 0.3937007874015748
        },
        {
          "duration": 0.11111100000000107,
          "durationTicks": 96,
          "midi": 56,
          "name": "G#3",
          "ticks": 33600,
          "time": 38.88885,
          "velocity": 0.3937007874015748
        },
        {
          "duration": 0.11111100000000107,
          "durationTicks": 96,
          "midi": 57,
          "name": "A3",
          "ticks": 33696,
          "time": 38.999961,
          "velocity": 0.3937007874015748
        },
        {
          "duration": 0.22222200000000214,
          "durationTicks": 192,
          "midi": 59,
          "name": "B3",
          "ticks": 33792,
          "time": 39.111072,
          "velocity": 0.3937007874015748
        },
        {
          "duration": 0.22222199999999503,
          "durationTicks": 192,
          "midi": 57,
          "name": "A3",
          "ticks": 33984,
          "time": 39.333294,
          "velocity": 0.3937007874015748
        },
        {
          "duration": 0.22222200000000214,
          "durationTicks": 192,
          "midi": 56,
          "name": "G#3",
          "ticks": 34176,
          "time": 39.555516,
          "velocity": 0.3937007874015748
        },
        {
          "duration": 0.22222200000000214,
          "durationTicks": 192,
          "midi": 54,
          "name": "F#3",
          "ticks": 34368,
          "time": 39.777738,
          "velocity": 0.3937007874015748
        },
        {
          "duration": 0.05555549999999698,
          "durationTicks": 48,
          "midi": 52,
          "name": "E3",
          "ticks": 34560,
          "time": 39.99996,
          "velocity": 0.3937007874015748
        },
        {
          "duration": 0.05555549999999698,
          "durationTicks": 48,
          "midi": 64,
          "name": "E4",
          "ticks": 34584,
          "time": 40.02773775,
          "velocity": 0.3937007874015748
        },
        {
          "duration": 0.05555549999999698,
          "durationTicks": 48,
          "midi": 52,
          "name": "E3",
          "ticks": 34656,
          "time": 40.111071,
          "velocity": 0.3937007874015748
        },
        {
          "duration": 0.05555549999999698,
          "durationTicks": 48,
          "midi": 64,
          "name": "E4",
          "ticks": 34680,
          "time": 40.13884875,
          "velocity": 0.3937007874015748
        },
        {
          "duration": 0.05555549999999698,
          "durationTicks": 48,
          "midi": 54,
          "name": "F#3",
          "ticks": 34752,
          "time": 40.222182000000004,
          "velocity": 0.3937007874015748
        },
        {
          "duration": 0.05555549999999698,
          "durationTicks": 48,
          "midi": 66,
          "name": "F#4",
          "ticks": 34776,
          "time": 40.24995975,
          "velocity": 0.3937007874015748
        },
        {
          "duration": 0.05555550000000409,
          "durationTicks": 48,
          "midi": 54,
          "name": "F#3",
          "ticks": 34848,
          "time": 40.333293,
          "velocity": 0.3937007874015748
        },
        {
          "duration": 0.05555549999999698,
          "durationTicks": 48,
          "midi": 66,
          "name": "F#4",
          "ticks": 34872,
          "time": 40.36107075,
          "velocity": 0.3937007874015748
        },
        {
          "duration": 0.22222200000000214,
          "durationTicks": 192,
          "midi": 57,
          "name": "A3",
          "ticks": 34944,
          "time": 40.444404,
          "velocity": 0.3937007874015748
        },
        {
          "duration": 0.22222200000000214,
          "durationTicks": 192,
          "midi": 56,
          "name": "G#3",
          "ticks": 35136,
          "time": 40.666626,
          "velocity": 0.3937007874015748
        },
        {
          "duration": 0.4444439999999972,
          "durationTicks": 384,
          "midi": 49,
          "name": "C#3",
          "ticks": 35328,
          "time": 40.888848,
          "velocity": 0.3937007874015748
        },
        {
          "duration": 0.22222200000000214,
          "durationTicks": 192,
          "midi": 52,
          "name": "E3",
          "ticks": 35712,
          "time": 41.333292,
          "velocity": 0.3937007874015748
        },
        {
          "duration": 0.22222199999999503,
          "durationTicks": 192,
          "midi": 49,
          "name": "C#3",
          "ticks": 35904,
          "time": 41.555514,
          "velocity": 0.3937007874015748
        },
        {
          "duration": 0.22222200000000214,
          "durationTicks": 192,
          "midi": 56,
          "name": "G#3",
          "ticks": 36096,
          "time": 41.777736,
          "velocity": 0.3937007874015748
        },
        {
          "duration": 0.22222200000000214,
          "durationTicks": 192,
          "midi": 54,
          "name": "F#3",
          "ticks": 36288,
          "time": 41.999958,
          "velocity": 0.3937007874015748
        },
        {
          "duration": 0.22222200000000214,
          "durationTicks": 192,
          "midi": 52,
          "name": "E3",
          "ticks": 36480,
          "time": 42.22218,
          "velocity": 0.3937007874015748
        },
        {
          "duration": 0.22222199999999503,
          "durationTicks": 192,
          "midi": 51,
          "name": "D#3",
          "ticks": 36672,
          "time": 42.444402000000004,
          "velocity": 0.3937007874015748
        },
        {
          "duration": 0.05555549999999698,
          "durationTicks": 48,
          "midi": 61,
          "name": "C#4",
          "ticks": 70656,
          "time": 81.777696,
          "velocity": 0.3937007874015748
        },
        {
          "duration": 0.05555549999999698,
          "durationTicks": 48,
          "midi": 73,
          "name": "C#5",
          "ticks": 70704,
          "time": 81.8332515,
          "velocity": 0.3937007874015748
        },
        {
          "duration": 0.05555549999999698,
          "durationTicks": 48,
          "midi": 61,
          "name": "C#4",
          "ticks": 70752,
          "time": 81.888807,
          "velocity": 0.3937007874015748
        },
        {
          "duration": 0.05555550000001119,
          "durationTicks": 48,
          "midi": 73,
          "name": "C#5",
          "ticks": 70800,
          "time": 81.9443625,
          "velocity": 0.3937007874015748
        },
        {
          "duration": 0.05555549999999698,
          "durationTicks": 48,
          "midi": 57,
          "name": "A3",
          "ticks": 70848,
          "time": 81.99991800000001,
          "velocity": 0.3937007874015748
        },
        {
          "duration": 0.05555549999999698,
          "durationTicks": 48,
          "midi": 69,
          "name": "A4",
          "ticks": 70896,
          "time": 82.0554735,
          "velocity": 0.3937007874015748
        },
        {
          "duration": 0.05555549999999698,
          "durationTicks": 48,
          "midi": 57,
          "name": "A3",
          "ticks": 70944,
          "time": 82.111029,
          "velocity": 0.3937007874015748
        },
        {
          "duration": 0.05555549999999698,
          "durationTicks": 48,
          "midi": 69,
          "name": "A4",
          "ticks": 70992,
          "time": 82.1665845,
          "velocity": 0.3937007874015748
        },
        {
          "duration": 0.05555550000001119,
          "durationTicks": 48,
          "midi": 61,
          "name": "C#4",
          "ticks": 71040,
          "time": 82.22214,
          "velocity": 0.3937007874015748
        },
        {
          "duration": 0.05555549999999698,
          "durationTicks": 48,
          "midi": 73,
          "name": "C#5",
          "ticks": 71088,
          "time": 82.27769550000001,
          "velocity": 0.3937007874015748
        },
        {
          "duration": 0.05555549999999698,
          "durationTicks": 48,
          "midi": 61,
          "name": "C#4",
          "ticks": 71136,
          "time": 82.333251,
          "velocity": 0.3937007874015748
        },
        {
          "duration": 0.05555549999999698,
          "durationTicks": 48,
          "midi": 73,
          "name": "C#5",
          "ticks": 71184,
          "time": 82.3888065,
          "velocity": 0.3937007874015748
        },
        {
          "duration": 0.05555549999999698,
          "durationTicks": 48,
          "midi": 63,
          "name": "D#4",
          "ticks": 71232,
          "time": 82.444362,
          "velocity": 0.3937007874015748
        },
        {
          "duration": 0.05555550000001119,
          "durationTicks": 48,
          "midi": 75,
          "name": "D#5",
          "ticks": 71280,
          "time": 82.4999175,
          "velocity": 0.3937007874015748
        },
        {
          "duration": 0.05555549999999698,
          "durationTicks": 48,
          "midi": 63,
          "name": "D#4",
          "ticks": 71328,
          "time": 82.555473,
          "velocity": 0.3937007874015748
        },
        {
          "duration": 0.05555549999999698,
          "durationTicks": 48,
          "midi": 75,
          "name": "D#5",
          "ticks": 71376,
          "time": 82.6110285,
          "velocity": 0.3937007874015748
        },
        {
          "duration": 0.05555549999999698,
          "durationTicks": 48,
          "midi": 61,
          "name": "C#4",
          "ticks": 71424,
          "time": 82.666584,
          "velocity": 0.3937007874015748
        },
        {
          "duration": 0.05555549999999698,
          "durationTicks": 48,
          "midi": 73,
          "name": "C#5",
          "ticks": 71472,
          "time": 82.7221395,
          "velocity": 0.3937007874015748
        },
        {
          "duration": 0.05555550000001119,
          "durationTicks": 48,
          "midi": 57,
          "name": "A3",
          "ticks": 71520,
          "time": 82.777695,
          "velocity": 0.3937007874015748
        },
        {
          "duration": 0.05555549999999698,
          "durationTicks": 48,
          "midi": 69,
          "name": "A4",
          "ticks": 71568,
          "time": 82.8332505,
          "velocity": 0.3937007874015748
        },
        {
          "duration": 0.05555549999999698,
          "durationTicks": 48,
          "midi": 61,
          "name": "C#4",
          "ticks": 71616,
          "time": 82.888806,
          "velocity": 0.3937007874015748
        },
        {
          "duration": 0.05555549999999698,
          "durationTicks": 48,
          "midi": 73,
          "name": "C#5",
          "ticks": 71664,
          "time": 82.9443615,
          "velocity": 0.3937007874015748
        },
        {
          "duration": 0.05555550000001119,
          "durationTicks": 48,
          "midi": 63,
          "name": "D#4",
          "ticks": 71712,
          "time": 82.999917,
          "velocity": 0.3937007874015748
        },
        {
          "duration": 0.05555549999999698,
          "durationTicks": 48,
          "midi": 75,
          "name": "D#5",
          "ticks": 71760,
          "time": 83.05547250000001,
          "velocity": 0.3937007874015748
        },
        {
          "duration": 0.05555549999999698,
          "durationTicks": 48,
          "midi": 64,
          "name": "E4",
          "ticks": 71808,
          "time": 83.111028,
          "velocity": 0.3937007874015748
        },
        {
          "duration": 0.05555549999999698,
          "durationTicks": 48,
          "midi": 76,
          "name": "E5",
          "ticks": 71856,
          "time": 83.1665835,
          "velocity": 0.3937007874015748
        },
        {
          "duration": 0.05555549999999698,
          "durationTicks": 48,
          "midi": 61,
          "name": "C#4",
          "ticks": 71904,
          "time": 83.222139,
          "velocity": 0.3937007874015748
        },
        {
          "duration": 0.05555550000001119,
          "durationTicks": 48,
          "midi": 73,
          "name": "C#5",
          "ticks": 71952,
          "time": 83.2776945,
          "velocity": 0.3937007874015748
        },
        {
          "duration": 0.05555549999999698,
          "durationTicks": 48,
          "midi": 64,
          "name": "E4",
          "ticks": 72000,
          "time": 83.33325,
          "velocity": 0.3937007874015748
        },
        {
          "duration": 0.05555549999999698,
          "durationTicks": 48,
          "midi": 76,
          "name": "E5",
          "ticks": 72048,
          "time": 83.3888055,
          "velocity": 0.3937007874015748
        },
        {
          "duration": 0.05555549999999698,
          "durationTicks": 48,
          "midi": 66,
          "name": "F#4",
          "ticks": 72096,
          "time": 83.444361,
          "velocity": 0.3937007874015748
        },
        {
          "duration": 0.05555549999999698,
          "durationTicks": 48,
          "midi": 78,
          "name": "F#5",
          "ticks": 72144,
          "time": 83.4999165,
          "velocity": 0.3937007874015748
        },
        {
          "duration": 0.05555550000001119,
          "durationTicks": 48,
          "midi": 61,
          "name": "C#4",
          "ticks": 72192,
          "time": 83.555472,
          "velocity": 0.3937007874015748
        },
        {
          "duration": 0.05555549999999698,
          "durationTicks": 48,
          "midi": 73,
          "name": "C#5",
          "ticks": 72240,
          "time": 83.6110275,
          "velocity": 0.3937007874015748
        },
        {
          "duration": 0.05555549999999698,
          "durationTicks": 48,
          "midi": 59,
          "name": "B3",
          "ticks": 72288,
          "time": 83.666583,
          "velocity": 0.3937007874015748
        },
        {
          "duration": 0.05555549999999698,
          "durationTicks": 48,
          "midi": 71,
          "name": "B4",
          "ticks": 72336,
          "time": 83.7221385,
          "velocity": 0.3937007874015748
        },
        {
          "duration": 0.16666650000000516,
          "durationTicks": 144,
          "midi": 61,
          "name": "C#4",
          "ticks": 72384,
          "time": 83.777694,
          "velocity": 0.3937007874015748
        },
        {
          "duration": 0.16666649999999095,
          "durationTicks": 144,
          "midi": 73,
          "name": "C#5",
          "ticks": 72432,
          "time": 83.83324950000001,
          "velocity": 0.3937007874015748
        },
        {
          "duration": 0.05555549999999698,
          "durationTicks": 48,
          "midi": 63,
          "name": "D#4",
          "ticks": 72576,
          "time": 83.999916,
          "velocity": 0.3937007874015748
        },
        {
          "duration": 0.05555550000001119,
          "durationTicks": 48,
          "midi": 75,
          "name": "D#5",
          "ticks": 72624,
          "time": 84.0554715,
          "velocity": 0.3937007874015748
        },
        {
          "duration": 0.05555549999999698,
          "durationTicks": 48,
          "midi": 61,
          "name": "C#4",
          "ticks": 72672,
          "time": 84.111027,
          "velocity": 0.3937007874015748
        },
        {
          "duration": 0.05555549999999698,
          "durationTicks": 48,
          "midi": 73,
          "name": "C#5",
          "ticks": 72720,
          "time": 84.1665825,
          "velocity": 0.3937007874015748
        },
        {
          "duration": 0.16666650000000516,
          "durationTicks": 144,
          "midi": 63,
          "name": "D#4",
          "ticks": 72768,
          "time": 84.222138,
          "velocity": 0.3937007874015748
        },
        {
          "duration": 0.16666650000000516,
          "durationTicks": 144,
          "midi": 75,
          "name": "D#5",
          "ticks": 72816,
          "time": 84.2776935,
          "velocity": 0.3937007874015748
        },
        {
          "duration": 0.3888884999999931,
          "durationTicks": 336,
          "midi": 64,
          "name": "E4",
          "ticks": 72960,
          "time": 84.44436,
          "velocity": 0.3937007874015748
        },
        {
          "duration": 0.3888885000000073,
          "durationTicks": 336,
          "midi": 76,
          "name": "E5",
          "ticks": 73008,
          "time": 84.4999155,
          "velocity": 0.3937007874015748
        },
        {
          "duration": 0.11111099999999396,
          "durationTicks": 96,
          "midi": 66,
          "name": "F#4",
          "ticks": 73344,
          "time": 84.88880400000001,
          "velocity": 0.3937007874015748
        },
        {
          "duration": 0.11111099999999396,
          "durationTicks": 96,
          "midi": 78,
          "name": "F#5",
          "ticks": 73344,
          "time": 84.88880400000001,
          "velocity": 0.3937007874015748
        },
        {
          "duration": 0.11111099999999396,
          "durationTicks": 96,
          "midi": 64,
          "name": "E4",
          "ticks": 73440,
          "time": 84.999915,
          "velocity": 0.3937007874015748
        },
        {
          "duration": 0.11111099999999396,
          "durationTicks": 96,
          "midi": 76,
          "name": "E5",
          "ticks": 73440,
          "time": 84.999915,
          "velocity": 0.3937007874015748
        },
        {
          "duration": 0.11111100000000818,
          "durationTicks": 96,
          "midi": 75,
          "name": "D#5",
          "ticks": 73536,
          "time": 85.111026,
          "velocity": 0.3937007874015748
        },
        {
          "duration": 0.11111100000000818,
          "durationTicks": 96,
          "midi": 63,
          "name": "D#4",
          "ticks": 73536,
          "time": 85.111026,
          "velocity": 0.3937007874015748
        },
        {
          "duration": 0.11111099999999396,
          "durationTicks": 96,
          "midi": 73,
          "name": "C#5",
          "ticks": 73632,
          "time": 85.222137,
          "velocity": 0.3937007874015748
        },
        {
          "duration": 0.11111099999999396,
          "durationTicks": 96,
          "midi": 61,
          "name": "C#4",
          "ticks": 73632,
          "time": 85.222137,
          "velocity": 0.3937007874015748
        },
        {
          "duration": 0.05555549999999698,
          "durationTicks": 48,
          "midi": 61,
          "name": "C#4",
          "ticks": 76800,
          "time": 88.8888,
          "velocity": 0.3937007874015748
        },
        {
          "duration": 0.05555549999999698,
          "durationTicks": 48,
          "midi": 73,
          "name": "C#5",
          "ticks": 76848,
          "time": 88.9443555,
          "velocity": 0.3937007874015748
        },
        {
          "duration": 0.05555549999999698,
          "durationTicks": 48,
          "midi": 61,
          "name": "C#4",
          "ticks": 76896,
          "time": 88.999911,
          "velocity": 0.3937007874015748
        },
        {
          "duration": 0.05555550000001119,
          "durationTicks": 48,
          "midi": 73,
          "name": "C#5",
          "ticks": 76944,
          "time": 89.0554665,
          "velocity": 0.3937007874015748
        },
        {
          "duration": 0.05555549999999698,
          "durationTicks": 48,
          "midi": 57,
          "name": "A3",
          "ticks": 76992,
          "time": 89.111022,
          "velocity": 0.3937007874015748
        },
        {
          "duration": 0.05555549999999698,
          "durationTicks": 48,
          "midi": 69,
          "name": "A4",
          "ticks": 77040,
          "time": 89.1665775,
          "velocity": 0.3937007874015748
        },
        {
          "duration": 0.05555549999999698,
          "durationTicks": 48,
          "midi": 57,
          "name": "A3",
          "ticks": 77088,
          "time": 89.222133,
          "velocity": 0.3937007874015748
        },
        {
          "duration": 0.05555550000001119,
          "durationTicks": 48,
          "midi": 69,
          "name": "A4",
          "ticks": 77136,
          "time": 89.2776885,
          "velocity": 0.3937007874015748
        },
        {
          "duration": 0.05555549999999698,
          "durationTicks": 48,
          "midi": 61,
          "name": "C#4",
          "ticks": 77184,
          "time": 89.33324400000001,
          "velocity": 0.3937007874015748
        },
        {
          "duration": 0.05555549999999698,
          "durationTicks": 48,
          "midi": 73,
          "name": "C#5",
          "ticks": 77232,
          "time": 89.3887995,
          "velocity": 0.3937007874015748
        },
        {
          "duration": 0.05555549999999698,
          "durationTicks": 48,
          "midi": 61,
          "name": "C#4",
          "ticks": 77280,
          "time": 89.444355,
          "velocity": 0.3937007874015748
        },
        {
          "duration": 0.05555549999999698,
          "durationTicks": 48,
          "midi": 73,
          "name": "C#5",
          "ticks": 77328,
          "time": 89.4999105,
          "velocity": 0.3937007874015748
        },
        {
          "duration": 0.05555550000001119,
          "durationTicks": 48,
          "midi": 63,
          "name": "D#4",
          "ticks": 77376,
          "time": 89.555466,
          "velocity": 0.3937007874015748
        },
        {
          "duration": 0.05555549999999698,
          "durationTicks": 48,
          "midi": 75,
          "name": "D#5",
          "ticks": 77424,
          "time": 89.6110215,
          "velocity": 0.3937007874015748
        },
        {
          "duration": 0.05555549999999698,
          "durationTicks": 48,
          "midi": 63,
          "name": "D#4",
          "ticks": 77472,
          "time": 89.666577,
          "velocity": 0.3937007874015748
        },
        {
          "duration": 0.05555549999999698,
          "durationTicks": 48,
          "midi": 75,
          "name": "D#5",
          "ticks": 77520,
          "time": 89.7221325,
          "velocity": 0.3937007874015748
        },
        {
          "duration": 0.05555549999999698,
          "durationTicks": 48,
          "midi": 61,
          "name": "C#4",
          "ticks": 77568,
          "time": 89.777688,
          "velocity": 0.3937007874015748
        },
        {
          "duration": 0.05555550000001119,
          "durationTicks": 48,
          "midi": 73,
          "name": "C#5",
          "ticks": 77616,
          "time": 89.8332435,
          "velocity": 0.3937007874015748
        },
        {
          "duration": 0.05555549999999698,
          "durationTicks": 48,
          "midi": 57,
          "name": "A3",
          "ticks": 77664,
          "time": 89.888799,
          "velocity": 0.3937007874015748
        },
        {
          "duration": 0.05555549999999698,
          "durationTicks": 48,
          "midi": 69,
          "name": "A4",
          "ticks": 77712,
          "time": 89.9443545,
          "velocity": 0.3937007874015748
        },
        {
          "duration": 0.05555549999999698,
          "durationTicks": 48,
          "midi": 61,
          "name": "C#4",
          "ticks": 77760,
          "time": 89.99991,
          "velocity": 0.3937007874015748
        },
        {
          "duration": 0.05555550000001119,
          "durationTicks": 48,
          "midi": 73,
          "name": "C#5",
          "ticks": 77808,
          "time": 90.0554655,
          "velocity": 0.3937007874015748
        },
        {
          "duration": 0.05555549999999698,
          "durationTicks": 48,
          "midi": 63,
          "name": "D#4",
          "ticks": 77856,
          "time": 90.11102100000001,
          "velocity": 0.3937007874015748
        },
        {
          "duration": 0.05555549999999698,
          "durationTicks": 48,
          "midi": 75,
          "name": "D#5",
          "ticks": 77904,
          "time": 90.1665765,
          "velocity": 0.3937007874015748
        },
        {
          "duration": 0.05555549999999698,
          "durationTicks": 48,
          "midi": 64,
          "name": "E4",
          "ticks": 77952,
          "time": 90.222132,
          "velocity": 0.3937007874015748
        },
        {
          "duration": 0.05555549999999698,
          "durationTicks": 48,
          "midi": 76,
          "name": "E5",
          "ticks": 78000,
          "time": 90.2776875,
          "velocity": 0.3937007874015748
        },
        {
          "duration": 0.05555550000001119,
          "durationTicks": 48,
          "midi": 61,
          "name": "C#4",
          "ticks": 78048,
          "time": 90.333243,
          "velocity": 0.3937007874015748
        },
        {
          "duration": 0.05555549999999698,
          "durationTicks": 48,
          "midi": 73,
          "name": "C#5",
          "ticks": 78096,
          "time": 90.38879850000001,
          "velocity": 0.3937007874015748
        },
        {
          "duration": 0.05555549999999698,
          "durationTicks": 48,
          "midi": 64,
          "name": "E4",
          "ticks": 78144,
          "time": 90.444354,
          "velocity": 0.3937007874015748
        },
        {
          "duration": 0.05555549999999698,
          "durationTicks": 48,
          "midi": 76,
          "name": "E5",
          "ticks": 78192,
          "time": 90.4999095,
          "velocity": 0.3937007874015748
        },
        {
          "duration": 0.05555549999999698,
          "durationTicks": 48,
          "midi": 66,
          "name": "F#4",
          "ticks": 78240,
          "time": 90.555465,
          "velocity": 0.3937007874015748
        },
        {
          "duration": 0.05555550000001119,
          "durationTicks": 48,
          "midi": 78,
          "name": "F#5",
          "ticks": 78288,
          "time": 90.6110205,
          "velocity": 0.3937007874015748
        },
        {
          "duration": 0.05555549999999698,
          "durationTicks": 48,
          "midi": 61,
          "name": "C#4",
          "ticks": 78336,
          "time": 90.666576,
          "velocity": 0.3937007874015748
        },
        {
          "duration": 0.05555549999999698,
          "durationTicks": 48,
          "midi": 73,
          "name": "C#5",
          "ticks": 78384,
          "time": 90.7221315,
          "velocity": 0.3937007874015748
        },
        {
          "duration": 0.05555549999999698,
          "durationTicks": 48,
          "midi": 59,
          "name": "B3",
          "ticks": 78432,
          "time": 90.777687,
          "velocity": 0.3937007874015748
        },
        {
          "duration": 0.05555549999999698,
          "durationTicks": 48,
          "midi": 71,
          "name": "B4",
          "ticks": 78480,
          "time": 90.8332425,
          "velocity": 0.3937007874015748
        },
        {
          "duration": 0.16666650000000516,
          "durationTicks": 144,
          "midi": 61,
          "name": "C#4",
          "ticks": 78528,
          "time": 90.888798,
          "velocity": 0.3937007874015748
        },
        {
          "duration": 0.16666649999999095,
          "durationTicks": 144,
          "midi": 73,
          "name": "C#5",
          "ticks": 78576,
          "time": 90.9443535,
          "velocity": 0.3937007874015748
        },
        {
          "duration": 0.05555550000001119,
          "durationTicks": 48,
          "midi": 63,
          "name": "D#4",
          "ticks": 78720,
          "time": 91.11102,
          "velocity": 0.3937007874015748
        },
        {
          "duration": 0.05555549999999698,
          "durationTicks": 48,
          "midi": 75,
          "name": "D#5",
          "ticks": 78768,
          "time": 91.16657550000001,
          "velocity": 0.3937007874015748
        },
        {
          "duration": 0.05555549999999698,
          "durationTicks": 48,
          "midi": 61,
          "name": "C#4",
          "ticks": 78816,
          "time": 91.222131,
          "velocity": 0.3937007874015748
        },
        {
          "duration": 0.05555549999999698,
          "durationTicks": 48,
          "midi": 73,
          "name": "C#5",
          "ticks": 78864,
          "time": 91.2776865,
          "velocity": 0.3937007874015748
        },
        {
          "duration": 0.16666650000000516,
          "durationTicks": 144,
          "midi": 63,
          "name": "D#4",
          "ticks": 78912,
          "time": 91.333242,
          "velocity": 0.3937007874015748
        },
        {
          "duration": 0.16666650000000516,
          "durationTicks": 144,
          "midi": 75,
          "name": "D#5",
          "ticks": 78960,
          "time": 91.3887975,
          "velocity": 0.3937007874015748
        },
        {
          "duration": 0.3888885000000073,
          "durationTicks": 336,
          "midi": 64,
          "name": "E4",
          "ticks": 79104,
          "time": 91.555464,
          "velocity": 0.3937007874015748
        },
        {
          "duration": 0.3888885000000073,
          "durationTicks": 336,
          "midi": 76,
          "name": "E5",
          "ticks": 79152,
          "time": 91.6110195,
          "velocity": 0.3937007874015748
        },
        {
          "duration": 0.11111099999999396,
          "durationTicks": 96,
          "midi": 66,
          "name": "F#4",
          "ticks": 79488,
          "time": 91.999908,
          "velocity": 0.3937007874015748
        },
        {
          "duration": 0.11111099999999396,
          "durationTicks": 96,
          "midi": 78,
          "name": "F#5",
          "ticks": 79488,
          "time": 91.999908,
          "velocity": 0.3937007874015748
        },
        {
          "duration": 0.11111100000000818,
          "durationTicks": 96,
          "midi": 76,
          "name": "E5",
          "ticks": 79584,
          "time": 92.111019,
          "velocity": 0.3937007874015748
        },
        {
          "duration": 0.11111100000000818,
          "durationTicks": 96,
          "midi": 64,
          "name": "E4",
          "ticks": 79584,
          "time": 92.111019,
          "velocity": 0.3937007874015748
        },
        {
          "duration": 0.11111099999999396,
          "durationTicks": 96,
          "midi": 75,
          "name": "D#5",
          "ticks": 79680,
          "time": 92.22213,
          "velocity": 0.3937007874015748
        },
        {
          "duration": 0.11111099999999396,
          "durationTicks": 96,
          "midi": 63,
          "name": "D#4",
          "ticks": 79680,
          "time": 92.22213,
          "velocity": 0.3937007874015748
        },
        {
          "duration": 0.11111099999999396,
          "durationTicks": 96,
          "midi": 61,
          "name": "C#4",
          "ticks": 79776,
          "time": 92.333241,
          "velocity": 0.3937007874015748
        },
        {
          "duration": 0.11111099999999396,
          "durationTicks": 96,
          "midi": 73,
          "name": "C#5",
          "ticks": 79776,
          "time": 92.333241,
          "velocity": 0.3937007874015748
        },
        {
          "duration": 0.05555549999999698,
          "durationTicks": 48,
          "midi": 61,
          "name": "C#4",
          "ticks": 82944,
          "time": 95.999904,
          "velocity": 0.3937007874015748
        },
        {
          "duration": 0.05555549999999698,
          "durationTicks": 48,
          "midi": 73,
          "name": "C#5",
          "ticks": 82992,
          "time": 96.0554595,
          "velocity": 0.3937007874015748
        },
        {
          "duration": 0.05555550000001119,
          "durationTicks": 48,
          "midi": 61,
          "name": "C#4",
          "ticks": 83040,
          "time": 96.111015,
          "velocity": 0.3937007874015748
        },
        {
          "duration": 0.05555549999999698,
          "durationTicks": 48,
          "midi": 73,
          "name": "C#5",
          "ticks": 83088,
          "time": 96.1665705,
          "velocity": 0.3937007874015748
        },
        {
          "duration": 0.05555549999999698,
          "durationTicks": 48,
          "midi": 57,
          "name": "A3",
          "ticks": 83136,
          "time": 96.222126,
          "velocity": 0.3937007874015748
        },
        {
          "duration": 0.05555549999999698,
          "durationTicks": 48,
          "midi": 69,
          "name": "A4",
          "ticks": 83184,
          "time": 96.2776815,
          "velocity": 0.3937007874015748
        },
        {
          "duration": 0.05555550000001119,
          "durationTicks": 48,
          "midi": 57,
          "name": "A3",
          "ticks": 83232,
          "time": 96.333237,
          "velocity": 0.3937007874015748
        },
        {
          "duration": 0.05555549999999698,
          "durationTicks": 48,
          "midi": 69,
          "name": "A4",
          "ticks": 83280,
          "time": 96.38879250000001,
          "velocity": 0.3937007874015748
        },
        {
          "duration": 0.05555549999999698,
          "durationTicks": 48,
          "midi": 61,
          "name": "C#4",
          "ticks": 83328,
          "time": 96.444348,
          "velocity": 0.3937007874015748
        },
        {
          "duration": 0.05555549999999698,
          "durationTicks": 48,
          "midi": 73,
          "name": "C#5",
          "ticks": 83376,
          "time": 96.4999035,
          "velocity": 0.3937007874015748
        },
        {
          "duration": 0.05555549999999698,
          "durationTicks": 48,
          "midi": 61,
          "name": "C#4",
          "ticks": 83424,
          "time": 96.555459,
          "velocity": 0.3937007874015748
        },
        {
          "duration": 0.05555550000001119,
          "durationTicks": 48,
          "midi": 73,
          "name": "C#5",
          "ticks": 83472,
          "time": 96.6110145,
          "velocity": 0.3937007874015748
        },
        {
          "duration": 0.05555549999999698,
          "durationTicks": 48,
          "midi": 63,
          "name": "D#4",
          "ticks": 83520,
          "time": 96.66657000000001,
          "velocity": 0.3937007874015748
        },
        {
          "duration": 0.05555549999999698,
          "durationTicks": 48,
          "midi": 75,
          "name": "D#5",
          "ticks": 83568,
          "time": 96.7221255,
          "velocity": 0.3937007874015748
        },
        {
          "duration": 0.05555549999999698,
          "durationTicks": 48,
          "midi": 63,
          "name": "D#4",
          "ticks": 83616,
          "time": 96.777681,
          "velocity": 0.3937007874015748
        },
        {
          "duration": 0.05555549999999698,
          "durationTicks": 48,
          "midi": 75,
          "name": "D#5",
          "ticks": 83664,
          "time": 96.8332365,
          "velocity": 0.3937007874015748
        },
        {
          "duration": 0.05555550000001119,
          "durationTicks": 48,
          "midi": 61,
          "name": "C#4",
          "ticks": 83712,
          "time": 96.888792,
          "velocity": 0.3937007874015748
        },
        {
          "duration": 0.05555549999999698,
          "durationTicks": 48,
          "midi": 73,
          "name": "C#5",
          "ticks": 83760,
          "time": 96.9443475,
          "velocity": 0.3937007874015748
        },
        {
          "duration": 0.05555549999999698,
          "durationTicks": 48,
          "midi": 57,
          "name": "A3",
          "ticks": 83808,
          "time": 96.999903,
          "velocity": 0.3937007874015748
        },
        {
          "duration": 0.05555549999999698,
          "durationTicks": 48,
          "midi": 69,
          "name": "A4",
          "ticks": 83856,
          "time": 97.0554585,
          "velocity": 0.3937007874015748
        },
        {
          "duration": 0.05555549999999698,
          "durationTicks": 48,
          "midi": 61,
          "name": "C#4",
          "ticks": 83904,
          "time": 97.111014,
          "velocity": 0.3937007874015748
        },
        {
          "duration": 0.05555550000001119,
          "durationTicks": 48,
          "midi": 73,
          "name": "C#5",
          "ticks": 83952,
          "time": 97.1665695,
          "velocity": 0.3937007874015748
        },
        {
          "duration": 0.05555549999999698,
          "durationTicks": 48,
          "midi": 63,
          "name": "D#4",
          "ticks": 84000,
          "time": 97.222125,
          "velocity": 0.3937007874015748
        },
        {
          "duration": 0.05555549999999698,
          "durationTicks": 48,
          "midi": 75,
          "name": "D#5",
          "ticks": 84048,
          "time": 97.2776805,
          "velocity": 0.3937007874015748
        },
        {
          "duration": 0.05555549999999698,
          "durationTicks": 48,
          "midi": 64,
          "name": "E4",
          "ticks": 84096,
          "time": 97.333236,
          "velocity": 0.3937007874015748
        },
        {
          "duration": 0.05555550000001119,
          "durationTicks": 48,
          "midi": 76,
          "name": "E5",
          "ticks": 84144,
          "time": 97.3887915,
          "velocity": 0.3937007874015748
        },
        {
          "duration": 0.05555549999999698,
          "durationTicks": 48,
          "midi": 61,
          "name": "C#4",
          "ticks": 84192,
          "time": 97.44434700000001,
          "velocity": 0.3937007874015748
        },
        {
          "duration": 0.05555549999999698,
          "durationTicks": 48,
          "midi": 73,
          "name": "C#5",
          "ticks": 84240,
          "time": 97.4999025,
          "velocity": 0.3937007874015748
        },
        {
          "duration": 0.05555549999999698,
          "durationTicks": 48,
          "midi": 64,
          "name": "E4",
          "ticks": 84288,
          "time": 97.555458,
          "velocity": 0.3937007874015748
        },
        {
          "duration": 0.05555549999999698,
          "durationTicks": 48,
          "midi": 76,
          "name": "E5",
          "ticks": 84336,
          "time": 97.6110135,
          "velocity": 0.3937007874015748
        },
        {
          "duration": 0.05555550000001119,
          "durationTicks": 48,
          "midi": 66,
          "name": "F#4",
          "ticks": 84384,
          "time": 97.666569,
          "velocity": 0.3937007874015748
        },
        {
          "duration": 0.05555549999999698,
          "durationTicks": 48,
          "midi": 78,
          "name": "F#5",
          "ticks": 84432,
          "time": 97.7221245,
          "velocity": 0.3937007874015748
        },
        {
          "duration": 0.05555549999999698,
          "durationTicks": 48,
          "midi": 61,
          "name": "C#4",
          "ticks": 84480,
          "time": 97.77768,
          "velocity": 0.3937007874015748
        },
        {
          "duration": 0.05555549999999698,
          "durationTicks": 48,
          "midi": 73,
          "name": "C#5",
          "ticks": 84528,
          "time": 97.8332355,
          "velocity": 0.3937007874015748
        },
        {
          "duration": 0.05555549999999698,
          "durationTicks": 48,
          "midi": 59,
          "name": "B3",
          "ticks": 84576,
          "time": 97.888791,
          "velocity": 0.3937007874015748
        },
        {
          "duration": 0.05555550000001119,
          "durationTicks": 48,
          "midi": 71,
          "name": "B4",
          "ticks": 84624,
          "time": 97.9443465,
          "velocity": 0.3937007874015748
        },
        {
          "duration": 0.16666649999999095,
          "durationTicks": 144,
          "midi": 61,
          "name": "C#4",
          "ticks": 84672,
          "time": 97.999902,
          "velocity": 0.3937007874015748
        },
        {
          "duration": 0.16666650000000516,
          "durationTicks": 144,
          "midi": 73,
          "name": "C#5",
          "ticks": 84720,
          "time": 98.0554575,
          "velocity": 0.3937007874015748
        },
        {
          "duration": 0.05555549999999698,
          "durationTicks": 48,
          "midi": 63,
          "name": "D#4",
          "ticks": 84864,
          "time": 98.22212400000001,
          "velocity": 0.3937007874015748
        },
        {
          "duration": 0.05555549999999698,
          "durationTicks": 48,
          "midi": 75,
          "name": "D#5",
          "ticks": 84912,
          "time": 98.2776795,
          "velocity": 0.3937007874015748
        },
        {
          "duration": 0.05555549999999698,
          "durationTicks": 48,
          "midi": 61,
          "name": "C#4",
          "ticks": 84960,
          "time": 98.333235,
          "velocity": 0.3937007874015748
        },
        {
          "duration": 0.05555549999999698,
          "durationTicks": 48,
          "midi": 73,
          "name": "C#5",
          "ticks": 85008,
          "time": 98.3887905,
          "velocity": 0.3937007874015748
        },
        {
          "duration": 0.16666650000000516,
          "durationTicks": 144,
          "midi": 63,
          "name": "D#4",
          "ticks": 85056,
          "time": 98.444346,
          "velocity": 0.3937007874015748
        },
        {
          "duration": 0.16666649999999095,
          "durationTicks": 144,
          "midi": 75,
          "name": "D#5",
          "ticks": 85104,
          "time": 98.4999015,
          "velocity": 0.3937007874015748
        },
        {
          "duration": 0.3888885000000073,
          "durationTicks": 336,
          "midi": 64,
          "name": "E4",
          "ticks": 85248,
          "time": 98.666568,
          "velocity": 0.3937007874015748
        },
        {
          "duration": 0.3888885000000073,
          "durationTicks": 336,
          "midi": 76,
          "name": "E5",
          "ticks": 85296,
          "time": 98.7221235,
          "velocity": 0.3937007874015748
        },
        {
          "duration": 0.11111099999999396,
          "durationTicks": 96,
          "midi": 66,
          "name": "F#4",
          "ticks": 85632,
          "time": 99.111012,
          "velocity": 0.3937007874015748
        },
        {
          "duration": 0.11111099999999396,
          "durationTicks": 96,
          "midi": 78,
          "name": "F#5",
          "ticks": 85632,
          "time": 99.111012,
          "velocity": 0.3937007874015748
        },
        {
          "duration": 0.11111100000000818,
          "durationTicks": 96,
          "midi": 64,
          "name": "E4",
          "ticks": 85728,
          "time": 99.222123,
          "velocity": 0.3937007874015748
        },
        {
          "duration": 0.11111100000000818,
          "durationTicks": 96,
          "midi": 76,
          "name": "E5",
          "ticks": 85728,
          "time": 99.222123,
          "velocity": 0.3937007874015748
        },
        {
          "duration": 0.11111099999999396,
          "durationTicks": 96,
          "midi": 63,
          "name": "D#4",
          "ticks": 85824,
          "time": 99.333234,
          "velocity": 0.3937007874015748
        },
        {
          "duration": 0.11111099999999396,
          "durationTicks": 96,
          "midi": 75,
          "name": "D#5",
          "ticks": 85824,
          "time": 99.333234,
          "velocity": 0.3937007874015748
        },
        {
          "duration": 0.11111100000000818,
          "durationTicks": 96,
          "midi": 73,
          "name": "C#5",
          "ticks": 85920,
          "time": 99.444345,
          "velocity": 0.3937007874015748
        },
        {
          "duration": 0.11111100000000818,
          "durationTicks": 96,
          "midi": 61,
          "name": "C#4",
          "ticks": 85920,
          "time": 99.444345,
          "velocity": 0.3937007874015748
        },
        {
          "duration": 0.05555549999999698,
          "durationTicks": 48,
          "midi": 61,
          "name": "C#4",
          "ticks": 89088,
          "time": 103.111008,
          "velocity": 0.3937007874015748
        },
        {
          "duration": 0.05555550000001119,
          "durationTicks": 48,
          "midi": 73,
          "name": "C#5",
          "ticks": 89136,
          "time": 103.1665635,
          "velocity": 0.3937007874015748
        },
        {
          "duration": 0.05555549999999698,
          "durationTicks": 48,
          "midi": 61,
          "name": "C#4",
          "ticks": 89184,
          "time": 103.222119,
          "velocity": 0.3937007874015748
        },
        {
          "duration": 0.05555549999999698,
          "durationTicks": 48,
          "midi": 73,
          "name": "C#5",
          "ticks": 89232,
          "time": 103.2776745,
          "velocity": 0.3937007874015748
        },
        {
          "duration": 0.05555549999999698,
          "durationTicks": 48,
          "midi": 57,
          "name": "A3",
          "ticks": 89280,
          "time": 103.33323,
          "velocity": 0.3937007874015748
        },
        {
          "duration": 0.05555549999999698,
          "durationTicks": 48,
          "midi": 69,
          "name": "A4",
          "ticks": 89328,
          "time": 103.3887855,
          "velocity": 0.3937007874015748
        },
        {
          "duration": 0.05555550000001119,
          "durationTicks": 48,
          "midi": 57,
          "name": "A3",
          "ticks": 89376,
          "time": 103.444341,
          "velocity": 0.3937007874015748
        },
        {
          "duration": 0.05555549999999698,
          "durationTicks": 48,
          "midi": 69,
          "name": "A4",
          "ticks": 89424,
          "time": 103.4998965,
          "velocity": 0.3937007874015748
        },
        {
          "duration": 0.05555549999999698,
          "durationTicks": 48,
          "midi": 61,
          "name": "C#4",
          "ticks": 89472,
          "time": 103.555452,
          "velocity": 0.3937007874015748
        },
        {
          "duration": 0.05555549999999698,
          "durationTicks": 48,
          "midi": 73,
          "name": "C#5",
          "ticks": 89520,
          "time": 103.6110075,
          "velocity": 0.3937007874015748
        },
        {
          "duration": 0.05555550000001119,
          "durationTicks": 48,
          "midi": 61,
          "name": "C#4",
          "ticks": 89568,
          "time": 103.666563,
          "velocity": 0.3937007874015748
        },
        {
          "duration": 0.05555549999999698,
          "durationTicks": 48,
          "midi": 73,
          "name": "C#5",
          "ticks": 89616,
          "time": 103.72211850000001,
          "velocity": 0.3937007874015748
        },
        {
          "duration": 0.05555549999999698,
          "durationTicks": 48,
          "midi": 63,
          "name": "D#4",
          "ticks": 89664,
          "time": 103.777674,
          "velocity": 0.3937007874015748
        },
        {
          "duration": 0.05555549999999698,
          "durationTicks": 48,
          "midi": 75,
          "name": "D#5",
          "ticks": 89712,
          "time": 103.8332295,
          "velocity": 0.3937007874015748
        },
        {
          "duration": 0.05555549999999698,
          "durationTicks": 48,
          "midi": 63,
          "name": "D#4",
          "ticks": 89760,
          "time": 103.888785,
          "velocity": 0.3937007874015748
        },
        {
          "duration": 0.05555550000001119,
          "durationTicks": 48,
          "midi": 75,
          "name": "D#5",
          "ticks": 89808,
          "time": 103.9443405,
          "velocity": 0.3937007874015748
        },
        {
          "duration": 0.05555549999999698,
          "durationTicks": 48,
          "midi": 61,
          "name": "C#4",
          "ticks": 89856,
          "time": 103.999896,
          "velocity": 0.3937007874015748
        },
        {
          "duration": 0.05555549999999698,
          "durationTicks": 48,
          "midi": 73,
          "name": "C#5",
          "ticks": 89904,
          "time": 104.0554515,
          "velocity": 0.3937007874015748
        },
        {
          "duration": 0.05555549999999698,
          "durationTicks": 48,
          "midi": 57,
          "name": "A3",
          "ticks": 89952,
          "time": 104.111007,
          "velocity": 0.3937007874015748
        },
        {
          "duration": 0.05555549999999698,
          "durationTicks": 48,
          "midi": 69,
          "name": "A4",
          "ticks": 90000,
          "time": 104.1665625,
          "velocity": 0.3937007874015748
        },
        {
          "duration": 0.05555550000001119,
          "durationTicks": 48,
          "midi": 61,
          "name": "C#4",
          "ticks": 90048,
          "time": 104.222118,
          "velocity": 0.3937007874015748
        },
        {
          "duration": 0.05555549999999698,
          "durationTicks": 48,
          "midi": 73,
          "name": "C#5",
          "ticks": 90096,
          "time": 104.2776735,
          "velocity": 0.3937007874015748
        },
        {
          "duration": 0.05555549999999698,
          "durationTicks": 48,
          "midi": 63,
          "name": "D#4",
          "ticks": 90144,
          "time": 104.333229,
          "velocity": 0.3937007874015748
        },
        {
          "duration": 0.05555549999999698,
          "durationTicks": 48,
          "midi": 75,
          "name": "D#5",
          "ticks": 90192,
          "time": 104.3887845,
          "velocity": 0.3937007874015748
        },
        {
          "duration": 0.05555550000001119,
          "durationTicks": 48,
          "midi": 64,
          "name": "E4",
          "ticks": 90240,
          "time": 104.44434,
          "velocity": 0.3937007874015748
        },
        {
          "duration": 0.05555549999999698,
          "durationTicks": 48,
          "midi": 76,
          "name": "E5",
          "ticks": 90288,
          "time": 104.49989550000001,
          "velocity": 0.3937007874015748
        },
        {
          "duration": 0.05555549999999698,
          "durationTicks": 48,
          "midi": 61,
          "name": "C#4",
          "ticks": 90336,
          "time": 104.555451,
          "velocity": 0.3937007874015748
        },
        {
          "duration": 0.05555549999999698,
          "durationTicks": 48,
          "midi": 73,
          "name": "C#5",
          "ticks": 90384,
          "time": 104.6110065,
          "velocity": 0.3937007874015748
        },
        {
          "duration": 0.05555549999999698,
          "durationTicks": 48,
          "midi": 64,
          "name": "E4",
          "ticks": 90432,
          "time": 104.666562,
          "velocity": 0.3937007874015748
        },
        {
          "duration": 0.05555550000001119,
          "durationTicks": 48,
          "midi": 76,
          "name": "E5",
          "ticks": 90480,
          "time": 104.7221175,
          "velocity": 0.3937007874015748
        },
        {
          "duration": 0.05555549999999698,
          "durationTicks": 48,
          "midi": 66,
          "name": "F#4",
          "ticks": 90528,
          "time": 104.77767300000001,
          "velocity": 0.3937007874015748
        },
        {
          "duration": 0.05555549999999698,
          "durationTicks": 48,
          "midi": 78,
          "name": "F#5",
          "ticks": 90576,
          "time": 104.8332285,
          "velocity": 0.3937007874015748
        },
        {
          "duration": 0.05555549999999698,
          "durationTicks": 48,
          "midi": 61,
          "name": "C#4",
          "ticks": 90624,
          "time": 104.888784,
          "velocity": 0.3937007874015748
        },
        {
          "duration": 0.05555549999999698,
          "durationTicks": 48,
          "midi": 73,
          "name": "C#5",
          "ticks": 90672,
          "time": 104.9443395,
          "velocity": 0.3937007874015748
        },
        {
          "duration": 0.05555550000001119,
          "durationTicks": 48,
          "midi": 59,
          "name": "B3",
          "ticks": 90720,
          "time": 104.999895,
          "velocity": 0.3937007874015748
        },
        {
          "duration": 0.05555549999999698,
          "durationTicks": 48,
          "midi": 71,
          "name": "B4",
          "ticks": 90768,
          "time": 105.0554505,
          "velocity": 0.3937007874015748
        },
        {
          "duration": 0.16666650000000516,
          "durationTicks": 144,
          "midi": 61,
          "name": "C#4",
          "ticks": 90816,
          "time": 105.111006,
          "velocity": 0.3937007874015748
        },
        {
          "duration": 0.16666650000000516,
          "durationTicks": 144,
          "midi": 73,
          "name": "C#5",
          "ticks": 90864,
          "time": 105.1665615,
          "velocity": 0.3937007874015748
        },
        {
          "duration": 0.05555549999999698,
          "durationTicks": 48,
          "midi": 63,
          "name": "D#4",
          "ticks": 91008,
          "time": 105.333228,
          "velocity": 0.3937007874015748
        },
        {
          "duration": 0.05555549999999698,
          "durationTicks": 48,
          "midi": 75,
          "name": "D#5",
          "ticks": 91056,
          "time": 105.3887835,
          "velocity": 0.3937007874015748
        },
        {
          "duration": 0.05555549999999698,
          "durationTicks": 48,
          "midi": 61,
          "name": "C#4",
          "ticks": 91104,
          "time": 105.444339,
          "velocity": 0.3937007874015748
        },
        {
          "duration": 0.05555550000001119,
          "durationTicks": 48,
          "midi": 73,
          "name": "C#5",
          "ticks": 91152,
          "time": 105.4998945,
          "velocity": 0.3937007874015748
        },
        {
          "duration": 0.16666649999999095,
          "durationTicks": 144,
          "midi": 63,
          "name": "D#4",
          "ticks": 91200,
          "time": 105.55545000000001,
          "velocity": 0.3937007874015748
        },
        {
          "duration": 0.16666649999999095,
          "durationTicks": 144,
          "midi": 75,
          "name": "D#5",
          "ticks": 91248,
          "time": 105.6110055,
          "velocity": 0.3937007874015748
        },
        {
          "duration": 0.3888885000000073,
          "durationTicks": 336,
          "midi": 64,
          "name": "E4",
          "ticks": 91392,
          "time": 105.777672,
          "velocity": 0.3937007874015748
        },
        {
          "duration": 0.3888884999999931,
          "durationTicks": 336,
          "midi": 76,
          "name": "E5",
          "ticks": 91440,
          "time": 105.8332275,
          "velocity": 0.3937007874015748
        },
        {
          "duration": 0.11111100000000818,
          "durationTicks": 96,
          "midi": 78,
          "name": "F#5",
          "ticks": 91776,
          "time": 106.222116,
          "velocity": 0.3937007874015748
        },
        {
          "duration": 0.11111100000000818,
          "durationTicks": 96,
          "midi": 66,
          "name": "F#4",
          "ticks": 91776,
          "time": 106.222116,
          "velocity": 0.3937007874015748
        },
        {
          "duration": 0.11111099999999396,
          "durationTicks": 96,
          "midi": 76,
          "name": "E5",
          "ticks": 91872,
          "time": 106.33322700000001,
          "velocity": 0.3937007874015748
        },
        {
          "duration": 0.11111099999999396,
          "durationTicks": 96,
          "midi": 64,
          "name": "E4",
          "ticks": 91872,
          "time": 106.33322700000001,
          "velocity": 0.3937007874015748
        },
        {
          "duration": 0.11111099999999396,
          "durationTicks": 96,
          "midi": 63,
          "name": "D#4",
          "ticks": 91968,
          "time": 106.444338,
          "velocity": 0.3937007874015748
        },
        {
          "duration": 0.11111099999999396,
          "durationTicks": 96,
          "midi": 75,
          "name": "D#5",
          "ticks": 91968,
          "time": 106.444338,
          "velocity": 0.3937007874015748
        },
        {
          "duration": 0.11111100000000818,
          "durationTicks": 96,
          "midi": 73,
          "name": "C#5",
          "ticks": 92064,
          "time": 106.555449,
          "velocity": 0.3937007874015748
        },
        {
          "duration": 0.11111100000000818,
          "durationTicks": 96,
          "midi": 61,
          "name": "C#4",
          "ticks": 92064,
          "time": 106.555449,
          "velocity": 0.3937007874015748
        }
      ],
      "endOfTrackTicks": 92160
    },
    {
      "channel": 5,
      "controlChanges": {},
      "pitchBends": [],
      "instrument": {
        "family": "synth lead",
        "number": 81,
        "name": "lead 2 (sawtooth)"
      },
      "name": "8-Bit Sawtooth",
      "notes": [
        {
          "duration": 0.11111100000000107,
          "durationTicks": 96,
          "midi": 68,
          "name": "G#4",
          "ticks": 36864,
          "time": 42.666624,
          "velocity": 0.3937007874015748
        },
        {
          "duration": 0.11111100000000107,
          "durationTicks": 96,
          "midi": 66,
          "name": "F#4",
          "ticks": 37056,
          "time": 42.888846,
          "velocity": 0.3937007874015748
        },
        {
          "duration": 0.11111099999999396,
          "durationTicks": 96,
          "midi": 64,
          "name": "E4",
          "ticks": 37248,
          "time": 43.111068,
          "velocity": 0.3937007874015748
        },
        {
          "duration": 0.11111100000000107,
          "durationTicks": 96,
          "midi": 61,
          "name": "C#4",
          "ticks": 37440,
          "time": 43.33329,
          "velocity": 0.3937007874015748
        },
        {
          "duration": 0.05555549999999698,
          "durationTicks": 48,
          "midi": 64,
          "name": "E4",
          "ticks": 37632,
          "time": 43.555512,
          "velocity": 0.3937007874015748
        },
        {
          "duration": 0.05555550000000409,
          "durationTicks": 48,
          "midi": 76,
          "name": "E5",
          "ticks": 37680,
          "time": 43.6110675,
          "velocity": 0.3937007874015748
        },
        {
          "duration": 0.05555549999999698,
          "durationTicks": 48,
          "midi": 64,
          "name": "E4",
          "ticks": 37728,
          "time": 43.666623,
          "velocity": 0.3937007874015748
        },
        {
          "duration": 0.05555550000000409,
          "durationTicks": 48,
          "midi": 76,
          "name": "E5",
          "ticks": 37776,
          "time": 43.7221785,
          "velocity": 0.3937007874015748
        },
        {
          "duration": 0.05555549999999698,
          "durationTicks": 48,
          "midi": 66,
          "name": "F#4",
          "ticks": 37824,
          "time": 43.777734,
          "velocity": 0.3937007874015748
        },
        {
          "duration": 0.05555550000000409,
          "durationTicks": 48,
          "midi": 78,
          "name": "F#5",
          "ticks": 37872,
          "time": 43.8332895,
          "velocity": 0.3937007874015748
        },
        {
          "duration": 0.05555549999999698,
          "durationTicks": 48,
          "midi": 66,
          "name": "F#4",
          "ticks": 37920,
          "time": 43.888845,
          "velocity": 0.3937007874015748
        },
        {
          "duration": 0.05555549999999698,
          "durationTicks": 48,
          "midi": 78,
          "name": "F#5",
          "ticks": 37968,
          "time": 43.9444005,
          "velocity": 0.3937007874015748
        },
        {
          "duration": 0.11111100000000107,
          "durationTicks": 96,
          "midi": 68,
          "name": "G#4",
          "ticks": 38016,
          "time": 43.999956,
          "velocity": 0.3937007874015748
        },
        {
          "duration": 0.11111100000000107,
          "durationTicks": 96,
          "midi": 80,
          "name": "G#5",
          "ticks": 38064,
          "time": 44.0555115,
          "velocity": 0.3937007874015748
        },
        {
          "duration": 0.11111100000000107,
          "durationTicks": 96,
          "midi": 66,
          "name": "F#4",
          "ticks": 38208,
          "time": 44.222178,
          "velocity": 0.3937007874015748
        },
        {
          "duration": 0.11111099999999396,
          "durationTicks": 96,
          "midi": 78,
          "name": "F#5",
          "ticks": 38256,
          "time": 44.277733500000004,
          "velocity": 0.3937007874015748
        },
        {
          "duration": 0.3333329999999961,
          "durationTicks": 288,
          "midi": 68,
          "name": "G#4",
          "ticks": 38400,
          "time": 44.4444,
          "velocity": 0.3937007874015748
        },
        {
          "duration": 0.11111100000000107,
          "durationTicks": 96,
          "midi": 66,
          "name": "F#4",
          "ticks": 38784,
          "time": 44.888844,
          "velocity": 0.3937007874015748
        },
        {
          "duration": 0.11111100000000107,
          "durationTicks": 96,
          "midi": 64,
          "name": "E4",
          "ticks": 38976,
          "time": 45.111066,
          "velocity": 0.3937007874015748
        },
        {
          "duration": 0.11111099999999396,
          "durationTicks": 96,
          "midi": 69,
          "name": "A4",
          "ticks": 39168,
          "time": 45.333288,
          "velocity": 0.3937007874015748
        },
        {
          "duration": 0.11111100000000107,
          "durationTicks": 96,
          "midi": 66,
          "name": "F#4",
          "ticks": 39360,
          "time": 45.55551,
          "velocity": 0.3937007874015748
        },
        {
          "duration": 0.11111100000000107,
          "durationTicks": 96,
          "midi": 64,
          "name": "E4",
          "ticks": 39552,
          "time": 45.777732,
          "velocity": 0.3937007874015748
        },
        {
          "duration": 0.11111100000000107,
          "durationTicks": 96,
          "midi": 63,
          "name": "D#4",
          "ticks": 39744,
          "time": 45.999954,
          "velocity": 0.3937007874015748
        },
        {
          "duration": 0.05555550000000409,
          "durationTicks": 48,
          "midi": 64,
          "name": "E4",
          "ticks": 39936,
          "time": 46.222176,
          "velocity": 0.3937007874015748
        },
        {
          "duration": 0.05555549999999698,
          "durationTicks": 48,
          "midi": 76,
          "name": "E5",
          "ticks": 39984,
          "time": 46.2777315,
          "velocity": 0.3937007874015748
        },
        {
          "duration": 0.05555550000000409,
          "durationTicks": 48,
          "midi": 64,
          "name": "E4",
          "ticks": 40032,
          "time": 46.333287,
          "velocity": 0.3937007874015748
        },
        {
          "duration": 0.05555549999999698,
          "durationTicks": 48,
          "midi": 76,
          "name": "E5",
          "ticks": 40080,
          "time": 46.3888425,
          "velocity": 0.3937007874015748
        },
        {
          "duration": 0.11111100000000107,
          "durationTicks": 96,
          "midi": 66,
          "name": "F#4",
          "ticks": 40128,
          "time": 46.444398,
          "velocity": 0.3937007874015748
        },
        {
          "duration": 0.11111099999999396,
          "durationTicks": 96,
          "midi": 78,
          "name": "F#5",
          "ticks": 40176,
          "time": 46.499953500000004,
          "velocity": 0.3937007874015748
        },
        {
          "duration": 0.11111100000000107,
          "durationTicks": 96,
          "midi": 64,
          "name": "E4",
          "ticks": 40320,
          "time": 46.66662,
          "velocity": 0.3937007874015748
        },
        {
          "duration": 0.11111100000000107,
          "durationTicks": 96,
          "midi": 76,
          "name": "E5",
          "ticks": 40368,
          "time": 46.7221755,
          "velocity": 0.3937007874015748
        },
        {
          "duration": 0.11111099999999396,
          "durationTicks": 96,
          "midi": 63,
          "name": "D#4",
          "ticks": 40512,
          "time": 46.888842000000004,
          "velocity": 0.3937007874015748
        },
        {
          "duration": 0.11111100000000107,
          "durationTicks": 96,
          "midi": 75,
          "name": "D#5",
          "ticks": 40560,
          "time": 46.9443975,
          "velocity": 0.3937007874015748
        },
        {
          "duration": 0.05555550000000409,
          "durationTicks": 48,
          "midi": 64,
          "name": "E4",
          "ticks": 40704,
          "time": 47.111064,
          "velocity": 0.3937007874015748
        },
        {
          "duration": 0.05555549999999698,
          "durationTicks": 48,
          "midi": 76,
          "name": "E5",
          "ticks": 40752,
          "time": 47.1666195,
          "velocity": 0.3937007874015748
        },
        {
          "duration": 0.05555550000000409,
          "durationTicks": 48,
          "midi": 64,
          "name": "E4",
          "ticks": 40800,
          "time": 47.222175,
          "velocity": 0.3937007874015748
        },
        {
          "duration": 0.05555549999999698,
          "durationTicks": 48,
          "midi": 76,
          "name": "E5",
          "ticks": 40848,
          "time": 47.277730500000004,
          "velocity": 0.3937007874015748
        },
        {
          "duration": 0.05555549999999698,
          "durationTicks": 48,
          "midi": 66,
          "name": "F#4",
          "ticks": 40896,
          "time": 47.333286,
          "velocity": 0.3937007874015748
        },
        {
          "duration": 0.05555550000000409,
          "durationTicks": 48,
          "midi": 78,
          "name": "F#5",
          "ticks": 40944,
          "time": 47.3888415,
          "velocity": 0.3937007874015748
        },
        {
          "duration": 0.05555549999999698,
          "durationTicks": 48,
          "midi": 66,
          "name": "F#4",
          "ticks": 40992,
          "time": 47.444397,
          "velocity": 0.3937007874015748
        },
        {
          "duration": 0.05555550000000409,
          "durationTicks": 48,
          "midi": 78,
          "name": "F#5",
          "ticks": 41040,
          "time": 47.4999525,
          "velocity": 0.3937007874015748
        },
        {
          "duration": 0.11111099999999396,
          "durationTicks": 96,
          "midi": 68,
          "name": "G#4",
          "ticks": 41088,
          "time": 47.555508,
          "velocity": 0.3937007874015748
        },
        {
          "duration": 0.11111100000000107,
          "durationTicks": 96,
          "midi": 80,
          "name": "G#5",
          "ticks": 41136,
          "time": 47.6110635,
          "velocity": 0.3937007874015748
        },
        {
          "duration": 0.11111100000000107,
          "durationTicks": 96,
          "midi": 66,
          "name": "F#4",
          "ticks": 41280,
          "time": 47.77773,
          "velocity": 0.3937007874015748
        },
        {
          "duration": 0.11111100000000107,
          "durationTicks": 96,
          "midi": 78,
          "name": "F#5",
          "ticks": 41328,
          "time": 47.8332855,
          "velocity": 0.3937007874015748
        },
        {
          "duration": 0.3333330000000032,
          "durationTicks": 288,
          "midi": 64,
          "name": "E4",
          "ticks": 41472,
          "time": 47.999952,
          "velocity": 0.3937007874015748
        },
        {
          "duration": 0.11111100000000107,
          "durationTicks": 96,
          "midi": 68,
          "name": "G#4",
          "ticks": 41856,
          "time": 48.444396,
          "velocity": 0.3937007874015748
        },
        {
          "duration": 0.11111100000000107,
          "durationTicks": 96,
          "midi": 64,
          "name": "E4",
          "ticks": 42048,
          "time": 48.666618,
          "velocity": 0.3937007874015748
        },
        {
          "duration": 0.11111100000000107,
          "durationTicks": 96,
          "midi": 69,
          "name": "A4",
          "ticks": 42240,
          "time": 48.88884,
          "velocity": 0.3937007874015748
        },
        {
          "duration": 0.11111099999999396,
          "durationTicks": 96,
          "midi": 68,
          "name": "G#4",
          "ticks": 42432,
          "time": 49.111062000000004,
          "velocity": 0.3937007874015748
        },
        {
          "duration": 0.11111100000000107,
          "durationTicks": 96,
          "midi": 66,
          "name": "F#4",
          "ticks": 42624,
          "time": 49.333284,
          "velocity": 0.3937007874015748
        },
        {
          "duration": 0.11111100000000107,
          "durationTicks": 96,
          "midi": 64,
          "name": "E4",
          "ticks": 42816,
          "time": 49.555506,
          "velocity": 0.3937007874015748
        }
      ],
      "endOfTrackTicks": 42912
    },
    {
      "channel": 6,
      "controlChanges": {},
      "pitchBends": [],
      "instrument": {
        "family": "bass",
        "number": 36,
        "name": "slap bass 1"
      },
      "name": "Slap Bass",
      "notes": [
        {
          "duration": 0.44444399999999984,
          "durationTicks": 384,
          "midi": 49,
          "name": "C#3",
          "ticks": 5376,
          "time": 6.222216,
          "velocity": 0.3937007874015748
        },
        {
          "duration": 0.11111100000000018,
          "durationTicks": 96,
          "midi": 47,
          "name": "B2",
          "ticks": 5760,
          "time": 6.66666,
          "velocity": 0.3937007874015748
        },
        {
          "duration": 0.1111109999999993,
          "durationTicks": 96,
          "midi": 44,
          "name": "G#2",
          "ticks": 5856,
          "time": 6.777771,
          "velocity": 0.3937007874015748
        },
        {
          "duration": 0.11111100000000018,
          "durationTicks": 96,
          "midi": 42,
          "name": "F#2",
          "ticks": 5952,
          "time": 6.888882,
          "velocity": 0.3937007874015748
        },
        {
          "duration": 0.11111100000000018,
          "durationTicks": 96,
          "midi": 39,
          "name": "D#2",
          "ticks": 6048,
          "time": 6.999993,
          "velocity": 0.3937007874015748
        },
        {
          "duration": 0.11111100000000018,
          "durationTicks": 96,
          "midi": 37,
          "name": "C#2",
          "ticks": 6144,
          "time": 7.111104,
          "velocity": 0.3937007874015748
        },
        {
          "duration": 0.1111109999999993,
          "durationTicks": 96,
          "midi": 49,
          "name": "C#3",
          "ticks": 6336,
          "time": 7.3333260000000005,
          "velocity": 0.3937007874015748
        },
        {
          "duration": 0.11111100000000018,
          "durationTicks": 96,
          "midi": 37,
          "name": "C#2",
          "ticks": 6528,
          "time": 7.555548,
          "velocity": 0.3937007874015748
        },
        {
          "duration": 0.11111100000000018,
          "durationTicks": 96,
          "midi": 49,
          "name": "C#3",
          "ticks": 6720,
          "time": 7.77777,
          "velocity": 0.3937007874015748
        },
        {
          "duration": 0.11111100000000018,
          "durationTicks": 96,
          "midi": 37,
          "name": "C#2",
          "ticks": 6912,
          "time": 7.999992,
          "velocity": 0.3937007874015748
        },
        {
          "duration": 0.11111100000000107,
          "durationTicks": 96,
          "midi": 49,
          "name": "C#3",
          "ticks": 7104,
          "time": 8.222214,
          "velocity": 0.3937007874015748
        },
        {
          "duration": 0.11111100000000107,
          "durationTicks": 96,
          "midi": 37,
          "name": "C#2",
          "ticks": 7296,
          "time": 8.444436,
          "velocity": 0.3937007874015748
        },
        {
          "duration": 0.1111109999999993,
          "durationTicks": 96,
          "midi": 49,
          "name": "C#3",
          "ticks": 7488,
          "time": 8.666658,
          "velocity": 0.3937007874015748
        },
        {
          "duration": 0.1111109999999993,
          "durationTicks": 96,
          "midi": 35,
          "name": "B1",
          "ticks": 7680,
          "time": 8.88888,
          "velocity": 0.3937007874015748
        },
        {
          "duration": 0.1111109999999993,
          "durationTicks": 96,
          "midi": 47,
          "name": "B2",
          "ticks": 7872,
          "time": 9.111102,
          "velocity": 0.3937007874015748
        },
        {
          "duration": 0.11111100000000107,
          "durationTicks": 96,
          "midi": 35,
          "name": "B1",
          "ticks": 8064,
          "time": 9.333324,
          "velocity": 0.3937007874015748
        },
        {
          "duration": 0.11111100000000107,
          "durationTicks": 96,
          "midi": 47,
          "name": "B2",
          "ticks": 8256,
          "time": 9.555546,
          "velocity": 0.3937007874015748
        },
        {
          "duration": 0.1111109999999993,
          "durationTicks": 96,
          "midi": 36,
          "name": "C2",
          "ticks": 8448,
          "time": 9.777768,
          "velocity": 0.3937007874015748
        },
        {
          "duration": 0.1111109999999993,
          "durationTicks": 96,
          "midi": 48,
          "name": "C3",
          "ticks": 8640,
          "time": 9.99999,
          "velocity": 0.3937007874015748
        },
        {
          "duration": 0.1111109999999993,
          "durationTicks": 96,
          "midi": 36,
          "name": "C2",
          "ticks": 8832,
          "time": 10.222212,
          "velocity": 0.3937007874015748
        },
        {
          "duration": 0.11111100000000107,
          "durationTicks": 96,
          "midi": 48,
          "name": "C3",
          "ticks": 9024,
          "time": 10.444434,
          "velocity": 0.3937007874015748
        },
        {
          "duration": 0.11111100000000107,
          "durationTicks": 96,
          "midi": 33,
          "name": "A1",
          "ticks": 9216,
          "time": 10.666656,
          "velocity": 0.3937007874015748
        },
        {
          "duration": 0.1111109999999993,
          "durationTicks": 96,
          "midi": 45,
          "name": "A2",
          "ticks": 9408,
          "time": 10.888878,
          "velocity": 0.3937007874015748
        },
        {
          "duration": 0.1111109999999993,
          "durationTicks": 96,
          "midi": 33,
          "name": "A1",
          "ticks": 9600,
          "time": 11.1111,
          "velocity": 0.3937007874015748
        },
        {
          "duration": 0.1111109999999993,
          "durationTicks": 96,
          "midi": 45,
          "name": "A2",
          "ticks": 9792,
          "time": 11.333322,
          "velocity": 0.3937007874015748
        },
        {
          "duration": 0.11111100000000107,
          "durationTicks": 96,
          "midi": 33,
          "name": "A1",
          "ticks": 9984,
          "time": 11.555544,
          "velocity": 0.3937007874015748
        },
        {
          "duration": 0.11111100000000107,
          "durationTicks": 96,
          "midi": 45,
          "name": "A2",
          "ticks": 10176,
          "time": 11.777766,
          "velocity": 0.3937007874015748
        },
        {
          "duration": 0.1111109999999993,
          "durationTicks": 96,
          "midi": 33,
          "name": "A1",
          "ticks": 10368,
          "time": 11.999988,
          "velocity": 0.3937007874015748
        },
        {
          "duration": 0.1111109999999993,
          "durationTicks": 96,
          "midi": 45,
          "name": "A2",
          "ticks": 10560,
          "time": 12.22221,
          "velocity": 0.3937007874015748
        },
        {
          "duration": 0.1111109999999993,
          "durationTicks": 96,
          "midi": 33,
          "name": "A1",
          "ticks": 10752,
          "time": 12.444432,
          "velocity": 0.3937007874015748
        },
        {
          "duration": 0.11111100000000107,
          "durationTicks": 96,
          "midi": 45,
          "name": "A2",
          "ticks": 10944,
          "time": 12.666654,
          "velocity": 0.3937007874015748
        },
        {
          "duration": 0.11111100000000107,
          "durationTicks": 96,
          "midi": 33,
          "name": "A1",
          "ticks": 11136,
          "time": 12.888876,
          "velocity": 0.3937007874015748
        },
        {
          "duration": 0.1111109999999993,
          "durationTicks": 96,
          "midi": 45,
          "name": "A2",
          "ticks": 11328,
          "time": 13.111098,
          "velocity": 0.3937007874015748
        },
        {
          "duration": 0.1111109999999993,
          "durationTicks": 96,
          "midi": 35,
          "name": "B1",
          "ticks": 11520,
          "time": 13.33332,
          "velocity": 0.3937007874015748
        },
        {
          "duration": 0.1111109999999993,
          "durationTicks": 96,
          "midi": 47,
          "name": "B2",
          "ticks": 11712,
          "time": 13.555542,
          "velocity": 0.3937007874015748
        },
        {
          "duration": 0.1111109999999993,
          "durationTicks": 96,
          "midi": 37,
          "name": "C#2",
          "ticks": 12288,
          "time": 14.222208,
          "velocity": 0.3937007874015748
        },
        {
          "duration": 0.1111109999999993,
          "durationTicks": 96,
          "midi": 49,
          "name": "C#3",
          "ticks": 12480,
          "time": 14.44443,
          "velocity": 0.3937007874015748
        },
        {
          "duration": 0.1111109999999993,
          "durationTicks": 96,
          "midi": 37,
          "name": "C#2",
          "ticks": 12672,
          "time": 14.666652000000001,
          "velocity": 0.3937007874015748
        },
        {
          "duration": 0.11111100000000107,
          "durationTicks": 96,
          "midi": 49,
          "name": "C#3",
          "ticks": 12864,
          "time": 14.888874,
          "velocity": 0.3937007874015748
        },
        {
          "duration": 0.11111100000000107,
          "durationTicks": 96,
          "midi": 37,
          "name": "C#2",
          "ticks": 13056,
          "time": 15.111096,
          "velocity": 0.3937007874015748
        },
        {
          "duration": 0.1111109999999993,
          "durationTicks": 96,
          "midi": 49,
          "name": "C#3",
          "ticks": 13248,
          "time": 15.333318,
          "velocity": 0.3937007874015748
        },
        {
          "duration": 0.1111109999999993,
          "durationTicks": 96,
          "midi": 37,
          "name": "C#2",
          "ticks": 13440,
          "time": 15.55554,
          "velocity": 0.3937007874015748
        },
        {
          "duration": 0.1111109999999993,
          "durationTicks": 96,
          "midi": 49,
          "name": "C#3",
          "ticks": 13632,
          "time": 15.777762000000001,
          "velocity": 0.3937007874015748
        },
        {
          "duration": 0.1111109999999993,
          "durationTicks": 96,
          "midi": 35,
          "name": "B1",
          "ticks": 13824,
          "time": 15.999984,
          "velocity": 0.3937007874015748
        },
        {
          "duration": 0.11111100000000107,
          "durationTicks": 96,
          "midi": 47,
          "name": "B2",
          "ticks": 14016,
          "time": 16.222206,
          "velocity": 0.3937007874015748
        },
        {
          "duration": 0.11111100000000107,
          "durationTicks": 96,
          "midi": 35,
          "name": "B1",
          "ticks": 14208,
          "time": 16.444428,
          "velocity": 0.3937007874015748
        },
        {
          "duration": 0.11111100000000107,
          "durationTicks": 96,
          "midi": 47,
          "name": "B2",
          "ticks": 14400,
          "time": 16.66665,
          "velocity": 0.3937007874015748
        },
        {
          "duration": 0.11111100000000107,
          "durationTicks": 96,
          "midi": 36,
          "name": "C2",
          "ticks": 14592,
          "time": 16.888872,
          "velocity": 0.3937007874015748
        },
        {
          "duration": 0.11111099999999752,
          "durationTicks": 96,
          "midi": 48,
          "name": "C3",
          "ticks": 14784,
          "time": 17.111094,
          "velocity": 0.3937007874015748
        },
        {
          "duration": 0.11111100000000107,
          "durationTicks": 96,
          "midi": 36,
          "name": "C2",
          "ticks": 14976,
          "time": 17.333316,
          "velocity": 0.3937007874015748
        },
        {
          "duration": 0.11111100000000107,
          "durationTicks": 96,
          "midi": 48,
          "name": "C3",
          "ticks": 15168,
          "time": 17.555538,
          "velocity": 0.3937007874015748
        },
        {
          "duration": 0.11111100000000107,
          "durationTicks": 96,
          "midi": 33,
          "name": "A1",
          "ticks": 15360,
          "time": 17.77776,
          "velocity": 0.3937007874015748
        },
        {
          "duration": 0.11111100000000107,
          "durationTicks": 96,
          "midi": 45,
          "name": "A2",
          "ticks": 15552,
          "time": 17.999982,
          "velocity": 0.3937007874015748
        },
        {
          "duration": 0.11111099999999752,
          "durationTicks": 96,
          "midi": 33,
          "name": "A1",
          "ticks": 15744,
          "time": 18.222204,
          "velocity": 0.3937007874015748
        },
        {
          "duration": 0.11111100000000107,
          "durationTicks": 96,
          "midi": 45,
          "name": "A2",
          "ticks": 15936,
          "time": 18.444426,
          "velocity": 0.3937007874015748
        },
        {
          "duration": 0.11111100000000107,
          "durationTicks": 96,
          "midi": 33,
          "name": "A1",
          "ticks": 16128,
          "time": 18.666648,
          "velocity": 0.3937007874015748
        },
        {
          "duration": 0.11111100000000107,
          "durationTicks": 96,
          "midi": 45,
          "name": "A2",
          "ticks": 16320,
          "time": 18.88887,
          "velocity": 0.3937007874015748
        },
        {
          "duration": 0.11111100000000107,
          "durationTicks": 96,
          "midi": 33,
          "name": "A1",
          "ticks": 16512,
          "time": 19.111092,
          "velocity": 0.3937007874015748
        },
        {
          "duration": 0.11111099999999752,
          "durationTicks": 96,
          "midi": 45,
          "name": "A2",
          "ticks": 16704,
          "time": 19.333314,
          "velocity": 0.3937007874015748
        },
        {
          "duration": 0.11111100000000107,
          "durationTicks": 96,
          "midi": 33,
          "name": "A1",
          "ticks": 16896,
          "time": 19.555536,
          "velocity": 0.3937007874015748
        },
        {
          "duration": 0.11111100000000107,
          "durationTicks": 96,
          "midi": 45,
          "name": "A2",
          "ticks": 17088,
          "time": 19.777758,
          "velocity": 0.3937007874015748
        },
        {
          "duration": 0.11111100000000107,
          "durationTicks": 96,
          "midi": 33,
          "name": "A1",
          "ticks": 17280,
          "time": 19.99998,
          "velocity": 0.3937007874015748
        },
        {
          "duration": 0.11111100000000107,
          "durationTicks": 96,
          "midi": 45,
          "name": "A2",
          "ticks": 17472,
          "time": 20.222202,
          "velocity": 0.3937007874015748
        },
        {
          "duration": 0.11111099999999752,
          "durationTicks": 96,
          "midi": 35,
          "name": "B1",
          "ticks": 17664,
          "time": 20.444424,
          "velocity": 0.3937007874015748
        },
        {
          "duration": 0.11111100000000107,
          "durationTicks": 96,
          "midi": 47,
          "name": "B2",
          "ticks": 17856,
          "time": 20.666646,
          "velocity": 0.3937007874015748
        },
        {
          "duration": 0.11111100000000107,
          "durationTicks": 96,
          "midi": 36,
          "name": "C2",
          "ticks": 18048,
          "time": 20.888868,
          "velocity": 0.3937007874015748
        },
        {
          "duration": 0.11111100000000107,
          "durationTicks": 96,
          "midi": 48,
          "name": "C3",
          "ticks": 18240,
          "time": 21.11109,
          "velocity": 0.3937007874015748
        },
        {
          "duration": 0.11111100000000107,
          "durationTicks": 96,
          "midi": 25,
          "name": "C#1",
          "ticks": 18432,
          "time": 21.333312,
          "velocity": 0.3937007874015748
        },
        {
          "duration": 0.11111100000000107,
          "durationTicks": 96,
          "midi": 37,
          "name": "C#2",
          "ticks": 18432,
          "time": 21.333312,
          "velocity": 0.3937007874015748
        },
        {
          "duration": 0.11111099999999752,
          "durationTicks": 96,
          "midi": 37,
          "name": "C#2",
          "ticks": 18624,
          "time": 21.555534,
          "velocity": 0.3937007874015748
        },
        {
          "duration": 0.11111099999999752,
          "durationTicks": 96,
          "midi": 49,
          "name": "C#3",
          "ticks": 18624,
          "time": 21.555534,
          "velocity": 0.3937007874015748
        },
        {
          "duration": 0.11111100000000107,
          "durationTicks": 96,
          "midi": 37,
          "name": "C#2",
          "ticks": 18816,
          "time": 21.777756,
          "velocity": 0.3937007874015748
        },
        {
          "duration": 0.11111100000000107,
          "durationTicks": 96,
          "midi": 25,
          "name": "C#1",
          "ticks": 18816,
          "time": 21.777756,
          "velocity": 0.3937007874015748
        },
        {
          "duration": 0.11111100000000107,
          "durationTicks": 96,
          "midi": 37,
          "name": "C#2",
          "ticks": 19008,
          "time": 21.999978,
          "velocity": 0.3937007874015748
        },
        {
          "duration": 0.11111100000000107,
          "durationTicks": 96,
          "midi": 49,
          "name": "C#3",
          "ticks": 19008,
          "time": 21.999978,
          "velocity": 0.3937007874015748
        },
        {
          "duration": 0.11111100000000107,
          "durationTicks": 96,
          "midi": 37,
          "name": "C#2",
          "ticks": 19200,
          "time": 22.2222,
          "velocity": 0.3937007874015748
        },
        {
          "duration": 0.11111100000000107,
          "durationTicks": 96,
          "midi": 25,
          "name": "C#1",
          "ticks": 19200,
          "time": 22.2222,
          "velocity": 0.3937007874015748
        },
        {
          "duration": 0.11111100000000107,
          "durationTicks": 96,
          "midi": 49,
          "name": "C#3",
          "ticks": 19392,
          "time": 22.444422,
          "velocity": 0.3937007874015748
        },
        {
          "duration": 0.11111100000000107,
          "durationTicks": 96,
          "midi": 37,
          "name": "C#2",
          "ticks": 19392,
          "time": 22.444422,
          "velocity": 0.3937007874015748
        },
        {
          "duration": 0.11111099999999752,
          "durationTicks": 96,
          "midi": 25,
          "name": "C#1",
          "ticks": 19584,
          "time": 22.666644,
          "velocity": 0.3937007874015748
        },
        {
          "duration": 0.11111099999999752,
          "durationTicks": 96,
          "midi": 37,
          "name": "C#2",
          "ticks": 19584,
          "time": 22.666644,
          "velocity": 0.3937007874015748
        },
        {
          "duration": 0.11111100000000107,
          "durationTicks": 96,
          "midi": 49,
          "name": "C#3",
          "ticks": 19776,
          "time": 22.888866,
          "velocity": 0.3937007874015748
        },
        {
          "duration": 0.11111100000000107,
          "durationTicks": 96,
          "midi": 37,
          "name": "C#2",
          "ticks": 19776,
          "time": 22.888866,
          "velocity": 0.3937007874015748
        },
        {
          "duration": 0.11111100000000107,
          "durationTicks": 96,
          "midi": 35,
          "name": "B1",
          "ticks": 19968,
          "time": 23.111088,
          "velocity": 0.3937007874015748
        },
        {
          "duration": 0.11111100000000107,
          "durationTicks": 96,
          "midi": 35,
          "name": "B1",
          "ticks": 19968,
          "time": 23.111088,
          "velocity": 0.3937007874015748
        },
        {
          "duration": 0.11111100000000107,
          "durationTicks": 96,
          "midi": 47,
          "name": "B2",
          "ticks": 20160,
          "time": 23.33331,
          "velocity": 0.3937007874015748
        },
        {
          "duration": 0.11111100000000107,
          "durationTicks": 96,
          "midi": 35,
          "name": "B1",
          "ticks": 20160,
          "time": 23.33331,
          "velocity": 0.3937007874015748
        },
        {
          "duration": 0.11111100000000107,
          "durationTicks": 96,
          "midi": 35,
          "name": "B1",
          "ticks": 20352,
          "time": 23.555532,
          "velocity": 0.3937007874015748
        },
        {
          "duration": 0.11111100000000107,
          "durationTicks": 96,
          "midi": 35,
          "name": "B1",
          "ticks": 20352,
          "time": 23.555532,
          "velocity": 0.3937007874015748
        },
        {
          "duration": 0.11111099999999752,
          "durationTicks": 96,
          "midi": 47,
          "name": "B2",
          "ticks": 20544,
          "time": 23.777754,
          "velocity": 0.3937007874015748
        },
        {
          "duration": 0.11111099999999752,
          "durationTicks": 96,
          "midi": 35,
          "name": "B1",
          "ticks": 20544,
          "time": 23.777754,
          "velocity": 0.3937007874015748
        },
        {
          "duration": 0.11111100000000107,
          "durationTicks": 96,
          "midi": 24,
          "name": "C1",
          "ticks": 20736,
          "time": 23.999976,
          "velocity": 0.3937007874015748
        },
        {
          "duration": 0.11111100000000107,
          "durationTicks": 96,
          "midi": 36,
          "name": "C2",
          "ticks": 20736,
          "time": 23.999976,
          "velocity": 0.3937007874015748
        },
        {
          "duration": 0.11111100000000107,
          "durationTicks": 96,
          "midi": 36,
          "name": "C2",
          "ticks": 20928,
          "time": 24.222198,
          "velocity": 0.3937007874015748
        },
        {
          "duration": 0.11111100000000107,
          "durationTicks": 96,
          "midi": 48,
          "name": "C3",
          "ticks": 20928,
          "time": 24.222198,
          "velocity": 0.3937007874015748
        },
        {
          "duration": 0.11111100000000107,
          "durationTicks": 96,
          "midi": 36,
          "name": "C2",
          "ticks": 21120,
          "time": 24.44442,
          "velocity": 0.3937007874015748
        },
        {
          "duration": 0.11111100000000107,
          "durationTicks": 96,
          "midi": 24,
          "name": "C1",
          "ticks": 21120,
          "time": 24.44442,
          "velocity": 0.3937007874015748
        },
        {
          "duration": 0.11111100000000107,
          "durationTicks": 96,
          "midi": 36,
          "name": "C2",
          "ticks": 21312,
          "time": 24.666642,
          "velocity": 0.3937007874015748
        },
        {
          "duration": 0.11111100000000107,
          "durationTicks": 96,
          "midi": 48,
          "name": "C3",
          "ticks": 21312,
          "time": 24.666642,
          "velocity": 0.3937007874015748
        },
        {
          "duration": 0.11111099999999752,
          "durationTicks": 96,
          "midi": 33,
          "name": "A1",
          "ticks": 21504,
          "time": 24.888864,
          "velocity": 0.3937007874015748
        },
        {
          "duration": 0.11111099999999752,
          "durationTicks": 96,
          "midi": 33,
          "name": "A1",
          "ticks": 21504,
          "time": 24.888864,
          "velocity": 0.3937007874015748
        },
        {
          "duration": 0.11111100000000107,
          "durationTicks": 96,
          "midi": 33,
          "name": "A1",
          "ticks": 21696,
          "time": 25.111086,
          "velocity": 0.3937007874015748
        },
        {
          "duration": 0.11111100000000107,
          "durationTicks": 96,
          "midi": 45,
          "name": "A2",
          "ticks": 21696,
          "time": 25.111086,
          "velocity": 0.3937007874015748
        },
        {
          "duration": 0.11111100000000107,
          "durationTicks": 96,
          "midi": 33,
          "name": "A1",
          "ticks": 21888,
          "time": 25.333308,
          "velocity": 0.3937007874015748
        },
        {
          "duration": 0.11111100000000107,
          "durationTicks": 96,
          "midi": 33,
          "name": "A1",
          "ticks": 21888,
          "time": 25.333308,
          "velocity": 0.3937007874015748
        },
        {
          "duration": 0.11111100000000107,
          "durationTicks": 96,
          "midi": 45,
          "name": "A2",
          "ticks": 22080,
          "time": 25.55553,
          "velocity": 0.3937007874015748
        },
        {
          "duration": 0.11111100000000107,
          "durationTicks": 96,
          "midi": 33,
          "name": "A1",
          "ticks": 22080,
          "time": 25.55553,
          "velocity": 0.3937007874015748
        },
        {
          "duration": 0.11111100000000107,
          "durationTicks": 96,
          "midi": 33,
          "name": "A1",
          "ticks": 22272,
          "time": 25.777752,
          "velocity": 0.3937007874015748
        },
        {
          "duration": 0.11111100000000107,
          "durationTicks": 96,
          "midi": 33,
          "name": "A1",
          "ticks": 22272,
          "time": 25.777752,
          "velocity": 0.3937007874015748
        },
        {
          "duration": 0.11111099999999752,
          "durationTicks": 96,
          "midi": 33,
          "name": "A1",
          "ticks": 22464,
          "time": 25.999974,
          "velocity": 0.3937007874015748
        },
        {
          "duration": 0.11111099999999752,
          "durationTicks": 96,
          "midi": 45,
          "name": "A2",
          "ticks": 22464,
          "time": 25.999974,
          "velocity": 0.3937007874015748
        },
        {
          "duration": 0.11111100000000107,
          "durationTicks": 96,
          "midi": 33,
          "name": "A1",
          "ticks": 22656,
          "time": 26.222196,
          "velocity": 0.3937007874015748
        },
        {
          "duration": 0.11111100000000107,
          "durationTicks": 96,
          "midi": 33,
          "name": "A1",
          "ticks": 22656,
          "time": 26.222196,
          "velocity": 0.3937007874015748
        },
        {
          "duration": 0.11111100000000107,
          "durationTicks": 96,
          "midi": 45,
          "name": "A2",
          "ticks": 22848,
          "time": 26.444418,
          "velocity": 0.3937007874015748
        },
        {
          "duration": 0.11111100000000107,
          "durationTicks": 96,
          "midi": 33,
          "name": "A1",
          "ticks": 22848,
          "time": 26.444418,
          "velocity": 0.3937007874015748
        },
        {
          "duration": 0.11111100000000107,
          "durationTicks": 96,
          "midi": 33,
          "name": "A1",
          "ticks": 23040,
          "time": 26.66664,
          "velocity": 0.3937007874015748
        },
        {
          "duration": 0.11111100000000107,
          "durationTicks": 96,
          "midi": 33,
          "name": "A1",
          "ticks": 23040,
          "time": 26.66664,
          "velocity": 0.3937007874015748
        },
        {
          "duration": 0.11111100000000107,
          "durationTicks": 96,
          "midi": 45,
          "name": "A2",
          "ticks": 23232,
          "time": 26.888862,
          "velocity": 0.3937007874015748
        },
        {
          "duration": 0.11111100000000107,
          "durationTicks": 96,
          "midi": 33,
          "name": "A1",
          "ticks": 23232,
          "time": 26.888862,
          "velocity": 0.3937007874015748
        },
        {
          "duration": 0.11111099999999752,
          "durationTicks": 96,
          "midi": 33,
          "name": "A1",
          "ticks": 23424,
          "time": 27.111084,
          "velocity": 0.3937007874015748
        },
        {
          "duration": 0.11111099999999752,
          "durationTicks": 96,
          "midi": 33,
          "name": "A1",
          "ticks": 23424,
          "time": 27.111084,
          "velocity": 0.3937007874015748
        },
        {
          "duration": 0.11111100000000107,
          "durationTicks": 96,
          "midi": 45,
          "name": "A2",
          "ticks": 23616,
          "time": 27.333306,
          "velocity": 0.3937007874015748
        },
        {
          "duration": 0.11111100000000107,
          "durationTicks": 96,
          "midi": 33,
          "name": "A1",
          "ticks": 23616,
          "time": 27.333306,
          "velocity": 0.3937007874015748
        },
        {
          "duration": 0.11111100000000107,
          "durationTicks": 96,
          "midi": 35,
          "name": "B1",
          "ticks": 23808,
          "time": 27.555528,
          "velocity": 0.3937007874015748
        },
        {
          "duration": 0.11111100000000107,
          "durationTicks": 96,
          "midi": 35,
          "name": "B1",
          "ticks": 23808,
          "time": 27.555528,
          "velocity": 0.3937007874015748
        },
        {
          "duration": 0.11111100000000107,
          "durationTicks": 96,
          "midi": 47,
          "name": "B2",
          "ticks": 24000,
          "time": 27.77775,
          "velocity": 0.3937007874015748
        },
        {
          "duration": 0.11111100000000107,
          "durationTicks": 96,
          "midi": 35,
          "name": "B1",
          "ticks": 24000,
          "time": 27.77775,
          "velocity": 0.3937007874015748
        },
        {
          "duration": 0.11111100000000107,
          "durationTicks": 96,
          "midi": 35,
          "name": "B1",
          "ticks": 24192,
          "time": 27.999972,
          "velocity": 0.3937007874015748
        },
        {
          "duration": 0.11111100000000107,
          "durationTicks": 96,
          "midi": 35,
          "name": "B1",
          "ticks": 24192,
          "time": 27.999972,
          "velocity": 0.3937007874015748
        },
        {
          "duration": 0.11111099999999752,
          "durationTicks": 96,
          "midi": 35,
          "name": "B1",
          "ticks": 24384,
          "time": 28.222194000000002,
          "velocity": 0.3937007874015748
        },
        {
          "duration": 0.11111099999999752,
          "durationTicks": 96,
          "midi": 47,
          "name": "B2",
          "ticks": 24384,
          "time": 28.222194000000002,
          "velocity": 0.3937007874015748
        },
        {
          "duration": 0.11111100000000107,
          "durationTicks": 96,
          "midi": 25,
          "name": "C#1",
          "ticks": 24576,
          "time": 28.444416,
          "velocity": 0.3937007874015748
        },
        {
          "duration": 0.11111100000000107,
          "durationTicks": 96,
          "midi": 37,
          "name": "C#2",
          "ticks": 24576,
          "time": 28.444416,
          "velocity": 0.3937007874015748
        },
        {
          "duration": 0.11111100000000107,
          "durationTicks": 96,
          "midi": 37,
          "name": "C#2",
          "ticks": 24768,
          "time": 28.666638,
          "velocity": 0.3937007874015748
        },
        {
          "duration": 0.11111100000000107,
          "durationTicks": 96,
          "midi": 49,
          "name": "C#3",
          "ticks": 24768,
          "time": 28.666638,
          "velocity": 0.3937007874015748
        },
        {
          "duration": 0.11111099999999752,
          "durationTicks": 96,
          "midi": 25,
          "name": "C#1",
          "ticks": 24960,
          "time": 28.88886,
          "velocity": 0.3937007874015748
        },
        {
          "duration": 0.11111099999999752,
          "durationTicks": 96,
          "midi": 37,
          "name": "C#2",
          "ticks": 24960,
          "time": 28.88886,
          "velocity": 0.3937007874015748
        },
        {
          "duration": 0.11111100000000107,
          "durationTicks": 96,
          "midi": 49,
          "name": "C#3",
          "ticks": 25152,
          "time": 29.111082,
          "velocity": 0.3937007874015748
        },
        {
          "duration": 0.11111100000000107,
          "durationTicks": 96,
          "midi": 37,
          "name": "C#2",
          "ticks": 25152,
          "time": 29.111082,
          "velocity": 0.3937007874015748
        },
        {
          "duration": 0.11111099999999752,
          "durationTicks": 96,
          "midi": 25,
          "name": "C#1",
          "ticks": 25344,
          "time": 29.333304000000002,
          "velocity": 0.3937007874015748
        },
        {
          "duration": 0.11111099999999752,
          "durationTicks": 96,
          "midi": 37,
          "name": "C#2",
          "ticks": 25344,
          "time": 29.333304000000002,
          "velocity": 0.3937007874015748
        },
        {
          "duration": 0.11111100000000107,
          "durationTicks": 96,
          "midi": 49,
          "name": "C#3",
          "ticks": 25536,
          "time": 29.555526,
          "velocity": 0.3937007874015748
        },
        {
          "duration": 0.11111100000000107,
          "durationTicks": 96,
          "midi": 37,
          "name": "C#2",
          "ticks": 25536,
          "time": 29.555526,
          "velocity": 0.3937007874015748
        },
        {
          "duration": 0.11111100000000107,
          "durationTicks": 96,
          "midi": 37,
          "name": "C#2",
          "ticks": 25728,
          "time": 29.777748,
          "velocity": 0.3937007874015748
        },
        {
          "duration": 0.11111100000000107,
          "durationTicks": 96,
          "midi": 25,
          "name": "C#1",
          "ticks": 25728,
          "time": 29.777748,
          "velocity": 0.3937007874015748
        },
        {
          "duration": 0.11111099999999752,
          "durationTicks": 96,
          "midi": 37,
          "name": "C#2",
          "ticks": 25920,
          "time": 29.99997,
          "velocity": 0.3937007874015748
        },
        {
          "duration": 0.11111099999999752,
          "durationTicks": 96,
          "midi": 49,
          "name": "C#3",
          "ticks": 25920,
          "time": 29.99997,
          "velocity": 0.3937007874015748
        },
        {
          "duration": 0.11111100000000107,
          "durationTicks": 96,
          "midi": 35,
          "name": "B1",
          "ticks": 26112,
          "time": 30.222192,
          "velocity": 0.3937007874015748
        },
        {
          "duration": 0.11111100000000107,
          "durationTicks": 96,
          "midi": 35,
          "name": "B1",
          "ticks": 26112,
          "time": 30.222192,
          "velocity": 0.3937007874015748
        },
        {
          "duration": 0.11111099999999752,
          "durationTicks": 96,
          "midi": 35,
          "name": "B1",
          "ticks": 26304,
          "time": 30.444414000000002,
          "velocity": 0.3937007874015748
        },
        {
          "duration": 0.11111099999999752,
          "durationTicks": 96,
          "midi": 47,
          "name": "B2",
          "ticks": 26304,
          "time": 30.444414000000002,
          "velocity": 0.3937007874015748
        },
        {
          "duration": 0.11111100000000107,
          "durationTicks": 96,
          "midi": 35,
          "name": "B1",
          "ticks": 26496,
          "time": 30.666636,
          "velocity": 0.3937007874015748
        },
        {
          "duration": 0.11111100000000107,
          "durationTicks": 96,
          "midi": 35,
          "name": "B1",
          "ticks": 26496,
          "time": 30.666636,
          "velocity": 0.3937007874015748
        },
        {
          "duration": 0.11111100000000107,
          "durationTicks": 96,
          "midi": 47,
          "name": "B2",
          "ticks": 26688,
          "time": 30.888858,
          "velocity": 0.3937007874015748
        },
        {
          "duration": 0.11111100000000107,
          "durationTicks": 96,
          "midi": 35,
          "name": "B1",
          "ticks": 26688,
          "time": 30.888858,
          "velocity": 0.3937007874015748
        },
        {
          "duration": 0.11111099999999752,
          "durationTicks": 96,
          "midi": 36,
          "name": "C2",
          "ticks": 26880,
          "time": 31.11108,
          "velocity": 0.3937007874015748
        },
        {
          "duration": 0.11111099999999752,
          "durationTicks": 96,
          "midi": 24,
          "name": "C1",
          "ticks": 26880,
          "time": 31.11108,
          "velocity": 0.3937007874015748
        },
        {
          "duration": 0.11111100000000107,
          "durationTicks": 96,
          "midi": 48,
          "name": "C3",
          "ticks": 27072,
          "time": 31.333302,
          "velocity": 0.3937007874015748
        },
        {
          "duration": 0.11111100000000107,
          "durationTicks": 96,
          "midi": 36,
          "name": "C2",
          "ticks": 27072,
          "time": 31.333302,
          "velocity": 0.3937007874015748
        },
        {
          "duration": 0.11111099999999752,
          "durationTicks": 96,
          "midi": 24,
          "name": "C1",
          "ticks": 27264,
          "time": 31.555524000000002,
          "velocity": 0.3937007874015748
        },
        {
          "duration": 0.11111099999999752,
          "durationTicks": 96,
          "midi": 36,
          "name": "C2",
          "ticks": 27264,
          "time": 31.555524000000002,
          "velocity": 0.3937007874015748
        },
        {
          "duration": 0.11111100000000107,
          "durationTicks": 96,
          "midi": 48,
          "name": "C3",
          "ticks": 27456,
          "time": 31.777746,
          "velocity": 0.3937007874015748
        },
        {
          "duration": 0.11111100000000107,
          "durationTicks": 96,
          "midi": 36,
          "name": "C2",
          "ticks": 27456,
          "time": 31.777746,
          "velocity": 0.3937007874015748
        },
        {
          "duration": 0.11111100000000462,
          "durationTicks": 96,
          "midi": 33,
          "name": "A1",
          "ticks": 27648,
          "time": 31.999968,
          "velocity": 0.3937007874015748
        },
        {
          "duration": 0.11111100000000462,
          "durationTicks": 96,
          "midi": 33,
          "name": "A1",
          "ticks": 27648,
          "time": 31.999968,
          "velocity": 0.3937007874015748
        },
        {
          "duration": 0.11111100000000107,
          "durationTicks": 96,
          "midi": 45,
          "name": "A2",
          "ticks": 27840,
          "time": 32.22219,
          "velocity": 0.3937007874015748
        },
        {
          "duration": 0.11111100000000107,
          "durationTicks": 96,
          "midi": 33,
          "name": "A1",
          "ticks": 27840,
          "time": 32.22219,
          "velocity": 0.3937007874015748
        },
        {
          "duration": 0.11111100000000107,
          "durationTicks": 96,
          "midi": 33,
          "name": "A1",
          "ticks": 28032,
          "time": 32.444412,
          "velocity": 0.3937007874015748
        },
        {
          "duration": 0.11111100000000107,
          "durationTicks": 96,
          "midi": 33,
          "name": "A1",
          "ticks": 28032,
          "time": 32.444412,
          "velocity": 0.3937007874015748
        },
        {
          "duration": 0.11111100000000107,
          "durationTicks": 96,
          "midi": 45,
          "name": "A2",
          "ticks": 28224,
          "time": 32.666634,
          "velocity": 0.3937007874015748
        },
        {
          "duration": 0.11111100000000107,
          "durationTicks": 96,
          "midi": 33,
          "name": "A1",
          "ticks": 28224,
          "time": 32.666634,
          "velocity": 0.3937007874015748
        },
        {
          "duration": 0.11111100000000107,
          "durationTicks": 96,
          "midi": 33,
          "name": "A1",
          "ticks": 28416,
          "time": 32.888856,
          "velocity": 0.3937007874015748
        },
        {
          "duration": 0.11111100000000107,
          "durationTicks": 96,
          "midi": 33,
          "name": "A1",
          "ticks": 28416,
          "time": 32.888856,
          "velocity": 0.3937007874015748
        },
        {
          "duration": 0.11111100000000107,
          "durationTicks": 96,
          "midi": 33,
          "name": "A1",
          "ticks": 28608,
          "time": 33.111078,
          "velocity": 0.3937007874015748
        },
        {
          "duration": 0.11111100000000107,
          "durationTicks": 96,
          "midi": 45,
          "name": "A2",
          "ticks": 28608,
          "time": 33.111078,
          "velocity": 0.3937007874015748
        },
        {
          "duration": 0.11111100000000107,
          "durationTicks": 96,
          "midi": 33,
          "name": "A1",
          "ticks": 28800,
          "time": 33.3333,
          "velocity": 0.3937007874015748
        },
        {
          "duration": 0.11111100000000107,
          "durationTicks": 96,
          "midi": 33,
          "name": "A1",
          "ticks": 28800,
          "time": 33.3333,
          "velocity": 0.3937007874015748
        },
        {
          "duration": 0.11111099999999396,
          "durationTicks": 96,
          "midi": 33,
          "name": "A1",
          "ticks": 28992,
          "time": 33.555522,
          "velocity": 0.3937007874015748
        },
        {
          "duration": 0.11111099999999396,
          "durationTicks": 96,
          "midi": 45,
          "name": "A2",
          "ticks": 28992,
          "time": 33.555522,
          "velocity": 0.3937007874015748
        },
        {
          "duration": 0.11111100000000107,
          "durationTicks": 96,
          "midi": 33,
          "name": "A1",
          "ticks": 29184,
          "time": 33.777744,
          "velocity": 0.3937007874015748
        },
        {
          "duration": 0.11111100000000107,
          "durationTicks": 96,
          "midi": 33,
          "name": "A1",
          "ticks": 29184,
          "time": 33.777744,
          "velocity": 0.3937007874015748
        },
        {
          "duration": 0.11111100000000107,
          "durationTicks": 96,
          "midi": 33,
          "name": "A1",
          "ticks": 29376,
          "time": 33.999966,
          "velocity": 0.3937007874015748
        },
        {
          "duration": 0.11111100000000107,
          "durationTicks": 96,
          "midi": 45,
          "name": "A2",
          "ticks": 29376,
          "time": 33.999966,
          "velocity": 0.3937007874015748
        },
        {
          "duration": 0.11111100000000107,
          "durationTicks": 96,
          "midi": 33,
          "name": "A1",
          "ticks": 29568,
          "time": 34.222188,
          "velocity": 0.3937007874015748
        },
        {
          "duration": 0.11111100000000107,
          "durationTicks": 96,
          "midi": 33,
          "name": "A1",
          "ticks": 29568,
          "time": 34.222188,
          "velocity": 0.3937007874015748
        },
        {
          "duration": 0.11111100000000107,
          "durationTicks": 96,
          "midi": 45,
          "name": "A2",
          "ticks": 29760,
          "time": 34.44441,
          "velocity": 0.3937007874015748
        },
        {
          "duration": 0.11111100000000107,
          "durationTicks": 96,
          "midi": 33,
          "name": "A1",
          "ticks": 29760,
          "time": 34.44441,
          "velocity": 0.3937007874015748
        },
        {
          "duration": 0.11111100000000107,
          "durationTicks": 96,
          "midi": 35,
          "name": "B1",
          "ticks": 29952,
          "time": 34.666632,
          "velocity": 0.3937007874015748
        },
        {
          "duration": 0.11111100000000107,
          "durationTicks": 96,
          "midi": 35,
          "name": "B1",
          "ticks": 29952,
          "time": 34.666632,
          "velocity": 0.3937007874015748
        },
        {
          "duration": 0.11111100000000107,
          "durationTicks": 96,
          "midi": 47,
          "name": "B2",
          "ticks": 30144,
          "time": 34.888854,
          "velocity": 0.3937007874015748
        },
        {
          "duration": 0.11111100000000107,
          "durationTicks": 96,
          "midi": 35,
          "name": "B1",
          "ticks": 30144,
          "time": 34.888854,
          "velocity": 0.3937007874015748
        },
        {
          "duration": 0.11111100000000107,
          "durationTicks": 96,
          "midi": 35,
          "name": "B1",
          "ticks": 30336,
          "time": 35.111076,
          "velocity": 0.3937007874015748
        },
        {
          "duration": 0.11111100000000107,
          "durationTicks": 96,
          "midi": 35,
          "name": "B1",
          "ticks": 30336,
          "time": 35.111076,
          "velocity": 0.3937007874015748
        },
        {
          "duration": 0.11111100000000107,
          "durationTicks": 96,
          "midi": 35,
          "name": "B1",
          "ticks": 30528,
          "time": 35.333298,
          "velocity": 0.3937007874015748
        },
        {
          "duration": 0.11111100000000107,
          "durationTicks": 96,
          "midi": 47,
          "name": "B2",
          "ticks": 30528,
          "time": 35.333298,
          "velocity": 0.3937007874015748
        },
        {
          "duration": 0.22222200000000214,
          "durationTicks": 192,
          "midi": 25,
          "name": "C#1",
          "ticks": 30720,
          "time": 35.55552,
          "velocity": 0.3937007874015748
        },
        {
          "duration": 0.22222200000000214,
          "durationTicks": 192,
          "midi": 37,
          "name": "C#2",
          "ticks": 30720,
          "time": 35.55552,
          "velocity": 0.3937007874015748
        },
        {
          "duration": 0.22222200000000214,
          "durationTicks": 192,
          "midi": 49,
          "name": "C#3",
          "ticks": 30720,
          "time": 35.55552,
          "velocity": 0.3937007874015748
        },
        {
          "duration": 0.22222199999999503,
          "durationTicks": 192,
          "midi": 37,
          "name": "C#2",
          "ticks": 30912,
          "time": 35.777742,
          "velocity": 0.3937007874015748
        },
        {
          "duration": 0.22222199999999503,
          "durationTicks": 192,
          "midi": 25,
          "name": "C#1",
          "ticks": 30912,
          "time": 35.777742,
          "velocity": 0.3937007874015748
        },
        {
          "duration": 0.22222200000000214,
          "durationTicks": 192,
          "midi": 25,
          "name": "C#1",
          "ticks": 31104,
          "time": 35.999964,
          "velocity": 0.3937007874015748
        },
        {
          "duration": 0.22222200000000214,
          "durationTicks": 192,
          "midi": 37,
          "name": "C#2",
          "ticks": 31104,
          "time": 35.999964,
          "velocity": 0.3937007874015748
        },
        {
          "duration": 0.22222200000000214,
          "durationTicks": 192,
          "midi": 49,
          "name": "C#3",
          "ticks": 31104,
          "time": 35.999964,
          "velocity": 0.3937007874015748
        },
        {
          "duration": 0.22222200000000214,
          "durationTicks": 192,
          "midi": 25,
          "name": "C#1",
          "ticks": 31296,
          "time": 36.222186,
          "velocity": 0.3937007874015748
        },
        {
          "duration": 0.22222200000000214,
          "durationTicks": 192,
          "midi": 37,
          "name": "C#2",
          "ticks": 31296,
          "time": 36.222186,
          "velocity": 0.3937007874015748
        },
        {
          "duration": 0.22222199999999503,
          "durationTicks": 192,
          "midi": 49,
          "name": "C#3",
          "ticks": 31488,
          "time": 36.444408,
          "velocity": 0.3937007874015748
        },
        {
          "duration": 0.22222199999999503,
          "durationTicks": 192,
          "midi": 37,
          "name": "C#2",
          "ticks": 31488,
          "time": 36.444408,
          "velocity": 0.3937007874015748
        },
        {
          "duration": 0.22222199999999503,
          "durationTicks": 192,
          "midi": 25,
          "name": "C#1",
          "ticks": 31488,
          "time": 36.444408,
          "velocity": 0.3937007874015748
        },
        {
          "duration": 0.22222200000000214,
          "durationTicks": 192,
          "midi": 37,
          "name": "C#2",
          "ticks": 31680,
          "time": 36.66663,
          "velocity": 0.3937007874015748
        },
        {
          "duration": 0.22222200000000214,
          "durationTicks": 192,
          "midi": 25,
          "name": "C#1",
          "ticks": 31680,
          "time": 36.66663,
          "velocity": 0.3937007874015748
        },
        {
          "duration": 0.22222200000000214,
          "durationTicks": 192,
          "midi": 49,
          "name": "C#3",
          "ticks": 31872,
          "time": 36.888852,
          "velocity": 0.3937007874015748
        },
        {
          "duration": 0.22222200000000214,
          "durationTicks": 192,
          "midi": 37,
          "name": "C#2",
          "ticks": 31872,
          "time": 36.888852,
          "velocity": 0.3937007874015748
        },
        {
          "duration": 0.22222200000000214,
          "durationTicks": 192,
          "midi": 25,
          "name": "C#1",
          "ticks": 31872,
          "time": 36.888852,
          "velocity": 0.3937007874015748
        },
        {
          "duration": 0.22222199999999503,
          "durationTicks": 192,
          "midi": 37,
          "name": "C#2",
          "ticks": 32064,
          "time": 37.111074,
          "velocity": 0.3937007874015748
        },
        {
          "duration": 0.22222199999999503,
          "durationTicks": 192,
          "midi": 25,
          "name": "C#1",
          "ticks": 32064,
          "time": 37.111074,
          "velocity": 0.3937007874015748
        },
        {
          "duration": 0.22222200000000214,
          "durationTicks": 192,
          "midi": 35,
          "name": "B1",
          "ticks": 32256,
          "time": 37.333296,
          "velocity": 0.3937007874015748
        },
        {
          "duration": 0.22222200000000214,
          "durationTicks": 192,
          "midi": 35,
          "name": "B1",
          "ticks": 32256,
          "time": 37.333296,
          "velocity": 0.3937007874015748
        },
        {
          "duration": 0.22222200000000214,
          "durationTicks": 192,
          "midi": 47,
          "name": "B2",
          "ticks": 32256,
          "time": 37.333296,
          "velocity": 0.3937007874015748
        },
        {
          "duration": 0.22222200000000214,
          "durationTicks": 192,
          "midi": 35,
          "name": "B1",
          "ticks": 32448,
          "time": 37.555518,
          "velocity": 0.3937007874015748
        },
        {
          "duration": 0.22222200000000214,
          "durationTicks": 192,
          "midi": 35,
          "name": "B1",
          "ticks": 32448,
          "time": 37.555518,
          "velocity": 0.3937007874015748
        },
        {
          "duration": 0.22222200000000214,
          "durationTicks": 192,
          "midi": 35,
          "name": "B1",
          "ticks": 32640,
          "time": 37.77774,
          "velocity": 0.3937007874015748
        },
        {
          "duration": 0.22222200000000214,
          "durationTicks": 192,
          "midi": 47,
          "name": "B2",
          "ticks": 32640,
          "time": 37.77774,
          "velocity": 0.3937007874015748
        },
        {
          "duration": 0.22222200000000214,
          "durationTicks": 192,
          "midi": 35,
          "name": "B1",
          "ticks": 32640,
          "time": 37.77774,
          "velocity": 0.3937007874015748
        },
        {
          "duration": 0.22222199999999503,
          "durationTicks": 192,
          "midi": 35,
          "name": "B1",
          "ticks": 32832,
          "time": 37.999962000000004,
          "velocity": 0.3937007874015748
        },
        {
          "duration": 0.22222199999999503,
          "durationTicks": 192,
          "midi": 35,
          "name": "B1",
          "ticks": 32832,
          "time": 37.999962000000004,
          "velocity": 0.3937007874015748
        },
        {
          "duration": 0.22222200000000214,
          "durationTicks": 192,
          "midi": 48,
          "name": "C3",
          "ticks": 33024,
          "time": 38.222184,
          "velocity": 0.3937007874015748
        },
        {
          "duration": 0.22222200000000214,
          "durationTicks": 192,
          "midi": 24,
          "name": "C1",
          "ticks": 33024,
          "time": 38.222184,
          "velocity": 0.3937007874015748
        },
        {
          "duration": 0.22222200000000214,
          "durationTicks": 192,
          "midi": 36,
          "name": "C2",
          "ticks": 33024,
          "time": 38.222184,
          "velocity": 0.3937007874015748
        },
        {
          "duration": 0.22222200000000214,
          "durationTicks": 192,
          "midi": 36,
          "name": "C2",
          "ticks": 33216,
          "time": 38.444406,
          "velocity": 0.3937007874015748
        },
        {
          "duration": 0.22222200000000214,
          "durationTicks": 192,
          "midi": 24,
          "name": "C1",
          "ticks": 33216,
          "time": 38.444406,
          "velocity": 0.3937007874015748
        },
        {
          "duration": 0.22222199999999503,
          "durationTicks": 192,
          "midi": 48,
          "name": "C3",
          "ticks": 33408,
          "time": 38.666628,
          "velocity": 0.3937007874015748
        },
        {
          "duration": 0.22222199999999503,
          "durationTicks": 192,
          "midi": 36,
          "name": "C2",
          "ticks": 33408,
          "time": 38.666628,
          "velocity": 0.3937007874015748
        },
        {
          "duration": 0.22222199999999503,
          "durationTicks": 192,
          "midi": 24,
          "name": "C1",
          "ticks": 33408,
          "time": 38.666628,
          "velocity": 0.3937007874015748
        },
        {
          "duration": 0.22222200000000214,
          "durationTicks": 192,
          "midi": 36,
          "name": "C2",
          "ticks": 33600,
          "time": 38.88885,
          "velocity": 0.3937007874015748
        },
        {
          "duration": 0.22222200000000214,
          "durationTicks": 192,
          "midi": 24,
          "name": "C1",
          "ticks": 33600,
          "time": 38.88885,
          "velocity": 0.3937007874015748
        },
        {
          "duration": 0.22222200000000214,
          "durationTicks": 192,
          "midi": 33,
          "name": "A1",
          "ticks": 33792,
          "time": 39.111072,
          "velocity": 0.3937007874015748
        },
        {
          "duration": 0.22222200000000214,
          "durationTicks": 192,
          "midi": 33,
          "name": "A1",
          "ticks": 33792,
          "time": 39.111072,
          "velocity": 0.3937007874015748
        },
        {
          "duration": 0.22222200000000214,
          "durationTicks": 192,
          "midi": 45,
          "name": "A2",
          "ticks": 33792,
          "time": 39.111072,
          "velocity": 0.3937007874015748
        },
        {
          "duration": 0.22222199999999503,
          "durationTicks": 192,
          "midi": 33,
          "name": "A1",
          "ticks": 33984,
          "time": 39.333294,
          "velocity": 0.3937007874015748
        },
        {
          "duration": 0.22222199999999503,
          "durationTicks": 192,
          "midi": 33,
          "name": "A1",
          "ticks": 33984,
          "time": 39.333294,
          "velocity": 0.3937007874015748
        },
        {
          "duration": 0.22222200000000214,
          "durationTicks": 192,
          "midi": 33,
          "name": "A1",
          "ticks": 34176,
          "time": 39.555516,
          "velocity": 0.3937007874015748
        },
        {
          "duration": 0.22222200000000214,
          "durationTicks": 192,
          "midi": 45,
          "name": "A2",
          "ticks": 34176,
          "time": 39.555516,
          "velocity": 0.3937007874015748
        },
        {
          "duration": 0.22222200000000214,
          "durationTicks": 192,
          "midi": 33,
          "name": "A1",
          "ticks": 34176,
          "time": 39.555516,
          "velocity": 0.3937007874015748
        },
        {
          "duration": 0.22222200000000214,
          "durationTicks": 192,
          "midi": 33,
          "name": "A1",
          "ticks": 34368,
          "time": 39.777738,
          "velocity": 0.3937007874015748
        },
        {
          "duration": 0.22222200000000214,
          "durationTicks": 192,
          "midi": 33,
          "name": "A1",
          "ticks": 34368,
          "time": 39.777738,
          "velocity": 0.3937007874015748
        },
        {
          "duration": 0.22222200000000214,
          "durationTicks": 192,
          "midi": 45,
          "name": "A2",
          "ticks": 34560,
          "time": 39.99996,
          "velocity": 0.3937007874015748
        },
        {
          "duration": 0.22222200000000214,
          "durationTicks": 192,
          "midi": 33,
          "name": "A1",
          "ticks": 34560,
          "time": 39.99996,
          "velocity": 0.3937007874015748
        },
        {
          "duration": 0.22222200000000214,
          "durationTicks": 192,
          "midi": 33,
          "name": "A1",
          "ticks": 34560,
          "time": 39.99996,
          "velocity": 0.3937007874015748
        },
        {
          "duration": 0.22222199999999503,
          "durationTicks": 192,
          "midi": 33,
          "name": "A1",
          "ticks": 34752,
          "time": 40.222182000000004,
          "velocity": 0.3937007874015748
        },
        {
          "duration": 0.22222199999999503,
          "durationTicks": 192,
          "midi": 33,
          "name": "A1",
          "ticks": 34752,
          "time": 40.222182000000004,
          "velocity": 0.3937007874015748
        },
        {
          "duration": 0.22222200000000214,
          "durationTicks": 192,
          "midi": 45,
          "name": "A2",
          "ticks": 34944,
          "time": 40.444404,
          "velocity": 0.3937007874015748
        },
        {
          "duration": 0.22222200000000214,
          "durationTicks": 192,
          "midi": 33,
          "name": "A1",
          "ticks": 34944,
          "time": 40.444404,
          "velocity": 0.3937007874015748
        },
        {
          "duration": 0.22222200000000214,
          "durationTicks": 192,
          "midi": 33,
          "name": "A1",
          "ticks": 34944,
          "time": 40.444404,
          "velocity": 0.3937007874015748
        },
        {
          "duration": 0.22222200000000214,
          "durationTicks": 192,
          "midi": 33,
          "name": "A1",
          "ticks": 35136,
          "time": 40.666626,
          "velocity": 0.3937007874015748
        },
        {
          "duration": 0.22222200000000214,
          "durationTicks": 192,
          "midi": 33,
          "name": "A1",
          "ticks": 35136,
          "time": 40.666626,
          "velocity": 0.3937007874015748
        },
        {
          "duration": 0.22222199999999503,
          "durationTicks": 192,
          "midi": 33,
          "name": "A1",
          "ticks": 35328,
          "time": 40.888848,
          "velocity": 0.3937007874015748
        },
        {
          "duration": 0.22222199999999503,
          "durationTicks": 192,
          "midi": 45,
          "name": "A2",
          "ticks": 35328,
          "time": 40.888848,
          "velocity": 0.3937007874015748
        },
        {
          "duration": 0.22222199999999503,
          "durationTicks": 192,
          "midi": 33,
          "name": "A1",
          "ticks": 35328,
          "time": 40.888848,
          "velocity": 0.3937007874015748
        },
        {
          "duration": 0.22222200000000214,
          "durationTicks": 192,
          "midi": 33,
          "name": "A1",
          "ticks": 35520,
          "time": 41.11107,
          "velocity": 0.3937007874015748
        },
        {
          "duration": 0.22222200000000214,
          "durationTicks": 192,
          "midi": 33,
          "name": "A1",
          "ticks": 35520,
          "time": 41.11107,
          "velocity": 0.3937007874015748
        },
        {
          "duration": 0.22222200000000214,
          "durationTicks": 192,
          "midi": 45,
          "name": "A2",
          "ticks": 35712,
          "time": 41.333292,
          "velocity": 0.3937007874015748
        },
        {
          "duration": 0.22222200000000214,
          "durationTicks": 192,
          "midi": 33,
          "name": "A1",
          "ticks": 35712,
          "time": 41.333292,
          "velocity": 0.3937007874015748
        },
        {
          "duration": 0.22222200000000214,
          "durationTicks": 192,
          "midi": 33,
          "name": "A1",
          "ticks": 35712,
          "time": 41.333292,
          "velocity": 0.3937007874015748
        },
        {
          "duration": 0.22222199999999503,
          "durationTicks": 192,
          "midi": 33,
          "name": "A1",
          "ticks": 35904,
          "time": 41.555514,
          "velocity": 0.3937007874015748
        },
        {
          "duration": 0.22222199999999503,
          "durationTicks": 192,
          "midi": 33,
          "name": "A1",
          "ticks": 35904,
          "time": 41.555514,
          "velocity": 0.3937007874015748
        },
        {
          "duration": 0.22222200000000214,
          "durationTicks": 192,
          "midi": 45,
          "name": "A2",
          "ticks": 36096,
          "time": 41.777736,
          "velocity": 0.3937007874015748
        },
        {
          "duration": 0.22222200000000214,
          "durationTicks": 192,
          "midi": 33,
          "name": "A1",
          "ticks": 36096,
          "time": 41.777736,
          "velocity": 0.3937007874015748
        },
        {
          "duration": 0.22222200000000214,
          "durationTicks": 192,
          "midi": 33,
          "name": "A1",
          "ticks": 36096,
          "time": 41.777736,
          "velocity": 0.3937007874015748
        },
        {
          "duration": 0.22222200000000214,
          "durationTicks": 192,
          "midi": 33,
          "name": "A1",
          "ticks": 36288,
          "time": 41.999958,
          "velocity": 0.3937007874015748
        },
        {
          "duration": 0.22222200000000214,
          "durationTicks": 192,
          "midi": 33,
          "name": "A1",
          "ticks": 36288,
          "time": 41.999958,
          "velocity": 0.3937007874015748
        },
        {
          "duration": 0.22222200000000214,
          "durationTicks": 192,
          "midi": 33,
          "name": "A1",
          "ticks": 36480,
          "time": 42.22218,
          "velocity": 0.3937007874015748
        },
        {
          "duration": 0.22222200000000214,
          "durationTicks": 192,
          "midi": 33,
          "name": "A1",
          "ticks": 36480,
          "time": 42.22218,
          "velocity": 0.3937007874015748
        },
        {
          "duration": 0.22222200000000214,
          "durationTicks": 192,
          "midi": 45,
          "name": "A2",
          "ticks": 36480,
          "time": 42.22218,
          "velocity": 0.3937007874015748
        },
        {
          "duration": 0.22222199999999503,
          "durationTicks": 192,
          "midi": 33,
          "name": "A1",
          "ticks": 36672,
          "time": 42.444402000000004,
          "velocity": 0.3937007874015748
        },
        {
          "duration": 0.22222199999999503,
          "durationTicks": 192,
          "midi": 33,
          "name": "A1",
          "ticks": 36672,
          "time": 42.444402000000004,
          "velocity": 0.3937007874015748
        },
        {
          "duration": 0.22222200000000214,
          "durationTicks": 192,
          "midi": 49,
          "name": "C#3",
          "ticks": 36864,
          "time": 42.666624,
          "velocity": 0.3937007874015748
        },
        {
          "duration": 0.22222200000000214,
          "durationTicks": 192,
          "midi": 37,
          "name": "C#2",
          "ticks": 36864,
          "time": 42.666624,
          "velocity": 0.3937007874015748
        },
        {
          "duration": 0.22222200000000214,
          "durationTicks": 192,
          "midi": 25,
          "name": "C#1",
          "ticks": 36864,
          "time": 42.666624,
          "velocity": 0.3937007874015748
        },
        {
          "duration": 0.22222200000000214,
          "durationTicks": 192,
          "midi": 37,
          "name": "C#2",
          "ticks": 37056,
          "time": 42.888846,
          "velocity": 0.3937007874015748
        },
        {
          "duration": 0.22222200000000214,
          "durationTicks": 192,
          "midi": 25,
          "name": "C#1",
          "ticks": 37056,
          "time": 42.888846,
          "velocity": 0.3937007874015748
        },
        {
          "duration": 0.22222199999999503,
          "durationTicks": 192,
          "midi": 37,
          "name": "C#2",
          "ticks": 37248,
          "time": 43.111068,
          "velocity": 0.3937007874015748
        },
        {
          "duration": 0.22222199999999503,
          "durationTicks": 192,
          "midi": 49,
          "name": "C#3",
          "ticks": 37248,
          "time": 43.111068,
          "velocity": 0.3937007874015748
        },
        {
          "duration": 0.22222199999999503,
          "durationTicks": 192,
          "midi": 25,
          "name": "C#1",
          "ticks": 37248,
          "time": 43.111068,
          "velocity": 0.3937007874015748
        },
        {
          "duration": 0.22222200000000214,
          "durationTicks": 192,
          "midi": 37,
          "name": "C#2",
          "ticks": 37440,
          "time": 43.33329,
          "velocity": 0.3937007874015748
        },
        {
          "duration": 0.22222200000000214,
          "durationTicks": 192,
          "midi": 25,
          "name": "C#1",
          "ticks": 37440,
          "time": 43.33329,
          "velocity": 0.3937007874015748
        },
        {
          "duration": 0.22222200000000214,
          "durationTicks": 192,
          "midi": 49,
          "name": "C#3",
          "ticks": 37632,
          "time": 43.555512,
          "velocity": 0.3937007874015748
        },
        {
          "duration": 0.22222200000000214,
          "durationTicks": 192,
          "midi": 37,
          "name": "C#2",
          "ticks": 37632,
          "time": 43.555512,
          "velocity": 0.3937007874015748
        },
        {
          "duration": 0.22222200000000214,
          "durationTicks": 192,
          "midi": 25,
          "name": "C#1",
          "ticks": 37632,
          "time": 43.555512,
          "velocity": 0.3937007874015748
        },
        {
          "duration": 0.22222199999999503,
          "durationTicks": 192,
          "midi": 25,
          "name": "C#1",
          "ticks": 37824,
          "time": 43.777734,
          "velocity": 0.3937007874015748
        },
        {
          "duration": 0.22222199999999503,
          "durationTicks": 192,
          "midi": 37,
          "name": "C#2",
          "ticks": 37824,
          "time": 43.777734,
          "velocity": 0.3937007874015748
        },
        {
          "duration": 0.22222200000000214,
          "durationTicks": 192,
          "midi": 37,
          "name": "C#2",
          "ticks": 38016,
          "time": 43.999956,
          "velocity": 0.3937007874015748
        },
        {
          "duration": 0.22222200000000214,
          "durationTicks": 192,
          "midi": 49,
          "name": "C#3",
          "ticks": 38016,
          "time": 43.999956,
          "velocity": 0.3937007874015748
        },
        {
          "duration": 0.22222200000000214,
          "durationTicks": 192,
          "midi": 25,
          "name": "C#1",
          "ticks": 38016,
          "time": 43.999956,
          "velocity": 0.3937007874015748
        },
        {
          "duration": 0.22222200000000214,
          "durationTicks": 192,
          "midi": 25,
          "name": "C#1",
          "ticks": 38208,
          "time": 44.222178,
          "velocity": 0.3937007874015748
        },
        {
          "duration": 0.22222200000000214,
          "durationTicks": 192,
          "midi": 37,
          "name": "C#2",
          "ticks": 38208,
          "time": 44.222178,
          "velocity": 0.3937007874015748
        },
        {
          "duration": 0.22222200000000214,
          "durationTicks": 192,
          "midi": 35,
          "name": "B1",
          "ticks": 38400,
          "time": 44.4444,
          "velocity": 0.3937007874015748
        },
        {
          "duration": 0.22222200000000214,
          "durationTicks": 192,
          "midi": 35,
          "name": "B1",
          "ticks": 38400,
          "time": 44.4444,
          "velocity": 0.3937007874015748
        },
        {
          "duration": 0.22222200000000214,
          "durationTicks": 192,
          "midi": 47,
          "name": "B2",
          "ticks": 38400,
          "time": 44.4444,
          "velocity": 0.3937007874015748
        },
        {
          "duration": 0.22222199999999503,
          "durationTicks": 192,
          "midi": 35,
          "name": "B1",
          "ticks": 38592,
          "time": 44.666622000000004,
          "velocity": 0.3937007874015748
        },
        {
          "duration": 0.22222199999999503,
          "durationTicks": 192,
          "midi": 35,
          "name": "B1",
          "ticks": 38592,
          "time": 44.666622000000004,
          "velocity": 0.3937007874015748
        },
        {
          "duration": 0.22222200000000214,
          "durationTicks": 192,
          "midi": 35,
          "name": "B1",
          "ticks": 38784,
          "time": 44.888844,
          "velocity": 0.3937007874015748
        },
        {
          "duration": 0.22222200000000214,
          "durationTicks": 192,
          "midi": 47,
          "name": "B2",
          "ticks": 38784,
          "time": 44.888844,
          "velocity": 0.3937007874015748
        },
        {
          "duration": 0.22222200000000214,
          "durationTicks": 192,
          "midi": 35,
          "name": "B1",
          "ticks": 38784,
          "time": 44.888844,
          "velocity": 0.3937007874015748
        },
        {
          "duration": 0.22222200000000214,
          "durationTicks": 192,
          "midi": 35,
          "name": "B1",
          "ticks": 38976,
          "time": 45.111066,
          "velocity": 0.3937007874015748
        },
        {
          "duration": 0.22222200000000214,
          "durationTicks": 192,
          "midi": 35,
          "name": "B1",
          "ticks": 38976,
          "time": 45.111066,
          "velocity": 0.3937007874015748
        },
        {
          "duration": 0.22222199999999503,
          "durationTicks": 192,
          "midi": 48,
          "name": "C3",
          "ticks": 39168,
          "time": 45.333288,
          "velocity": 0.3937007874015748
        },
        {
          "duration": 0.22222199999999503,
          "durationTicks": 192,
          "midi": 36,
          "name": "C2",
          "ticks": 39168,
          "time": 45.333288,
          "velocity": 0.3937007874015748
        },
        {
          "duration": 0.22222199999999503,
          "durationTicks": 192,
          "midi": 24,
          "name": "C1",
          "ticks": 39168,
          "time": 45.333288,
          "velocity": 0.3937007874015748
        },
        {
          "duration": 0.22222200000000214,
          "durationTicks": 192,
          "midi": 36,
          "name": "C2",
          "ticks": 39360,
          "time": 45.55551,
          "velocity": 0.3937007874015748
        },
        {
          "duration": 0.22222200000000214,
          "durationTicks": 192,
          "midi": 24,
          "name": "C1",
          "ticks": 39360,
          "time": 45.55551,
          "velocity": 0.3937007874015748
        },
        {
          "duration": 0.22222200000000214,
          "durationTicks": 192,
          "midi": 24,
          "name": "C1",
          "ticks": 39552,
          "time": 45.777732,
          "velocity": 0.3937007874015748
        },
        {
          "duration": 0.22222200000000214,
          "durationTicks": 192,
          "midi": 36,
          "name": "C2",
          "ticks": 39552,
          "time": 45.777732,
          "velocity": 0.3937007874015748
        },
        {
          "duration": 0.22222200000000214,
          "durationTicks": 192,
          "midi": 48,
          "name": "C3",
          "ticks": 39552,
          "time": 45.777732,
          "velocity": 0.3937007874015748
        },
        {
          "duration": 0.22222199999999503,
          "durationTicks": 192,
          "midi": 36,
          "name": "C2",
          "ticks": 39744,
          "time": 45.999954,
          "velocity": 0.3937007874015748
        },
        {
          "duration": 0.22222199999999503,
          "durationTicks": 192,
          "midi": 24,
          "name": "C1",
          "ticks": 39744,
          "time": 45.999954,
          "velocity": 0.3937007874015748
        },
        {
          "duration": 0.22222200000000214,
          "durationTicks": 192,
          "midi": 45,
          "name": "A2",
          "ticks": 39936,
          "time": 46.222176,
          "velocity": 0.3937007874015748
        },
        {
          "duration": 0.22222200000000214,
          "durationTicks": 192,
          "midi": 33,
          "name": "A1",
          "ticks": 39936,
          "time": 46.222176,
          "velocity": 0.3937007874015748
        },
        {
          "duration": 0.22222200000000214,
          "durationTicks": 192,
          "midi": 33,
          "name": "A1",
          "ticks": 39936,
          "time": 46.222176,
          "velocity": 0.3937007874015748
        },
        {
          "duration": 0.22222200000000214,
          "durationTicks": 192,
          "midi": 33,
          "name": "A1",
          "ticks": 40128,
          "time": 46.444398,
          "velocity": 0.3937007874015748
        },
        {
          "duration": 0.22222200000000214,
          "durationTicks": 192,
          "midi": 33,
          "name": "A1",
          "ticks": 40128,
          "time": 46.444398,
          "velocity": 0.3937007874015748
        },
        {
          "duration": 0.22222200000000214,
          "durationTicks": 192,
          "midi": 45,
          "name": "A2",
          "ticks": 40320,
          "time": 46.66662,
          "velocity": 0.3937007874015748
        },
        {
          "duration": 0.22222200000000214,
          "durationTicks": 192,
          "midi": 33,
          "name": "A1",
          "ticks": 40320,
          "time": 46.66662,
          "velocity": 0.3937007874015748
        },
        {
          "duration": 0.22222200000000214,
          "durationTicks": 192,
          "midi": 33,
          "name": "A1",
          "ticks": 40320,
          "time": 46.66662,
          "velocity": 0.3937007874015748
        },
        {
          "duration": 0.22222199999999503,
          "durationTicks": 192,
          "midi": 33,
          "name": "A1",
          "ticks": 40512,
          "time": 46.888842000000004,
          "velocity": 0.3937007874015748
        },
        {
          "duration": 0.22222199999999503,
          "durationTicks": 192,
          "midi": 33,
          "name": "A1",
          "ticks": 40512,
          "time": 46.888842000000004,
          "velocity": 0.3937007874015748
        },
        {
          "duration": 0.22222200000000214,
          "durationTicks": 192,
          "midi": 33,
          "name": "A1",
          "ticks": 40704,
          "time": 47.111064,
          "velocity": 0.3937007874015748
        },
        {
          "duration": 0.22222200000000214,
          "durationTicks": 192,
          "midi": 33,
          "name": "A1",
          "ticks": 40704,
          "time": 47.111064,
          "velocity": 0.3937007874015748
        },
        {
          "duration": 0.22222200000000214,
          "durationTicks": 192,
          "midi": 45,
          "name": "A2",
          "ticks": 40704,
          "time": 47.111064,
          "velocity": 0.3937007874015748
        },
        {
          "duration": 0.22222200000000214,
          "durationTicks": 192,
          "midi": 33,
          "name": "A1",
          "ticks": 40896,
          "time": 47.333286,
          "velocity": 0.3937007874015748
        },
        {
          "duration": 0.22222200000000214,
          "durationTicks": 192,
          "midi": 33,
          "name": "A1",
          "ticks": 40896,
          "time": 47.333286,
          "velocity": 0.3937007874015748
        },
        {
          "duration": 0.22222199999999503,
          "durationTicks": 192,
          "midi": 33,
          "name": "A1",
          "ticks": 41088,
          "time": 47.555508,
          "velocity": 0.3937007874015748
        },
        {
          "duration": 0.22222199999999503,
          "durationTicks": 192,
          "midi": 33,
          "name": "A1",
          "ticks": 41088,
          "time": 47.555508,
          "velocity": 0.3937007874015748
        },
        {
          "duration": 0.22222199999999503,
          "durationTicks": 192,
          "midi": 45,
          "name": "A2",
          "ticks": 41088,
          "time": 47.555508,
          "velocity": 0.3937007874015748
        },
        {
          "duration": 0.22222200000000214,
          "durationTicks": 192,
          "midi": 33,
          "name": "A1",
          "ticks": 41280,
          "time": 47.77773,
          "velocity": 0.3937007874015748
        },
        {
          "duration": 0.22222200000000214,
          "durationTicks": 192,
          "midi": 33,
          "name": "A1",
          "ticks": 41280,
          "time": 47.77773,
          "velocity": 0.3937007874015748
        },
        {
          "duration": 0.22222200000000214,
          "durationTicks": 192,
          "midi": 45,
          "name": "A2",
          "ticks": 41472,
          "time": 47.999952,
          "velocity": 0.3937007874015748
        },
        {
          "duration": 0.22222200000000214,
          "durationTicks": 192,
          "midi": 33,
          "name": "A1",
          "ticks": 41472,
          "time": 47.999952,
          "velocity": 0.3937007874015748
        },
        {
          "duration": 0.22222200000000214,
          "durationTicks": 192,
          "midi": 33,
          "name": "A1",
          "ticks": 41472,
          "time": 47.999952,
          "velocity": 0.3937007874015748
        },
        {
          "duration": 0.22222199999999503,
          "durationTicks": 192,
          "midi": 33,
          "name": "A1",
          "ticks": 41664,
          "time": 48.222174,
          "velocity": 0.3937007874015748
        },
        {
          "duration": 0.22222199999999503,
          "durationTicks": 192,
          "midi": 33,
          "name": "A1",
          "ticks": 41664,
          "time": 48.222174,
          "velocity": 0.3937007874015748
        },
        {
          "duration": 0.22222200000000214,
          "durationTicks": 192,
          "midi": 45,
          "name": "A2",
          "ticks": 41856,
          "time": 48.444396,
          "velocity": 0.3937007874015748
        },
        {
          "duration": 0.22222200000000214,
          "durationTicks": 192,
          "midi": 33,
          "name": "A1",
          "ticks": 41856,
          "time": 48.444396,
          "velocity": 0.3937007874015748
        },
        {
          "duration": 0.22222200000000214,
          "durationTicks": 192,
          "midi": 33,
          "name": "A1",
          "ticks": 41856,
          "time": 48.444396,
          "velocity": 0.3937007874015748
        },
        {
          "duration": 0.22222200000000214,
          "durationTicks": 192,
          "midi": 33,
          "name": "A1",
          "ticks": 42048,
          "time": 48.666618,
          "velocity": 0.3937007874015748
        },
        {
          "duration": 0.22222200000000214,
          "durationTicks": 192,
          "midi": 33,
          "name": "A1",
          "ticks": 42048,
          "time": 48.666618,
          "velocity": 0.3937007874015748
        },
        {
          "duration": 0.22222200000000214,
          "durationTicks": 192,
          "midi": 33,
          "name": "A1",
          "ticks": 42240,
          "time": 48.88884,
          "velocity": 0.3937007874015748
        },
        {
          "duration": 0.22222200000000214,
          "durationTicks": 192,
          "midi": 33,
          "name": "A1",
          "ticks": 42240,
          "time": 48.88884,
          "velocity": 0.3937007874015748
        },
        {
          "duration": 0.22222200000000214,
          "durationTicks": 192,
          "midi": 45,
          "name": "A2",
          "ticks": 42240,
          "time": 48.88884,
          "velocity": 0.3937007874015748
        },
        {
          "duration": 0.22222199999999503,
          "durationTicks": 192,
          "midi": 33,
          "name": "A1",
          "ticks": 42432,
          "time": 49.111062000000004,
          "velocity": 0.3937007874015748
        },
        {
          "duration": 0.22222199999999503,
          "durationTicks": 192,
          "midi": 33,
          "name": "A1",
          "ticks": 42432,
          "time": 49.111062000000004,
          "velocity": 0.3937007874015748
        },
        {
          "duration": 0.22222200000000214,
          "durationTicks": 192,
          "midi": 45,
          "name": "A2",
          "ticks": 42624,
          "time": 49.333284,
          "velocity": 0.3937007874015748
        },
        {
          "duration": 0.22222200000000214,
          "durationTicks": 192,
          "midi": 33,
          "name": "A1",
          "ticks": 42624,
          "time": 49.333284,
          "velocity": 0.3937007874015748
        },
        {
          "duration": 0.22222200000000214,
          "durationTicks": 192,
          "midi": 33,
          "name": "A1",
          "ticks": 42624,
          "time": 49.333284,
          "velocity": 0.3937007874015748
        },
        {
          "duration": 0.22222200000000214,
          "durationTicks": 192,
          "midi": 33,
          "name": "A1",
          "ticks": 42816,
          "time": 49.555506,
          "velocity": 0.3937007874015748
        },
        {
          "duration": 0.22222200000000214,
          "durationTicks": 192,
          "midi": 33,
          "name": "A1",
          "ticks": 42816,
          "time": 49.555506,
          "velocity": 0.3937007874015748
        },
        {
          "duration": 0.22222199999999503,
          "durationTicks": 192,
          "midi": 25,
          "name": "C#1",
          "ticks": 43008,
          "time": 49.777728,
          "velocity": 0.3937007874015748
        },
        {
          "duration": 0.22222199999999503,
          "durationTicks": 192,
          "midi": 37,
          "name": "C#2",
          "ticks": 43008,
          "time": 49.777728,
          "velocity": 0.3937007874015748
        },
        {
          "duration": 0.22222199999999503,
          "durationTicks": 192,
          "midi": 49,
          "name": "C#3",
          "ticks": 43008,
          "time": 49.777728,
          "velocity": 0.3937007874015748
        },
        {
          "duration": 0.22222200000000214,
          "durationTicks": 192,
          "midi": 49,
          "name": "C#3",
          "ticks": 43392,
          "time": 50.222172,
          "velocity": 0.3937007874015748
        },
        {
          "duration": 0.22222200000000214,
          "durationTicks": 192,
          "midi": 25,
          "name": "C#1",
          "ticks": 43392,
          "time": 50.222172,
          "velocity": 0.3937007874015748
        },
        {
          "duration": 0.22222200000000214,
          "durationTicks": 192,
          "midi": 37,
          "name": "C#2",
          "ticks": 43392,
          "time": 50.222172,
          "velocity": 0.3937007874015748
        },
        {
          "duration": 0.22222200000000214,
          "durationTicks": 192,
          "midi": 37,
          "name": "C#2",
          "ticks": 43776,
          "time": 50.666616,
          "velocity": 0.3937007874015748
        },
        {
          "duration": 0.22222200000000214,
          "durationTicks": 192,
          "midi": 49,
          "name": "C#3",
          "ticks": 43776,
          "time": 50.666616,
          "velocity": 0.3937007874015748
        },
        {
          "duration": 0.22222200000000214,
          "durationTicks": 192,
          "midi": 25,
          "name": "C#1",
          "ticks": 43776,
          "time": 50.666616,
          "velocity": 0.3937007874015748
        },
        {
          "duration": 0.22222200000000214,
          "durationTicks": 192,
          "midi": 25,
          "name": "C#1",
          "ticks": 44160,
          "time": 51.11106,
          "velocity": 0.3937007874015748
        },
        {
          "duration": 0.22222200000000214,
          "durationTicks": 192,
          "midi": 37,
          "name": "C#2",
          "ticks": 44160,
          "time": 51.11106,
          "velocity": 0.3937007874015748
        },
        {
          "duration": 0.22222200000000214,
          "durationTicks": 192,
          "midi": 49,
          "name": "C#3",
          "ticks": 44160,
          "time": 51.11106,
          "velocity": 0.3937007874015748
        },
        {
          "duration": 0.22222200000000214,
          "durationTicks": 192,
          "midi": 49,
          "name": "C#3",
          "ticks": 44544,
          "time": 51.555504,
          "velocity": 0.3937007874015748
        },
        {
          "duration": 0.22222200000000214,
          "durationTicks": 192,
          "midi": 25,
          "name": "C#1",
          "ticks": 44544,
          "time": 51.555504,
          "velocity": 0.3937007874015748
        },
        {
          "duration": 0.22222200000000214,
          "durationTicks": 192,
          "midi": 37,
          "name": "C#2",
          "ticks": 44544,
          "time": 51.555504,
          "velocity": 0.3937007874015748
        },
        {
          "duration": 0.22222199999999503,
          "durationTicks": 192,
          "midi": 37,
          "name": "C#2",
          "ticks": 44928,
          "time": 51.999948,
          "velocity": 0.3937007874015748
        },
        {
          "duration": 0.22222199999999503,
          "durationTicks": 192,
          "midi": 49,
          "name": "C#3",
          "ticks": 44928,
          "time": 51.999948,
          "velocity": 0.3937007874015748
        },
        {
          "duration": 0.22222199999999503,
          "durationTicks": 192,
          "midi": 25,
          "name": "C#1",
          "ticks": 44928,
          "time": 51.999948,
          "velocity": 0.3937007874015748
        },
        {
          "duration": 0.22222200000000214,
          "durationTicks": 192,
          "midi": 25,
          "name": "C#1",
          "ticks": 45312,
          "time": 52.444392,
          "velocity": 0.3937007874015748
        },
        {
          "duration": 0.22222200000000214,
          "durationTicks": 192,
          "midi": 49,
          "name": "C#3",
          "ticks": 45312,
          "time": 52.444392,
          "velocity": 0.3937007874015748
        },
        {
          "duration": 0.22222200000000214,
          "durationTicks": 192,
          "midi": 37,
          "name": "C#2",
          "ticks": 45312,
          "time": 52.444392,
          "velocity": 0.3937007874015748
        },
        {
          "duration": 0.22222200000000214,
          "durationTicks": 192,
          "midi": 25,
          "name": "C#1",
          "ticks": 45696,
          "time": 52.888836,
          "velocity": 0.3937007874015748
        },
        {
          "duration": 0.22222200000000214,
          "durationTicks": 192,
          "midi": 37,
          "name": "C#2",
          "ticks": 45696,
          "time": 52.888836,
          "velocity": 0.3937007874015748
        },
        {
          "duration": 0.22222200000000214,
          "durationTicks": 192,
          "midi": 49,
          "name": "C#3",
          "ticks": 45696,
          "time": 52.888836,
          "velocity": 0.3937007874015748
        },
        {
          "duration": 0.22222200000000214,
          "durationTicks": 192,
          "midi": 25,
          "name": "C#1",
          "ticks": 46080,
          "time": 53.33328,
          "velocity": 0.3937007874015748
        },
        {
          "duration": 0.22222200000000214,
          "durationTicks": 192,
          "midi": 37,
          "name": "C#2",
          "ticks": 46080,
          "time": 53.33328,
          "velocity": 0.3937007874015748
        },
        {
          "duration": 0.22222200000000214,
          "durationTicks": 192,
          "midi": 49,
          "name": "C#3",
          "ticks": 46080,
          "time": 53.33328,
          "velocity": 0.3937007874015748
        },
        {
          "duration": 0.22222200000000214,
          "durationTicks": 192,
          "midi": 37,
          "name": "C#2",
          "ticks": 46464,
          "time": 53.777724,
          "velocity": 0.3937007874015748
        },
        {
          "duration": 0.22222200000000214,
          "durationTicks": 192,
          "midi": 49,
          "name": "C#3",
          "ticks": 46464,
          "time": 53.777724,
          "velocity": 0.3937007874015748
        },
        {
          "duration": 0.22222200000000214,
          "durationTicks": 192,
          "midi": 25,
          "name": "C#1",
          "ticks": 46464,
          "time": 53.777724,
          "velocity": 0.3937007874015748
        },
        {
          "duration": 0.22222199999999503,
          "durationTicks": 192,
          "midi": 49,
          "name": "C#3",
          "ticks": 46848,
          "time": 54.222168,
          "velocity": 0.3937007874015748
        },
        {
          "duration": 0.22222199999999503,
          "durationTicks": 192,
          "midi": 37,
          "name": "C#2",
          "ticks": 46848,
          "time": 54.222168,
          "velocity": 0.3937007874015748
        },
        {
          "duration": 0.22222199999999503,
          "durationTicks": 192,
          "midi": 25,
          "name": "C#1",
          "ticks": 46848,
          "time": 54.222168,
          "velocity": 0.3937007874015748
        },
        {
          "duration": 0.22222200000000214,
          "durationTicks": 192,
          "midi": 25,
          "name": "C#1",
          "ticks": 47232,
          "time": 54.666612,
          "velocity": 0.3937007874015748
        },
        {
          "duration": 0.22222200000000214,
          "durationTicks": 192,
          "midi": 49,
          "name": "C#3",
          "ticks": 47232,
          "time": 54.666612,
          "velocity": 0.3937007874015748
        },
        {
          "duration": 0.22222200000000214,
          "durationTicks": 192,
          "midi": 37,
          "name": "C#2",
          "ticks": 47232,
          "time": 54.666612,
          "velocity": 0.3937007874015748
        },
        {
          "duration": 0.22222200000000214,
          "durationTicks": 192,
          "midi": 25,
          "name": "C#1",
          "ticks": 47616,
          "time": 55.111056,
          "velocity": 0.3937007874015748
        },
        {
          "duration": 0.22222200000000214,
          "durationTicks": 192,
          "midi": 37,
          "name": "C#2",
          "ticks": 47616,
          "time": 55.111056,
          "velocity": 0.3937007874015748
        },
        {
          "duration": 0.22222200000000214,
          "durationTicks": 192,
          "midi": 49,
          "name": "C#3",
          "ticks": 47616,
          "time": 55.111056,
          "velocity": 0.3937007874015748
        },
        {
          "duration": 0.22222200000000214,
          "durationTicks": 192,
          "midi": 25,
          "name": "C#1",
          "ticks": 48000,
          "time": 55.5555,
          "velocity": 0.3937007874015748
        },
        {
          "duration": 0.22222200000000214,
          "durationTicks": 192,
          "midi": 37,
          "name": "C#2",
          "ticks": 48000,
          "time": 55.5555,
          "velocity": 0.3937007874015748
        },
        {
          "duration": 0.22222200000000214,
          "durationTicks": 192,
          "midi": 49,
          "name": "C#3",
          "ticks": 48000,
          "time": 55.5555,
          "velocity": 0.3937007874015748
        },
        {
          "duration": 0.22222200000000214,
          "durationTicks": 192,
          "midi": 49,
          "name": "C#3",
          "ticks": 48384,
          "time": 55.999944,
          "velocity": 0.3937007874015748
        },
        {
          "duration": 0.22222200000000214,
          "durationTicks": 192,
          "midi": 25,
          "name": "C#1",
          "ticks": 48384,
          "time": 55.999944,
          "velocity": 0.3937007874015748
        },
        {
          "duration": 0.22222200000000214,
          "durationTicks": 192,
          "midi": 37,
          "name": "C#2",
          "ticks": 48384,
          "time": 55.999944,
          "velocity": 0.3937007874015748
        },
        {
          "duration": 0.22222199999999503,
          "durationTicks": 192,
          "midi": 25,
          "name": "C#1",
          "ticks": 48768,
          "time": 56.444388000000004,
          "velocity": 0.3937007874015748
        },
        {
          "duration": 0.22222199999999503,
          "durationTicks": 192,
          "midi": 37,
          "name": "C#2",
          "ticks": 48768,
          "time": 56.444388000000004,
          "velocity": 0.3937007874015748
        },
        {
          "duration": 0.22222199999999503,
          "durationTicks": 192,
          "midi": 49,
          "name": "C#3",
          "ticks": 48768,
          "time": 56.444388000000004,
          "velocity": 0.3937007874015748
        },
        {
          "duration": 0.22222200000000214,
          "durationTicks": 192,
          "midi": 33,
          "name": "A1",
          "ticks": 49152,
          "time": 56.888832,
          "velocity": 0.3937007874015748
        },
        {
          "duration": 0.22222200000000214,
          "durationTicks": 192,
          "midi": 33,
          "name": "A1",
          "ticks": 49152,
          "time": 56.888832,
          "velocity": 0.3937007874015748
        },
        {
          "duration": 0.22222200000000214,
          "durationTicks": 192,
          "midi": 45,
          "name": "A2",
          "ticks": 49152,
          "time": 56.888832,
          "velocity": 0.3937007874015748
        },
        {
          "duration": 0.22222200000000214,
          "durationTicks": 192,
          "midi": 45,
          "name": "A2",
          "ticks": 49536,
          "time": 57.333276,
          "velocity": 0.3937007874015748
        },
        {
          "duration": 0.22222200000000214,
          "durationTicks": 192,
          "midi": 33,
          "name": "A1",
          "ticks": 49536,
          "time": 57.333276,
          "velocity": 0.3937007874015748
        },
        {
          "duration": 0.22222200000000214,
          "durationTicks": 192,
          "midi": 33,
          "name": "A1",
          "ticks": 49536,
          "time": 57.333276,
          "velocity": 0.3937007874015748
        },
        {
          "duration": 0.22222199999999503,
          "durationTicks": 192,
          "midi": 33,
          "name": "A1",
          "ticks": 49920,
          "time": 57.77772,
          "velocity": 0.3937007874015748
        },
        {
          "duration": 0.22222199999999503,
          "durationTicks": 192,
          "midi": 45,
          "name": "A2",
          "ticks": 49920,
          "time": 57.77772,
          "velocity": 0.3937007874015748
        },
        {
          "duration": 0.22222199999999503,
          "durationTicks": 192,
          "midi": 33,
          "name": "A1",
          "ticks": 49920,
          "time": 57.77772,
          "velocity": 0.3937007874015748
        },
        {
          "duration": 0.22222200000000214,
          "durationTicks": 192,
          "midi": 45,
          "name": "A2",
          "ticks": 50304,
          "time": 58.222164,
          "velocity": 0.3937007874015748
        },
        {
          "duration": 0.22222200000000214,
          "durationTicks": 192,
          "midi": 33,
          "name": "A1",
          "ticks": 50304,
          "time": 58.222164,
          "velocity": 0.3937007874015748
        },
        {
          "duration": 0.22222200000000214,
          "durationTicks": 192,
          "midi": 33,
          "name": "A1",
          "ticks": 50304,
          "time": 58.222164,
          "velocity": 0.3937007874015748
        },
        {
          "duration": 0.22222199999999503,
          "durationTicks": 192,
          "midi": 33,
          "name": "A1",
          "ticks": 50688,
          "time": 58.666608000000004,
          "velocity": 0.3937007874015748
        },
        {
          "duration": 0.22222199999999503,
          "durationTicks": 192,
          "midi": 33,
          "name": "A1",
          "ticks": 50688,
          "time": 58.666608000000004,
          "velocity": 0.3937007874015748
        },
        {
          "duration": 0.22222199999999503,
          "durationTicks": 192,
          "midi": 45,
          "name": "A2",
          "ticks": 50688,
          "time": 58.666608000000004,
          "velocity": 0.3937007874015748
        },
        {
          "duration": 0.22222200000000214,
          "durationTicks": 192,
          "midi": 45,
          "name": "A2",
          "ticks": 51072,
          "time": 59.111052,
          "velocity": 0.3937007874015748
        },
        {
          "duration": 0.22222200000000214,
          "durationTicks": 192,
          "midi": 33,
          "name": "A1",
          "ticks": 51072,
          "time": 59.111052,
          "velocity": 0.3937007874015748
        },
        {
          "duration": 0.22222200000000214,
          "durationTicks": 192,
          "midi": 33,
          "name": "A1",
          "ticks": 51072,
          "time": 59.111052,
          "velocity": 0.3937007874015748
        },
        {
          "duration": 0.22222200000000214,
          "durationTicks": 192,
          "midi": 45,
          "name": "A2",
          "ticks": 51456,
          "time": 59.555496,
          "velocity": 0.3937007874015748
        },
        {
          "duration": 0.22222200000000214,
          "durationTicks": 192,
          "midi": 33,
          "name": "A1",
          "ticks": 51456,
          "time": 59.555496,
          "velocity": 0.3937007874015748
        },
        {
          "duration": 0.22222200000000214,
          "durationTicks": 192,
          "midi": 33,
          "name": "A1",
          "ticks": 51456,
          "time": 59.555496,
          "velocity": 0.3937007874015748
        },
        {
          "duration": 0.22222199999999503,
          "durationTicks": 192,
          "midi": 33,
          "name": "A1",
          "ticks": 51840,
          "time": 59.99994,
          "velocity": 0.3937007874015748
        },
        {
          "duration": 0.22222199999999503,
          "durationTicks": 192,
          "midi": 33,
          "name": "A1",
          "ticks": 51840,
          "time": 59.99994,
          "velocity": 0.3937007874015748
        },
        {
          "duration": 0.22222199999999503,
          "durationTicks": 192,
          "midi": 45,
          "name": "A2",
          "ticks": 51840,
          "time": 59.99994,
          "velocity": 0.3937007874015748
        },
        {
          "duration": 0.22222200000000214,
          "durationTicks": 192,
          "midi": 35,
          "name": "B1",
          "ticks": 52224,
          "time": 60.444384,
          "velocity": 0.3937007874015748
        },
        {
          "duration": 0.22222200000000214,
          "durationTicks": 192,
          "midi": 35,
          "name": "B1",
          "ticks": 52224,
          "time": 60.444384,
          "velocity": 0.3937007874015748
        },
        {
          "duration": 0.22222200000000214,
          "durationTicks": 192,
          "midi": 47,
          "name": "B2",
          "ticks": 52224,
          "time": 60.444384,
          "velocity": 0.3937007874015748
        },
        {
          "duration": 0.22222199999999503,
          "durationTicks": 192,
          "midi": 47,
          "name": "B2",
          "ticks": 52608,
          "time": 60.888828000000004,
          "velocity": 0.3937007874015748
        },
        {
          "duration": 0.22222199999999503,
          "durationTicks": 192,
          "midi": 35,
          "name": "B1",
          "ticks": 52608,
          "time": 60.888828000000004,
          "velocity": 0.3937007874015748
        },
        {
          "duration": 0.22222199999999503,
          "durationTicks": 192,
          "midi": 35,
          "name": "B1",
          "ticks": 52608,
          "time": 60.888828000000004,
          "velocity": 0.3937007874015748
        },
        {
          "duration": 0.22222200000000214,
          "durationTicks": 192,
          "midi": 35,
          "name": "B1",
          "ticks": 52992,
          "time": 61.333272,
          "velocity": 0.3937007874015748
        },
        {
          "duration": 0.22222200000000214,
          "durationTicks": 192,
          "midi": 47,
          "name": "B2",
          "ticks": 52992,
          "time": 61.333272,
          "velocity": 0.3937007874015748
        },
        {
          "duration": 0.22222200000000214,
          "durationTicks": 192,
          "midi": 35,
          "name": "B1",
          "ticks": 52992,
          "time": 61.333272,
          "velocity": 0.3937007874015748
        },
        {
          "duration": 0.22222200000000214,
          "durationTicks": 192,
          "midi": 47,
          "name": "B2",
          "ticks": 53376,
          "time": 61.777716,
          "velocity": 0.3937007874015748
        },
        {
          "duration": 0.22222200000000214,
          "durationTicks": 192,
          "midi": 35,
          "name": "B1",
          "ticks": 53376,
          "time": 61.777716,
          "velocity": 0.3937007874015748
        },
        {
          "duration": 0.22222200000000214,
          "durationTicks": 192,
          "midi": 35,
          "name": "B1",
          "ticks": 53376,
          "time": 61.777716,
          "velocity": 0.3937007874015748
        },
        {
          "duration": 0.22222199999999503,
          "durationTicks": 192,
          "midi": 28,
          "name": "E1",
          "ticks": 53760,
          "time": 62.22216,
          "velocity": 0.3937007874015748
        },
        {
          "duration": 0.22222199999999503,
          "durationTicks": 192,
          "midi": 40,
          "name": "E2",
          "ticks": 53760,
          "time": 62.22216,
          "velocity": 0.3937007874015748
        },
        {
          "duration": 0.22222199999999503,
          "durationTicks": 192,
          "midi": 52,
          "name": "E3",
          "ticks": 53760,
          "time": 62.22216,
          "velocity": 0.3937007874015748
        },
        {
          "duration": 0.22222200000000214,
          "durationTicks": 192,
          "midi": 40,
          "name": "E2",
          "ticks": 54144,
          "time": 62.666604,
          "velocity": 0.3937007874015748
        },
        {
          "duration": 0.22222200000000214,
          "durationTicks": 192,
          "midi": 52,
          "name": "E3",
          "ticks": 54144,
          "time": 62.666604,
          "velocity": 0.3937007874015748
        },
        {
          "duration": 0.22222200000000214,
          "durationTicks": 192,
          "midi": 28,
          "name": "E1",
          "ticks": 54144,
          "time": 62.666604,
          "velocity": 0.3937007874015748
        },
        {
          "duration": 0.22222199999999503,
          "durationTicks": 192,
          "midi": 40,
          "name": "E2",
          "ticks": 54528,
          "time": 63.111048000000004,
          "velocity": 0.3937007874015748
        },
        {
          "duration": 0.22222199999999503,
          "durationTicks": 192,
          "midi": 28,
          "name": "E1",
          "ticks": 54528,
          "time": 63.111048000000004,
          "velocity": 0.3937007874015748
        },
        {
          "duration": 0.22222199999999503,
          "durationTicks": 192,
          "midi": 52,
          "name": "E3",
          "ticks": 54528,
          "time": 63.111048000000004,
          "velocity": 0.3937007874015748
        },
        {
          "duration": 0.22222200000000214,
          "durationTicks": 192,
          "midi": 28,
          "name": "E1",
          "ticks": 54912,
          "time": 63.555492,
          "velocity": 0.3937007874015748
        },
        {
          "duration": 0.22222200000000214,
          "durationTicks": 192,
          "midi": 40,
          "name": "E2",
          "ticks": 54912,
          "time": 63.555492,
          "velocity": 0.3937007874015748
        },
        {
          "duration": 0.22222200000000214,
          "durationTicks": 192,
          "midi": 52,
          "name": "E3",
          "ticks": 54912,
          "time": 63.555492,
          "velocity": 0.3937007874015748
        },
        {
          "duration": 0.22222200000000925,
          "durationTicks": 192,
          "midi": 49,
          "name": "C#3",
          "ticks": 55296,
          "time": 63.999936,
          "velocity": 0.3937007874015748
        },
        {
          "duration": 0.22222200000000925,
          "durationTicks": 192,
          "midi": 25,
          "name": "C#1",
          "ticks": 55296,
          "time": 63.999936,
          "velocity": 0.3937007874015748
        },
        {
          "duration": 0.22222200000000925,
          "durationTicks": 192,
          "midi": 37,
          "name": "C#2",
          "ticks": 55296,
          "time": 63.999936,
          "velocity": 0.3937007874015748
        },
        {
          "duration": 0.22222200000000214,
          "durationTicks": 192,
          "midi": 25,
          "name": "C#1",
          "ticks": 55680,
          "time": 64.44438,
          "velocity": 0.3937007874015748
        },
        {
          "duration": 0.22222200000000214,
          "durationTicks": 192,
          "midi": 49,
          "name": "C#3",
          "ticks": 55680,
          "time": 64.44438,
          "velocity": 0.3937007874015748
        },
        {
          "duration": 0.22222200000000214,
          "durationTicks": 192,
          "midi": 37,
          "name": "C#2",
          "ticks": 55680,
          "time": 64.44438,
          "velocity": 0.3937007874015748
        },
        {
          "duration": 0.22222200000000214,
          "durationTicks": 192,
          "midi": 25,
          "name": "C#1",
          "ticks": 56064,
          "time": 64.888824,
          "velocity": 0.3937007874015748
        },
        {
          "duration": 0.22222200000000214,
          "durationTicks": 192,
          "midi": 49,
          "name": "C#3",
          "ticks": 56064,
          "time": 64.888824,
          "velocity": 0.3937007874015748
        },
        {
          "duration": 0.22222200000000214,
          "durationTicks": 192,
          "midi": 37,
          "name": "C#2",
          "ticks": 56064,
          "time": 64.888824,
          "velocity": 0.3937007874015748
        },
        {
          "duration": 0.22222200000000214,
          "durationTicks": 192,
          "midi": 37,
          "name": "C#2",
          "ticks": 56448,
          "time": 65.333268,
          "velocity": 0.3937007874015748
        },
        {
          "duration": 0.22222200000000214,
          "durationTicks": 192,
          "midi": 25,
          "name": "C#1",
          "ticks": 56448,
          "time": 65.333268,
          "velocity": 0.3937007874015748
        },
        {
          "duration": 0.22222200000000214,
          "durationTicks": 192,
          "midi": 49,
          "name": "C#3",
          "ticks": 56448,
          "time": 65.333268,
          "velocity": 0.3937007874015748
        },
        {
          "duration": 0.22222200000000214,
          "durationTicks": 192,
          "midi": 37,
          "name": "C#2",
          "ticks": 56832,
          "time": 65.777712,
          "velocity": 0.3937007874015748
        },
        {
          "duration": 0.22222200000000214,
          "durationTicks": 192,
          "midi": 49,
          "name": "C#3",
          "ticks": 56832,
          "time": 65.777712,
          "velocity": 0.3937007874015748
        },
        {
          "duration": 0.22222200000000214,
          "durationTicks": 192,
          "midi": 25,
          "name": "C#1",
          "ticks": 56832,
          "time": 65.777712,
          "velocity": 0.3937007874015748
        },
        {
          "duration": 0.22222200000000214,
          "durationTicks": 192,
          "midi": 49,
          "name": "C#3",
          "ticks": 57216,
          "time": 66.222156,
          "velocity": 0.3937007874015748
        },
        {
          "duration": 0.22222200000000214,
          "durationTicks": 192,
          "midi": 25,
          "name": "C#1",
          "ticks": 57216,
          "time": 66.222156,
          "velocity": 0.3937007874015748
        },
        {
          "duration": 0.22222200000000214,
          "durationTicks": 192,
          "midi": 37,
          "name": "C#2",
          "ticks": 57216,
          "time": 66.222156,
          "velocity": 0.3937007874015748
        },
        {
          "duration": 0.22222200000000214,
          "durationTicks": 192,
          "midi": 25,
          "name": "C#1",
          "ticks": 57600,
          "time": 66.6666,
          "velocity": 0.3937007874015748
        },
        {
          "duration": 0.22222200000000214,
          "durationTicks": 192,
          "midi": 37,
          "name": "C#2",
          "ticks": 57600,
          "time": 66.6666,
          "velocity": 0.3937007874015748
        },
        {
          "duration": 0.22222200000000214,
          "durationTicks": 192,
          "midi": 49,
          "name": "C#3",
          "ticks": 57600,
          "time": 66.6666,
          "velocity": 0.3937007874015748
        },
        {
          "duration": 0.22222199999998793,
          "durationTicks": 192,
          "midi": 37,
          "name": "C#2",
          "ticks": 57984,
          "time": 67.111044,
          "velocity": 0.3937007874015748
        },
        {
          "duration": 0.22222199999998793,
          "durationTicks": 192,
          "midi": 49,
          "name": "C#3",
          "ticks": 57984,
          "time": 67.111044,
          "velocity": 0.3937007874015748
        },
        {
          "duration": 0.22222199999998793,
          "durationTicks": 192,
          "midi": 25,
          "name": "C#1",
          "ticks": 57984,
          "time": 67.111044,
          "velocity": 0.3937007874015748
        },
        {
          "duration": 0.22222200000000214,
          "durationTicks": 192,
          "midi": 25,
          "name": "C#1",
          "ticks": 58368,
          "time": 67.555488,
          "velocity": 0.3937007874015748
        },
        {
          "duration": 0.22222200000000214,
          "durationTicks": 192,
          "midi": 37,
          "name": "C#2",
          "ticks": 58368,
          "time": 67.555488,
          "velocity": 0.3937007874015748
        },
        {
          "duration": 0.22222200000000214,
          "durationTicks": 192,
          "midi": 49,
          "name": "C#3",
          "ticks": 58368,
          "time": 67.555488,
          "velocity": 0.3937007874015748
        },
        {
          "duration": 0.22222200000000214,
          "durationTicks": 192,
          "midi": 49,
          "name": "C#3",
          "ticks": 58752,
          "time": 67.999932,
          "velocity": 0.3937007874015748
        },
        {
          "duration": 0.22222200000000214,
          "durationTicks": 192,
          "midi": 25,
          "name": "C#1",
          "ticks": 58752,
          "time": 67.999932,
          "velocity": 0.3937007874015748
        },
        {
          "duration": 0.22222200000000214,
          "durationTicks": 192,
          "midi": 37,
          "name": "C#2",
          "ticks": 58752,
          "time": 67.999932,
          "velocity": 0.3937007874015748
        },
        {
          "duration": 0.22222200000000214,
          "durationTicks": 192,
          "midi": 37,
          "name": "C#2",
          "ticks": 59136,
          "time": 68.444376,
          "velocity": 0.3937007874015748
        },
        {
          "duration": 0.22222200000000214,
          "durationTicks": 192,
          "midi": 25,
          "name": "C#1",
          "ticks": 59136,
          "time": 68.444376,
          "velocity": 0.3937007874015748
        },
        {
          "duration": 0.22222200000000214,
          "durationTicks": 192,
          "midi": 49,
          "name": "C#3",
          "ticks": 59136,
          "time": 68.444376,
          "velocity": 0.3937007874015748
        },
        {
          "duration": 0.22222200000000214,
          "durationTicks": 192,
          "midi": 25,
          "name": "C#1",
          "ticks": 59520,
          "time": 68.88882,
          "velocity": 0.3937007874015748
        },
        {
          "duration": 0.22222200000000214,
          "durationTicks": 192,
          "midi": 49,
          "name": "C#3",
          "ticks": 59520,
          "time": 68.88882,
          "velocity": 0.3937007874015748
        },
        {
          "duration": 0.22222200000000214,
          "durationTicks": 192,
          "midi": 37,
          "name": "C#2",
          "ticks": 59520,
          "time": 68.88882,
          "velocity": 0.3937007874015748
        },
        {
          "duration": 0.22222200000000214,
          "durationTicks": 192,
          "midi": 49,
          "name": "C#3",
          "ticks": 59904,
          "time": 69.333264,
          "velocity": 0.3937007874015748
        },
        {
          "duration": 0.22222200000000214,
          "durationTicks": 192,
          "midi": 37,
          "name": "C#2",
          "ticks": 59904,
          "time": 69.333264,
          "velocity": 0.3937007874015748
        },
        {
          "duration": 0.22222200000000214,
          "durationTicks": 192,
          "midi": 25,
          "name": "C#1",
          "ticks": 59904,
          "time": 69.333264,
          "velocity": 0.3937007874015748
        },
        {
          "duration": 0.22222200000000214,
          "durationTicks": 192,
          "midi": 37,
          "name": "C#2",
          "ticks": 60288,
          "time": 69.777708,
          "velocity": 0.3937007874015748
        },
        {
          "duration": 0.22222200000000214,
          "durationTicks": 192,
          "midi": 49,
          "name": "C#3",
          "ticks": 60288,
          "time": 69.777708,
          "velocity": 0.3937007874015748
        },
        {
          "duration": 0.22222200000000214,
          "durationTicks": 192,
          "midi": 25,
          "name": "C#1",
          "ticks": 60288,
          "time": 69.777708,
          "velocity": 0.3937007874015748
        },
        {
          "duration": 0.22222200000000214,
          "durationTicks": 192,
          "midi": 25,
          "name": "C#1",
          "ticks": 60672,
          "time": 70.222152,
          "velocity": 0.3937007874015748
        },
        {
          "duration": 0.22222200000000214,
          "durationTicks": 192,
          "midi": 37,
          "name": "C#2",
          "ticks": 60672,
          "time": 70.222152,
          "velocity": 0.3937007874015748
        },
        {
          "duration": 0.22222200000000214,
          "durationTicks": 192,
          "midi": 49,
          "name": "C#3",
          "ticks": 60672,
          "time": 70.222152,
          "velocity": 0.3937007874015748
        },
        {
          "duration": 0.22222200000000214,
          "durationTicks": 192,
          "midi": 49,
          "name": "C#3",
          "ticks": 61056,
          "time": 70.666596,
          "velocity": 0.3937007874015748
        },
        {
          "duration": 0.22222200000000214,
          "durationTicks": 192,
          "midi": 37,
          "name": "C#2",
          "ticks": 61056,
          "time": 70.666596,
          "velocity": 0.3937007874015748
        },
        {
          "duration": 0.22222200000000214,
          "durationTicks": 192,
          "midi": 25,
          "name": "C#1",
          "ticks": 61056,
          "time": 70.666596,
          "velocity": 0.3937007874015748
        },
        {
          "duration": 0.22222200000000214,
          "durationTicks": 192,
          "midi": 45,
          "name": "A2",
          "ticks": 61440,
          "time": 71.11104,
          "velocity": 0.3937007874015748
        },
        {
          "duration": 0.22222200000000214,
          "durationTicks": 192,
          "midi": 33,
          "name": "A1",
          "ticks": 61440,
          "time": 71.11104,
          "velocity": 0.3937007874015748
        },
        {
          "duration": 0.22222200000000214,
          "durationTicks": 192,
          "midi": 33,
          "name": "A1",
          "ticks": 61440,
          "time": 71.11104,
          "velocity": 0.3937007874015748
        },
        {
          "duration": 0.22222199999998793,
          "durationTicks": 192,
          "midi": 33,
          "name": "A1",
          "ticks": 61824,
          "time": 71.555484,
          "velocity": 0.3937007874015748
        },
        {
          "duration": 0.22222199999998793,
          "durationTicks": 192,
          "midi": 45,
          "name": "A2",
          "ticks": 61824,
          "time": 71.555484,
          "velocity": 0.3937007874015748
        },
        {
          "duration": 0.22222199999998793,
          "durationTicks": 192,
          "midi": 33,
          "name": "A1",
          "ticks": 61824,
          "time": 71.555484,
          "velocity": 0.3937007874015748
        },
        {
          "duration": 0.22222200000000214,
          "durationTicks": 192,
          "midi": 33,
          "name": "A1",
          "ticks": 62208,
          "time": 71.999928,
          "velocity": 0.3937007874015748
        },
        {
          "duration": 0.22222200000000214,
          "durationTicks": 192,
          "midi": 45,
          "name": "A2",
          "ticks": 62208,
          "time": 71.999928,
          "velocity": 0.3937007874015748
        },
        {
          "duration": 0.22222200000000214,
          "durationTicks": 192,
          "midi": 33,
          "name": "A1",
          "ticks": 62208,
          "time": 71.999928,
          "velocity": 0.3937007874015748
        },
        {
          "duration": 0.22222200000000214,
          "durationTicks": 192,
          "midi": 33,
          "name": "A1",
          "ticks": 62592,
          "time": 72.444372,
          "velocity": 0.3937007874015748
        },
        {
          "duration": 0.22222200000000214,
          "durationTicks": 192,
          "midi": 33,
          "name": "A1",
          "ticks": 62592,
          "time": 72.444372,
          "velocity": 0.3937007874015748
        },
        {
          "duration": 0.22222200000000214,
          "durationTicks": 192,
          "midi": 45,
          "name": "A2",
          "ticks": 62592,
          "time": 72.444372,
          "velocity": 0.3937007874015748
        },
        {
          "duration": 0.22222200000000214,
          "durationTicks": 192,
          "midi": 45,
          "name": "A2",
          "ticks": 62976,
          "time": 72.888816,
          "velocity": 0.3937007874015748
        },
        {
          "duration": 0.22222200000000214,
          "durationTicks": 192,
          "midi": 33,
          "name": "A1",
          "ticks": 62976,
          "time": 72.888816,
          "velocity": 0.3937007874015748
        },
        {
          "duration": 0.22222200000000214,
          "durationTicks": 192,
          "midi": 33,
          "name": "A1",
          "ticks": 62976,
          "time": 72.888816,
          "velocity": 0.3937007874015748
        },
        {
          "duration": 0.22222200000000214,
          "durationTicks": 192,
          "midi": 33,
          "name": "A1",
          "ticks": 63360,
          "time": 73.33326,
          "velocity": 0.3937007874015748
        },
        {
          "duration": 0.22222200000000214,
          "durationTicks": 192,
          "midi": 45,
          "name": "A2",
          "ticks": 63360,
          "time": 73.33326,
          "velocity": 0.3937007874015748
        },
        {
          "duration": 0.22222200000000214,
          "durationTicks": 192,
          "midi": 33,
          "name": "A1",
          "ticks": 63360,
          "time": 73.33326,
          "velocity": 0.3937007874015748
        },
        {
          "duration": 0.22222200000000214,
          "durationTicks": 192,
          "midi": 45,
          "name": "A2",
          "ticks": 63744,
          "time": 73.777704,
          "velocity": 0.3937007874015748
        },
        {
          "duration": 0.22222200000000214,
          "durationTicks": 192,
          "midi": 33,
          "name": "A1",
          "ticks": 63744,
          "time": 73.777704,
          "velocity": 0.3937007874015748
        },
        {
          "duration": 0.22222200000000214,
          "durationTicks": 192,
          "midi": 33,
          "name": "A1",
          "ticks": 63744,
          "time": 73.777704,
          "velocity": 0.3937007874015748
        },
        {
          "duration": 0.22222200000000214,
          "durationTicks": 192,
          "midi": 33,
          "name": "A1",
          "ticks": 64128,
          "time": 74.222148,
          "velocity": 0.3937007874015748
        },
        {
          "duration": 0.22222200000000214,
          "durationTicks": 192,
          "midi": 33,
          "name": "A1",
          "ticks": 64128,
          "time": 74.222148,
          "velocity": 0.3937007874015748
        },
        {
          "duration": 0.22222200000000214,
          "durationTicks": 192,
          "midi": 45,
          "name": "A2",
          "ticks": 64128,
          "time": 74.222148,
          "velocity": 0.3937007874015748
        },
        {
          "duration": 0.22222200000000214,
          "durationTicks": 192,
          "midi": 35,
          "name": "B1",
          "ticks": 64512,
          "time": 74.666592,
          "velocity": 0.3937007874015748
        },
        {
          "duration": 0.22222200000000214,
          "durationTicks": 192,
          "midi": 35,
          "name": "B1",
          "ticks": 64512,
          "time": 74.666592,
          "velocity": 0.3937007874015748
        },
        {
          "duration": 0.22222200000000214,
          "durationTicks": 192,
          "midi": 47,
          "name": "B2",
          "ticks": 64512,
          "time": 74.666592,
          "velocity": 0.3937007874015748
        },
        {
          "duration": 0.22222200000000214,
          "durationTicks": 192,
          "midi": 35,
          "name": "B1",
          "ticks": 64896,
          "time": 75.111036,
          "velocity": 0.3937007874015748
        },
        {
          "duration": 0.22222200000000214,
          "durationTicks": 192,
          "midi": 35,
          "name": "B1",
          "ticks": 64896,
          "time": 75.111036,
          "velocity": 0.3937007874015748
        },
        {
          "duration": 0.22222200000000214,
          "durationTicks": 192,
          "midi": 47,
          "name": "B2",
          "ticks": 64896,
          "time": 75.111036,
          "velocity": 0.3937007874015748
        },
        {
          "duration": 0.22222200000000214,
          "durationTicks": 192,
          "midi": 47,
          "name": "B2",
          "ticks": 65280,
          "time": 75.55548,
          "velocity": 0.3937007874015748
        },
        {
          "duration": 0.22222200000000214,
          "durationTicks": 192,
          "midi": 35,
          "name": "B1",
          "ticks": 65280,
          "time": 75.55548,
          "velocity": 0.3937007874015748
        },
        {
          "duration": 0.22222200000000214,
          "durationTicks": 192,
          "midi": 35,
          "name": "B1",
          "ticks": 65280,
          "time": 75.55548,
          "velocity": 0.3937007874015748
        },
        {
          "duration": 0.22222199999998793,
          "durationTicks": 192,
          "midi": 35,
          "name": "B1",
          "ticks": 65664,
          "time": 75.99992400000001,
          "velocity": 0.3937007874015748
        },
        {
          "duration": 0.22222199999998793,
          "durationTicks": 192,
          "midi": 35,
          "name": "B1",
          "ticks": 65664,
          "time": 75.99992400000001,
          "velocity": 0.3937007874015748
        },
        {
          "duration": 0.22222199999998793,
          "durationTicks": 192,
          "midi": 47,
          "name": "B2",
          "ticks": 65664,
          "time": 75.99992400000001,
          "velocity": 0.3937007874015748
        },
        {
          "duration": 0.22222200000000214,
          "durationTicks": 192,
          "midi": 24,
          "name": "C1",
          "ticks": 66048,
          "time": 76.444368,
          "velocity": 0.3937007874015748
        },
        {
          "duration": 0.22222200000000214,
          "durationTicks": 192,
          "midi": 48,
          "name": "C3",
          "ticks": 66048,
          "time": 76.444368,
          "velocity": 0.3937007874015748
        },
        {
          "duration": 0.22222200000000214,
          "durationTicks": 192,
          "midi": 36,
          "name": "C2",
          "ticks": 66048,
          "time": 76.444368,
          "velocity": 0.3937007874015748
        },
        {
          "duration": 0.22222200000000214,
          "durationTicks": 192,
          "midi": 48,
          "name": "C3",
          "ticks": 66432,
          "time": 76.888812,
          "velocity": 0.3937007874015748
        },
        {
          "duration": 0.22222200000000214,
          "durationTicks": 192,
          "midi": 36,
          "name": "C2",
          "ticks": 66432,
          "time": 76.888812,
          "velocity": 0.3937007874015748
        },
        {
          "duration": 0.22222200000000214,
          "durationTicks": 192,
          "midi": 24,
          "name": "C1",
          "ticks": 66432,
          "time": 76.888812,
          "velocity": 0.3937007874015748
        },
        {
          "duration": 0.22222200000000214,
          "durationTicks": 192,
          "midi": 24,
          "name": "C1",
          "ticks": 66816,
          "time": 77.333256,
          "velocity": 0.3937007874015748
        },
        {
          "duration": 0.22222200000000214,
          "durationTicks": 192,
          "midi": 48,
          "name": "C3",
          "ticks": 66816,
          "time": 77.333256,
          "velocity": 0.3937007874015748
        },
        {
          "duration": 0.22222200000000214,
          "durationTicks": 192,
          "midi": 36,
          "name": "C2",
          "ticks": 66816,
          "time": 77.333256,
          "velocity": 0.3937007874015748
        },
        {
          "duration": 0.22222200000000214,
          "durationTicks": 192,
          "midi": 36,
          "name": "C2",
          "ticks": 67200,
          "time": 77.7777,
          "velocity": 0.3937007874015748
        },
        {
          "duration": 0.22222200000000214,
          "durationTicks": 192,
          "midi": 48,
          "name": "C3",
          "ticks": 67200,
          "time": 77.7777,
          "velocity": 0.3937007874015748
        },
        {
          "duration": 0.22222200000000214,
          "durationTicks": 192,
          "midi": 24,
          "name": "C1",
          "ticks": 67200,
          "time": 77.7777,
          "velocity": 0.3937007874015748
        },
        {
          "duration": 0.22222200000000214,
          "durationTicks": 192,
          "midi": 38,
          "name": "D2",
          "ticks": 67584,
          "time": 78.222144,
          "velocity": 0.3937007874015748
        },
        {
          "duration": 0.22222200000000214,
          "durationTicks": 192,
          "midi": 45,
          "name": "A2",
          "ticks": 67584,
          "time": 78.222144,
          "velocity": 0.3937007874015748
        },
        {
          "duration": 0.22222200000000214,
          "durationTicks": 192,
          "midi": 33,
          "name": "A1",
          "ticks": 67584,
          "time": 78.222144,
          "velocity": 0.3937007874015748
        },
        {
          "duration": 0.22222200000000214,
          "durationTicks": 192,
          "midi": 33,
          "name": "A1",
          "ticks": 67776,
          "time": 78.444366,
          "velocity": 0.3937007874015748
        },
        {
          "duration": 0.11111099999999396,
          "durationTicks": 96,
          "midi": 38,
          "name": "D2",
          "ticks": 67968,
          "time": 78.666588,
          "velocity": 0.3937007874015748
        },
        {
          "duration": 0.11111099999999396,
          "durationTicks": 96,
          "midi": 45,
          "name": "A2",
          "ticks": 67968,
          "time": 78.666588,
          "velocity": 0.3937007874015748
        },
        {
          "duration": 0.11111100000000818,
          "durationTicks": 96,
          "midi": 45,
          "name": "A2",
          "ticks": 68064,
          "time": 78.777699,
          "velocity": 0.3937007874015748
        },
        {
          "duration": 0.11111100000000818,
          "durationTicks": 96,
          "midi": 38,
          "name": "D2",
          "ticks": 68064,
          "time": 78.777699,
          "velocity": 0.3937007874015748
        },
        {
          "duration": 0.22222199999998793,
          "durationTicks": 192,
          "midi": 33,
          "name": "A1",
          "ticks": 68160,
          "time": 78.88881,
          "velocity": 0.3937007874015748
        },
        {
          "duration": 0.11111100000000818,
          "durationTicks": 96,
          "midi": 38,
          "name": "D2",
          "ticks": 68352,
          "time": 79.111032,
          "velocity": 0.3937007874015748
        },
        {
          "duration": 0.22222200000000214,
          "durationTicks": 192,
          "midi": 33,
          "name": "A1",
          "ticks": 68352,
          "time": 79.111032,
          "velocity": 0.3937007874015748
        },
        {
          "duration": 0.22222200000000214,
          "durationTicks": 192,
          "midi": 45,
          "name": "A2",
          "ticks": 68352,
          "time": 79.111032,
          "velocity": 0.3937007874015748
        },
        {
          "duration": 0.22222200000000214,
          "durationTicks": 192,
          "midi": 33,
          "name": "A1",
          "ticks": 68544,
          "time": 79.333254,
          "velocity": 0.3937007874015748
        },
        {
          "duration": 0.11111100000000818,
          "durationTicks": 96,
          "midi": 45,
          "name": "A2",
          "ticks": 68736,
          "time": 79.555476,
          "velocity": 0.3937007874015748
        },
        {
          "duration": 0.11111100000000818,
          "durationTicks": 96,
          "midi": 38,
          "name": "D2",
          "ticks": 68736,
          "time": 79.555476,
          "velocity": 0.3937007874015748
        },
        {
          "duration": 0.11111099999999396,
          "durationTicks": 96,
          "midi": 38,
          "name": "D2",
          "ticks": 68832,
          "time": 79.666587,
          "velocity": 0.3937007874015748
        },
        {
          "duration": 0.11111099999999396,
          "durationTicks": 96,
          "midi": 45,
          "name": "A2",
          "ticks": 68832,
          "time": 79.666587,
          "velocity": 0.3937007874015748
        },
        {
          "duration": 0.22222200000000214,
          "durationTicks": 192,
          "midi": 33,
          "name": "A1",
          "ticks": 68928,
          "time": 79.777698,
          "velocity": 0.3937007874015748
        },
        {
          "duration": 0.22222200000000214,
          "durationTicks": 192,
          "midi": 37,
          "name": "C#2",
          "ticks": 69120,
          "time": 79.99992,
          "velocity": 0.3937007874015748
        },
        {
          "duration": 0.22222200000000214,
          "durationTicks": 192,
          "midi": 49,
          "name": "C#3",
          "ticks": 69120,
          "time": 79.99992,
          "velocity": 0.3937007874015748
        },
        {
          "duration": 0.11111099999999396,
          "durationTicks": 96,
          "midi": 42,
          "name": "F#2",
          "ticks": 69120,
          "time": 79.99992,
          "velocity": 0.3937007874015748
        },
        {
          "duration": 0.22222200000000214,
          "durationTicks": 192,
          "midi": 37,
          "name": "C#2",
          "ticks": 69312,
          "time": 80.222142,
          "velocity": 0.3937007874015748
        },
        {
          "duration": 0.11111099999999396,
          "durationTicks": 96,
          "midi": 49,
          "name": "C#3",
          "ticks": 69504,
          "time": 80.44436400000001,
          "velocity": 0.3937007874015748
        },
        {
          "duration": 0.11111099999999396,
          "durationTicks": 96,
          "midi": 42,
          "name": "F#2",
          "ticks": 69504,
          "time": 80.44436400000001,
          "velocity": 0.3937007874015748
        },
        {
          "duration": 0.11111099999999396,
          "durationTicks": 96,
          "midi": 49,
          "name": "C#3",
          "ticks": 69600,
          "time": 80.555475,
          "velocity": 0.3937007874015748
        },
        {
          "duration": 0.11111099999999396,
          "durationTicks": 96,
          "midi": 42,
          "name": "F#2",
          "ticks": 69600,
          "time": 80.555475,
          "velocity": 0.3937007874015748
        },
        {
          "duration": 0.22222200000000214,
          "durationTicks": 192,
          "midi": 37,
          "name": "C#2",
          "ticks": 69696,
          "time": 80.666586,
          "velocity": 0.3937007874015748
        },
        {
          "duration": 0.11111100000000818,
          "durationTicks": 96,
          "midi": 42,
          "name": "F#2",
          "ticks": 69888,
          "time": 80.888808,
          "velocity": 0.3937007874015748
        },
        {
          "duration": 0.22222200000000214,
          "durationTicks": 192,
          "midi": 37,
          "name": "C#2",
          "ticks": 69888,
          "time": 80.888808,
          "velocity": 0.3937007874015748
        },
        {
          "duration": 0.22222200000000214,
          "durationTicks": 192,
          "midi": 49,
          "name": "C#3",
          "ticks": 69888,
          "time": 80.888808,
          "velocity": 0.3937007874015748
        },
        {
          "duration": 0.22222200000000214,
          "durationTicks": 192,
          "midi": 37,
          "name": "C#2",
          "ticks": 70080,
          "time": 81.11103,
          "velocity": 0.3937007874015748
        },
        {
          "duration": 0.11111099999999396,
          "durationTicks": 96,
          "midi": 49,
          "name": "C#3",
          "ticks": 70272,
          "time": 81.333252,
          "velocity": 0.3937007874015748
        },
        {
          "duration": 0.11111099999999396,
          "durationTicks": 96,
          "midi": 42,
          "name": "F#2",
          "ticks": 70272,
          "time": 81.333252,
          "velocity": 0.3937007874015748
        },
        {
          "duration": 0.11111100000000818,
          "durationTicks": 96,
          "midi": 42,
          "name": "F#2",
          "ticks": 70368,
          "time": 81.444363,
          "velocity": 0.3937007874015748
        },
        {
          "duration": 0.11111100000000818,
          "durationTicks": 96,
          "midi": 49,
          "name": "C#3",
          "ticks": 70368,
          "time": 81.444363,
          "velocity": 0.3937007874015748
        },
        {
          "duration": 0.22222200000000214,
          "durationTicks": 192,
          "midi": 37,
          "name": "C#2",
          "ticks": 70464,
          "time": 81.555474,
          "velocity": 0.3937007874015748
        },
        {
          "duration": 0.11111099999999396,
          "durationTicks": 96,
          "midi": 38,
          "name": "D2",
          "ticks": 70656,
          "time": 81.777696,
          "velocity": 0.3937007874015748
        },
        {
          "duration": 0.22222200000000214,
          "durationTicks": 192,
          "midi": 33,
          "name": "A1",
          "ticks": 70656,
          "time": 81.777696,
          "velocity": 0.3937007874015748
        },
        {
          "duration": 0.22222200000000214,
          "durationTicks": 192,
          "midi": 45,
          "name": "A2",
          "ticks": 70656,
          "time": 81.777696,
          "velocity": 0.3937007874015748
        },
        {
          "duration": 0.22222199999998793,
          "durationTicks": 192,
          "midi": 33,
          "name": "A1",
          "ticks": 70848,
          "time": 81.99991800000001,
          "velocity": 0.3937007874015748
        },
        {
          "duration": 0.11111100000000818,
          "durationTicks": 96,
          "midi": 38,
          "name": "D2",
          "ticks": 71040,
          "time": 82.22214,
          "velocity": 0.3937007874015748
        },
        {
          "duration": 0.11111100000000818,
          "durationTicks": 96,
          "midi": 45,
          "name": "A2",
          "ticks": 71040,
          "time": 82.22214,
          "velocity": 0.3937007874015748
        },
        {
          "duration": 0.11111099999999396,
          "durationTicks": 96,
          "midi": 38,
          "name": "D2",
          "ticks": 71136,
          "time": 82.333251,
          "velocity": 0.3937007874015748
        },
        {
          "duration": 0.11111099999999396,
          "durationTicks": 96,
          "midi": 45,
          "name": "A2",
          "ticks": 71136,
          "time": 82.333251,
          "velocity": 0.3937007874015748
        },
        {
          "duration": 0.22222200000000214,
          "durationTicks": 192,
          "midi": 33,
          "name": "A1",
          "ticks": 71232,
          "time": 82.444362,
          "velocity": 0.3937007874015748
        },
        {
          "duration": 0.11111099999999396,
          "durationTicks": 96,
          "midi": 38,
          "name": "D2",
          "ticks": 71424,
          "time": 82.666584,
          "velocity": 0.3937007874015748
        },
        {
          "duration": 0.22222200000000214,
          "durationTicks": 192,
          "midi": 33,
          "name": "A1",
          "ticks": 71424,
          "time": 82.666584,
          "velocity": 0.3937007874015748
        },
        {
          "duration": 0.22222200000000214,
          "durationTicks": 192,
          "midi": 45,
          "name": "A2",
          "ticks": 71424,
          "time": 82.666584,
          "velocity": 0.3937007874015748
        },
        {
          "duration": 0.22222200000000214,
          "durationTicks": 192,
          "midi": 33,
          "name": "A1",
          "ticks": 71616,
          "time": 82.888806,
          "velocity": 0.3937007874015748
        },
        {
          "duration": 0.11111099999999396,
          "durationTicks": 96,
          "midi": 45,
          "name": "A2",
          "ticks": 71808,
          "time": 83.111028,
          "velocity": 0.3937007874015748
        },
        {
          "duration": 0.11111099999999396,
          "durationTicks": 96,
          "midi": 38,
          "name": "D2",
          "ticks": 71808,
          "time": 83.111028,
          "velocity": 0.3937007874015748
        },
        {
          "duration": 0.11111100000000818,
          "durationTicks": 96,
          "midi": 45,
          "name": "A2",
          "ticks": 71904,
          "time": 83.222139,
          "velocity": 0.3937007874015748
        },
        {
          "duration": 0.11111100000000818,
          "durationTicks": 96,
          "midi": 38,
          "name": "D2",
          "ticks": 71904,
          "time": 83.222139,
          "velocity": 0.3937007874015748
        },
        {
          "duration": 0.22222199999998793,
          "durationTicks": 192,
          "midi": 33,
          "name": "A1",
          "ticks": 72000,
          "time": 83.33325,
          "velocity": 0.3937007874015748
        },
        {
          "duration": 0.22222200000000214,
          "durationTicks": 192,
          "midi": 49,
          "name": "C#3",
          "ticks": 72192,
          "time": 83.555472,
          "velocity": 0.3937007874015748
        },
        {
          "duration": 0.11111100000000818,
          "durationTicks": 96,
          "midi": 42,
          "name": "F#2",
          "ticks": 72192,
          "time": 83.555472,
          "velocity": 0.3937007874015748
        },
        {
          "duration": 0.22222200000000214,
          "durationTicks": 192,
          "midi": 37,
          "name": "C#2",
          "ticks": 72192,
          "time": 83.555472,
          "velocity": 0.3937007874015748
        },
        {
          "duration": 0.22222200000000214,
          "durationTicks": 192,
          "midi": 37,
          "name": "C#2",
          "ticks": 72384,
          "time": 83.777694,
          "velocity": 0.3937007874015748
        },
        {
          "duration": 0.11111100000000818,
          "durationTicks": 96,
          "midi": 49,
          "name": "C#3",
          "ticks": 72576,
          "time": 83.999916,
          "velocity": 0.3937007874015748
        },
        {
          "duration": 0.11111100000000818,
          "durationTicks": 96,
          "midi": 42,
          "name": "F#2",
          "ticks": 72576,
          "time": 83.999916,
          "velocity": 0.3937007874015748
        },
        {
          "duration": 0.11111099999999396,
          "durationTicks": 96,
          "midi": 49,
          "name": "C#3",
          "ticks": 72672,
          "time": 84.111027,
          "velocity": 0.3937007874015748
        },
        {
          "duration": 0.11111099999999396,
          "durationTicks": 96,
          "midi": 42,
          "name": "F#2",
          "ticks": 72672,
          "time": 84.111027,
          "velocity": 0.3937007874015748
        },
        {
          "duration": 0.22222200000000214,
          "durationTicks": 192,
          "midi": 37,
          "name": "C#2",
          "ticks": 72768,
          "time": 84.222138,
          "velocity": 0.3937007874015748
        },
        {
          "duration": 0.22222200000000214,
          "durationTicks": 192,
          "midi": 37,
          "name": "C#2",
          "ticks": 72960,
          "time": 84.44436,
          "velocity": 0.3937007874015748
        },
        {
          "duration": 0.22222200000000214,
          "durationTicks": 192,
          "midi": 49,
          "name": "C#3",
          "ticks": 72960,
          "time": 84.44436,
          "velocity": 0.3937007874015748
        },
        {
          "duration": 0.11111099999999396,
          "durationTicks": 96,
          "midi": 42,
          "name": "F#2",
          "ticks": 72960,
          "time": 84.44436,
          "velocity": 0.3937007874015748
        },
        {
          "duration": 0.22222200000000214,
          "durationTicks": 192,
          "midi": 37,
          "name": "C#2",
          "ticks": 73152,
          "time": 84.666582,
          "velocity": 0.3937007874015748
        },
        {
          "duration": 0.11111099999999396,
          "durationTicks": 96,
          "midi": 42,
          "name": "F#2",
          "ticks": 73344,
          "time": 84.88880400000001,
          "velocity": 0.3937007874015748
        },
        {
          "duration": 0.11111099999999396,
          "durationTicks": 96,
          "midi": 49,
          "name": "C#3",
          "ticks": 73344,
          "time": 84.88880400000001,
          "velocity": 0.3937007874015748
        },
        {
          "duration": 0.11111099999999396,
          "durationTicks": 96,
          "midi": 49,
          "name": "C#3",
          "ticks": 73440,
          "time": 84.999915,
          "velocity": 0.3937007874015748
        },
        {
          "duration": 0.11111099999999396,
          "durationTicks": 96,
          "midi": 42,
          "name": "F#2",
          "ticks": 73440,
          "time": 84.999915,
          "velocity": 0.3937007874015748
        },
        {
          "duration": 0.22222200000000214,
          "durationTicks": 192,
          "midi": 37,
          "name": "C#2",
          "ticks": 73536,
          "time": 85.111026,
          "velocity": 0.3937007874015748
        },
        {
          "duration": 0.22222200000000214,
          "durationTicks": 192,
          "midi": 45,
          "name": "A2",
          "ticks": 73728,
          "time": 85.333248,
          "velocity": 0.3937007874015748
        },
        {
          "duration": 0.22222200000000214,
          "durationTicks": 192,
          "midi": 33,
          "name": "A1",
          "ticks": 73728,
          "time": 85.333248,
          "velocity": 0.3937007874015748
        },
        {
          "duration": 0.11111100000000818,
          "durationTicks": 96,
          "midi": 38,
          "name": "D2",
          "ticks": 73728,
          "time": 85.333248,
          "velocity": 0.3937007874015748
        },
        {
          "duration": 0.22222200000000214,
          "durationTicks": 192,
          "midi": 33,
          "name": "A1",
          "ticks": 73920,
          "time": 85.55547,
          "velocity": 0.3937007874015748
        },
        {
          "duration": 0.11111099999999396,
          "durationTicks": 96,
          "midi": 45,
          "name": "A2",
          "ticks": 74112,
          "time": 85.777692,
          "velocity": 0.3937007874015748
        },
        {
          "duration": 0.11111099999999396,
          "durationTicks": 96,
          "midi": 38,
          "name": "D2",
          "ticks": 74112,
          "time": 85.777692,
          "velocity": 0.3937007874015748
        },
        {
          "duration": 0.11111100000000818,
          "durationTicks": 96,
          "midi": 38,
          "name": "D2",
          "ticks": 74208,
          "time": 85.888803,
          "velocity": 0.3937007874015748
        },
        {
          "duration": 0.11111100000000818,
          "durationTicks": 96,
          "midi": 45,
          "name": "A2",
          "ticks": 74208,
          "time": 85.888803,
          "velocity": 0.3937007874015748
        },
        {
          "duration": 0.22222200000000214,
          "durationTicks": 192,
          "midi": 33,
          "name": "A1",
          "ticks": 74304,
          "time": 85.999914,
          "velocity": 0.3937007874015748
        },
        {
          "duration": 0.11111099999999396,
          "durationTicks": 96,
          "midi": 38,
          "name": "D2",
          "ticks": 74496,
          "time": 86.222136,
          "velocity": 0.3937007874015748
        },
        {
          "duration": 0.22222199999998793,
          "durationTicks": 192,
          "midi": 33,
          "name": "A1",
          "ticks": 74496,
          "time": 86.222136,
          "velocity": 0.3937007874015748
        },
        {
          "duration": 0.22222199999998793,
          "durationTicks": 192,
          "midi": 45,
          "name": "A2",
          "ticks": 74496,
          "time": 86.222136,
          "velocity": 0.3937007874015748
        },
        {
          "duration": 0.22222200000000214,
          "durationTicks": 192,
          "midi": 33,
          "name": "A1",
          "ticks": 74688,
          "time": 86.444358,
          "velocity": 0.3937007874015748
        },
        {
          "duration": 0.11111100000000818,
          "durationTicks": 96,
          "midi": 38,
          "name": "D2",
          "ticks": 74880,
          "time": 86.66658,
          "velocity": 0.3937007874015748
        },
        {
          "duration": 0.11111100000000818,
          "durationTicks": 96,
          "midi": 45,
          "name": "A2",
          "ticks": 74880,
          "time": 86.66658,
          "velocity": 0.3937007874015748
        },
        {
          "duration": 0.11111099999999396,
          "durationTicks": 96,
          "midi": 38,
          "name": "D2",
          "ticks": 74976,
          "time": 86.777691,
          "velocity": 0.3937007874015748
        },
        {
          "duration": 0.11111099999999396,
          "durationTicks": 96,
          "midi": 45,
          "name": "A2",
          "ticks": 74976,
          "time": 86.777691,
          "velocity": 0.3937007874015748
        },
        {
          "duration": 0.22222200000000214,
          "durationTicks": 192,
          "midi": 33,
          "name": "A1",
          "ticks": 75072,
          "time": 86.888802,
          "velocity": 0.3937007874015748
        },
        {
          "duration": 0.22222200000000214,
          "durationTicks": 192,
          "midi": 37,
          "name": "C#2",
          "ticks": 75264,
          "time": 87.111024,
          "velocity": 0.3937007874015748
        },
        {
          "duration": 0.22222200000000214,
          "durationTicks": 192,
          "midi": 49,
          "name": "C#3",
          "ticks": 75264,
          "time": 87.111024,
          "velocity": 0.3937007874015748
        },
        {
          "duration": 0.11111099999999396,
          "durationTicks": 96,
          "midi": 42,
          "name": "F#2",
          "ticks": 75264,
          "time": 87.111024,
          "velocity": 0.3937007874015748
        },
        {
          "duration": 0.22222200000000214,
          "durationTicks": 192,
          "midi": 37,
          "name": "C#2",
          "ticks": 75456,
          "time": 87.333246,
          "velocity": 0.3937007874015748
        },
        {
          "duration": 0.11111099999999396,
          "durationTicks": 96,
          "midi": 42,
          "name": "F#2",
          "ticks": 75648,
          "time": 87.555468,
          "velocity": 0.3937007874015748
        },
        {
          "duration": 0.11111099999999396,
          "durationTicks": 96,
          "midi": 49,
          "name": "C#3",
          "ticks": 75648,
          "time": 87.555468,
          "velocity": 0.3937007874015748
        },
        {
          "duration": 0.11111100000000818,
          "durationTicks": 96,
          "midi": 49,
          "name": "C#3",
          "ticks": 75744,
          "time": 87.666579,
          "velocity": 0.3937007874015748
        },
        {
          "duration": 0.11111100000000818,
          "durationTicks": 96,
          "midi": 42,
          "name": "F#2",
          "ticks": 75744,
          "time": 87.666579,
          "velocity": 0.3937007874015748
        },
        {
          "duration": 0.22222199999998793,
          "durationTicks": 192,
          "midi": 37,
          "name": "C#2",
          "ticks": 75840,
          "time": 87.77769,
          "velocity": 0.3937007874015748
        },
        {
          "duration": 0.22222200000000214,
          "durationTicks": 192,
          "midi": 37,
          "name": "C#2",
          "ticks": 76032,
          "time": 87.999912,
          "velocity": 0.3937007874015748
        },
        {
          "duration": 0.11111100000000818,
          "durationTicks": 96,
          "midi": 42,
          "name": "F#2",
          "ticks": 76032,
          "time": 87.999912,
          "velocity": 0.3937007874015748
        },
        {
          "duration": 0.22222200000000214,
          "durationTicks": 192,
          "midi": 49,
          "name": "C#3",
          "ticks": 76032,
          "time": 87.999912,
          "velocity": 0.3937007874015748
        },
        {
          "duration": 0.22222200000000214,
          "durationTicks": 192,
          "midi": 37,
          "name": "C#2",
          "ticks": 76224,
          "time": 88.222134,
          "velocity": 0.3937007874015748
        },
        {
          "duration": 0.11111100000000818,
          "durationTicks": 96,
          "midi": 49,
          "name": "C#3",
          "ticks": 76416,
          "time": 88.444356,
          "velocity": 0.3937007874015748
        },
        {
          "duration": 0.11111100000000818,
          "durationTicks": 96,
          "midi": 42,
          "name": "F#2",
          "ticks": 76416,
          "time": 88.444356,
          "velocity": 0.3937007874015748
        },
        {
          "duration": 0.11111099999999396,
          "durationTicks": 96,
          "midi": 49,
          "name": "C#3",
          "ticks": 76512,
          "time": 88.55546700000001,
          "velocity": 0.3937007874015748
        },
        {
          "duration": 0.11111099999999396,
          "durationTicks": 96,
          "midi": 42,
          "name": "F#2",
          "ticks": 76512,
          "time": 88.55546700000001,
          "velocity": 0.3937007874015748
        },
        {
          "duration": 0.22222200000000214,
          "durationTicks": 192,
          "midi": 37,
          "name": "C#2",
          "ticks": 76608,
          "time": 88.666578,
          "velocity": 0.3937007874015748
        },
        {
          "duration": 0.11111099999999396,
          "durationTicks": 96,
          "midi": 38,
          "name": "D2",
          "ticks": 76800,
          "time": 88.8888,
          "velocity": 0.3937007874015748
        },
        {
          "duration": 0.22222200000000214,
          "durationTicks": 192,
          "midi": 45,
          "name": "A2",
          "ticks": 76800,
          "time": 88.8888,
          "velocity": 0.3937007874015748
        },
        {
          "duration": 0.22222200000000214,
          "durationTicks": 192,
          "midi": 33,
          "name": "A1",
          "ticks": 76800,
          "time": 88.8888,
          "velocity": 0.3937007874015748
        },
        {
          "duration": 0.22222200000000214,
          "durationTicks": 192,
          "midi": 33,
          "name": "A1",
          "ticks": 76992,
          "time": 89.111022,
          "velocity": 0.3937007874015748
        },
        {
          "duration": 0.11111099999999396,
          "durationTicks": 96,
          "midi": 38,
          "name": "D2",
          "ticks": 77184,
          "time": 89.33324400000001,
          "velocity": 0.3937007874015748
        },
        {
          "duration": 0.11111099999999396,
          "durationTicks": 96,
          "midi": 45,
          "name": "A2",
          "ticks": 77184,
          "time": 89.33324400000001,
          "velocity": 0.3937007874015748
        },
        {
          "duration": 0.11111099999999396,
          "durationTicks": 96,
          "midi": 45,
          "name": "A2",
          "ticks": 77280,
          "time": 89.444355,
          "velocity": 0.3937007874015748
        },
        {
          "duration": 0.11111099999999396,
          "durationTicks": 96,
          "midi": 38,
          "name": "D2",
          "ticks": 77280,
          "time": 89.444355,
          "velocity": 0.3937007874015748
        },
        {
          "duration": 0.22222200000000214,
          "durationTicks": 192,
          "midi": 33,
          "name": "A1",
          "ticks": 77376,
          "time": 89.555466,
          "velocity": 0.3937007874015748
        },
        {
          "duration": 0.22222200000000214,
          "durationTicks": 192,
          "midi": 45,
          "name": "A2",
          "ticks": 77568,
          "time": 89.777688,
          "velocity": 0.3937007874015748
        },
        {
          "duration": 0.22222200000000214,
          "durationTicks": 192,
          "midi": 33,
          "name": "A1",
          "ticks": 77568,
          "time": 89.777688,
          "velocity": 0.3937007874015748
        },
        {
          "duration": 0.11111100000000818,
          "durationTicks": 96,
          "midi": 38,
          "name": "D2",
          "ticks": 77568,
          "time": 89.777688,
          "velocity": 0.3937007874015748
        },
        {
          "duration": 0.22222200000000214,
          "durationTicks": 192,
          "midi": 33,
          "name": "A1",
          "ticks": 77760,
          "time": 89.99991,
          "velocity": 0.3937007874015748
        },
        {
          "duration": 0.11111099999999396,
          "durationTicks": 96,
          "midi": 45,
          "name": "A2",
          "ticks": 77952,
          "time": 90.222132,
          "velocity": 0.3937007874015748
        },
        {
          "duration": 0.11111099999999396,
          "durationTicks": 96,
          "midi": 38,
          "name": "D2",
          "ticks": 77952,
          "time": 90.222132,
          "velocity": 0.3937007874015748
        },
        {
          "duration": 0.11111100000000818,
          "durationTicks": 96,
          "midi": 38,
          "name": "D2",
          "ticks": 78048,
          "time": 90.333243,
          "velocity": 0.3937007874015748
        },
        {
          "duration": 0.11111100000000818,
          "durationTicks": 96,
          "midi": 45,
          "name": "A2",
          "ticks": 78048,
          "time": 90.333243,
          "velocity": 0.3937007874015748
        },
        {
          "duration": 0.22222200000000214,
          "durationTicks": 192,
          "midi": 33,
          "name": "A1",
          "ticks": 78144,
          "time": 90.444354,
          "velocity": 0.3937007874015748
        },
        {
          "duration": 0.11111099999999396,
          "durationTicks": 96,
          "midi": 42,
          "name": "F#2",
          "ticks": 78336,
          "time": 90.666576,
          "velocity": 0.3937007874015748
        },
        {
          "duration": 0.22222199999998793,
          "durationTicks": 192,
          "midi": 37,
          "name": "C#2",
          "ticks": 78336,
          "time": 90.666576,
          "velocity": 0.3937007874015748
        },
        {
          "duration": 0.22222199999998793,
          "durationTicks": 192,
          "midi": 49,
          "name": "C#3",
          "ticks": 78336,
          "time": 90.666576,
          "velocity": 0.3937007874015748
        },
        {
          "duration": 0.22222200000000214,
          "durationTicks": 192,
          "midi": 37,
          "name": "C#2",
          "ticks": 78528,
          "time": 90.888798,
          "velocity": 0.3937007874015748
        },
        {
          "duration": 0.11111100000000818,
          "durationTicks": 96,
          "midi": 49,
          "name": "C#3",
          "ticks": 78720,
          "time": 91.11102,
          "velocity": 0.3937007874015748
        },
        {
          "duration": 0.11111100000000818,
          "durationTicks": 96,
          "midi": 42,
          "name": "F#2",
          "ticks": 78720,
          "time": 91.11102,
          "velocity": 0.3937007874015748
        },
        {
          "duration": 0.11111099999999396,
          "durationTicks": 96,
          "midi": 49,
          "name": "C#3",
          "ticks": 78816,
          "time": 91.222131,
          "velocity": 0.3937007874015748
        },
        {
          "duration": 0.11111099999999396,
          "durationTicks": 96,
          "midi": 42,
          "name": "F#2",
          "ticks": 78816,
          "time": 91.222131,
          "velocity": 0.3937007874015748
        },
        {
          "duration": 0.22222200000000214,
          "durationTicks": 192,
          "midi": 37,
          "name": "C#2",
          "ticks": 78912,
          "time": 91.333242,
          "velocity": 0.3937007874015748
        },
        {
          "duration": 0.11111099999999396,
          "durationTicks": 96,
          "midi": 42,
          "name": "F#2",
          "ticks": 79104,
          "time": 91.555464,
          "velocity": 0.3937007874015748
        },
        {
          "duration": 0.22222200000000214,
          "durationTicks": 192,
          "midi": 49,
          "name": "C#3",
          "ticks": 79104,
          "time": 91.555464,
          "velocity": 0.3937007874015748
        },
        {
          "duration": 0.22222200000000214,
          "durationTicks": 192,
          "midi": 37,
          "name": "C#2",
          "ticks": 79104,
          "time": 91.555464,
          "velocity": 0.3937007874015748
        },
        {
          "duration": 0.22222200000000214,
          "durationTicks": 192,
          "midi": 37,
          "name": "C#2",
          "ticks": 79296,
          "time": 91.777686,
          "velocity": 0.3937007874015748
        },
        {
          "duration": 0.11111099999999396,
          "durationTicks": 96,
          "midi": 42,
          "name": "F#2",
          "ticks": 79488,
          "time": 91.999908,
          "velocity": 0.3937007874015748
        },
        {
          "duration": 0.11111099999999396,
          "durationTicks": 96,
          "midi": 49,
          "name": "C#3",
          "ticks": 79488,
          "time": 91.999908,
          "velocity": 0.3937007874015748
        },
        {
          "duration": 0.11111100000000818,
          "durationTicks": 96,
          "midi": 42,
          "name": "F#2",
          "ticks": 79584,
          "time": 92.111019,
          "velocity": 0.3937007874015748
        },
        {
          "duration": 0.11111100000000818,
          "durationTicks": 96,
          "midi": 49,
          "name": "C#3",
          "ticks": 79584,
          "time": 92.111019,
          "velocity": 0.3937007874015748
        },
        {
          "duration": 0.22222199999998793,
          "durationTicks": 192,
          "midi": 37,
          "name": "C#2",
          "ticks": 79680,
          "time": 92.22213,
          "velocity": 0.3937007874015748
        },
        {
          "duration": 0.22222200000000214,
          "durationTicks": 192,
          "midi": 33,
          "name": "A1",
          "ticks": 79872,
          "time": 92.444352,
          "velocity": 0.3937007874015748
        },
        {
          "duration": 0.22222200000000214,
          "durationTicks": 192,
          "midi": 45,
          "name": "A2",
          "ticks": 79872,
          "time": 92.444352,
          "velocity": 0.3937007874015748
        },
        {
          "duration": 0.11111100000000818,
          "durationTicks": 96,
          "midi": 38,
          "name": "D2",
          "ticks": 79872,
          "time": 92.444352,
          "velocity": 0.3937007874015748
        },
        {
          "duration": 0.22222200000000214,
          "durationTicks": 192,
          "midi": 33,
          "name": "A1",
          "ticks": 80064,
          "time": 92.666574,
          "velocity": 0.3937007874015748
        },
        {
          "duration": 0.11111100000000818,
          "durationTicks": 96,
          "midi": 38,
          "name": "D2",
          "ticks": 80256,
          "time": 92.888796,
          "velocity": 0.3937007874015748
        },
        {
          "duration": 0.11111100000000818,
          "durationTicks": 96,
          "midi": 45,
          "name": "A2",
          "ticks": 80256,
          "time": 92.888796,
          "velocity": 0.3937007874015748
        },
        {
          "duration": 0.11111099999999396,
          "durationTicks": 96,
          "midi": 45,
          "name": "A2",
          "ticks": 80352,
          "time": 92.99990700000001,
          "velocity": 0.3937007874015748
        },
        {
          "duration": 0.11111099999999396,
          "durationTicks": 96,
          "midi": 38,
          "name": "D2",
          "ticks": 80352,
          "time": 92.99990700000001,
          "velocity": 0.3937007874015748
        },
        {
          "duration": 0.22222200000000214,
          "durationTicks": 192,
          "midi": 33,
          "name": "A1",
          "ticks": 80448,
          "time": 93.111018,
          "velocity": 0.3937007874015748
        },
        {
          "duration": 0.11111099999999396,
          "durationTicks": 96,
          "midi": 38,
          "name": "D2",
          "ticks": 80640,
          "time": 93.33324,
          "velocity": 0.3937007874015748
        },
        {
          "duration": 0.22222200000000214,
          "durationTicks": 192,
          "midi": 33,
          "name": "A1",
          "ticks": 80640,
          "time": 93.33324,
          "velocity": 0.3937007874015748
        },
        {
          "duration": 0.22222200000000214,
          "durationTicks": 192,
          "midi": 45,
          "name": "A2",
          "ticks": 80640,
          "time": 93.33324,
          "velocity": 0.3937007874015748
        },
        {
          "duration": 0.22222200000000214,
          "durationTicks": 192,
          "midi": 33,
          "name": "A1",
          "ticks": 80832,
          "time": 93.555462,
          "velocity": 0.3937007874015748
        },
        {
          "duration": 0.11111099999999396,
          "durationTicks": 96,
          "midi": 45,
          "name": "A2",
          "ticks": 81024,
          "time": 93.77768400000001,
          "velocity": 0.3937007874015748
        },
        {
          "duration": 0.11111099999999396,
          "durationTicks": 96,
          "midi": 38,
          "name": "D2",
          "ticks": 81024,
          "time": 93.77768400000001,
          "velocity": 0.3937007874015748
        },
        {
          "duration": 0.11111099999999396,
          "durationTicks": 96,
          "midi": 38,
          "name": "D2",
          "ticks": 81120,
          "time": 93.888795,
          "velocity": 0.3937007874015748
        },
        {
          "duration": 0.11111099999999396,
          "durationTicks": 96,
          "midi": 45,
          "name": "A2",
          "ticks": 81120,
          "time": 93.888795,
          "velocity": 0.3937007874015748
        },
        {
          "duration": 0.22222200000000214,
          "durationTicks": 192,
          "midi": 33,
          "name": "A1",
          "ticks": 81216,
          "time": 93.999906,
          "velocity": 0.3937007874015748
        },
        {
          "duration": 0.22222200000000214,
          "durationTicks": 192,
          "midi": 37,
          "name": "C#2",
          "ticks": 81408,
          "time": 94.222128,
          "velocity": 0.3937007874015748
        },
        {
          "duration": 0.22222200000000214,
          "durationTicks": 192,
          "midi": 49,
          "name": "C#3",
          "ticks": 81408,
          "time": 94.222128,
          "velocity": 0.3937007874015748
        },
        {
          "duration": 0.11111100000000818,
          "durationTicks": 96,
          "midi": 42,
          "name": "F#2",
          "ticks": 81408,
          "time": 94.222128,
          "velocity": 0.3937007874015748
        },
        {
          "duration": 0.22222200000000214,
          "durationTicks": 192,
          "midi": 37,
          "name": "C#2",
          "ticks": 81600,
          "time": 94.44435,
          "velocity": 0.3937007874015748
        },
        {
          "duration": 0.11111099999999396,
          "durationTicks": 96,
          "midi": 42,
          "name": "F#2",
          "ticks": 81792,
          "time": 94.666572,
          "velocity": 0.3937007874015748
        },
        {
          "duration": 0.11111099999999396,
          "durationTicks": 96,
          "midi": 49,
          "name": "C#3",
          "ticks": 81792,
          "time": 94.666572,
          "velocity": 0.3937007874015748
        },
        {
          "duration": 0.11111100000000818,
          "durationTicks": 96,
          "midi": 49,
          "name": "C#3",
          "ticks": 81888,
          "time": 94.777683,
          "velocity": 0.3937007874015748
        },
        {
          "duration": 0.11111100000000818,
          "durationTicks": 96,
          "midi": 42,
          "name": "F#2",
          "ticks": 81888,
          "time": 94.777683,
          "velocity": 0.3937007874015748
        },
        {
          "duration": 0.22222200000000214,
          "durationTicks": 192,
          "midi": 37,
          "name": "C#2",
          "ticks": 81984,
          "time": 94.888794,
          "velocity": 0.3937007874015748
        },
        {
          "duration": 0.22222199999998793,
          "durationTicks": 192,
          "midi": 37,
          "name": "C#2",
          "ticks": 82176,
          "time": 95.111016,
          "velocity": 0.3937007874015748
        },
        {
          "duration": 0.11111099999999396,
          "durationTicks": 96,
          "midi": 42,
          "name": "F#2",
          "ticks": 82176,
          "time": 95.111016,
          "velocity": 0.3937007874015748
        },
        {
          "duration": 0.22222199999998793,
          "durationTicks": 192,
          "midi": 49,
          "name": "C#3",
          "ticks": 82176,
          "time": 95.111016,
          "velocity": 0.3937007874015748
        },
        {
          "duration": 0.22222200000000214,
          "durationTicks": 192,
          "midi": 37,
          "name": "C#2",
          "ticks": 82368,
          "time": 95.333238,
          "velocity": 0.3937007874015748
        },
        {
          "duration": 0.11111100000000818,
          "durationTicks": 96,
          "midi": 42,
          "name": "F#2",
          "ticks": 82560,
          "time": 95.55546,
          "velocity": 0.3937007874015748
        },
        {
          "duration": 0.11111100000000818,
          "durationTicks": 96,
          "midi": 49,
          "name": "C#3",
          "ticks": 82560,
          "time": 95.55546,
          "velocity": 0.3937007874015748
        },
        {
          "duration": 0.11111099999999396,
          "durationTicks": 96,
          "midi": 49,
          "name": "C#3",
          "ticks": 82656,
          "time": 95.666571,
          "velocity": 0.3937007874015748
        },
        {
          "duration": 0.11111099999999396,
          "durationTicks": 96,
          "midi": 42,
          "name": "F#2",
          "ticks": 82656,
          "time": 95.666571,
          "velocity": 0.3937007874015748
        },
        {
          "duration": 0.22222200000000214,
          "durationTicks": 192,
          "midi": 37,
          "name": "C#2",
          "ticks": 82752,
          "time": 95.777682,
          "velocity": 0.3937007874015748
        },
        {
          "duration": 0.11111099999999396,
          "durationTicks": 96,
          "midi": 38,
          "name": "D2",
          "ticks": 82944,
          "time": 95.999904,
          "velocity": 0.3937007874015748
        },
        {
          "duration": 0.22222200000000214,
          "durationTicks": 192,
          "midi": 45,
          "name": "A2",
          "ticks": 82944,
          "time": 95.999904,
          "velocity": 0.3937007874015748
        },
        {
          "duration": 0.22222200000000214,
          "durationTicks": 192,
          "midi": 33,
          "name": "A1",
          "ticks": 82944,
          "time": 95.999904,
          "velocity": 0.3937007874015748
        },
        {
          "duration": 0.22222200000000214,
          "durationTicks": 192,
          "midi": 33,
          "name": "A1",
          "ticks": 83136,
          "time": 96.222126,
          "velocity": 0.3937007874015748
        },
        {
          "duration": 0.11111099999999396,
          "durationTicks": 96,
          "midi": 38,
          "name": "D2",
          "ticks": 83328,
          "time": 96.444348,
          "velocity": 0.3937007874015748
        },
        {
          "duration": 0.11111099999999396,
          "durationTicks": 96,
          "midi": 45,
          "name": "A2",
          "ticks": 83328,
          "time": 96.444348,
          "velocity": 0.3937007874015748
        },
        {
          "duration": 0.11111100000000818,
          "durationTicks": 96,
          "midi": 38,
          "name": "D2",
          "ticks": 83424,
          "time": 96.555459,
          "velocity": 0.3937007874015748
        },
        {
          "duration": 0.11111100000000818,
          "durationTicks": 96,
          "midi": 45,
          "name": "A2",
          "ticks": 83424,
          "time": 96.555459,
          "velocity": 0.3937007874015748
        },
        {
          "duration": 0.22222199999998793,
          "durationTicks": 192,
          "midi": 33,
          "name": "A1",
          "ticks": 83520,
          "time": 96.66657000000001,
          "velocity": 0.3937007874015748
        },
        {
          "duration": 0.11111100000000818,
          "durationTicks": 96,
          "midi": 38,
          "name": "D2",
          "ticks": 83712,
          "time": 96.888792,
          "velocity": 0.3937007874015748
        },
        {
          "duration": 0.22222200000000214,
          "durationTicks": 192,
          "midi": 33,
          "name": "A1",
          "ticks": 83712,
          "time": 96.888792,
          "velocity": 0.3937007874015748
        },
        {
          "duration": 0.22222200000000214,
          "durationTicks": 192,
          "midi": 45,
          "name": "A2",
          "ticks": 83712,
          "time": 96.888792,
          "velocity": 0.3937007874015748
        },
        {
          "duration": 0.22222200000000214,
          "durationTicks": 192,
          "midi": 33,
          "name": "A1",
          "ticks": 83904,
          "time": 97.111014,
          "velocity": 0.3937007874015748
        },
        {
          "duration": 0.11111100000000818,
          "durationTicks": 96,
          "midi": 38,
          "name": "D2",
          "ticks": 84096,
          "time": 97.333236,
          "velocity": 0.3937007874015748
        },
        {
          "duration": 0.11111100000000818,
          "durationTicks": 96,
          "midi": 45,
          "name": "A2",
          "ticks": 84096,
          "time": 97.333236,
          "velocity": 0.3937007874015748
        },
        {
          "duration": 0.11111099999999396,
          "durationTicks": 96,
          "midi": 45,
          "name": "A2",
          "ticks": 84192,
          "time": 97.44434700000001,
          "velocity": 0.3937007874015748
        },
        {
          "duration": 0.11111099999999396,
          "durationTicks": 96,
          "midi": 38,
          "name": "D2",
          "ticks": 84192,
          "time": 97.44434700000001,
          "velocity": 0.3937007874015748
        },
        {
          "duration": 0.22222200000000214,
          "durationTicks": 192,
          "midi": 33,
          "name": "A1",
          "ticks": 84288,
          "time": 97.555458,
          "velocity": 0.3937007874015748
        },
        {
          "duration": 0.11111099999999396,
          "durationTicks": 96,
          "midi": 42,
          "name": "F#2",
          "ticks": 84480,
          "time": 97.77768,
          "velocity": 0.3937007874015748
        },
        {
          "duration": 0.22222200000000214,
          "durationTicks": 192,
          "midi": 37,
          "name": "C#2",
          "ticks": 84480,
          "time": 97.77768,
          "velocity": 0.3937007874015748
        },
        {
          "duration": 0.22222200000000214,
          "durationTicks": 192,
          "midi": 49,
          "name": "C#3",
          "ticks": 84480,
          "time": 97.77768,
          "velocity": 0.3937007874015748
        },
        {
          "duration": 0.22222200000000214,
          "durationTicks": 192,
          "midi": 37,
          "name": "C#2",
          "ticks": 84672,
          "time": 97.999902,
          "velocity": 0.3937007874015748
        },
        {
          "duration": 0.11111099999999396,
          "durationTicks": 96,
          "midi": 42,
          "name": "F#2",
          "ticks": 84864,
          "time": 98.22212400000001,
          "velocity": 0.3937007874015748
        },
        {
          "duration": 0.11111099999999396,
          "durationTicks": 96,
          "midi": 49,
          "name": "C#3",
          "ticks": 84864,
          "time": 98.22212400000001,
          "velocity": 0.3937007874015748
        },
        {
          "duration": 0.11111099999999396,
          "durationTicks": 96,
          "midi": 49,
          "name": "C#3",
          "ticks": 84960,
          "time": 98.333235,
          "velocity": 0.3937007874015748
        },
        {
          "duration": 0.11111099999999396,
          "durationTicks": 96,
          "midi": 42,
          "name": "F#2",
          "ticks": 84960,
          "time": 98.333235,
          "velocity": 0.3937007874015748
        },
        {
          "duration": 0.22222200000000214,
          "durationTicks": 192,
          "midi": 37,
          "name": "C#2",
          "ticks": 85056,
          "time": 98.444346,
          "velocity": 0.3937007874015748
        },
        {
          "duration": 0.22222200000000214,
          "durationTicks": 192,
          "midi": 49,
          "name": "C#3",
          "ticks": 85248,
          "time": 98.666568,
          "velocity": 0.3937007874015748
        },
        {
          "duration": 0.11111100000000818,
          "durationTicks": 96,
          "midi": 42,
          "name": "F#2",
          "ticks": 85248,
          "time": 98.666568,
          "velocity": 0.3937007874015748
        },
        {
          "duration": 0.22222200000000214,
          "durationTicks": 192,
          "midi": 37,
          "name": "C#2",
          "ticks": 85248,
          "time": 98.666568,
          "velocity": 0.3937007874015748
        },
        {
          "duration": 0.22222200000000214,
          "durationTicks": 192,
          "midi": 37,
          "name": "C#2",
          "ticks": 85440,
          "time": 98.88879,
          "velocity": 0.3937007874015748
        },
        {
          "duration": 0.11111099999999396,
          "durationTicks": 96,
          "midi": 49,
          "name": "C#3",
          "ticks": 85632,
          "time": 99.111012,
          "velocity": 0.3937007874015748
        },
        {
          "duration": 0.11111099999999396,
          "durationTicks": 96,
          "midi": 42,
          "name": "F#2",
          "ticks": 85632,
          "time": 99.111012,
          "velocity": 0.3937007874015748
        },
        {
          "duration": 0.11111100000000818,
          "durationTicks": 96,
          "midi": 49,
          "name": "C#3",
          "ticks": 85728,
          "time": 99.222123,
          "velocity": 0.3937007874015748
        },
        {
          "duration": 0.11111100000000818,
          "durationTicks": 96,
          "midi": 42,
          "name": "F#2",
          "ticks": 85728,
          "time": 99.222123,
          "velocity": 0.3937007874015748
        },
        {
          "duration": 0.22222200000000214,
          "durationTicks": 192,
          "midi": 37,
          "name": "C#2",
          "ticks": 85824,
          "time": 99.333234,
          "velocity": 0.3937007874015748
        },
        {
          "duration": 0.22222199999998793,
          "durationTicks": 192,
          "midi": 33,
          "name": "A1",
          "ticks": 86016,
          "time": 99.555456,
          "velocity": 0.3937007874015748
        },
        {
          "duration": 0.22222199999998793,
          "durationTicks": 192,
          "midi": 45,
          "name": "A2",
          "ticks": 86016,
          "time": 99.555456,
          "velocity": 0.3937007874015748
        },
        {
          "duration": 0.22222200000000214,
          "durationTicks": 192,
          "midi": 33,
          "name": "A1",
          "ticks": 86208,
          "time": 99.777678,
          "velocity": 0.3937007874015748
        },
        {
          "duration": 0.11111100000000818,
          "durationTicks": 96,
          "midi": 45,
          "name": "A2",
          "ticks": 86400,
          "time": 99.9999,
          "velocity": 0.3937007874015748
        },
        {
          "duration": 0.11111099999999396,
          "durationTicks": 96,
          "midi": 45,
          "name": "A2",
          "ticks": 86496,
          "time": 100.111011,
          "velocity": 0.3937007874015748
        },
        {
          "duration": 0.22222200000000214,
          "durationTicks": 192,
          "midi": 33,
          "name": "A1",
          "ticks": 86592,
          "time": 100.222122,
          "velocity": 0.3937007874015748
        },
        {
          "duration": 0.22222200000000214,
          "durationTicks": 192,
          "midi": 45,
          "name": "A2",
          "ticks": 86784,
          "time": 100.444344,
          "velocity": 0.3937007874015748
        },
        {
          "duration": 0.22222200000000214,
          "durationTicks": 192,
          "midi": 33,
          "name": "A1",
          "ticks": 86784,
          "time": 100.444344,
          "velocity": 0.3937007874015748
        },
        {
          "duration": 0.22222200000000214,
          "durationTicks": 192,
          "midi": 33,
          "name": "A1",
          "ticks": 86976,
          "time": 100.666566,
          "velocity": 0.3937007874015748
        },
        {
          "duration": 0.11111099999999396,
          "durationTicks": 96,
          "midi": 45,
          "name": "A2",
          "ticks": 87168,
          "time": 100.888788,
          "velocity": 0.3937007874015748
        },
        {
          "duration": 0.11111100000000818,
          "durationTicks": 96,
          "midi": 45,
          "name": "A2",
          "ticks": 87264,
          "time": 100.999899,
          "velocity": 0.3937007874015748
        },
        {
          "duration": 0.22222199999998793,
          "durationTicks": 192,
          "midi": 33,
          "name": "A1",
          "ticks": 87360,
          "time": 101.11101000000001,
          "velocity": 0.3937007874015748
        },
        {
          "duration": 0.22222200000000214,
          "durationTicks": 192,
          "midi": 37,
          "name": "C#2",
          "ticks": 87552,
          "time": 101.333232,
          "velocity": 0.3937007874015748
        },
        {
          "duration": 0.22222200000000214,
          "durationTicks": 192,
          "midi": 49,
          "name": "C#3",
          "ticks": 87552,
          "time": 101.333232,
          "velocity": 0.3937007874015748
        },
        {
          "duration": 0.22222200000000214,
          "durationTicks": 192,
          "midi": 37,
          "name": "C#2",
          "ticks": 87744,
          "time": 101.555454,
          "velocity": 0.3937007874015748
        },
        {
          "duration": 0.11111100000000818,
          "durationTicks": 96,
          "midi": 49,
          "name": "C#3",
          "ticks": 87936,
          "time": 101.777676,
          "velocity": 0.3937007874015748
        },
        {
          "duration": 0.11111099999999396,
          "durationTicks": 96,
          "midi": 49,
          "name": "C#3",
          "ticks": 88032,
          "time": 101.88878700000001,
          "velocity": 0.3937007874015748
        },
        {
          "duration": 0.22222200000000214,
          "durationTicks": 192,
          "midi": 37,
          "name": "C#2",
          "ticks": 88128,
          "time": 101.999898,
          "velocity": 0.3937007874015748
        },
        {
          "duration": 0.22222200000000214,
          "durationTicks": 192,
          "midi": 37,
          "name": "C#2",
          "ticks": 88320,
          "time": 102.22212,
          "velocity": 0.3937007874015748
        },
        {
          "duration": 0.22222200000000214,
          "durationTicks": 192,
          "midi": 49,
          "name": "C#3",
          "ticks": 88320,
          "time": 102.22212,
          "velocity": 0.3937007874015748
        },
        {
          "duration": 0.22222200000000214,
          "durationTicks": 192,
          "midi": 37,
          "name": "C#2",
          "ticks": 88512,
          "time": 102.444342,
          "velocity": 0.3937007874015748
        },
        {
          "duration": 0.11111099999999396,
          "durationTicks": 96,
          "midi": 49,
          "name": "C#3",
          "ticks": 88704,
          "time": 102.66656400000001,
          "velocity": 0.3937007874015748
        },
        {
          "duration": 0.11111099999999396,
          "durationTicks": 96,
          "midi": 49,
          "name": "C#3",
          "ticks": 88800,
          "time": 102.777675,
          "velocity": 0.3937007874015748
        },
        {
          "duration": 0.22222200000000214,
          "durationTicks": 192,
          "midi": 37,
          "name": "C#2",
          "ticks": 88896,
          "time": 102.888786,
          "velocity": 0.3937007874015748
        },
        {
          "duration": 0.22222200000000214,
          "durationTicks": 192,
          "midi": 33,
          "name": "A1",
          "ticks": 89088,
          "time": 103.111008,
          "velocity": 0.3937007874015748
        },
        {
          "duration": 0.22222200000000214,
          "durationTicks": 192,
          "midi": 45,
          "name": "A2",
          "ticks": 89088,
          "time": 103.111008,
          "velocity": 0.3937007874015748
        },
        {
          "duration": 0.22222200000000214,
          "durationTicks": 192,
          "midi": 33,
          "name": "A1",
          "ticks": 89280,
          "time": 103.33323,
          "velocity": 0.3937007874015748
        },
        {
          "duration": 0.11111099999999396,
          "durationTicks": 96,
          "midi": 45,
          "name": "A2",
          "ticks": 89472,
          "time": 103.555452,
          "velocity": 0.3937007874015748
        },
        {
          "duration": 0.11111100000000818,
          "durationTicks": 96,
          "midi": 45,
          "name": "A2",
          "ticks": 89568,
          "time": 103.666563,
          "velocity": 0.3937007874015748
        },
        {
          "duration": 0.22222200000000214,
          "durationTicks": 192,
          "midi": 33,
          "name": "A1",
          "ticks": 89664,
          "time": 103.777674,
          "velocity": 0.3937007874015748
        },
        {
          "duration": 0.22222199999998793,
          "durationTicks": 192,
          "midi": 45,
          "name": "A2",
          "ticks": 89856,
          "time": 103.999896,
          "velocity": 0.3937007874015748
        },
        {
          "duration": 0.22222199999998793,
          "durationTicks": 192,
          "midi": 33,
          "name": "A1",
          "ticks": 89856,
          "time": 103.999896,
          "velocity": 0.3937007874015748
        },
        {
          "duration": 0.22222200000000214,
          "durationTicks": 192,
          "midi": 33,
          "name": "A1",
          "ticks": 90048,
          "time": 104.222118,
          "velocity": 0.3937007874015748
        },
        {
          "duration": 0.11111100000000818,
          "durationTicks": 96,
          "midi": 45,
          "name": "A2",
          "ticks": 90240,
          "time": 104.44434,
          "velocity": 0.3937007874015748
        },
        {
          "duration": 0.11111099999999396,
          "durationTicks": 96,
          "midi": 45,
          "name": "A2",
          "ticks": 90336,
          "time": 104.555451,
          "velocity": 0.3937007874015748
        },
        {
          "duration": 0.22222200000000214,
          "durationTicks": 192,
          "midi": 33,
          "name": "A1",
          "ticks": 90432,
          "time": 104.666562,
          "velocity": 0.3937007874015748
        },
        {
          "duration": 0.22222200000000214,
          "durationTicks": 192,
          "midi": 49,
          "name": "C#3",
          "ticks": 90624,
          "time": 104.888784,
          "velocity": 0.3937007874015748
        },
        {
          "duration": 0.22222200000000214,
          "durationTicks": 192,
          "midi": 37,
          "name": "C#2",
          "ticks": 90624,
          "time": 104.888784,
          "velocity": 0.3937007874015748
        },
        {
          "duration": 0.22222200000000214,
          "durationTicks": 192,
          "midi": 37,
          "name": "C#2",
          "ticks": 90816,
          "time": 105.111006,
          "velocity": 0.3937007874015748
        },
        {
          "duration": 0.11111099999999396,
          "durationTicks": 96,
          "midi": 49,
          "name": "C#3",
          "ticks": 91008,
          "time": 105.333228,
          "velocity": 0.3937007874015748
        },
        {
          "duration": 0.11111100000000818,
          "durationTicks": 96,
          "midi": 49,
          "name": "C#3",
          "ticks": 91104,
          "time": 105.444339,
          "velocity": 0.3937007874015748
        },
        {
          "duration": 0.22222199999998793,
          "durationTicks": 192,
          "midi": 37,
          "name": "C#2",
          "ticks": 91200,
          "time": 105.55545000000001,
          "velocity": 0.3937007874015748
        },
        {
          "duration": 0.22222200000000214,
          "durationTicks": 192,
          "midi": 49,
          "name": "C#3",
          "ticks": 91392,
          "time": 105.777672,
          "velocity": 0.3937007874015748
        },
        {
          "duration": 0.22222200000000214,
          "durationTicks": 192,
          "midi": 37,
          "name": "C#2",
          "ticks": 91392,
          "time": 105.777672,
          "velocity": 0.3937007874015748
        },
        {
          "duration": 0.22222200000000214,
          "durationTicks": 192,
          "midi": 37,
          "name": "C#2",
          "ticks": 91584,
          "time": 105.999894,
          "velocity": 0.3937007874015748
        },
        {
          "duration": 0.11111100000000818,
          "durationTicks": 96,
          "midi": 49,
          "name": "C#3",
          "ticks": 91776,
          "time": 106.222116,
          "velocity": 0.3937007874015748
        },
        {
          "duration": 0.11111099999999396,
          "durationTicks": 96,
          "midi": 49,
          "name": "C#3",
          "ticks": 91872,
          "time": 106.33322700000001,
          "velocity": 0.3937007874015748
        },
        {
          "duration": 0.22222200000000214,
          "durationTicks": 192,
          "midi": 37,
          "name": "C#2",
          "ticks": 91968,
          "time": 106.444338,
          "velocity": 0.3937007874015748
        },
        {
          "duration": 0.4444440000000043,
          "durationTicks": 384,
          "midi": 28,
          "name": "E1",
          "ticks": 92160,
          "time": 106.66656,
          "velocity": 0.3937007874015748
        },
        {
          "duration": 0.8888879999999943,
          "durationTicks": 768,
          "midi": 52,
          "name": "E3",
          "ticks": 92160,
          "time": 106.66656,
          "velocity": 0.3937007874015748
        },
        {
          "duration": 0.8888879999999943,
          "durationTicks": 768,
          "midi": 40,
          "name": "E2",
          "ticks": 92160,
          "time": 106.66656,
          "velocity": 0.3937007874015748
        },
        {
          "duration": 0.44444399999999007,
          "durationTicks": 384,
          "midi": 28,
          "name": "E1",
          "ticks": 92544,
          "time": 107.11100400000001,
          "velocity": 0.3937007874015748
        },
        {
          "duration": 0.44444399999999007,
          "durationTicks": 384,
          "midi": 27,
          "name": "D#1",
          "ticks": 93696,
          "time": 108.444336,
          "velocity": 0.3937007874015748
        },
        {
          "duration": 0.8888879999999943,
          "durationTicks": 768,
          "midi": 51,
          "name": "D#3",
          "ticks": 93696,
          "time": 108.444336,
          "velocity": 0.3937007874015748
        },
        {
          "duration": 0.8888879999999943,
          "durationTicks": 768,
          "midi": 39,
          "name": "D#2",
          "ticks": 93696,
          "time": 108.444336,
          "velocity": 0.3937007874015748
        },
        {
          "duration": 0.4444440000000043,
          "durationTicks": 384,
          "midi": 27,
          "name": "D#1",
          "ticks": 94080,
          "time": 108.88878,
          "velocity": 0.3937007874015748
        },
        {
          "duration": 0.8888880000000086,
          "durationTicks": 768,
          "midi": 52,
          "name": "E3",
          "ticks": 95232,
          "time": 110.222112,
          "velocity": 0.3937007874015748
        },
        {
          "duration": 0.8888880000000086,
          "durationTicks": 768,
          "midi": 40,
          "name": "E2",
          "ticks": 95232,
          "time": 110.222112,
          "velocity": 0.3937007874015748
        },
        {
          "duration": 0.4444440000000043,
          "durationTicks": 384,
          "midi": 28,
          "name": "E1",
          "ticks": 95232,
          "time": 110.222112,
          "velocity": 0.3937007874015748
        },
        {
          "duration": 0.4444440000000043,
          "durationTicks": 384,
          "midi": 28,
          "name": "E1",
          "ticks": 95616,
          "time": 110.666556,
          "velocity": 0.3937007874015748
        },
        {
          "duration": 0.8888880000000086,
          "durationTicks": 768,
          "midi": 42,
          "name": "F#2",
          "ticks": 96768,
          "time": 111.999888,
          "velocity": 0.3937007874015748
        },
        {
          "duration": 0.8888880000000086,
          "durationTicks": 768,
          "midi": 54,
          "name": "F#3",
          "ticks": 96768,
          "time": 111.999888,
          "velocity": 0.3937007874015748
        },
        {
          "duration": 0.4444440000000043,
          "durationTicks": 384,
          "midi": 30,
          "name": "F#1",
          "ticks": 96768,
          "time": 111.999888,
          "velocity": 0.3937007874015748
        },
        {
          "duration": 0.4444440000000043,
          "durationTicks": 384,
          "midi": 30,
          "name": "F#1",
          "ticks": 97152,
          "time": 112.444332,
          "velocity": 0.3937007874015748
        },
        {
          "duration": 1.6666649999999947,
          "durationTicks": 1440,
          "midi": 45,
          "name": "A2",
          "ticks": 98304,
          "time": 113.777664,
          "velocity": 0.3937007874015748
        },
        {
          "duration": 1.6666649999999947,
          "durationTicks": 1440,
          "midi": 47,
          "name": "B2",
          "ticks": 99840,
          "time": 115.55544,
          "velocity": 0.3937007874015748
        },
        {
          "duration": 3.3333299999999895,
          "durationTicks": 2880,
          "midi": 46,
          "name": "A#2",
          "ticks": 101376,
          "time": 117.33321600000001,
          "velocity": 0.3937007874015748
        },
        {
          "duration": 1.666665000000009,
          "durationTicks": 1440,
          "midi": 45,
          "name": "A2",
          "ticks": 104448,
          "time": 120.888768,
          "velocity": 0.3937007874015748
        },
        {
          "duration": 1.6666649999999947,
          "durationTicks": 1440,
          "midi": 47,
          "name": "B2",
          "ticks": 105984,
          "time": 122.666544,
          "velocity": 0.3937007874015748
        },
        {
          "duration": 2.5555530000000033,
          "durationTicks": 2208,
          "midi": 49,
          "name": "C#3",
          "ticks": 107520,
          "time": 124.44432,
          "velocity": 0.3937007874015748
        },
        {
          "duration": 0.4444440000000043,
          "durationTicks": 384,
          "midi": 49,
          "name": "C#3",
          "ticks": 109824,
          "time": 127.110984,
          "velocity": 0.3937007874015748
        },
        {
          "duration": 0.22222200000000214,
          "durationTicks": 192,
          "midi": 49,
          "name": "C#3",
          "ticks": 110208,
          "time": 127.555428,
          "velocity": 0.3937007874015748
        },
        {
          "duration": 0.11111099999999396,
          "durationTicks": 96,
          "midi": 49,
          "name": "C#3",
          "ticks": 110400,
          "time": 127.77765000000001,
          "velocity": 0.3937007874015748
        },
        {
          "duration": 0.11111099999999396,
          "durationTicks": 96,
          "midi": 49,
          "name": "C#3",
          "ticks": 110496,
          "time": 127.888761,
          "velocity": 0.3937007874015748
        },
        {
          "duration": 0.4444440000000185,
          "durationTicks": 384,
          "midi": 45,
          "name": "A2",
          "ticks": 110592,
          "time": 127.999872,
          "velocity": 0.3937007874015748
        },
        {
          "duration": 0.44444399999997586,
          "durationTicks": 384,
          "midi": 45,
          "name": "A2",
          "ticks": 110976,
          "time": 128.44431600000001,
          "velocity": 0.3937007874015748
        },
        {
          "duration": 0.4444440000000043,
          "durationTicks": 384,
          "midi": 45,
          "name": "A2",
          "ticks": 111360,
          "time": 128.88876,
          "velocity": 0.3937007874015748
        },
        {
          "duration": 0.4444440000000043,
          "durationTicks": 384,
          "midi": 45,
          "name": "A2",
          "ticks": 111744,
          "time": 129.333204,
          "velocity": 0.3937007874015748
        },
        {
          "duration": 0.4444440000000043,
          "durationTicks": 384,
          "midi": 47,
          "name": "B2",
          "ticks": 112128,
          "time": 129.777648,
          "velocity": 0.3937007874015748
        },
        {
          "duration": 0.4444440000000043,
          "durationTicks": 384,
          "midi": 47,
          "name": "B2",
          "ticks": 112512,
          "time": 130.222092,
          "velocity": 0.3937007874015748
        },
        {
          "duration": 0.4444440000000043,
          "durationTicks": 384,
          "midi": 47,
          "name": "B2",
          "ticks": 112896,
          "time": 130.666536,
          "velocity": 0.3937007874015748
        },
        {
          "duration": 0.44444399999997586,
          "durationTicks": 384,
          "midi": 47,
          "name": "B2",
          "ticks": 113280,
          "time": 131.11098,
          "velocity": 0.3937007874015748
        },
        {
          "duration": 0.4444440000000043,
          "durationTicks": 384,
          "midi": 46,
          "name": "A#2",
          "ticks": 113664,
          "time": 131.555424,
          "velocity": 0.3937007874015748
        },
        {
          "duration": 0.4444440000000043,
          "durationTicks": 384,
          "midi": 46,
          "name": "A#2",
          "ticks": 114048,
          "time": 131.999868,
          "velocity": 0.3937007874015748
        },
        {
          "duration": 0.4444440000000043,
          "durationTicks": 384,
          "midi": 46,
          "name": "A#2",
          "ticks": 114432,
          "time": 132.444312,
          "velocity": 0.3937007874015748
        },
        {
          "duration": 0.4444440000000043,
          "durationTicks": 384,
          "midi": 46,
          "name": "A#2",
          "ticks": 114816,
          "time": 132.888756,
          "velocity": 0.3937007874015748
        },
        {
          "duration": 0.4444440000000043,
          "durationTicks": 384,
          "midi": 46,
          "name": "A#2",
          "ticks": 115200,
          "time": 133.3332,
          "velocity": 0.3937007874015748
        },
        {
          "duration": 0.4444440000000043,
          "durationTicks": 384,
          "midi": 46,
          "name": "A#2",
          "ticks": 115584,
          "time": 133.777644,
          "velocity": 0.3937007874015748
        },
        {
          "duration": 0.44444399999997586,
          "durationTicks": 384,
          "midi": 46,
          "name": "A#2",
          "ticks": 115968,
          "time": 134.222088,
          "velocity": 0.3937007874015748
        },
        {
          "duration": 0.4444440000000043,
          "durationTicks": 384,
          "midi": 46,
          "name": "A#2",
          "ticks": 116352,
          "time": 134.666532,
          "velocity": 0.3937007874015748
        },
        {
          "duration": 0.4444440000000043,
          "durationTicks": 384,
          "midi": 45,
          "name": "A2",
          "ticks": 116736,
          "time": 135.110976,
          "velocity": 0.3937007874015748
        },
        {
          "duration": 0.4444440000000043,
          "durationTicks": 384,
          "midi": 45,
          "name": "A2",
          "ticks": 117120,
          "time": 135.55542,
          "velocity": 0.3937007874015748
        },
        {
          "duration": 0.4444440000000043,
          "durationTicks": 384,
          "midi": 45,
          "name": "A2",
          "ticks": 117504,
          "time": 135.999864,
          "velocity": 0.3937007874015748
        },
        {
          "duration": 0.4444440000000043,
          "durationTicks": 384,
          "midi": 45,
          "name": "A2",
          "ticks": 117888,
          "time": 136.444308,
          "velocity": 0.3937007874015748
        },
        {
          "duration": 0.4444440000000043,
          "durationTicks": 384,
          "midi": 47,
          "name": "B2",
          "ticks": 118272,
          "time": 136.888752,
          "velocity": 0.3937007874015748
        },
        {
          "duration": 0.44444399999997586,
          "durationTicks": 384,
          "midi": 47,
          "name": "B2",
          "ticks": 118656,
          "time": 137.33319600000002,
          "velocity": 0.3937007874015748
        },
        {
          "duration": 0.4444440000000043,
          "durationTicks": 384,
          "midi": 47,
          "name": "B2",
          "ticks": 119040,
          "time": 137.77764,
          "velocity": 0.3937007874015748
        },
        {
          "duration": 0.4444440000000043,
          "durationTicks": 384,
          "midi": 47,
          "name": "B2",
          "ticks": 119424,
          "time": 138.222084,
          "velocity": 0.3937007874015748
        },
        {
          "duration": 0.4444440000000043,
          "durationTicks": 384,
          "midi": 49,
          "name": "C#3",
          "ticks": 119808,
          "time": 138.666528,
          "velocity": 0.3937007874015748
        },
        {
          "duration": 0.4444440000000043,
          "durationTicks": 384,
          "midi": 49,
          "name": "C#3",
          "ticks": 120192,
          "time": 139.110972,
          "velocity": 0.3937007874015748
        },
        {
          "duration": 0.4444440000000043,
          "durationTicks": 384,
          "midi": 49,
          "name": "C#3",
          "ticks": 120576,
          "time": 139.555416,
          "velocity": 0.3937007874015748
        },
        {
          "duration": 0.44444399999997586,
          "durationTicks": 384,
          "midi": 49,
          "name": "C#3",
          "ticks": 120960,
          "time": 139.99986,
          "velocity": 0.3937007874015748
        },
        {
          "duration": 0.4444440000000043,
          "durationTicks": 384,
          "midi": 49,
          "name": "C#3",
          "ticks": 121344,
          "time": 140.444304,
          "velocity": 0.3937007874015748
        },
        {
          "duration": 0.4444440000000043,
          "durationTicks": 384,
          "midi": 49,
          "name": "C#3",
          "ticks": 121728,
          "time": 140.888748,
          "velocity": 0.3937007874015748
        },
        {
          "duration": 0.22222200000001635,
          "durationTicks": 192,
          "midi": 49,
          "name": "C#3",
          "ticks": 122112,
          "time": 141.333192,
          "velocity": 0.3937007874015748
        },
        {
          "duration": 0.22222199999998793,
          "durationTicks": 192,
          "midi": 49,
          "name": "C#3",
          "ticks": 122304,
          "time": 141.555414,
          "velocity": 0.3937007874015748
        },
        {
          "duration": 0.11111099999999396,
          "durationTicks": 96,
          "midi": 49,
          "name": "C#3",
          "ticks": 122496,
          "time": 141.777636,
          "velocity": 0.3937007874015748
        },
        {
          "duration": 0.11111099999999396,
          "durationTicks": 96,
          "midi": 49,
          "name": "C#3",
          "ticks": 122592,
          "time": 141.888747,
          "velocity": 0.3937007874015748
        },
        {
          "duration": 0.11111100000002239,
          "durationTicks": 96,
          "midi": 49,
          "name": "C#3",
          "ticks": 122688,
          "time": 141.999858,
          "velocity": 0.3937007874015748
        },
        {
          "duration": 0.11111099999999396,
          "durationTicks": 96,
          "midi": 49,
          "name": "C#3",
          "ticks": 122784,
          "time": 142.110969,
          "velocity": 0.3937007874015748
        },
        {
          "duration": 0.22222199999998793,
          "durationTicks": 192,
          "midi": 25,
          "name": "C#1",
          "ticks": 122880,
          "time": 142.22208,
          "velocity": 0.3937007874015748
        },
        {
          "duration": 0.22222199999998793,
          "durationTicks": 192,
          "midi": 37,
          "name": "C#2",
          "ticks": 122880,
          "time": 142.22208,
          "velocity": 0.3937007874015748
        },
        {
          "duration": 0.22222199999998793,
          "durationTicks": 192,
          "midi": 49,
          "name": "C#3",
          "ticks": 122880,
          "time": 142.22208,
          "velocity": 0.3937007874015748
        },
        {
          "duration": 0.22222200000001635,
          "durationTicks": 192,
          "midi": 25,
          "name": "C#1",
          "ticks": 123072,
          "time": 142.444302,
          "velocity": 0.3937007874015748
        },
        {
          "duration": 0.22222200000001635,
          "durationTicks": 192,
          "midi": 49,
          "name": "C#3",
          "ticks": 123072,
          "time": 142.444302,
          "velocity": 0.3937007874015748
        },
        {
          "duration": 0.22222200000001635,
          "durationTicks": 192,
          "midi": 37,
          "name": "C#2",
          "ticks": 123072,
          "time": 142.444302,
          "velocity": 0.3937007874015748
        },
        {
          "duration": 0.11111099999999396,
          "durationTicks": 96,
          "midi": 25,
          "name": "C#1",
          "ticks": 123264,
          "time": 142.666524,
          "velocity": 0.3937007874015748
        },
        {
          "duration": 0.11111099999999396,
          "durationTicks": 96,
          "midi": 37,
          "name": "C#2",
          "ticks": 123264,
          "time": 142.666524,
          "velocity": 0.3937007874015748
        },
        {
          "duration": 0.11111099999999396,
          "durationTicks": 96,
          "midi": 49,
          "name": "C#3",
          "ticks": 123264,
          "time": 142.666524,
          "velocity": 0.3937007874015748
        },
        {
          "duration": 0.11111099999999396,
          "durationTicks": 96,
          "midi": 49,
          "name": "C#3",
          "ticks": 123360,
          "time": 142.777635,
          "velocity": 0.3937007874015748
        },
        {
          "duration": 0.11111099999999396,
          "durationTicks": 96,
          "midi": 25,
          "name": "C#1",
          "ticks": 123360,
          "time": 142.777635,
          "velocity": 0.3937007874015748
        },
        {
          "duration": 0.11111099999999396,
          "durationTicks": 96,
          "midi": 37,
          "name": "C#2",
          "ticks": 123360,
          "time": 142.777635,
          "velocity": 0.3937007874015748
        },
        {
          "duration": 0.11111099999999396,
          "durationTicks": 96,
          "midi": 49,
          "name": "C#3",
          "ticks": 123456,
          "time": 142.888746,
          "velocity": 0.3937007874015748
        },
        {
          "duration": 0.11111099999999396,
          "durationTicks": 96,
          "midi": 25,
          "name": "C#1",
          "ticks": 123456,
          "time": 142.888746,
          "velocity": 0.3937007874015748
        },
        {
          "duration": 0.11111099999999396,
          "durationTicks": 96,
          "midi": 37,
          "name": "C#2",
          "ticks": 123456,
          "time": 142.888746,
          "velocity": 0.3937007874015748
        },
        {
          "duration": 0.22222200000001635,
          "durationTicks": 192,
          "midi": 25,
          "name": "C#1",
          "ticks": 123552,
          "time": 142.999857,
          "velocity": 0.3937007874015748
        },
        {
          "duration": 0.22222200000001635,
          "durationTicks": 192,
          "midi": 49,
          "name": "C#3",
          "ticks": 123552,
          "time": 142.999857,
          "velocity": 0.3937007874015748
        },
        {
          "duration": 0.22222200000001635,
          "durationTicks": 192,
          "midi": 37,
          "name": "C#2",
          "ticks": 123552,
          "time": 142.999857,
          "velocity": 0.3937007874015748
        },
        {
          "duration": 0.22222199999998793,
          "durationTicks": 192,
          "midi": 25,
          "name": "C#1",
          "ticks": 123744,
          "time": 143.222079,
          "velocity": 0.3937007874015748
        },
        {
          "duration": 0.22222199999998793,
          "durationTicks": 192,
          "midi": 37,
          "name": "C#2",
          "ticks": 123744,
          "time": 143.222079,
          "velocity": 0.3937007874015748
        },
        {
          "duration": 0.22222199999998793,
          "durationTicks": 192,
          "midi": 49,
          "name": "C#3",
          "ticks": 123744,
          "time": 143.222079,
          "velocity": 0.3937007874015748
        },
        {
          "duration": 0.11111099999999396,
          "durationTicks": 96,
          "midi": 37,
          "name": "C#2",
          "ticks": 123936,
          "time": 143.444301,
          "velocity": 0.3937007874015748
        },
        {
          "duration": 0.11111099999999396,
          "durationTicks": 96,
          "midi": 25,
          "name": "C#1",
          "ticks": 123936,
          "time": 143.444301,
          "velocity": 0.3937007874015748
        },
        {
          "duration": 0.11111099999999396,
          "durationTicks": 96,
          "midi": 49,
          "name": "C#3",
          "ticks": 123936,
          "time": 143.444301,
          "velocity": 0.3937007874015748
        },
        {
          "duration": 0.22222200000001635,
          "durationTicks": 192,
          "midi": 25,
          "name": "C#1",
          "ticks": 124032,
          "time": 143.555412,
          "velocity": 0.3937007874015748
        },
        {
          "duration": 0.22222200000001635,
          "durationTicks": 192,
          "midi": 37,
          "name": "C#2",
          "ticks": 124032,
          "time": 143.555412,
          "velocity": 0.3937007874015748
        },
        {
          "duration": 0.22222200000001635,
          "durationTicks": 192,
          "midi": 49,
          "name": "C#3",
          "ticks": 124032,
          "time": 143.555412,
          "velocity": 0.3937007874015748
        },
        {
          "duration": 0.22222199999998793,
          "durationTicks": 192,
          "midi": 25,
          "name": "C#1",
          "ticks": 124224,
          "time": 143.777634,
          "velocity": 0.3937007874015748
        },
        {
          "duration": 0.22222199999998793,
          "durationTicks": 192,
          "midi": 37,
          "name": "C#2",
          "ticks": 124224,
          "time": 143.777634,
          "velocity": 0.3937007874015748
        },
        {
          "duration": 0.22222200000001635,
          "durationTicks": 192,
          "midi": 49,
          "name": "C#3",
          "ticks": 124416,
          "time": 143.999856,
          "velocity": 0.3937007874015748
        },
        {
          "duration": 0.22222200000001635,
          "durationTicks": 192,
          "midi": 37,
          "name": "C#2",
          "ticks": 124416,
          "time": 143.999856,
          "velocity": 0.3937007874015748
        },
        {
          "duration": 0.22222200000001635,
          "durationTicks": 192,
          "midi": 25,
          "name": "C#1",
          "ticks": 124416,
          "time": 143.999856,
          "velocity": 0.3937007874015748
        },
        {
          "duration": 0.22222199999998793,
          "durationTicks": 192,
          "midi": 25,
          "name": "C#1",
          "ticks": 124608,
          "time": 144.222078,
          "velocity": 0.3937007874015748
        },
        {
          "duration": 0.22222199999998793,
          "durationTicks": 192,
          "midi": 49,
          "name": "C#3",
          "ticks": 124608,
          "time": 144.222078,
          "velocity": 0.3937007874015748
        },
        {
          "duration": 0.22222199999998793,
          "durationTicks": 192,
          "midi": 37,
          "name": "C#2",
          "ticks": 124608,
          "time": 144.222078,
          "velocity": 0.3937007874015748
        },
        {
          "duration": 0.11111099999999396,
          "durationTicks": 96,
          "midi": 37,
          "name": "C#2",
          "ticks": 124800,
          "time": 144.4443,
          "velocity": 0.3937007874015748
        },
        {
          "duration": 0.11111099999999396,
          "durationTicks": 96,
          "midi": 49,
          "name": "C#3",
          "ticks": 124800,
          "time": 144.4443,
          "velocity": 0.3937007874015748
        },
        {
          "duration": 0.11111099999999396,
          "durationTicks": 96,
          "midi": 25,
          "name": "C#1",
          "ticks": 124800,
          "time": 144.4443,
          "velocity": 0.3937007874015748
        },
        {
          "duration": 0.11111100000002239,
          "durationTicks": 96,
          "midi": 25,
          "name": "C#1",
          "ticks": 124896,
          "time": 144.555411,
          "velocity": 0.3937007874015748
        },
        {
          "duration": 0.11111100000002239,
          "durationTicks": 96,
          "midi": 37,
          "name": "C#2",
          "ticks": 124896,
          "time": 144.555411,
          "velocity": 0.3937007874015748
        },
        {
          "duration": 0.11111100000002239,
          "durationTicks": 96,
          "midi": 49,
          "name": "C#3",
          "ticks": 124896,
          "time": 144.555411,
          "velocity": 0.3937007874015748
        },
        {
          "duration": 0.11111099999999396,
          "durationTicks": 96,
          "midi": 25,
          "name": "C#1",
          "ticks": 124992,
          "time": 144.66652200000001,
          "velocity": 0.3937007874015748
        },
        {
          "duration": 0.11111099999999396,
          "durationTicks": 96,
          "midi": 49,
          "name": "C#3",
          "ticks": 124992,
          "time": 144.66652200000001,
          "velocity": 0.3937007874015748
        },
        {
          "duration": 0.11111099999999396,
          "durationTicks": 96,
          "midi": 37,
          "name": "C#2",
          "ticks": 124992,
          "time": 144.66652200000001,
          "velocity": 0.3937007874015748
        },
        {
          "duration": 0.3333329999999819,
          "durationTicks": 288,
          "midi": 25,
          "name": "C#1",
          "ticks": 125088,
          "time": 144.777633,
          "velocity": 0.3937007874015748
        },
        {
          "duration": 0.3333329999999819,
          "durationTicks": 288,
          "midi": 37,
          "name": "C#2",
          "ticks": 125088,
          "time": 144.777633,
          "velocity": 0.3937007874015748
        },
        {
          "duration": 0.3333329999999819,
          "durationTicks": 288,
          "midi": 49,
          "name": "C#3",
          "ticks": 125088,
          "time": 144.777633,
          "velocity": 0.3937007874015748
        },
        {
          "duration": 0.22222200000001635,
          "durationTicks": 192,
          "midi": 45,
          "name": "A2",
          "ticks": 125376,
          "time": 145.110966,
          "velocity": 0.3937007874015748
        },
        {
          "duration": 0.22222200000001635,
          "durationTicks": 192,
          "midi": 57,
          "name": "A3",
          "ticks": 125376,
          "time": 145.110966,
          "velocity": 0.3937007874015748
        },
        {
          "duration": 0.22222200000001635,
          "durationTicks": 192,
          "midi": 33,
          "name": "A1",
          "ticks": 125376,
          "time": 145.110966,
          "velocity": 0.3937007874015748
        },
        {
          "duration": 0.22222199999998793,
          "durationTicks": 192,
          "midi": 32,
          "name": "G#1",
          "ticks": 125568,
          "time": 145.333188,
          "velocity": 0.3937007874015748
        },
        {
          "duration": 0.22222199999998793,
          "durationTicks": 192,
          "midi": 44,
          "name": "G#2",
          "ticks": 125568,
          "time": 145.333188,
          "velocity": 0.3937007874015748
        },
        {
          "duration": 0.22222199999998793,
          "durationTicks": 192,
          "midi": 56,
          "name": "G#3",
          "ticks": 125568,
          "time": 145.333188,
          "velocity": 0.3937007874015748
        },
        {
          "duration": 0.4444440000000043,
          "durationTicks": 384,
          "midi": 54,
          "name": "F#3",
          "ticks": 125760,
          "time": 145.55541,
          "velocity": 0.3937007874015748
        },
        {
          "duration": 0.4444440000000043,
          "durationTicks": 384,
          "midi": 42,
          "name": "F#2",
          "ticks": 125760,
          "time": 145.55541,
          "velocity": 0.3937007874015748
        },
        {
          "duration": 0.4444440000000043,
          "durationTicks": 384,
          "midi": 30,
          "name": "F#1",
          "ticks": 125760,
          "time": 145.55541,
          "velocity": 0.3937007874015748
        },
        {
          "duration": 0.22222200000001635,
          "durationTicks": 192,
          "midi": 30,
          "name": "F#1",
          "ticks": 126144,
          "time": 145.999854,
          "velocity": 0.3937007874015748
        },
        {
          "duration": 0.22222200000001635,
          "durationTicks": 192,
          "midi": 42,
          "name": "F#2",
          "ticks": 126144,
          "time": 145.999854,
          "velocity": 0.3937007874015748
        },
        {
          "duration": 0.22222200000001635,
          "durationTicks": 192,
          "midi": 54,
          "name": "F#3",
          "ticks": 126144,
          "time": 145.999854,
          "velocity": 0.3937007874015748
        },
        {
          "duration": 0.11111099999999396,
          "durationTicks": 96,
          "midi": 42,
          "name": "F#2",
          "ticks": 126336,
          "time": 146.22207600000002,
          "velocity": 0.3937007874015748
        },
        {
          "duration": 0.11111099999999396,
          "durationTicks": 96,
          "midi": 54,
          "name": "F#3",
          "ticks": 126336,
          "time": 146.22207600000002,
          "velocity": 0.3937007874015748
        },
        {
          "duration": 0.11111099999999396,
          "durationTicks": 96,
          "midi": 30,
          "name": "F#1",
          "ticks": 126336,
          "time": 146.22207600000002,
          "velocity": 0.3937007874015748
        },
        {
          "duration": 0.11111099999999396,
          "durationTicks": 96,
          "midi": 42,
          "name": "F#2",
          "ticks": 126432,
          "time": 146.333187,
          "velocity": 0.3937007874015748
        },
        {
          "duration": 0.11111099999999396,
          "durationTicks": 96,
          "midi": 30,
          "name": "F#1",
          "ticks": 126432,
          "time": 146.333187,
          "velocity": 0.3937007874015748
        },
        {
          "duration": 0.11111099999999396,
          "durationTicks": 96,
          "midi": 54,
          "name": "F#3",
          "ticks": 126432,
          "time": 146.333187,
          "velocity": 0.3937007874015748
        },
        {
          "duration": 0.11111099999999396,
          "durationTicks": 96,
          "midi": 54,
          "name": "F#3",
          "ticks": 126528,
          "time": 146.444298,
          "velocity": 0.3937007874015748
        },
        {
          "duration": 0.11111099999999396,
          "durationTicks": 96,
          "midi": 42,
          "name": "F#2",
          "ticks": 126528,
          "time": 146.444298,
          "velocity": 0.3937007874015748
        },
        {
          "duration": 0.11111099999999396,
          "durationTicks": 96,
          "midi": 30,
          "name": "F#1",
          "ticks": 126528,
          "time": 146.444298,
          "velocity": 0.3937007874015748
        },
        {
          "duration": 0.22222200000001635,
          "durationTicks": 192,
          "midi": 30,
          "name": "F#1",
          "ticks": 126624,
          "time": 146.555409,
          "velocity": 0.3937007874015748
        },
        {
          "duration": 0.22222200000001635,
          "durationTicks": 192,
          "midi": 42,
          "name": "F#2",
          "ticks": 126624,
          "time": 146.555409,
          "velocity": 0.3937007874015748
        },
        {
          "duration": 0.22222200000001635,
          "durationTicks": 192,
          "midi": 54,
          "name": "F#3",
          "ticks": 126624,
          "time": 146.555409,
          "velocity": 0.3937007874015748
        },
        {
          "duration": 0.22222199999998793,
          "durationTicks": 192,
          "midi": 42,
          "name": "F#2",
          "ticks": 126816,
          "time": 146.777631,
          "velocity": 0.3937007874015748
        },
        {
          "duration": 0.22222199999998793,
          "durationTicks": 192,
          "midi": 54,
          "name": "F#3",
          "ticks": 126816,
          "time": 146.777631,
          "velocity": 0.3937007874015748
        },
        {
          "duration": 0.22222199999998793,
          "durationTicks": 192,
          "midi": 30,
          "name": "F#1",
          "ticks": 126816,
          "time": 146.777631,
          "velocity": 0.3937007874015748
        },
        {
          "duration": 0.11111099999999396,
          "durationTicks": 96,
          "midi": 30,
          "name": "F#1",
          "ticks": 127008,
          "time": 146.999853,
          "velocity": 0.3937007874015748
        },
        {
          "duration": 0.11111099999999396,
          "durationTicks": 96,
          "midi": 42,
          "name": "F#2",
          "ticks": 127008,
          "time": 146.999853,
          "velocity": 0.3937007874015748
        },
        {
          "duration": 0.11111099999999396,
          "durationTicks": 96,
          "midi": 54,
          "name": "F#3",
          "ticks": 127008,
          "time": 146.999853,
          "velocity": 0.3937007874015748
        },
        {
          "duration": 0.22222200000001635,
          "durationTicks": 192,
          "midi": 42,
          "name": "F#2",
          "ticks": 127104,
          "time": 147.110964,
          "velocity": 0.3937007874015748
        },
        {
          "duration": 0.22222200000001635,
          "durationTicks": 192,
          "midi": 54,
          "name": "F#3",
          "ticks": 127104,
          "time": 147.110964,
          "velocity": 0.3937007874015748
        },
        {
          "duration": 0.22222200000001635,
          "durationTicks": 192,
          "midi": 30,
          "name": "F#1",
          "ticks": 127104,
          "time": 147.110964,
          "velocity": 0.3937007874015748
        },
        {
          "duration": 0.22222199999998793,
          "durationTicks": 192,
          "midi": 54,
          "name": "F#3",
          "ticks": 127296,
          "time": 147.333186,
          "velocity": 0.3937007874015748
        },
        {
          "duration": 0.22222199999998793,
          "durationTicks": 192,
          "midi": 42,
          "name": "F#2",
          "ticks": 127296,
          "time": 147.333186,
          "velocity": 0.3937007874015748
        },
        {
          "duration": 0.22222199999998793,
          "durationTicks": 192,
          "midi": 30,
          "name": "F#1",
          "ticks": 127488,
          "time": 147.555408,
          "velocity": 0.3937007874015748
        },
        {
          "duration": 0.22222199999998793,
          "durationTicks": 192,
          "midi": 54,
          "name": "F#3",
          "ticks": 127488,
          "time": 147.555408,
          "velocity": 0.3937007874015748
        },
        {
          "duration": 0.22222199999998793,
          "durationTicks": 192,
          "midi": 42,
          "name": "F#2",
          "ticks": 127488,
          "time": 147.555408,
          "velocity": 0.3937007874015748
        },
        {
          "duration": 0.22222200000001635,
          "durationTicks": 192,
          "midi": 54,
          "name": "F#3",
          "ticks": 127680,
          "time": 147.77763,
          "velocity": 0.3937007874015748
        },
        {
          "duration": 0.22222200000001635,
          "durationTicks": 192,
          "midi": 42,
          "name": "F#2",
          "ticks": 127680,
          "time": 147.77763,
          "velocity": 0.3937007874015748
        },
        {
          "duration": 0.22222200000001635,
          "durationTicks": 192,
          "midi": 30,
          "name": "F#1",
          "ticks": 127680,
          "time": 147.77763,
          "velocity": 0.3937007874015748
        },
        {
          "duration": 0.11111099999999396,
          "durationTicks": 96,
          "midi": 30,
          "name": "F#1",
          "ticks": 127872,
          "time": 147.999852,
          "velocity": 0.3937007874015748
        },
        {
          "duration": 0.11111099999999396,
          "durationTicks": 96,
          "midi": 42,
          "name": "F#2",
          "ticks": 127872,
          "time": 147.999852,
          "velocity": 0.3937007874015748
        },
        {
          "duration": 0.11111099999999396,
          "durationTicks": 96,
          "midi": 54,
          "name": "F#3",
          "ticks": 127872,
          "time": 147.999852,
          "velocity": 0.3937007874015748
        },
        {
          "duration": 0.11111099999999396,
          "durationTicks": 96,
          "midi": 30,
          "name": "F#1",
          "ticks": 127968,
          "time": 148.110963,
          "velocity": 0.3937007874015748
        },
        {
          "duration": 0.11111099999999396,
          "durationTicks": 96,
          "midi": 54,
          "name": "F#3",
          "ticks": 127968,
          "time": 148.110963,
          "velocity": 0.3937007874015748
        },
        {
          "duration": 0.11111099999999396,
          "durationTicks": 96,
          "midi": 42,
          "name": "F#2",
          "ticks": 127968,
          "time": 148.110963,
          "velocity": 0.3937007874015748
        },
        {
          "duration": 0.11111100000002239,
          "durationTicks": 96,
          "midi": 30,
          "name": "F#1",
          "ticks": 128064,
          "time": 148.222074,
          "velocity": 0.3937007874015748
        },
        {
          "duration": 0.11111100000002239,
          "durationTicks": 96,
          "midi": 42,
          "name": "F#2",
          "ticks": 128064,
          "time": 148.222074,
          "velocity": 0.3937007874015748
        },
        {
          "duration": 0.11111100000002239,
          "durationTicks": 96,
          "midi": 54,
          "name": "F#3",
          "ticks": 128064,
          "time": 148.222074,
          "velocity": 0.3937007874015748
        },
        {
          "duration": 0.22222199999998793,
          "durationTicks": 192,
          "midi": 42,
          "name": "F#2",
          "ticks": 128160,
          "time": 148.33318500000001,
          "velocity": 0.3937007874015748
        },
        {
          "duration": 0.22222199999998793,
          "durationTicks": 192,
          "midi": 54,
          "name": "F#3",
          "ticks": 128160,
          "time": 148.33318500000001,
          "velocity": 0.3937007874015748
        },
        {
          "duration": 0.22222199999998793,
          "durationTicks": 192,
          "midi": 30,
          "name": "F#1",
          "ticks": 128160,
          "time": 148.33318500000001,
          "velocity": 0.3937007874015748
        },
        {
          "duration": 0.22222199999998793,
          "durationTicks": 192,
          "midi": 54,
          "name": "F#3",
          "ticks": 128352,
          "time": 148.555407,
          "velocity": 0.3937007874015748
        },
        {
          "duration": 0.22222199999998793,
          "durationTicks": 192,
          "midi": 42,
          "name": "F#2",
          "ticks": 128352,
          "time": 148.555407,
          "velocity": 0.3937007874015748
        },
        {
          "duration": 0.22222199999998793,
          "durationTicks": 192,
          "midi": 30,
          "name": "F#1",
          "ticks": 128352,
          "time": 148.555407,
          "velocity": 0.3937007874015748
        },
        {
          "duration": 0.11111100000002239,
          "durationTicks": 96,
          "midi": 54,
          "name": "F#3",
          "ticks": 128544,
          "time": 148.777629,
          "velocity": 0.3937007874015748
        },
        {
          "duration": 0.11111100000002239,
          "durationTicks": 96,
          "midi": 30,
          "name": "F#1",
          "ticks": 128544,
          "time": 148.777629,
          "velocity": 0.3937007874015748
        },
        {
          "duration": 0.11111100000002239,
          "durationTicks": 96,
          "midi": 42,
          "name": "F#2",
          "ticks": 128544,
          "time": 148.777629,
          "velocity": 0.3937007874015748
        },
        {
          "duration": 0.22222199999998793,
          "durationTicks": 192,
          "midi": 30,
          "name": "F#1",
          "ticks": 128640,
          "time": 148.88874,
          "velocity": 0.3937007874015748
        },
        {
          "duration": 0.22222199999998793,
          "durationTicks": 192,
          "midi": 42,
          "name": "F#2",
          "ticks": 128640,
          "time": 148.88874,
          "velocity": 0.3937007874015748
        },
        {
          "duration": 0.22222199999998793,
          "durationTicks": 192,
          "midi": 54,
          "name": "F#3",
          "ticks": 128640,
          "time": 148.88874,
          "velocity": 0.3937007874015748
        },
        {
          "duration": 0.22222199999998793,
          "durationTicks": 192,
          "midi": 42,
          "name": "F#2",
          "ticks": 128832,
          "time": 149.110962,
          "velocity": 0.3937007874015748
        },
        {
          "duration": 0.22222199999998793,
          "durationTicks": 192,
          "midi": 54,
          "name": "F#3",
          "ticks": 128832,
          "time": 149.110962,
          "velocity": 0.3937007874015748
        },
        {
          "duration": 0.22222200000001635,
          "durationTicks": 192,
          "midi": 52,
          "name": "E3",
          "ticks": 129024,
          "time": 149.333184,
          "velocity": 0.3937007874015748
        },
        {
          "duration": 0.22222200000001635,
          "durationTicks": 192,
          "midi": 40,
          "name": "E2",
          "ticks": 129024,
          "time": 149.333184,
          "velocity": 0.3937007874015748
        },
        {
          "duration": 0.22222200000001635,
          "durationTicks": 192,
          "midi": 28,
          "name": "E1",
          "ticks": 129024,
          "time": 149.333184,
          "velocity": 0.3937007874015748
        },
        {
          "duration": 0.22222199999998793,
          "durationTicks": 192,
          "midi": 40,
          "name": "E2",
          "ticks": 129216,
          "time": 149.555406,
          "velocity": 0.3937007874015748
        },
        {
          "duration": 0.22222199999998793,
          "durationTicks": 192,
          "midi": 28,
          "name": "E1",
          "ticks": 129216,
          "time": 149.555406,
          "velocity": 0.3937007874015748
        },
        {
          "duration": 0.22222199999998793,
          "durationTicks": 192,
          "midi": 52,
          "name": "E3",
          "ticks": 129216,
          "time": 149.555406,
          "velocity": 0.3937007874015748
        },
        {
          "duration": 0.11111100000002239,
          "durationTicks": 96,
          "midi": 40,
          "name": "E2",
          "ticks": 129408,
          "time": 149.777628,
          "velocity": 0.3937007874015748
        },
        {
          "duration": 0.11111100000002239,
          "durationTicks": 96,
          "midi": 52,
          "name": "E3",
          "ticks": 129408,
          "time": 149.777628,
          "velocity": 0.3937007874015748
        },
        {
          "duration": 0.11111100000002239,
          "durationTicks": 96,
          "midi": 28,
          "name": "E1",
          "ticks": 129408,
          "time": 149.777628,
          "velocity": 0.3937007874015748
        },
        {
          "duration": 0.11111099999999396,
          "durationTicks": 96,
          "midi": 52,
          "name": "E3",
          "ticks": 129504,
          "time": 149.88873900000002,
          "velocity": 0.3937007874015748
        },
        {
          "duration": 0.11111099999999396,
          "durationTicks": 96,
          "midi": 28,
          "name": "E1",
          "ticks": 129504,
          "time": 149.88873900000002,
          "velocity": 0.3937007874015748
        },
        {
          "duration": 0.11111099999999396,
          "durationTicks": 96,
          "midi": 40,
          "name": "E2",
          "ticks": 129504,
          "time": 149.88873900000002,
          "velocity": 0.3937007874015748
        },
        {
          "duration": 0.11111099999999396,
          "durationTicks": 96,
          "midi": 52,
          "name": "E3",
          "ticks": 129600,
          "time": 149.99985,
          "velocity": 0.3937007874015748
        },
        {
          "duration": 0.11111099999999396,
          "durationTicks": 96,
          "midi": 40,
          "name": "E2",
          "ticks": 129600,
          "time": 149.99985,
          "velocity": 0.3937007874015748
        },
        {
          "duration": 0.11111099999999396,
          "durationTicks": 96,
          "midi": 28,
          "name": "E1",
          "ticks": 129600,
          "time": 149.99985,
          "velocity": 0.3937007874015748
        },
        {
          "duration": 0.22222199999998793,
          "durationTicks": 192,
          "midi": 28,
          "name": "E1",
          "ticks": 129696,
          "time": 150.110961,
          "velocity": 0.3937007874015748
        },
        {
          "duration": 0.22222199999998793,
          "durationTicks": 192,
          "midi": 40,
          "name": "E2",
          "ticks": 129696,
          "time": 150.110961,
          "velocity": 0.3937007874015748
        },
        {
          "duration": 0.22222199999998793,
          "durationTicks": 192,
          "midi": 52,
          "name": "E3",
          "ticks": 129696,
          "time": 150.110961,
          "velocity": 0.3937007874015748
        },
        {
          "duration": 0.22222200000001635,
          "durationTicks": 192,
          "midi": 52,
          "name": "E3",
          "ticks": 129888,
          "time": 150.333183,
          "velocity": 0.3937007874015748
        },
        {
          "duration": 0.22222200000001635,
          "durationTicks": 192,
          "midi": 28,
          "name": "E1",
          "ticks": 129888,
          "time": 150.333183,
          "velocity": 0.3937007874015748
        },
        {
          "duration": 0.22222200000001635,
          "durationTicks": 192,
          "midi": 40,
          "name": "E2",
          "ticks": 129888,
          "time": 150.333183,
          "velocity": 0.3937007874015748
        },
        {
          "duration": 0.11111099999999396,
          "durationTicks": 96,
          "midi": 28,
          "name": "E1",
          "ticks": 130080,
          "time": 150.555405,
          "velocity": 0.3937007874015748
        },
        {
          "duration": 0.11111099999999396,
          "durationTicks": 96,
          "midi": 52,
          "name": "E3",
          "ticks": 130080,
          "time": 150.555405,
          "velocity": 0.3937007874015748
        },
        {
          "duration": 0.11111099999999396,
          "durationTicks": 96,
          "midi": 40,
          "name": "E2",
          "ticks": 130080,
          "time": 150.555405,
          "velocity": 0.3937007874015748
        },
        {
          "duration": 0.22222199999998793,
          "durationTicks": 192,
          "midi": 40,
          "name": "E2",
          "ticks": 130176,
          "time": 150.666516,
          "velocity": 0.3937007874015748
        },
        {
          "duration": 0.22222199999998793,
          "durationTicks": 192,
          "midi": 52,
          "name": "E3",
          "ticks": 130176,
          "time": 150.666516,
          "velocity": 0.3937007874015748
        },
        {
          "duration": 0.22222199999998793,
          "durationTicks": 192,
          "midi": 28,
          "name": "E1",
          "ticks": 130176,
          "time": 150.666516,
          "velocity": 0.3937007874015748
        },
        {
          "duration": 0.22222200000001635,
          "durationTicks": 192,
          "midi": 40,
          "name": "E2",
          "ticks": 130368,
          "time": 150.888738,
          "velocity": 0.3937007874015748
        },
        {
          "duration": 0.22222200000001635,
          "durationTicks": 192,
          "midi": 52,
          "name": "E3",
          "ticks": 130368,
          "time": 150.888738,
          "velocity": 0.3937007874015748
        },
        {
          "duration": 0.22222199999998793,
          "durationTicks": 192,
          "midi": 27,
          "name": "D#1",
          "ticks": 130560,
          "time": 151.11096,
          "velocity": 0.3937007874015748
        },
        {
          "duration": 0.22222199999998793,
          "durationTicks": 192,
          "midi": 39,
          "name": "D#2",
          "ticks": 130560,
          "time": 151.11096,
          "velocity": 0.3937007874015748
        },
        {
          "duration": 0.22222199999998793,
          "durationTicks": 192,
          "midi": 51,
          "name": "D#3",
          "ticks": 130560,
          "time": 151.11096,
          "velocity": 0.3937007874015748
        },
        {
          "duration": 0.22222200000001635,
          "durationTicks": 192,
          "midi": 51,
          "name": "D#3",
          "ticks": 130752,
          "time": 151.333182,
          "velocity": 0.3937007874015748
        },
        {
          "duration": 0.22222200000001635,
          "durationTicks": 192,
          "midi": 39,
          "name": "D#2",
          "ticks": 130752,
          "time": 151.333182,
          "velocity": 0.3937007874015748
        },
        {
          "duration": 0.22222200000001635,
          "durationTicks": 192,
          "midi": 27,
          "name": "D#1",
          "ticks": 130752,
          "time": 151.333182,
          "velocity": 0.3937007874015748
        },
        {
          "duration": 0.11111099999999396,
          "durationTicks": 96,
          "midi": 27,
          "name": "D#1",
          "ticks": 130944,
          "time": 151.555404,
          "velocity": 0.3937007874015748
        },
        {
          "duration": 0.11111099999999396,
          "durationTicks": 96,
          "midi": 39,
          "name": "D#2",
          "ticks": 130944,
          "time": 151.555404,
          "velocity": 0.3937007874015748
        },
        {
          "duration": 0.11111099999999396,
          "durationTicks": 96,
          "midi": 51,
          "name": "D#3",
          "ticks": 130944,
          "time": 151.555404,
          "velocity": 0.3937007874015748
        },
        {
          "duration": 0.11111099999999396,
          "durationTicks": 96,
          "midi": 39,
          "name": "D#2",
          "ticks": 131040,
          "time": 151.666515,
          "velocity": 0.3937007874015748
        },
        {
          "duration": 0.11111099999999396,
          "durationTicks": 96,
          "midi": 51,
          "name": "D#3",
          "ticks": 131040,
          "time": 151.666515,
          "velocity": 0.3937007874015748
        },
        {
          "duration": 0.11111099999999396,
          "durationTicks": 96,
          "midi": 27,
          "name": "D#1",
          "ticks": 131040,
          "time": 151.666515,
          "velocity": 0.3937007874015748
        },
        {
          "duration": 0.11111099999999396,
          "durationTicks": 96,
          "midi": 27,
          "name": "D#1",
          "ticks": 131136,
          "time": 151.777626,
          "velocity": 0.3937007874015748
        },
        {
          "duration": 0.11111099999999396,
          "durationTicks": 96,
          "midi": 39,
          "name": "D#2",
          "ticks": 131136,
          "time": 151.777626,
          "velocity": 0.3937007874015748
        },
        {
          "duration": 0.11111099999999396,
          "durationTicks": 96,
          "midi": 51,
          "name": "D#3",
          "ticks": 131136,
          "time": 151.777626,
          "velocity": 0.3937007874015748
        },
        {
          "duration": 0.22222200000001635,
          "durationTicks": 192,
          "midi": 51,
          "name": "D#3",
          "ticks": 131232,
          "time": 151.888737,
          "velocity": 0.3937007874015748
        },
        {
          "duration": 0.22222200000001635,
          "durationTicks": 192,
          "midi": 39,
          "name": "D#2",
          "ticks": 131232,
          "time": 151.888737,
          "velocity": 0.3937007874015748
        },
        {
          "duration": 0.22222200000001635,
          "durationTicks": 192,
          "midi": 27,
          "name": "D#1",
          "ticks": 131232,
          "time": 151.888737,
          "velocity": 0.3937007874015748
        },
        {
          "duration": 0.22222199999998793,
          "durationTicks": 192,
          "midi": 27,
          "name": "D#1",
          "ticks": 131424,
          "time": 152.110959,
          "velocity": 0.3937007874015748
        },
        {
          "duration": 0.22222199999998793,
          "durationTicks": 192,
          "midi": 51,
          "name": "D#3",
          "ticks": 131424,
          "time": 152.110959,
          "velocity": 0.3937007874015748
        },
        {
          "duration": 0.22222199999998793,
          "durationTicks": 192,
          "midi": 39,
          "name": "D#2",
          "ticks": 131424,
          "time": 152.110959,
          "velocity": 0.3937007874015748
        },
        {
          "duration": 0.11111099999999396,
          "durationTicks": 96,
          "midi": 39,
          "name": "D#2",
          "ticks": 131616,
          "time": 152.333181,
          "velocity": 0.3937007874015748
        },
        {
          "duration": 0.11111099999999396,
          "durationTicks": 96,
          "midi": 51,
          "name": "D#3",
          "ticks": 131616,
          "time": 152.333181,
          "velocity": 0.3937007874015748
        },
        {
          "duration": 0.11111099999999396,
          "durationTicks": 96,
          "midi": 27,
          "name": "D#1",
          "ticks": 131616,
          "time": 152.333181,
          "velocity": 0.3937007874015748
        },
        {
          "duration": 0.22222200000001635,
          "durationTicks": 192,
          "midi": 27,
          "name": "D#1",
          "ticks": 131712,
          "time": 152.444292,
          "velocity": 0.3937007874015748
        },
        {
          "duration": 0.22222200000001635,
          "durationTicks": 192,
          "midi": 39,
          "name": "D#2",
          "ticks": 131712,
          "time": 152.444292,
          "velocity": 0.3937007874015748
        },
        {
          "duration": 0.22222200000001635,
          "durationTicks": 192,
          "midi": 51,
          "name": "D#3",
          "ticks": 131712,
          "time": 152.444292,
          "velocity": 0.3937007874015748
        },
        {
          "duration": 0.22222199999998793,
          "durationTicks": 192,
          "midi": 39,
          "name": "D#2",
          "ticks": 131904,
          "time": 152.666514,
          "velocity": 0.3937007874015748
        },
        {
          "duration": 0.22222199999998793,
          "durationTicks": 192,
          "midi": 51,
          "name": "D#3",
          "ticks": 131904,
          "time": 152.666514,
          "velocity": 0.3937007874015748
        },
        {
          "duration": 0.22222200000001635,
          "durationTicks": 192,
          "midi": 40,
          "name": "E2",
          "ticks": 132096,
          "time": 152.888736,
          "velocity": 0.3937007874015748
        },
        {
          "duration": 0.22222200000001635,
          "durationTicks": 192,
          "midi": 28,
          "name": "E1",
          "ticks": 132096,
          "time": 152.888736,
          "velocity": 0.3937007874015748
        },
        {
          "duration": 0.22222200000001635,
          "durationTicks": 192,
          "midi": 52,
          "name": "E3",
          "ticks": 132096,
          "time": 152.888736,
          "velocity": 0.3937007874015748
        },
        {
          "duration": 0.22222199999998793,
          "durationTicks": 192,
          "midi": 28,
          "name": "E1",
          "ticks": 132288,
          "time": 153.110958,
          "velocity": 0.3937007874015748
        },
        {
          "duration": 0.22222199999998793,
          "durationTicks": 192,
          "midi": 40,
          "name": "E2",
          "ticks": 132288,
          "time": 153.110958,
          "velocity": 0.3937007874015748
        },
        {
          "duration": 0.22222199999998793,
          "durationTicks": 192,
          "midi": 52,
          "name": "E3",
          "ticks": 132288,
          "time": 153.110958,
          "velocity": 0.3937007874015748
        },
        {
          "duration": 0.11111099999999396,
          "durationTicks": 96,
          "midi": 40,
          "name": "E2",
          "ticks": 132480,
          "time": 153.33318,
          "velocity": 0.3937007874015748
        },
        {
          "duration": 0.11111099999999396,
          "durationTicks": 96,
          "midi": 52,
          "name": "E3",
          "ticks": 132480,
          "time": 153.33318,
          "velocity": 0.3937007874015748
        },
        {
          "duration": 0.11111099999999396,
          "durationTicks": 96,
          "midi": 28,
          "name": "E1",
          "ticks": 132480,
          "time": 153.33318,
          "velocity": 0.3937007874015748
        },
        {
          "duration": 0.11111100000002239,
          "durationTicks": 96,
          "midi": 52,
          "name": "E3",
          "ticks": 132576,
          "time": 153.444291,
          "velocity": 0.3937007874015748
        },
        {
          "duration": 0.11111100000002239,
          "durationTicks": 96,
          "midi": 28,
          "name": "E1",
          "ticks": 132576,
          "time": 153.444291,
          "velocity": 0.3937007874015748
        },
        {
          "duration": 0.11111100000002239,
          "durationTicks": 96,
          "midi": 40,
          "name": "E2",
          "ticks": 132576,
          "time": 153.444291,
          "velocity": 0.3937007874015748
        },
        {
          "duration": 0.11111099999999396,
          "durationTicks": 96,
          "midi": 28,
          "name": "E1",
          "ticks": 132672,
          "time": 153.55540200000002,
          "velocity": 0.3937007874015748
        },
        {
          "duration": 0.11111099999999396,
          "durationTicks": 96,
          "midi": 52,
          "name": "E3",
          "ticks": 132672,
          "time": 153.55540200000002,
          "velocity": 0.3937007874015748
        },
        {
          "duration": 0.11111099999999396,
          "durationTicks": 96,
          "midi": 40,
          "name": "E2",
          "ticks": 132672,
          "time": 153.55540200000002,
          "velocity": 0.3937007874015748
        },
        {
          "duration": 0.22222199999998793,
          "durationTicks": 192,
          "midi": 28,
          "name": "E1",
          "ticks": 132768,
          "time": 153.666513,
          "velocity": 0.3937007874015748
        },
        {
          "duration": 0.22222199999998793,
          "durationTicks": 192,
          "midi": 40,
          "name": "E2",
          "ticks": 132768,
          "time": 153.666513,
          "velocity": 0.3937007874015748
        },
        {
          "duration": 0.22222199999998793,
          "durationTicks": 192,
          "midi": 52,
          "name": "E3",
          "ticks": 132768,
          "time": 153.666513,
          "velocity": 0.3937007874015748
        },
        {
          "duration": 0.22222200000001635,
          "durationTicks": 192,
          "midi": 40,
          "name": "E2",
          "ticks": 132960,
          "time": 153.888735,
          "velocity": 0.3937007874015748
        },
        {
          "duration": 0.22222200000001635,
          "durationTicks": 192,
          "midi": 52,
          "name": "E3",
          "ticks": 132960,
          "time": 153.888735,
          "velocity": 0.3937007874015748
        },
        {
          "duration": 0.22222200000001635,
          "durationTicks": 192,
          "midi": 28,
          "name": "E1",
          "ticks": 132960,
          "time": 153.888735,
          "velocity": 0.3937007874015748
        },
        {
          "duration": 0.11111099999999396,
          "durationTicks": 96,
          "midi": 28,
          "name": "E1",
          "ticks": 133152,
          "time": 154.110957,
          "velocity": 0.3937007874015748
        },
        {
          "duration": 0.11111099999999396,
          "durationTicks": 96,
          "midi": 40,
          "name": "E2",
          "ticks": 133152,
          "time": 154.110957,
          "velocity": 0.3937007874015748
        },
        {
          "duration": 0.11111099999999396,
          "durationTicks": 96,
          "midi": 52,
          "name": "E3",
          "ticks": 133152,
          "time": 154.110957,
          "velocity": 0.3937007874015748
        },
        {
          "duration": 0.22222199999998793,
          "durationTicks": 192,
          "midi": 28,
          "name": "E1",
          "ticks": 133248,
          "time": 154.222068,
          "velocity": 0.3937007874015748
        },
        {
          "duration": 0.22222199999998793,
          "durationTicks": 192,
          "midi": 52,
          "name": "E3",
          "ticks": 133248,
          "time": 154.222068,
          "velocity": 0.3937007874015748
        },
        {
          "duration": 0.22222199999998793,
          "durationTicks": 192,
          "midi": 40,
          "name": "E2",
          "ticks": 133248,
          "time": 154.222068,
          "velocity": 0.3937007874015748
        },
        {
          "duration": 0.22222200000001635,
          "durationTicks": 192,
          "midi": 52,
          "name": "E3",
          "ticks": 133440,
          "time": 154.44429,
          "velocity": 0.3937007874015748
        },
        {
          "duration": 0.22222200000001635,
          "durationTicks": 192,
          "midi": 40,
          "name": "E2",
          "ticks": 133440,
          "time": 154.44429,
          "velocity": 0.3937007874015748
        },
        {
          "duration": 0.22222199999998793,
          "durationTicks": 192,
          "midi": 32,
          "name": "G#1",
          "ticks": 133632,
          "time": 154.666512,
          "velocity": 0.3937007874015748
        },
        {
          "duration": 0.22222199999998793,
          "durationTicks": 192,
          "midi": 44,
          "name": "G#2",
          "ticks": 133632,
          "time": 154.666512,
          "velocity": 0.3937007874015748
        },
        {
          "duration": 0.22222200000001635,
          "durationTicks": 192,
          "midi": 56,
          "name": "G#3",
          "ticks": 133824,
          "time": 154.888734,
          "velocity": 0.3937007874015748
        },
        {
          "duration": 0.22222200000001635,
          "durationTicks": 192,
          "midi": 32,
          "name": "G#1",
          "ticks": 133824,
          "time": 154.888734,
          "velocity": 0.3937007874015748
        },
        {
          "duration": 0.22222200000001635,
          "durationTicks": 192,
          "midi": 44,
          "name": "G#2",
          "ticks": 133824,
          "time": 154.888734,
          "velocity": 0.3937007874015748
        },
        {
          "duration": 0.11111099999999396,
          "durationTicks": 96,
          "midi": 32,
          "name": "G#1",
          "ticks": 134016,
          "time": 155.11095600000002,
          "velocity": 0.3937007874015748
        },
        {
          "duration": 0.11111099999999396,
          "durationTicks": 96,
          "midi": 44,
          "name": "G#2",
          "ticks": 134016,
          "time": 155.11095600000002,
          "velocity": 0.3937007874015748
        },
        {
          "duration": 0.11111099999999396,
          "durationTicks": 96,
          "midi": 56,
          "name": "G#3",
          "ticks": 134016,
          "time": 155.11095600000002,
          "velocity": 0.3937007874015748
        },
        {
          "duration": 0.11111099999999396,
          "durationTicks": 96,
          "midi": 56,
          "name": "G#3",
          "ticks": 134112,
          "time": 155.222067,
          "velocity": 0.3937007874015748
        },
        {
          "duration": 0.11111099999999396,
          "durationTicks": 96,
          "midi": 32,
          "name": "G#1",
          "ticks": 134112,
          "time": 155.222067,
          "velocity": 0.3937007874015748
        },
        {
          "duration": 0.11111099999999396,
          "durationTicks": 96,
          "midi": 44,
          "name": "G#2",
          "ticks": 134112,
          "time": 155.222067,
          "velocity": 0.3937007874015748
        },
        {
          "duration": 0.11111099999999396,
          "durationTicks": 96,
          "midi": 32,
          "name": "G#1",
          "ticks": 134208,
          "time": 155.333178,
          "velocity": 0.3937007874015748
        },
        {
          "duration": 0.11111099999999396,
          "durationTicks": 96,
          "midi": 44,
          "name": "G#2",
          "ticks": 134208,
          "time": 155.333178,
          "velocity": 0.3937007874015748
        },
        {
          "duration": 0.11111099999999396,
          "durationTicks": 96,
          "midi": 56,
          "name": "G#3",
          "ticks": 134208,
          "time": 155.333178,
          "velocity": 0.3937007874015748
        },
        {
          "duration": 0.22222200000001635,
          "durationTicks": 192,
          "midi": 56,
          "name": "G#3",
          "ticks": 134304,
          "time": 155.444289,
          "velocity": 0.3937007874015748
        },
        {
          "duration": 0.22222200000001635,
          "durationTicks": 192,
          "midi": 44,
          "name": "G#2",
          "ticks": 134304,
          "time": 155.444289,
          "velocity": 0.3937007874015748
        },
        {
          "duration": 0.22222200000001635,
          "durationTicks": 192,
          "midi": 32,
          "name": "G#1",
          "ticks": 134304,
          "time": 155.444289,
          "velocity": 0.3937007874015748
        },
        {
          "duration": 0.22222199999998793,
          "durationTicks": 192,
          "midi": 32,
          "name": "G#1",
          "ticks": 134496,
          "time": 155.666511,
          "velocity": 0.3937007874015748
        },
        {
          "duration": 0.22222199999998793,
          "durationTicks": 192,
          "midi": 44,
          "name": "G#2",
          "ticks": 134496,
          "time": 155.666511,
          "velocity": 0.3937007874015748
        },
        {
          "duration": 0.22222199999998793,
          "durationTicks": 192,
          "midi": 56,
          "name": "G#3",
          "ticks": 134496,
          "time": 155.666511,
          "velocity": 0.3937007874015748
        },
        {
          "duration": 0.11111099999999396,
          "durationTicks": 96,
          "midi": 32,
          "name": "G#1",
          "ticks": 134688,
          "time": 155.888733,
          "velocity": 0.3937007874015748
        },
        {
          "duration": 0.11111099999999396,
          "durationTicks": 96,
          "midi": 56,
          "name": "G#3",
          "ticks": 134688,
          "time": 155.888733,
          "velocity": 0.3937007874015748
        },
        {
          "duration": 0.11111099999999396,
          "durationTicks": 96,
          "midi": 44,
          "name": "G#2",
          "ticks": 134688,
          "time": 155.888733,
          "velocity": 0.3937007874015748
        },
        {
          "duration": 0.22222200000001635,
          "durationTicks": 192,
          "midi": 32,
          "name": "G#1",
          "ticks": 134784,
          "time": 155.999844,
          "velocity": 0.3937007874015748
        },
        {
          "duration": 0.22222200000001635,
          "durationTicks": 192,
          "midi": 44,
          "name": "G#2",
          "ticks": 134784,
          "time": 155.999844,
          "velocity": 0.3937007874015748
        },
        {
          "duration": 0.22222200000001635,
          "durationTicks": 192,
          "midi": 56,
          "name": "G#3",
          "ticks": 134784,
          "time": 155.999844,
          "velocity": 0.3937007874015748
        },
        {
          "duration": 0.22222199999998793,
          "durationTicks": 192,
          "midi": 44,
          "name": "G#2",
          "ticks": 134976,
          "time": 156.222066,
          "velocity": 0.3937007874015748
        },
        {
          "duration": 0.22222199999998793,
          "durationTicks": 192,
          "midi": 56,
          "name": "G#3",
          "ticks": 134976,
          "time": 156.222066,
          "velocity": 0.3937007874015748
        },
        {
          "duration": 0.22222199999998793,
          "durationTicks": 192,
          "midi": 60,
          "name": "C4",
          "ticks": 135168,
          "time": 156.444288,
          "velocity": 0.3937007874015748
        },
        {
          "duration": 0.22222199999998793,
          "durationTicks": 192,
          "midi": 36,
          "name": "C2",
          "ticks": 135168,
          "time": 156.444288,
          "velocity": 0.3937007874015748
        },
        {
          "duration": 0.22222199999998793,
          "durationTicks": 192,
          "midi": 48,
          "name": "C3",
          "ticks": 135168,
          "time": 156.444288,
          "velocity": 0.3937007874015748
        },
        {
          "duration": 0.22222200000001635,
          "durationTicks": 192,
          "midi": 36,
          "name": "C2",
          "ticks": 135360,
          "time": 156.66651,
          "velocity": 0.3937007874015748
        },
        {
          "duration": 0.22222200000001635,
          "durationTicks": 192,
          "midi": 48,
          "name": "C3",
          "ticks": 135360,
          "time": 156.66651,
          "velocity": 0.3937007874015748
        },
        {
          "duration": 0.22222200000001635,
          "durationTicks": 192,
          "midi": 60,
          "name": "C4",
          "ticks": 135360,
          "time": 156.66651,
          "velocity": 0.3937007874015748
        },
        {
          "duration": 0.11111099999999396,
          "durationTicks": 96,
          "midi": 48,
          "name": "C3",
          "ticks": 135552,
          "time": 156.888732,
          "velocity": 0.3937007874015748
        },
        {
          "duration": 0.11111099999999396,
          "durationTicks": 96,
          "midi": 60,
          "name": "C4",
          "ticks": 135552,
          "time": 156.888732,
          "velocity": 0.3937007874015748
        },
        {
          "duration": 0.11111099999999396,
          "durationTicks": 96,
          "midi": 36,
          "name": "C2",
          "ticks": 135552,
          "time": 156.888732,
          "velocity": 0.3937007874015748
        },
        {
          "duration": 0.11111099999999396,
          "durationTicks": 96,
          "midi": 36,
          "name": "C2",
          "ticks": 135648,
          "time": 156.999843,
          "velocity": 0.3937007874015748
        },
        {
          "duration": 0.11111099999999396,
          "durationTicks": 96,
          "midi": 60,
          "name": "C4",
          "ticks": 135648,
          "time": 156.999843,
          "velocity": 0.3937007874015748
        },
        {
          "duration": 0.11111099999999396,
          "durationTicks": 96,
          "midi": 48,
          "name": "C3",
          "ticks": 135648,
          "time": 156.999843,
          "velocity": 0.3937007874015748
        },
        {
          "duration": 0.11111100000002239,
          "durationTicks": 96,
          "midi": 48,
          "name": "C3",
          "ticks": 135744,
          "time": 157.110954,
          "velocity": 0.3937007874015748
        },
        {
          "duration": 0.11111100000002239,
          "durationTicks": 96,
          "midi": 60,
          "name": "C4",
          "ticks": 135744,
          "time": 157.110954,
          "velocity": 0.3937007874015748
        },
        {
          "duration": 0.11111100000002239,
          "durationTicks": 96,
          "midi": 36,
          "name": "C2",
          "ticks": 135744,
          "time": 157.110954,
          "velocity": 0.3937007874015748
        },
        {
          "duration": 0.22222199999998793,
          "durationTicks": 192,
          "midi": 48,
          "name": "C3",
          "ticks": 135840,
          "time": 157.22206500000001,
          "velocity": 0.3937007874015748
        },
        {
          "duration": 0.22222199999998793,
          "durationTicks": 192,
          "midi": 36,
          "name": "C2",
          "ticks": 135840,
          "time": 157.22206500000001,
          "velocity": 0.3937007874015748
        },
        {
          "duration": 0.22222199999998793,
          "durationTicks": 192,
          "midi": 60,
          "name": "C4",
          "ticks": 135840,
          "time": 157.22206500000001,
          "velocity": 0.3937007874015748
        },
        {
          "duration": 0.22222199999998793,
          "durationTicks": 192,
          "midi": 48,
          "name": "C3",
          "ticks": 136032,
          "time": 157.444287,
          "velocity": 0.3937007874015748
        },
        {
          "duration": 0.22222199999998793,
          "durationTicks": 192,
          "midi": 60,
          "name": "C4",
          "ticks": 136032,
          "time": 157.444287,
          "velocity": 0.3937007874015748
        },
        {
          "duration": 0.22222199999998793,
          "durationTicks": 192,
          "midi": 36,
          "name": "C2",
          "ticks": 136032,
          "time": 157.444287,
          "velocity": 0.3937007874015748
        },
        {
          "duration": 0.11111100000002239,
          "durationTicks": 96,
          "midi": 36,
          "name": "C2",
          "ticks": 136224,
          "time": 157.666509,
          "velocity": 0.3937007874015748
        },
        {
          "duration": 0.11111100000002239,
          "durationTicks": 96,
          "midi": 48,
          "name": "C3",
          "ticks": 136224,
          "time": 157.666509,
          "velocity": 0.3937007874015748
        },
        {
          "duration": 0.11111100000002239,
          "durationTicks": 96,
          "midi": 60,
          "name": "C4",
          "ticks": 136224,
          "time": 157.666509,
          "velocity": 0.3937007874015748
        },
        {
          "duration": 0.22222199999998793,
          "durationTicks": 192,
          "midi": 36,
          "name": "C2",
          "ticks": 136320,
          "time": 157.77762,
          "velocity": 0.3937007874015748
        },
        {
          "duration": 0.22222199999998793,
          "durationTicks": 192,
          "midi": 48,
          "name": "C3",
          "ticks": 136320,
          "time": 157.77762,
          "velocity": 0.3937007874015748
        },
        {
          "duration": 0.22222199999998793,
          "durationTicks": 192,
          "midi": 60,
          "name": "C4",
          "ticks": 136320,
          "time": 157.77762,
          "velocity": 0.3937007874015748
        },
        {
          "duration": 0.22222199999998793,
          "durationTicks": 192,
          "midi": 48,
          "name": "C3",
          "ticks": 136512,
          "time": 157.999842,
          "velocity": 0.3937007874015748
        },
        {
          "duration": 0.22222199999998793,
          "durationTicks": 192,
          "midi": 60,
          "name": "C4",
          "ticks": 136512,
          "time": 157.999842,
          "velocity": 0.3937007874015748
        },
        {
          "duration": 1.2222210000000189,
          "durationTicks": 1056,
          "midi": 49,
          "name": "C#3",
          "ticks": 136704,
          "time": 158.222064,
          "velocity": 0.3937007874015748
        },
        {
          "duration": 1.2222210000000189,
          "durationTicks": 1056,
          "midi": 61,
          "name": "C#4",
          "ticks": 136704,
          "time": 158.222064,
          "velocity": 0.3937007874015748
        },
        {
          "duration": 0.4444440000000043,
          "durationTicks": 384,
          "midi": 60,
          "name": "C4",
          "ticks": 137856,
          "time": 159.555396,
          "velocity": 0.3937007874015748
        },
        {
          "duration": 0.4444440000000043,
          "durationTicks": 384,
          "midi": 48,
          "name": "C3",
          "ticks": 137856,
          "time": 159.555396,
          "velocity": 0.3937007874015748
        },
        {
          "duration": 0.22222199999998793,
          "durationTicks": 192,
          "midi": 33,
          "name": "A1",
          "ticks": 138240,
          "time": 159.99984,
          "velocity": 0.3937007874015748
        },
        {
          "duration": 0.22222199999998793,
          "durationTicks": 192,
          "midi": 45,
          "name": "A2",
          "ticks": 138240,
          "time": 159.99984,
          "velocity": 0.3937007874015748
        },
        {
          "duration": 0.22222199999998793,
          "durationTicks": 192,
          "midi": 57,
          "name": "A3",
          "ticks": 138240,
          "time": 159.99984,
          "velocity": 0.3937007874015748
        },
        {
          "duration": 0.22222200000001635,
          "durationTicks": 192,
          "midi": 45,
          "name": "A2",
          "ticks": 138432,
          "time": 160.222062,
          "velocity": 0.3937007874015748
        },
        {
          "duration": 0.22222200000001635,
          "durationTicks": 192,
          "midi": 57,
          "name": "A3",
          "ticks": 138432,
          "time": 160.222062,
          "velocity": 0.3937007874015748
        },
        {
          "duration": 0.22222200000001635,
          "durationTicks": 192,
          "midi": 33,
          "name": "A1",
          "ticks": 138432,
          "time": 160.222062,
          "velocity": 0.3937007874015748
        },
        {
          "duration": 0.11111099999999396,
          "durationTicks": 96,
          "midi": 33,
          "name": "A1",
          "ticks": 138624,
          "time": 160.444284,
          "velocity": 0.3937007874015748
        },
        {
          "duration": 0.11111099999999396,
          "durationTicks": 96,
          "midi": 45,
          "name": "A2",
          "ticks": 138624,
          "time": 160.444284,
          "velocity": 0.3937007874015748
        },
        {
          "duration": 0.11111099999999396,
          "durationTicks": 96,
          "midi": 57,
          "name": "A3",
          "ticks": 138624,
          "time": 160.444284,
          "velocity": 0.3937007874015748
        },
        {
          "duration": 0.11111099999999396,
          "durationTicks": 96,
          "midi": 33,
          "name": "A1",
          "ticks": 138720,
          "time": 160.555395,
          "velocity": 0.3937007874015748
        },
        {
          "duration": 0.11111099999999396,
          "durationTicks": 96,
          "midi": 57,
          "name": "A3",
          "ticks": 138720,
          "time": 160.555395,
          "velocity": 0.3937007874015748
        },
        {
          "duration": 0.11111099999999396,
          "durationTicks": 96,
          "midi": 45,
          "name": "A2",
          "ticks": 138720,
          "time": 160.555395,
          "velocity": 0.3937007874015748
        },
        {
          "duration": 0.11111099999999396,
          "durationTicks": 96,
          "midi": 57,
          "name": "A3",
          "ticks": 138816,
          "time": 160.666506,
          "velocity": 0.3937007874015748
        },
        {
          "duration": 0.11111099999999396,
          "durationTicks": 96,
          "midi": 45,
          "name": "A2",
          "ticks": 138816,
          "time": 160.666506,
          "velocity": 0.3937007874015748
        },
        {
          "duration": 0.11111099999999396,
          "durationTicks": 96,
          "midi": 33,
          "name": "A1",
          "ticks": 138816,
          "time": 160.666506,
          "velocity": 0.3937007874015748
        },
        {
          "duration": 0.22222200000001635,
          "durationTicks": 192,
          "midi": 33,
          "name": "A1",
          "ticks": 138912,
          "time": 160.777617,
          "velocity": 0.3937007874015748
        },
        {
          "duration": 0.22222200000001635,
          "durationTicks": 192,
          "midi": 45,
          "name": "A2",
          "ticks": 138912,
          "time": 160.777617,
          "velocity": 0.3937007874015748
        },
        {
          "duration": 0.22222200000001635,
          "durationTicks": 192,
          "midi": 57,
          "name": "A3",
          "ticks": 138912,
          "time": 160.777617,
          "velocity": 0.3937007874015748
        },
        {
          "duration": 0.22222199999998793,
          "durationTicks": 192,
          "midi": 33,
          "name": "A1",
          "ticks": 139104,
          "time": 160.999839,
          "velocity": 0.3937007874015748
        },
        {
          "duration": 0.22222199999998793,
          "durationTicks": 192,
          "midi": 45,
          "name": "A2",
          "ticks": 139104,
          "time": 160.999839,
          "velocity": 0.3937007874015748
        },
        {
          "duration": 0.22222199999998793,
          "durationTicks": 192,
          "midi": 57,
          "name": "A3",
          "ticks": 139104,
          "time": 160.999839,
          "velocity": 0.3937007874015748
        },
        {
          "duration": 0.11111099999999396,
          "durationTicks": 96,
          "midi": 45,
          "name": "A2",
          "ticks": 139296,
          "time": 161.222061,
          "velocity": 0.3937007874015748
        },
        {
          "duration": 0.11111099999999396,
          "durationTicks": 96,
          "midi": 57,
          "name": "A3",
          "ticks": 139296,
          "time": 161.222061,
          "velocity": 0.3937007874015748
        },
        {
          "duration": 0.11111099999999396,
          "durationTicks": 96,
          "midi": 33,
          "name": "A1",
          "ticks": 139296,
          "time": 161.222061,
          "velocity": 0.3937007874015748
        },
        {
          "duration": 0.22222200000001635,
          "durationTicks": 192,
          "midi": 57,
          "name": "A3",
          "ticks": 139392,
          "time": 161.333172,
          "velocity": 0.3937007874015748
        },
        {
          "duration": 0.22222200000001635,
          "durationTicks": 192,
          "midi": 45,
          "name": "A2",
          "ticks": 139392,
          "time": 161.333172,
          "velocity": 0.3937007874015748
        },
        {
          "duration": 0.22222200000001635,
          "durationTicks": 192,
          "midi": 33,
          "name": "A1",
          "ticks": 139392,
          "time": 161.333172,
          "velocity": 0.3937007874015748
        },
        {
          "duration": 0.22222199999998793,
          "durationTicks": 192,
          "midi": 45,
          "name": "A2",
          "ticks": 139584,
          "time": 161.555394,
          "velocity": 0.3937007874015748
        },
        {
          "duration": 0.22222199999998793,
          "durationTicks": 192,
          "midi": 57,
          "name": "A3",
          "ticks": 139584,
          "time": 161.555394,
          "velocity": 0.3937007874015748
        },
        {
          "duration": 0.22222200000001635,
          "durationTicks": 192,
          "midi": 35,
          "name": "B1",
          "ticks": 139776,
          "time": 161.777616,
          "velocity": 0.3937007874015748
        },
        {
          "duration": 0.22222200000001635,
          "durationTicks": 192,
          "midi": 59,
          "name": "B3",
          "ticks": 139776,
          "time": 161.777616,
          "velocity": 0.3937007874015748
        },
        {
          "duration": 0.22222200000001635,
          "durationTicks": 192,
          "midi": 47,
          "name": "B2",
          "ticks": 139776,
          "time": 161.777616,
          "velocity": 0.3937007874015748
        },
        {
          "duration": 0.22222199999998793,
          "durationTicks": 192,
          "midi": 47,
          "name": "B2",
          "ticks": 139968,
          "time": 161.999838,
          "velocity": 0.3937007874015748
        },
        {
          "duration": 0.22222199999998793,
          "durationTicks": 192,
          "midi": 35,
          "name": "B1",
          "ticks": 139968,
          "time": 161.999838,
          "velocity": 0.3937007874015748
        },
        {
          "duration": 0.22222199999998793,
          "durationTicks": 192,
          "midi": 59,
          "name": "B3",
          "ticks": 139968,
          "time": 161.999838,
          "velocity": 0.3937007874015748
        },
        {
          "duration": 0.11111099999999396,
          "durationTicks": 96,
          "midi": 35,
          "name": "B1",
          "ticks": 140160,
          "time": 162.22206,
          "velocity": 0.3937007874015748
        },
        {
          "duration": 0.11111099999999396,
          "durationTicks": 96,
          "midi": 59,
          "name": "B3",
          "ticks": 140160,
          "time": 162.22206,
          "velocity": 0.3937007874015748
        },
        {
          "duration": 0.11111099999999396,
          "durationTicks": 96,
          "midi": 47,
          "name": "B2",
          "ticks": 140160,
          "time": 162.22206,
          "velocity": 0.3937007874015748
        },
        {
          "duration": 0.11111100000002239,
          "durationTicks": 96,
          "midi": 47,
          "name": "B2",
          "ticks": 140256,
          "time": 162.333171,
          "velocity": 0.3937007874015748
        },
        {
          "duration": 0.11111100000002239,
          "durationTicks": 96,
          "midi": 35,
          "name": "B1",
          "ticks": 140256,
          "time": 162.333171,
          "velocity": 0.3937007874015748
        },
        {
          "duration": 0.11111100000002239,
          "durationTicks": 96,
          "midi": 59,
          "name": "B3",
          "ticks": 140256,
          "time": 162.333171,
          "velocity": 0.3937007874015748
        },
        {
          "duration": 0.11111099999999396,
          "durationTicks": 96,
          "midi": 47,
          "name": "B2",
          "ticks": 140352,
          "time": 162.44428200000002,
          "velocity": 0.3937007874015748
        },
        {
          "duration": 0.11111099999999396,
          "durationTicks": 96,
          "midi": 59,
          "name": "B3",
          "ticks": 140352,
          "time": 162.44428200000002,
          "velocity": 0.3937007874015748
        },
        {
          "duration": 0.11111099999999396,
          "durationTicks": 96,
          "midi": 35,
          "name": "B1",
          "ticks": 140352,
          "time": 162.44428200000002,
          "velocity": 0.3937007874015748
        },
        {
          "duration": 0.22222199999998793,
          "durationTicks": 192,
          "midi": 59,
          "name": "B3",
          "ticks": 140448,
          "time": 162.555393,
          "velocity": 0.3937007874015748
        },
        {
          "duration": 0.22222199999998793,
          "durationTicks": 192,
          "midi": 35,
          "name": "B1",
          "ticks": 140448,
          "time": 162.555393,
          "velocity": 0.3937007874015748
        },
        {
          "duration": 0.22222199999998793,
          "durationTicks": 192,
          "midi": 47,
          "name": "B2",
          "ticks": 140448,
          "time": 162.555393,
          "velocity": 0.3937007874015748
        },
        {
          "duration": 0.22222200000001635,
          "durationTicks": 192,
          "midi": 47,
          "name": "B2",
          "ticks": 140640,
          "time": 162.777615,
          "velocity": 0.3937007874015748
        },
        {
          "duration": 0.22222200000001635,
          "durationTicks": 192,
          "midi": 35,
          "name": "B1",
          "ticks": 140640,
          "time": 162.777615,
          "velocity": 0.3937007874015748
        },
        {
          "duration": 0.22222200000001635,
          "durationTicks": 192,
          "midi": 59,
          "name": "B3",
          "ticks": 140640,
          "time": 162.777615,
          "velocity": 0.3937007874015748
        },
        {
          "duration": 0.11111099999999396,
          "durationTicks": 96,
          "midi": 35,
          "name": "B1",
          "ticks": 140832,
          "time": 162.999837,
          "velocity": 0.3937007874015748
        },
        {
          "duration": 0.11111099999999396,
          "durationTicks": 96,
          "midi": 47,
          "name": "B2",
          "ticks": 140832,
          "time": 162.999837,
          "velocity": 0.3937007874015748
        },
        {
          "duration": 0.11111099999999396,
          "durationTicks": 96,
          "midi": 59,
          "name": "B3",
          "ticks": 140832,
          "time": 162.999837,
          "velocity": 0.3937007874015748
        },
        {
          "duration": 0.22222199999998793,
          "durationTicks": 192,
          "midi": 35,
          "name": "B1",
          "ticks": 140928,
          "time": 163.110948,
          "velocity": 0.3937007874015748
        },
        {
          "duration": 0.22222199999998793,
          "durationTicks": 192,
          "midi": 47,
          "name": "B2",
          "ticks": 140928,
          "time": 163.110948,
          "velocity": 0.3937007874015748
        },
        {
          "duration": 0.22222199999998793,
          "durationTicks": 192,
          "midi": 59,
          "name": "B3",
          "ticks": 140928,
          "time": 163.110948,
          "velocity": 0.3937007874015748
        },
        {
          "duration": 0.22222200000001635,
          "durationTicks": 192,
          "midi": 59,
          "name": "B3",
          "ticks": 141120,
          "time": 163.33317,
          "velocity": 0.3937007874015748
        },
        {
          "duration": 0.22222200000001635,
          "durationTicks": 192,
          "midi": 47,
          "name": "B2",
          "ticks": 141120,
          "time": 163.33317,
          "velocity": 0.3937007874015748
        },
        {
          "duration": 0.22222199999998793,
          "durationTicks": 192,
          "midi": 49,
          "name": "C#3",
          "ticks": 141312,
          "time": 163.555392,
          "velocity": 0.3937007874015748
        },
        {
          "duration": 0.22222199999998793,
          "durationTicks": 192,
          "midi": 37,
          "name": "C#2",
          "ticks": 141312,
          "time": 163.555392,
          "velocity": 0.3937007874015748
        },
        {
          "duration": 0.22222199999998793,
          "durationTicks": 192,
          "midi": 61,
          "name": "C#4",
          "ticks": 141312,
          "time": 163.555392,
          "velocity": 0.3937007874015748
        },
        {
          "duration": 0.22222200000001635,
          "durationTicks": 192,
          "midi": 49,
          "name": "C#3",
          "ticks": 141504,
          "time": 163.777614,
          "velocity": 0.3937007874015748
        },
        {
          "duration": 0.22222200000001635,
          "durationTicks": 192,
          "midi": 37,
          "name": "C#2",
          "ticks": 141504,
          "time": 163.777614,
          "velocity": 0.3937007874015748
        },
        {
          "duration": 0.22222200000001635,
          "durationTicks": 192,
          "midi": 61,
          "name": "C#4",
          "ticks": 141504,
          "time": 163.777614,
          "velocity": 0.3937007874015748
        },
        {
          "duration": 0.11111099999999396,
          "durationTicks": 96,
          "midi": 61,
          "name": "C#4",
          "ticks": 141696,
          "time": 163.99983600000002,
          "velocity": 0.3937007874015748
        },
        {
          "duration": 0.11111099999999396,
          "durationTicks": 96,
          "midi": 37,
          "name": "C#2",
          "ticks": 141696,
          "time": 163.99983600000002,
          "velocity": 0.3937007874015748
        },
        {
          "duration": 0.11111099999999396,
          "durationTicks": 96,
          "midi": 49,
          "name": "C#3",
          "ticks": 141696,
          "time": 163.99983600000002,
          "velocity": 0.3937007874015748
        },
        {
          "duration": 0.11111099999999396,
          "durationTicks": 96,
          "midi": 61,
          "name": "C#4",
          "ticks": 141792,
          "time": 164.110947,
          "velocity": 0.3937007874015748
        },
        {
          "duration": 0.11111099999999396,
          "durationTicks": 96,
          "midi": 49,
          "name": "C#3",
          "ticks": 141792,
          "time": 164.110947,
          "velocity": 0.3937007874015748
        },
        {
          "duration": 0.11111099999999396,
          "durationTicks": 96,
          "midi": 37,
          "name": "C#2",
          "ticks": 141792,
          "time": 164.110947,
          "velocity": 0.3937007874015748
        },
        {
          "duration": 0.11111099999999396,
          "durationTicks": 96,
          "midi": 37,
          "name": "C#2",
          "ticks": 141888,
          "time": 164.222058,
          "velocity": 0.3937007874015748
        },
        {
          "duration": 0.11111099999999396,
          "durationTicks": 96,
          "midi": 49,
          "name": "C#3",
          "ticks": 141888,
          "time": 164.222058,
          "velocity": 0.3937007874015748
        },
        {
          "duration": 0.11111099999999396,
          "durationTicks": 96,
          "midi": 61,
          "name": "C#4",
          "ticks": 141888,
          "time": 164.222058,
          "velocity": 0.3937007874015748
        },
        {
          "duration": 0.22222200000001635,
          "durationTicks": 192,
          "midi": 48,
          "name": "C3",
          "ticks": 141984,
          "time": 164.333169,
          "velocity": 0.3937007874015748
        },
        {
          "duration": 0.22222200000001635,
          "durationTicks": 192,
          "midi": 36,
          "name": "C2",
          "ticks": 141984,
          "time": 164.333169,
          "velocity": 0.3937007874015748
        },
        {
          "duration": 0.22222200000001635,
          "durationTicks": 192,
          "midi": 60,
          "name": "C4",
          "ticks": 141984,
          "time": 164.333169,
          "velocity": 0.3937007874015748
        },
        {
          "duration": 0.22222199999998793,
          "durationTicks": 192,
          "midi": 36,
          "name": "C2",
          "ticks": 142176,
          "time": 164.55539100000001,
          "velocity": 0.3937007874015748
        },
        {
          "duration": 0.22222199999998793,
          "durationTicks": 192,
          "midi": 48,
          "name": "C3",
          "ticks": 142176,
          "time": 164.55539100000001,
          "velocity": 0.3937007874015748
        },
        {
          "duration": 0.22222199999998793,
          "durationTicks": 192,
          "midi": 60,
          "name": "C4",
          "ticks": 142176,
          "time": 164.55539100000001,
          "velocity": 0.3937007874015748
        },
        {
          "duration": 0.11111099999999396,
          "durationTicks": 96,
          "midi": 48,
          "name": "C3",
          "ticks": 142368,
          "time": 164.777613,
          "velocity": 0.3937007874015748
        },
        {
          "duration": 0.11111099999999396,
          "durationTicks": 96,
          "midi": 60,
          "name": "C4",
          "ticks": 142368,
          "time": 164.777613,
          "velocity": 0.3937007874015748
        },
        {
          "duration": 0.11111099999999396,
          "durationTicks": 96,
          "midi": 36,
          "name": "C2",
          "ticks": 142368,
          "time": 164.777613,
          "velocity": 0.3937007874015748
        },
        {
          "duration": 0.22222200000001635,
          "durationTicks": 192,
          "midi": 36,
          "name": "C2",
          "ticks": 142464,
          "time": 164.888724,
          "velocity": 0.3937007874015748
        },
        {
          "duration": 0.22222200000001635,
          "durationTicks": 192,
          "midi": 48,
          "name": "C3",
          "ticks": 142464,
          "time": 164.888724,
          "velocity": 0.3937007874015748
        },
        {
          "duration": 0.22222200000001635,
          "durationTicks": 192,
          "midi": 60,
          "name": "C4",
          "ticks": 142464,
          "time": 164.888724,
          "velocity": 0.3937007874015748
        },
        {
          "duration": 0.22222199999998793,
          "durationTicks": 192,
          "midi": 60,
          "name": "C4",
          "ticks": 142656,
          "time": 165.110946,
          "velocity": 0.3937007874015748
        },
        {
          "duration": 0.22222199999998793,
          "durationTicks": 192,
          "midi": 48,
          "name": "C3",
          "ticks": 142656,
          "time": 165.110946,
          "velocity": 0.3937007874015748
        },
        {
          "duration": 0.22222199999998793,
          "durationTicks": 192,
          "midi": 59,
          "name": "B3",
          "ticks": 142848,
          "time": 165.333168,
          "velocity": 0.3937007874015748
        },
        {
          "duration": 0.22222199999998793,
          "durationTicks": 192,
          "midi": 47,
          "name": "B2",
          "ticks": 142848,
          "time": 165.333168,
          "velocity": 0.3937007874015748
        },
        {
          "duration": 0.22222199999998793,
          "durationTicks": 192,
          "midi": 35,
          "name": "B1",
          "ticks": 142848,
          "time": 165.333168,
          "velocity": 0.3937007874015748
        },
        {
          "duration": 0.22222200000001635,
          "durationTicks": 192,
          "midi": 59,
          "name": "B3",
          "ticks": 143040,
          "time": 165.55539,
          "velocity": 0.3937007874015748
        },
        {
          "duration": 0.22222200000001635,
          "durationTicks": 192,
          "midi": 35,
          "name": "B1",
          "ticks": 143040,
          "time": 165.55539,
          "velocity": 0.3937007874015748
        },
        {
          "duration": 0.22222200000001635,
          "durationTicks": 192,
          "midi": 47,
          "name": "B2",
          "ticks": 143040,
          "time": 165.55539,
          "velocity": 0.3937007874015748
        },
        {
          "duration": 0.11111099999999396,
          "durationTicks": 96,
          "midi": 59,
          "name": "B3",
          "ticks": 143232,
          "time": 165.777612,
          "velocity": 0.3937007874015748
        },
        {
          "duration": 0.11111099999999396,
          "durationTicks": 96,
          "midi": 47,
          "name": "B2",
          "ticks": 143232,
          "time": 165.777612,
          "velocity": 0.3937007874015748
        },
        {
          "duration": 0.11111099999999396,
          "durationTicks": 96,
          "midi": 35,
          "name": "B1",
          "ticks": 143232,
          "time": 165.777612,
          "velocity": 0.3937007874015748
        },
        {
          "duration": 0.11111099999999396,
          "durationTicks": 96,
          "midi": 35,
          "name": "B1",
          "ticks": 143328,
          "time": 165.888723,
          "velocity": 0.3937007874015748
        },
        {
          "duration": 0.11111099999999396,
          "durationTicks": 96,
          "midi": 47,
          "name": "B2",
          "ticks": 143328,
          "time": 165.888723,
          "velocity": 0.3937007874015748
        },
        {
          "duration": 0.11111099999999396,
          "durationTicks": 96,
          "midi": 59,
          "name": "B3",
          "ticks": 143328,
          "time": 165.888723,
          "velocity": 0.3937007874015748
        },
        {
          "duration": 0.11111100000002239,
          "durationTicks": 96,
          "midi": 59,
          "name": "B3",
          "ticks": 143424,
          "time": 165.999834,
          "velocity": 0.3937007874015748
        },
        {
          "duration": 0.11111100000002239,
          "durationTicks": 96,
          "midi": 47,
          "name": "B2",
          "ticks": 143424,
          "time": 165.999834,
          "velocity": 0.3937007874015748
        },
        {
          "duration": 0.11111100000002239,
          "durationTicks": 96,
          "midi": 35,
          "name": "B1",
          "ticks": 143424,
          "time": 165.999834,
          "velocity": 0.3937007874015748
        },
        {
          "duration": 0.22222199999998793,
          "durationTicks": 192,
          "midi": 46,
          "name": "A#2",
          "ticks": 143520,
          "time": 166.11094500000002,
          "velocity": 0.3937007874015748
        },
        {
          "duration": 0.22222199999998793,
          "durationTicks": 192,
          "midi": 34,
          "name": "A#1",
          "ticks": 143520,
          "time": 166.11094500000002,
          "velocity": 0.3937007874015748
        },
        {
          "duration": 0.22222199999998793,
          "durationTicks": 192,
          "midi": 58,
          "name": "A#3",
          "ticks": 143520,
          "time": 166.11094500000002,
          "velocity": 0.3937007874015748
        },
        {
          "duration": 0.22222199999998793,
          "durationTicks": 192,
          "midi": 46,
          "name": "A#2",
          "ticks": 143712,
          "time": 166.333167,
          "velocity": 0.3937007874015748
        },
        {
          "duration": 0.22222199999998793,
          "durationTicks": 192,
          "midi": 58,
          "name": "A#3",
          "ticks": 143712,
          "time": 166.333167,
          "velocity": 0.3937007874015748
        },
        {
          "duration": 0.22222199999998793,
          "durationTicks": 192,
          "midi": 34,
          "name": "A#1",
          "ticks": 143712,
          "time": 166.333167,
          "velocity": 0.3937007874015748
        },
        {
          "duration": 0.11111100000002239,
          "durationTicks": 96,
          "midi": 34,
          "name": "A#1",
          "ticks": 143904,
          "time": 166.555389,
          "velocity": 0.3937007874015748
        },
        {
          "duration": 0.11111100000002239,
          "durationTicks": 96,
          "midi": 46,
          "name": "A#2",
          "ticks": 143904,
          "time": 166.555389,
          "velocity": 0.3937007874015748
        },
        {
          "duration": 0.11111100000002239,
          "durationTicks": 96,
          "midi": 58,
          "name": "A#3",
          "ticks": 143904,
          "time": 166.555389,
          "velocity": 0.3937007874015748
        },
        {
          "duration": 0.22222199999998793,
          "durationTicks": 192,
          "midi": 46,
          "name": "A#2",
          "ticks": 144000,
          "time": 166.6665,
          "velocity": 0.3937007874015748
        },
        {
          "duration": 0.22222199999998793,
          "durationTicks": 192,
          "midi": 58,
          "name": "A#3",
          "ticks": 144000,
          "time": 166.6665,
          "velocity": 0.3937007874015748
        },
        {
          "duration": 0.22222199999998793,
          "durationTicks": 192,
          "midi": 34,
          "name": "A#1",
          "ticks": 144000,
          "time": 166.6665,
          "velocity": 0.3937007874015748
        },
        {
          "duration": 0.22222199999998793,
          "durationTicks": 192,
          "midi": 46,
          "name": "A#2",
          "ticks": 144192,
          "time": 166.888722,
          "velocity": 0.3937007874015748
        },
        {
          "duration": 0.22222199999998793,
          "durationTicks": 192,
          "midi": 58,
          "name": "A#3",
          "ticks": 144192,
          "time": 166.888722,
          "velocity": 0.3937007874015748
        },
        {
          "duration": 0.22222200000001635,
          "durationTicks": 192,
          "midi": 45,
          "name": "A2",
          "ticks": 144384,
          "time": 167.110944,
          "velocity": 0.3937007874015748
        },
        {
          "duration": 0.22222200000001635,
          "durationTicks": 192,
          "midi": 57,
          "name": "A3",
          "ticks": 144384,
          "time": 167.110944,
          "velocity": 0.3937007874015748
        },
        {
          "duration": 0.22222200000001635,
          "durationTicks": 192,
          "midi": 33,
          "name": "A1",
          "ticks": 144384,
          "time": 167.110944,
          "velocity": 0.3937007874015748
        },
        {
          "duration": 0.22222199999998793,
          "durationTicks": 192,
          "midi": 45,
          "name": "A2",
          "ticks": 144576,
          "time": 167.333166,
          "velocity": 0.3937007874015748
        },
        {
          "duration": 0.22222199999998793,
          "durationTicks": 192,
          "midi": 33,
          "name": "A1",
          "ticks": 144576,
          "time": 167.333166,
          "velocity": 0.3937007874015748
        },
        {
          "duration": 0.22222199999998793,
          "durationTicks": 192,
          "midi": 57,
          "name": "A3",
          "ticks": 144576,
          "time": 167.333166,
          "velocity": 0.3937007874015748
        },
        {
          "duration": 0.11111100000002239,
          "durationTicks": 96,
          "midi": 33,
          "name": "A1",
          "ticks": 144768,
          "time": 167.555388,
          "velocity": 0.3937007874015748
        },
        {
          "duration": 0.11111100000002239,
          "durationTicks": 96,
          "midi": 45,
          "name": "A2",
          "ticks": 144768,
          "time": 167.555388,
          "velocity": 0.3937007874015748
        },
        {
          "duration": 0.11111100000002239,
          "durationTicks": 96,
          "midi": 57,
          "name": "A3",
          "ticks": 144768,
          "time": 167.555388,
          "velocity": 0.3937007874015748
        },
        {
          "duration": 0.11111099999999396,
          "durationTicks": 96,
          "midi": 57,
          "name": "A3",
          "ticks": 144864,
          "time": 167.66649900000002,
          "velocity": 0.3937007874015748
        },
        {
          "duration": 0.11111099999999396,
          "durationTicks": 96,
          "midi": 45,
          "name": "A2",
          "ticks": 144864,
          "time": 167.66649900000002,
          "velocity": 0.3937007874015748
        },
        {
          "duration": 0.11111099999999396,
          "durationTicks": 96,
          "midi": 33,
          "name": "A1",
          "ticks": 144864,
          "time": 167.66649900000002,
          "velocity": 0.3937007874015748
        },
        {
          "duration": 0.11111099999999396,
          "durationTicks": 96,
          "midi": 45,
          "name": "A2",
          "ticks": 144960,
          "time": 167.77761,
          "velocity": 0.3937007874015748
        },
        {
          "duration": 0.11111099999999396,
          "durationTicks": 96,
          "midi": 33,
          "name": "A1",
          "ticks": 144960,
          "time": 167.77761,
          "velocity": 0.3937007874015748
        },
        {
          "duration": 0.11111099999999396,
          "durationTicks": 96,
          "midi": 57,
          "name": "A3",
          "ticks": 144960,
          "time": 167.77761,
          "velocity": 0.3937007874015748
        },
        {
          "duration": 0.22222199999998793,
          "durationTicks": 192,
          "midi": 57,
          "name": "A3",
          "ticks": 145056,
          "time": 167.888721,
          "velocity": 0.3937007874015748
        },
        {
          "duration": 0.22222199999998793,
          "durationTicks": 192,
          "midi": 45,
          "name": "A2",
          "ticks": 145056,
          "time": 167.888721,
          "velocity": 0.3937007874015748
        },
        {
          "duration": 0.22222199999998793,
          "durationTicks": 192,
          "midi": 33,
          "name": "A1",
          "ticks": 145056,
          "time": 167.888721,
          "velocity": 0.3937007874015748
        },
        {
          "duration": 0.22222200000001635,
          "durationTicks": 192,
          "midi": 33,
          "name": "A1",
          "ticks": 145248,
          "time": 168.110943,
          "velocity": 0.3937007874015748
        },
        {
          "duration": 0.22222200000001635,
          "durationTicks": 192,
          "midi": 45,
          "name": "A2",
          "ticks": 145248,
          "time": 168.110943,
          "velocity": 0.3937007874015748
        },
        {
          "duration": 0.22222200000001635,
          "durationTicks": 192,
          "midi": 57,
          "name": "A3",
          "ticks": 145248,
          "time": 168.110943,
          "velocity": 0.3937007874015748
        },
        {
          "duration": 0.11111099999999396,
          "durationTicks": 96,
          "midi": 45,
          "name": "A2",
          "ticks": 145440,
          "time": 168.333165,
          "velocity": 0.3937007874015748
        },
        {
          "duration": 0.11111099999999396,
          "durationTicks": 96,
          "midi": 33,
          "name": "A1",
          "ticks": 145440,
          "time": 168.333165,
          "velocity": 0.3937007874015748
        },
        {
          "duration": 0.11111099999999396,
          "durationTicks": 96,
          "midi": 57,
          "name": "A3",
          "ticks": 145440,
          "time": 168.333165,
          "velocity": 0.3937007874015748
        },
        {
          "duration": 0.22222199999998793,
          "durationTicks": 192,
          "midi": 57,
          "name": "A3",
          "ticks": 145536,
          "time": 168.444276,
          "velocity": 0.3937007874015748
        },
        {
          "duration": 0.22222199999998793,
          "durationTicks": 192,
          "midi": 33,
          "name": "A1",
          "ticks": 145536,
          "time": 168.444276,
          "velocity": 0.3937007874015748
        },
        {
          "duration": 0.22222199999998793,
          "durationTicks": 192,
          "midi": 45,
          "name": "A2",
          "ticks": 145536,
          "time": 168.444276,
          "velocity": 0.3937007874015748
        },
        {
          "duration": 0.22222200000001635,
          "durationTicks": 192,
          "midi": 45,
          "name": "A2",
          "ticks": 145728,
          "time": 168.666498,
          "velocity": 0.3937007874015748
        },
        {
          "duration": 0.22222200000001635,
          "durationTicks": 192,
          "midi": 57,
          "name": "A3",
          "ticks": 145728,
          "time": 168.666498,
          "velocity": 0.3937007874015748
        },
        {
          "duration": 0.22222199999998793,
          "durationTicks": 192,
          "midi": 47,
          "name": "B2",
          "ticks": 145920,
          "time": 168.88872,
          "velocity": 0.3937007874015748
        },
        {
          "duration": 0.22222199999998793,
          "durationTicks": 192,
          "midi": 59,
          "name": "B3",
          "ticks": 145920,
          "time": 168.88872,
          "velocity": 0.3937007874015748
        },
        {
          "duration": 0.22222199999998793,
          "durationTicks": 192,
          "midi": 35,
          "name": "B1",
          "ticks": 145920,
          "time": 168.88872,
          "velocity": 0.3937007874015748
        },
        {
          "duration": 0.22222200000001635,
          "durationTicks": 192,
          "midi": 35,
          "name": "B1",
          "ticks": 146112,
          "time": 169.110942,
          "velocity": 0.3937007874015748
        },
        {
          "duration": 0.22222200000001635,
          "durationTicks": 192,
          "midi": 47,
          "name": "B2",
          "ticks": 146112,
          "time": 169.110942,
          "velocity": 0.3937007874015748
        },
        {
          "duration": 0.22222200000001635,
          "durationTicks": 192,
          "midi": 59,
          "name": "B3",
          "ticks": 146112,
          "time": 169.110942,
          "velocity": 0.3937007874015748
        },
        {
          "duration": 0.11111099999999396,
          "durationTicks": 96,
          "midi": 35,
          "name": "B1",
          "ticks": 146304,
          "time": 169.333164,
          "velocity": 0.3937007874015748
        },
        {
          "duration": 0.11111099999999396,
          "durationTicks": 96,
          "midi": 59,
          "name": "B3",
          "ticks": 146304,
          "time": 169.333164,
          "velocity": 0.3937007874015748
        },
        {
          "duration": 0.11111099999999396,
          "durationTicks": 96,
          "midi": 47,
          "name": "B2",
          "ticks": 146304,
          "time": 169.333164,
          "velocity": 0.3937007874015748
        },
        {
          "duration": 0.11111099999999396,
          "durationTicks": 96,
          "midi": 47,
          "name": "B2",
          "ticks": 146400,
          "time": 169.444275,
          "velocity": 0.3937007874015748
        },
        {
          "duration": 0.11111099999999396,
          "durationTicks": 96,
          "midi": 35,
          "name": "B1",
          "ticks": 146400,
          "time": 169.444275,
          "velocity": 0.3937007874015748
        },
        {
          "duration": 0.11111099999999396,
          "durationTicks": 96,
          "midi": 59,
          "name": "B3",
          "ticks": 146400,
          "time": 169.444275,
          "velocity": 0.3937007874015748
        },
        {
          "duration": 0.11111099999999396,
          "durationTicks": 96,
          "midi": 35,
          "name": "B1",
          "ticks": 146496,
          "time": 169.555386,
          "velocity": 0.3937007874015748
        },
        {
          "duration": 0.11111099999999396,
          "durationTicks": 96,
          "midi": 59,
          "name": "B3",
          "ticks": 146496,
          "time": 169.555386,
          "velocity": 0.3937007874015748
        },
        {
          "duration": 0.11111099999999396,
          "durationTicks": 96,
          "midi": 47,
          "name": "B2",
          "ticks": 146496,
          "time": 169.555386,
          "velocity": 0.3937007874015748
        },
        {
          "duration": 0.22222200000001635,
          "durationTicks": 192,
          "midi": 35,
          "name": "B1",
          "ticks": 146592,
          "time": 169.666497,
          "velocity": 0.3937007874015748
        },
        {
          "duration": 0.22222200000001635,
          "durationTicks": 192,
          "midi": 47,
          "name": "B2",
          "ticks": 146592,
          "time": 169.666497,
          "velocity": 0.3937007874015748
        },
        {
          "duration": 0.22222200000001635,
          "durationTicks": 192,
          "midi": 59,
          "name": "B3",
          "ticks": 146592,
          "time": 169.666497,
          "velocity": 0.3937007874015748
        },
        {
          "duration": 0.22222199999998793,
          "durationTicks": 192,
          "midi": 59,
          "name": "B3",
          "ticks": 146784,
          "time": 169.888719,
          "velocity": 0.3937007874015748
        },
        {
          "duration": 0.22222199999998793,
          "durationTicks": 192,
          "midi": 47,
          "name": "B2",
          "ticks": 146784,
          "time": 169.888719,
          "velocity": 0.3937007874015748
        },
        {
          "duration": 0.22222199999998793,
          "durationTicks": 192,
          "midi": 35,
          "name": "B1",
          "ticks": 146784,
          "time": 169.888719,
          "velocity": 0.3937007874015748
        },
        {
          "duration": 0.11111099999999396,
          "durationTicks": 96,
          "midi": 59,
          "name": "B3",
          "ticks": 146976,
          "time": 170.110941,
          "velocity": 0.3937007874015748
        },
        {
          "duration": 0.11111099999999396,
          "durationTicks": 96,
          "midi": 35,
          "name": "B1",
          "ticks": 146976,
          "time": 170.110941,
          "velocity": 0.3937007874015748
        },
        {
          "duration": 0.11111099999999396,
          "durationTicks": 96,
          "midi": 47,
          "name": "B2",
          "ticks": 146976,
          "time": 170.110941,
          "velocity": 0.3937007874015748
        },
        {
          "duration": 0.22222200000001635,
          "durationTicks": 192,
          "midi": 47,
          "name": "B2",
          "ticks": 147072,
          "time": 170.222052,
          "velocity": 0.3937007874015748
        },
        {
          "duration": 0.22222200000001635,
          "durationTicks": 192,
          "midi": 59,
          "name": "B3",
          "ticks": 147072,
          "time": 170.222052,
          "velocity": 0.3937007874015748
        },
        {
          "duration": 0.22222200000001635,
          "durationTicks": 192,
          "midi": 35,
          "name": "B1",
          "ticks": 147072,
          "time": 170.222052,
          "velocity": 0.3937007874015748
        },
        {
          "duration": 0.22222199999998793,
          "durationTicks": 192,
          "midi": 47,
          "name": "B2",
          "ticks": 147264,
          "time": 170.444274,
          "velocity": 0.3937007874015748
        },
        {
          "duration": 0.22222199999998793,
          "durationTicks": 192,
          "midi": 59,
          "name": "B3",
          "ticks": 147264,
          "time": 170.444274,
          "velocity": 0.3937007874015748
        },
        {
          "duration": 0.22222200000001635,
          "durationTicks": 192,
          "midi": 49,
          "name": "C#3",
          "ticks": 147456,
          "time": 170.666496,
          "velocity": 0.3937007874015748
        },
        {
          "duration": 0.22222200000001635,
          "durationTicks": 192,
          "midi": 37,
          "name": "C#2",
          "ticks": 147456,
          "time": 170.666496,
          "velocity": 0.3937007874015748
        },
        {
          "duration": 0.22222200000001635,
          "durationTicks": 192,
          "midi": 61,
          "name": "C#4",
          "ticks": 147456,
          "time": 170.666496,
          "velocity": 0.3937007874015748
        },
        {
          "duration": 0.22222199999998793,
          "durationTicks": 192,
          "midi": 49,
          "name": "C#3",
          "ticks": 147648,
          "time": 170.888718,
          "velocity": 0.3937007874015748
        },
        {
          "duration": 0.22222199999998793,
          "durationTicks": 192,
          "midi": 61,
          "name": "C#4",
          "ticks": 147648,
          "time": 170.888718,
          "velocity": 0.3937007874015748
        },
        {
          "duration": 0.22222199999998793,
          "durationTicks": 192,
          "midi": 37,
          "name": "C#2",
          "ticks": 147648,
          "time": 170.888718,
          "velocity": 0.3937007874015748
        },
        {
          "duration": 0.11111099999999396,
          "durationTicks": 96,
          "midi": 49,
          "name": "C#3",
          "ticks": 147840,
          "time": 171.11094,
          "velocity": 0.3937007874015748
        },
        {
          "duration": 0.11111099999999396,
          "durationTicks": 96,
          "midi": 61,
          "name": "C#4",
          "ticks": 147840,
          "time": 171.11094,
          "velocity": 0.3937007874015748
        },
        {
          "duration": 0.11111099999999396,
          "durationTicks": 96,
          "midi": 37,
          "name": "C#2",
          "ticks": 147840,
          "time": 171.11094,
          "velocity": 0.3937007874015748
        },
        {
          "duration": 0.11111100000002239,
          "durationTicks": 96,
          "midi": 61,
          "name": "C#4",
          "ticks": 147936,
          "time": 171.222051,
          "velocity": 0.3937007874015748
        },
        {
          "duration": 0.11111100000002239,
          "durationTicks": 96,
          "midi": 37,
          "name": "C#2",
          "ticks": 147936,
          "time": 171.222051,
          "velocity": 0.3937007874015748
        },
        {
          "duration": 0.11111100000002239,
          "durationTicks": 96,
          "midi": 49,
          "name": "C#3",
          "ticks": 147936,
          "time": 171.222051,
          "velocity": 0.3937007874015748
        },
        {
          "duration": 0.11111099999999396,
          "durationTicks": 96,
          "midi": 49,
          "name": "C#3",
          "ticks": 148032,
          "time": 171.33316200000002,
          "velocity": 0.3937007874015748
        },
        {
          "duration": 0.11111099999999396,
          "durationTicks": 96,
          "midi": 37,
          "name": "C#2",
          "ticks": 148032,
          "time": 171.33316200000002,
          "velocity": 0.3937007874015748
        },
        {
          "duration": 0.11111099999999396,
          "durationTicks": 96,
          "midi": 61,
          "name": "C#4",
          "ticks": 148032,
          "time": 171.33316200000002,
          "velocity": 0.3937007874015748
        },
        {
          "duration": 0.22222199999998793,
          "durationTicks": 192,
          "midi": 37,
          "name": "C#2",
          "ticks": 148128,
          "time": 171.444273,
          "velocity": 0.3937007874015748
        },
        {
          "duration": 0.22222199999998793,
          "durationTicks": 192,
          "midi": 49,
          "name": "C#3",
          "ticks": 148128,
          "time": 171.444273,
          "velocity": 0.3937007874015748
        },
        {
          "duration": 0.22222199999998793,
          "durationTicks": 192,
          "midi": 61,
          "name": "C#4",
          "ticks": 148128,
          "time": 171.444273,
          "velocity": 0.3937007874015748
        },
        {
          "duration": 0.22222200000001635,
          "durationTicks": 192,
          "midi": 37,
          "name": "C#2",
          "ticks": 148320,
          "time": 171.666495,
          "velocity": 0.3937007874015748
        },
        {
          "duration": 0.22222200000001635,
          "durationTicks": 192,
          "midi": 49,
          "name": "C#3",
          "ticks": 148320,
          "time": 171.666495,
          "velocity": 0.3937007874015748
        },
        {
          "duration": 0.22222200000001635,
          "durationTicks": 192,
          "midi": 61,
          "name": "C#4",
          "ticks": 148320,
          "time": 171.666495,
          "velocity": 0.3937007874015748
        },
        {
          "duration": 0.11111099999999396,
          "durationTicks": 96,
          "midi": 49,
          "name": "C#3",
          "ticks": 148512,
          "time": 171.888717,
          "velocity": 0.3937007874015748
        },
        {
          "duration": 0.11111099999999396,
          "durationTicks": 96,
          "midi": 61,
          "name": "C#4",
          "ticks": 148512,
          "time": 171.888717,
          "velocity": 0.3937007874015748
        },
        {
          "duration": 0.11111099999999396,
          "durationTicks": 96,
          "midi": 37,
          "name": "C#2",
          "ticks": 148512,
          "time": 171.888717,
          "velocity": 0.3937007874015748
        },
        {
          "duration": 0.22222199999998793,
          "durationTicks": 192,
          "midi": 61,
          "name": "C#4",
          "ticks": 148608,
          "time": 171.999828,
          "velocity": 0.3937007874015748
        },
        {
          "duration": 0.22222199999998793,
          "durationTicks": 192,
          "midi": 49,
          "name": "C#3",
          "ticks": 148608,
          "time": 171.999828,
          "velocity": 0.3937007874015748
        },
        {
          "duration": 0.22222199999998793,
          "durationTicks": 192,
          "midi": 37,
          "name": "C#2",
          "ticks": 148608,
          "time": 171.999828,
          "velocity": 0.3937007874015748
        },
        {
          "duration": 0.22222200000001635,
          "durationTicks": 192,
          "midi": 49,
          "name": "C#3",
          "ticks": 148800,
          "time": 172.22205,
          "velocity": 0.3937007874015748
        },
        {
          "duration": 0.22222200000001635,
          "durationTicks": 192,
          "midi": 61,
          "name": "C#4",
          "ticks": 148800,
          "time": 172.22205,
          "velocity": 0.3937007874015748
        },
        {
          "duration": 0.22222199999998793,
          "durationTicks": 192,
          "midi": 37,
          "name": "C#2",
          "ticks": 148992,
          "time": 172.444272,
          "velocity": 0.3937007874015748
        },
        {
          "duration": 0.22222199999998793,
          "durationTicks": 192,
          "midi": 49,
          "name": "C#3",
          "ticks": 148992,
          "time": 172.444272,
          "velocity": 0.3937007874015748
        },
        {
          "duration": 0.22222199999998793,
          "durationTicks": 192,
          "midi": 61,
          "name": "C#4",
          "ticks": 148992,
          "time": 172.444272,
          "velocity": 0.3937007874015748
        },
        {
          "duration": 0.22222199999998793,
          "durationTicks": 192,
          "midi": 61,
          "name": "C#4",
          "ticks": 149184,
          "time": 172.666494,
          "velocity": 0.3937007874015748
        },
        {
          "duration": 0.22222199999998793,
          "durationTicks": 192,
          "midi": 37,
          "name": "C#2",
          "ticks": 149184,
          "time": 172.666494,
          "velocity": 0.3937007874015748
        },
        {
          "duration": 0.22222199999998793,
          "durationTicks": 192,
          "midi": 49,
          "name": "C#3",
          "ticks": 149184,
          "time": 172.666494,
          "velocity": 0.3937007874015748
        },
        {
          "duration": 0.11111100000002239,
          "durationTicks": 96,
          "midi": 61,
          "name": "C#4",
          "ticks": 149376,
          "time": 172.888716,
          "velocity": 0.3937007874015748
        },
        {
          "duration": 0.11111100000002239,
          "durationTicks": 96,
          "midi": 49,
          "name": "C#3",
          "ticks": 149376,
          "time": 172.888716,
          "velocity": 0.3937007874015748
        },
        {
          "duration": 0.11111100000002239,
          "durationTicks": 96,
          "midi": 37,
          "name": "C#2",
          "ticks": 149376,
          "time": 172.888716,
          "velocity": 0.3937007874015748
        },
        {
          "duration": 0.11111099999999396,
          "durationTicks": 96,
          "midi": 37,
          "name": "C#2",
          "ticks": 149472,
          "time": 172.999827,
          "velocity": 0.3937007874015748
        },
        {
          "duration": 0.11111099999999396,
          "durationTicks": 96,
          "midi": 49,
          "name": "C#3",
          "ticks": 149472,
          "time": 172.999827,
          "velocity": 0.3937007874015748
        },
        {
          "duration": 0.11111099999999396,
          "durationTicks": 96,
          "midi": 61,
          "name": "C#4",
          "ticks": 149472,
          "time": 172.999827,
          "velocity": 0.3937007874015748
        },
        {
          "duration": 0.11111099999999396,
          "durationTicks": 96,
          "midi": 49,
          "name": "C#3",
          "ticks": 149568,
          "time": 173.110938,
          "velocity": 0.3937007874015748
        },
        {
          "duration": 0.11111099999999396,
          "durationTicks": 96,
          "midi": 61,
          "name": "C#4",
          "ticks": 149568,
          "time": 173.110938,
          "velocity": 0.3937007874015748
        },
        {
          "duration": 0.11111099999999396,
          "durationTicks": 96,
          "midi": 37,
          "name": "C#2",
          "ticks": 149568,
          "time": 173.110938,
          "velocity": 0.3937007874015748
        },
        {
          "duration": 0.22222200000001635,
          "durationTicks": 192,
          "midi": 61,
          "name": "C#4",
          "ticks": 149664,
          "time": 173.222049,
          "velocity": 0.3937007874015748
        },
        {
          "duration": 0.22222200000001635,
          "durationTicks": 192,
          "midi": 49,
          "name": "C#3",
          "ticks": 149664,
          "time": 173.222049,
          "velocity": 0.3937007874015748
        },
        {
          "duration": 0.22222200000001635,
          "durationTicks": 192,
          "midi": 37,
          "name": "C#2",
          "ticks": 149664,
          "time": 173.222049,
          "velocity": 0.3937007874015748
        },
        {
          "duration": 0.22222199999998793,
          "durationTicks": 192,
          "midi": 37,
          "name": "C#2",
          "ticks": 149856,
          "time": 173.44427100000001,
          "velocity": 0.3937007874015748
        },
        {
          "duration": 0.22222199999998793,
          "durationTicks": 192,
          "midi": 49,
          "name": "C#3",
          "ticks": 149856,
          "time": 173.44427100000001,
          "velocity": 0.3937007874015748
        },
        {
          "duration": 0.22222199999998793,
          "durationTicks": 192,
          "midi": 61,
          "name": "C#4",
          "ticks": 149856,
          "time": 173.44427100000001,
          "velocity": 0.3937007874015748
        },
        {
          "duration": 0.11111099999999396,
          "durationTicks": 96,
          "midi": 37,
          "name": "C#2",
          "ticks": 150048,
          "time": 173.666493,
          "velocity": 0.3937007874015748
        },
        {
          "duration": 0.11111099999999396,
          "durationTicks": 96,
          "midi": 49,
          "name": "C#3",
          "ticks": 150048,
          "time": 173.666493,
          "velocity": 0.3937007874015748
        },
        {
          "duration": 0.11111099999999396,
          "durationTicks": 96,
          "midi": 61,
          "name": "C#4",
          "ticks": 150048,
          "time": 173.666493,
          "velocity": 0.3937007874015748
        },
        {
          "duration": 0.22222200000001635,
          "durationTicks": 192,
          "midi": 61,
          "name": "C#4",
          "ticks": 150144,
          "time": 173.777604,
          "velocity": 0.3937007874015748
        },
        {
          "duration": 0.22222200000001635,
          "durationTicks": 192,
          "midi": 37,
          "name": "C#2",
          "ticks": 150144,
          "time": 173.777604,
          "velocity": 0.3937007874015748
        },
        {
          "duration": 0.22222200000001635,
          "durationTicks": 192,
          "midi": 49,
          "name": "C#3",
          "ticks": 150144,
          "time": 173.777604,
          "velocity": 0.3937007874015748
        },
        {
          "duration": 0.22222199999998793,
          "durationTicks": 192,
          "midi": 49,
          "name": "C#3",
          "ticks": 150336,
          "time": 173.999826,
          "velocity": 0.3937007874015748
        },
        {
          "duration": 0.22222199999998793,
          "durationTicks": 192,
          "midi": 61,
          "name": "C#4",
          "ticks": 150336,
          "time": 173.999826,
          "velocity": 0.3937007874015748
        },
        {
          "duration": 0.22222199999998793,
          "durationTicks": 192,
          "midi": 45,
          "name": "A2",
          "ticks": 150528,
          "time": 174.222048,
          "velocity": 0.3937007874015748
        },
        {
          "duration": 0.22222199999998793,
          "durationTicks": 192,
          "midi": 57,
          "name": "A3",
          "ticks": 150528,
          "time": 174.222048,
          "velocity": 0.3937007874015748
        },
        {
          "duration": 0.22222199999998793,
          "durationTicks": 192,
          "midi": 33,
          "name": "A1",
          "ticks": 150528,
          "time": 174.222048,
          "velocity": 0.3937007874015748
        },
        {
          "duration": 0.22222200000001635,
          "durationTicks": 192,
          "midi": 45,
          "name": "A2",
          "ticks": 150720,
          "time": 174.44427,
          "velocity": 0.3937007874015748
        },
        {
          "duration": 0.22222200000001635,
          "durationTicks": 192,
          "midi": 57,
          "name": "A3",
          "ticks": 150720,
          "time": 174.44427,
          "velocity": 0.3937007874015748
        },
        {
          "duration": 0.22222200000001635,
          "durationTicks": 192,
          "midi": 33,
          "name": "A1",
          "ticks": 150720,
          "time": 174.44427,
          "velocity": 0.3937007874015748
        },
        {
          "duration": 0.11111099999999396,
          "durationTicks": 96,
          "midi": 57,
          "name": "A3",
          "ticks": 150912,
          "time": 174.666492,
          "velocity": 0.3937007874015748
        },
        {
          "duration": 0.11111099999999396,
          "durationTicks": 96,
          "midi": 45,
          "name": "A2",
          "ticks": 150912,
          "time": 174.666492,
          "velocity": 0.3937007874015748
        },
        {
          "duration": 0.11111099999999396,
          "durationTicks": 96,
          "midi": 33,
          "name": "A1",
          "ticks": 150912,
          "time": 174.666492,
          "velocity": 0.3937007874015748
        },
        {
          "duration": 0.11111099999999396,
          "durationTicks": 96,
          "midi": 33,
          "name": "A1",
          "ticks": 151008,
          "time": 174.777603,
          "velocity": 0.3937007874015748
        },
        {
          "duration": 0.11111099999999396,
          "durationTicks": 96,
          "midi": 45,
          "name": "A2",
          "ticks": 151008,
          "time": 174.777603,
          "velocity": 0.3937007874015748
        },
        {
          "duration": 0.11111099999999396,
          "durationTicks": 96,
          "midi": 57,
          "name": "A3",
          "ticks": 151008,
          "time": 174.777603,
          "velocity": 0.3937007874015748
        },
        {
          "duration": 0.11111100000002239,
          "durationTicks": 96,
          "midi": 33,
          "name": "A1",
          "ticks": 151104,
          "time": 174.888714,
          "velocity": 0.3937007874015748
        },
        {
          "duration": 0.11111100000002239,
          "durationTicks": 96,
          "midi": 57,
          "name": "A3",
          "ticks": 151104,
          "time": 174.888714,
          "velocity": 0.3937007874015748
        },
        {
          "duration": 0.11111100000002239,
          "durationTicks": 96,
          "midi": 45,
          "name": "A2",
          "ticks": 151104,
          "time": 174.888714,
          "velocity": 0.3937007874015748
        },
        {
          "duration": 0.22222199999998793,
          "durationTicks": 192,
          "midi": 33,
          "name": "A1",
          "ticks": 151200,
          "time": 174.99982500000002,
          "velocity": 0.3937007874015748
        },
        {
          "duration": 0.22222199999998793,
          "durationTicks": 192,
          "midi": 45,
          "name": "A2",
          "ticks": 151200,
          "time": 174.99982500000002,
          "velocity": 0.3937007874015748
        },
        {
          "duration": 0.22222199999998793,
          "durationTicks": 192,
          "midi": 57,
          "name": "A3",
          "ticks": 151200,
          "time": 174.99982500000002,
          "velocity": 0.3937007874015748
        },
        {
          "duration": 0.22222199999998793,
          "durationTicks": 192,
          "midi": 45,
          "name": "A2",
          "ticks": 151392,
          "time": 175.222047,
          "velocity": 0.3937007874015748
        },
        {
          "duration": 0.22222199999998793,
          "durationTicks": 192,
          "midi": 57,
          "name": "A3",
          "ticks": 151392,
          "time": 175.222047,
          "velocity": 0.3937007874015748
        },
        {
          "duration": 0.22222199999998793,
          "durationTicks": 192,
          "midi": 33,
          "name": "A1",
          "ticks": 151392,
          "time": 175.222047,
          "velocity": 0.3937007874015748
        },
        {
          "duration": 0.11111100000002239,
          "durationTicks": 96,
          "midi": 45,
          "name": "A2",
          "ticks": 151584,
          "time": 175.444269,
          "velocity": 0.3937007874015748
        },
        {
          "duration": 0.11111100000002239,
          "durationTicks": 96,
          "midi": 57,
          "name": "A3",
          "ticks": 151584,
          "time": 175.444269,
          "velocity": 0.3937007874015748
        },
        {
          "duration": 0.11111100000002239,
          "durationTicks": 96,
          "midi": 33,
          "name": "A1",
          "ticks": 151584,
          "time": 175.444269,
          "velocity": 0.3937007874015748
        },
        {
          "duration": 0.22222199999998793,
          "durationTicks": 192,
          "midi": 33,
          "name": "A1",
          "ticks": 151680,
          "time": 175.55538,
          "velocity": 0.3937007874015748
        },
        {
          "duration": 0.22222199999998793,
          "durationTicks": 192,
          "midi": 45,
          "name": "A2",
          "ticks": 151680,
          "time": 175.55538,
          "velocity": 0.3937007874015748
        },
        {
          "duration": 0.22222199999998793,
          "durationTicks": 192,
          "midi": 57,
          "name": "A3",
          "ticks": 151680,
          "time": 175.55538,
          "velocity": 0.3937007874015748
        },
        {
          "duration": 0.22222199999998793,
          "durationTicks": 192,
          "midi": 57,
          "name": "A3",
          "ticks": 151872,
          "time": 175.777602,
          "velocity": 0.3937007874015748
        },
        {
          "duration": 0.22222199999998793,
          "durationTicks": 192,
          "midi": 45,
          "name": "A2",
          "ticks": 151872,
          "time": 175.777602,
          "velocity": 0.3937007874015748
        },
        {
          "duration": 0.22222200000001635,
          "durationTicks": 192,
          "midi": 35,
          "name": "B1",
          "ticks": 152064,
          "time": 175.999824,
          "velocity": 0.3937007874015748
        },
        {
          "duration": 0.22222200000001635,
          "durationTicks": 192,
          "midi": 47,
          "name": "B2",
          "ticks": 152064,
          "time": 175.999824,
          "velocity": 0.3937007874015748
        },
        {
          "duration": 0.22222200000001635,
          "durationTicks": 192,
          "midi": 59,
          "name": "B3",
          "ticks": 152064,
          "time": 175.999824,
          "velocity": 0.3937007874015748
        },
        {
          "duration": 0.22222199999998793,
          "durationTicks": 192,
          "midi": 59,
          "name": "B3",
          "ticks": 152256,
          "time": 176.222046,
          "velocity": 0.3937007874015748
        },
        {
          "duration": 0.22222199999998793,
          "durationTicks": 192,
          "midi": 35,
          "name": "B1",
          "ticks": 152256,
          "time": 176.222046,
          "velocity": 0.3937007874015748
        },
        {
          "duration": 0.22222199999998793,
          "durationTicks": 192,
          "midi": 47,
          "name": "B2",
          "ticks": 152256,
          "time": 176.222046,
          "velocity": 0.3937007874015748
        },
        {
          "duration": 0.11111100000002239,
          "durationTicks": 96,
          "midi": 59,
          "name": "B3",
          "ticks": 152448,
          "time": 176.444268,
          "velocity": 0.3937007874015748
        },
        {
          "duration": 0.11111100000002239,
          "durationTicks": 96,
          "midi": 35,
          "name": "B1",
          "ticks": 152448,
          "time": 176.444268,
          "velocity": 0.3937007874015748
        },
        {
          "duration": 0.11111100000002239,
          "durationTicks": 96,
          "midi": 47,
          "name": "B2",
          "ticks": 152448,
          "time": 176.444268,
          "velocity": 0.3937007874015748
        },
        {
          "duration": 0.11111099999999396,
          "durationTicks": 96,
          "midi": 59,
          "name": "B3",
          "ticks": 152544,
          "time": 176.55537900000002,
          "velocity": 0.3937007874015748
        },
        {
          "duration": 0.11111099999999396,
          "durationTicks": 96,
          "midi": 47,
          "name": "B2",
          "ticks": 152544,
          "time": 176.55537900000002,
          "velocity": 0.3937007874015748
        },
        {
          "duration": 0.11111099999999396,
          "durationTicks": 96,
          "midi": 35,
          "name": "B1",
          "ticks": 152544,
          "time": 176.55537900000002,
          "velocity": 0.3937007874015748
        },
        {
          "duration": 0.11111099999999396,
          "durationTicks": 96,
          "midi": 47,
          "name": "B2",
          "ticks": 152640,
          "time": 176.66649,
          "velocity": 0.3937007874015748
        },
        {
          "duration": 0.11111099999999396,
          "durationTicks": 96,
          "midi": 59,
          "name": "B3",
          "ticks": 152640,
          "time": 176.66649,
          "velocity": 0.3937007874015748
        },
        {
          "duration": 0.11111099999999396,
          "durationTicks": 96,
          "midi": 35,
          "name": "B1",
          "ticks": 152640,
          "time": 176.66649,
          "velocity": 0.3937007874015748
        },
        {
          "duration": 0.22222199999998793,
          "durationTicks": 192,
          "midi": 59,
          "name": "B3",
          "ticks": 152736,
          "time": 176.777601,
          "velocity": 0.3937007874015748
        },
        {
          "duration": 0.22222199999998793,
          "durationTicks": 192,
          "midi": 47,
          "name": "B2",
          "ticks": 152736,
          "time": 176.777601,
          "velocity": 0.3937007874015748
        },
        {
          "duration": 0.22222199999998793,
          "durationTicks": 192,
          "midi": 35,
          "name": "B1",
          "ticks": 152736,
          "time": 176.777601,
          "velocity": 0.3937007874015748
        },
        {
          "duration": 0.22222200000001635,
          "durationTicks": 192,
          "midi": 35,
          "name": "B1",
          "ticks": 152928,
          "time": 176.999823,
          "velocity": 0.3937007874015748
        },
        {
          "duration": 0.22222200000001635,
          "durationTicks": 192,
          "midi": 47,
          "name": "B2",
          "ticks": 152928,
          "time": 176.999823,
          "velocity": 0.3937007874015748
        },
        {
          "duration": 0.22222200000001635,
          "durationTicks": 192,
          "midi": 59,
          "name": "B3",
          "ticks": 152928,
          "time": 176.999823,
          "velocity": 0.3937007874015748
        },
        {
          "duration": 0.11111099999999396,
          "durationTicks": 96,
          "midi": 47,
          "name": "B2",
          "ticks": 153120,
          "time": 177.222045,
          "velocity": 0.3937007874015748
        },
        {
          "duration": 0.11111099999999396,
          "durationTicks": 96,
          "midi": 59,
          "name": "B3",
          "ticks": 153120,
          "time": 177.222045,
          "velocity": 0.3937007874015748
        },
        {
          "duration": 0.11111099999999396,
          "durationTicks": 96,
          "midi": 35,
          "name": "B1",
          "ticks": 153120,
          "time": 177.222045,
          "velocity": 0.3937007874015748
        },
        {
          "duration": 0.22222199999998793,
          "durationTicks": 192,
          "midi": 35,
          "name": "B1",
          "ticks": 153216,
          "time": 177.333156,
          "velocity": 0.3937007874015748
        },
        {
          "duration": 0.22222199999998793,
          "durationTicks": 192,
          "midi": 47,
          "name": "B2",
          "ticks": 153216,
          "time": 177.333156,
          "velocity": 0.3937007874015748
        },
        {
          "duration": 0.22222199999998793,
          "durationTicks": 192,
          "midi": 59,
          "name": "B3",
          "ticks": 153216,
          "time": 177.333156,
          "velocity": 0.3937007874015748
        },
        {
          "duration": 0.22222200000001635,
          "durationTicks": 192,
          "midi": 47,
          "name": "B2",
          "ticks": 153408,
          "time": 177.555378,
          "velocity": 0.3937007874015748
        },
        {
          "duration": 0.22222200000001635,
          "durationTicks": 192,
          "midi": 59,
          "name": "B3",
          "ticks": 153408,
          "time": 177.555378,
          "velocity": 0.3937007874015748
        },
        {
          "duration": 0.22222199999998793,
          "durationTicks": 192,
          "midi": 61,
          "name": "C#4",
          "ticks": 153600,
          "time": 177.7776,
          "velocity": 0.3937007874015748
        },
        {
          "duration": 0.22222199999998793,
          "durationTicks": 192,
          "midi": 49,
          "name": "C#3",
          "ticks": 153600,
          "time": 177.7776,
          "velocity": 0.3937007874015748
        },
        {
          "duration": 0.22222200000001635,
          "durationTicks": 192,
          "midi": 49,
          "name": "C#3",
          "ticks": 153792,
          "time": 177.999822,
          "velocity": 0.3937007874015748
        },
        {
          "duration": 0.22222200000001635,
          "durationTicks": 192,
          "midi": 61,
          "name": "C#4",
          "ticks": 153792,
          "time": 177.999822,
          "velocity": 0.3937007874015748
        },
        {
          "duration": 0.11111099999999396,
          "durationTicks": 96,
          "midi": 49,
          "name": "C#3",
          "ticks": 153984,
          "time": 178.222044,
          "velocity": 0.3937007874015748
        },
        {
          "duration": 0.11111099999999396,
          "durationTicks": 96,
          "midi": 61,
          "name": "C#4",
          "ticks": 153984,
          "time": 178.222044,
          "velocity": 0.3937007874015748
        },
        {
          "duration": 0.11111099999999396,
          "durationTicks": 96,
          "midi": 61,
          "name": "C#4",
          "ticks": 154080,
          "time": 178.333155,
          "velocity": 0.3937007874015748
        },
        {
          "duration": 0.11111099999999396,
          "durationTicks": 96,
          "midi": 49,
          "name": "C#3",
          "ticks": 154080,
          "time": 178.333155,
          "velocity": 0.3937007874015748
        },
        {
          "duration": 0.11111099999999396,
          "durationTicks": 96,
          "midi": 49,
          "name": "C#3",
          "ticks": 154176,
          "time": 178.444266,
          "velocity": 0.3937007874015748
        },
        {
          "duration": 0.11111099999999396,
          "durationTicks": 96,
          "midi": 61,
          "name": "C#4",
          "ticks": 154176,
          "time": 178.444266,
          "velocity": 0.3937007874015748
        },
        {
          "duration": 0.22222200000001635,
          "durationTicks": 192,
          "midi": 60,
          "name": "C4",
          "ticks": 154272,
          "time": 178.555377,
          "velocity": 0.3937007874015748
        },
        {
          "duration": 0.22222200000001635,
          "durationTicks": 192,
          "midi": 36,
          "name": "C2",
          "ticks": 154272,
          "time": 178.555377,
          "velocity": 0.3937007874015748
        },
        {
          "duration": 0.22222200000001635,
          "durationTicks": 192,
          "midi": 48,
          "name": "C3",
          "ticks": 154272,
          "time": 178.555377,
          "velocity": 0.3937007874015748
        },
        {
          "duration": 0.22222199999998793,
          "durationTicks": 192,
          "midi": 48,
          "name": "C3",
          "ticks": 154464,
          "time": 178.777599,
          "velocity": 0.3937007874015748
        },
        {
          "duration": 0.22222199999998793,
          "durationTicks": 192,
          "midi": 36,
          "name": "C2",
          "ticks": 154464,
          "time": 178.777599,
          "velocity": 0.3937007874015748
        },
        {
          "duration": 0.22222199999998793,
          "durationTicks": 192,
          "midi": 60,
          "name": "C4",
          "ticks": 154464,
          "time": 178.777599,
          "velocity": 0.3937007874015748
        },
        {
          "duration": 0.11111099999999396,
          "durationTicks": 96,
          "midi": 36,
          "name": "C2",
          "ticks": 154656,
          "time": 178.999821,
          "velocity": 0.3937007874015748
        },
        {
          "duration": 0.11111099999999396,
          "durationTicks": 96,
          "midi": 48,
          "name": "C3",
          "ticks": 154656,
          "time": 178.999821,
          "velocity": 0.3937007874015748
        },
        {
          "duration": 0.11111099999999396,
          "durationTicks": 96,
          "midi": 60,
          "name": "C4",
          "ticks": 154656,
          "time": 178.999821,
          "velocity": 0.3937007874015748
        },
        {
          "duration": 0.22222200000001635,
          "durationTicks": 192,
          "midi": 60,
          "name": "C4",
          "ticks": 154752,
          "time": 179.110932,
          "velocity": 0.3937007874015748
        },
        {
          "duration": 0.22222200000001635,
          "durationTicks": 192,
          "midi": 36,
          "name": "C2",
          "ticks": 154752,
          "time": 179.110932,
          "velocity": 0.3937007874015748
        },
        {
          "duration": 0.22222200000001635,
          "durationTicks": 192,
          "midi": 48,
          "name": "C3",
          "ticks": 154752,
          "time": 179.110932,
          "velocity": 0.3937007874015748
        },
        {
          "duration": 0.22222199999998793,
          "durationTicks": 192,
          "midi": 60,
          "name": "C4",
          "ticks": 154944,
          "time": 179.333154,
          "velocity": 0.3937007874015748
        },
        {
          "duration": 0.22222199999998793,
          "durationTicks": 192,
          "midi": 48,
          "name": "C3",
          "ticks": 154944,
          "time": 179.333154,
          "velocity": 0.3937007874015748
        },
        {
          "duration": 0.22222200000001635,
          "durationTicks": 192,
          "midi": 59,
          "name": "B3",
          "ticks": 155136,
          "time": 179.555376,
          "velocity": 0.3937007874015748
        },
        {
          "duration": 0.22222200000001635,
          "durationTicks": 192,
          "midi": 47,
          "name": "B2",
          "ticks": 155136,
          "time": 179.555376,
          "velocity": 0.3937007874015748
        },
        {
          "duration": 0.22222200000001635,
          "durationTicks": 192,
          "midi": 35,
          "name": "B1",
          "ticks": 155136,
          "time": 179.555376,
          "velocity": 0.3937007874015748
        },
        {
          "duration": 0.22222199999998793,
          "durationTicks": 192,
          "midi": 59,
          "name": "B3",
          "ticks": 155328,
          "time": 179.777598,
          "velocity": 0.3937007874015748
        },
        {
          "duration": 0.22222199999998793,
          "durationTicks": 192,
          "midi": 35,
          "name": "B1",
          "ticks": 155328,
          "time": 179.777598,
          "velocity": 0.3937007874015748
        },
        {
          "duration": 0.22222199999998793,
          "durationTicks": 192,
          "midi": 47,
          "name": "B2",
          "ticks": 155328,
          "time": 179.777598,
          "velocity": 0.3937007874015748
        },
        {
          "duration": 0.11111099999999396,
          "durationTicks": 96,
          "midi": 35,
          "name": "B1",
          "ticks": 155520,
          "time": 179.99982,
          "velocity": 0.3937007874015748
        },
        {
          "duration": 0.11111099999999396,
          "durationTicks": 96,
          "midi": 59,
          "name": "B3",
          "ticks": 155520,
          "time": 179.99982,
          "velocity": 0.3937007874015748
        },
        {
          "duration": 0.11111099999999396,
          "durationTicks": 96,
          "midi": 47,
          "name": "B2",
          "ticks": 155520,
          "time": 179.99982,
          "velocity": 0.3937007874015748
        },
        {
          "duration": 0.11111100000002239,
          "durationTicks": 96,
          "midi": 47,
          "name": "B2",
          "ticks": 155616,
          "time": 180.110931,
          "velocity": 0.3937007874015748
        },
        {
          "duration": 0.11111100000002239,
          "durationTicks": 96,
          "midi": 35,
          "name": "B1",
          "ticks": 155616,
          "time": 180.110931,
          "velocity": 0.3937007874015748
        },
        {
          "duration": 0.11111100000002239,
          "durationTicks": 96,
          "midi": 59,
          "name": "B3",
          "ticks": 155616,
          "time": 180.110931,
          "velocity": 0.3937007874015748
        },
        {
          "duration": 0.11111099999999396,
          "durationTicks": 96,
          "midi": 59,
          "name": "B3",
          "ticks": 155712,
          "time": 180.22204200000002,
          "velocity": 0.3937007874015748
        },
        {
          "duration": 0.11111099999999396,
          "durationTicks": 96,
          "midi": 47,
          "name": "B2",
          "ticks": 155712,
          "time": 180.22204200000002,
          "velocity": 0.3937007874015748
        },
        {
          "duration": 0.11111099999999396,
          "durationTicks": 96,
          "midi": 35,
          "name": "B1",
          "ticks": 155712,
          "time": 180.22204200000002,
          "velocity": 0.3937007874015748
        },
        {
          "duration": 0.22222199999998793,
          "durationTicks": 192,
          "midi": 34,
          "name": "A#1",
          "ticks": 155808,
          "time": 180.333153,
          "velocity": 0.3937007874015748
        },
        {
          "duration": 0.22222199999998793,
          "durationTicks": 192,
          "midi": 46,
          "name": "A#2",
          "ticks": 155808,
          "time": 180.333153,
          "velocity": 0.3937007874015748
        },
        {
          "duration": 0.22222199999998793,
          "durationTicks": 192,
          "midi": 58,
          "name": "A#3",
          "ticks": 155808,
          "time": 180.333153,
          "velocity": 0.3937007874015748
        },
        {
          "duration": 0.22222200000001635,
          "durationTicks": 192,
          "midi": 46,
          "name": "A#2",
          "ticks": 156000,
          "time": 180.555375,
          "velocity": 0.3937007874015748
        },
        {
          "duration": 0.22222200000001635,
          "durationTicks": 192,
          "midi": 58,
          "name": "A#3",
          "ticks": 156000,
          "time": 180.555375,
          "velocity": 0.3937007874015748
        },
        {
          "duration": 0.22222200000001635,
          "durationTicks": 192,
          "midi": 34,
          "name": "A#1",
          "ticks": 156000,
          "time": 180.555375,
          "velocity": 0.3937007874015748
        },
        {
          "duration": 0.11111099999999396,
          "durationTicks": 96,
          "midi": 34,
          "name": "A#1",
          "ticks": 156192,
          "time": 180.77759700000001,
          "velocity": 0.3937007874015748
        },
        {
          "duration": 0.11111099999999396,
          "durationTicks": 96,
          "midi": 46,
          "name": "A#2",
          "ticks": 156192,
          "time": 180.77759700000001,
          "velocity": 0.3937007874015748
        },
        {
          "duration": 0.11111099999999396,
          "durationTicks": 96,
          "midi": 58,
          "name": "A#3",
          "ticks": 156192,
          "time": 180.77759700000001,
          "velocity": 0.3937007874015748
        },
        {
          "duration": 0.22222199999998793,
          "durationTicks": 192,
          "midi": 34,
          "name": "A#1",
          "ticks": 156288,
          "time": 180.888708,
          "velocity": 0.3937007874015748
        },
        {
          "duration": 0.22222199999998793,
          "durationTicks": 192,
          "midi": 46,
          "name": "A#2",
          "ticks": 156288,
          "time": 180.888708,
          "velocity": 0.3937007874015748
        },
        {
          "duration": 0.22222199999998793,
          "durationTicks": 192,
          "midi": 58,
          "name": "A#3",
          "ticks": 156288,
          "time": 180.888708,
          "velocity": 0.3937007874015748
        },
        {
          "duration": 0.22222200000001635,
          "durationTicks": 192,
          "midi": 58,
          "name": "A#3",
          "ticks": 156480,
          "time": 181.11093,
          "velocity": 0.3937007874015748
        },
        {
          "duration": 0.22222200000001635,
          "durationTicks": 192,
          "midi": 46,
          "name": "A#2",
          "ticks": 156480,
          "time": 181.11093,
          "velocity": 0.3937007874015748
        },
        {
          "duration": 0.22222199999998793,
          "durationTicks": 192,
          "midi": 33,
          "name": "A1",
          "ticks": 156672,
          "time": 181.333152,
          "velocity": 0.3937007874015748
        },
        {
          "duration": 0.22222199999998793,
          "durationTicks": 192,
          "midi": 45,
          "name": "A2",
          "ticks": 156672,
          "time": 181.333152,
          "velocity": 0.3937007874015748
        },
        {
          "duration": 0.22222199999998793,
          "durationTicks": 192,
          "midi": 57,
          "name": "A3",
          "ticks": 156672,
          "time": 181.333152,
          "velocity": 0.3937007874015748
        },
        {
          "duration": 0.22222199999998793,
          "durationTicks": 192,
          "midi": 45,
          "name": "A2",
          "ticks": 156864,
          "time": 181.555374,
          "velocity": 0.3937007874015748
        },
        {
          "duration": 0.22222199999998793,
          "durationTicks": 192,
          "midi": 57,
          "name": "A3",
          "ticks": 156864,
          "time": 181.555374,
          "velocity": 0.3937007874015748
        },
        {
          "duration": 0.22222199999998793,
          "durationTicks": 192,
          "midi": 33,
          "name": "A1",
          "ticks": 156864,
          "time": 181.555374,
          "velocity": 0.3937007874015748
        },
        {
          "duration": 0.11111100000002239,
          "durationTicks": 96,
          "midi": 33,
          "name": "A1",
          "ticks": 157056,
          "time": 181.777596,
          "velocity": 0.3937007874015748
        },
        {
          "duration": 0.11111100000002239,
          "durationTicks": 96,
          "midi": 45,
          "name": "A2",
          "ticks": 157056,
          "time": 181.777596,
          "velocity": 0.3937007874015748
        },
        {
          "duration": 0.11111100000002239,
          "durationTicks": 96,
          "midi": 57,
          "name": "A3",
          "ticks": 157056,
          "time": 181.777596,
          "velocity": 0.3937007874015748
        },
        {
          "duration": 0.11111099999999396,
          "durationTicks": 96,
          "midi": 45,
          "name": "A2",
          "ticks": 157152,
          "time": 181.888707,
          "velocity": 0.3937007874015748
        },
        {
          "duration": 0.11111099999999396,
          "durationTicks": 96,
          "midi": 57,
          "name": "A3",
          "ticks": 157152,
          "time": 181.888707,
          "velocity": 0.3937007874015748
        },
        {
          "duration": 0.11111099999999396,
          "durationTicks": 96,
          "midi": 33,
          "name": "A1",
          "ticks": 157152,
          "time": 181.888707,
          "velocity": 0.3937007874015748
        },
        {
          "duration": 0.11111099999999396,
          "durationTicks": 96,
          "midi": 45,
          "name": "A2",
          "ticks": 157248,
          "time": 181.999818,
          "velocity": 0.3937007874015748
        },
        {
          "duration": 0.11111099999999396,
          "durationTicks": 96,
          "midi": 33,
          "name": "A1",
          "ticks": 157248,
          "time": 181.999818,
          "velocity": 0.3937007874015748
        },
        {
          "duration": 0.11111099999999396,
          "durationTicks": 96,
          "midi": 57,
          "name": "A3",
          "ticks": 157248,
          "time": 181.999818,
          "velocity": 0.3937007874015748
        },
        {
          "duration": 0.22222200000001635,
          "durationTicks": 192,
          "midi": 45,
          "name": "A2",
          "ticks": 157344,
          "time": 182.110929,
          "velocity": 0.3937007874015748
        },
        {
          "duration": 0.22222200000001635,
          "durationTicks": 192,
          "midi": 57,
          "name": "A3",
          "ticks": 157344,
          "time": 182.110929,
          "velocity": 0.3937007874015748
        },
        {
          "duration": 0.22222200000001635,
          "durationTicks": 192,
          "midi": 33,
          "name": "A1",
          "ticks": 157344,
          "time": 182.110929,
          "velocity": 0.3937007874015748
        },
        {
          "duration": 0.22222199999998793,
          "durationTicks": 192,
          "midi": 33,
          "name": "A1",
          "ticks": 157536,
          "time": 182.33315100000002,
          "velocity": 0.3937007874015748
        },
        {
          "duration": 0.22222199999998793,
          "durationTicks": 192,
          "midi": 45,
          "name": "A2",
          "ticks": 157536,
          "time": 182.33315100000002,
          "velocity": 0.3937007874015748
        },
        {
          "duration": 0.22222199999998793,
          "durationTicks": 192,
          "midi": 57,
          "name": "A3",
          "ticks": 157536,
          "time": 182.33315100000002,
          "velocity": 0.3937007874015748
        },
        {
          "duration": 0.11111099999999396,
          "durationTicks": 96,
          "midi": 57,
          "name": "A3",
          "ticks": 157728,
          "time": 182.555373,
          "velocity": 0.3937007874015748
        },
        {
          "duration": 0.11111099999999396,
          "durationTicks": 96,
          "midi": 45,
          "name": "A2",
          "ticks": 157728,
          "time": 182.555373,
          "velocity": 0.3937007874015748
        },
        {
          "duration": 0.11111099999999396,
          "durationTicks": 96,
          "midi": 33,
          "name": "A1",
          "ticks": 157728,
          "time": 182.555373,
          "velocity": 0.3937007874015748
        },
        {
          "duration": 0.22222200000001635,
          "durationTicks": 192,
          "midi": 57,
          "name": "A3",
          "ticks": 157824,
          "time": 182.666484,
          "velocity": 0.3937007874015748
        },
        {
          "duration": 0.22222200000001635,
          "durationTicks": 192,
          "midi": 33,
          "name": "A1",
          "ticks": 157824,
          "time": 182.666484,
          "velocity": 0.3937007874015748
        },
        {
          "duration": 0.22222200000001635,
          "durationTicks": 192,
          "midi": 45,
          "name": "A2",
          "ticks": 157824,
          "time": 182.666484,
          "velocity": 0.3937007874015748
        },
        {
          "duration": 0.22222199999998793,
          "durationTicks": 192,
          "midi": 45,
          "name": "A2",
          "ticks": 158016,
          "time": 182.888706,
          "velocity": 0.3937007874015748
        },
        {
          "duration": 0.22222199999998793,
          "durationTicks": 192,
          "midi": 57,
          "name": "A3",
          "ticks": 158016,
          "time": 182.888706,
          "velocity": 0.3937007874015748
        },
        {
          "duration": 0.22222199999998793,
          "durationTicks": 192,
          "midi": 59,
          "name": "B3",
          "ticks": 158208,
          "time": 183.110928,
          "velocity": 0.3937007874015748
        },
        {
          "duration": 0.22222199999998793,
          "durationTicks": 192,
          "midi": 35,
          "name": "B1",
          "ticks": 158208,
          "time": 183.110928,
          "velocity": 0.3937007874015748
        },
        {
          "duration": 0.22222199999998793,
          "durationTicks": 192,
          "midi": 47,
          "name": "B2",
          "ticks": 158208,
          "time": 183.110928,
          "velocity": 0.3937007874015748
        },
        {
          "duration": 0.22222200000001635,
          "durationTicks": 192,
          "midi": 59,
          "name": "B3",
          "ticks": 158400,
          "time": 183.33315,
          "velocity": 0.3937007874015748
        },
        {
          "duration": 0.22222200000001635,
          "durationTicks": 192,
          "midi": 35,
          "name": "B1",
          "ticks": 158400,
          "time": 183.33315,
          "velocity": 0.3937007874015748
        },
        {
          "duration": 0.22222200000001635,
          "durationTicks": 192,
          "midi": 47,
          "name": "B2",
          "ticks": 158400,
          "time": 183.33315,
          "velocity": 0.3937007874015748
        },
        {
          "duration": 0.11111099999999396,
          "durationTicks": 96,
          "midi": 59,
          "name": "B3",
          "ticks": 158592,
          "time": 183.555372,
          "velocity": 0.3937007874015748
        },
        {
          "duration": 0.11111099999999396,
          "durationTicks": 96,
          "midi": 35,
          "name": "B1",
          "ticks": 158592,
          "time": 183.555372,
          "velocity": 0.3937007874015748
        },
        {
          "duration": 0.11111099999999396,
          "durationTicks": 96,
          "midi": 47,
          "name": "B2",
          "ticks": 158592,
          "time": 183.555372,
          "velocity": 0.3937007874015748
        },
        {
          "duration": 0.11111099999999396,
          "durationTicks": 96,
          "midi": 59,
          "name": "B3",
          "ticks": 158688,
          "time": 183.666483,
          "velocity": 0.3937007874015748
        },
        {
          "duration": 0.11111099999999396,
          "durationTicks": 96,
          "midi": 47,
          "name": "B2",
          "ticks": 158688,
          "time": 183.666483,
          "velocity": 0.3937007874015748
        },
        {
          "duration": 0.11111099999999396,
          "durationTicks": 96,
          "midi": 35,
          "name": "B1",
          "ticks": 158688,
          "time": 183.666483,
          "velocity": 0.3937007874015748
        },
        {
          "duration": 0.11111100000002239,
          "durationTicks": 96,
          "midi": 47,
          "name": "B2",
          "ticks": 158784,
          "time": 183.777594,
          "velocity": 0.3937007874015748
        },
        {
          "duration": 0.11111100000002239,
          "durationTicks": 96,
          "midi": 59,
          "name": "B3",
          "ticks": 158784,
          "time": 183.777594,
          "velocity": 0.3937007874015748
        },
        {
          "duration": 0.11111100000002239,
          "durationTicks": 96,
          "midi": 35,
          "name": "B1",
          "ticks": 158784,
          "time": 183.777594,
          "velocity": 0.3937007874015748
        },
        {
          "duration": 0.22222199999998793,
          "durationTicks": 192,
          "midi": 35,
          "name": "B1",
          "ticks": 158880,
          "time": 183.88870500000002,
          "velocity": 0.3937007874015748
        },
        {
          "duration": 0.22222199999998793,
          "durationTicks": 192,
          "midi": 47,
          "name": "B2",
          "ticks": 158880,
          "time": 183.88870500000002,
          "velocity": 0.3937007874015748
        },
        {
          "duration": 0.22222199999998793,
          "durationTicks": 192,
          "midi": 59,
          "name": "B3",
          "ticks": 158880,
          "time": 183.88870500000002,
          "velocity": 0.3937007874015748
        },
        {
          "duration": 0.22222199999998793,
          "durationTicks": 192,
          "midi": 59,
          "name": "B3",
          "ticks": 159072,
          "time": 184.110927,
          "velocity": 0.3937007874015748
        },
        {
          "duration": 0.22222199999998793,
          "durationTicks": 192,
          "midi": 47,
          "name": "B2",
          "ticks": 159072,
          "time": 184.110927,
          "velocity": 0.3937007874015748
        },
        {
          "duration": 0.22222199999998793,
          "durationTicks": 192,
          "midi": 35,
          "name": "B1",
          "ticks": 159072,
          "time": 184.110927,
          "velocity": 0.3937007874015748
        },
        {
          "duration": 0.11111100000002239,
          "durationTicks": 96,
          "midi": 35,
          "name": "B1",
          "ticks": 159264,
          "time": 184.333149,
          "velocity": 0.3937007874015748
        },
        {
          "duration": 0.11111100000002239,
          "durationTicks": 96,
          "midi": 47,
          "name": "B2",
          "ticks": 159264,
          "time": 184.333149,
          "velocity": 0.3937007874015748
        },
        {
          "duration": 0.11111100000002239,
          "durationTicks": 96,
          "midi": 59,
          "name": "B3",
          "ticks": 159264,
          "time": 184.333149,
          "velocity": 0.3937007874015748
        },
        {
          "duration": 0.22222199999998793,
          "durationTicks": 192,
          "midi": 35,
          "name": "B1",
          "ticks": 159360,
          "time": 184.44426,
          "velocity": 0.3937007874015748
        },
        {
          "duration": 0.22222199999998793,
          "durationTicks": 192,
          "midi": 47,
          "name": "B2",
          "ticks": 159360,
          "time": 184.44426,
          "velocity": 0.3937007874015748
        },
        {
          "duration": 0.22222199999998793,
          "durationTicks": 192,
          "midi": 59,
          "name": "B3",
          "ticks": 159360,
          "time": 184.44426,
          "velocity": 0.3937007874015748
        },
        {
          "duration": 0.22222199999998793,
          "durationTicks": 192,
          "midi": 59,
          "name": "B3",
          "ticks": 159552,
          "time": 184.666482,
          "velocity": 0.3937007874015748
        },
        {
          "duration": 0.22222199999998793,
          "durationTicks": 192,
          "midi": 47,
          "name": "B2",
          "ticks": 159552,
          "time": 184.666482,
          "velocity": 0.3937007874015748
        },
        {
          "duration": 0.22222200000001635,
          "durationTicks": 192,
          "midi": 37,
          "name": "C#2",
          "ticks": 159744,
          "time": 184.888704,
          "velocity": 0.3937007874015748
        },
        {
          "duration": 0.22222200000001635,
          "durationTicks": 192,
          "midi": 49,
          "name": "C#3",
          "ticks": 159744,
          "time": 184.888704,
          "velocity": 0.3937007874015748
        },
        {
          "duration": 0.22222200000001635,
          "durationTicks": 192,
          "midi": 61,
          "name": "C#4",
          "ticks": 159744,
          "time": 184.888704,
          "velocity": 0.3937007874015748
        },
        {
          "duration": 0.22222199999998793,
          "durationTicks": 192,
          "midi": 61,
          "name": "C#4",
          "ticks": 159936,
          "time": 185.110926,
          "velocity": 0.3937007874015748
        },
        {
          "duration": 0.22222199999998793,
          "durationTicks": 192,
          "midi": 49,
          "name": "C#3",
          "ticks": 159936,
          "time": 185.110926,
          "velocity": 0.3937007874015748
        },
        {
          "duration": 0.22222199999998793,
          "durationTicks": 192,
          "midi": 37,
          "name": "C#2",
          "ticks": 159936,
          "time": 185.110926,
          "velocity": 0.3937007874015748
        },
        {
          "duration": 0.11111099999999396,
          "durationTicks": 96,
          "midi": 49,
          "name": "C#3",
          "ticks": 160128,
          "time": 185.333148,
          "velocity": 0.3937007874015748
        },
        {
          "duration": 0.11111099999999396,
          "durationTicks": 96,
          "midi": 37,
          "name": "C#2",
          "ticks": 160128,
          "time": 185.333148,
          "velocity": 0.3937007874015748
        },
        {
          "duration": 0.11111099999999396,
          "durationTicks": 96,
          "midi": 61,
          "name": "C#4",
          "ticks": 160128,
          "time": 185.333148,
          "velocity": 0.3937007874015748
        },
        {
          "duration": 0.11111100000002239,
          "durationTicks": 96,
          "midi": 61,
          "name": "C#4",
          "ticks": 160224,
          "time": 185.444259,
          "velocity": 0.3937007874015748
        },
        {
          "duration": 0.11111100000002239,
          "durationTicks": 96,
          "midi": 37,
          "name": "C#2",
          "ticks": 160224,
          "time": 185.444259,
          "velocity": 0.3937007874015748
        },
        {
          "duration": 0.11111100000002239,
          "durationTicks": 96,
          "midi": 49,
          "name": "C#3",
          "ticks": 160224,
          "time": 185.444259,
          "velocity": 0.3937007874015748
        },
        {
          "duration": 0.11111099999999396,
          "durationTicks": 96,
          "midi": 37,
          "name": "C#2",
          "ticks": 160320,
          "time": 185.55537,
          "velocity": 0.3937007874015748
        },
        {
          "duration": 0.11111099999999396,
          "durationTicks": 96,
          "midi": 61,
          "name": "C#4",
          "ticks": 160320,
          "time": 185.55537,
          "velocity": 0.3937007874015748
        },
        {
          "duration": 0.11111099999999396,
          "durationTicks": 96,
          "midi": 49,
          "name": "C#3",
          "ticks": 160320,
          "time": 185.55537,
          "velocity": 0.3937007874015748
        },
        {
          "duration": 0.22222199999998793,
          "durationTicks": 192,
          "midi": 61,
          "name": "C#4",
          "ticks": 160416,
          "time": 185.666481,
          "velocity": 0.3937007874015748
        },
        {
          "duration": 0.22222199999998793,
          "durationTicks": 192,
          "midi": 49,
          "name": "C#3",
          "ticks": 160416,
          "time": 185.666481,
          "velocity": 0.3937007874015748
        },
        {
          "duration": 0.22222199999998793,
          "durationTicks": 192,
          "midi": 37,
          "name": "C#2",
          "ticks": 160416,
          "time": 185.666481,
          "velocity": 0.3937007874015748
        },
        {
          "duration": 0.22222200000001635,
          "durationTicks": 192,
          "midi": 37,
          "name": "C#2",
          "ticks": 160608,
          "time": 185.888703,
          "velocity": 0.3937007874015748
        },
        {
          "duration": 0.22222200000001635,
          "durationTicks": 192,
          "midi": 49,
          "name": "C#3",
          "ticks": 160608,
          "time": 185.888703,
          "velocity": 0.3937007874015748
        },
        {
          "duration": 0.22222200000001635,
          "durationTicks": 192,
          "midi": 61,
          "name": "C#4",
          "ticks": 160608,
          "time": 185.888703,
          "velocity": 0.3937007874015748
        },
        {
          "duration": 0.11111099999999396,
          "durationTicks": 96,
          "midi": 61,
          "name": "C#4",
          "ticks": 160800,
          "time": 186.110925,
          "velocity": 0.3937007874015748
        },
        {
          "duration": 0.11111099999999396,
          "durationTicks": 96,
          "midi": 49,
          "name": "C#3",
          "ticks": 160800,
          "time": 186.110925,
          "velocity": 0.3937007874015748
        },
        {
          "duration": 0.11111099999999396,
          "durationTicks": 96,
          "midi": 37,
          "name": "C#2",
          "ticks": 160800,
          "time": 186.110925,
          "velocity": 0.3937007874015748
        },
        {
          "duration": 0.22222199999998793,
          "durationTicks": 192,
          "midi": 49,
          "name": "C#3",
          "ticks": 160896,
          "time": 186.222036,
          "velocity": 0.3937007874015748
        },
        {
          "duration": 0.22222199999998793,
          "durationTicks": 192,
          "midi": 61,
          "name": "C#4",
          "ticks": 160896,
          "time": 186.222036,
          "velocity": 0.3937007874015748
        },
        {
          "duration": 0.22222199999998793,
          "durationTicks": 192,
          "midi": 37,
          "name": "C#2",
          "ticks": 160896,
          "time": 186.222036,
          "velocity": 0.3937007874015748
        },
        {
          "duration": 0.22222200000001635,
          "durationTicks": 192,
          "midi": 73,
          "name": "C#5",
          "ticks": 161088,
          "time": 186.444258,
          "velocity": 0.3937007874015748
        },
        {
          "duration": 0.22222200000001635,
          "durationTicks": 192,
          "midi": 49,
          "name": "C#3",
          "ticks": 161088,
          "time": 186.444258,
          "velocity": 0.3937007874015748
        },
        {
          "duration": 0.22222200000001635,
          "durationTicks": 192,
          "midi": 61,
          "name": "C#4",
          "ticks": 161088,
          "time": 186.444258,
          "velocity": 0.3937007874015748
        },
        {
          "duration": 0.22222199999998793,
          "durationTicks": 192,
          "midi": 61,
          "name": "C#4",
          "ticks": 161280,
          "time": 186.66648,
          "velocity": 0.3937007874015748
        },
        {
          "duration": 0.22222199999998793,
          "durationTicks": 192,
          "midi": 37,
          "name": "C#2",
          "ticks": 161280,
          "time": 186.66648,
          "velocity": 0.3937007874015748
        },
        {
          "duration": 0.22222199999998793,
          "durationTicks": 192,
          "midi": 49,
          "name": "C#3",
          "ticks": 161280,
          "time": 186.66648,
          "velocity": 0.3937007874015748
        },
        {
          "duration": 0.22222200000001635,
          "durationTicks": 192,
          "midi": 49,
          "name": "C#3",
          "ticks": 161472,
          "time": 186.888702,
          "velocity": 0.3937007874015748
        },
        {
          "duration": 0.22222200000001635,
          "durationTicks": 192,
          "midi": 61,
          "name": "C#4",
          "ticks": 161472,
          "time": 186.888702,
          "velocity": 0.3937007874015748
        },
        {
          "duration": 0.22222200000001635,
          "durationTicks": 192,
          "midi": 37,
          "name": "C#2",
          "ticks": 161472,
          "time": 186.888702,
          "velocity": 0.3937007874015748
        },
        {
          "duration": 0.11111099999999396,
          "durationTicks": 96,
          "midi": 61,
          "name": "C#4",
          "ticks": 161664,
          "time": 187.110924,
          "velocity": 0.3937007874015748
        },
        {
          "duration": 0.11111099999999396,
          "durationTicks": 96,
          "midi": 37,
          "name": "C#2",
          "ticks": 161664,
          "time": 187.110924,
          "velocity": 0.3937007874015748
        },
        {
          "duration": 0.11111099999999396,
          "durationTicks": 96,
          "midi": 49,
          "name": "C#3",
          "ticks": 161664,
          "time": 187.110924,
          "velocity": 0.3937007874015748
        },
        {
          "duration": 0.11111099999999396,
          "durationTicks": 96,
          "midi": 61,
          "name": "C#4",
          "ticks": 161760,
          "time": 187.222035,
          "velocity": 0.3937007874015748
        },
        {
          "duration": 0.11111099999999396,
          "durationTicks": 96,
          "midi": 37,
          "name": "C#2",
          "ticks": 161760,
          "time": 187.222035,
          "velocity": 0.3937007874015748
        },
        {
          "duration": 0.11111099999999396,
          "durationTicks": 96,
          "midi": 49,
          "name": "C#3",
          "ticks": 161760,
          "time": 187.222035,
          "velocity": 0.3937007874015748
        },
        {
          "duration": 0.11111099999999396,
          "durationTicks": 96,
          "midi": 49,
          "name": "C#3",
          "ticks": 161856,
          "time": 187.333146,
          "velocity": 0.3937007874015748
        },
        {
          "duration": 0.11111099999999396,
          "durationTicks": 96,
          "midi": 37,
          "name": "C#2",
          "ticks": 161856,
          "time": 187.333146,
          "velocity": 0.3937007874015748
        },
        {
          "duration": 0.11111099999999396,
          "durationTicks": 96,
          "midi": 61,
          "name": "C#4",
          "ticks": 161856,
          "time": 187.333146,
          "velocity": 0.3937007874015748
        },
        {
          "duration": 0.22222200000001635,
          "durationTicks": 192,
          "midi": 37,
          "name": "C#2",
          "ticks": 161952,
          "time": 187.444257,
          "velocity": 0.3937007874015748
        },
        {
          "duration": 0.22222200000001635,
          "durationTicks": 192,
          "midi": 49,
          "name": "C#3",
          "ticks": 161952,
          "time": 187.444257,
          "velocity": 0.3937007874015748
        },
        {
          "duration": 0.22222200000001635,
          "durationTicks": 192,
          "midi": 61,
          "name": "C#4",
          "ticks": 161952,
          "time": 187.444257,
          "velocity": 0.3937007874015748
        },
        {
          "duration": 0.22222199999998793,
          "durationTicks": 192,
          "midi": 49,
          "name": "C#3",
          "ticks": 162144,
          "time": 187.666479,
          "velocity": 0.3937007874015748
        },
        {
          "duration": 0.22222199999998793,
          "durationTicks": 192,
          "midi": 37,
          "name": "C#2",
          "ticks": 162144,
          "time": 187.666479,
          "velocity": 0.3937007874015748
        },
        {
          "duration": 0.11111099999999396,
          "durationTicks": 96,
          "midi": 49,
          "name": "C#3",
          "ticks": 162336,
          "time": 187.888701,
          "velocity": 0.3937007874015748
        },
        {
          "duration": 0.11111099999999396,
          "durationTicks": 96,
          "midi": 37,
          "name": "C#2",
          "ticks": 162336,
          "time": 187.888701,
          "velocity": 0.3937007874015748
        },
        {
          "duration": 0.22222200000001635,
          "durationTicks": 192,
          "midi": 37,
          "name": "C#2",
          "ticks": 162432,
          "time": 187.999812,
          "velocity": 0.3937007874015748
        },
        {
          "duration": 0.22222200000001635,
          "durationTicks": 192,
          "midi": 49,
          "name": "C#3",
          "ticks": 162432,
          "time": 187.999812,
          "velocity": 0.3937007874015748
        },
        {
          "duration": 0.22222199999998793,
          "durationTicks": 192,
          "midi": 73,
          "name": "C#5",
          "ticks": 162624,
          "time": 188.222034,
          "velocity": 0.3937007874015748
        },
        {
          "duration": 0.22222199999998793,
          "durationTicks": 192,
          "midi": 49,
          "name": "C#3",
          "ticks": 162624,
          "time": 188.222034,
          "velocity": 0.3937007874015748
        },
        {
          "duration": 1.6666649999999947,
          "durationTicks": 1440,
          "midi": 45,
          "name": "A2",
          "ticks": 164352,
          "time": 190.222032,
          "velocity": 0.3937007874015748
        },
        {
          "duration": 1.6666649999999947,
          "durationTicks": 1440,
          "midi": 57,
          "name": "A3",
          "ticks": 164352,
          "time": 190.222032,
          "velocity": 0.3937007874015748
        },
        {
          "duration": 1.6666649999999947,
          "durationTicks": 1440,
          "midi": 47,
          "name": "B2",
          "ticks": 165888,
          "time": 191.999808,
          "velocity": 0.3937007874015748
        },
        {
          "duration": 1.6666649999999947,
          "durationTicks": 1440,
          "midi": 59,
          "name": "B3",
          "ticks": 165888,
          "time": 191.999808,
          "velocity": 0.3937007874015748
        },
        {
          "duration": 0.8888880000000086,
          "durationTicks": 768,
          "midi": 61,
          "name": "C#4",
          "ticks": 167424,
          "time": 193.777584,
          "velocity": 0.3937007874015748
        },
        {
          "duration": 0.8888880000000086,
          "durationTicks": 768,
          "midi": 49,
          "name": "C#3",
          "ticks": 167424,
          "time": 193.777584,
          "velocity": 0.3937007874015748
        },
        {
          "duration": 0.8888880000000086,
          "durationTicks": 768,
          "midi": 48,
          "name": "C3",
          "ticks": 168192,
          "time": 194.666472,
          "velocity": 0.3937007874015748
        },
        {
          "duration": 0.8888880000000086,
          "durationTicks": 768,
          "midi": 60,
          "name": "C4",
          "ticks": 168192,
          "time": 194.666472,
          "velocity": 0.3937007874015748
        },
        {
          "duration": 0.8888880000000086,
          "durationTicks": 768,
          "midi": 59,
          "name": "B3",
          "ticks": 168960,
          "time": 195.55536,
          "velocity": 0.3937007874015748
        },
        {
          "duration": 0.8888880000000086,
          "durationTicks": 768,
          "midi": 47,
          "name": "B2",
          "ticks": 168960,
          "time": 195.55536,
          "velocity": 0.3937007874015748
        },
        {
          "duration": 0.8888879999999801,
          "durationTicks": 768,
          "midi": 58,
          "name": "A#3",
          "ticks": 169728,
          "time": 196.44424800000002,
          "velocity": 0.3937007874015748
        },
        {
          "duration": 0.8888879999999801,
          "durationTicks": 768,
          "midi": 46,
          "name": "A#2",
          "ticks": 169728,
          "time": 196.44424800000002,
          "velocity": 0.3937007874015748
        },
        {
          "duration": 1.6666649999999947,
          "durationTicks": 1440,
          "midi": 45,
          "name": "A2",
          "ticks": 170496,
          "time": 197.333136,
          "velocity": 0.3937007874015748
        },
        {
          "duration": 1.6666649999999947,
          "durationTicks": 1440,
          "midi": 57,
          "name": "A3",
          "ticks": 170496,
          "time": 197.333136,
          "velocity": 0.3937007874015748
        },
        {
          "duration": 1.6666649999999947,
          "durationTicks": 1440,
          "midi": 47,
          "name": "B2",
          "ticks": 172032,
          "time": 199.110912,
          "velocity": 0.3937007874015748
        },
        {
          "duration": 1.6666649999999947,
          "durationTicks": 1440,
          "midi": 59,
          "name": "B3",
          "ticks": 172032,
          "time": 199.110912,
          "velocity": 0.3937007874015748
        },
        {
          "duration": 3.3333299999999895,
          "durationTicks": 2880,
          "midi": 61,
          "name": "C#4",
          "ticks": 173568,
          "time": 200.888688,
          "velocity": 0.3937007874015748
        },
        {
          "duration": 3.3333299999999895,
          "durationTicks": 2880,
          "midi": 49,
          "name": "C#3",
          "ticks": 173568,
          "time": 200.888688,
          "velocity": 0.3937007874015748
        },
        {
          "duration": 1.6666649999999947,
          "durationTicks": 1440,
          "midi": 45,
          "name": "A2",
          "ticks": 176640,
          "time": 204.44424,
          "velocity": 0.3937007874015748
        },
        {
          "duration": 1.6666649999999947,
          "durationTicks": 1440,
          "midi": 57,
          "name": "A3",
          "ticks": 176640,
          "time": 204.44424,
          "velocity": 0.3937007874015748
        },
        {
          "duration": 1.6666649999999947,
          "durationTicks": 1440,
          "midi": 47,
          "name": "B2",
          "ticks": 178176,
          "time": 206.222016,
          "velocity": 0.3937007874015748
        },
        {
          "duration": 1.6666649999999947,
          "durationTicks": 1440,
          "midi": 59,
          "name": "B3",
          "ticks": 178176,
          "time": 206.222016,
          "velocity": 0.3937007874015748
        },
        {
          "duration": 0.8888879999999801,
          "durationTicks": 768,
          "midi": 49,
          "name": "C#3",
          "ticks": 179712,
          "time": 207.999792,
          "velocity": 0.3937007874015748
        },
        {
          "duration": 0.8888879999999801,
          "durationTicks": 768,
          "midi": 61,
          "name": "C#4",
          "ticks": 179712,
          "time": 207.999792,
          "velocity": 0.3937007874015748
        },
        {
          "duration": 0.8888880000000086,
          "durationTicks": 768,
          "midi": 48,
          "name": "C3",
          "ticks": 180480,
          "time": 208.88868,
          "velocity": 0.3937007874015748
        },
        {
          "duration": 0.8888880000000086,
          "durationTicks": 768,
          "midi": 60,
          "name": "C4",
          "ticks": 180480,
          "time": 208.88868,
          "velocity": 0.3937007874015748
        },
        {
          "duration": 0.8888880000000086,
          "durationTicks": 768,
          "midi": 47,
          "name": "B2",
          "ticks": 181248,
          "time": 209.777568,
          "velocity": 0.3937007874015748
        },
        {
          "duration": 0.8888880000000086,
          "durationTicks": 768,
          "midi": 59,
          "name": "B3",
          "ticks": 181248,
          "time": 209.777568,
          "velocity": 0.3937007874015748
        },
        {
          "duration": 0.8888879999999801,
          "durationTicks": 768,
          "midi": 58,
          "name": "A#3",
          "ticks": 182016,
          "time": 210.666456,
          "velocity": 0.3937007874015748
        },
        {
          "duration": 0.8888879999999801,
          "durationTicks": 768,
          "midi": 46,
          "name": "A#2",
          "ticks": 182016,
          "time": 210.666456,
          "velocity": 0.3937007874015748
        },
        {
          "duration": 1.6666650000000232,
          "durationTicks": 1440,
          "midi": 45,
          "name": "A2",
          "ticks": 182784,
          "time": 211.555344,
          "velocity": 0.3937007874015748
        },
        {
          "duration": 1.6666650000000232,
          "durationTicks": 1440,
          "midi": 57,
          "name": "A3",
          "ticks": 182784,
          "time": 211.555344,
          "velocity": 0.3937007874015748
        },
        {
          "duration": 1.6666649999999947,
          "durationTicks": 1440,
          "midi": 59,
          "name": "B3",
          "ticks": 184320,
          "time": 213.33312,
          "velocity": 0.3937007874015748
        },
        {
          "duration": 1.6666649999999947,
          "durationTicks": 1440,
          "midi": 47,
          "name": "B2",
          "ticks": 184320,
          "time": 213.33312,
          "velocity": 0.3937007874015748
        },
        {
          "duration": 5.111106000000007,
          "durationTicks": 4416,
          "midi": 61,
          "name": "C#4",
          "ticks": 185856,
          "time": 215.110896,
          "velocity": 0.3937007874015748
        },
        {
          "duration": 5.111106000000007,
          "durationTicks": 4416,
          "midi": 49,
          "name": "C#3",
          "ticks": 185856,
          "time": 215.110896,
          "velocity": 0.3937007874015748
        }
      ],
      "endOfTrackTicks": 190272
    },
    {
      "channel": 9,
      "controlChanges": {},
      "pitchBends": [],
      "instrument": {
        "family": "drums",
        "number": 255
      },
      "name": "2013 Drum Kit",
      "notes": [
        {
          "duration": 0.44444399999999984,
          "durationTicks": 384,
          "midi": 41,
          "name": "F2",
          "ticks": 6144,
          "time": 7.111104,
          "velocity": 0.3937007874015748
        },
        {
          "duration": 0.44444399999999984,
          "durationTicks": 384,
          "midi": 41,
          "name": "F2",
          "ticks": 6528,
          "time": 7.555548,
          "velocity": 0.3937007874015748
        },
        {
          "duration": 0.44444399999999984,
          "durationTicks": 384,
          "midi": 41,
          "name": "F2",
          "ticks": 6912,
          "time": 7.999992,
          "velocity": 0.3937007874015748
        },
        {
          "duration": 0.4444440000000007,
          "durationTicks": 384,
          "midi": 41,
          "name": "F2",
          "ticks": 7296,
          "time": 8.444436,
          "velocity": 0.3937007874015748
        },
        {
          "duration": 0.44444399999999895,
          "durationTicks": 384,
          "midi": 41,
          "name": "F2",
          "ticks": 7680,
          "time": 8.88888,
          "velocity": 0.3937007874015748
        },
        {
          "duration": 0.4444440000000007,
          "durationTicks": 384,
          "midi": 41,
          "name": "F2",
          "ticks": 8064,
          "time": 9.333324,
          "velocity": 0.3937007874015748
        },
        {
          "duration": 0.4444440000000007,
          "durationTicks": 384,
          "midi": 41,
          "name": "F2",
          "ticks": 8448,
          "time": 9.777768,
          "velocity": 0.3937007874015748
        },
        {
          "duration": 0.44444399999999895,
          "durationTicks": 384,
          "midi": 41,
          "name": "F2",
          "ticks": 8832,
          "time": 10.222212,
          "velocity": 0.3937007874015748
        },
        {
          "duration": 0.4444440000000007,
          "durationTicks": 384,
          "midi": 41,
          "name": "F2",
          "ticks": 9216,
          "time": 10.666656,
          "velocity": 0.3937007874015748
        },
        {
          "duration": 0.44444399999999895,
          "durationTicks": 384,
          "midi": 41,
          "name": "F2",
          "ticks": 9600,
          "time": 11.1111,
          "velocity": 0.3937007874015748
        },
        {
          "duration": 0.4444440000000007,
          "durationTicks": 384,
          "midi": 41,
          "name": "F2",
          "ticks": 9984,
          "time": 11.555544,
          "velocity": 0.3937007874015748
        },
        {
          "duration": 0.4444440000000007,
          "durationTicks": 384,
          "midi": 41,
          "name": "F2",
          "ticks": 10368,
          "time": 11.999988,
          "velocity": 0.3937007874015748
        },
        {
          "duration": 0.44444399999999895,
          "durationTicks": 384,
          "midi": 41,
          "name": "F2",
          "ticks": 10752,
          "time": 12.444432,
          "velocity": 0.3937007874015748
        },
        {
          "duration": 0.4444440000000007,
          "durationTicks": 384,
          "midi": 41,
          "name": "F2",
          "ticks": 11136,
          "time": 12.888876,
          "velocity": 0.3937007874015748
        },
        {
          "duration": 0.44444399999999895,
          "durationTicks": 384,
          "midi": 41,
          "name": "F2",
          "ticks": 11520,
          "time": 13.33332,
          "velocity": 0.3937007874015748
        },
        {
          "duration": 0.4444440000000007,
          "durationTicks": 384,
          "midi": 41,
          "name": "F2",
          "ticks": 11904,
          "time": 13.777764,
          "velocity": 0.3937007874015748
        },
        {
          "duration": 0.4444440000000007,
          "durationTicks": 384,
          "midi": 41,
          "name": "F2",
          "ticks": 12288,
          "time": 14.222208,
          "velocity": 0.3937007874015748
        },
        {
          "duration": 0.44444399999999895,
          "durationTicks": 384,
          "midi": 41,
          "name": "F2",
          "ticks": 12672,
          "time": 14.666652000000001,
          "velocity": 0.3937007874015748
        },
        {
          "duration": 0.4444440000000007,
          "durationTicks": 384,
          "midi": 41,
          "name": "F2",
          "ticks": 13056,
          "time": 15.111096,
          "velocity": 0.3937007874015748
        },
        {
          "duration": 0.44444399999999895,
          "durationTicks": 384,
          "midi": 41,
          "name": "F2",
          "ticks": 13440,
          "time": 15.55554,
          "velocity": 0.3937007874015748
        },
        {
          "duration": 0.44444399999999895,
          "durationTicks": 384,
          "midi": 41,
          "name": "F2",
          "ticks": 13824,
          "time": 15.999984,
          "velocity": 0.3937007874015748
        },
        {
          "duration": 0.4444440000000007,
          "durationTicks": 384,
          "midi": 41,
          "name": "F2",
          "ticks": 14208,
          "time": 16.444428,
          "velocity": 0.3937007874015748
        },
        {
          "duration": 0.4444440000000007,
          "durationTicks": 384,
          "midi": 41,
          "name": "F2",
          "ticks": 14592,
          "time": 16.888872,
          "velocity": 0.3937007874015748
        },
        {
          "duration": 0.4444440000000007,
          "durationTicks": 384,
          "midi": 41,
          "name": "F2",
          "ticks": 14976,
          "time": 17.333316,
          "velocity": 0.3937007874015748
        },
        {
          "duration": 0.4444440000000007,
          "durationTicks": 384,
          "midi": 41,
          "name": "F2",
          "ticks": 15360,
          "time": 17.77776,
          "velocity": 0.3937007874015748
        },
        {
          "duration": 0.4444439999999972,
          "durationTicks": 384,
          "midi": 41,
          "name": "F2",
          "ticks": 15744,
          "time": 18.222204,
          "velocity": 0.3937007874015748
        },
        {
          "duration": 0.4444440000000007,
          "durationTicks": 384,
          "midi": 41,
          "name": "F2",
          "ticks": 16128,
          "time": 18.666648,
          "velocity": 0.3937007874015748
        },
        {
          "duration": 0.4444440000000007,
          "durationTicks": 384,
          "midi": 41,
          "name": "F2",
          "ticks": 16512,
          "time": 19.111092,
          "velocity": 0.3937007874015748
        },
        {
          "duration": 0.2222219999999986,
          "durationTicks": 192,
          "midi": 41,
          "name": "F2",
          "ticks": 16896,
          "time": 19.555536,
          "velocity": 0.3937007874015748
        },
        {
          "duration": 0.22222200000000214,
          "durationTicks": 192,
          "midi": 41,
          "name": "F2",
          "ticks": 17088,
          "time": 19.777758,
          "velocity": 0.3937007874015748
        },
        {
          "duration": 0.2222219999999986,
          "durationTicks": 192,
          "midi": 41,
          "name": "F2",
          "ticks": 17280,
          "time": 19.99998,
          "velocity": 0.3937007874015748
        },
        {
          "duration": 0.22222200000000214,
          "durationTicks": 192,
          "midi": 41,
          "name": "F2",
          "ticks": 17472,
          "time": 20.222202,
          "velocity": 0.3937007874015748
        },
        {
          "duration": 0.11111099999999752,
          "durationTicks": 96,
          "midi": 41,
          "name": "F2",
          "ticks": 17664,
          "time": 20.444424,
          "velocity": 0.3937007874015748
        },
        {
          "duration": 0.11111100000000107,
          "durationTicks": 96,
          "midi": 41,
          "name": "F2",
          "ticks": 17760,
          "time": 20.555535,
          "velocity": 0.3937007874015748
        },
        {
          "duration": 0.11111100000000107,
          "durationTicks": 96,
          "midi": 41,
          "name": "F2",
          "ticks": 17856,
          "time": 20.666646,
          "velocity": 0.3937007874015748
        },
        {
          "duration": 0.11111099999999752,
          "durationTicks": 96,
          "midi": 41,
          "name": "F2",
          "ticks": 17952,
          "time": 20.777757,
          "velocity": 0.3937007874015748
        },
        {
          "duration": 0.4444440000000007,
          "durationTicks": 384,
          "midi": 41,
          "name": "F2",
          "ticks": 18432,
          "time": 21.333312,
          "velocity": 0.3937007874015748
        },
        {
          "duration": 0.4444440000000007,
          "durationTicks": 384,
          "midi": 41,
          "name": "F2",
          "ticks": 18816,
          "time": 21.777756,
          "velocity": 0.3937007874015748
        },
        {
          "duration": 0.4444440000000007,
          "durationTicks": 384,
          "midi": 41,
          "name": "F2",
          "ticks": 19200,
          "time": 22.2222,
          "velocity": 0.3937007874015748
        },
        {
          "duration": 0.4444439999999972,
          "durationTicks": 384,
          "midi": 41,
          "name": "F2",
          "ticks": 19584,
          "time": 22.666644,
          "velocity": 0.3937007874015748
        },
        {
          "duration": 0.4444440000000007,
          "durationTicks": 384,
          "midi": 41,
          "name": "F2",
          "ticks": 19968,
          "time": 23.111088,
          "velocity": 0.3937007874015748
        },
        {
          "duration": 0.4444440000000007,
          "durationTicks": 384,
          "midi": 41,
          "name": "F2",
          "ticks": 20352,
          "time": 23.555532,
          "velocity": 0.3937007874015748
        },
        {
          "duration": 0.4444440000000007,
          "durationTicks": 384,
          "midi": 41,
          "name": "F2",
          "ticks": 20736,
          "time": 23.999976,
          "velocity": 0.3937007874015748
        },
        {
          "duration": 0.4444440000000007,
          "durationTicks": 384,
          "midi": 41,
          "name": "F2",
          "ticks": 21120,
          "time": 24.44442,
          "velocity": 0.3937007874015748
        },
        {
          "duration": 0.4444439999999972,
          "durationTicks": 384,
          "midi": 41,
          "name": "F2",
          "ticks": 21504,
          "time": 24.888864,
          "velocity": 0.3937007874015748
        },
        {
          "duration": 0.4444440000000007,
          "durationTicks": 384,
          "midi": 41,
          "name": "F2",
          "ticks": 21888,
          "time": 25.333308,
          "velocity": 0.3937007874015748
        },
        {
          "duration": 0.4444440000000007,
          "durationTicks": 384,
          "midi": 41,
          "name": "F2",
          "ticks": 22272,
          "time": 25.777752,
          "velocity": 0.3937007874015748
        },
        {
          "duration": 0.4444440000000007,
          "durationTicks": 384,
          "midi": 41,
          "name": "F2",
          "ticks": 22656,
          "time": 26.222196,
          "velocity": 0.3937007874015748
        },
        {
          "duration": 0.4444440000000007,
          "durationTicks": 384,
          "midi": 41,
          "name": "F2",
          "ticks": 23040,
          "time": 26.66664,
          "velocity": 0.3937007874015748
        },
        {
          "duration": 0.4444439999999972,
          "durationTicks": 384,
          "midi": 41,
          "name": "F2",
          "ticks": 23424,
          "time": 27.111084,
          "velocity": 0.3937007874015748
        },
        {
          "duration": 0.4444440000000007,
          "durationTicks": 384,
          "midi": 41,
          "name": "F2",
          "ticks": 23808,
          "time": 27.555528,
          "velocity": 0.3937007874015748
        },
        {
          "duration": 0.4444440000000007,
          "durationTicks": 384,
          "midi": 41,
          "name": "F2",
          "ticks": 24192,
          "time": 27.999972,
          "velocity": 0.3937007874015748
        },
        {
          "duration": 0.4444440000000007,
          "durationTicks": 384,
          "midi": 41,
          "name": "F2",
          "ticks": 24576,
          "time": 28.444416,
          "velocity": 0.3937007874015748
        },
        {
          "duration": 0.4444440000000007,
          "durationTicks": 384,
          "midi": 41,
          "name": "F2",
          "ticks": 24960,
          "time": 28.88886,
          "velocity": 0.3937007874015748
        },
        {
          "duration": 0.4444439999999972,
          "durationTicks": 384,
          "midi": 41,
          "name": "F2",
          "ticks": 25344,
          "time": 29.333304000000002,
          "velocity": 0.3937007874015748
        },
        {
          "duration": 0.4444440000000007,
          "durationTicks": 384,
          "midi": 41,
          "name": "F2",
          "ticks": 25728,
          "time": 29.777748,
          "velocity": 0.3937007874015748
        },
        {
          "duration": 0.4444440000000007,
          "durationTicks": 384,
          "midi": 41,
          "name": "F2",
          "ticks": 26112,
          "time": 30.222192,
          "velocity": 0.3937007874015748
        },
        {
          "duration": 0.4444440000000007,
          "durationTicks": 384,
          "midi": 41,
          "name": "F2",
          "ticks": 26496,
          "time": 30.666636,
          "velocity": 0.3937007874015748
        },
        {
          "duration": 0.4444440000000007,
          "durationTicks": 384,
          "midi": 41,
          "name": "F2",
          "ticks": 26880,
          "time": 31.11108,
          "velocity": 0.3937007874015748
        },
        {
          "duration": 0.4444439999999972,
          "durationTicks": 384,
          "midi": 41,
          "name": "F2",
          "ticks": 27264,
          "time": 31.555524000000002,
          "velocity": 0.3937007874015748
        },
        {
          "duration": 0.4444440000000007,
          "durationTicks": 384,
          "midi": 41,
          "name": "F2",
          "ticks": 27648,
          "time": 31.999968,
          "velocity": 0.3937007874015748
        },
        {
          "duration": 0.4444439999999972,
          "durationTicks": 384,
          "midi": 41,
          "name": "F2",
          "ticks": 28032,
          "time": 32.444412,
          "velocity": 0.3937007874015748
        },
        {
          "duration": 0.4444440000000043,
          "durationTicks": 384,
          "midi": 41,
          "name": "F2",
          "ticks": 28416,
          "time": 32.888856,
          "velocity": 0.3937007874015748
        },
        {
          "duration": 0.4444439999999972,
          "durationTicks": 384,
          "midi": 41,
          "name": "F2",
          "ticks": 28800,
          "time": 33.3333,
          "velocity": 0.3937007874015748
        },
        {
          "duration": 0.4444440000000043,
          "durationTicks": 384,
          "midi": 41,
          "name": "F2",
          "ticks": 29184,
          "time": 33.777744,
          "velocity": 0.3937007874015748
        },
        {
          "duration": 0.4444439999999972,
          "durationTicks": 384,
          "midi": 41,
          "name": "F2",
          "ticks": 29568,
          "time": 34.222188,
          "velocity": 0.3937007874015748
        },
        {
          "duration": 0.4444439999999972,
          "durationTicks": 384,
          "midi": 41,
          "name": "F2",
          "ticks": 29952,
          "time": 34.666632,
          "velocity": 0.3937007874015748
        },
        {
          "duration": 0.4444440000000043,
          "durationTicks": 384,
          "midi": 41,
          "name": "F2",
          "ticks": 30336,
          "time": 35.111076,
          "velocity": 0.3937007874015748
        },
        {
          "duration": 0.4444439999999972,
          "durationTicks": 384,
          "midi": 41,
          "name": "F2",
          "ticks": 30720,
          "time": 35.55552,
          "velocity": 0.3937007874015748
        },
        {
          "duration": 0.4444440000000043,
          "durationTicks": 384,
          "midi": 41,
          "name": "F2",
          "ticks": 31104,
          "time": 35.999964,
          "velocity": 0.3937007874015748
        },
        {
          "duration": 0.4444439999999972,
          "durationTicks": 384,
          "midi": 41,
          "name": "F2",
          "ticks": 31488,
          "time": 36.444408,
          "velocity": 0.3937007874015748
        },
        {
          "duration": 0.4444439999999972,
          "durationTicks": 384,
          "midi": 41,
          "name": "F2",
          "ticks": 31872,
          "time": 36.888852,
          "velocity": 0.3937007874015748
        },
        {
          "duration": 0.4444440000000043,
          "durationTicks": 384,
          "midi": 41,
          "name": "F2",
          "ticks": 32256,
          "time": 37.333296,
          "velocity": 0.3937007874015748
        },
        {
          "duration": 0.4444439999999972,
          "durationTicks": 384,
          "midi": 41,
          "name": "F2",
          "ticks": 32640,
          "time": 37.77774,
          "velocity": 0.3937007874015748
        },
        {
          "duration": 0.4444440000000043,
          "durationTicks": 384,
          "midi": 41,
          "name": "F2",
          "ticks": 33024,
          "time": 38.222184,
          "velocity": 0.3937007874015748
        },
        {
          "duration": 0.4444439999999972,
          "durationTicks": 384,
          "midi": 41,
          "name": "F2",
          "ticks": 33408,
          "time": 38.666628,
          "velocity": 0.3937007874015748
        },
        {
          "duration": 0.4444439999999972,
          "durationTicks": 384,
          "midi": 41,
          "name": "F2",
          "ticks": 33792,
          "time": 39.111072,
          "velocity": 0.3937007874015748
        },
        {
          "duration": 0.4444440000000043,
          "durationTicks": 384,
          "midi": 41,
          "name": "F2",
          "ticks": 34176,
          "time": 39.555516,
          "velocity": 0.3937007874015748
        },
        {
          "duration": 0.4444439999999972,
          "durationTicks": 384,
          "midi": 41,
          "name": "F2",
          "ticks": 34560,
          "time": 39.99996,
          "velocity": 0.3937007874015748
        },
        {
          "duration": 0.4444440000000043,
          "durationTicks": 384,
          "midi": 41,
          "name": "F2",
          "ticks": 34944,
          "time": 40.444404,
          "velocity": 0.3937007874015748
        },
        {
          "duration": 0.4444439999999972,
          "durationTicks": 384,
          "midi": 41,
          "name": "F2",
          "ticks": 35328,
          "time": 40.888848,
          "velocity": 0.3937007874015748
        },
        {
          "duration": 0.4444439999999972,
          "durationTicks": 384,
          "midi": 41,
          "name": "F2",
          "ticks": 35712,
          "time": 41.333292,
          "velocity": 0.3937007874015748
        },
        {
          "duration": 0.4444440000000043,
          "durationTicks": 384,
          "midi": 41,
          "name": "F2",
          "ticks": 36096,
          "time": 41.777736,
          "velocity": 0.3937007874015748
        },
        {
          "duration": 0.4444439999999972,
          "durationTicks": 384,
          "midi": 41,
          "name": "F2",
          "ticks": 36480,
          "time": 42.22218,
          "velocity": 0.3937007874015748
        },
        {
          "duration": 0.4444440000000043,
          "durationTicks": 384,
          "midi": 41,
          "name": "F2",
          "ticks": 36864,
          "time": 42.666624,
          "velocity": 0.3937007874015748
        },
        {
          "duration": 0.4444439999999972,
          "durationTicks": 384,
          "midi": 41,
          "name": "F2",
          "ticks": 37248,
          "time": 43.111068,
          "velocity": 0.3937007874015748
        },
        {
          "duration": 0.4444439999999972,
          "durationTicks": 384,
          "midi": 41,
          "name": "F2",
          "ticks": 37632,
          "time": 43.555512,
          "velocity": 0.3937007874015748
        },
        {
          "duration": 0.4444440000000043,
          "durationTicks": 384,
          "midi": 41,
          "name": "F2",
          "ticks": 38016,
          "time": 43.999956,
          "velocity": 0.3937007874015748
        },
        {
          "duration": 0.4444439999999972,
          "durationTicks": 384,
          "midi": 41,
          "name": "F2",
          "ticks": 38400,
          "time": 44.4444,
          "velocity": 0.3937007874015748
        },
        {
          "duration": 0.4444440000000043,
          "durationTicks": 384,
          "midi": 41,
          "name": "F2",
          "ticks": 38784,
          "time": 44.888844,
          "velocity": 0.3937007874015748
        },
        {
          "duration": 0.4444439999999972,
          "durationTicks": 384,
          "midi": 41,
          "name": "F2",
          "ticks": 39168,
          "time": 45.333288,
          "velocity": 0.3937007874015748
        },
        {
          "duration": 0.4444439999999972,
          "durationTicks": 384,
          "midi": 41,
          "name": "F2",
          "ticks": 39552,
          "time": 45.777732,
          "velocity": 0.3937007874015748
        },
        {
          "duration": 0.4444440000000043,
          "durationTicks": 384,
          "midi": 41,
          "name": "F2",
          "ticks": 39936,
          "time": 46.222176,
          "velocity": 0.3937007874015748
        },
        {
          "duration": 0.4444439999999972,
          "durationTicks": 384,
          "midi": 41,
          "name": "F2",
          "ticks": 40320,
          "time": 46.66662,
          "velocity": 0.3937007874015748
        },
        {
          "duration": 0.4444440000000043,
          "durationTicks": 384,
          "midi": 41,
          "name": "F2",
          "ticks": 40704,
          "time": 47.111064,
          "velocity": 0.3937007874015748
        },
        {
          "duration": 0.4444439999999972,
          "durationTicks": 384,
          "midi": 41,
          "name": "F2",
          "ticks": 41088,
          "time": 47.555508,
          "velocity": 0.3937007874015748
        },
        {
          "duration": 0.4444439999999972,
          "durationTicks": 384,
          "midi": 41,
          "name": "F2",
          "ticks": 41472,
          "time": 47.999952,
          "velocity": 0.3937007874015748
        },
        {
          "duration": 0.4444440000000043,
          "durationTicks": 384,
          "midi": 41,
          "name": "F2",
          "ticks": 41856,
          "time": 48.444396,
          "velocity": 0.3937007874015748
        },
        {
          "duration": 0.4444439999999972,
          "durationTicks": 384,
          "midi": 41,
          "name": "F2",
          "ticks": 42240,
          "time": 48.88884,
          "velocity": 0.3937007874015748
        },
        {
          "duration": 0.4444440000000043,
          "durationTicks": 384,
          "midi": 41,
          "name": "F2",
          "ticks": 42624,
          "time": 49.333284,
          "velocity": 0.3937007874015748
        },
        {
          "duration": 0.4444439999999972,
          "durationTicks": 384,
          "midi": 41,
          "name": "F2",
          "ticks": 43008,
          "time": 49.777728,
          "velocity": 0.3937007874015748
        },
        {
          "duration": 0.4444439999999972,
          "durationTicks": 384,
          "midi": 41,
          "name": "F2",
          "ticks": 43392,
          "time": 50.222172,
          "velocity": 0.3937007874015748
        },
        {
          "duration": 0.4444440000000043,
          "durationTicks": 384,
          "midi": 41,
          "name": "F2",
          "ticks": 43776,
          "time": 50.666616,
          "velocity": 0.3937007874015748
        },
        {
          "duration": 0.4444439999999972,
          "durationTicks": 384,
          "midi": 41,
          "name": "F2",
          "ticks": 44160,
          "time": 51.11106,
          "velocity": 0.3937007874015748
        },
        {
          "duration": 0.4444440000000043,
          "durationTicks": 384,
          "midi": 41,
          "name": "F2",
          "ticks": 44544,
          "time": 51.555504,
          "velocity": 0.3937007874015748
        },
        {
          "duration": 0.4444439999999972,
          "durationTicks": 384,
          "midi": 41,
          "name": "F2",
          "ticks": 44928,
          "time": 51.999948,
          "velocity": 0.3937007874015748
        },
        {
          "duration": 0.4444439999999972,
          "durationTicks": 384,
          "midi": 41,
          "name": "F2",
          "ticks": 45312,
          "time": 52.444392,
          "velocity": 0.3937007874015748
        },
        {
          "duration": 0.4444440000000043,
          "durationTicks": 384,
          "midi": 41,
          "name": "F2",
          "ticks": 45696,
          "time": 52.888836,
          "velocity": 0.3937007874015748
        },
        {
          "duration": 0.4444439999999972,
          "durationTicks": 384,
          "midi": 41,
          "name": "F2",
          "ticks": 46080,
          "time": 53.33328,
          "velocity": 0.3937007874015748
        },
        {
          "duration": 0.4444440000000043,
          "durationTicks": 384,
          "midi": 41,
          "name": "F2",
          "ticks": 46464,
          "time": 53.777724,
          "velocity": 0.3937007874015748
        },
        {
          "duration": 0.4444439999999972,
          "durationTicks": 384,
          "midi": 41,
          "name": "F2",
          "ticks": 46848,
          "time": 54.222168,
          "velocity": 0.3937007874015748
        },
        {
          "duration": 0.4444439999999972,
          "durationTicks": 384,
          "midi": 41,
          "name": "F2",
          "ticks": 47232,
          "time": 54.666612,
          "velocity": 0.3937007874015748
        },
        {
          "duration": 0.4444440000000043,
          "durationTicks": 384,
          "midi": 41,
          "name": "F2",
          "ticks": 47616,
          "time": 55.111056,
          "velocity": 0.3937007874015748
        },
        {
          "duration": 0.4444439999999972,
          "durationTicks": 384,
          "midi": 41,
          "name": "F2",
          "ticks": 48000,
          "time": 55.5555,
          "velocity": 0.3937007874015748
        },
        {
          "duration": 0.4444440000000043,
          "durationTicks": 384,
          "midi": 41,
          "name": "F2",
          "ticks": 48384,
          "time": 55.999944,
          "velocity": 0.3937007874015748
        },
        {
          "duration": 0.4444439999999972,
          "durationTicks": 384,
          "midi": 41,
          "name": "F2",
          "ticks": 48768,
          "time": 56.444388000000004,
          "velocity": 0.3937007874015748
        },
        {
          "duration": 0.4444439999999972,
          "durationTicks": 384,
          "midi": 41,
          "name": "F2",
          "ticks": 49152,
          "time": 56.888832,
          "velocity": 0.3937007874015748
        },
        {
          "duration": 0.4444440000000043,
          "durationTicks": 384,
          "midi": 41,
          "name": "F2",
          "ticks": 49536,
          "time": 57.333276,
          "velocity": 0.3937007874015748
        },
        {
          "duration": 0.4444439999999972,
          "durationTicks": 384,
          "midi": 41,
          "name": "F2",
          "ticks": 49920,
          "time": 57.77772,
          "velocity": 0.3937007874015748
        },
        {
          "duration": 0.4444440000000043,
          "durationTicks": 384,
          "midi": 41,
          "name": "F2",
          "ticks": 50304,
          "time": 58.222164,
          "velocity": 0.3937007874015748
        },
        {
          "duration": 0.4444439999999972,
          "durationTicks": 384,
          "midi": 41,
          "name": "F2",
          "ticks": 50688,
          "time": 58.666608000000004,
          "velocity": 0.3937007874015748
        },
        {
          "duration": 0.4444439999999972,
          "durationTicks": 384,
          "midi": 41,
          "name": "F2",
          "ticks": 51072,
          "time": 59.111052,
          "velocity": 0.3937007874015748
        },
        {
          "duration": 0.4444440000000043,
          "durationTicks": 384,
          "midi": 41,
          "name": "F2",
          "ticks": 51456,
          "time": 59.555496,
          "velocity": 0.3937007874015748
        },
        {
          "duration": 0.4444439999999972,
          "durationTicks": 384,
          "midi": 41,
          "name": "F2",
          "ticks": 51840,
          "time": 59.99994,
          "velocity": 0.3937007874015748
        },
        {
          "duration": 0.4444440000000043,
          "durationTicks": 384,
          "midi": 41,
          "name": "F2",
          "ticks": 52224,
          "time": 60.444384,
          "velocity": 0.3937007874015748
        },
        {
          "duration": 0.4444439999999972,
          "durationTicks": 384,
          "midi": 41,
          "name": "F2",
          "ticks": 52608,
          "time": 60.888828000000004,
          "velocity": 0.3937007874015748
        },
        {
          "duration": 0.4444439999999972,
          "durationTicks": 384,
          "midi": 41,
          "name": "F2",
          "ticks": 52992,
          "time": 61.333272,
          "velocity": 0.3937007874015748
        },
        {
          "duration": 0.4444440000000043,
          "durationTicks": 384,
          "midi": 41,
          "name": "F2",
          "ticks": 53376,
          "time": 61.777716,
          "velocity": 0.3937007874015748
        },
        {
          "duration": 0.4444439999999972,
          "durationTicks": 384,
          "midi": 41,
          "name": "F2",
          "ticks": 53760,
          "time": 62.22216,
          "velocity": 0.3937007874015748
        },
        {
          "duration": 0.4444440000000043,
          "durationTicks": 384,
          "midi": 41,
          "name": "F2",
          "ticks": 54144,
          "time": 62.666604,
          "velocity": 0.3937007874015748
        },
        {
          "duration": 0.4444439999999972,
          "durationTicks": 384,
          "midi": 41,
          "name": "F2",
          "ticks": 54528,
          "time": 63.111048000000004,
          "velocity": 0.3937007874015748
        },
        {
          "duration": 0.4444439999999972,
          "durationTicks": 384,
          "midi": 41,
          "name": "F2",
          "ticks": 54912,
          "time": 63.555492,
          "velocity": 0.3937007874015748
        },
        {
          "duration": 0.4444439999999972,
          "durationTicks": 384,
          "midi": 41,
          "name": "F2",
          "ticks": 55296,
          "time": 63.999936,
          "velocity": 0.3937007874015748
        },
        {
          "duration": 0.4444440000000043,
          "durationTicks": 384,
          "midi": 41,
          "name": "F2",
          "ticks": 55680,
          "time": 64.44438,
          "velocity": 0.3937007874015748
        },
        {
          "duration": 0.4444440000000043,
          "durationTicks": 384,
          "midi": 41,
          "name": "F2",
          "ticks": 56064,
          "time": 64.888824,
          "velocity": 0.3937007874015748
        },
        {
          "duration": 0.44444399999999007,
          "durationTicks": 384,
          "midi": 41,
          "name": "F2",
          "ticks": 56448,
          "time": 65.333268,
          "velocity": 0.3937007874015748
        },
        {
          "duration": 0.4444440000000043,
          "durationTicks": 384,
          "midi": 41,
          "name": "F2",
          "ticks": 56832,
          "time": 65.777712,
          "velocity": 0.3937007874015748
        },
        {
          "duration": 0.4444440000000043,
          "durationTicks": 384,
          "midi": 41,
          "name": "F2",
          "ticks": 57216,
          "time": 66.222156,
          "velocity": 0.3937007874015748
        },
        {
          "duration": 0.4444440000000043,
          "durationTicks": 384,
          "midi": 41,
          "name": "F2",
          "ticks": 57600,
          "time": 66.6666,
          "velocity": 0.3937007874015748
        },
        {
          "duration": 0.44444399999999007,
          "durationTicks": 384,
          "midi": 41,
          "name": "F2",
          "ticks": 57984,
          "time": 67.111044,
          "velocity": 0.3937007874015748
        },
        {
          "duration": 0.4444440000000043,
          "durationTicks": 384,
          "midi": 41,
          "name": "F2",
          "ticks": 58368,
          "time": 67.555488,
          "velocity": 0.3937007874015748
        },
        {
          "duration": 0.4444440000000043,
          "durationTicks": 384,
          "midi": 41,
          "name": "F2",
          "ticks": 58752,
          "time": 67.999932,
          "velocity": 0.3937007874015748
        },
        {
          "duration": 0.44444399999999007,
          "durationTicks": 384,
          "midi": 41,
          "name": "F2",
          "ticks": 59136,
          "time": 68.444376,
          "velocity": 0.3937007874015748
        },
        {
          "duration": 0.4444440000000043,
          "durationTicks": 384,
          "midi": 41,
          "name": "F2",
          "ticks": 59520,
          "time": 68.88882,
          "velocity": 0.3937007874015748
        },
        {
          "duration": 0.4444440000000043,
          "durationTicks": 384,
          "midi": 41,
          "name": "F2",
          "ticks": 59904,
          "time": 69.333264,
          "velocity": 0.3937007874015748
        },
        {
          "duration": 0.44444399999999007,
          "durationTicks": 384,
          "midi": 41,
          "name": "F2",
          "ticks": 60288,
          "time": 69.777708,
          "velocity": 0.3937007874015748
        },
        {
          "duration": 0.4444440000000043,
          "durationTicks": 384,
          "midi": 41,
          "name": "F2",
          "ticks": 60672,
          "time": 70.222152,
          "velocity": 0.3937007874015748
        },
        {
          "duration": 0.4444440000000043,
          "durationTicks": 384,
          "midi": 41,
          "name": "F2",
          "ticks": 61056,
          "time": 70.666596,
          "velocity": 0.3937007874015748
        },
        {
          "duration": 0.4444440000000043,
          "durationTicks": 384,
          "midi": 41,
          "name": "F2",
          "ticks": 61440,
          "time": 71.11104,
          "velocity": 0.3937007874015748
        },
        {
          "duration": 0.44444399999999007,
          "durationTicks": 384,
          "midi": 41,
          "name": "F2",
          "ticks": 61824,
          "time": 71.555484,
          "velocity": 0.3937007874015748
        },
        {
          "duration": 0.4444440000000043,
          "durationTicks": 384,
          "midi": 41,
          "name": "F2",
          "ticks": 62208,
          "time": 71.999928,
          "velocity": 0.3937007874015748
        },
        {
          "duration": 0.4444440000000043,
          "durationTicks": 384,
          "midi": 41,
          "name": "F2",
          "ticks": 62592,
          "time": 72.444372,
          "velocity": 0.3937007874015748
        },
        {
          "duration": 0.44444399999999007,
          "durationTicks": 384,
          "midi": 41,
          "name": "F2",
          "ticks": 62976,
          "time": 72.888816,
          "velocity": 0.3937007874015748
        },
        {
          "duration": 0.4444440000000043,
          "durationTicks": 384,
          "midi": 41,
          "name": "F2",
          "ticks": 63360,
          "time": 73.33326,
          "velocity": 0.3937007874015748
        },
        {
          "duration": 0.4444440000000043,
          "durationTicks": 384,
          "midi": 41,
          "name": "F2",
          "ticks": 63744,
          "time": 73.777704,
          "velocity": 0.3937007874015748
        },
        {
          "duration": 0.44444399999999007,
          "durationTicks": 384,
          "midi": 41,
          "name": "F2",
          "ticks": 64128,
          "time": 74.222148,
          "velocity": 0.3937007874015748
        },
        {
          "duration": 0.4444440000000043,
          "durationTicks": 384,
          "midi": 41,
          "name": "F2",
          "ticks": 64512,
          "time": 74.666592,
          "velocity": 0.3937007874015748
        },
        {
          "duration": 0.4444440000000043,
          "durationTicks": 384,
          "midi": 41,
          "name": "F2",
          "ticks": 64896,
          "time": 75.111036,
          "velocity": 0.3937007874015748
        },
        {
          "duration": 0.4444440000000043,
          "durationTicks": 384,
          "midi": 41,
          "name": "F2",
          "ticks": 65280,
          "time": 75.55548,
          "velocity": 0.3937007874015748
        },
        {
          "duration": 0.44444399999999007,
          "durationTicks": 384,
          "midi": 41,
          "name": "F2",
          "ticks": 65664,
          "time": 75.99992400000001,
          "velocity": 0.3937007874015748
        },
        {
          "duration": 0.4444440000000043,
          "durationTicks": 384,
          "midi": 41,
          "name": "F2",
          "ticks": 66048,
          "time": 76.444368,
          "velocity": 0.3937007874015748
        },
        {
          "duration": 0.4444440000000043,
          "durationTicks": 384,
          "midi": 41,
          "name": "F2",
          "ticks": 66432,
          "time": 76.888812,
          "velocity": 0.3937007874015748
        },
        {
          "duration": 0.44444399999999007,
          "durationTicks": 384,
          "midi": 41,
          "name": "F2",
          "ticks": 66816,
          "time": 77.333256,
          "velocity": 0.3937007874015748
        },
        {
          "duration": 0.4444440000000043,
          "durationTicks": 384,
          "midi": 41,
          "name": "F2",
          "ticks": 67200,
          "time": 77.7777,
          "velocity": 0.3937007874015748
        },
        {
          "duration": 0.4444440000000043,
          "durationTicks": 384,
          "midi": 41,
          "name": "F2",
          "ticks": 67584,
          "time": 78.222144,
          "velocity": 0.3937007874015748
        },
        {
          "duration": 0.44444399999999007,
          "durationTicks": 384,
          "midi": 41,
          "name": "F2",
          "ticks": 67968,
          "time": 78.666588,
          "velocity": 0.3937007874015748
        },
        {
          "duration": 0.4444440000000043,
          "durationTicks": 384,
          "midi": 41,
          "name": "F2",
          "ticks": 68352,
          "time": 79.111032,
          "velocity": 0.3937007874015748
        },
        {
          "duration": 0.4444440000000043,
          "durationTicks": 384,
          "midi": 41,
          "name": "F2",
          "ticks": 68736,
          "time": 79.555476,
          "velocity": 0.3937007874015748
        },
        {
          "duration": 0.4444440000000043,
          "durationTicks": 384,
          "midi": 41,
          "name": "F2",
          "ticks": 69120,
          "time": 79.99992,
          "velocity": 0.3937007874015748
        },
        {
          "duration": 0.44444399999999007,
          "durationTicks": 384,
          "midi": 41,
          "name": "F2",
          "ticks": 69504,
          "time": 80.44436400000001,
          "velocity": 0.3937007874015748
        },
        {
          "duration": 0.4444440000000043,
          "durationTicks": 384,
          "midi": 41,
          "name": "F2",
          "ticks": 69888,
          "time": 80.888808,
          "velocity": 0.3937007874015748
        },
        {
          "duration": 0.4444440000000043,
          "durationTicks": 384,
          "midi": 41,
          "name": "F2",
          "ticks": 70272,
          "time": 81.333252,
          "velocity": 0.3937007874015748
        },
        {
          "duration": 0.44444399999999007,
          "durationTicks": 384,
          "midi": 41,
          "name": "F2",
          "ticks": 70656,
          "time": 81.777696,
          "velocity": 0.3937007874015748
        },
        {
          "duration": 0.4444440000000043,
          "durationTicks": 384,
          "midi": 41,
          "name": "F2",
          "ticks": 71040,
          "time": 82.22214,
          "velocity": 0.3937007874015748
        },
        {
          "duration": 0.4444440000000043,
          "durationTicks": 384,
          "midi": 41,
          "name": "F2",
          "ticks": 71424,
          "time": 82.666584,
          "velocity": 0.3937007874015748
        },
        {
          "duration": 0.44444399999999007,
          "durationTicks": 384,
          "midi": 41,
          "name": "F2",
          "ticks": 71808,
          "time": 83.111028,
          "velocity": 0.3937007874015748
        },
        {
          "duration": 0.4444440000000043,
          "durationTicks": 384,
          "midi": 41,
          "name": "F2",
          "ticks": 72192,
          "time": 83.555472,
          "velocity": 0.3937007874015748
        },
        {
          "duration": 0.4444440000000043,
          "durationTicks": 384,
          "midi": 41,
          "name": "F2",
          "ticks": 72576,
          "time": 83.999916,
          "velocity": 0.3937007874015748
        },
        {
          "duration": 0.4444440000000043,
          "durationTicks": 384,
          "midi": 41,
          "name": "F2",
          "ticks": 72960,
          "time": 84.44436,
          "velocity": 0.3937007874015748
        },
        {
          "duration": 0.44444399999999007,
          "durationTicks": 384,
          "midi": 41,
          "name": "F2",
          "ticks": 73344,
          "time": 84.88880400000001,
          "velocity": 0.3937007874015748
        },
        {
          "duration": 0.4444440000000043,
          "durationTicks": 384,
          "midi": 41,
          "name": "F2",
          "ticks": 73728,
          "time": 85.333248,
          "velocity": 0.3937007874015748
        },
        {
          "duration": 0.4444440000000043,
          "durationTicks": 384,
          "midi": 41,
          "name": "F2",
          "ticks": 74112,
          "time": 85.777692,
          "velocity": 0.3937007874015748
        },
        {
          "duration": 0.44444399999999007,
          "durationTicks": 384,
          "midi": 41,
          "name": "F2",
          "ticks": 74496,
          "time": 86.222136,
          "velocity": 0.3937007874015748
        },
        {
          "duration": 0.4444440000000043,
          "durationTicks": 384,
          "midi": 41,
          "name": "F2",
          "ticks": 74880,
          "time": 86.66658,
          "velocity": 0.3937007874015748
        },
        {
          "duration": 0.4444440000000043,
          "durationTicks": 384,
          "midi": 41,
          "name": "F2",
          "ticks": 75264,
          "time": 87.111024,
          "velocity": 0.3937007874015748
        },
        {
          "duration": 0.44444399999999007,
          "durationTicks": 384,
          "midi": 41,
          "name": "F2",
          "ticks": 75648,
          "time": 87.555468,
          "velocity": 0.3937007874015748
        },
        {
          "duration": 0.4444440000000043,
          "durationTicks": 384,
          "midi": 41,
          "name": "F2",
          "ticks": 76032,
          "time": 87.999912,
          "velocity": 0.3937007874015748
        },
        {
          "duration": 0.4444440000000043,
          "durationTicks": 384,
          "midi": 41,
          "name": "F2",
          "ticks": 76416,
          "time": 88.444356,
          "velocity": 0.3937007874015748
        },
        {
          "duration": 0.4444440000000043,
          "durationTicks": 384,
          "midi": 41,
          "name": "F2",
          "ticks": 76800,
          "time": 88.8888,
          "velocity": 0.3937007874015748
        },
        {
          "duration": 0.44444399999999007,
          "durationTicks": 384,
          "midi": 41,
          "name": "F2",
          "ticks": 77184,
          "time": 89.33324400000001,
          "velocity": 0.3937007874015748
        },
        {
          "duration": 0.4444440000000043,
          "durationTicks": 384,
          "midi": 41,
          "name": "F2",
          "ticks": 77568,
          "time": 89.777688,
          "velocity": 0.3937007874015748
        },
        {
          "duration": 0.4444440000000043,
          "durationTicks": 384,
          "midi": 41,
          "name": "F2",
          "ticks": 77952,
          "time": 90.222132,
          "velocity": 0.3937007874015748
        },
        {
          "duration": 0.44444399999999007,
          "durationTicks": 384,
          "midi": 41,
          "name": "F2",
          "ticks": 78336,
          "time": 90.666576,
          "velocity": 0.3937007874015748
        },
        {
          "duration": 0.4444440000000043,
          "durationTicks": 384,
          "midi": 41,
          "name": "F2",
          "ticks": 78720,
          "time": 91.11102,
          "velocity": 0.3937007874015748
        },
        {
          "duration": 0.4444440000000043,
          "durationTicks": 384,
          "midi": 41,
          "name": "F2",
          "ticks": 79104,
          "time": 91.555464,
          "velocity": 0.3937007874015748
        },
        {
          "duration": 0.44444399999999007,
          "durationTicks": 384,
          "midi": 41,
          "name": "F2",
          "ticks": 79488,
          "time": 91.999908,
          "velocity": 0.3937007874015748
        },
        {
          "duration": 0.4444440000000043,
          "durationTicks": 384,
          "midi": 41,
          "name": "F2",
          "ticks": 79872,
          "time": 92.444352,
          "velocity": 0.3937007874015748
        },
        {
          "duration": 0.4444440000000043,
          "durationTicks": 384,
          "midi": 41,
          "name": "F2",
          "ticks": 80256,
          "time": 92.888796,
          "velocity": 0.3937007874015748
        },
        {
          "duration": 0.4444440000000043,
          "durationTicks": 384,
          "midi": 41,
          "name": "F2",
          "ticks": 80640,
          "time": 93.33324,
          "velocity": 0.3937007874015748
        },
        {
          "duration": 0.44444399999999007,
          "durationTicks": 384,
          "midi": 41,
          "name": "F2",
          "ticks": 81024,
          "time": 93.77768400000001,
          "velocity": 0.3937007874015748
        },
        {
          "duration": 0.4444440000000043,
          "durationTicks": 384,
          "midi": 41,
          "name": "F2",
          "ticks": 81408,
          "time": 94.222128,
          "velocity": 0.3937007874015748
        },
        {
          "duration": 0.4444440000000043,
          "durationTicks": 384,
          "midi": 41,
          "name": "F2",
          "ticks": 81792,
          "time": 94.666572,
          "velocity": 0.3937007874015748
        },
        {
          "duration": 0.44444399999999007,
          "durationTicks": 384,
          "midi": 41,
          "name": "F2",
          "ticks": 82176,
          "time": 95.111016,
          "velocity": 0.3937007874015748
        },
        {
          "duration": 0.4444440000000043,
          "durationTicks": 384,
          "midi": 41,
          "name": "F2",
          "ticks": 82560,
          "time": 95.55546,
          "velocity": 0.3937007874015748
        },
        {
          "duration": 0.4444440000000043,
          "durationTicks": 384,
          "midi": 41,
          "name": "F2",
          "ticks": 82944,
          "time": 95.999904,
          "velocity": 0.3937007874015748
        },
        {
          "duration": 0.44444399999999007,
          "durationTicks": 384,
          "midi": 41,
          "name": "F2",
          "ticks": 83328,
          "time": 96.444348,
          "velocity": 0.3937007874015748
        },
        {
          "duration": 0.4444440000000043,
          "durationTicks": 384,
          "midi": 41,
          "name": "F2",
          "ticks": 83712,
          "time": 96.888792,
          "velocity": 0.3937007874015748
        },
        {
          "duration": 0.4444440000000043,
          "durationTicks": 384,
          "midi": 41,
          "name": "F2",
          "ticks": 84096,
          "time": 97.333236,
          "velocity": 0.3937007874015748
        },
        {
          "duration": 0.4444440000000043,
          "durationTicks": 384,
          "midi": 41,
          "name": "F2",
          "ticks": 84480,
          "time": 97.77768,
          "velocity": 0.3937007874015748
        },
        {
          "duration": 0.44444399999999007,
          "durationTicks": 384,
          "midi": 41,
          "name": "F2",
          "ticks": 84864,
          "time": 98.22212400000001,
          "velocity": 0.3937007874015748
        },
        {
          "duration": 0.4444440000000043,
          "durationTicks": 384,
          "midi": 41,
          "name": "F2",
          "ticks": 85248,
          "time": 98.666568,
          "velocity": 0.3937007874015748
        },
        {
          "duration": 0.4444440000000043,
          "durationTicks": 384,
          "midi": 41,
          "name": "F2",
          "ticks": 85632,
          "time": 99.111012,
          "velocity": 0.3937007874015748
        },
        {
          "duration": 0.44444399999999007,
          "durationTicks": 384,
          "midi": 41,
          "name": "F2",
          "ticks": 86016,
          "time": 99.555456,
          "velocity": 0.3937007874015748
        },
        {
          "duration": 0.4444440000000043,
          "durationTicks": 384,
          "midi": 41,
          "name": "F2",
          "ticks": 86400,
          "time": 99.9999,
          "velocity": 0.3937007874015748
        },
        {
          "duration": 0.4444440000000043,
          "durationTicks": 384,
          "midi": 41,
          "name": "F2",
          "ticks": 86784,
          "time": 100.444344,
          "velocity": 0.3937007874015748
        },
        {
          "duration": 0.44444399999999007,
          "durationTicks": 384,
          "midi": 41,
          "name": "F2",
          "ticks": 87168,
          "time": 100.888788,
          "velocity": 0.3937007874015748
        },
        {
          "duration": 0.4444440000000043,
          "durationTicks": 384,
          "midi": 41,
          "name": "F2",
          "ticks": 87552,
          "time": 101.333232,
          "velocity": 0.3937007874015748
        },
        {
          "duration": 0.4444440000000043,
          "durationTicks": 384,
          "midi": 41,
          "name": "F2",
          "ticks": 87936,
          "time": 101.777676,
          "velocity": 0.3937007874015748
        },
        {
          "duration": 0.4444440000000043,
          "durationTicks": 384,
          "midi": 41,
          "name": "F2",
          "ticks": 88320,
          "time": 102.22212,
          "velocity": 0.3937007874015748
        },
        {
          "duration": 0.44444399999999007,
          "durationTicks": 384,
          "midi": 41,
          "name": "F2",
          "ticks": 88704,
          "time": 102.66656400000001,
          "velocity": 0.3937007874015748
        },
        {
          "duration": 0.4444440000000043,
          "durationTicks": 384,
          "midi": 41,
          "name": "F2",
          "ticks": 89088,
          "time": 103.111008,
          "velocity": 0.3937007874015748
        },
        {
          "duration": 0.4444440000000043,
          "durationTicks": 384,
          "midi": 41,
          "name": "F2",
          "ticks": 90240,
          "time": 104.44434,
          "velocity": 0.3937007874015748
        },
        {
          "duration": 0.22222200000000214,
          "durationTicks": 192,
          "midi": 41,
          "name": "F2",
          "ticks": 90624,
          "time": 104.888784,
          "velocity": 0.3937007874015748
        },
        {
          "duration": 0.22222200000000214,
          "durationTicks": 192,
          "midi": 41,
          "name": "F2",
          "ticks": 90816,
          "time": 105.111006,
          "velocity": 0.3937007874015748
        },
        {
          "duration": 0.22222200000000214,
          "durationTicks": 192,
          "midi": 41,
          "name": "F2",
          "ticks": 91008,
          "time": 105.333228,
          "velocity": 0.3937007874015748
        },
        {
          "duration": 0.22222199999998793,
          "durationTicks": 192,
          "midi": 41,
          "name": "F2",
          "ticks": 91200,
          "time": 105.55545000000001,
          "velocity": 0.3937007874015748
        },
        {
          "duration": 0.11111100000000818,
          "durationTicks": 96,
          "midi": 41,
          "name": "F2",
          "ticks": 91392,
          "time": 105.777672,
          "velocity": 0.3937007874015748
        },
        {
          "duration": 0.11111099999999396,
          "durationTicks": 96,
          "midi": 41,
          "name": "F2",
          "ticks": 91488,
          "time": 105.888783,
          "velocity": 0.3937007874015748
        },
        {
          "duration": 0.11111100000000818,
          "durationTicks": 96,
          "midi": 41,
          "name": "F2",
          "ticks": 91584,
          "time": 105.999894,
          "velocity": 0.3937007874015748
        },
        {
          "duration": 0.11111099999999396,
          "durationTicks": 96,
          "midi": 41,
          "name": "F2",
          "ticks": 91680,
          "time": 106.111005,
          "velocity": 0.3937007874015748
        },
        {
          "duration": 0.4444440000000043,
          "durationTicks": 384,
          "midi": 41,
          "name": "F2",
          "ticks": 92160,
          "time": 106.66656,
          "velocity": 0.3937007874015748
        },
        {
          "duration": 0.44444399999999007,
          "durationTicks": 384,
          "midi": 41,
          "name": "F2",
          "ticks": 92544,
          "time": 107.11100400000001,
          "velocity": 0.3937007874015748
        },
        {
          "duration": 0.44444399999999007,
          "durationTicks": 384,
          "midi": 41,
          "name": "F2",
          "ticks": 93696,
          "time": 108.444336,
          "velocity": 0.3937007874015748
        },
        {
          "duration": 0.4444440000000043,
          "durationTicks": 384,
          "midi": 41,
          "name": "F2",
          "ticks": 94080,
          "time": 108.88878,
          "velocity": 0.3937007874015748
        },
        {
          "duration": 0.4444440000000043,
          "durationTicks": 384,
          "midi": 41,
          "name": "F2",
          "ticks": 94464,
          "time": 109.333224,
          "velocity": 0.3937007874015748
        },
        {
          "duration": 0.4444440000000043,
          "durationTicks": 384,
          "midi": 41,
          "name": "F2",
          "ticks": 95232,
          "time": 110.222112,
          "velocity": 0.3937007874015748
        },
        {
          "duration": 0.4444440000000043,
          "durationTicks": 384,
          "midi": 41,
          "name": "F2",
          "ticks": 95616,
          "time": 110.666556,
          "velocity": 0.3937007874015748
        },
        {
          "duration": 0.4444440000000043,
          "durationTicks": 384,
          "midi": 41,
          "name": "F2",
          "ticks": 96000,
          "time": 111.111,
          "velocity": 0.3937007874015748
        },
        {
          "duration": 0.4444440000000043,
          "durationTicks": 384,
          "midi": 41,
          "name": "F2",
          "ticks": 96768,
          "time": 111.999888,
          "velocity": 0.3937007874015748
        },
        {
          "duration": 0.4444440000000043,
          "durationTicks": 384,
          "midi": 41,
          "name": "F2",
          "ticks": 97152,
          "time": 112.444332,
          "velocity": 0.3937007874015748
        },
        {
          "duration": 0.44444399999999007,
          "durationTicks": 384,
          "midi": 41,
          "name": "F2",
          "ticks": 97536,
          "time": 112.88877600000001,
          "velocity": 0.3937007874015748
        },
        {
          "duration": 0.11111100000000818,
          "durationTicks": 96,
          "midi": 41,
          "name": "F2",
          "ticks": 97920,
          "time": 113.33322,
          "velocity": 0.3937007874015748
        },
        {
          "duration": 0.11111099999999396,
          "durationTicks": 96,
          "midi": 41,
          "name": "F2",
          "ticks": 98016,
          "time": 113.444331,
          "velocity": 0.3937007874015748
        },
        {
          "duration": 0.11111100000000818,
          "durationTicks": 96,
          "midi": 41,
          "name": "F2",
          "ticks": 98112,
          "time": 113.555442,
          "velocity": 0.3937007874015748
        },
        {
          "duration": 0.11111099999999396,
          "durationTicks": 96,
          "midi": 41,
          "name": "F2",
          "ticks": 98208,
          "time": 113.66655300000001,
          "velocity": 0.3937007874015748
        },
        {
          "duration": 0.4444440000000185,
          "durationTicks": 384,
          "midi": 41,
          "name": "F2",
          "ticks": 110592,
          "time": 127.999872,
          "velocity": 0.3937007874015748
        },
        {
          "duration": 0.44444399999997586,
          "durationTicks": 384,
          "midi": 41,
          "name": "F2",
          "ticks": 110976,
          "time": 128.44431600000001,
          "velocity": 0.3937007874015748
        },
        {
          "duration": 0.4444440000000043,
          "durationTicks": 384,
          "midi": 41,
          "name": "F2",
          "ticks": 111360,
          "time": 128.88876,
          "velocity": 0.3937007874015748
        },
        {
          "duration": 0.4444440000000043,
          "durationTicks": 384,
          "midi": 41,
          "name": "F2",
          "ticks": 111744,
          "time": 129.333204,
          "velocity": 0.3937007874015748
        },
        {
          "duration": 0.4444440000000043,
          "durationTicks": 384,
          "midi": 41,
          "name": "F2",
          "ticks": 112128,
          "time": 129.777648,
          "velocity": 0.3937007874015748
        },
        {
          "duration": 0.4444440000000043,
          "durationTicks": 384,
          "midi": 41,
          "name": "F2",
          "ticks": 112512,
          "time": 130.222092,
          "velocity": 0.3937007874015748
        },
        {
          "duration": 0.4444440000000043,
          "durationTicks": 384,
          "midi": 41,
          "name": "F2",
          "ticks": 112896,
          "time": 130.666536,
          "velocity": 0.3937007874015748
        },
        {
          "duration": 0.44444399999997586,
          "durationTicks": 384,
          "midi": 41,
          "name": "F2",
          "ticks": 113280,
          "time": 131.11098,
          "velocity": 0.3937007874015748
        },
        {
          "duration": 0.4444440000000043,
          "durationTicks": 384,
          "midi": 41,
          "name": "F2",
          "ticks": 113664,
          "time": 131.555424,
          "velocity": 0.3937007874015748
        },
        {
          "duration": 0.4444440000000043,
          "durationTicks": 384,
          "midi": 41,
          "name": "F2",
          "ticks": 114048,
          "time": 131.999868,
          "velocity": 0.3937007874015748
        },
        {
          "duration": 0.4444440000000043,
          "durationTicks": 384,
          "midi": 41,
          "name": "F2",
          "ticks": 114432,
          "time": 132.444312,
          "velocity": 0.3937007874015748
        },
        {
          "duration": 0.4444440000000043,
          "durationTicks": 384,
          "midi": 41,
          "name": "F2",
          "ticks": 114816,
          "time": 132.888756,
          "velocity": 0.3937007874015748
        },
        {
          "duration": 0.4444440000000043,
          "durationTicks": 384,
          "midi": 41,
          "name": "F2",
          "ticks": 115200,
          "time": 133.3332,
          "velocity": 0.3937007874015748
        },
        {
          "duration": 0.4444440000000043,
          "durationTicks": 384,
          "midi": 41,
          "name": "F2",
          "ticks": 115584,
          "time": 133.777644,
          "velocity": 0.3937007874015748
        },
        {
          "duration": 0.44444399999997586,
          "durationTicks": 384,
          "midi": 41,
          "name": "F2",
          "ticks": 115968,
          "time": 134.222088,
          "velocity": 0.3937007874015748
        },
        {
          "duration": 0.4444440000000043,
          "durationTicks": 384,
          "midi": 41,
          "name": "F2",
          "ticks": 116352,
          "time": 134.666532,
          "velocity": 0.3937007874015748
        },
        {
          "duration": 0.4444440000000043,
          "durationTicks": 384,
          "midi": 41,
          "name": "F2",
          "ticks": 116736,
          "time": 135.110976,
          "velocity": 0.3937007874015748
        },
        {
          "duration": 0.4444440000000043,
          "durationTicks": 384,
          "midi": 41,
          "name": "F2",
          "ticks": 117120,
          "time": 135.55542,
          "velocity": 0.3937007874015748
        },
        {
          "duration": 0.4444440000000043,
          "durationTicks": 384,
          "midi": 41,
          "name": "F2",
          "ticks": 117504,
          "time": 135.999864,
          "velocity": 0.3937007874015748
        },
        {
          "duration": 0.4444440000000043,
          "durationTicks": 384,
          "midi": 41,
          "name": "F2",
          "ticks": 117888,
          "time": 136.444308,
          "velocity": 0.3937007874015748
        },
        {
          "duration": 0.4444440000000043,
          "durationTicks": 384,
          "midi": 41,
          "name": "F2",
          "ticks": 118272,
          "time": 136.888752,
          "velocity": 0.3937007874015748
        },
        {
          "duration": 0.44444399999997586,
          "durationTicks": 384,
          "midi": 41,
          "name": "F2",
          "ticks": 118656,
          "time": 137.33319600000002,
          "velocity": 0.3937007874015748
        },
        {
          "duration": 0.4444440000000043,
          "durationTicks": 384,
          "midi": 41,
          "name": "F2",
          "ticks": 119040,
          "time": 137.77764,
          "velocity": 0.3937007874015748
        },
        {
          "duration": 0.4444440000000043,
          "durationTicks": 384,
          "midi": 41,
          "name": "F2",
          "ticks": 119424,
          "time": 138.222084,
          "velocity": 0.3937007874015748
        },
        {
          "duration": 0.4444440000000043,
          "durationTicks": 384,
          "midi": 41,
          "name": "F2",
          "ticks": 119808,
          "time": 138.666528,
          "velocity": 0.3937007874015748
        },
        {
          "duration": 0.4444440000000043,
          "durationTicks": 384,
          "midi": 41,
          "name": "F2",
          "ticks": 120192,
          "time": 139.110972,
          "velocity": 0.3937007874015748
        },
        {
          "duration": 0.4444440000000043,
          "durationTicks": 384,
          "midi": 41,
          "name": "F2",
          "ticks": 120576,
          "time": 139.555416,
          "velocity": 0.3937007874015748
        },
        {
          "duration": 0.44444399999997586,
          "durationTicks": 384,
          "midi": 41,
          "name": "F2",
          "ticks": 120960,
          "time": 139.99986,
          "velocity": 0.3937007874015748
        },
        {
          "duration": 0.22222200000001635,
          "durationTicks": 192,
          "midi": 41,
          "name": "F2",
          "ticks": 121344,
          "time": 140.444304,
          "velocity": 0.3937007874015748
        },
        {
          "duration": 0.22222199999998793,
          "durationTicks": 192,
          "midi": 41,
          "name": "F2",
          "ticks": 121536,
          "time": 140.666526,
          "velocity": 0.3937007874015748
        },
        {
          "duration": 0.22222200000001635,
          "durationTicks": 192,
          "midi": 41,
          "name": "F2",
          "ticks": 121728,
          "time": 140.888748,
          "velocity": 0.3937007874015748
        },
        {
          "duration": 0.22222199999998793,
          "durationTicks": 192,
          "midi": 41,
          "name": "F2",
          "ticks": 121920,
          "time": 141.11097,
          "velocity": 0.3937007874015748
        },
        {
          "duration": 0.11111099999999396,
          "durationTicks": 96,
          "midi": 41,
          "name": "F2",
          "ticks": 122112,
          "time": 141.333192,
          "velocity": 0.3937007874015748
        },
        {
          "duration": 0.11111100000002239,
          "durationTicks": 96,
          "midi": 41,
          "name": "F2",
          "ticks": 122208,
          "time": 141.444303,
          "velocity": 0.3937007874015748
        },
        {
          "duration": 0.11111099999999396,
          "durationTicks": 96,
          "midi": 41,
          "name": "F2",
          "ticks": 122304,
          "time": 141.555414,
          "velocity": 0.3937007874015748
        },
        {
          "duration": 0.11111099999999396,
          "durationTicks": 96,
          "midi": 41,
          "name": "F2",
          "ticks": 122400,
          "time": 141.666525,
          "velocity": 0.3937007874015748
        },
        {
          "duration": 0.4444440000000043,
          "durationTicks": 384,
          "midi": 41,
          "name": "F2",
          "ticks": 122880,
          "time": 142.22208,
          "velocity": 0.3937007874015748
        },
        {
          "duration": 0.4444440000000043,
          "durationTicks": 384,
          "midi": 41,
          "name": "F2",
          "ticks": 123264,
          "time": 142.666524,
          "velocity": 0.3937007874015748
        },
        {
          "duration": 0.44444399999997586,
          "durationTicks": 384,
          "midi": 41,
          "name": "F2",
          "ticks": 123648,
          "time": 143.110968,
          "velocity": 0.3937007874015748
        },
        {
          "duration": 0.4444440000000043,
          "durationTicks": 384,
          "midi": 41,
          "name": "F2",
          "ticks": 124032,
          "time": 143.555412,
          "velocity": 0.3937007874015748
        },
        {
          "duration": 0.4444440000000043,
          "durationTicks": 384,
          "midi": 41,
          "name": "F2",
          "ticks": 124416,
          "time": 143.999856,
          "velocity": 0.3937007874015748
        },
        {
          "duration": 0.4444440000000043,
          "durationTicks": 384,
          "midi": 41,
          "name": "F2",
          "ticks": 124800,
          "time": 144.4443,
          "velocity": 0.3937007874015748
        },
        {
          "duration": 0.4444440000000043,
          "durationTicks": 384,
          "midi": 41,
          "name": "F2",
          "ticks": 125184,
          "time": 144.888744,
          "velocity": 0.3937007874015748
        },
        {
          "duration": 0.4444440000000043,
          "durationTicks": 384,
          "midi": 41,
          "name": "F2",
          "ticks": 125568,
          "time": 145.333188,
          "velocity": 0.3937007874015748
        },
        {
          "duration": 0.4444440000000043,
          "durationTicks": 384,
          "midi": 41,
          "name": "F2",
          "ticks": 125952,
          "time": 145.777632,
          "velocity": 0.3937007874015748
        },
        {
          "duration": 0.44444399999997586,
          "durationTicks": 384,
          "midi": 41,
          "name": "F2",
          "ticks": 126336,
          "time": 146.22207600000002,
          "velocity": 0.3937007874015748
        },
        {
          "duration": 0.4444440000000043,
          "durationTicks": 384,
          "midi": 41,
          "name": "F2",
          "ticks": 126720,
          "time": 146.66652,
          "velocity": 0.3937007874015748
        },
        {
          "duration": 0.4444440000000043,
          "durationTicks": 384,
          "midi": 41,
          "name": "F2",
          "ticks": 127104,
          "time": 147.110964,
          "velocity": 0.3937007874015748
        },
        {
          "duration": 0.4444440000000043,
          "durationTicks": 384,
          "midi": 41,
          "name": "F2",
          "ticks": 127488,
          "time": 147.555408,
          "velocity": 0.3937007874015748
        },
        {
          "duration": 0.4444440000000043,
          "durationTicks": 384,
          "midi": 41,
          "name": "F2",
          "ticks": 127872,
          "time": 147.999852,
          "velocity": 0.3937007874015748
        },
        {
          "duration": 0.4444440000000043,
          "durationTicks": 384,
          "midi": 41,
          "name": "F2",
          "ticks": 128256,
          "time": 148.444296,
          "velocity": 0.3937007874015748
        },
        {
          "duration": 0.44444399999997586,
          "durationTicks": 384,
          "midi": 41,
          "name": "F2",
          "ticks": 128640,
          "time": 148.88874,
          "velocity": 0.3937007874015748
        },
        {
          "duration": 0.4444440000000043,
          "durationTicks": 384,
          "midi": 41,
          "name": "F2",
          "ticks": 129024,
          "time": 149.333184,
          "velocity": 0.3937007874015748
        },
        {
          "duration": 0.4444440000000043,
          "durationTicks": 384,
          "midi": 41,
          "name": "F2",
          "ticks": 129408,
          "time": 149.777628,
          "velocity": 0.3937007874015748
        },
        {
          "duration": 0.4444440000000043,
          "durationTicks": 384,
          "midi": 41,
          "name": "F2",
          "ticks": 129792,
          "time": 150.222072,
          "velocity": 0.3937007874015748
        },
        {
          "duration": 0.4444440000000043,
          "durationTicks": 384,
          "midi": 41,
          "name": "F2",
          "ticks": 130176,
          "time": 150.666516,
          "velocity": 0.3937007874015748
        },
        {
          "duration": 0.4444440000000043,
          "durationTicks": 384,
          "midi": 41,
          "name": "F2",
          "ticks": 130560,
          "time": 151.11096,
          "velocity": 0.3937007874015748
        },
        {
          "duration": 0.4444440000000043,
          "durationTicks": 384,
          "midi": 41,
          "name": "F2",
          "ticks": 130944,
          "time": 151.555404,
          "velocity": 0.3937007874015748
        },
        {
          "duration": 0.44444399999997586,
          "durationTicks": 384,
          "midi": 41,
          "name": "F2",
          "ticks": 131328,
          "time": 151.99984800000001,
          "velocity": 0.3937007874015748
        },
        {
          "duration": 0.4444440000000043,
          "durationTicks": 384,
          "midi": 41,
          "name": "F2",
          "ticks": 131712,
          "time": 152.444292,
          "velocity": 0.3937007874015748
        },
        {
          "duration": 0.4444440000000043,
          "durationTicks": 384,
          "midi": 41,
          "name": "F2",
          "ticks": 132096,
          "time": 152.888736,
          "velocity": 0.3937007874015748
        },
        {
          "duration": 0.4444440000000043,
          "durationTicks": 384,
          "midi": 41,
          "name": "F2",
          "ticks": 132480,
          "time": 153.33318,
          "velocity": 0.3937007874015748
        },
        {
          "duration": 0.4444440000000043,
          "durationTicks": 384,
          "midi": 41,
          "name": "F2",
          "ticks": 132864,
          "time": 153.777624,
          "velocity": 0.3937007874015748
        },
        {
          "duration": 0.4444440000000043,
          "durationTicks": 384,
          "midi": 41,
          "name": "F2",
          "ticks": 133248,
          "time": 154.222068,
          "velocity": 0.3937007874015748
        },
        {
          "duration": 0.4444440000000043,
          "durationTicks": 384,
          "midi": 41,
          "name": "F2",
          "ticks": 133632,
          "time": 154.666512,
          "velocity": 0.3937007874015748
        },
        {
          "duration": 0.44444399999997586,
          "durationTicks": 384,
          "midi": 41,
          "name": "F2",
          "ticks": 134016,
          "time": 155.11095600000002,
          "velocity": 0.3937007874015748
        },
        {
          "duration": 0.4444440000000043,
          "durationTicks": 384,
          "midi": 41,
          "name": "F2",
          "ticks": 134400,
          "time": 155.5554,
          "velocity": 0.3937007874015748
        },
        {
          "duration": 0.4444440000000043,
          "durationTicks": 384,
          "midi": 41,
          "name": "F2",
          "ticks": 134784,
          "time": 155.999844,
          "velocity": 0.3937007874015748
        },
        {
          "duration": 0.4444440000000043,
          "durationTicks": 384,
          "midi": 41,
          "name": "F2",
          "ticks": 135168,
          "time": 156.444288,
          "velocity": 0.3937007874015748
        },
        {
          "duration": 0.4444440000000043,
          "durationTicks": 384,
          "midi": 41,
          "name": "F2",
          "ticks": 135552,
          "time": 156.888732,
          "velocity": 0.3937007874015748
        },
        {
          "duration": 0.4444440000000043,
          "durationTicks": 384,
          "midi": 41,
          "name": "F2",
          "ticks": 135936,
          "time": 157.333176,
          "velocity": 0.3937007874015748
        },
        {
          "duration": 0.44444399999997586,
          "durationTicks": 384,
          "midi": 41,
          "name": "F2",
          "ticks": 136320,
          "time": 157.77762,
          "velocity": 0.3937007874015748
        },
        {
          "duration": 0.4444440000000043,
          "durationTicks": 384,
          "midi": 41,
          "name": "F2",
          "ticks": 138240,
          "time": 159.99984,
          "velocity": 0.3937007874015748
        },
        {
          "duration": 0.4444440000000043,
          "durationTicks": 384,
          "midi": 41,
          "name": "F2",
          "ticks": 138624,
          "time": 160.444284,
          "velocity": 0.3937007874015748
        },
        {
          "duration": 0.44444399999997586,
          "durationTicks": 384,
          "midi": 41,
          "name": "F2",
          "ticks": 139008,
          "time": 160.88872800000001,
          "velocity": 0.3937007874015748
        },
        {
          "duration": 0.4444440000000043,
          "durationTicks": 384,
          "midi": 41,
          "name": "F2",
          "ticks": 139392,
          "time": 161.333172,
          "velocity": 0.3937007874015748
        },
        {
          "duration": 0.4444440000000043,
          "durationTicks": 384,
          "midi": 41,
          "name": "F2",
          "ticks": 139776,
          "time": 161.777616,
          "velocity": 0.3937007874015748
        },
        {
          "duration": 0.4444440000000043,
          "durationTicks": 384,
          "midi": 41,
          "name": "F2",
          "ticks": 140160,
          "time": 162.22206,
          "velocity": 0.3937007874015748
        },
        {
          "duration": 0.4444440000000043,
          "durationTicks": 384,
          "midi": 41,
          "name": "F2",
          "ticks": 140544,
          "time": 162.666504,
          "velocity": 0.3937007874015748
        },
        {
          "duration": 0.4444440000000043,
          "durationTicks": 384,
          "midi": 41,
          "name": "F2",
          "ticks": 140928,
          "time": 163.110948,
          "velocity": 0.3937007874015748
        },
        {
          "duration": 0.4444440000000043,
          "durationTicks": 384,
          "midi": 41,
          "name": "F2",
          "ticks": 141312,
          "time": 163.555392,
          "velocity": 0.3937007874015748
        },
        {
          "duration": 0.44444399999997586,
          "durationTicks": 384,
          "midi": 41,
          "name": "F2",
          "ticks": 141696,
          "time": 163.99983600000002,
          "velocity": 0.3937007874015748
        },
        {
          "duration": 0.4444440000000043,
          "durationTicks": 384,
          "midi": 41,
          "name": "F2",
          "ticks": 142080,
          "time": 164.44428,
          "velocity": 0.3937007874015748
        },
        {
          "duration": 0.4444440000000043,
          "durationTicks": 384,
          "midi": 41,
          "name": "F2",
          "ticks": 142464,
          "time": 164.888724,
          "velocity": 0.3937007874015748
        },
        {
          "duration": 0.4444440000000043,
          "durationTicks": 384,
          "midi": 41,
          "name": "F2",
          "ticks": 142848,
          "time": 165.333168,
          "velocity": 0.3937007874015748
        },
        {
          "duration": 0.4444440000000043,
          "durationTicks": 384,
          "midi": 41,
          "name": "F2",
          "ticks": 143232,
          "time": 165.777612,
          "velocity": 0.3937007874015748
        },
        {
          "duration": 0.4444440000000043,
          "durationTicks": 384,
          "midi": 41,
          "name": "F2",
          "ticks": 143616,
          "time": 166.222056,
          "velocity": 0.3937007874015748
        },
        {
          "duration": 0.44444399999997586,
          "durationTicks": 384,
          "midi": 41,
          "name": "F2",
          "ticks": 144000,
          "time": 166.6665,
          "velocity": 0.3937007874015748
        },
        {
          "duration": 0.4444440000000043,
          "durationTicks": 384,
          "midi": 41,
          "name": "F2",
          "ticks": 144384,
          "time": 167.110944,
          "velocity": 0.3937007874015748
        },
        {
          "duration": 0.4444440000000043,
          "durationTicks": 384,
          "midi": 41,
          "name": "F2",
          "ticks": 144768,
          "time": 167.555388,
          "velocity": 0.3937007874015748
        },
        {
          "duration": 0.4444440000000043,
          "durationTicks": 384,
          "midi": 41,
          "name": "F2",
          "ticks": 145152,
          "time": 167.999832,
          "velocity": 0.3937007874015748
        },
        {
          "duration": 0.4444440000000043,
          "durationTicks": 384,
          "midi": 41,
          "name": "F2",
          "ticks": 145536,
          "time": 168.444276,
          "velocity": 0.3937007874015748
        },
        {
          "duration": 0.4444440000000043,
          "durationTicks": 384,
          "midi": 41,
          "name": "F2",
          "ticks": 145920,
          "time": 168.88872,
          "velocity": 0.3937007874015748
        },
        {
          "duration": 0.4444440000000043,
          "durationTicks": 384,
          "midi": 41,
          "name": "F2",
          "ticks": 146304,
          "time": 169.333164,
          "velocity": 0.3937007874015748
        },
        {
          "duration": 0.44444399999997586,
          "durationTicks": 384,
          "midi": 41,
          "name": "F2",
          "ticks": 146688,
          "time": 169.77760800000001,
          "velocity": 0.3937007874015748
        },
        {
          "duration": 0.4444440000000043,
          "durationTicks": 384,
          "midi": 41,
          "name": "F2",
          "ticks": 147072,
          "time": 170.222052,
          "velocity": 0.3937007874015748
        },
        {
          "duration": 0.4444440000000043,
          "durationTicks": 384,
          "midi": 41,
          "name": "F2",
          "ticks": 147456,
          "time": 170.666496,
          "velocity": 0.3937007874015748
        },
        {
          "duration": 0.4444440000000043,
          "durationTicks": 384,
          "midi": 41,
          "name": "F2",
          "ticks": 147840,
          "time": 171.11094,
          "velocity": 0.3937007874015748
        },
        {
          "duration": 0.4444440000000043,
          "durationTicks": 384,
          "midi": 41,
          "name": "F2",
          "ticks": 148224,
          "time": 171.555384,
          "velocity": 0.3937007874015748
        },
        {
          "duration": 0.4444440000000043,
          "durationTicks": 384,
          "midi": 41,
          "name": "F2",
          "ticks": 148608,
          "time": 171.999828,
          "velocity": 0.3937007874015748
        },
        {
          "duration": 0.44444399999997586,
          "durationTicks": 384,
          "midi": 41,
          "name": "F2",
          "ticks": 148992,
          "time": 172.444272,
          "velocity": 0.3937007874015748
        },
        {
          "duration": 0.4444440000000043,
          "durationTicks": 384,
          "midi": 41,
          "name": "F2",
          "ticks": 149376,
          "time": 172.888716,
          "velocity": 0.3937007874015748
        },
        {
          "duration": 0.4444440000000043,
          "durationTicks": 384,
          "midi": 41,
          "name": "F2",
          "ticks": 149760,
          "time": 173.33316,
          "velocity": 0.3937007874015748
        },
        {
          "duration": 0.4444440000000043,
          "durationTicks": 384,
          "midi": 41,
          "name": "F2",
          "ticks": 150144,
          "time": 173.777604,
          "velocity": 0.3937007874015748
        },
        {
          "duration": 0.4444440000000043,
          "durationTicks": 384,
          "midi": 42,
          "name": "F#2",
          "ticks": 150528,
          "time": 174.222048,
          "velocity": 0.3937007874015748
        },
        {
          "duration": 0.4444440000000043,
          "durationTicks": 384,
          "midi": 42,
          "name": "F#2",
          "ticks": 150912,
          "time": 174.666492,
          "velocity": 0.3937007874015748
        },
        {
          "duration": 0.4444440000000043,
          "durationTicks": 384,
          "midi": 42,
          "name": "F#2",
          "ticks": 151296,
          "time": 175.110936,
          "velocity": 0.3937007874015748
        },
        {
          "duration": 0.44444399999997586,
          "durationTicks": 384,
          "midi": 42,
          "name": "F#2",
          "ticks": 151680,
          "time": 175.55538,
          "velocity": 0.3937007874015748
        },
        {
          "duration": 0.4444440000000043,
          "durationTicks": 384,
          "midi": 42,
          "name": "F#2",
          "ticks": 152064,
          "time": 175.999824,
          "velocity": 0.3937007874015748
        },
        {
          "duration": 0.4444440000000043,
          "durationTicks": 384,
          "midi": 42,
          "name": "F#2",
          "ticks": 152448,
          "time": 176.444268,
          "velocity": 0.3937007874015748
        },
        {
          "duration": 0.4444440000000043,
          "durationTicks": 384,
          "midi": 42,
          "name": "F#2",
          "ticks": 152832,
          "time": 176.888712,
          "velocity": 0.3937007874015748
        },
        {
          "duration": 0.4444440000000043,
          "durationTicks": 384,
          "midi": 42,
          "name": "F#2",
          "ticks": 153216,
          "time": 177.333156,
          "velocity": 0.3937007874015748
        },
        {
          "duration": 0.4444440000000043,
          "durationTicks": 384,
          "midi": 42,
          "name": "F#2",
          "ticks": 153600,
          "time": 177.7776,
          "velocity": 0.3937007874015748
        },
        {
          "duration": 0.4444440000000043,
          "durationTicks": 384,
          "midi": 42,
          "name": "F#2",
          "ticks": 153984,
          "time": 178.222044,
          "velocity": 0.3937007874015748
        },
        {
          "duration": 0.44444399999997586,
          "durationTicks": 384,
          "midi": 42,
          "name": "F#2",
          "ticks": 154368,
          "time": 178.66648800000002,
          "velocity": 0.3937007874015748
        },
        {
          "duration": 0.4444440000000043,
          "durationTicks": 384,
          "midi": 42,
          "name": "F#2",
          "ticks": 154752,
          "time": 179.110932,
          "velocity": 0.3937007874015748
        },
        {
          "duration": 0.4444440000000043,
          "durationTicks": 384,
          "midi": 42,
          "name": "F#2",
          "ticks": 155136,
          "time": 179.555376,
          "velocity": 0.3937007874015748
        },
        {
          "duration": 0.4444440000000043,
          "durationTicks": 384,
          "midi": 42,
          "name": "F#2",
          "ticks": 155520,
          "time": 179.99982,
          "velocity": 0.3937007874015748
        },
        {
          "duration": 0.4444440000000043,
          "durationTicks": 384,
          "midi": 42,
          "name": "F#2",
          "ticks": 155904,
          "time": 180.444264,
          "velocity": 0.3937007874015748
        },
        {
          "duration": 0.4444440000000043,
          "durationTicks": 384,
          "midi": 42,
          "name": "F#2",
          "ticks": 156288,
          "time": 180.888708,
          "velocity": 0.3937007874015748
        },
        {
          "duration": 0.44444399999997586,
          "durationTicks": 384,
          "midi": 42,
          "name": "F#2",
          "ticks": 156672,
          "time": 181.333152,
          "velocity": 0.3937007874015748
        },
        {
          "duration": 0.4444440000000043,
          "durationTicks": 384,
          "midi": 42,
          "name": "F#2",
          "ticks": 157056,
          "time": 181.777596,
          "velocity": 0.3937007874015748
        },
        {
          "duration": 0.4444440000000043,
          "durationTicks": 384,
          "midi": 42,
          "name": "F#2",
          "ticks": 157440,
          "time": 182.22204,
          "velocity": 0.3937007874015748
        },
        {
          "duration": 0.4444440000000043,
          "durationTicks": 384,
          "midi": 42,
          "name": "F#2",
          "ticks": 157824,
          "time": 182.666484,
          "velocity": 0.3937007874015748
        },
        {
          "duration": 0.4444440000000043,
          "durationTicks": 384,
          "midi": 42,
          "name": "F#2",
          "ticks": 158208,
          "time": 183.110928,
          "velocity": 0.3937007874015748
        },
        {
          "duration": 0.4444440000000043,
          "durationTicks": 384,
          "midi": 42,
          "name": "F#2",
          "ticks": 158592,
          "time": 183.555372,
          "velocity": 0.3937007874015748
        },
        {
          "duration": 0.4444440000000043,
          "durationTicks": 384,
          "midi": 42,
          "name": "F#2",
          "ticks": 158976,
          "time": 183.999816,
          "velocity": 0.3937007874015748
        },
        {
          "duration": 0.44444399999997586,
          "durationTicks": 384,
          "midi": 42,
          "name": "F#2",
          "ticks": 159360,
          "time": 184.44426,
          "velocity": 0.3937007874015748
        },
        {
          "duration": 0.4444440000000043,
          "durationTicks": 384,
          "midi": 42,
          "name": "F#2",
          "ticks": 159744,
          "time": 184.888704,
          "velocity": 0.3937007874015748
        },
        {
          "duration": 0.4444440000000043,
          "durationTicks": 384,
          "midi": 42,
          "name": "F#2",
          "ticks": 160128,
          "time": 185.333148,
          "velocity": 0.3937007874015748
        },
        {
          "duration": 0.4444440000000043,
          "durationTicks": 384,
          "midi": 42,
          "name": "F#2",
          "ticks": 160512,
          "time": 185.777592,
          "velocity": 0.3937007874015748
        },
        {
          "duration": 0.4444440000000043,
          "durationTicks": 384,
          "midi": 42,
          "name": "F#2",
          "ticks": 160896,
          "time": 186.222036,
          "velocity": 0.3937007874015748
        },
        {
          "duration": 0.4444440000000043,
          "durationTicks": 384,
          "midi": 42,
          "name": "F#2",
          "ticks": 161280,
          "time": 186.66648,
          "velocity": 0.3937007874015748
        },
        {
          "duration": 0.4444440000000043,
          "durationTicks": 384,
          "midi": 42,
          "name": "F#2",
          "ticks": 161664,
          "time": 187.110924,
          "velocity": 0.3937007874015748
        },
        {
          "duration": 0.44444399999997586,
          "durationTicks": 384,
          "midi": 42,
          "name": "F#2",
          "ticks": 162048,
          "time": 187.55536800000002,
          "velocity": 0.3937007874015748
        },
        {
          "duration": 0.4444440000000043,
          "durationTicks": 384,
          "midi": 42,
          "name": "F#2",
          "ticks": 162432,
          "time": 187.999812,
          "velocity": 0.3937007874015748
        }
      ],
      "endOfTrackTicks": 162816
    }
  ]
}
